<svg width="16" height="16" version="1.1" xmlns="http://www.w3.org/2000/svg">
<defs>
<style id="current-color-scheme" type="text/css">.ColorScheme-Text { color:#dfdfdf; } .ColorScheme-Highlight { color:#4285f4; }</style>
</defs>
<path d="m8 1c-3.878 0-7 3.122-7 7 0 3.878 3.122 7 7 7s7-3.122 7-7c0-3.878-3.122-7-7-7zm-0.53711 0.91211c0.08159-0.0063526 0.1658 0.0072506 0.24609 0.044922l0.074219 0.041016 4.25 2.9102c0.26912 0.1842 0.28681 0.56317 0.060547 0.77539l-0.074219 0.058594-3.5859 2.2793 3.5859 2.2812c0.30264 0.19259 0.30969 0.63136 0.013672 0.83398l-4.25 2.9102c-0.33183 0.22714-0.7832-0.011938-0.7832-0.41406v-4.6992l-2.9805 1.8984c-0.20708 0.13179-0.47578 0.092023-0.63672-0.082031l-0.054688-0.070312c-0.13179-0.20708-0.092023-0.47382 0.082031-0.63477l0.072266-0.056641 3.0898-1.9668-3.0898-1.9668c-0.23298-0.14825-0.30255-0.45648-0.1543-0.68945 0.14825-0.23297 0.45844-0.30255 0.69141-0.1543l2.9805 1.8984v-4.6992c0-0.28005 0.21812-0.47899 0.46289-0.49805zm0.53711 1.4473v3.7539l2.8418-1.8086-2.8418-1.9453zm0 5.5723v3.7539l2.8418-1.9453-2.8418-1.8086z" fill="#dfdfdf" fill-rule="evenodd" opacity=".3" style="paint-order:stroke fill markers"/>
</svg>
