<svg width="128" height="128" version="1.1" viewBox="0 0 128 128" xmlns="http://www.w3.org/2000/svg" xmlns:xlink="http://www.w3.org/1999/xlink">
 <defs>
  <linearGradient id="application-vnd.nokia.xml.qt.resource-c" x1="46.733" x2="46.733" y2="92.066" gradientTransform="scale(.89872 1.1127)" gradientUnits="userSpaceOnUse">
   <stop stop-color="#7FCB10" offset="0"/>
   <stop stop-color="#50A100" offset="1"/>
  </linearGradient>
  <path id="application-vnd.nokia.xml.qt.resource-b" d="m58 0 26 26v69c0 4.9706-4.0294 9-9 9h-66c-4.9706 0-9-4.0294-9-9v-86c-6.0872e-16 -4.9706 4.0294-9 9-9h49z"/>
  <filter id="application-vnd.nokia.xml.qt.resource-a" x="-13.7%" y="-9.1%" width="127.4%" height="122.1%">
   <feOffset dy="2" in="SourceAlpha" result="shadowOffsetOuter1"/>
   <feGaussianBlur in="shadowOffsetOuter1" result="shadowBlurOuter1" stdDeviation="3.5"/>
   <feColorMatrix in="shadowBlurOuter1" values="0 0 0 0 0.46370117   0 0 0 0 0.679376132   0 0 0 0 0  0 0 0 0.5 0"/>
  </filter>
  <linearGradient id="application-vnd.nokia.xml.qt.resource-f" x1="71" x2="60.727" y1="13" y2="23.71" gradientUnits="userSpaceOnUse">
   <stop stop-color="#FFF" stop-opacity=".1" offset="0"/>
   <stop stop-color="#FFF" stop-opacity=".3" offset="1"/>
  </linearGradient>
  <path id="application-vnd.nokia.xml.qt.resource-e" d="m58 0 26 26h-17c-4.9706 0-9-4.0294-9-9v-17z"/>
  <filter id="application-vnd.nokia.xml.qt.resource-d" x="-21.2%" y="-13.5%" width="142.3%" height="142.3%">
   <feOffset dy="2" in="SourceAlpha" result="shadowOffsetOuter1"/>
   <feGaussianBlur in="shadowOffsetOuter1" result="shadowBlurOuter1" stdDeviation="1.5"/>
   <feComposite in="shadowBlurOuter1" in2="SourceAlpha" operator="out" result="shadowBlurOuter1"/>
   <feColorMatrix in="shadowBlurOuter1" values="0 0 0 0 0   0 0 0 0 0   0 0 0 0 0  0 0 0 0.05 0"/>
  </filter>
 </defs>
 <g transform="translate(22,14)" fill-rule="evenodd">
  <use width="100%" height="100%" fill="#000000" filter="url(#application-vnd.nokia.xml.qt.resource-a)" xlink:href="#application-vnd.nokia.xml.qt.resource-b"/>
  <use width="100%" height="100%" fill="url(#application-vnd.nokia.xml.qt.resource-c)" xlink:href="#application-vnd.nokia.xml.qt.resource-b"/>
  <use width="100%" height="100%" fill="#000000" filter="url(#application-vnd.nokia.xml.qt.resource-d)" xlink:href="#application-vnd.nokia.xml.qt.resource-e"/>
  <use width="100%" height="100%" fill="url(#application-vnd.nokia.xml.qt.resource-f)" xlink:href="#application-vnd.nokia.xml.qt.resource-e"/>
 </g>
 <path d="m64 45.998c-3.065 0.0046-5.858 1.7598-7.1914 4.5196-0.89746-0.34026-1.8488-0.51624-2.8086-0.51954-4.4182 0-8 3.5818-8 8 8e-4 0.9593 0.17412 1.9106 0.51172 2.8086-2.7566 1.3357-4.5086 4.1282-4.5118 7.1914 0.0046 3.065 1.7598 5.858 4.5196 7.1914-0.34026 0.89746-0.51624 1.8488-0.51954 2.8086 0 4.4182 3.5818 8 8 8 0.6752-0.0038 1.3472-0.09304 2-0.26562v14.266c7e-4 1.7813 2.154 2.6732 3.414 1.4141l4.586-4.586 4.586 4.586c1.26 1.2591 3.4134 0.36722 3.414-1.4141v-14.262c0.65296 0.17128 1.325 0.2592 2 0.26172 4.4182 0 8-3.5818 8-8-8e-4 -0.9593-0.17414-1.9106-0.51171-2.8086 2.7566-1.3357 4.5086-4.1282 4.5118-7.1914-5e-3 -3.065-1.7598-5.858-4.5196-7.1914 0.34025-0.89746 0.51623-1.8488 0.51953-2.8086 0-4.4182-3.5818-8-8-8-0.9593 8e-4 -1.9106 0.17412-2.8086 0.51172-1.3357-2.7566-4.1282-4.5086-7.1914-4.5118zm0 8c7.732 0 14 6.268 14 14s-6.268 14-14 14c-7.732 0-14-6.268-14-14s6.268-14 14-14zm0 2c-6.6274 0-12 5.3726-12 12s5.3726 12 12 12 12-5.3726 12-12-5.3726-12-12-12z" fill="#fff" stroke-width="2"/>
</svg>
