<svg width="128" height="128" version="1.1" viewBox="0 0 128 128" xmlns="http://www.w3.org/2000/svg" xmlns:xlink="http://www.w3.org/1999/xlink">
 <defs>
  <linearGradient id="text-css-c" x1="46.733" x2="46.733" y2="93.467" gradientTransform="scale(.89872 1.1127)" gradientUnits="userSpaceOnUse">
   <stop stop-color="#FC7440" offset="0"/>
   <stop stop-color="#F04E11" offset="1"/>
  </linearGradient>
  <path id="text-css-b" d="m58 0 26 26v69c0 4.9706-4.0294 9-9 9h-66c-4.9706 0-9-4.0294-9-9v-86c-6.0872e-16 -4.9706 4.0294-9 9-9h49z"/>
  <filter id="text-css-a" x="-13.7%" y="-9.1%" width="127.4%" height="122.1%">
   <feOffset dy="2" in="SourceAlpha" result="shadowOffsetOuter1"/>
   <feGaussianBlur in="shadowOffsetOuter1" result="shadowBlurOuter1" stdDeviation="3.5"/>
   <feColorMatrix in="shadowBlurOuter1" values="0 0 0 0 0.941176471   0 0 0 0 0.309803922   0 0 0 0 0.0705882353  0 0 0 0.5 0"/>
  </filter>
  <linearGradient id="text-css-f" x1="71" x2="60.727" y1="13" y2="23.71" gradientUnits="userSpaceOnUse">
   <stop stop-color="#FFF" stop-opacity=".1" offset="0"/>
   <stop stop-color="#FFF" stop-opacity=".3" offset="1"/>
  </linearGradient>
  <path id="text-css-e" d="m58 0 26 26h-17c-4.9706 0-9-4.0294-9-9v-17z"/>
  <filter id="text-css-d" x="-21.2%" y="-13.5%" width="142.3%" height="142.3%">
   <feOffset dy="2" in="SourceAlpha" result="shadowOffsetOuter1"/>
   <feGaussianBlur in="shadowOffsetOuter1" result="shadowBlurOuter1" stdDeviation="1.5"/>
   <feComposite in="shadowBlurOuter1" in2="SourceAlpha" operator="out" result="shadowBlurOuter1"/>
   <feColorMatrix in="shadowBlurOuter1" values="0 0 0 0 0   0 0 0 0 0   0 0 0 0 0  0 0 0 0.05 0"/>
  </filter>
 </defs>
 <g transform="translate(22,14)" fill-rule="evenodd">
  <use width="100%" height="100%" fill="#000000" filter="url(#text-css-a)" xlink:href="#text-css-b"/>
  <use width="100%" height="100%" fill="url(#text-css-c)" xlink:href="#text-css-b"/>
  <use width="100%" height="100%" fill="#000000" filter="url(#text-css-d)" xlink:href="#text-css-e"/>
  <use width="100%" height="100%" fill="url(#text-css-f)" xlink:href="#text-css-e"/>
 </g>
 <path d="m62 50-12 39-7.696-23h-20.304v8h15.656l12.344 34 12-38 8 24 10-24 7.5 24h18.5v-8h-14l-12-32-10 22z" fill="#fff" stroke-width="2"/>
</svg>
