<svg width="128" height="128" version="1.1" viewBox="0 0 128 128" xmlns="http://www.w3.org/2000/svg">
 <defs>
  <filter id="application-x-deepinclone-dim-a" x="-.137" y="-.091" width="1.274" height="1.221">
   <feOffset dy="2" in="SourceAlpha" result="shadowOffsetOuter1"/>
   <feGaussianBlur in="shadowOffsetOuter1" result="shadowBlurOuter1" stdDeviation="3.5"/>
   <feColorMatrix in="shadowBlurOuter1" values="0 0 0 0 0.0391387195   0 0 0 0 0.388542822   0 0 0 0 1  0 0 0 0.5 0"/>
  </filter>
  <linearGradient id="application-x-deepinclone-dim-c" x1="46.733" x2="46.733" y2="93.467" gradientTransform="scale(.89872 1.1127)" gradientUnits="userSpaceOnUse">
   <stop stop-color="#327DFF" offset="0"/>
   <stop stop-color="#1066FF" offset="1"/>
  </linearGradient>
  <filter id="application-x-deepinclone-dim-d" x="-.212" y="-.135" width="1.423" height="1.423">
   <feOffset dy="2" in="SourceAlpha" result="shadowOffsetOuter1"/>
   <feGaussianBlur in="shadowOffsetOuter1" result="shadowBlurOuter1" stdDeviation="1.5"/>
   <feComposite in="shadowBlurOuter1" in2="SourceAlpha" operator="out" result="shadowBlurOuter1"/>
   <feColorMatrix in="shadowBlurOuter1" values="0 0 0 0 0   0 0 0 0 0   0 0 0 0 0  0 0 0 0.05 0"/>
  </filter>
  <linearGradient id="application-x-deepinclone-dim-f" x1="71" x2="60.727" y1="13" y2="23.71" gradientUnits="userSpaceOnUse">
   <stop stop-color="#FFF" stop-opacity=".1" offset="0"/>
   <stop stop-color="#FFF" stop-opacity=".3" offset="1"/>
  </linearGradient>
 </defs>
 <g transform="translate(22,14)" fill-rule="evenodd">
  <path d="m84 95c0 4.9706-4.0294 9-9 9h-66c-4.9706 0-9-4.0294-9-9v-86c0-4.9706 4.0294-9 9-9h49l26 26z" filter="url(#application-x-deepinclone-dim-a)"/>
  <path d="m84 95c0 4.9706-4.0294 9-9 9h-66c-4.9706 0-9-4.0294-9-9v-86c0-4.9706 4.0294-9 9-9h49l26 26z" fill="url(#application-x-deepinclone-dim-c)"/>
  <path d="m58 0 26 26h-17c-4.9706 0-9-4.0294-9-9z" filter="url(#application-x-deepinclone-dim-d)"/>
  <path d="m58 0 26 26h-17c-4.9706 0-9-4.0294-9-9z" fill="url(#application-x-deepinclone-dim-f)"/>
 </g>
 <path d="m52 76h-6v6h-6v2h6v6h6v6h2v-6h6v-6h28v-2h-28v-6h-6v-28.5h-2zm6 2v10h-10v-10z" fill="#fff" fill-rule="evenodd"/>
</svg>
