<svg width="48" height="48" version="1.1" viewBox="0 0 48 48" xmlns="http://www.w3.org/2000/svg" xmlns:xlink="http://www.w3.org/1999/xlink">
<defs>
<filter id="folder-music-stack-48px-a" x="-15.5%" y="-18.1%" width="131%" height="136.1%">
<feOffset dy="1" in="SourceAlpha" result="shadowOffsetOuter1"/>
<feGaussianBlur in="shadowOffsetOuter1" result="shadowBlurOuter1" stdDeviation="1"/>
<feComposite in="shadowBlurOuter1" in2="SourceAlpha" operator="out" result="shadowBlurOuter1"/>
<feColorMatrix in="shadowBlurOuter1" result="shadowMatrixOuter1" values="0 0 0 0 0   0 0 0 0 0   0 0 0 0 0  0 0 0 0.2 0"/>
<feMerge>
<feMergeNode in="shadowMatrixOuter1"/>
<feMergeNode in="SourceGraphic"/>
</feMerge>
</filter>
<linearGradient id="folder-music-stack-48px-c" x1="22.224" x2="22.224" y1="-3.5496e-14" y2="34.268" gradientTransform="scale(1.0801 .92582)" gradientUnits="userSpaceOnUse">
<stop stop-color="#C80017" offset="0"/>
<stop stop-color="#B105FF" offset="1"/>
</linearGradient>
<path id="folder-music-stack-48px-b" d="m24 2.5c0.60397 1.5099 2.0664 2.5 3.6926 2.5h9.1362c2.856 0 5.1712 2.3152 5.1712 5.1712v20.658c0 2.856-2.3152 5.1712-5.1712 5.1712h-31.658c-2.856 0-5.1712-2.3152-5.1712-5.1712l-1.7764e-15 -25.658c-3.4975e-16 -2.856 2.3152-5.1712 5.1712-5.1712l15.136 1.7764e-15c1.6262-2.9873e-16 3.0886 0.99009 3.6926 2.5z"/>
<linearGradient id="folder-music-stack-48px-i" x1="16.837" x2="16.837" y1=".46771" y2="32.724" gradientTransform="matrix(1.2472 0 0 .80178 3 16.625)" gradientUnits="userSpaceOnUse">
<stop stop-color="#F87136" offset="0"/>
<stop stop-color="#D22E18" offset="1"/>
</linearGradient>
<linearGradient id="folder-music-stack-48px-l" x1="13" x2="13" y1="8.8818e-16" y2="25.421" gradientTransform="translate(11,23)" gradientUnits="userSpaceOnUse">
<stop stop-color="#343434" offset="0"/>
<stop stop-color="#240B0B" offset="1"/>
</linearGradient>
<linearGradient id="folder-music-stack-48px-m" x1="50%" x2="50%" y2="100%">
<stop stop-color="#151515" offset="0"/>
<stop offset="1"/>
</linearGradient>
<circle id="folder-music-stack-48px-j" cx="13" cy="13" r="13"/>
<filter id="folder-music-stack-48px-k" x="-13.5%" y="-9.6%" width="126.9%" height="126.9%">
<feOffset dy="1" in="SourceAlpha" result="shadowOffsetOuter1"/>
<feGaussianBlur in="shadowOffsetOuter1" result="shadowBlurOuter1" stdDeviation="1"/>
<feComposite in="shadowBlurOuter1" in2="SourceAlpha" operator="out" result="shadowBlurOuter1"/>
<feColorMatrix in="shadowBlurOuter1" values="0 0 0 0 0   0 0 0 0 0   0 0 0 0 0  0 0 0 0.5 0"/>
</filter>
<linearGradient id="folder-music-stack-48px-o" x1="13" x2="13" y1="6" y2="20" gradientUnits="userSpaceOnUse">
<stop stop-color="#E91F95" offset="0"/>
<stop stop-color="#930DCE" offset="1"/>
</linearGradient>
<linearGradient id="linearGradient924" x1="13" x2="13" y1="8.8818e-16" y2="26" gradientTransform="translate(11,23)" gradientUnits="userSpaceOnUse" xlink:href="#folder-music-stack-48px-m"/>
<linearGradient id="linearGradient926" x1="13" x2="13" y1="4" y2="22" gradientUnits="userSpaceOnUse" xlink:href="#folder-music-stack-48px-m"/>
<linearGradient id="linearGradient928" x1="13" x2="13" y1="2" y2="24" gradientUnits="userSpaceOnUse" xlink:href="#folder-music-stack-48px-m"/>
<linearGradient id="linearGradient930" x1="13" x2="13" y1="6" y2="20" gradientUnits="userSpaceOnUse" xlink:href="#folder-music-stack-48px-m"/>
<mask id="folder-music-stack-48px-n" fill="#fff">
<use width="100%" height="100%" xlink:href="#folder-music-stack-48px-j"/>
</mask>
<filter id="filter1343" x="-.034105" y="-.081" width="1.0682" height="1.162" color-interpolation-filters="sRGB">
<feGaussianBlur stdDeviation="0.54"/>
</filter>
<linearGradient id="folder-48px-g" x1="13.627" x2="13.627" y1="10.918" y2="13.827" gradientTransform="matrix(1.5411 0 0 .64889 -47 8)" gradientUnits="userSpaceOnUse">
<stop stop-color="#FFF" offset="0"/>
<stop stop-color="#ffedce" offset="1"/>
</linearGradient>
<filter id="folder-48px-a" x="-.155" y="-.181" width="1.31" height="1.361">
<feOffset dy="1" in="SourceAlpha" result="shadowOffsetOuter1"/>
<feGaussianBlur in="shadowOffsetOuter1" result="shadowBlurOuter1" stdDeviation="1"/>
<feComposite in="shadowBlurOuter1" in2="SourceAlpha" operator="out" result="shadowBlurOuter1"/>
<feColorMatrix in="shadowBlurOuter1" result="shadowMatrixOuter1" values="0 0 0 0 0   0 0 0 0 0   0 0 0 0 0  0 0 0 0.2 0"/>
<feMerge>
<feMergeNode in="shadowMatrixOuter1"/>
<feMergeNode in="SourceGraphic"/>
</feMerge>
</filter>
</defs>
<use transform="translate(3,8)" width="100%" height="100%" fill="url(#folder-music-stack-48px-c)" fill-rule="evenodd" filter="url(#folder-music-stack-48px-a)" xlink:href="#folder-music-stack-48px-b"/>
<g transform="translate(50)" fill-rule="evenodd">
<rect x="-45" y="15" width="38" height="16" rx="3.3498" ry="3.3498" fill-opacity=".2" filter="url(#filter1343)" style="paint-order:stroke fill markers"/>
<path d="m-41.676 15.085h31.351c1.836 0 3.3243 1.4884 3.3243 3.3243v9.3514c0 1.836-1.4884 3.3243-3.3243 3.3243h-31.351c-1.836 0-3.3243-1.4884-3.3243-3.3243v-9.3514c0-1.836 1.4884-3.3243 3.3243-3.3243z" fill="url(#folder-48px-g)" filter="url(#folder-48px-a)"/>
<path d="m-41.676 15.085c-1.8606 0-3.3594 1.4713-3.3594 3.2988v1c0-1.8275 1.4987-3.2988 3.3594-3.2988h31.281c1.8606 0 3.3594 1.4713 3.3594 3.2988v-1c0-1.8275-1.4987-3.2988-3.3594-3.2988z" opacity=".5" style="paint-order:stroke fill markers"/>
</g>
<path d="m3 17h42v21.829c0 2.856-2.3152 5.1712-5.1712 5.1712h-31.658c-2.856 0-5.1712-2.3152-5.1712-5.1712z" fill="url(#folder-music-stack-48px-i)" fill-rule="evenodd" filter="url(#folder-music-stack-48px-a)"/>
<use transform="translate(11,23)" width="100%" height="100%" fill="#000000" fill-rule="evenodd" filter="url(#folder-music-stack-48px-k)" xlink:href="#folder-music-stack-48px-j"/>
<circle cx="24" cy="36" r="12.5" fill="url(#folder-music-stack-48px-l)" fill-rule="evenodd" filter="url(#folder-music-stack-48px-a)" stroke="url(#linearGradient924)" stroke-linejoin="square"/>
<circle transform="translate(11,23)" cx="13" cy="13" r="8.5" fill="none" filter="url(#folder-music-stack-48px-a)" mask="url(#folder-music-stack-48px-n)" stroke="url(#linearGradient926)"/>
<circle transform="translate(11,23)" cx="13" cy="13" r="10.5" fill="none" filter="url(#folder-music-stack-48px-a)" mask="url(#folder-music-stack-48px-n)" stroke="url(#linearGradient928)"/>
<circle transform="translate(11,23)" cx="13" cy="13" r="6.5" fill="url(#folder-music-stack-48px-o)" fill-rule="evenodd" filter="url(#folder-music-stack-48px-a)" mask="url(#folder-music-stack-48px-n)" stroke="url(#linearGradient930)"/>
<polygon transform="translate(11,23)" points="11 10 16 13 11 16" fill="#fff" fill-rule="evenodd" filter="url(#folder-music-stack-48px-a)" mask="url(#folder-music-stack-48px-n)"/>
</svg>
