<svg width="48" height="48" version="1.1" viewBox="0 0 48 48" xmlns="http://www.w3.org/2000/svg" xmlns:xlink="http://www.w3.org/1999/xlink">
<defs>
<filter id="folder-applications-stack-48px-a" x="-15.5%" y="-18.1%" width="131%" height="136.1%">
<feOffset dy="1" in="SourceAlpha" result="shadowOffsetOuter1"/>
<feGaussianBlur in="shadowOffsetOuter1" result="shadowBlurOuter1" stdDeviation="1"/>
<feComposite in="shadowBlurOuter1" in2="SourceAlpha" operator="out" result="shadowBlurOuter1"/>
<feColorMatrix in="shadowBlurOuter1" result="shadowMatrixOuter1" values="0 0 0 0 0   0 0 0 0 0   0 0 0 0 0  0 0 0 0.2 0"/>
<feMerge>
<feMergeNode in="shadowMatrixOuter1"/>
<feMergeNode in="SourceGraphic"/>
</feMerge>
</filter>
<path id="folder-applications-stack-48px-b" d="m24 2.5c0.60397 1.5099 2.0664 2.5 3.6926 2.5h9.1362c2.856 0 5.1712 2.3152 5.1712 5.1712v20.658c0 2.856-2.3152 5.1712-5.1712 5.1712h-31.658c-2.856 0-5.1712-2.3152-5.1712-5.1712l-1.7764e-15 -25.658c-3.4975e-16 -2.856 2.3152-5.1712 5.1712-5.1712l15.136 1.7764e-15c1.6262-2.9873e-16 3.0886 0.99009 3.6926 2.5z"/>
<radialGradient id="folder-applications-stack-48px-i" cx="16.837" cy=".46771" r="32.719" gradientTransform="scale(1.2472 .80178)" gradientUnits="userSpaceOnUse">
<stop stop-color="#7859FF" offset="0"/>
<stop stop-color="#5A2DFF" offset="1"/>
</radialGradient>
<path id="folder-applications-stack-48px-h" d="m0 0.375h42v21.829c0 2.856-2.3152 5.1712-5.1712 5.1712h-31.658c-2.856 0-5.1712-2.3152-5.1712-5.1712l-8.8818e-16 -21.829z"/>
<linearGradient id="folder-applications-stack-48px-k" x1="66.942%" x2="46.177%" y1="57.088%" y2="40.586%">
<stop stop-color="#5700FC" offset="0"/>
<stop stop-color="#5867FF" stop-opacity="0" offset="1"/>
</linearGradient>
<linearGradient id="folder-applications-stack-48px-l" x1="13.345" x2="9.233" y1="13.795" y2="4.3215" gradientTransform="scale(.76696 1.3038)" gradientUnits="userSpaceOnUse">
<stop stop-color="#D1C0FF" offset="0"/>
<stop stop-color="#8375FF" offset="1"/>
</linearGradient>
<linearGradient id="folder-applications-stack-48px-m" x1="9.9926" x2="8.3835" y1="7.3551" y2="13.748" gradientTransform="scale(.95299 1.0493)" gradientUnits="userSpaceOnUse">
<stop stop-color="#5C3FFF" offset="0"/>
<stop stop-color="#816AFF" stop-opacity=".054" offset="1"/>
</linearGradient>
<linearGradient id="folder-applications-stack-48px-n" x1="50%" x2="50%" y1="-22.147%" y2="100%">
<stop stop-color="#B6A2FF" offset="0"/>
<stop stop-color="#6249F0" offset="1"/>
</linearGradient>
<linearGradient id="folder-applications-stack-48px-o" x1="8.4679" x2="8.4679" y1="1.378" y2="50.635" gradientTransform="scale(1.5949 .62702)" gradientUnits="userSpaceOnUse">
<stop stop-color="#FFF" stop-opacity=".8" offset="0"/>
<stop stop-color="#882AFF" stop-opacity=".117" offset="1"/>
</linearGradient>
<linearGradient id="folder-applications-stack-48px-p" x1="16.551" x2="16.551" y1="-1.0149" y2="9.9103" gradientTransform="scale(1.118 .89443)" gradientUnits="userSpaceOnUse">
<stop stop-color="#CAA2FF" stop-opacity=".3" offset="0"/>
<stop stop-color="#6249F0" offset="1"/>
</linearGradient>
<linearGradient id="folder-applications-stack-48px-q" x1="21.699" x2="26.383" y1="10.978" y2="9.0109" gradientTransform="scale(.76696 1.3038)" gradientUnits="userSpaceOnUse">
<stop stop-color="#B9B7FF" offset="0"/>
<stop stop-color="#8174FF" offset="1"/>
</linearGradient>
<linearGradient id="folder-applications-stack-48px-r" x1="20.357" x2="18.309" y1="7.726" y2="14.426" gradientTransform="scale(1.0005 .99955)" gradientUnits="userSpaceOnUse">
<stop stop-color="#5C3FFF" offset="0"/>
<stop stop-color="#816AFF" stop-opacity=".054" offset="1"/>
</linearGradient>
<linearGradient id="linearGradient1013" x1="12.679" x2="8.7461" y1="48.407" y2="45.281" gradientTransform="scale(1.6297 .61361)" gradientUnits="userSpaceOnUse" xlink:href="#folder-applications-stack-48px-k"/>
<linearGradient id="linearGradient1015" x1="18.657" x2="14.724" y1="48.407" y2="45.281" gradientTransform="scale(1.6297 .61361)" gradientUnits="userSpaceOnUse" xlink:href="#folder-applications-stack-48px-k"/>
<linearGradient id="linearGradient1017" x1="5.8285" x2="5.8285" y1="3.4502" y2="16.662" gradientTransform="scale(1.2019 .83205)" gradientUnits="userSpaceOnUse" xlink:href="#folder-applications-stack-48px-n"/>
<linearGradient id="linearGradient1019" x1="16.645" x2="16.645" y1="3.4502" y2="16.662" gradientTransform="scale(1.2019 .83205)" gradientUnits="userSpaceOnUse" xlink:href="#folder-applications-stack-48px-n"/>
<filter id="filter1343" x="-.034105" y="-.081" width="1.0682" height="1.162" color-interpolation-filters="sRGB">
<feGaussianBlur stdDeviation="0.54"/>
</filter>
<linearGradient id="folder-48px-g" x1="13.627" x2="13.627" y1="10.918" y2="13.827" gradientTransform="matrix(1.5411 0 0 .64889 -41 8)" gradientUnits="userSpaceOnUse">
<stop stop-color="#FFF" offset="0"/>
<stop stop-color="#CEF5FF" offset="1"/>
</linearGradient>
<filter id="folder-48px-a" x="-.155" y="-.181" width="1.31" height="1.361">
<feOffset dy="1" in="SourceAlpha" result="shadowOffsetOuter1"/>
<feGaussianBlur in="shadowOffsetOuter1" result="shadowBlurOuter1" stdDeviation="1"/>
<feComposite in="shadowBlurOuter1" in2="SourceAlpha" operator="out" result="shadowBlurOuter1"/>
<feColorMatrix in="shadowBlurOuter1" result="shadowMatrixOuter1" values="0 0 0 0 0   0 0 0 0 0   0 0 0 0 0  0 0 0 0.2 0"/>
<feMerge>
<feMergeNode in="shadowMatrixOuter1"/>
<feMergeNode in="SourceGraphic"/>
</feMerge>
</filter>
</defs>
<use transform="translate(3,8)" width="100%" height="100%" fill="#4a00d5" fill-rule="evenodd" filter="url(#folder-applications-stack-48px-a)" xlink:href="#folder-applications-stack-48px-b"/>
<g transform="translate(44 7.04e-6)" fill-rule="evenodd">
<rect x="-39" y="15" width="38" height="16" rx="3.3498" ry="3.3498" fill-opacity=".2" filter="url(#filter1343)" style="paint-order:stroke fill markers"/>
<path d="m-35.676 15.084h31.351c1.836 0 3.3243 1.4884 3.3243 3.3243v9.3514c0 1.836-1.4884 3.3243-3.3243 3.3243h-31.351c-1.836 0-3.3243-1.4884-3.3243-3.3243v-9.3514c0-1.836 1.4884-3.3243 3.3243-3.3243z" fill="url(#folder-48px-g)" filter="url(#folder-48px-a)"/>
<path d="m-35.676 15.084c-1.8606 0-3.3594 1.4713-3.3594 3.2988v1c0-1.8275 1.4987-3.2988 3.3594-3.2988h31.281c1.8606 0 3.3594 1.4713 3.3594 3.2988v-1c0-1.8275-1.4987-3.2988-3.3594-3.2988z" opacity=".5" style="paint-order:stroke fill markers"/>
</g>
<use transform="translate(3,16.625)" width="100%" height="100%" fill="url(#folder-applications-stack-48px-i)" fill-rule="evenodd" filter="url(#folder-applications-stack-48px-a)" xlink:href="#folder-applications-stack-48px-h"/>
<g transform="translate(4,9)" fill="none" fill-rule="evenodd" filter="url(#folder-applications-stack-48px-a)">
<polygon points="20.305 34.69 30.867 30.712 10.562 23.068 0 27.045" fill="url(#linearGradient1013)"/>
<polygon transform="matrix(-1,0,0,1,50.352,0)" points="30.047 34.69 40.61 30.712 20.305 23.068 9.743 27.045" fill="url(#linearGradient1015)"/>
<g transform="translate(6.495,10.136)">
<polygon points="13.505 8.727 13.505 21.864 3.505 18 3.505 4.864" fill="url(#folder-applications-stack-48px-l)"/>
<polygon points="13.495 8.691 11.966 15.864 3.505 12.842 3.505 4.864" fill="url(#folder-applications-stack-48px-m)" opacity=".5"/>
<polygon points="13.505 8.727 10.696 13.864 0.505 9.773 3.505 4.864" fill="url(#linearGradient1017)"/>
<polygon points="13.505 8.727 23.505 4.864 13.505 0.864 3.505 4.864" fill="url(#folder-applications-stack-48px-o)"/>
<polygon points="13.505 8.864 23.505 4.864 13.512 0.864" fill="url(#folder-applications-stack-48px-p)"/>
<polygon points="23.505 8.727 23.505 21.864 13.505 17.864 13.505 4.864" fill="url(#folder-applications-stack-48px-q)"/>
<polygon transform="matrix(-1,0,0,1,38,0)" points="24.505 8.73 21.957 15.864 13.495 12.842 13.495 4.864" fill="url(#folder-applications-stack-48px-r)" opacity=".5"/>
<polygon transform="matrix(-1,0,0,1,40.01,0)" points="26.505 8.727 23.696 13.864 13.505 9.773 16.505 4.864" fill="url(#linearGradient1019)"/>
</g>
<g transform="translate(1.624)">
<circle cx="23.545" cy="11.136" r="1" fill="#ffd506"/>
<circle cx="12.584" cy="9.943" r="1" fill="#ff00fe"/>
<circle cx="1.624" cy="8.75" r="1" fill="#4000e0"/>
<polygon transform="rotate(23,17.302,5.816)" points="18.117 5.012 18.106 6.608 16.487 6.62 16.499 5.024" fill="#4000e0"/>
<polygon transform="rotate(23,33.563,14.044)" points="33.97 13.642 33.964 14.44 33.155 14.446 33.161 13.648" fill="#eb5959"/>
<polygon transform="rotate(45,20.06,15.676)" points="20.465 15.27 20.457 16.074 19.653 16.082 19.662 15.278" fill="#4000e0"/>
<polygon transform="rotate(45,19.247,18.062)" points="19.653 17.657 19.645 18.46 18.841 18.468 18.85 17.665" fill="#ffd506"/>
<circle cx="19.891" cy="13.125" r="1" fill="#fff"/>
<circle cx="16.644" cy="16.307" r="1" fill="#fff"/>
<polygon transform="rotate(45,20.06,9.312)" points="20.465 8.907 20.457 9.71 19.653 9.718 19.662 8.915" fill="#8a0991"/>
<polygon transform="rotate(72,17.686,14.402)" points="18.486 13.992 18.481 14.802 16.887 14.812 16.892 14.002" fill="#fff" opacity=".6"/>
<polygon transform="rotate(45,9.505,10.108)" points="9.911 9.702 9.903 10.506 9.099 10.514 9.107 9.71" fill="#4000e0"/>
<polygon transform="rotate(45,15.188,10.903)" points="15.594 10.497 15.586 11.301 14.782 11.309 14.79 10.506" fill="#9757ff"/>
<polygon transform="rotate(45,9.505,8.517)" points="9.911 8.111 9.903 8.915 9.099 8.923 9.107 8.119" fill="#ffd506"/>
<polygon transform="rotate(45,27.366,11.136)" points="28.178 10.324 28.162 11.932 26.554 11.948 26.571 10.341" fill="#7dac00" opacity=".9"/>
<polygon transform="rotate(45,26.554,9.312)" points="26.96 8.907 26.952 9.71 26.148 9.718 26.157 8.915" fill="#8a0991"/>
<polygon transform="rotate(45,25.316,15.162)" points="25.726 14.354 25.71 15.961 24.906 15.97 24.922 14.362" fill="#00c894"/>
<polygon transform="rotate(45,22.257,14.648)" points="23.069 13.836 23.053 15.443 21.445 15.46 21.462 13.852" fill="#9757ff"/>
<polygon transform="rotate(45,25.267,5.665)" points="26.485 4.447 26.46 6.858 24.049 6.883 24.074 4.472" fill="#00c894"/>
<polygon transform="rotate(24,33.531,3.421)" points="35.569 1.41 35.539 5.401 31.493 5.432 31.524 1.441" fill="#396eff"/>
<polygon transform="rotate(-51,4.406,4.152)" points="6.788 1.76 6.836 6.592 2.025 6.544 1.976 1.712" fill="#88a1ff"/>
<polygon transform="rotate(45,1.722,12.028)" points="2.94 10.811 2.915 13.222 0.504 13.246 0.529 10.835" fill="#ff8100" fill-opacity=".8"/>
<polygon transform="rotate(23,9.206,18.022)" points="9.614 17.62 9.608 18.418 8.798 18.423 8.804 17.625" fill="#7dac00" opacity=".5"/>
<polygon transform="rotate(45,9.554,14.366)" points="10.362 13.956 10.354 14.76 8.746 14.776 8.754 13.973" fill="#ff00fe"/>
<polygon points="5.723 11.686 6.256 11.61 6.495 11.136 6.734 11.61 7.267 11.686 6.881 12.055 6.972 12.575 6.495 12.33 6.018 12.575 6.109 12.055" fill="#fe002e"/>
<polygon transform="rotate(-37,14.892,5.033)" points="14.126 4.853 14.655 4.781 14.887 4.306 15.128 4.786 15.659 4.868 15.279 5.235 15.375 5.761 14.899 5.508 14.427 5.751 14.513 5.228" fill="#fe002e"/>
<polygon transform="rotate(-37,16.516,12.193)" points="15.75 12.012 16.279 11.94 16.511 11.465 16.752 11.945 17.283 12.027 16.903 12.394 16.999 12.92 16.523 12.667 16.051 12.91 16.137 12.387" fill="#fe9d0b"/>
<polygon transform="rotate(-37,22.744,3.492)" points="21.595 3.221 22.388 3.114 22.736 2.401 23.099 3.12 23.894 3.243 23.325 3.795 23.468 4.583 22.754 4.204 22.047 4.569 22.175 3.783" fill="#fe9d0b"/>
<polygon transform="rotate(-37,17.92,17.868)" points="17.537 17.777 17.801 17.742 17.917 17.504 18.038 17.744 18.303 17.785 18.113 17.969 18.161 18.232 17.923 18.105 17.687 18.227 17.73 17.965" fill="#fe9d0b"/>
<polygon transform="rotate(45,31.475,9.36)" points="32.291 8.147 32.266 10.558 30.659 10.574 30.683 8.163" fill="#88a1ff" opacity=".8"/>
<polygon transform="rotate(-18,10.465,5.235)" points="11.673 4.047 11.688 6.438 9.257 6.423 9.243 4.032" fill="#00c894"/>
<polygon transform="rotate(7,13.201,12.139)" points="14.015 11.341 14.011 12.932 12.388 12.936 12.392 11.345" fill="#eb5959"/>
</g>
</g>
</svg>
