<svg width="48" height="48" version="1.1" viewBox="0 0 48 48" xmlns="http://www.w3.org/2000/svg" xmlns:xlink="http://www.w3.org/1999/xlink">
<defs>
<radialGradient id="radialGradient883" cx="14.491" cy=".54343" r="34.216" gradientTransform="matrix(1.4491 0 0 .69007 3 23.625)" gradientUnits="userSpaceOnUse">
<stop stop-color="#ccff42" offset="0"/>
<stop stop-color="#50a100" offset="1"/>
</radialGradient>
<filter id="folder-open-48px-a" x="-.155" y="-.181" width="1.31" height="1.361">
<feOffset dy="1" in="SourceAlpha" result="shadowOffsetOuter1"/>
<feGaussianBlur in="shadowOffsetOuter1" result="shadowBlurOuter1" stdDeviation="1"/>
<feComposite in="shadowBlurOuter1" in2="SourceAlpha" operator="out" result="shadowBlurOuter1"/>
<feColorMatrix in="shadowBlurOuter1" result="shadowMatrixOuter1" values="0 0 0 0 0   0 0 0 0 0   0 0 0 0 0  0 0 0 0.2 0"/>
<feMerge>
<feMergeNode in="shadowMatrixOuter1"/>
<feMergeNode in="SourceGraphic"/>
</feMerge>
</filter>
<linearGradient id="linearGradient1031" x1="19.442" x2="19.442" y1="-3.5496e-14" y2="14.764" gradientTransform="matrix(1.0801 0 0 .92582 3.0006 8)" gradientUnits="userSpaceOnUse">
<stop stop-color="#9c3" offset="0"/>
<stop stop-color="#28851e" offset="1"/>
</linearGradient>
<filter id="folder-documents-48px-a" x="-.155" y="-.181" width="1.31" height="1.361">
<feOffset dy="1" in="SourceAlpha" result="shadowOffsetOuter1"/>
<feGaussianBlur in="shadowOffsetOuter1" result="shadowBlurOuter1" stdDeviation="1"/>
<feComposite in="shadowBlurOuter1" in2="SourceAlpha" operator="out" result="shadowBlurOuter1"/>
<feColorMatrix in="shadowBlurOuter1" result="shadowMatrixOuter1" values="0 0 0 0 0   0 0 0 0 0   0 0 0 0 0  0 0 0 0.2 0"/>
<feMerge>
<feMergeNode in="shadowMatrixOuter1"/>
<feMergeNode in="SourceGraphic"/>
</feMerge>
</filter>
<filter id="filter1343" x="-.034105" y="-.081" width="1.0682" height="1.162" color-interpolation-filters="sRGB">
<feGaussianBlur stdDeviation="0.54"/>
</filter>
<filter id="folder-48px-a" x="-.155" y="-.181" width="1.31" height="1.361">
<feOffset dy="1" in="SourceAlpha" result="shadowOffsetOuter1"/>
<feGaussianBlur in="shadowOffsetOuter1" result="shadowBlurOuter1" stdDeviation="1"/>
<feComposite in="shadowBlurOuter1" in2="SourceAlpha" operator="out" result="shadowBlurOuter1"/>
<feColorMatrix in="shadowBlurOuter1" result="shadowMatrixOuter1" values="0 0 0 0 0   0 0 0 0 0   0 0 0 0 0  0 0 0 0.2 0"/>
<feMerge>
<feMergeNode in="shadowMatrixOuter1"/>
<feMergeNode in="SourceGraphic"/>
</feMerge>
</filter>
<linearGradient id="linearGradient972" x1="13.627" x2="13.627" y1="10.918" y2="13.827" gradientTransform="matrix(1.5411 0 0 .64889 -41 8)" gradientUnits="userSpaceOnUse">
<stop stop-color="#FFF" offset="0"/>
<stop stop-color="#CEF5FF" offset="1"/>
</linearGradient>
<filter id="folder-pictures-48px-k-3" x="-.146" y="-.194" width="1.292" height="1.389">
<feOffset dy="1" in="SourceAlpha" result="shadowOffsetOuter1"/>
<feGaussianBlur in="shadowOffsetOuter1" result="shadowBlurOuter1" stdDeviation="1"/>
<feColorMatrix in="shadowBlurOuter1" values="0 0 0 0 0   0 0 0 0 0.42905776   0 0 0 0 0.968670281  0 0 0 0.5 0"/>
</filter>
<linearGradient id="folder-pictures-48px-l-6" x1="10.392" x2="10.392" y1="-1.1547" y2="19.377" gradientTransform="matrix(1.1547 0 0 .86603 12 22)" gradientUnits="userSpaceOnUse">
<stop stop-color="#FFF" offset="0"/>
<stop stop-color="#FFF" stop-opacity=".6" offset="1"/>
</linearGradient>
<mask id="folder-pictures-48px-n" fill="#ffffff">
<path d="m0 0.5816c0-0.8735 0.70528-1.5816 1.5747-1.5816h20.851c0.86969 0 1.5747 0.70562 1.5747 1.5816v14.837c0 0.8735-0.70528 1.5816-1.5747 1.5816h-20.851c-0.86969 0-1.5747-0.70562-1.5747-1.5816zm19.92 3.5327c0.66274 0 1.2-0.51167 1.2-1.1429s-0.53726-1.1429-1.2-1.1429-1.2 0.51167-1.2 1.1429 0.53726 1.1429 1.2 1.1429z"/>
</mask>
<linearGradient id="linearGradient992" x1="7.714" x2="6.2399" y1="10.836" y2="16.989" gradientTransform="scale(1.2963 .7714)" gradientUnits="userSpaceOnUse">
<stop stop-color="#FF3C14" stop-opacity=".8" offset="0"/>
<stop stop-color="#6E00F5" stop-opacity=".8" offset=".43748"/>
<stop stop-color="#3900FF" stop-opacity=".655" offset="1"/>
</linearGradient>
<linearGradient id="linearGradient994" x1="12.608" x2="12.608" y1="9.4599" y2="22.248" gradientTransform="scale(1.3087 .76411)" gradientUnits="userSpaceOnUse">
<stop stop-color="#32F8FF" stop-opacity=".8" offset="0"/>
<stop stop-color="#0097FF" offset="1"/>
</linearGradient>
</defs>
<path d="m27.001 10.5c0.60397 1.5099 2.0664 2.5 3.6926 2.5h9.1362c2.856 0 5.1712 2.3152 5.1712 5.1712v20.658c0 2.856-2.3152 5.1712-5.1712 5.1712h-31.658c-2.856 0-5.1712-2.3152-5.1712-5.1712v-25.658c0-2.856 2.3152-5.1712 5.1712-5.1712h15.136c1.6262 0 3.0886 0.99009 3.6926 2.5z" fill="url(#linearGradient1031)" fill-rule="evenodd" filter="url(#folder-documents-48px-a)"/>
<g transform="translate(44)" fill-rule="evenodd">
<rect x="-39" y="15" width="38" height="16" rx="3.3498" ry="3.3498" fill-opacity=".2" filter="url(#filter1343)" style="paint-order:stroke fill markers"/>
<path d="m-35.676 15.084h31.351c1.836 0 3.3243 1.4884 3.3243 3.3243v9.3514c0 1.836-1.4884 3.3243-3.3243 3.3243h-31.351c-1.836 0-3.3243-1.4884-3.3243-3.3243v-9.3514c0-1.836 1.4884-3.3243 3.3243-3.3243z" fill="url(#linearGradient972)" filter="url(#folder-48px-a)"/>
<path d="m-35.676 15.084c-1.8606 0-3.3594 1.4713-3.3594 3.2988v1c0-1.8275 1.4987-3.2988 3.3594-3.2988h31.281c1.8606 0 3.3594 1.4713 3.3594 3.2988v-1c0-1.8275-1.4987-3.2988-3.3594-3.2988z" opacity=".5" style="paint-order:stroke fill markers"/>
</g>
<path d="m3 24h42v14.829c0 2.856-2.3152 5.1712-5.1712 5.1712h-31.658c-2.856 0-5.1712-2.3152-5.1712-5.1712z" fill="url(#radialGradient883)" fill-rule="evenodd" filter="url(#folder-open-48px-a)"/>
<g fill-rule="evenodd">
<path d="m12 22.582c0-0.8735 0.70528-1.5816 1.5747-1.5816h20.851c0.86969 0 1.5747 0.70562 1.5747 1.5816v14.837c0 0.8735-0.70528 1.5816-1.5747 1.5816h-20.851c-0.86969 0-1.5747-0.70562-1.5747-1.5816zm19.92 3.5327c0.66274 0 1.2-0.51167 1.2-1.1429s-0.53726-1.1429-1.2-1.1429-1.2 0.51167-1.2 1.1429 0.53726 1.1429 1.2 1.1429z" filter="url(#folder-pictures-48px-k-3)"/>
<path d="m12 22.582c0-0.8735 0.70528-1.5816 1.5747-1.5816h20.851c0.86969 0 1.5747 0.70562 1.5747 1.5816v14.837c0 0.8735-0.70528 1.5816-1.5747 1.5816h-20.851c-0.86969 0-1.5747-0.70562-1.5747-1.5816zm19.92 3.5327c0.66274 0 1.2-0.51167 1.2-1.1429s-0.53726-1.1429-1.2-1.1429-1.2 0.51167-1.2 1.1429 0.53726 1.1429 1.2 1.1429z" fill="url(#folder-pictures-48px-l-6)"/>
<path transform="translate(12,22)" d="M -1,17 8.7808,4.552 c 0.67336,-0.857 1.7647,-0.85747 2.4384,0 L 21,17 Z" fill="url(#linearGradient992)" mask="url(#folder-pictures-48px-n)"/>
<path transform="translate(12,22)" d="m7 17 8.2775-10.456c0.67517-0.85285 1.7743-0.84718 2.445 0l8.2775 10.456z" fill="url(#linearGradient994)" mask="url(#folder-pictures-48px-n)"/>
</g>
</svg>
