<svg width="48" height="48" version="1.1" viewBox="0 0 48 48" xmlns="http://www.w3.org/2000/svg" xmlns:xlink="http://www.w3.org/1999/xlink">
<defs>
<filter id="folder-documents-48px-a" x="-15.5%" y="-18.1%" width="131%" height="136.1%">
<feOffset dy="1" in="SourceAlpha" result="shadowOffsetOuter1"/>
<feGaussianBlur in="shadowOffsetOuter1" result="shadowBlurOuter1" stdDeviation="1"/>
<feComposite in="shadowBlurOuter1" in2="SourceAlpha" operator="out" result="shadowBlurOuter1"/>
<feColorMatrix in="shadowBlurOuter1" result="shadowMatrixOuter1" values="0 0 0 0 0   0 0 0 0 0   0 0 0 0 0  0 0 0 0.2 0"/>
<feMerge>
<feMergeNode in="shadowMatrixOuter1"/>
<feMergeNode in="SourceGraphic"/>
</feMerge>
</filter>
<linearGradient id="folder-documents-48px-c" x1="19.442" x2="19.442" y1="-3.5496e-14" y2="14.764" gradientTransform="scale(1.0801 .92582)" gradientUnits="userSpaceOnUse">
<stop stop-color="#ba5638" offset="0"/>
<stop stop-color="#870b3d" offset="1"/>
</linearGradient>
<path id="folder-documents-48px-b" d="m24 2.5c0.60397 1.5099 2.0664 2.5 3.6926 2.5h9.1362c2.856 0 5.1712 2.3152 5.1712 5.1712v20.658c0 2.856-2.3152 5.1712-5.1712 5.1712h-31.658c-2.856 0-5.1712-2.3152-5.1712-5.1712l-1.7764e-15 -25.658c-3.4975e-16 -2.856 2.3152-5.1712 5.1712-5.1712l15.136 1.7764e-15c1.6262-2.9873e-16 3.0886 0.99009 3.6926 2.5z"/>
<linearGradient id="folder-documents-48px-l" x1="9.9499" x2="9.9499" y1=".85651" y2="20.756" gradientTransform="scale(.90453 1.1055)" gradientUnits="userSpaceOnUse">
<stop stop-color="#FFF" offset="0"/>
<stop stop-color="#FFF" stop-opacity=".6" offset="1"/>
</linearGradient>
<path id="folder-documents-48px-k" d="m2 0.9469h14c1.1046 0 2 0.89543 2 2v18c0 1.1046-0.89543 2-2 2h-14c-1.1046 0-2-0.89543-2-2v-18c-1.3527e-16 -1.1046 0.89543-2 2-2zm9 2v1h5v-1h-5zm0 2v1h5v-1h-5zm0 2v1h5v-1h-5zm0 2v1h5v-1h-5zm-9 2v1h14v-1h-14zm0 2v1h14v-1h-14zm0 2v1h14v-1h-14zm0 2v1h8v-1h-8zm0 2v1h14v-1h-14z"/>
<filter id="folder-documents-48px-j" x="-19.4%" y="-11.4%" width="138.9%" height="131.8%">
<feOffset dy="1" in="SourceAlpha" result="shadowOffsetOuter1"/>
<feGaussianBlur in="shadowOffsetOuter1" result="shadowBlurOuter1" stdDeviation="1"/>
<feColorMatrix in="shadowBlurOuter1" values="0 0 0 0 0   0 0 0 0 0.42905776   0 0 0 0 0.968670281  0 0 0 0.5 0"/>
</filter>
<radialGradient id="folder-documents-48px-m" cx="7.8543" cy="8.5259" r="7.4833" gradientTransform="scale(1.069 .93541)" gradientUnits="userSpaceOnUse">
<stop stop-color="#FA9361" offset="0"/>
<stop stop-color="#5F1CF7" offset="1"/>
</radialGradient>
<linearGradient id="folder-documents-48px-n" x1="3.6925" x2="3.6925" y1="11.101" y2="14.816" gradientTransform="matrix(1.4895 0 0 .67137 13 18.053)" gradientUnits="userSpaceOnUse">
<stop stop-color="#0E3BAC" offset="0"/>
<stop stop-color="#1A0570" offset="1"/>
</linearGradient>
<linearGradient id="folder-documents-48px-o" x1="3" x2="3" y1="1" y2="7" gradientTransform="scale(.33333 3)" gradientUnits="userSpaceOnUse">
<stop stop-color="#242424" offset="0"/>
<stop offset="1"/>
</linearGradient>
<linearGradient id="folder-documents-48px-p" x1=".41572" x2="1.4142" y1="30.556" y2="30.556" gradientTransform="matrix(1.4142 0 0 .70711 33 18)" gradientUnits="userSpaceOnUse">
<stop stop-color="#F6F6F6" offset="0"/>
<stop stop-color="#939393" offset="1"/>
</linearGradient>
<linearGradient id="folder-documents-48px-q" x1=".46177" x2="1.4142" y1="31.705" y2="31.76" gradientTransform="scale(1.4142 .70711)" gradientUnits="userSpaceOnUse">
<stop stop-color="#FCAFD2" offset="0"/>
<stop stop-color="#FF4B8D" offset="1"/>
</linearGradient>
<path id="folder-documents-48px-r" d="m0 22h2v0.5c0 0.27614-0.22386 0.5-0.5 0.5h-1c-0.27614 0-0.5-0.22386-0.5-0.5v-0.5z"/>
<filter id="folder-documents-48px-s" x="-50%" y="-100%" width="200%" height="300%">
<feGaussianBlur in="SourceAlpha" result="shadowBlurInner1" stdDeviation=".5"/>
<feOffset dx="-1" dy="-1" in="shadowBlurInner1" result="shadowOffsetInner1"/>
<feComposite in="shadowOffsetInner1" in2="SourceAlpha" k2="-1" k3="1" operator="arithmetic" result="shadowInnerInner1"/>
<feColorMatrix in="shadowInnerInner1" values="0 0 0 0 0.376992985   0 0 0 0 0   0 0 0 0 0  0 0 0 0.5 0"/>
</filter>
<linearGradient id="folder-documents-48px-t" x1="2.1555" x2="2.1148" y1="2.6302" y2="3.2552" gradientTransform="scale(.2357 4.2426)" gradientUnits="userSpaceOnUse">
<stop stop-color="#463417" offset="0"/>
<stop stop-color="#281212" offset="1"/>
</linearGradient>
<linearGradient id="folder-documents-48px-u" x1="6.364" x2="6.364" y1=".70711" y2="4.9497" gradientTransform="scale(.2357 4.2426)" gradientUnits="userSpaceOnUse">
<stop stop-color="#080808" offset="0"/>
<stop stop-color="#481D1D" offset="1"/>
</linearGradient>
<linearGradient id="folder-documents-48px-v" x1=".28853" x2="1.8704" y1="1.9412" y2="1.9412" gradientTransform="matrix(.8165 0 0 1.2247 33 18)" gradientUnits="userSpaceOnUse">
<stop stop-color="#6A6A6A" offset="0"/>
<stop stop-color="#0A0A0A" offset="1"/>
</linearGradient>
<radialGradient id="radialGradient883" cx="14.491" cy=".54343" r="34.216" gradientTransform="matrix(1.4491 0 0 .69007 3 23.625)" gradientUnits="userSpaceOnUse">
<stop stop-color="#ff774d" offset="0"/>
<stop stop-color="#ba0e55" offset="1"/>
</radialGradient>
<filter id="folder-open-48px-a" x="-.155" y="-.181" width="1.31" height="1.361">
<feOffset dy="1" in="SourceAlpha" result="shadowOffsetOuter1"/>
<feGaussianBlur in="shadowOffsetOuter1" result="shadowBlurOuter1" stdDeviation="1"/>
<feComposite in="shadowBlurOuter1" in2="SourceAlpha" operator="out" result="shadowBlurOuter1"/>
<feColorMatrix in="shadowBlurOuter1" result="shadowMatrixOuter1" values="0 0 0 0 0   0 0 0 0 0   0 0 0 0 0  0 0 0 0.2 0"/>
<feMerge>
<feMergeNode in="shadowMatrixOuter1"/>
<feMergeNode in="SourceGraphic"/>
</feMerge>
</filter>
<filter id="filter1343-3" x="-.034105" y="-.081" width="1.0682" height="1.162" color-interpolation-filters="sRGB">
<feGaussianBlur stdDeviation="0.54"/>
</filter>
<linearGradient id="folder-48px-g-6" x1="13.627" x2="13.627" y1="10.918" y2="33.362" gradientTransform="matrix(1.5411 0 0 .64889 3 8.0005)" gradientUnits="userSpaceOnUse">
<stop stop-color="#FFF" offset="0"/>
<stop stop-color="#fff8a3" offset="1"/>
</linearGradient>
<filter id="folder-48px-a-3" x="-.155" y="-.181" width="1.31" height="1.361">
<feOffset dy="1" in="SourceAlpha" result="shadowOffsetOuter1"/>
<feGaussianBlur in="shadowOffsetOuter1" result="shadowBlurOuter1" stdDeviation="1"/>
<feComposite in="shadowBlurOuter1" in2="SourceAlpha" operator="out" result="shadowBlurOuter1"/>
<feColorMatrix in="shadowBlurOuter1" result="shadowMatrixOuter1" values="0 0 0 0 0   0 0 0 0 0   0 0 0 0 0  0 0 0 0.2 0"/>
<feMerge>
<feMergeNode in="shadowMatrixOuter1"/>
<feMergeNode in="SourceGraphic"/>
</feMerge>
</filter>
</defs>
<use transform="translate(3,8)" width="100%" height="100%" fill="url(#folder-documents-48px-c)" fill-rule="evenodd" filter="url(#folder-documents-48px-a)" xlink:href="#folder-documents-48px-b"/>
<rect x="5" y="15" width="38" height="16" rx="3.3498" ry="3.3498" fill-opacity=".2" fill-rule="evenodd" filter="url(#filter1343-3)" style="paint-order:stroke fill markers"/>
<path d="m8.324 15.084h31.351c1.836 0 3.3243 1.4884 3.3243 3.3243v9.3514c0 1.836-1.4884 3.3243-3.3243 3.3243h-31.351c-1.836 0-3.3243-1.4884-3.3243-3.3243v-9.3514c0-1.836 1.4884-3.3243 3.3243-3.3243z" fill="url(#folder-48px-g-6)" fill-rule="evenodd" filter="url(#folder-48px-a-3)"/>
<path d="m8.324 15.084c-1.8606 0-3.3594 1.4713-3.3594 3.2988v1c0-1.8275 1.4987-3.2988 3.3594-3.2988h31.281c1.8606 0 3.3594 1.4713 3.3594 3.2988v-1c0-1.8275-1.4987-3.2988-3.3594-3.2988z" fill-rule="evenodd" opacity=".5" style="paint-order:stroke fill markers"/>
<path d="m3 24h42v14.829c0 2.856-2.3152 5.1712-5.1712 5.1712h-31.658c-2.856 0-5.1712-2.3152-5.1712-5.1712z" fill="url(#radialGradient883)" fill-rule="evenodd" filter="url(#folder-open-48px-a)"/>
<use transform="translate(13,18.053)" width="100%" height="100%" fill="#000000" fill-rule="evenodd" filter="url(#folder-documents-48px-j)" xlink:href="#folder-documents-48px-k"/>
<use transform="translate(13,18.053)" width="100%" height="100%" fill="url(#folder-documents-48px-l)" fill-rule="evenodd" xlink:href="#folder-documents-48px-k"/>
<polygon transform="translate(13,18.053)" points="2 2.947 10 2.947 10 9.947 2 9.947" fill="url(#folder-documents-48px-m)" fill-rule="evenodd"/>
<path d="m21.992 26.21c0.36784 0 0.66603-0.30433 0.66603-0.67974s-0.29819-0.67974-0.66603-0.67974-0.66603 0.30433-0.66603 0.67974 0.29819 0.67974 0.66603 0.67974z" fill="#ff5151" fill-rule="evenodd"/>
<path d="m15 28h7l-1.7251-2.0276c-0.08582-0.10087-0.2354-0.11731-0.34108-0.03749l-1.0526 0.79503c-0.11018 0.08321-0.26695 0.06136-0.35017-0.04882-5e-3 -0.0066-0.0096-0.01344-0.01394-0.0205l-1.0343-1.6959c-0.07189-0.11788-0.22573-0.15516-0.34361-0.08326-0.03056 0.01864-0.05675 0.04362-0.07682 0.07325z" fill="url(#folder-documents-48px-n)" fill-rule="evenodd"/>
<polygon transform="translate(33,18)" points="0 3 2 3 2 21 0 21" fill="url(#folder-documents-48px-o)" fill-rule="evenodd"/>
<rect x="33" y="39" width="2" height="1" fill="url(#folder-documents-48px-p)" fill-rule="evenodd"/>
<use transform="translate(33,18)" width="100%" height="100%" fill="url(#folder-documents-48px-q)" fill-rule="evenodd" xlink:href="#folder-documents-48px-r"/>
<use transform="translate(33,18)" width="100%" height="100%" fill="#000000" fill-rule="evenodd" filter="url(#folder-documents-48px-s)" xlink:href="#folder-documents-48px-r"/>
<polygon transform="translate(33,18)" points="0 3 1 3 1 21 0 21" fill="url(#folder-documents-48px-t)" fill-rule="evenodd"/>
<polygon transform="translate(33,18)" points="1 3 2 3 2 21 1 21" fill="url(#folder-documents-48px-u)" fill-rule="evenodd"/>
<polygon transform="translate(33,18)" points="0 3 1 0 2 3" fill="#ffdcac" fill-rule="evenodd"/>
<polygon transform="translate(33,18)" points="1 3 1 0 2 3" fill="#965600" fill-rule="evenodd"/>
<path d="m34.333 19h-0.66667l0.33333-1zm0.66667 2h-2z" fill="url(#folder-documents-48px-v)" fill-rule="evenodd"/>
</svg>
