<svg width="16" height="16" version="1.1" xmlns="http://www.w3.org/2000/svg">
<path d="m4.9844 0a1.0001 0.9942 0 0 0-0.98438 1.0078v0.99219h2v-0.99219a1.0001 0.9942 0 0 0-1.0156-1.0078zm3 0a1.0001 0.9942 0 0 0-0.98438 1.0078v0.99219h2v-0.99219a1.0001 0.9942 0 0 0-1.0156-1.0078zm3 0a1.0001 0.9942 0 0 0-0.98438 1.0078v0.99219h2v-0.99219a1.0001 0.9942 0 0 0-1.0156-1.0078zm-5.9844 3c-1.108 0-2 0.892-2 2v6c0 1.108 0.892 2 2 2h6c1.108 0 2-0.892 2-2v-6c0-1.108-0.892-2-2-2h-6zm-3.9922 1a0.9942 1.0001 0 1 0 0 2h0.99219v-2h-0.99219zm12.992 0v2h0.99219a0.9942 1.0001 0 0 0 1.0078-1.0156 0.9942 1.0001 0 0 0-1.0078-0.98438h-0.99219zm-12.992 3a0.9942 1.0001 0 1 0 0 2h0.99219v-2h-0.99219zm12.992 0v2h0.99219a0.9942 1.0001 0 0 0 1.0078-1.0156 0.9942 1.0001 0 0 0-1.0078-0.98438h-0.99219zm-12.992 3a0.9942 1.0001 0 1 0 0 2h0.99219v-2h-0.99219zm12.992 0v2h0.99219a0.9942 1.0001 0 0 0 1.0078-1.0156 0.9942 1.0001 0 0 0-1.0078-0.98438h-0.99219zm-10 4v0.99219a1.0001 0.9942 0 1 0 2 0v-0.99219h-2zm3 0v0.99219a1.0001 0.9942 0 1 0 2 0v-0.99219h-2zm3 0v0.99219a1.0001 0.9942 0 1 0 2 0v-0.99219h-2z" fill="#666"/>
</svg>
