<svg width="16px" height="16px" version="1.1" viewBox="0 0 16 16" xmlns="http://www.w3.org/2000/svg">
<title>folder-recent-symbolic</title>
<desc>Created with Sketch.</desc>
<path class="ColorScheme-Text" d="m8 1c3.866 0 7 3.134 7 7s-3.134 7-7 7-7-3.134-7-7 3.134-7 7-7zm0 4c-1.6569 0-3 1.3431-3 3s1.3431 3 3 3 3-1.3431 3-3-1.3431-3-3-3zm0 1c1.1046 0 2 0.89543 2 2s-0.89543 2-2 2-2-0.89543-2-2 0.89543-2 2-2zm0 1c-0.55228 0-1 0.44772-1 1s0.44772 1 1 1 1-0.44772 1-1-0.44772-1-1-1zm0-4c-2.7614 0-5 2.2386-5 5 0 0.27614 0.22386 0.5 0.5 0.5s0.5-0.22386 0.5-0.5c0-2.2091 1.7909-4 4-4 0.27614 0 0.5-0.22386 0.5-0.5s-0.22386-0.5-0.5-0.5z" fill="#666"/>
</svg>
