<svg width="96" height="96" version="1.1" viewBox="0 0 96 96" xmlns="http://www.w3.org/2000/svg" xmlns:xlink="http://www.w3.org/1999/xlink">
<defs>
<filter id="folder-pictures-96px-a" x="-14.6%" y="-16.9%" width="129.3%" height="133.8%">
<feOffset dy="2" in="SourceAlpha" result="shadowOffsetOuter1"/>
<feGaussianBlur in="shadowOffsetOuter1" result="shadowBlurOuter1" stdDeviation="2"/>
<feComposite in="shadowBlurOuter1" in2="SourceAlpha" operator="out" result="shadowBlurOuter1"/>
<feColorMatrix in="shadowBlurOuter1" result="shadowMatrixOuter1" values="0 0 0 0 0   0 0 0 0 0   0 0 0 0 0  0 0 0 0.2 0"/>
<feMerge>
<feMergeNode in="shadowMatrixOuter1"/>
<feMergeNode in="SourceGraphic"/>
</feMerge>
</filter>
<linearGradient id="folder-pictures-96px-c" x1="38.151" x2="38.151" y1="-2.959e-14" y2="28.97" gradientTransform="scale(1.0747 .93051)" gradientUnits="userSpaceOnUse">
<stop stop-color="#00B8FF" offset="0"/>
<stop stop-color="#2E5DFF" offset="1"/>
</linearGradient>
<path id="folder-pictures-96px-b" d="m46 4.5c1.2162 2.7365 3.9299 4.5 6.9244 4.5h18.733c5.7119 0 10.342 4.6304 10.342 10.342v41.315c0 5.7119-4.6304 10.342-10.342 10.342h-61.315c-5.7119 0-10.342-4.6304-10.342-10.342l1.7764e-15 -50.315c-6.9951e-16 -5.7119 4.6304-10.342 10.342-10.342l28.733-2.6645e-15c2.9946-5.5009e-16 5.7082 1.7635 6.9244 4.5z"/>
<linearGradient id="folder-pictures-96px-l" x1="15.716" x2="15.716" y2="31.05" gradientTransform="scale(1.2089 .82717)" gradientUnits="userSpaceOnUse">
<stop stop-color="#FFF" offset="0"/>
<stop stop-color="#FFF" stop-opacity=".6" offset="1"/>
</linearGradient>
<path id="folder-pictures-96px-j" d="m5.6843e-14 3.0079c0-1.6612 1.3524-3.0079 2.9977-3.0079h32.005c1.6556 0 2.9977 1.3431 2.9977 3.0079v19.984c0 1.6612-1.3524 3.0079-2.9977 3.0079h-32.005c-1.6556 0-2.9977-1.3431-2.9977-3.0079v-19.984zm31.54 3.6778c1.0493 0 1.9-0.83147 1.9-1.8571s-0.85066-1.8571-1.9-1.8571-1.9 0.83147-1.9 1.8571 0.85066 1.8571 1.9 1.8571z"/>
<filter id="folder-pictures-96px-k" x="-13.2%" y="-15.4%" width="126.3%" height="138.5%">
<feOffset dy="1" in="SourceAlpha" result="shadowOffsetOuter1"/>
<feGaussianBlur in="shadowOffsetOuter1" result="shadowBlurOuter1" stdDeviation="1.5"/>
<feColorMatrix in="shadowBlurOuter1" values="0 0 0 0 0   0 0 0 0 0.42905776   0 0 0 0 0.968670281  0 0 0 0.5 0"/>
</filter>
<linearGradient id="folder-pictures-96px-m" x1="12.007" x2="9.7739" y1="18.441" y2="26.767" gradientTransform="scale(1.345 .74347)" gradientUnits="userSpaceOnUse">
<stop stop-color="#FF3C14" stop-opacity=".8" offset="0"/>
<stop stop-color="#6E00F5" stop-opacity=".8" offset=".43748"/>
<stop stop-color="#3900FF" stop-opacity=".655" offset="1"/>
</linearGradient>
<linearGradient id="folder-pictures-96px-o" x1="19.321" x2="19.321" y1="16.919" y2="37.064" gradientTransform="scale(1.333 .75018)" gradientUnits="userSpaceOnUse">
<stop stop-color="#32F8FF" stop-opacity=".8" offset="0"/>
<stop stop-color="#0097FF" offset="1"/>
</linearGradient>
<radialGradient id="radialGradient920" cx="33.268" cy="0" r="78.239" gradientTransform="matrix(1.2324 0 0 .81142 7 35.01)" gradientUnits="userSpaceOnUse">
<stop stop-color="#48D5FF" offset="0"/>
<stop stop-color="#0083F6" offset="1"/>
</radialGradient>
<mask id="folder-pictures-96px-n" fill="#fff">
<use width="100%" height="100%" xlink:href="#folder-pictures-96px-j"/>
</mask>
<filter id="filter973" x="-.034054" y="-.08129" width="1.0681" height="1.1626" color-interpolation-filters="sRGB">
<feGaussianBlur stdDeviation="1.05"/>
</filter>
<linearGradient id="linearGradient955" x1="-85" x2="-85" y1="73.782" y2="78" gradientUnits="userSpaceOnUse">
<stop stop-color="#fff" offset="0"/>
<stop stop-color="#cef5ff" offset="1"/>
</linearGradient>
</defs>
<use transform="translate(7,18)" width="100%" height="100%" fill="url(#folder-pictures-96px-c)" fill-rule="evenodd" filter="url(#folder-pictures-96px-a)" xlink:href="#folder-pictures-96px-b"/>
<g transform="translate(134,-44)" fill-rule="evenodd">
<rect x="-123" y="74" width="74" height="31" rx="6.617" ry="6.617" fill-opacity=".2" filter="url(#filter973)" style="paint-order:stroke fill markers"/>
<rect x="-123" y="74" width="74" height="31" rx="6.617" ry="6.617" fill="url(#linearGradient955)" style="paint-order:stroke fill markers"/>
<path d="m-116.38 74c-3.6658 0-6.6172 2.9514-6.6172 6.6172v1c0-3.6658 2.9514-6.6172 6.6172-6.6172h60.766c3.6658 0 6.6172 2.9514 6.6172 6.6172v-1c0-3.6658-2.9514-6.6172-6.6172-6.6172z" opacity=".5" style="paint-order:stroke fill markers"/>
</g>
<path d="m7 35.01h82v43.647c0 5.7119-4.6304 10.342-10.342 10.342h-61.315c-5.7119 0-10.342-4.6304-10.342-10.342z" fill="url(#radialGradient920)" fill-rule="evenodd" filter="url(#folder-pictures-96px-a)"/>
<use transform="translate(29,49)" width="100%" height="100%" fill="#000000" fill-rule="evenodd" filter="url(#folder-pictures-96px-k)" xlink:href="#folder-pictures-96px-j"/>
<use transform="translate(29,49)" width="100%" height="100%" fill="url(#folder-pictures-96px-l)" fill-rule="evenodd" xlink:href="#folder-pictures-96px-j"/>
<path transform="translate(29,49)" d="m-1.14 26 14.895-17.919c1.3227-1.5913 3.4635-1.5958 4.79 0l14.895 17.919z" fill="url(#folder-pictures-96px-m)" fill-rule="evenodd" mask="url(#folder-pictures-96px-n)"/>
<path transform="translate(29,49)" d="m10.513 27.805 12.886-15.95c1.3016-1.611 3.4164-1.6053 4.7133 0l12.886 15.95z" fill="url(#folder-pictures-96px-o)" fill-rule="evenodd" mask="url(#folder-pictures-96px-n)"/>
</svg>
