<svg width="96" height="96" version="1.1" viewBox="0 0 96 96" xmlns="http://www.w3.org/2000/svg" xmlns:xlink="http://www.w3.org/1999/xlink">
<defs>
<linearGradient id="folder-documents-96px-l" x1="16.658" x2="16.658" y1=".86061" y2="34.177" gradientTransform="scale(.90045 1.1106)" gradientUnits="userSpaceOnUse">
<stop stop-color="#FFF" offset="0"/>
<stop stop-color="#FFF" stop-opacity=".6" offset="1"/>
</linearGradient>
<path id="folder-documents-96px-k" d="m3 0.95575h24c1.6569 0 3 1.3431 3 3v31c0 1.6569-1.3431 3-3 3h-24c-1.6569 0-3-1.3431-3-3v-31c-2.0291e-16 -1.6569 1.3431-3 3-3zm15 5v1h10v-1h-10zm0 3v1h10v-1h-10zm0 3v1h10v-1h-10zm0 3v1h10v-1h-10zm-15 3v1h25v-1h-25zm0 3v1h25v-1h-25zm0 3v1h25v-1h-25zm0 3v1h25v-1h-25zm0 3v1h14v-1h-14zm0 3v1h25v-1h-25z"/>
<filter id="folder-documents-96px-j" x="-16.7%" y="-10.8%" width="133.3%" height="127%">
<feOffset dy="1" in="SourceAlpha" result="shadowOffsetOuter1"/>
<feGaussianBlur in="shadowOffsetOuter1" result="shadowBlurOuter1" stdDeviation="1.5"/>
<feColorMatrix in="shadowBlurOuter1" values="0 0 0 0 0   0 0 0 0 0.42905776   0 0 0 0 0.968670281  0 0 0 0.5 0"/>
</filter>
<radialGradient id="folder-documents-96px-m" cx="11.996" cy="15.547" r="11.832" gradientTransform="scale(1.1832 .84515)" gradientUnits="userSpaceOnUse">
<stop stop-color="#FA9361" offset="0"/>
<stop stop-color="#5F1CF7" offset="1"/>
</radialGradient>
<linearGradient id="folder-documents-96px-n" x1="5.7188" x2="5.7188" y1="16.401" y2="20.922" gradientTransform="scale(1.3989 .71485)" gradientUnits="userSpaceOnUse">
<stop stop-color="#0E3BAC" offset="0"/>
<stop stop-color="#1A0570" offset="1"/>
</linearGradient>
<filter id="folder-documents-96px-o" x="-80.5%" y="-5.3%" width="261.1%" height="110.6%">
<feGaussianBlur in="SourceGraphic" stdDeviation=".75"/>
</filter>
<linearGradient id="folder-documents-96px-p" x1="7.007" x2="7.007" y1="1.2309" y2="9.355" gradientTransform="scale(.24618 4.062)" gradientUnits="userSpaceOnUse">
<stop stop-color="#242424" offset="0"/>
<stop offset="1"/>
</linearGradient>
<linearGradient id="folder-documents-96px-q" x1="1.312" x2="3.0414" y1="48.025" y2="48.025" gradientTransform="scale(1.2247 .8165)" gradientUnits="userSpaceOnUse">
<stop stop-color="#F6F6F6" offset="0"/>
<stop stop-color="#939393" offset="1"/>
</linearGradient>
<linearGradient id="folder-documents-96px-r" x1="1.3922" x2="3.0418" y1="49.86" y2="50.031" gradientTransform="scale(1.2247 .8165)" gradientUnits="userSpaceOnUse">
<stop stop-color="#FCAFD2" offset="0"/>
<stop stop-color="#FF4B8D" offset="1"/>
</linearGradient>
<path id="folder-documents-96px-s" d="m0.72549 40h3v1.25c0 0.41421-0.33579 0.75-0.75 0.75h-1.5c-0.41421 0-0.75-0.33579-0.75-0.75v-1.25z"/>
<filter id="folder-documents-96px-t" x="-50%" y="-75%" width="200%" height="250%">
<feGaussianBlur in="SourceAlpha" result="shadowBlurInner1" stdDeviation="1"/>
<feOffset dx="-1" dy="-1" in="shadowBlurInner1" result="shadowOffsetInner1"/>
<feComposite in="shadowOffsetInner1" in2="SourceAlpha" k2="-1" k3="1" operator="arithmetic" result="shadowInnerInner1"/>
<feColorMatrix in="shadowInnerInner1" values="0 0 0 0 0.376992985   0 0 0 0 0   0 0 0 0 0  0 0 0 0.5 0"/>
</filter>
<linearGradient id="folder-documents-96px-u" x1="7.0509" x2="7.0344" y1="3.4743" y2="4.3205" gradientTransform="scale(.17408 5.7446)" gradientUnits="userSpaceOnUse">
<stop stop-color="#463417" offset="0"/>
<stop stop-color="#281212" offset="1"/>
</linearGradient>
<linearGradient id="folder-documents-96px-v" x1="18.526" x2="18.526" y1=".87039" y2="6.615" gradientTransform="scale(.17408 5.7446)" gradientUnits="userSpaceOnUse">
<stop stop-color="#080808" offset="0"/>
<stop stop-color="#481D1D" offset="1"/>
</linearGradient>
<linearGradient id="folder-documents-96px-w" x1="2.5764" x2="3.0766" y1=".61386" y2=".61386" gradientTransform="scale(.7746 1.291)" gradientUnits="userSpaceOnUse">
<stop stop-color="#6A6A6A" offset="0"/>
<stop stop-color="#0A0A0A" offset="1"/>
</linearGradient>
<linearGradient id="linearGradient919" x1="38.151" x2="38.151" y1="-2.959e-14" y2="28.97" gradientTransform="matrix(1.0747 0 0 .93051 7 18)" gradientUnits="userSpaceOnUse">
<stop stop-color="#9c3" offset="0"/>
<stop stop-color="#28851e" offset="1"/>
</linearGradient>
<filter id="folder-96px-a" x="-.146" y="-.169" width="1.293" height="1.338">
<feOffset dy="2" in="SourceAlpha" result="shadowOffsetOuter1"/>
<feGaussianBlur in="shadowOffsetOuter1" result="shadowBlurOuter1" stdDeviation="2"/>
<feComposite in="shadowBlurOuter1" in2="SourceAlpha" operator="out" result="shadowBlurOuter1"/>
<feColorMatrix in="shadowBlurOuter1" result="shadowMatrixOuter1" values="0 0 0 0 0   0 0 0 0 0   0 0 0 0 0  0 0 0 0.2 0"/>
<feMerge>
<feMergeNode in="shadowMatrixOuter1"/>
<feMergeNode in="SourceGraphic"/>
</feMerge>
</filter>
<filter id="filter973" x="-.034054" y="-.08129" width="1.0681" height="1.1626" color-interpolation-filters="sRGB">
<feGaussianBlur stdDeviation="1.05"/>
</filter>
<linearGradient id="linearGradient955" x1="-85" x2="-85" y1="73.782" y2="78" gradientUnits="userSpaceOnUse">
<stop stop-color="#fff" offset="0"/>
<stop stop-color="#cef5ff" offset="1"/>
</linearGradient>
<radialGradient id="radialGradient923" cx="33.268" cy="0" r="78.239" gradientTransform="matrix(1.2324 0 0 .81142 7 35.01)" gradientUnits="userSpaceOnUse">
<stop stop-color="#ccff42" offset="0"/>
<stop stop-color="#50a100" offset="1"/>
</radialGradient>
</defs>
<g fill-rule="evenodd">
<path d="m53 22.5c1.2162 2.7365 3.9299 4.5 6.9244 4.5h18.733c5.7119 0 10.342 4.6304 10.342 10.342v41.315c0 5.7119-4.6304 10.342-10.342 10.342h-61.315c-5.7119 0-10.342-4.6304-10.342-10.342v-50.315c0-5.7119 4.6304-10.342 10.342-10.342h28.733c2.9946 0 5.7082 1.7635 6.9244 4.5z" fill="url(#linearGradient919)" filter="url(#folder-96px-a)"/>
<g transform="translate(134,-44)">
<rect x="-123" y="74" width="74" height="31" rx="6.617" ry="6.617" fill-opacity=".2" filter="url(#filter973)" style="paint-order:stroke fill markers"/>
<rect x="-123" y="74" width="74" height="31" rx="6.617" ry="6.617" fill="url(#linearGradient955)" style="paint-order:stroke fill markers"/>
<path d="m-116.38 74c-3.6658 0-6.6172 2.9514-6.6172 6.6172v1c0-3.6658 2.9514-6.6172 6.6172-6.6172h60.766c3.6658 0 6.6172 2.9514 6.6172 6.6172v-1c0-3.6658-2.9514-6.6172-6.6172-6.6172z" opacity=".5" style="paint-order:stroke fill markers"/>
</g>
<path d="m7 35.01h82v43.647c0 5.7119-4.6304 10.342-10.342 10.342h-61.315c-5.7119 0-10.342-4.6304-10.342-10.342z" fill="url(#radialGradient923)" filter="url(#folder-96px-a)"/>
</g>
<g transform="translate(29,40)" fill="none" fill-rule="evenodd">
<g transform="translate(0,2.044)">
<use width="100%" height="100%" fill="#000000" filter="url(#folder-documents-96px-j)" xlink:href="#folder-documents-96px-k"/>
<use width="100%" height="100%" fill="url(#folder-documents-96px-l)" xlink:href="#folder-documents-96px-k"/>
<polygon points="17 15.956 3 15.956 3 5.956 17 5.956" fill="url(#folder-documents-96px-m)"/>
<path d="m13 12.956c0.55228 0 1-0.44772 1-1 0-0.55228-0.44772-1-1-1s-1 0.44772-1 1c0 0.55228 0.44772 1 1 1z" fill="#ff5151"/>
<path d="m4 14.956h8l-1.9039-2.6107c-0.12203-0.16734-0.35661-0.20406-0.52395-0.08203-0.00931 0.0068-0.018312 0.01401-0.026961 0.02163l-1.0026 0.88348c-0.15539 0.13692-0.39235 0.12195-0.52928-0.03343-0.019909-0.02259-0.037023-0.0475-0.050974-0.07419l-1.0411-1.9915c-0.095949-0.18354-0.32252-0.25455-0.50606-0.1586-0.0628 0.03283-0.11501 0.08278-0.15059 0.14407z" fill="url(#folder-documents-96px-n)"/>
</g>
<g transform="translate(33.275)">
<polygon points="4.725 5.561 4.725 42.802 1.931 42.802 1.931 5.561 3.328 0.381" fill="#00267b" fill-opacity=".3" filter="url(#folder-documents-96px-o)"/>
<polygon points="2.725 38 0.725 38 0.725 5 2.725 5" fill="url(#folder-documents-96px-p)"/>
<rect x=".725" y="38" width="3" height="2" fill="url(#folder-documents-96px-q)"/>
<use width="100%" height="100%" fill="url(#folder-documents-96px-r)" xlink:href="#folder-documents-96px-s"/>
<use width="100%" height="100%" fill="#000000" filter="url(#folder-documents-96px-t)" xlink:href="#folder-documents-96px-s"/>
<polygon points="1.725 38 0.725 38 0.725 5 1.725 5" fill="url(#folder-documents-96px-u)"/>
<polygon points="3.725 38 2.725 38 2.725 5 3.725 5" fill="url(#folder-documents-96px-v)"/>
<polygon points="0.725 5 2.225 0 3.725 5" fill="#ffdcac"/>
<polygon points="1.725 5 2.225 0 2.725 5" fill="#d8915b"/>
<polygon points="2.725 5 2.225 0 3.725 5" fill="#965600"/>
<polygon points="2.225 0 2.525 1 1.925 1" fill="url(#folder-documents-96px-w)"/>
</g>
</g>
</svg>
