<svg width="96" height="96" enable-background="new" version="1.1" viewBox="0 0 96 96" xmlns="http://www.w3.org/2000/svg" xmlns:xlink="http://www.w3.org/1999/xlink">
<defs>
<filter id="folder-home-96px-a" x="-14.6%" y="-16.9%" width="129.3%" height="133.8%">
<feOffset dy="2" in="SourceAlpha" result="shadowOffsetOuter1"/>
<feGaussianBlur in="shadowOffsetOuter1" result="shadowBlurOuter1" stdDeviation="2"/>
<feComposite in="shadowBlurOuter1" in2="SourceAlpha" operator="out" result="shadowBlurOuter1"/>
<feColorMatrix in="shadowBlurOuter1" result="shadowMatrixOuter1" values="0 0 0 0 0   0 0 0 0 0   0 0 0 0 0  0 0 0 0.2 0"/>
<feMerge>
<feMergeNode in="shadowMatrixOuter1"/>
<feMergeNode in="SourceGraphic"/>
</feMerge>
</filter>
<linearGradient id="folder-home-96px-c" x1="38.151" x2="38.151" y1="-2.959e-14" y2="28.97" gradientTransform="scale(1.0747 .93051)" gradientUnits="userSpaceOnUse">
<stop stop-color="#ba5638" offset="0"/>
<stop stop-color="#870b3d" offset="1"/>
</linearGradient>
<path id="folder-home-96px-b" d="m46 4.5c1.2162 2.7365 3.9299 4.5 6.9244 4.5h18.733c5.7119 0 10.342 4.6304 10.342 10.342v41.315c0 5.7119-4.6304 10.342-10.342 10.342h-61.315c-5.7119 0-10.342-4.6304-10.342-10.342l1.7764e-15 -50.315c-6.9951e-16 -5.7119 4.6304-10.342 10.342-10.342l28.733-2.6645e-15c2.9946-5.5009e-16 5.7082 1.7635 6.9244 4.5z"/>
<radialGradient id="radialGradient899" cx="33.268" cy="0" r="78.239" gradientTransform="matrix(1.2324 0 0 .81142 7 35.01)" gradientUnits="userSpaceOnUse">
<stop stop-color="#ff774d" offset="0"/>
<stop stop-color="#ba0e55" offset="1"/>
</radialGradient>
<filter id="filter973" x="-.034054" y="-.08129" width="1.0681" height="1.1626" color-interpolation-filters="sRGB">
<feGaussianBlur stdDeviation="1.05"/>
</filter>
<linearGradient id="linearGradient955" x1="-85" x2="-85" y1="73.782" y2="78" gradientTransform="translate(134,-44)" gradientUnits="userSpaceOnUse">
<stop stop-color="#fff" offset="0"/>
<stop stop-color="#fff8a3" offset="1"/>
</linearGradient>
<filter id="filter2292" x="-.119" y="-.08925" width="1.238" height="1.1785" color-interpolation-filters="sRGB">
<feGaussianBlur stdDeviation="1.19"/>
</filter>
<linearGradient id="linearGradient1001" x1="32" x2="32" y1="30" y2="51" gradientTransform="matrix(1.5 0 0 1.5 .001501 .52934)" gradientUnits="userSpaceOnUse">
<stop stop-color="#FFF" offset="0"/>
<stop stop-color="#FFF" stop-opacity=".6" offset="1"/>
</linearGradient>
</defs>
<use transform="translate(7,18)" width="100%" height="100%" fill="url(#folder-home-96px-c)" fill-rule="evenodd" filter="url(#folder-home-96px-a)" xlink:href="#folder-home-96px-b"/>
<rect x="11" y="30" width="74" height="31" rx="6.617" ry="6.617" fill-opacity=".2" fill-rule="evenodd" filter="url(#filter973)" style="paint-order:stroke fill markers"/>
<rect x="11" y="30" width="74" height="31" rx="6.617" ry="6.617" fill="url(#linearGradient955)" fill-rule="evenodd" style="paint-order:stroke fill markers"/>
<path d="m17.62 30c-3.6658 0-6.6172 2.9514-6.6172 6.6172v1c0-3.6658 2.9514-6.6172 6.6172-6.6172h60.766c3.6658 0 6.6172 2.9514 6.6172 6.6172v-1c0-3.6658-2.9514-6.6172-6.6172-6.6172z" fill-rule="evenodd" opacity=".5" style="paint-order:stroke fill markers"/>
<path d="m7 35.01h82v43.647c0 5.7119-4.6304 10.342-10.342 10.342h-61.315c-5.7119 0-10.342-4.6304-10.342-10.342z" fill="url(#radialGradient899)" fill-rule="evenodd" filter="url(#folder-home-96px-a)"/>
<g transform="translate(-1e-4 9e-4)" fill-rule="evenodd">
<path d="m48 46c-4.0788 0-7.4386 3.0547-7.9316 7h4.0742c0.44655-1.7216 1.9963-3 3.8574-3 2.2091 0 4 1.791 4 4v4h-12c-2.2091 0-4 1.791-4 4v12c0 2.2091 1.791 4 4 4h16c2.2091 0 4-1.791 4-4v-12c0-2.2091-1.791-4-4-4v-4c0-4.4181-3.5817-8-8-8z" fill-opacity=".50196" filter="url(#filter2292)"/>
<path d="m48 46c-4.0788 0-7.4386 3.0547-7.9316 7h4.0742c0.44655-1.7216 1.9963-3 3.8574-3 2.2091 0 4 1.791 4 4v4h-12c-2.2091 0-4 1.791-4 4v12c0 2.2091 1.791 4 4 4h16c2.2091 0 4-1.791 4-4v-12c0-2.2091-1.791-4-4-4v-4c0-4.4181-3.5817-8-8-8z" fill="url(#linearGradient1001)"/>
</g>
</svg>
