<svg width="96" height="96" version="1.1" viewBox="0 0 96 96" xmlns="http://www.w3.org/2000/svg" xmlns:xlink="http://www.w3.org/1999/xlink">
<defs>
<filter id="folder-music-stack-96px-a" x="-14.6%" y="-16.9%" width="129.3%" height="133.8%">
<feOffset dy="2" in="SourceAlpha" result="shadowOffsetOuter1"/>
<feGaussianBlur in="shadowOffsetOuter1" result="shadowBlurOuter1" stdDeviation="2"/>
<feComposite in="shadowBlurOuter1" in2="SourceAlpha" operator="out" result="shadowBlurOuter1"/>
<feColorMatrix in="shadowBlurOuter1" result="shadowMatrixOuter1" values="0 0 0 0 0   0 0 0 0 0   0 0 0 0 0  0 0 0 0.2 0"/>
<feMerge>
<feMergeNode in="shadowMatrixOuter1"/>
<feMergeNode in="SourceGraphic"/>
</feMerge>
</filter>
<linearGradient id="folder-music-stack-96px-l" x1="25" x2="25" y1="-1" y2="49.842" gradientTransform="translate(24,49)" gradientUnits="userSpaceOnUse">
<stop stop-color="#343434" offset="0"/>
<stop stop-color="#240B0B" offset="1"/>
</linearGradient>
<linearGradient id="folder-music-stack-96px-m" x1="50%" x2="50%" y2="100%">
<stop stop-color="#151515" offset="0"/>
<stop offset="1"/>
</linearGradient>
<circle id="folder-music-stack-96px-j" cx="25" cy="25" r="25"/>
<filter id="folder-music-stack-96px-k" x="-13%" y="-9%" width="126%" height="126%">
<feMorphology in="SourceAlpha" operator="dilate" radius="1" result="shadowSpreadOuter1"/>
<feOffset dy="2" in="shadowSpreadOuter1" result="shadowOffsetOuter1"/>
<feGaussianBlur in="shadowOffsetOuter1" result="shadowBlurOuter1" stdDeviation="1.5"/>
<feComposite in="shadowBlurOuter1" in2="SourceAlpha" operator="out" result="shadowBlurOuter1"/>
<feColorMatrix in="shadowBlurOuter1" values="0 0 0 0 0   0 0 0 0 0   0 0 0 0 0  0 0 0 0.5 0"/>
</filter>
<filter id="folder-music-stack-96px-o" x="-50%" y="-17.6%" width="200%" height="135.3%">
<feGaussianBlur in="SourceGraphic" stdDeviation="3"/>
</filter>
<filter id="folder-music-stack-96px-p" x="-50%" y="-17.6%" width="200%" height="135.3%">
<feGaussianBlur in="SourceGraphic" stdDeviation="3"/>
</filter>
<linearGradient id="folder-music-stack-96px-q" x1="25" x2="25" y1="15" y2="35" gradientUnits="userSpaceOnUse">
<stop stop-color="#E91F95" offset="0"/>
<stop stop-color="#930DCE" offset="1"/>
</linearGradient>
<linearGradient id="linearGradient919" x1="38.151" x2="38.151" y1="-2.959e-14" y2="28.97" gradientTransform="matrix(1.0747 0 0 .93051 7 18)" gradientUnits="userSpaceOnUse">
<stop stop-color="#c80017" offset="0"/>
<stop stop-color="#b105ff" offset="1"/>
</linearGradient>
<filter id="folder-96px-a" x="-.146" y="-.169" width="1.293" height="1.338">
<feOffset dy="2" in="SourceAlpha" result="shadowOffsetOuter1"/>
<feGaussianBlur in="shadowOffsetOuter1" result="shadowBlurOuter1" stdDeviation="2"/>
<feComposite in="shadowBlurOuter1" in2="SourceAlpha" operator="out" result="shadowBlurOuter1"/>
<feColorMatrix in="shadowBlurOuter1" result="shadowMatrixOuter1" values="0 0 0 0 0   0 0 0 0 0   0 0 0 0 0  0 0 0 0.2 0"/>
<feMerge>
<feMergeNode in="shadowMatrixOuter1"/>
<feMergeNode in="SourceGraphic"/>
</feMerge>
</filter>
<filter id="filter973" x="-.034054" y="-.08129" width="1.0681" height="1.1626" color-interpolation-filters="sRGB">
<feGaussianBlur stdDeviation="1.05"/>
</filter>
<linearGradient id="linearGradient955" x1="-85" x2="-85" y1="73.782" y2="78" gradientTransform="translate(134,-42)" gradientUnits="userSpaceOnUse">
<stop stop-color="#fff" offset="0"/>
<stop stop-color="#ffedce" offset="1"/>
</linearGradient>
<radialGradient id="radialGradient923" cx="33.268" cy="0" r="78.239" gradientTransform="matrix(1.2324 0 0 .81142 7 35.01)" gradientUnits="userSpaceOnUse">
<stop stop-color="#f87136" offset="0"/>
<stop stop-color="#d22e18" offset="1"/>
</radialGradient>
<linearGradient id="linearGradient1031" x1="25" x2="25" y1="-1" y2="51" gradientTransform="translate(24,49)" gradientUnits="userSpaceOnUse" xlink:href="#folder-music-stack-96px-m"/>
<linearGradient id="linearGradient1033" x1="25" x2="25" y1="11" y2="39" gradientUnits="userSpaceOnUse" xlink:href="#folder-music-stack-96px-m"/>
<linearGradient id="linearGradient1035" x1="25" x2="25" y1="9" y2="41" gradientUnits="userSpaceOnUse" xlink:href="#folder-music-stack-96px-m"/>
<linearGradient id="linearGradient1037" x1="25" x2="25" y1="7" y2="43" gradientUnits="userSpaceOnUse" xlink:href="#folder-music-stack-96px-m"/>
<linearGradient id="linearGradient1039" x1="25" x2="25" y1="5" y2="45" gradientUnits="userSpaceOnUse" xlink:href="#folder-music-stack-96px-m"/>
<linearGradient id="linearGradient1041" x1="25" x2="25" y1="3" y2="47" gradientUnits="userSpaceOnUse" xlink:href="#folder-music-stack-96px-m"/>
<linearGradient id="linearGradient1043" x1="25" x2="25" y1="1" y2="49" gradientUnits="userSpaceOnUse" xlink:href="#folder-music-stack-96px-m"/>
<linearGradient id="linearGradient1045" x1="25" x2="25" y1="13" y2="37" gradientUnits="userSpaceOnUse" xlink:href="#folder-music-stack-96px-m"/>
<linearGradient id="linearGradient1047" x1="25" x2="25" y1="15" y2="35" gradientUnits="userSpaceOnUse" xlink:href="#folder-music-stack-96px-m"/>
<mask id="folder-music-stack-96px-n" fill="#fff">
<use width="100%" height="100%" xlink:href="#folder-music-stack-96px-j"/>
</mask>
</defs>
<path d="m53 22.5c1.2162 2.7365 3.9299 4.5 6.9244 4.5h18.733c5.7119 0 10.342 4.6304 10.342 10.342v41.315c0 5.7119-4.6304 10.342-10.342 10.342h-61.315c-5.7119 0-10.342-4.6304-10.342-10.342v-50.315c0-5.7119 4.6304-10.342 10.342-10.342h28.733c2.9946 0 5.7082 1.7635 6.9244 4.5z" fill="url(#linearGradient919)" fill-rule="evenodd" filter="url(#folder-96px-a)"/>
<rect x="11" y="32" width="74" height="31" rx="6.617" ry="6.617" fill-opacity=".2" fill-rule="evenodd" filter="url(#filter973)" style="paint-order:stroke fill markers"/>
<rect x="11" y="32" width="74" height="31" rx="6.617" ry="6.617" fill="url(#linearGradient955)" fill-rule="evenodd" style="paint-order:stroke fill markers"/>
<path d="m17.617 32c-3.6658 0-6.6172 2.9514-6.6172 6.6172v1c0-3.6658 2.9514-6.6172 6.6172-6.6172h60.766c3.6658 0 6.6172 2.9514 6.6172 6.6172v-1c0-3.6658-2.9514-6.6172-6.6172-6.6172z" fill-rule="evenodd" opacity=".5" style="paint-order:stroke fill markers"/>
<path d="m7 35.01h82v43.647c0 5.7119-4.6304 10.342-10.342 10.342h-61.315c-5.7119 0-10.342-4.6304-10.342-10.342z" fill="url(#radialGradient923)" fill-rule="evenodd" filter="url(#folder-96px-a)"/>
<use transform="translate(24,49)" width="100%" height="100%" fill="#000000" fill-rule="evenodd" filter="url(#folder-music-stack-96px-k)" xlink:href="#folder-music-stack-96px-j"/>
<circle cx="49" cy="74" r="25.5" fill="url(#folder-music-stack-96px-l)" fill-rule="evenodd" filter="url(#folder-music-stack-96px-a)" stroke="url(#linearGradient1031)"/>
<circle transform="translate(24,49)" cx="25" cy="25" r="13.5" fill="none" filter="url(#folder-music-stack-96px-a)" mask="url(#folder-music-stack-96px-n)" stroke="url(#linearGradient1033)"/>
<circle transform="translate(24,49)" cx="25" cy="25" r="15.5" fill="none" filter="url(#folder-music-stack-96px-a)" mask="url(#folder-music-stack-96px-n)" stroke="url(#linearGradient1035)"/>
<circle transform="translate(24,49)" cx="25" cy="25" r="17.5" fill="none" filter="url(#folder-music-stack-96px-a)" mask="url(#folder-music-stack-96px-n)" stroke="url(#linearGradient1037)"/>
<circle transform="translate(24,49)" cx="25" cy="25" r="19.5" fill="none" filter="url(#folder-music-stack-96px-a)" mask="url(#folder-music-stack-96px-n)" stroke="url(#linearGradient1039)"/>
<circle transform="translate(24,49)" cx="25" cy="25" r="21.5" fill="none" filter="url(#folder-music-stack-96px-a)" mask="url(#folder-music-stack-96px-n)" stroke="url(#linearGradient1041)"/>
<circle transform="translate(24,49)" cx="25" cy="25" r="23.5" fill="none" filter="url(#folder-music-stack-96px-a)" mask="url(#folder-music-stack-96px-n)" stroke="url(#linearGradient1043)"/>
<circle transform="translate(24,49)" cx="25" cy="25" r="11.5" fill="none" filter="url(#folder-music-stack-96px-a)" mask="url(#folder-music-stack-96px-n)" stroke="url(#linearGradient1045)"/>
<path transform="rotate(120 22.355 56.928)" d="m24.5 25.5 9 25.5h-18zl-9-25.5h18z" fill="#fff" fill-rule="evenodd" filter="url(#folder-music-stack-96px-o)" mask="url(#folder-music-stack-96px-n)" opacity=".1"/>
<path transform="rotate(45 -22.648 78.971)" d="m24.5 25.5 9 25.5h-18zl-9-25.5h18z" fill="#fff" fill-rule="evenodd" filter="url(#folder-music-stack-96px-p)" mask="url(#folder-music-stack-96px-n)" opacity=".1"/>
<circle transform="translate(24,49)" cx="25" cy="25" r="9.5" fill="url(#folder-music-stack-96px-q)" fill-rule="evenodd" filter="url(#folder-music-stack-96px-a)" mask="url(#folder-music-stack-96px-n)" stroke="url(#linearGradient1047)"/>
<polygon transform="translate(24,49)" points="22 21 30 25 22 29" fill="#fff" fill-rule="evenodd" filter="url(#folder-music-stack-96px-a)" mask="url(#folder-music-stack-96px-n)"/>
</svg>
