<svg width="96" height="96" version="1.1" viewBox="0 0 96 96" xmlns="http://www.w3.org/2000/svg" xmlns:xlink="http://www.w3.org/1999/xlink">
<defs>
<filter id="network-server-96px-a" x="-14.6%" y="-16.9%" width="129.3%" height="133.8%">
<feOffset dy="2" in="SourceAlpha" result="shadowOffsetOuter1"/>
<feGaussianBlur in="shadowOffsetOuter1" result="shadowBlurOuter1" stdDeviation="2"/>
<feComposite in="shadowBlurOuter1" in2="SourceAlpha" operator="out" result="shadowBlurOuter1"/>
<feColorMatrix in="shadowBlurOuter1" result="shadowMatrixOuter1" values="0 0 0 0 0   0 0 0 0 0   0 0 0 0 0  0 0 0 0.2 0"/>
<feMerge>
<feMergeNode in="shadowMatrixOuter1"/>
<feMergeNode in="SourceGraphic"/>
</feMerge>
</filter>
<linearGradient id="network-server-96px-c" x1="38.151" x2="38.151" y1="-2.959e-14" y2="28.97" gradientTransform="scale(1.0747 .93051)" gradientUnits="userSpaceOnUse">
<stop stop-color="#ba5638" offset="0"/>
<stop stop-color="#870b3d" offset="1"/>
</linearGradient>
<path id="network-server-96px-b" d="m46 4.5c1.2162 2.7365 3.9299 4.5 6.9244 4.5h18.733c5.7119 0 10.342 4.6304 10.342 10.342v41.315c0 5.7119-4.6304 10.342-10.342 10.342h-61.315c-5.7119 0-10.342-4.6304-10.342-10.342l1.7764e-15 -50.315c-6.9951e-16 -5.7119 4.6304-10.342 10.342-10.342l28.733-2.6645e-15c2.9946-5.5009e-16 5.7082 1.7635 6.9244 4.5z"/>
<linearGradient id="network-server-96px-l" x1="17.188" x2="17.188" y1="1.6196" y2="33" gradientTransform="translate(32,44)" gradientUnits="userSpaceOnUse">
<stop stop-color="#FFF" offset="0"/>
<stop stop-color="#FFF" stop-opacity=".6" offset="1"/>
</linearGradient>
<path id="network-server-96px-k" d="m2 16.5c0-8.0074 6.4926-14.5 14.5-14.5s14.5 6.4926 14.5 14.5-6.4926 14.5-14.5 14.5-14.5-6.4926-14.5-14.5zm31 0c0-9.1119-7.3881-16.5-16.5-16.5s-16.5 7.3881-16.5 16.5 7.3881 16.5 16.5 16.5 16.5-7.3881 16.5-16.5z"/>
<filter id="network-server-96px-j" x="-39.4%" y="-33.3%" width="178.8%" height="178.8%">
<feOffset dy="2" in="SourceAlpha" result="shadowOffsetOuter1"/>
<feGaussianBlur in="shadowOffsetOuter1" result="shadowBlurOuter1" stdDeviation="4"/>
<feColorMatrix in="shadowBlurOuter1" values="0 0 0 0 0   0 0 0 0 0.42745098   0 0 0 0 0.968627451  0 0 0 0.5 0"/>
</filter>
<path id="network-server-96px-n" d="m21.097 21.771c-1.7437 1.1063-3.4811 2.3465-5.113 3.7019-2.0167 1.675-3.7412 3.4198-5.0837 5.2228-0.32984 0.44297-0.23813 1.0695 0.20485 1.3993 0.44297 0.32984 1.0695 0.23813 1.3993-0.20485 1.2383-1.663 2.8544-3.2981 4.7574-4.8788 1.6632-1.3814 3.4496-2.6439 5.2361-3.759 0.0599-0.037389 0.11939-0.07435 0.17844-0.11088 0.31829 0.25602 0.69471 0.44265 1.1062 0.53687 0.18685 1.8491 0.20325 3.7967 0.036303 5.846-0.044623 0.54776 0.36545 1.0278 0.91593 1.0722s1.0329-0.36365 1.0775-0.91142c0.17957-2.2043 0.15828-4.3036-0.049636-6.2998 0.56414-0.32327 1.003-0.84071 1.2252-1.461 1.3623-0.094875 2.767-0.27689 4.2145-0.55007 0.52883-0.099806 0.87876-0.62106 0.78159-1.1643s-0.60463-0.90263-1.1335-0.80282c-1.3487 0.25454-2.6551 0.42555-3.92 0.51681-0.37257-0.87701-1.1876-1.5212-2.1644-1.652-0.96195-3.2866-2.4955-6.2393-4.5158-8.8686-0.42607-0.5545-0.86518-1.0847-1.3149-1.591 0.1466-0.33621 0.22793-0.70734 0.22793-1.0973 0-0.13404-0.009606-0.26585-0.028167-0.39478 1.848-0.81968 3.8698-1.4961 6.0746-2.0154 0.53651-0.12637 0.86518-0.64816 0.73411-1.1654-0.13107-0.51729-0.67224-0.83418-1.2087-0.70781-2.3723 0.55878-4.5511 1.2926-6.5444 2.1855-0.47945-0.40666-1.0999-0.65204-1.7774-0.65204-0.45021 0-0.87527 0.10837-1.2505 0.30043-1.4673-1.1488-2.9731-2.0958-4.453-2.8548-0.49091-0.25179-1.094-0.0599-1.347 0.42859-0.25303 0.48849-0.060197 1.0886 0.43071 1.3404 1.339 0.68675 2.7055 1.5432 4.0407 2.5794-0.11052 0.29779-0.17091 0.61986-0.17091 0.95596 0 0.13176 0.0092815 0.26136 0.027226 0.38819-1.9957 1.3422-3.7436 2.8866-5.2566 4.6071-0.18181-0.037887-0.37019-0.057802-0.56319-0.057802-0.43267 0-0.84211 0.10009-1.2064 0.27836-1.0601-1.2161-1.9403-2.4788-2.6494-3.7277-0.27086-0.47709-0.86696-0.63831-1.3314-0.36009-0.46447 0.27822-0.62143 0.89051-0.35057 1.3676 0.79668 1.4033 1.7868 2.8169 2.9831 4.1726-0.12599 0.31525-0.1953 0.65921-0.1953 1.0193 0 0.49545 0.13124 0.96042 0.36082 1.362-1.6391 2.7474-2.6375 5.5274-3.1449 8.0901-0.10356 0.52305 0.25226 1.028 0.79475 1.1279 0.54249 0.099849 1.0662-0.24323 1.1698-0.76628 0.44941-2.2699 1.3226-4.7398 2.7392-7.1915 0.26202 0.082976 0.54098 0.12774 0.83034 0.12774 0.43423 0 0.84505-0.10081 1.2103-0.28029 0.48323 0.36551 0.98682 0.71982 1.5111 1.061 3.0882 2.0094 6.5858 3.3316 10.505 3.8377zm0.80032-1.918c0.20484-0.44645 0.52574-0.82873 0.92401-1.1081-0.89411-3.0159-2.3061-5.7201-4.1598-8.1326-0.36869-0.47982-0.74809-0.94021-1.1363-1.3815-0.34004 0.15063-0.71625 0.23432-1.1119 0.23432-0.6754 0-1.2942-0.24389-1.773-0.64835-1.7104 1.1729-3.2189 2.5056-4.5378 3.9794 0.32605 0.45202 0.51822 1.0069 0.51822 1.6065 0 0.35471-0.067268 0.6938-0.18974 1.0052 0.3872 0.28689 0.7882 0.56594 1.2032 0.83595 2.9909 1.9461 6.4009 3.1967 10.263 3.6092z"/>
<filter id="network-server-96px-m" x="-43.6%" y="-35.5%" width="187.2%" height="183.9%">
<feOffset dy="2" in="SourceAlpha" result="shadowOffsetOuter1"/>
<feGaussianBlur in="shadowOffsetOuter1" result="shadowBlurOuter1" stdDeviation="4"/>
<feColorMatrix in="shadowBlurOuter1" values="0 0 0 0 0   0 0 0 0 0.42745098   0 0 0 0 0.968627451  0 0 0 0.5 0"/>
</filter>
<radialGradient id="radialGradient918" cx="33.268" cy="0" r="78.239" gradientTransform="matrix(1.2324 0 0 .81142 7 35.01)" gradientUnits="userSpaceOnUse">
<stop stop-color="#ff774d" offset="0"/>
<stop stop-color="#ba0e55" offset="1"/>
</radialGradient>
<filter id="filter973" x="-.034054" y="-.08129" width="1.0681" height="1.1626" color-interpolation-filters="sRGB">
<feGaussianBlur stdDeviation="1.05"/>
</filter>
<linearGradient id="linearGradient955" x1="-85" x2="-85" y1="73.782" y2="78" gradientTransform="translate(134,-44)" gradientUnits="userSpaceOnUse">
<stop stop-color="#fff" offset="0"/>
<stop stop-color="#fff8a3" offset="1"/>
</linearGradient>
</defs>
<use transform="translate(7,18)" width="100%" height="100%" fill="url(#network-server-96px-c)" fill-rule="evenodd" filter="url(#network-server-96px-a)" xlink:href="#network-server-96px-b"/>
<rect x="11" y="30" width="74" height="31" rx="6.617" ry="6.617" fill-opacity=".2" fill-rule="evenodd" filter="url(#filter973)" style="paint-order:stroke fill markers"/>
<rect x="11" y="30" width="74" height="31" rx="6.617" ry="6.617" fill="url(#linearGradient955)" fill-rule="evenodd" style="paint-order:stroke fill markers"/>
<path d="m17.62 30c-3.6658 0-6.6172 2.9514-6.6172 6.6172v1c0-3.6658 2.9514-6.6172 6.6172-6.6172h60.766c3.6658 0 6.6172 2.9514 6.6172 6.6172v-1c0-3.6658-2.9514-6.6172-6.6172-6.6172z" fill-rule="evenodd" opacity=".5" style="paint-order:stroke fill markers"/>
<path d="m7 35.01h82v43.647c0 5.7119-4.6304 10.342-10.342 10.342h-61.315c-5.7119 0-10.342-4.6304-10.342-10.342z" fill="url(#radialGradient918)" fill-rule="evenodd" filter="url(#network-server-96px-a)"/>
<use transform="translate(32,44)" width="100%" height="100%" fill="#000000" fill-rule="evenodd" filter="url(#network-server-96px-j)" xlink:href="#network-server-96px-k"/>
<use transform="translate(32,44)" width="100%" height="100%" fill="#000000" fill-rule="evenodd" filter="url(#network-server-96px-m)" xlink:href="#network-server-96px-n"/>
<path d="m48.5 44c-2.3165 0-4.5189 0.48182-6.5195 1.3438-0.080165 0.022612-0.15026 0.06566-0.22266 0.10742-5.7476 2.5798-9.7578 8.3413-9.7578 15.049 0 7.2118 4.6362 13.326 11.084 15.57 0.008937 0.007136 0.012242 0.01851 0.021485 0.025391 0.16555 0.12327 0.35707 0.16855 0.54883 0.17774 1.5326 0.47038 3.159 0.72656 4.8457 0.72656 3.1615 0 6.1053-0.90501 8.6152-2.4473 0.14679-0.046083 0.27314-0.13038 0.38281-0.23438 4.5125-2.9447 7.502-8.0287 7.502-13.818 0-5.6504-2.8445-10.633-7.1758-13.607-0.16193-0.26905-0.43838-0.44527-0.75781-0.47461-2.4994-1.5239-5.4253-2.418-8.5664-2.418zm0 2c2.005 0 3.9155 0.40662 5.6523 1.1426-1.3912 0.42959-2.7164 0.9171-3.9609 1.4746-0.47945-0.40666-1.0998-0.65234-1.7773-0.65234-0.45021 0-0.87672 0.10872-1.252 0.30078-0.8223-0.64381-1.6551-1.2188-2.4902-1.7383 1.2212-0.33398 2.5011-0.52734 3.8281-0.52734zm-6.2461 1.4297c1.191 0.64279 2.3973 1.4122 3.5801 2.3301-0.11052 0.29779-0.16992 0.61898-0.16992 0.95508 0 0.13176 0.009414 0.26184 0.027344 0.38867-1.9957 1.3422-3.7448 2.8869-5.2578 4.6074-0.18181-0.03789-0.3695-0.058594-0.5625-0.058594-0.43267 0-0.84274 0.10103-1.207 0.2793-0.92523-1.0614-1.7043-2.1597-2.3613-3.252 1.4519-2.2598 3.5116-4.0817 5.9512-5.25zm14.334 1.0352c3.8676 2.6042 6.4121 7.0224 6.4121 12.035 0 1.0037-0.10265 1.9834-0.29688 2.9297-1.2961 0.23926-2.5551 0.40624-3.7734 0.49414-0.37257-0.87701-1.1873-1.5215-2.1641-1.6523-0.96195-3.2866-2.4953-6.2379-4.5156-8.8672-0.42607-0.5545-0.86473-1.0855-1.3145-1.5918 0.1466-0.33621 0.22852-0.7077 0.22852-1.0977 0-0.13404-0.010726-0.2656-0.029296-0.39453 1.6708-0.74108 3.4914-1.3588 5.4531-1.8555zm-9.9473 4.3516c0.4788 0.40446 1.098 0.64844 1.7734 0.64844 0.39565 0 0.77129-0.083745 1.1113-0.23438 0.38821 0.44129 0.76803 0.90104 1.1367 1.3809 1.8537 2.4125 3.266 5.1169 4.1602 8.1328-0.39827 0.27937-0.72094 0.66292-0.92578 1.1094-3.8621-0.4125-7.2708-1.6633-10.262-3.6094-0.415-0.27001-0.81592-0.54905-1.2031-0.83594 0.12247-0.3114 0.18945-0.65115 0.18945-1.0059 0-0.5996-0.19348-1.1534-0.51953-1.6055 1.3189-1.4738 2.8287-2.8076 4.5391-3.9805zm-11.408 1.8438c0.61078 0.91963 1.2995 1.8336 2.084 2.7227-0.12599 0.31525-0.19531 0.65944-0.19531 1.0195 0 0.49545 0.13175 0.9617 0.36133 1.3633-1.1607 1.9454-1.9853 3.9036-2.5566 5.793-0.58813-1.577-0.92578-3.2768-0.92578-5.0586 0-2.0789 0.44428-4.0523 1.2324-5.8398zm5.8496 6.2129c0.48323 0.36551 0.98549 0.71937 1.5098 1.0605 3.0882 2.0094 6.5867 3.3318 10.506 3.8379-1.7437 1.1063-3.4814 2.3458-5.1133 3.7012-1.7787 1.4773-3.3137 3.0119-4.5762 4.5898-2.9603-1.1123-5.4566-3.1561-7.1328-5.7852 0.005928-0.02167 0.020964-0.0382 0.02539-0.060547 0.44941-2.2699 1.3236-4.7397 2.7402-7.1914 0.26202 0.08298 0.54072 0.12695 0.83008 0.12695 0.43423 0 0.84569-0.099817 1.2109-0.2793zm20.994 4.6816c-0.86706 2.327-2.3062 4.3713-4.1582 5.957 0.031118-1.4202-0.017892-2.7986-0.15625-4.127 0.56414-0.32327 1.0044-0.84065 1.2266-1.4609 1.0037-0.069905 2.038-0.20302 3.0879-0.36914zm-7.4004 1.5859c0.31829 0.25602 0.69593 0.44289 1.1074 0.53711 0.1702 1.6843 0.19075 3.4545 0.068359 5.3047-2.1574 1.2736-4.6652 2.0176-7.3516 2.0176-1.0374 0-2.0477-0.11318-3.0234-0.32031 1.0717-1.2463 2.3459-2.4725 3.7852-3.668 1.6632-1.3814 3.4498-2.6447 5.2363-3.7598 0.0599-0.03739 0.11868-0.074798 0.17773-0.11133z" fill="url(#network-server-96px-l)" fill-rule="evenodd"/>
</svg>
