<svg width="96" height="96" version="1.1" viewBox="0 0 96 96" xmlns="http://www.w3.org/2000/svg" xmlns:xlink="http://www.w3.org/1999/xlink">
<defs>
<filter id="network-workgroup-96px-a" x="-14.6%" y="-16.9%" width="129.3%" height="133.8%">
<feOffset dy="2" in="SourceAlpha" result="shadowOffsetOuter1"/>
<feGaussianBlur in="shadowOffsetOuter1" result="shadowBlurOuter1" stdDeviation="2"/>
<feComposite in="shadowBlurOuter1" in2="SourceAlpha" operator="out" result="shadowBlurOuter1"/>
<feColorMatrix in="shadowBlurOuter1" result="shadowMatrixOuter1" values="0 0 0 0 0   0 0 0 0 0   0 0 0 0 0  0 0 0 0.2 0"/>
<feMerge>
<feMergeNode in="shadowMatrixOuter1"/>
<feMergeNode in="SourceGraphic"/>
</feMerge>
</filter>
<linearGradient id="network-workgroup-96px-c" x1="38.151" x2="38.151" y1="-2.959e-14" y2="28.97" gradientTransform="scale(1.0747 .93051)" gradientUnits="userSpaceOnUse">
<stop stop-color="#00B8FF" offset="0"/>
<stop stop-color="#2E5DFF" offset="1"/>
</linearGradient>
<path id="network-workgroup-96px-b" d="m46 4.5c1.2162 2.7365 3.9299 4.5 6.9244 4.5h18.733c5.7119 0 10.342 4.6304 10.342 10.342v41.315c0 5.7119-4.6304 10.342-10.342 10.342h-61.315c-5.7119 0-10.342-4.6304-10.342-10.342l1.7764e-15 -50.315c-6.9951e-16 -5.7119 4.6304-10.342 10.342-10.342l28.733-2.6645e-15c2.9946-5.5009e-16 5.7082 1.7635 6.9244 4.5z"/>
<linearGradient id="network-workgroup-96px-l" x1="30.655" x2="30.655" y1="85.529" y2="108.23" gradientTransform="scale(1.5916 .62828)" gradientUnits="userSpaceOnUse">
<stop stop-color="#FFF" offset="0"/>
<stop stop-color="#FFF" stop-opacity=".6" offset="1"/>
</linearGradient>
<path id="network-workgroup-96px-k" d="m67 60.5c0-4.418-8.5347-7.5-19-7.5s-19 3.082-19 7.5 8.5347 7.5 19 7.5 19-3.082 19-7.5zm-35.954 0c0-2.7527 7.5625-5.4837 16.954-5.4837s16.954 2.731 16.954 5.4837-7.5625 5.4837-16.954 5.4837-16.954-2.731-16.954-5.4837z"/>
<filter id="network-workgroup-96px-j" x="-34.2%" y="-73.3%" width="168.4%" height="273.3%">
<feOffset dy="2" in="SourceAlpha" result="shadowOffsetOuter1"/>
<feGaussianBlur in="shadowOffsetOuter1" result="shadowBlurOuter1" stdDeviation="4"/>
<feColorMatrix in="shadowBlurOuter1" values="0 0 0 0 0   0 0 0 0 0.42745098   0 0 0 0 0.968627451  0 0 0 0.5 0"/>
</filter>
<linearGradient id="network-workgroup-96px-o" x1="52.084%" x2="52.084%" y1="4.908%" y2="100%">
<stop stop-color="#FFF" offset="0"/>
<stop stop-color="#FFF" stop-opacity=".6" offset="1"/>
</linearGradient>
<path id="network-workgroup-96px-n" d="m57.78 76.533c3.987-2.1793 2.3757-10.899-3.0101-19.731-5.3867-8.8331-12.56-14.516-16.55-12.335-3.987 2.1793-2.3757 10.899 3.0101 19.731 5.3867 8.8331 12.56 14.516 16.55 12.335zm-18.505-30.345c2.48-1.3555 8.8367 3.6805 13.67 11.606 4.8342 7.9272 6.2631 15.66 3.7801 17.017-2.48 1.3555-8.8367-3.6805-13.67-11.606-4.8342-7.9272-6.2631-15.66-3.7801-17.017z"/>
<filter id="network-workgroup-96px-m" x="-54.2%" y="-33.3%" width="208.3%" height="178.8%">
<feOffset dy="2" in="SourceAlpha" result="shadowOffsetOuter1"/>
<feGaussianBlur in="shadowOffsetOuter1" result="shadowBlurOuter1" stdDeviation="4"/>
<feColorMatrix in="shadowBlurOuter1" values="0 0 0 0 0   0 0 0 0 0.42745098   0 0 0 0 0.968627451  0 0 0 0.5 0"/>
</filter>
<path id="network-workgroup-96px-q" d="m57.78 44.467c-3.9899-2.1809-11.163 3.5019-16.55 12.335-5.3858 8.8317-6.9971 17.552-3.0101 19.731 3.9899 2.1809 11.163-3.5019 16.55-12.335 5.3858-8.8317 6.9971-17.552 3.0101-19.731zm-18.505 30.345c-2.4829-1.3572-1.0541-9.0899 3.7801-17.017 4.8334-7.9258 11.19-12.962 13.67-11.606 2.4829 1.3572 1.0541 9.0899-3.7801 17.017-4.8334 7.9258-11.19 12.962-13.67 11.606z"/>
<filter id="network-workgroup-96px-p" x="-54.2%" y="-33.3%" width="208.3%" height="178.8%">
<feOffset dy="2" in="SourceAlpha" result="shadowOffsetOuter1"/>
<feGaussianBlur in="shadowOffsetOuter1" result="shadowBlurOuter1" stdDeviation="4"/>
<feColorMatrix in="shadowBlurOuter1" values="0 0 0 0 0   0 0 0 0 0.42745098   0 0 0 0 0.968627451  0 0 0 0.5 0"/>
</filter>
<radialGradient id="radialGradient928" cx="33.268" cy="0" r="78.239" gradientTransform="matrix(1.2324 0 0 .81142 7 35.01)" gradientUnits="userSpaceOnUse">
<stop stop-color="#48D5FF" offset="0"/>
<stop stop-color="#0083F6" offset="1"/>
</radialGradient>
<linearGradient id="linearGradient932" x1="56.871" x2="56.871" y1="38.905" y2="65.666" gradientTransform="scale(.8528 1.1726)" gradientUnits="userSpaceOnUse" xlink:href="#network-workgroup-96px-o"/>
<filter id="filter973" x="-.034054" y="-.08129" width="1.0681" height="1.1626" color-interpolation-filters="sRGB">
<feGaussianBlur stdDeviation="1.05"/>
</filter>
<linearGradient id="linearGradient955" x1="-85" x2="-85" y1="73.782" y2="78" gradientUnits="userSpaceOnUse">
<stop stop-color="#fff" offset="0"/>
<stop stop-color="#cef5ff" offset="1"/>
</linearGradient>
</defs>
<use transform="translate(7,18)" width="100%" height="100%" fill="url(#network-workgroup-96px-c)" fill-rule="evenodd" filter="url(#network-workgroup-96px-a)" xlink:href="#network-workgroup-96px-b"/>
<g transform="translate(134,-44)" fill-rule="evenodd">
<rect x="-123" y="74" width="74" height="31" rx="6.617" ry="6.617" fill-opacity=".2" filter="url(#filter973)" style="paint-order:stroke fill markers"/>
<rect x="-123" y="74" width="74" height="31" rx="6.617" ry="6.617" fill="url(#linearGradient955)" style="paint-order:stroke fill markers"/>
<path d="m-116.38 74c-3.6658 0-6.6172 2.9514-6.6172 6.6172v1c0-3.6658 2.9514-6.6172 6.6172-6.6172h60.766c3.6658 0 6.6172 2.9514 6.6172 6.6172v-1c0-3.6658-2.9514-6.6172-6.6172-6.6172z" opacity=".5" style="paint-order:stroke fill markers"/>
</g>
<path d="m7 35.01h82v43.647c0 5.7119-4.6304 10.342-10.342 10.342h-61.315c-5.7119 0-10.342-4.6304-10.342-10.342z" fill="url(#radialGradient928)" fill-rule="evenodd" filter="url(#network-workgroup-96px-a)"/>
<use width="100%" height="100%" fill="#000000" fill-rule="evenodd" filter="url(#network-workgroup-96px-j)" xlink:href="#network-workgroup-96px-k"/>
<use width="100%" height="100%" fill="url(#network-workgroup-96px-l)" fill-rule="evenodd" xlink:href="#network-workgroup-96px-k"/>
<use width="100%" height="100%" fill="#000000" fill-rule="evenodd" filter="url(#network-workgroup-96px-m)" xlink:href="#network-workgroup-96px-n"/>
<use width="100%" height="100%" fill="url(#linearGradient932)" fill-rule="evenodd" xlink:href="#network-workgroup-96px-n"/>
<use width="100%" height="100%" fill="#000000" fill-rule="evenodd" filter="url(#network-workgroup-96px-p)" xlink:href="#network-workgroup-96px-q"/>
<use width="100%" height="100%" fill="url(#linearGradient932)" fill-rule="evenodd" xlink:href="#network-workgroup-96px-q"/>
</svg>
