<svg width="32" height="32" version="1.1" viewBox="0 0 32 32" xmlns="http://www.w3.org/2000/svg" xmlns:xlink="http://www.w3.org/1999/xlink">
<defs>
<filter id="folder-video-stack-a" x="-14.3%" y="-16%" width="128.6%" height="132%">
<feOffset dy="1" in="SourceAlpha" result="shadowOffsetOuter1"/>
<feGaussianBlur in="shadowOffsetOuter1" result="shadowBlurOuter1" stdDeviation=".5"/>
<feComposite in="shadowBlurOuter1" in2="SourceAlpha" operator="out" result="shadowBlurOuter1"/>
<feColorMatrix in="shadowBlurOuter1" result="shadowMatrixOuter1" values="0 0 0 0 0   0 0 0 0 0   0 0 0 0 0  0 0 0 0.15 0"/>
<feMerge>
<feMergeNode in="shadowMatrixOuter1"/>
<feMergeNode in="SourceGraphic"/>
</feMerge>
</filter>
<linearGradient id="folder-video-stack-b" x1="12.961" x2="12.961" y2="11.564" gradientTransform="matrix(1.0801 0 0 .92582 2 5)" gradientUnits="userSpaceOnUse">
<stop stop-color="#FFF" stop-opacity=".1" offset="0"/>
<stop stop-opacity="0" offset="1"/>
</linearGradient>
<linearGradient id="folder-video-stack-f" x1="11.225" x2="11.225" y1=".3118" y2="22.132" gradientTransform="scale(1.2472 .80178)" gradientUnits="userSpaceOnUse">
<stop stop-color="#414141" offset="0"/>
<stop stop-color="#2B2B2B" offset="1"/>
</linearGradient>
<path id="folder-video-stack-g" d="m0 0.25h28v14.5c0 1.933-1.567 3.5-3.5 3.5h-21c-1.933 0-3.5-1.567-3.5-3.5v-14.5z"/>
<filter id="folder-video-stack-h" x="-1.8%" y="-2.8%" width="103.6%" height="105.6%">
<feOffset dy="1" in="SourceAlpha" result="shadowOffsetInner1"/>
<feComposite in="shadowOffsetInner1" in2="SourceAlpha" k2="-1" k3="1" operator="arithmetic" result="shadowInnerInner1"/>
<feColorMatrix in="shadowInnerInner1" values="0 0 0 0 1   0 0 0 0 1   0 0 0 0 1  0 0 0 0.1 0"/>
</filter>
<linearGradient id="folder-video-stack-i" x1="11.825" x2="13.363" y1="4.6771" y2="12.16" gradientTransform="scale(.93541 1.069)" gradientUnits="userSpaceOnUse">
<stop stop-color="#FFE00B" offset="0"/>
<stop stop-color="#D38700" offset="1"/>
</linearGradient>
<filter id="filter968" x="-.041538" y="-.108" width="1.0831" height="1.216" color-interpolation-filters="sRGB">
<feGaussianBlur stdDeviation="0.45"/>
</filter>
<linearGradient id="folder-32-g" x1="8.6824" x2="8.6824" y1="6.4498" y2="12.349" gradientTransform="matrix(1.6125 0 0 .62017 -40 5)" gradientUnits="userSpaceOnUse">
<stop stop-color="#797979" offset="0"/>
<stop stop-color="#8f6823" offset="1"/>
</linearGradient>
<filter id="folder-32-a" x="-.143" y="-.167" width="1.286" height="1.333">
<feOffset dy="1" in="SourceAlpha" result="shadowOffsetOuter1"/>
<feGaussianBlur in="shadowOffsetOuter1" result="shadowBlurOuter1" stdDeviation=".5"/>
<feComposite in="shadowBlurOuter1" in2="SourceAlpha" operator="out" result="shadowBlurOuter1"/>
<feColorMatrix in="shadowBlurOuter1" result="shadowMatrixOuter1" values="0 0 0 0 0   0 0 0 0 0   0 0 0 0 0  0 0 0 0.15 0"/>
<feMerge>
<feMergeNode in="shadowMatrixOuter1"/>
<feMergeNode in="SourceGraphic"/>
</feMerge>
</filter>
</defs>
<path d="m17.026 6.6581c-0.23054-0.69161-0.87777-1.1581-1.6068-1.1581h-9.9189c-1.6569 0-3 1.3431-3 3v17c0 1.6569 1.3431 3 3 3h21c1.6569 0 3-1.3431 3-3v-14c0-1.6569-1.3431-3-3-3h-6.9189c-1.1595 0-2.1888-0.74193-2.5555-1.8419z" fill="#262626" fill-rule="evenodd" filter="url(#folder-video-stack-a)" stroke="url(#folder-video-stack-b)"/>
<g transform="translate(42)" fill-rule="evenodd">
<rect x="-39" y="9" width="26" height="10" rx="2.2386" ry="2.2386" fill-opacity=".2" filter="url(#filter968)" style="paint-order:stroke fill markers"/>
<rect x="-39" y="9" width="26" height="10" rx="2.25" ry="2.25" fill="url(#folder-32-g)" filter="url(#folder-32-a)"/>
<path d="m-36.762 9c-1.2402 0-2.2383 0.99809-2.2383 2.2383v1c0-1.2402 0.99809-2.2383 2.2383-2.2383h21.523c1.2402 0 2.2383 0.99809 2.2383 2.2383v-1c0-1.2402-0.99809-2.2383-2.2383-2.2383z" opacity=".5" style="paint-order:stroke fill markers"/>
</g>
<g transform="translate(2,10.75)" fill="none" fill-rule="evenodd" filter="url(#folder-video-stack-a)">
<use width="100%" height="100%" fill="url(#folder-video-stack-f)" xlink:href="#folder-video-stack-g"/>
<use width="100%" height="100%" fill="#000000" filter="url(#folder-video-stack-h)" xlink:href="#folder-video-stack-g"/>
<g transform="translate(2 .25)">
<path transform="translate(0,2)" d="m2 12v2h-2v-2zm0-4v2h-2v-2zm0-4v2h-2v-2zm0-4v2h-2v-2zm22 12v2h-2v-2zm0-4v2h-2v-2zm0-4v2h-2v-2zm0-4v2h-2v-2z" fill="#1b1b1b"/>
<rect x="4" width="16" height="2" fill="#000" fill-opacity=".2"/>
<rect x="4" y="3" width="16" height="12" fill="#000" fill-opacity=".2"/>
<rect x="4" y="16" width="16" height="2" fill="#000" fill-opacity=".2"/>
<polygon points="9 5 16 9 9 13" fill="url(#folder-video-stack-i)"/>
</g>
</g>
</svg>
