<svg width="32" height="32" version="1.1" viewBox="0 0 32 32" xmlns="http://www.w3.org/2000/svg" xmlns:xlink="http://www.w3.org/1999/xlink">
<defs>
<filter id="folder-stack-a" x="-14.3%" y="-16.7%" width="128.6%" height="133.3%">
<feOffset dy="1" in="SourceAlpha" result="shadowOffsetOuter1"/>
<feGaussianBlur in="shadowOffsetOuter1" result="shadowBlurOuter1" stdDeviation=".5"/>
<feComposite in="shadowBlurOuter1" in2="SourceAlpha" operator="out" result="shadowBlurOuter1"/>
<feColorMatrix in="shadowBlurOuter1" result="shadowMatrixOuter1" values="0 0 0 0 0   0 0 0 0 0   0 0 0 0 0  0 0 0 0.15 0"/>
<feMerge>
<feMergeNode in="shadowMatrixOuter1"/>
<feMergeNode in="SourceGraphic"/>
</feMerge>
</filter>
<linearGradient id="folder-stack-c" x1="12.961" x2="12.961" y1="-3.0699e-14" y2="12.961" gradientTransform="scale(1.0801 .92582)" gradientUnits="userSpaceOnUse">
<stop stop-color="#008084" offset="0"/>
<stop stop-color="#02C3FF" offset="1"/>
</linearGradient>
<path id="folder-stack-b" d="m15.5 1.5c0.2986 0.89579 1.1369 1.5 2.0811 1.5h6.9189c1.933 0 3.5 1.567 3.5 3.5v14c0 1.933-1.567 3.5-3.5 3.5h-21c-1.933 0-3.5-1.567-3.5-3.5v-17c-2.3672e-16 -1.933 1.567-3.5 3.5-3.5h9.9189c0.94424 7.6425e-16 1.7825 0.60421 2.0811 1.5z"/>
<radialGradient id="folder-stack-i" cx="11.225" cy=".3118" r="20.763" gradientTransform="matrix(1.2472 0 0 .80178 2 10.75)" gradientUnits="userSpaceOnUse">
<stop stop-color="#25D8C1" offset="0"/>
<stop stop-color="#008FA5" offset="1"/>
</radialGradient>
<radialGradient id="folder-stack-j" r="56.897%" gradientTransform="matrix(0 .87879 -1 0 1 .06)">
<stop stop-color="#FFF" stop-opacity=".217" offset="0"/>
<stop stop-color="#E9E9E9" stop-opacity=".745" offset="1"/>
</radialGradient>
<linearGradient id="folder-stack-k" x1="22.112" x2="22.112" y1="2.102" y2="5.6527" gradientTransform="matrix(.36878 0 0 2.7116 8 13)" gradientUnits="userSpaceOnUse">
<stop stop-color="#FFF" stop-opacity=".418" offset="0"/>
<stop stop-color="#FFF" stop-opacity=".329" offset="1"/>
</linearGradient>
<linearGradient id="folder-stack-l" x1="28.436" x2="28.436" y1="4.5663" y2="7.458" gradientTransform="matrix(.51871 0 0 1.9279 8 13)" gradientUnits="userSpaceOnUse">
<stop stop-color="#FFF" stop-opacity=".418" offset="0"/>
<stop stop-color="#FFF" stop-opacity=".329" offset="1"/>
</linearGradient>
<linearGradient id="folder-stack-m" x1="4.3807" x2="4.3807" y1="7.2992" y2="10.668" gradientTransform="scale(.74196 1.3478)" gradientUnits="userSpaceOnUse">
<stop stop-color="#FFF" stop-opacity=".418" offset="0"/>
<stop stop-color="#FFF" stop-opacity=".329" offset="1"/>
</linearGradient>
<radialGradient id="radialGradient920" cx="2.9963" cy="6.5459" r="3.0347" gradientTransform="matrix(.93744 0 0 1.0667 8 13)" gradientUnits="userSpaceOnUse" xlink:href="#folder-stack-j"/>
<radialGradient id="radialGradient922" cx="9.8373" cy="5.0279" r="5.7215" gradientTransform="matrix(1.1436 0 0 .87442 8 13)" gradientUnits="userSpaceOnUse" xlink:href="#folder-stack-j"/>
<filter id="filter968" x="-.041538" y="-.108" width="1.0831" height="1.216" color-interpolation-filters="sRGB">
<feGaussianBlur stdDeviation="0.45"/>
</filter>
<linearGradient id="folder-32-g" x1="8.6824" x2="8.6824" y1="6.4498" y2="8.3519" gradientTransform="matrix(1.6125 0 0 .62017 -18 5)" gradientUnits="userSpaceOnUse">
<stop stop-color="#FFF" offset="0"/>
<stop stop-color="#CEF5FF" offset="1"/>
</linearGradient>
<filter id="folder-32-a" x="-.143" y="-.167" width="1.286" height="1.333">
<feOffset dy="1" in="SourceAlpha" result="shadowOffsetOuter1"/>
<feGaussianBlur in="shadowOffsetOuter1" result="shadowBlurOuter1" stdDeviation=".5"/>
<feComposite in="shadowBlurOuter1" in2="SourceAlpha" operator="out" result="shadowBlurOuter1"/>
<feColorMatrix in="shadowBlurOuter1" result="shadowMatrixOuter1" values="0 0 0 0 0   0 0 0 0 0   0 0 0 0 0  0 0 0 0.15 0"/>
<feMerge>
<feMergeNode in="shadowMatrixOuter1"/>
<feMergeNode in="SourceGraphic"/>
</feMerge>
</filter>
</defs>
<use transform="translate(2,5)" width="100%" height="100%" fill="url(#folder-stack-c)" fill-rule="evenodd" filter="url(#folder-stack-a)" xlink:href="#folder-stack-b"/>
<g transform="translate(20)" fill-rule="evenodd">
<rect x="-17" y="9" width="26" height="10" rx="2.2386" ry="2.2386" fill-opacity=".2" filter="url(#filter968)" style="paint-order:stroke fill markers"/>
<rect x="-17" y="9" width="26" height="10" rx="2.25" ry="2.25" fill="url(#folder-32-g)" filter="url(#folder-32-a)"/>
<path d="m-14.762 9c-1.2402 0-2.2383 0.99809-2.2383 2.2383v1c0-1.2402 0.99809-2.2383 2.2383-2.2383h21.523c1.2402 0 2.2383 0.99809 2.2383 2.2383v-1c0-1.2402-0.99809-2.2383-2.2383-2.2383z" opacity=".5" style="paint-order:stroke fill markers"/>
</g>
<path d="m2 11h28v14.5c0 1.933-1.567 3.5-3.5 3.5h-21c-1.933 0-3.5-1.567-3.5-3.5z" fill="url(#folder-stack-i)" fill-rule="evenodd" filter="url(#folder-stack-a)"/>
<path d="m10.809 22.328c0.99483 0 2-1.3271 2-2.6034 0-1.1559-0.89929-2.0862-2-2.0862-1.1007 0-2 0.9303-2 2.0862 0 1.2763 1.0052 2.6034 2 2.6034z" fill="url(#radialGradient920)" fill-rule="evenodd" filter="url(#folder-stack-a)" stroke="#fff" stroke-opacity=".2"/>
<circle cx="10" cy="19.207" r="1" fill="#fff" fill-rule="evenodd" filter="url(#folder-stack-a)"/>
<circle cx="15.5" cy="15.069" r="1" fill="#fff" fill-rule="evenodd" filter="url(#folder-stack-a)"/>
<circle cx="21.5" cy="18.172" r="1" fill="#fff" fill-rule="evenodd" filter="url(#folder-stack-a)"/>
<path d="m16 18.19c0.99483 0 2-1.3271 2-2.6034 0-1.1559-0.8993-2.0862-2-2.0862s-2 0.9303-2 2.0862c0 1.2763 1.0052 2.6034 2 2.6034zm6.5 3.1034c0.99483 0 2-1.3271 2-2.6034 0-1.1559-0.8993-2.0862-2-2.0862s-2 0.9303-2 2.0862c0 1.2763 1.0052 2.6034 2 2.6034z" fill="url(#radialGradient922)" fill-rule="evenodd" filter="url(#folder-stack-a)" stroke="#fff" stroke-opacity=".2"/>
<path d="m16 19.207c0 4.0639 0.12554 6.1895 0.3088 8.614" fill="none" filter="url(#folder-stack-a)" stroke="url(#folder-stack-k)" stroke-linecap="round"/>
<path d="m23 22.31c0 3.0322-0.53064 2.7515-0.49861 4.5605" fill="none" filter="url(#folder-stack-a)" stroke="url(#folder-stack-l)" stroke-linecap="round"/>
<path transform="matrix(-1,0,0,1,14.5,13)" d="m4 10.345c0 2.3444-1.5919 2.1274-1.4958 3.526" fill="none" filter="url(#folder-stack-a)" stroke="url(#folder-stack-m)" stroke-linecap="round"/>
</svg>
