<svg width="32" height="32" enable-background="new" version="1.1" viewBox="0 0 32 32" xmlns="http://www.w3.org/2000/svg" xmlns:xlink="http://www.w3.org/1999/xlink">
<defs>
<linearGradient id="linearGradient952" x1="7.5" x2="7.522" y1="12.5" y2="24.442" gradientTransform="matrix(.88889 0 0 .88889 9.3333 3.2222)" gradientUnits="userSpaceOnUse">
<stop stop-color="#FFF" offset="0"/>
<stop stop-color="#FFF" stop-opacity=".6" offset="1"/>
</linearGradient>
<filter id="filter1578" x="-.1162" y="-.08715" width="1.2324" height="1.1743" color-interpolation-filters="sRGB">
<feGaussianBlur stdDeviation="0.38733334"/>
<feBlend in2="BackgroundImage" mode="overlay"/>
</filter>
<linearGradient id="linearGradient874" x1="12.961" x2="12.961" y1="-3.0699e-14" y2="9.8424" gradientTransform="matrix(1.0801 0 0 .92582 2 5)" gradientUnits="userSpaceOnUse">
<stop stop-color="#9c3" offset="0"/>
<stop stop-color="#28851e" offset="1"/>
</linearGradient>
<filter id="folder-32-a" x="-.143" y="-.167" width="1.286" height="1.333">
<feOffset dy="1" in="SourceAlpha" result="shadowOffsetOuter1"/>
<feGaussianBlur in="shadowOffsetOuter1" result="shadowBlurOuter1" stdDeviation=".5"/>
<feComposite in="shadowBlurOuter1" in2="SourceAlpha" operator="out" result="shadowBlurOuter1"/>
<feColorMatrix in="shadowBlurOuter1" result="shadowMatrixOuter1" values="0 0 0 0 0   0 0 0 0 0   0 0 0 0 0  0 0 0 0.15 0"/>
<feMerge>
<feMergeNode in="shadowMatrixOuter1"/>
<feMergeNode in="SourceGraphic"/>
</feMerge>
</filter>
<filter id="filter968" x="-.041538" y="-.108" width="1.0831" height="1.216" color-interpolation-filters="sRGB">
<feGaussianBlur stdDeviation="0.45"/>
</filter>
<radialGradient id="radialGradient883" cx="11.225" cy=".3118" r="26.404" gradientTransform="matrix(1.2472 0 0 .80178 2 10.75)" gradientUnits="userSpaceOnUse">
<stop stop-color="#ccff42" offset="0"/>
<stop stop-color="#50a100" offset="1"/>
</radialGradient>
<linearGradient id="linearGradient988" x1="8.6824" x2="8.6824" y1="6.4498" y2="8.3519" gradientTransform="matrix(1.6125 0 0 .62017 2 5)" gradientUnits="userSpaceOnUse">
<stop stop-color="#FFF" offset="0"/>
<stop stop-color="#CEF5FF" offset="1"/>
</linearGradient>
</defs>
<g fill-rule="evenodd">
<path d="m17.5 6.5c0.2986 0.89579 1.1369 1.5 2.0811 1.5h6.9189c1.933 0 3.5 1.567 3.5 3.5v14c0 1.933-1.567 3.5-3.5 3.5h-21c-1.933 0-3.5-1.567-3.5-3.5v-17c0-1.933 1.567-3.5 3.5-3.5h9.9189c0.94424 0 1.7825 0.60421 2.0811 1.5z" fill="url(#linearGradient874)" filter="url(#folder-32-a)"/>
<rect x="3" y="9" width="26" height="10" rx="2.2386" ry="2.2386" fill-opacity=".2" filter="url(#filter968)" style="paint-order:stroke fill markers"/>
<rect x="3" y="9" width="26" height="10" rx="2.25" ry="2.25" fill="url(#linearGradient988)" filter="url(#folder-32-a)"/>
<path d="M 5.2383,9 C 3.9981,9 3,9.99809 3,11.2383 v 1 C 3,10.9981 3.99809,10 5.2383,10 h 21.523 c 1.2402,0 2.2383,0.99809 2.2383,2.2383 v -1 C 28.9996,9.9981 28.00151,9 26.7613,9 Z" opacity=".5" style="paint-order:stroke fill markers"/>
<path d="m2 11h28v14.5c0 1.933-1.567 3.5-3.5 3.5h-21c-1.933 0-3.5-1.567-3.5-3.5z" fill="url(#radialGradient883)" filter="url(#folder-32-a)"/>
</g>
<path d="m16 14.333c1.4728 0 2.6667 1.1939 2.6667 2.6667v1.3333c0.73637 0 1.3333 0.59696 1.3333 1.3333v4c0 0.73637-0.59696 1.3333-1.3333 1.3333h-5.3333c-0.73637 0-1.3333-0.59696-1.3333-1.3333v-4c0-0.73637 0.59696-1.3333 1.3333-1.3333v-1.3333c0-1.4728 1.1939-2.6667 2.6667-2.6667zm0 1.3333c-0.73637 0-1.3333 0.59696-1.3333 1.3333v1.3333h2.6667v-1.3333c0-0.73637-0.59696-1.3333-1.3333-1.3333z" fill-rule="evenodd" filter="url(#filter1578)"/>
<path d="m16 14.333c1.4728 0 2.6667 1.1939 2.6667 2.6667v1.3333c0.73637 0 1.3333 0.59696 1.3333 1.3333v4c0 0.73637-0.59696 1.3333-1.3333 1.3333h-5.3333c-0.73637 0-1.3333-0.59696-1.3333-1.3333v-4c0-0.73637 0.59696-1.3333 1.3333-1.3333v-1.3333c0-1.4728 1.1939-2.6667 2.6667-2.6667zm0 1.3333c-0.73637 0-1.3333 0.59696-1.3333 1.3333v1.3333h2.6667v-1.3333c0-0.73637-0.59696-1.3333-1.3333-1.3333z" fill="url(#linearGradient952)" fill-rule="evenodd"/>
</svg>
