<svg width="32" height="32" version="1.1" viewBox="0 0 32 32" xmlns="http://www.w3.org/2000/svg" xmlns:xlink="http://www.w3.org/1999/xlink">
 <defs>
  <filter id="folder-32-a" x="-14.3%" y="-16.7%" width="128.6%" height="133.3%">
   <feOffset dy="1" in="SourceAlpha" result="shadowOffsetOuter1"/>
   <feGaussianBlur in="shadowOffsetOuter1" result="shadowBlurOuter1" stdDeviation=".5"/>
   <feComposite in="shadowBlurOuter1" in2="SourceAlpha" operator="out" result="shadowBlurOuter1"/>
   <feColorMatrix in="shadowBlurOuter1" result="shadowMatrixOuter1" values="0 0 0 0 0   0 0 0 0 0   0 0 0 0 0  0 0 0 0.15 0"/>
   <feMerge>
    <feMergeNode in="shadowMatrixOuter1"/>
    <feMergeNode in="SourceGraphic"/>
   </feMerge>
  </filter>
  <linearGradient id="folder-32-c" x1="12.961" x2="12.961" y1="-3.0699e-14" y2="9.8424" gradientTransform="scale(1.0801 .92582)" gradientUnits="userSpaceOnUse">
   <stop stop-color="#ba5638" offset="0"/>
   <stop stop-color="#870b3d" offset="1"/>
  </linearGradient>
  <path id="folder-32-b" d="m15.5 1.5c0.2986 0.89579 1.1369 1.5 2.0811 1.5h6.9189c1.933 0 3.5 1.567 3.5 3.5v14c0 1.933-1.567 3.5-3.5 3.5h-21c-1.933 0-3.5-1.567-3.5-3.5v-17c-2.3672e-16 -1.933 1.567-3.5 3.5-3.5l9.9189 1.7764e-15c0.94424-1.0121e-15 1.7825 0.60421 2.0811 1.5z"/>
  <rect id="folder-32-f" x="1" y="4" width="26" height="10" rx="2.25"/>
  <radialGradient id="radialGradient883" cx="11.225" cy=".3118" r="26.404" gradientTransform="matrix(1.2472 0 0 .80178 2 10.75)" gradientUnits="userSpaceOnUse">
   <stop stop-color="#ff774d" offset="0"/>
   <stop stop-color="#ba0e55" offset="1"/>
  </radialGradient>
  <filter id="filter968" x="-.041538" y="-.108" width="1.0831" height="1.216" color-interpolation-filters="sRGB">
   <feGaussianBlur stdDeviation="0.45"/>
  </filter>
  <linearGradient id="folder-32-g-3" x1="8.6824" x2="8.6824" y1="6.4498" y2="8.3519" gradientTransform="scale(1.6125 .62017)" gradientUnits="userSpaceOnUse">
   <stop stop-color="#FFF" offset="0"/>
   <stop stop-color="#fff8a3" offset="1"/>
  </linearGradient>
  <filter id="folder-32-a-6" x="-.143" y="-.167" width="1.286" height="1.333">
   <feOffset dy="1" in="SourceAlpha" result="shadowOffsetOuter1"/>
   <feGaussianBlur in="shadowOffsetOuter1" result="shadowBlurOuter1" stdDeviation=".5"/>
   <feComposite in="shadowBlurOuter1" in2="SourceAlpha" operator="out" result="shadowBlurOuter1"/>
   <feColorMatrix in="shadowBlurOuter1" result="shadowMatrixOuter1" values="0 0 0 0 0   0 0 0 0 0   0 0 0 0 0  0 0 0 0.15 0"/>
   <feMerge>
    <feMergeNode in="shadowMatrixOuter1"/>
    <feMergeNode in="SourceGraphic"/>
   </feMerge>
  </filter>
 </defs>
 <use transform="translate(2,5)" width="100%" height="100%" fill="url(#folder-32-c)" fill-rule="evenodd" filter="url(#folder-32-a)" xlink:href="#folder-32-b"/>
 <rect x="3" y="9" width="26" height="10" rx="2.2386" ry="2.2386" fill-opacity=".2" fill-rule="evenodd" filter="url(#filter968)" style="paint-order:stroke fill markers"/>
 <use transform="translate(2,5)" width="100%" height="100%" fill="url(#folder-32-g-3)" fill-rule="evenodd" filter="url(#folder-32-a-6)" xlink:href="#folder-32-f"/>
 <path d="M 5.2383,9 C 3.9981,9 3,9.99809 3,11.2383 v 1 C 3,10.9981 3.99809,10 5.2383,10 h 21.523 c 1.2402,0 2.2383,0.99809 2.2383,2.2383 v -1 C 28.9996,9.9981 28.00151,9 26.7613,9 Z" fill-rule="evenodd" opacity=".5" style="paint-order:stroke fill markers"/>
 <path d="m2 11h28v14.5c0 1.933-1.567 3.5-3.5 3.5h-21c-1.933 0-3.5-1.567-3.5-3.5z" fill="url(#radialGradient883)" fill-rule="evenodd" filter="url(#folder-32-a)"/>
</svg>
