<svg width="32" height="32" version="1.1" viewBox="0 0 32 32" xmlns="http://www.w3.org/2000/svg" xmlns:xlink="http://www.w3.org/1999/xlink">
<defs>
<linearGradient id="linearGradient874" x1="12.961" x2="12.961" y1="-3.0699e-14" y2="9.8424" gradientTransform="matrix(1.0801 0 0 .92582 2 5)" gradientUnits="userSpaceOnUse">
<stop stop-color="#9c3" offset="0"/>
<stop stop-color="#28851e" offset="1"/>
</linearGradient>
<filter id="folder-32-a" x="-.143" y="-.167" width="1.286" height="1.333">
<feOffset dy="1" in="SourceAlpha" result="shadowOffsetOuter1"/>
<feGaussianBlur in="shadowOffsetOuter1" result="shadowBlurOuter1" stdDeviation=".5"/>
<feComposite in="shadowBlurOuter1" in2="SourceAlpha" operator="out" result="shadowBlurOuter1"/>
<feColorMatrix in="shadowBlurOuter1" result="shadowMatrixOuter1" values="0 0 0 0 0   0 0 0 0 0   0 0 0 0 0  0 0 0 0.15 0"/>
<feMerge>
<feMergeNode in="shadowMatrixOuter1"/>
<feMergeNode in="SourceGraphic"/>
</feMerge>
</filter>
<filter id="filter968" x="-.041538" y="-.108" width="1.0831" height="1.216" color-interpolation-filters="sRGB">
<feGaussianBlur stdDeviation="0.45"/>
</filter>
<linearGradient id="linearGradient967" x1="8.6824" x2="8.6824" y1="6.4498" y2="8.3519" gradientTransform="matrix(1.6125 0 0 .62017 -18 5)" gradientUnits="userSpaceOnUse">
<stop stop-color="#FFF" offset="0"/>
<stop stop-color="#CEF5FF" offset="1"/>
</linearGradient>
<filter id="folder-32-a-3" x="-.143" y="-.167" width="1.286" height="1.333">
<feOffset dy="1" in="SourceAlpha" result="shadowOffsetOuter1"/>
<feGaussianBlur in="shadowOffsetOuter1" result="shadowBlurOuter1" stdDeviation=".5"/>
<feComposite in="shadowBlurOuter1" in2="SourceAlpha" operator="out" result="shadowBlurOuter1"/>
<feColorMatrix in="shadowBlurOuter1" result="shadowMatrixOuter1" values="0 0 0 0 0   0 0 0 0 0   0 0 0 0 0  0 0 0 0.15 0"/>
<feMerge>
<feMergeNode in="shadowMatrixOuter1"/>
<feMergeNode in="SourceGraphic"/>
</feMerge>
</filter>
<radialGradient id="radialGradient883" cx="9.5394" cy=".3669" r="22.534" gradientTransform="matrix(1.4676 0 0 .68139 2 15.75)" gradientUnits="userSpaceOnUse">
<stop stop-color="#ccff42" offset="0"/>
<stop stop-color="#50a100" offset="1"/>
</radialGradient>
<filter id="folder-open-a" x="-.143" y="-.167" width="1.286" height="1.333">
<feOffset dy="1" in="SourceAlpha" result="shadowOffsetOuter1"/>
<feGaussianBlur in="shadowOffsetOuter1" result="shadowBlurOuter1" stdDeviation=".5"/>
<feComposite in="shadowBlurOuter1" in2="SourceAlpha" operator="out" result="shadowBlurOuter1"/>
<feColorMatrix in="shadowBlurOuter1" result="shadowMatrixOuter1" values="0 0 0 0 0   0 0 0 0 0   0 0 0 0 0  0 0 0 0.15 0"/>
<feMerge>
<feMergeNode in="shadowMatrixOuter1"/>
<feMergeNode in="SourceGraphic"/>
</feMerge>
</filter>
</defs>
<g fill-rule="evenodd">
<path d="m17.5 6.5c0.2986 0.89579 1.1369 1.5 2.0811 1.5h6.9189c1.933 0 3.5 1.567 3.5 3.5v14c0 1.933-1.567 3.5-3.5 3.5h-21c-1.933 0-3.5-1.567-3.5-3.5v-17c0-1.933 1.567-3.5 3.5-3.5h9.9189c0.94424 0 1.7825 0.60421 2.0811 1.5z" fill="url(#linearGradient874)" filter="url(#folder-32-a)"/>
<g transform="translate(20)">
<rect x="-17" y="9" width="26" height="10" rx="2.2386" ry="2.2386" fill-opacity=".2" filter="url(#filter968)" style="paint-order:stroke fill markers"/>
<rect x="-17" y="9" width="26" height="10" rx="2.25" ry="2.25" fill="url(#linearGradient967)" filter="url(#folder-32-a-3)"/>
<path d="m-14.762 9c-1.2402 0-2.2383 0.99809-2.2383 2.2383v1c0-1.2402 0.99809-2.2383 2.2383-2.2383h21.523c1.2402 0 2.2383 0.99809 2.2383 2.2383v-1c0-1.2402-0.99809-2.2383-2.2383-2.2383z" opacity=".5" style="paint-order:stroke fill markers"/>
</g>
<path d="m2 16h28v9.5c0 1.933-1.567 3.5-3.5 3.5h-21c-1.933 0-3.5-1.567-3.5-3.5z" fill="url(#radialGradient883)" filter="url(#folder-open-a)"/>
</g>
<path d="m16 20.5c3.0376 0 5.5-0.89543 5.5-2 0-1.1046-2.4624-2-5.5-2s-5.5 0.89543-5.5 2c0 1.1046 2.4624 2 5.5 2z" fill="none" stroke="#fff" stroke-linecap="round" stroke-linejoin="round"/>
<path d="m17.826 19.499c1.6487-2.7052 2.1676-5.3454 1.159-5.897-1.0086-0.55163-3.1627 1.1942-4.8114 3.8994-1.6487 2.7052-2.1676 5.3454-1.159 5.897 1.0086 0.55163 3.1627-1.1942 4.8114-3.8994z" fill="none" stroke="#fff" stroke-linecap="round" stroke-linejoin="round"/>
<path d="m17.826 17.501c1.6487 2.7052 2.1676 5.3454 1.159 5.897-1.0086 0.55163-3.1627-1.1942-4.8114-3.8994-1.6487-2.7052-2.1676-5.3454-1.159-5.897 1.0086-0.55163 3.1627 1.1942 4.8114 3.8994z" fill="none" stroke="#fff" stroke-linecap="round" stroke-linejoin="round"/>
</svg>
