<svg width="256" height="256" version="1.1" viewBox="0 0 256 256" xmlns="http://www.w3.org/2000/svg" xmlns:xlink="http://www.w3.org/1999/xlink">
<defs>
<filter id="folder-bookmark-256px-a" x="-12.2%" y="-14.1%" width="124.3%" height="128.1%">
<feOffset dy="4" in="SourceAlpha" result="shadowOffsetOuter1"/>
<feGaussianBlur in="shadowOffsetOuter1" result="shadowBlurOuter1" stdDeviation="5"/>
<feComposite in="shadowBlurOuter1" in2="SourceAlpha" operator="out" result="shadowBlurOuter1"/>
<feColorMatrix in="shadowBlurOuter1" result="shadowMatrixOuter1" values="0 0 0 0 0   0 0 0 0 0   0 0 0 0 0  0 0 0 0.2 0"/>
<feMerge>
<feMergeNode in="shadowMatrixOuter1"/>
<feMergeNode in="SourceGraphic"/>
</feMerge>
</filter>
<linearGradient id="folder-bookmark-256px-b" x1="103.23" x2="103.23" y1="-3.0562e-14" y2="78.387" gradientTransform="matrix(1.0753 0 0 .92998 17 45)" gradientUnits="userSpaceOnUse">
<stop stop-color="#00B8FF" offset="0"/>
<stop stop-color="#2E5DFF" offset="1"/>
</linearGradient>
<radialGradient id="folder-bookmark-256px-g" cx="90.017" cy="0" r="211.7" gradientTransform="matrix(1.2331 0 0 .81096 17 91)" gradientUnits="userSpaceOnUse">
<stop stop-color="#48D5FF" offset="0"/>
<stop stop-color="#0083F6" offset="1"/>
</radialGradient>
<path id="folder-bookmark-256px-i" d="m0 17h48v100l-14.122-12.357c-5.6554-4.9485-14.1-4.9485-19.755 0l-14.122 12.357v-100z"/>
<filter id="folder-bookmark-256px-h" x="-27.1%" y="-11%" width="154.2%" height="126%">
<feOffset dy="2" in="SourceAlpha" result="shadowOffsetOuter1"/>
<feGaussianBlur in="shadowOffsetOuter1" result="shadowBlurOuter1" stdDeviation="4"/>
<feColorMatrix in="shadowBlurOuter1" values="0 0 0 0 0   0 0 0 0 0.42745098   0 0 0 0 0.968627451  0 0 0 0.5 0"/>
</filter>
<linearGradient id="linearGradient919" x1="36.085" x2="36.085" y1="15.178" y2="81.06" gradientTransform="scale(.69282 1.4434)" gradientUnits="userSpaceOnUse">
<stop stop-color="#FFF" offset="0"/>
<stop stop-color="#f22c42" offset="1"/>
</linearGradient>
<filter id="filter934" x="-.042327" y="-.10301" width="1.0847" height="1.206" color-interpolation-filters="sRGB">
<feGaussianBlur stdDeviation="3.5625"/>
</filter>
<linearGradient id="linearGradient916" x1="-105" x2="-105" y1="174" y2="187" gradientUnits="userSpaceOnUse">
<stop stop-color="#fff" offset="0"/>
<stop stop-color="#cef5ff" offset="1"/>
</linearGradient>
</defs>
<path d="m141 56.5c3.0361 6.9831 9.9253 11.5 17.54 11.5h52.46c15.464 0 28 12.536 28 28v113c0 15.464-12.536 28-28 28h-166c-15.464 0-28-12.536-28-28v-136c0-15.464 12.536-28 28-28h78.46c7.6146 0 14.504 4.5169 17.54 11.5z" fill="url(#folder-bookmark-256px-b)" fill-rule="evenodd" filter="url(#folder-bookmark-256px-a)"/>
<g transform="translate(238,-96)" fill-rule="evenodd">
<rect x="-211" y="175" width="202" height="83" rx="17.995" ry="17.995" fill-opacity=".2" filter="url(#filter934)" style="paint-order:stroke fill markers"/>
<rect x="-211" y="173" width="202" height="83" rx="17.995" ry="17.995" fill="url(#linearGradient916)" style="paint-order:stroke fill markers"/>
<path d="m-193 173c-9.9694 0-17.996 8.0267-17.996 17.996v2c0-9.9694 8.0267-17.996 17.996-17.996h166.01c9.9694 0 17.996 8.0267 17.996 17.996v-2c0-9.9694-8.0267-17.996-17.996-17.996z" opacity=".5" style="paint-order:stroke fill markers"/>
</g>
<path d="m17 91h222v118c0 15.464-12.536 28-28 28h-166c-15.464 0-28-12.536-28-28z" fill="url(#folder-bookmark-256px-g)" fill-rule="evenodd" filter="url(#folder-bookmark-256px-a)"/>
<polygon transform="translate(58,74)" points="48 19 48 119 24 98 0 119 0 19" fill="#32a2fb" fill-opacity=".5" fill-rule="evenodd"/>
<use transform="translate(58,74)" width="100%" height="100%" fill="#000000" fill-rule="evenodd" filter="url(#folder-bookmark-256px-h)" xlink:href="#folder-bookmark-256px-i"/>
<rect x="58" y="74" width="48" height="2" fill="#32a2fb" fill-opacity=".5" fill-rule="evenodd"/>
<use transform="translate(58,74)" width="100%" height="100%" fill="url(#linearGradient919)" fill-rule="evenodd" xlink:href="#folder-bookmark-256px-i"/>
</svg>
