<svg width="256" height="256" version="1.1" viewBox="0 0 256 256" xmlns="http://www.w3.org/2000/svg">
<defs>
<filter id="folder-home-256px-a" x="-12.2%" y="-14.1%" width="124.3%" height="128.1%">
<feOffset dy="4" in="SourceAlpha" result="shadowOffsetOuter1"/>
<feGaussianBlur in="shadowOffsetOuter1" result="shadowBlurOuter1" stdDeviation="5"/>
<feComposite in="shadowBlurOuter1" in2="SourceAlpha" operator="out" result="shadowBlurOuter1"/>
<feColorMatrix in="shadowBlurOuter1" result="shadowMatrixOuter1" values="0 0 0 0 0   0 0 0 0 0   0 0 0 0 0  0 0 0 0.2 0"/>
<feMerge>
<feMergeNode in="shadowMatrixOuter1"/>
<feMergeNode in="SourceGraphic"/>
</feMerge>
</filter>
<linearGradient id="folder-home-256px-b" x1="103.23" x2="103.23" y1="-3.0562e-14" y2="78.387" gradientTransform="matrix(1.0753 0 0 .92998 17 45)" gradientUnits="userSpaceOnUse">
<stop stop-color="#ba5638" offset="0"/>
<stop stop-color="#870b3d" offset="1"/>
</linearGradient>
<radialGradient id="folder-home-256px-g" cx="90.017" cy="0" r="211.7" gradientTransform="matrix(1.2331 0 0 .81096 17 91)" gradientUnits="userSpaceOnUse">
<stop stop-color="#ff774d" offset="0"/>
<stop stop-color="#ba0e55" offset="1"/>
</radialGradient>
<linearGradient id="linearGradient933" x1="32" x2="32" y1="30" y2="51" gradientTransform="matrix(3.8749,0,0,3.8749,3.8931,5.1272)" gradientUnits="userSpaceOnUse">
<stop stop-color="#FFF" offset="0"/>
<stop stop-color="#FFF" stop-opacity=".6" offset="1"/>
</linearGradient>
<filter id="filter987" x="-.1246" y="-.09345" width="1.2492" height="1.1869" color-interpolation-filters="sRGB">
<feGaussianBlur stdDeviation="3.2188189"/>
</filter>
<filter id="filter934" x="-.042327" y="-.10301" width="1.0847" height="1.206" color-interpolation-filters="sRGB">
<feGaussianBlur stdDeviation="3.5625"/>
</filter>
<linearGradient id="linearGradient916" x1="-105" x2="-105" y1="174" y2="187" gradientTransform="translate(238,-96)" gradientUnits="userSpaceOnUse">
<stop stop-color="#fff" offset="0"/>
<stop stop-color="#fff8a3" offset="1"/>
</linearGradient>
</defs>
<path d="m141 56.5c3.0361 6.9831 9.9253 11.5 17.54 11.5h52.46c15.464 0 28 12.536 28 28v113c0 15.464-12.536 28-28 28h-166c-15.464 0-28-12.536-28-28v-136c0-15.464 12.536-28 28-28h78.46c7.6146 0 14.504 4.5169 17.54 11.5z" fill="url(#folder-home-256px-b)" fill-rule="evenodd" filter="url(#folder-home-256px-a)"/>
<rect x="27" y="79" width="202" height="83" rx="17.995" ry="17.995" fill-opacity=".2" fill-rule="evenodd" filter="url(#filter934)" style="paint-order:stroke fill markers"/>
<rect x="27" y="77" width="202" height="83" rx="17.995" ry="17.995" fill="url(#linearGradient916)" fill-rule="evenodd" style="paint-order:stroke fill markers"/>
<path d="m45 77c-9.9694 0-17.996 8.0267-17.996 17.996v2c0-9.9694 8.0267-17.996 17.996-17.996h166.01c9.9694 0 17.996 8.0267 17.996 17.996v-2c0-9.9694-8.0267-17.996-17.996-17.996z" fill-rule="evenodd" opacity=".5" style="paint-order:stroke fill markers"/>
<path d="m17 91h222v118c0 15.464-12.536 28-28 28h-166c-15.464 0-28-12.536-28-28z" fill="url(#folder-home-256px-g)" fill-rule="evenodd" filter="url(#folder-home-256px-a)"/>
<path d="m127.89 122.59c-11.343 0-20.546 9.1391-20.66 20.455h10.338c0.11445-5.6072 4.6882-10.12 10.322-10.121h2e-3c5.706 1e-3 10.332 4.6279 10.332 10.334v10.332h-20.666v-0.0312h-10.334v0.0312c-5.707 0-10.334 4.6272-10.334 10.334v30.998c0 5.7072 4.6274 10.334 10.334 10.334h41.334c5.7068 0 10.332-4.6272 10.332-10.334v-30.998c0-5.7072-4.6255-10.334-10.332-10.334v-10.334c0-11.413-9.2523-20.666-20.666-20.666z" fill-opacity=".49412" fill-rule="evenodd" filter="url(#filter987)"/>
<path d="m127.89 122.59c-11.343 0-20.546 9.1391-20.66 20.455h10.338c0.11445-5.6072 4.6882-10.12 10.322-10.121h2e-3c5.706 1e-3 10.332 4.6279 10.332 10.334v10.332h-20.666v-0.0312h-10.334v0.0312c-5.707 0-10.334 4.6272-10.334 10.334v30.998c0 5.7072 4.6274 10.334 10.334 10.334h41.334c5.7068 0 10.332-4.6272 10.332-10.334v-30.998c0-5.7072-4.6255-10.334-10.332-10.334v-10.334c0-11.413-9.2523-20.666-20.666-20.666z" fill="url(#linearGradient933)" fill-rule="evenodd"/>
</svg>
