<svg width="256" height="256" version="1.1" viewBox="0 0 256 256" xmlns="http://www.w3.org/2000/svg" xmlns:xlink="http://www.w3.org/1999/xlink">
<defs>
<filter id="folder-videos-256px-a" x="-12.2%" y="-14.1%" width="124.3%" height="128.1%">
<feOffset dy="4" in="SourceAlpha" result="shadowOffsetOuter1"/>
<feGaussianBlur in="shadowOffsetOuter1" result="shadowBlurOuter1" stdDeviation="5"/>
<feComposite in="shadowBlurOuter1" in2="SourceAlpha" operator="out" result="shadowBlurOuter1"/>
<feColorMatrix in="shadowBlurOuter1" result="shadowMatrixOuter1" values="0 0 0 0 0   0 0 0 0 0   0 0 0 0 0  0 0 0 0.2 0"/>
<feMerge>
<feMergeNode in="shadowMatrixOuter1"/>
<feMergeNode in="SourceGraphic"/>
</feMerge>
</filter>
<linearGradient id="folder-videos-256px-b" x1="103.23" x2="103.23" y1="-3.0562e-14" y2="78.387" gradientTransform="matrix(1.0753 0 0 .92998 17 45)" gradientUnits="userSpaceOnUse">
<stop stop-color="#ba5638" offset="0"/>
<stop stop-color="#870b3d" offset="1"/>
</linearGradient>
<linearGradient id="folder-videos-256px-j" x1="43" x2="43" y2="86" gradientUnits="userSpaceOnUse">
<stop stop-color="#FFF" offset="0"/>
<stop stop-color="#FFF" stop-opacity=".6" offset="1"/>
</linearGradient>
<circle id="folder-videos-256px-i" cx="43" cy="43" r="43"/>
<filter id="folder-videos-256px-h" x="-15.1%" y="-12.8%" width="130.2%" height="130.2%">
<feOffset dy="2" in="SourceAlpha" result="shadowOffsetOuter1"/>
<feGaussianBlur in="shadowOffsetOuter1" result="shadowBlurOuter1" stdDeviation="4"/>
<feColorMatrix in="shadowBlurOuter1" values="0 0 0 0 0   0 0 0 0 0.42905776   0 0 0 0 0.968670281  0 0 0 0.5 0"/>
</filter>
<radialGradient id="folder-open-256px-g" cx="72.993" cy="0" r="172.65" gradientTransform="matrix(1.5207 0 0 .6576 17 141)" gradientUnits="userSpaceOnUse">
<stop stop-color="#ff774d" offset="0"/>
<stop stop-color="#ba0e55" offset="1"/>
</radialGradient>
<filter id="folder-open-256px-a" x="-.122" y="-.141" width="1.243" height="1.281">
<feOffset dy="4" in="SourceAlpha" result="shadowOffsetOuter1"/>
<feGaussianBlur in="shadowOffsetOuter1" result="shadowBlurOuter1" stdDeviation="5"/>
<feComposite in="shadowBlurOuter1" in2="SourceAlpha" operator="out" result="shadowBlurOuter1"/>
<feColorMatrix in="shadowBlurOuter1" result="shadowMatrixOuter1" values="0 0 0 0 0   0 0 0 0 0   0 0 0 0 0  0 0 0 0.2 0"/>
<feMerge>
<feMergeNode in="shadowMatrixOuter1"/>
<feMergeNode in="SourceGraphic"/>
</feMerge>
</filter>
<filter id="filter934" x="-.042327" y="-.10301" width="1.0847" height="1.206" color-interpolation-filters="sRGB">
<feGaussianBlur stdDeviation="3.5625"/>
</filter>
<linearGradient id="linearGradient916" x1="-105" x2="-105" y1="174" y2="242" gradientTransform="translate(238,-96)" gradientUnits="userSpaceOnUse">
<stop stop-color="#fff" offset="0"/>
<stop stop-color="#fff8a3" offset="1"/>
</linearGradient>
</defs>
<path d="m141 56.5c3.0361 6.9831 9.9253 11.5 17.54 11.5h52.46c15.464 0 28 12.536 28 28v113c0 15.464-12.536 28-28 28h-166c-15.464 0-28-12.536-28-28v-136c0-15.464 12.536-28 28-28h78.46c7.6146 0 14.504 4.5169 17.54 11.5z" fill="url(#folder-videos-256px-b)" fill-rule="evenodd" filter="url(#folder-videos-256px-a)"/>
<rect x="27" y="79" width="202" height="83" rx="17.995" ry="17.995" fill-opacity=".2" fill-rule="evenodd" filter="url(#filter934)" style="paint-order:stroke fill markers"/>
<rect x="27" y="77" width="202" height="83" rx="17.995" ry="17.995" fill="url(#linearGradient916)" fill-rule="evenodd" style="paint-order:stroke fill markers"/>
<path d="m45 77c-9.9694 0-17.996 8.0267-17.996 17.996v2c0-9.9694 8.0267-17.996 17.996-17.996h166.01c9.9694 0 17.996 8.0267 17.996 17.996v-2c0-9.9694-8.0267-17.996-17.996-17.996z" fill-rule="evenodd" opacity=".5" style="paint-order:stroke fill markers"/>
<path d="m17 141h222v68c0 15.464-12.536 28-28 28h-166c-15.464 0-28-12.536-28-28z" fill="url(#folder-open-256px-g)" fill-rule="evenodd" filter="url(#folder-open-256px-a)"/>
<use transform="translate(85,115)" width="100%" height="100%" fill="#000000" fill-rule="evenodd" filter="url(#folder-videos-256px-h)" xlink:href="#folder-videos-256px-i"/>
<use transform="translate(85,115)" width="100%" height="100%" fill="url(#folder-videos-256px-j)" fill-rule="evenodd" xlink:href="#folder-videos-256px-i"/>
<path d="m119.58 177.11c-3.6354 2.0878-6.5824 0.37633-6.5824-3.8317v-30.562c0-4.204 2.9636-5.9101 6.5824-3.8317l26.697 15.332c3.6354 2.0878 3.6188 5.4823 0 7.5607z" fill="#ff006b" fill-rule="evenodd"/>
<path d="m137 148.89v18.219l-12 6.8917v-32.003zm-24 24.391v-30.562z" fill="#ffb600" fill-rule="evenodd"/>
<path d="m125 142v32.003l-5.4176 3.1114c-3.6354 2.0878-6.5824 0.37633-6.5824-3.8317v-30.562c0-4.204 2.9636-5.9101 6.5824-3.8317z" fill="#1473ff" fill-rule="evenodd"/>
</svg>
