<svg width="256" height="256" version="1.1" viewBox="0 0 256 256" xmlns="http://www.w3.org/2000/svg" xmlns:xlink="http://www.w3.org/1999/xlink">
<defs>
<linearGradient id="folder-videos-256px-j" x1="43" x2="43" y2="86" gradientUnits="userSpaceOnUse">
<stop stop-color="#FFF" offset="0"/>
<stop stop-color="#FFF" stop-opacity=".6" offset="1"/>
</linearGradient>
<circle id="folder-videos-256px-i" cx="43" cy="43" r="43"/>
<filter id="folder-videos-256px-h" x="-15.1%" y="-12.8%" width="130.2%" height="130.2%">
<feOffset dy="2" in="SourceAlpha" result="shadowOffsetOuter1"/>
<feGaussianBlur in="shadowOffsetOuter1" result="shadowBlurOuter1" stdDeviation="4"/>
<feColorMatrix in="shadowBlurOuter1" values="0 0 0 0 0   0 0 0 0 0.42905776   0 0 0 0 0.968670281  0 0 0 0.5 0"/>
</filter>
<linearGradient id="linearGradient884" x1="103.23" x2="103.23" y1="-3.0562e-14" y2="78.387" gradientTransform="matrix(1.0753 0 0 .92998 19 45)" gradientUnits="userSpaceOnUse">
<stop stop-color="#9c3" offset="0"/>
<stop stop-color="#28851e" offset="1"/>
</linearGradient>
<filter id="folder-open-256px-a-7" x="-.122" y="-.141" width="1.243" height="1.281">
<feOffset dy="4" in="SourceAlpha" result="shadowOffsetOuter1"/>
<feGaussianBlur in="shadowOffsetOuter1" result="shadowBlurOuter1" stdDeviation="5"/>
<feComposite in="shadowBlurOuter1" in2="SourceAlpha" operator="out" result="shadowBlurOuter1"/>
<feColorMatrix in="shadowBlurOuter1" result="shadowMatrixOuter1" values="0 0 0 0 0   0 0 0 0 0   0 0 0 0 0  0 0 0 0.2 0"/>
<feMerge>
<feMergeNode in="shadowMatrixOuter1"/>
<feMergeNode in="SourceGraphic"/>
</feMerge>
</filter>
<filter id="filter934" x="-.042327" y="-.10301" width="1.0847" height="1.206" color-interpolation-filters="sRGB">
<feGaussianBlur stdDeviation="3.5625"/>
</filter>
<linearGradient id="linearGradient916" x1="-105" x2="-105" y1="174" y2="242" gradientTransform="translate(-96,-96)" gradientUnits="userSpaceOnUse">
<stop stop-color="#fff" offset="0"/>
<stop stop-color="#cef5ff" offset="1"/>
</linearGradient>
<radialGradient id="radialGradient888" cx="72.993" cy="0" r="172.65" gradientTransform="matrix(1.5207 0 0 .6576 19 141)" gradientUnits="userSpaceOnUse">
<stop stop-color="#ccff42" offset="0"/>
<stop stop-color="#50a100" offset="1"/>
</radialGradient>
</defs>
<g transform="translate(-2)" fill-rule="evenodd">
<path d="m143 56.5c3.0361 6.9831 9.9253 11.5 17.54 11.5h52.46c15.464 0 28 12.536 28 28v113c0 15.464-12.536 28-28 28h-166c-15.464 0-28-12.536-28-28v-136c0-15.464 12.536-28 28-28h78.46c7.6146 0 14.504 4.5169 17.54 11.5z" fill="url(#linearGradient884)" filter="url(#folder-open-256px-a-7)"/>
<g transform="translate(336)">
<rect x="-307" y="79" width="202" height="83" rx="17.995" ry="17.995" fill-opacity=".2" filter="url(#filter934)" style="paint-order:stroke fill markers"/>
<rect x="-307" y="77" width="202" height="83" rx="17.995" ry="17.995" fill="url(#linearGradient916)" style="paint-order:stroke fill markers"/>
<path d="m-289 77c-9.9694 0-17.996 8.0267-17.996 17.996v2c0-9.9694 8.0267-17.996 17.996-17.996h166.01c9.9694 0 17.996 8.0267 17.996 17.996v-2c0-9.9694-8.0267-17.996-17.996-17.996z" opacity=".5" style="paint-order:stroke fill markers"/>
</g>
<path d="m19 141h222v68c0 15.464-12.536 28-28 28h-166c-15.464 0-28-12.536-28-28z" fill="url(#radialGradient888)" filter="url(#folder-open-256px-a-7)"/>
</g>
<use transform="translate(85,115)" width="100%" height="100%" fill="#000000" fill-rule="evenodd" filter="url(#folder-videos-256px-h)" xlink:href="#folder-videos-256px-i"/>
<use transform="translate(85,115)" width="100%" height="100%" fill="url(#folder-videos-256px-j)" fill-rule="evenodd" xlink:href="#folder-videos-256px-i"/>
<g transform="translate(113,138)" fill-rule="evenodd">
<path d="m6.5824 39.11c-3.6354 2.0878-6.5824 0.37633-6.5824-3.8317v-30.562c0-4.204 2.9636-5.9101 6.5824-3.8317l26.697 15.332c3.6354 2.0878 3.6188 5.4823 0 7.5607z" fill="#ff006b"/>
<path d="m24 10.888v18.219l-12 6.8917v-32.003zm-24 24.391v-30.562z" fill="#ffb600"/>
<path d="m12 3.9961v32.003l-5.4176 3.1114c-3.6354 2.0878-6.5824 0.37633-6.5824-3.8317v-30.562c0-4.204 2.9636-5.9101 6.5824-3.8317z" fill="#1473ff"/>
</g>
</svg>
