<svg width="256" height="256" version="1.1" viewBox="0 0 256 256" xmlns="http://www.w3.org/2000/svg" xmlns:xlink="http://www.w3.org/1999/xlink">
<defs>
<filter id="folder-pictures-256px-a" x="-12.2%" y="-14.1%" width="124.3%" height="128.1%">
<feOffset dy="4" in="SourceAlpha" result="shadowOffsetOuter1"/>
<feGaussianBlur in="shadowOffsetOuter1" result="shadowBlurOuter1" stdDeviation="5"/>
<feComposite in="shadowBlurOuter1" in2="SourceAlpha" operator="out" result="shadowBlurOuter1"/>
<feColorMatrix in="shadowBlurOuter1" result="shadowMatrixOuter1" values="0 0 0 0 0   0 0 0 0 0   0 0 0 0 0  0 0 0 0.2 0"/>
<feMerge>
<feMergeNode in="shadowMatrixOuter1"/>
<feMergeNode in="SourceGraphic"/>
</feMerge>
</filter>
<linearGradient id="folder-pictures-256px-b" x1="103.23" x2="103.23" y1="-3.0562e-14" y2="78.387" gradientTransform="matrix(1.0753 0 0 .92998 17 45)" gradientUnits="userSpaceOnUse">
<stop stop-color="#ba5638" offset="0"/>
<stop stop-color="#870b3d" offset="1"/>
</linearGradient>
<linearGradient id="folder-pictures-256px-j" x1="41.833" x2="41.833" y2="82.648" gradientTransform="scale(1.1952 .83666)" gradientUnits="userSpaceOnUse">
<stop stop-color="#FFF" offset="0"/>
<stop stop-color="#FFF" stop-opacity=".6" offset="1"/>
</linearGradient>
<path id="folder-pictures-256px-h" d="m5.6843e-14 7.9958c0-4.416 3.5885-7.9958 7.9934-7.9958h84.013c4.4146 0 7.9934 3.5797 7.9934 7.9958v54.008c0 4.416-3.5885 7.9958-7.9934 7.9958h-84.013c-4.4146 0-7.9934-3.5797-7.9934-7.9958v-54.008z"/>
<filter id="folder-pictures-256px-i" x="-13%" y="-15.7%" width="126%" height="137.1%">
<feOffset dy="2" in="SourceAlpha" result="shadowOffsetOuter1"/>
<feGaussianBlur in="shadowOffsetOuter1" result="shadowBlurOuter1" stdDeviation="4"/>
<feColorMatrix in="shadowBlurOuter1" values="0 0 0 0 0   0 0 0 0 0.42905776   0 0 0 0 0.968670281  0 0 0 0.5 0"/>
</filter>
<circle id="folder-pictures-256px-m" cx="83" cy="13" r="5"/>
<filter id="folder-pictures-256px-l" x="-130%" y="-110%" width="360%" height="360%">
<feOffset dy="2" in="SourceAlpha" result="shadowOffsetOuter1"/>
<feGaussianBlur in="shadowOffsetOuter1" result="shadowBlurOuter1" stdDeviation="4"/>
<feColorMatrix in="shadowBlurOuter1" values="0 0 0 0 1   0 0 0 0 0   0 0 0 0 0.260869565  0 0 0 0.5 0"/>
</filter>
<linearGradient id="folder-pictures-256px-n" x1="31.957" x2="26.014" y1="48.638" y2="71.836" gradientTransform="scale(1.3299 .75194)" gradientUnits="userSpaceOnUse">
<stop stop-color="#FF3C14" stop-opacity=".8" offset="0"/>
<stop stop-color="#6E00F5" stop-opacity=".8" offset=".43748"/>
<stop stop-color="#3900FF" stop-opacity=".655" offset="1"/>
</linearGradient>
<linearGradient id="folder-pictures-256px-o" x1="51.433" x2="51.433" y1="45.022" y2="98.649" gradientTransform="scale(1.3178 .75884)" gradientUnits="userSpaceOnUse">
<stop stop-color="#32F8FF" stop-opacity=".8" offset="0"/>
<stop stop-color="#0097FF" offset="1"/>
</linearGradient>
<mask id="folder-pictures-256px-k" fill="#fff">
<use width="100%" height="100%" xlink:href="#folder-pictures-256px-h"/>
</mask>
<radialGradient id="folder-open-256px-g" cx="72.993" cy="0" r="172.65" gradientTransform="matrix(1.5207 0 0 .6576 17 141)" gradientUnits="userSpaceOnUse">
<stop stop-color="#ff774d" offset="0"/>
<stop stop-color="#ba0e55" offset="1"/>
</radialGradient>
<filter id="folder-open-256px-a" x="-.122" y="-.141" width="1.243" height="1.281">
<feOffset dy="4" in="SourceAlpha" result="shadowOffsetOuter1"/>
<feGaussianBlur in="shadowOffsetOuter1" result="shadowBlurOuter1" stdDeviation="5"/>
<feComposite in="shadowBlurOuter1" in2="SourceAlpha" operator="out" result="shadowBlurOuter1"/>
<feColorMatrix in="shadowBlurOuter1" result="shadowMatrixOuter1" values="0 0 0 0 0   0 0 0 0 0   0 0 0 0 0  0 0 0 0.2 0"/>
<feMerge>
<feMergeNode in="shadowMatrixOuter1"/>
<feMergeNode in="SourceGraphic"/>
</feMerge>
</filter>
<filter id="filter934" x="-.042327" y="-.10301" width="1.0847" height="1.206" color-interpolation-filters="sRGB">
<feGaussianBlur stdDeviation="3.5625"/>
</filter>
<linearGradient id="linearGradient916" x1="-105" x2="-105" y1="174" y2="242" gradientTransform="translate(238 -96)" gradientUnits="userSpaceOnUse">
<stop stop-color="#fff" offset="0"/>
<stop stop-color="#fff8a3" offset="1"/>
</linearGradient>
</defs>
<path d="m141 56.5c3.0361 6.9831 9.9253 11.5 17.54 11.5h52.46c15.464 0 28 12.536 28 28v113c0 15.464-12.536 28-28 28h-166c-15.464 0-28-12.536-28-28v-136c0-15.464 12.536-28 28-28h78.46c7.6146 0 14.504 4.5169 17.54 11.5z" fill="url(#folder-pictures-256px-b)" fill-rule="evenodd" filter="url(#folder-pictures-256px-a)"/>
<rect x="27" y="79" width="202" height="83" rx="17.995" ry="17.995" fill-opacity=".2" fill-rule="evenodd" filter="url(#filter934)" style="paint-order:stroke fill markers"/>
<rect x="27" y="77" width="202" height="83" rx="17.995" ry="17.995" fill="url(#linearGradient916)" fill-rule="evenodd" style="paint-order:stroke fill markers"/>
<path d="m45 77c-9.9694 0-17.996 8.0267-17.996 17.996v2c0-9.9694 8.0267-17.996 17.996-17.996h166.01c9.9694 0 17.996 8.0267 17.996 17.996v-2c0-9.9694-8.0267-17.996-17.996-17.996z" fill-rule="evenodd" opacity=".5" style="paint-order:stroke fill markers"/>
<path d="m17 141h222v68c0 15.464-12.536 28-28 28h-166c-15.464 0-28-12.536-28-28z" fill="url(#folder-open-256px-g)" fill-rule="evenodd" filter="url(#folder-open-256px-a)"/>
<use transform="translate(78,127)" width="100%" height="100%" fill="#000000" fill-rule="evenodd" filter="url(#folder-pictures-256px-i)" xlink:href="#folder-pictures-256px-h"/>
<use transform="translate(78,127)" width="100%" height="100%" fill="url(#folder-pictures-256px-j)" fill-rule="evenodd" xlink:href="#folder-pictures-256px-h"/>
<use transform="translate(78,127)" width="100%" height="100%" fill="#000000" fill-rule="evenodd" filter="url(#folder-pictures-256px-l)" xlink:href="#folder-pictures-256px-m"/>
<use transform="translate(78,127)" width="100%" height="100%" fill="#fe0053" fill-rule="evenodd" xlink:href="#folder-pictures-256px-m"/>
<path transform="translate(78,127)" d="m-3 70 39.197-48.243c3.4809-4.2842 9.1317-4.2752 12.605 0l39.197 48.243z" fill="url(#folder-pictures-256px-n)" fill-rule="evenodd" mask="url(#folder-pictures-256px-k)"/>
<path transform="translate(78,127)" d="m27.665 74.859 33.912-42.944c3.4251-4.3374 8.9748-4.342 12.404 0l33.912 42.944z" fill="url(#folder-pictures-256px-o)" fill-rule="evenodd" mask="url(#folder-pictures-256px-k)"/>
</svg>
