<svg width="256" height="256" version="1.1" viewBox="0 0 256 256" xmlns="http://www.w3.org/2000/svg" xmlns:xlink="http://www.w3.org/1999/xlink">
<defs>
<filter id="network-workgroup-256px-a" x="-12.2%" y="-14.1%" width="124.3%" height="128.1%">
<feOffset dy="4" in="SourceAlpha" result="shadowOffsetOuter1"/>
<feGaussianBlur in="shadowOffsetOuter1" result="shadowBlurOuter1" stdDeviation="5"/>
<feComposite in="shadowBlurOuter1" in2="SourceAlpha" operator="out" result="shadowBlurOuter1"/>
<feColorMatrix in="shadowBlurOuter1" result="shadowMatrixOuter1" values="0 0 0 0 0   0 0 0 0 0   0 0 0 0 0  0 0 0 0.2 0"/>
<feMerge>
<feMergeNode in="shadowMatrixOuter1"/>
<feMergeNode in="SourceGraphic"/>
</feMerge>
</filter>
<linearGradient id="network-workgroup-256px-b" x1="103.23" x2="103.23" y1="-3.0562e-14" y2="78.387" gradientTransform="matrix(1.0753 0 0 .92998 17 45)" gradientUnits="userSpaceOnUse">
<stop stop-color="#ba5638" offset="0"/>
<stop stop-color="#870b3d" offset="1"/>
</linearGradient>
<radialGradient id="network-workgroup-256px-g" cx="90.017" cy="0" r="211.7" gradientTransform="matrix(1.2331 0 0 .81096 17 91)" gradientUnits="userSpaceOnUse">
<stop stop-color="#ff774d" offset="0"/>
<stop stop-color="#ba0e55" offset="1"/>
</radialGradient>
<linearGradient id="network-workgroup-256px-j" x1="122.08" x2="122.08" y1="132.32" y2="218.71" gradientTransform="scale(1.0567 .94634)" gradientUnits="userSpaceOnUse">
<stop stop-color="#FFF" offset="0"/>
<stop stop-color="#FFF" stop-opacity=".6" offset="1"/>
</linearGradient>
<path id="network-workgroup-256px-i" d="m116.03 182.53c-3.8709-0.3298-7.5633-0.83365-11.013-1.4962-2.9141 10.054-2.8274 17.639 0.48228 19.519 3.3255 1.8892 10.02-1.7852 17.388-9.2289-2.3184-2.6647-4.619-5.6115-6.8568-8.7942zm7.7996 0.4193c1.0566 1.3631 2.1173 2.6633 3.1744 3.8955 1.0572-1.2323 2.1178-2.5324 3.1744-3.8955-1.0494 0.024654-2.1079 0.037112-3.1744 0.037112s-2.125-0.012458-3.1744-0.037112zm-24.703-34.661c-3.53-12.565-2.786-22.566 3.4089-26.085 6.1358-3.4856 15.233 0.82707 24.469 10.029 9.2358-9.2021 18.333-13.515 24.469-10.029 6.1949 3.5192 6.939 13.52 3.4089 26.085 12.171 3.2811 20.122 8.8119 20.122 15.698s-7.9515 12.417-20.122 15.698c3.53 12.565 2.786 22.566-3.4089 26.085-6.1358 3.4856-15.233-0.82707-24.469-10.029-9.2358 9.2021-18.333 13.515-24.469 10.029-6.1949-3.5192-6.939-13.52-3.4089-26.085-12.171-3.2811-20.122-8.8119-20.122-15.698s7.9515-12.417 20.122-15.698zm5.8903-1.3489c3.45-0.66257 7.1424-1.1664 11.013-1.4962 2.2379-3.1827 4.5384-6.1295 6.8568-8.7942-7.3674-7.4437-14.062-11.118-17.388-9.2289-3.3096 1.8801-3.3964 9.4652-0.48228 19.519zm43.975 34.095c-3.45 0.66257-7.1424 1.1664-11.013 1.4962-2.2379 3.1827-4.5384 6.1295-6.8568 8.7942 7.3674 7.4437 14.062 11.118 17.388 9.2289 3.3096-1.8801 3.3964-9.4652 0.48228-19.519zm-18.813-36.01c-1.0566-1.3631-2.1173-2.6633-3.1744-3.8955-1.0572 1.2323-2.1178 2.5324-3.1744 3.8955 1.0494-0.024655 2.1079-0.037113 3.1744-0.037113s2.125 0.012458 3.1744 0.037113zm7.7996 0.4193c3.8709 0.3298 7.5633 0.83365 11.013 1.4962 2.9141-10.054 2.8274-17.639-0.48228-19.519-3.3255-1.8892-10.02 1.7852-17.388 9.2289 2.3184 2.6647 4.619 5.6115 6.8568 8.7942zm-26.232 30.575c-0.50048-0.81278-0.9959-1.6368-1.4857-2.4716-0.53628-0.91395-1.0579-1.8273-1.5647-2.739-0.64277 1.5132-1.233 3.0005-1.77 4.4541 1.5588 0.28604 3.1684 0.53874 4.8204 0.75639zm7.6106 0.73209c2.4961 0.15586 5.053 0.23621 7.6474 0.23621s5.1514-0.080344 7.6474-0.23621c1.3373-1.9896 2.6499-4.0733 3.9214-6.2402 1.284-2.1883 2.4722-4.3695 3.5631-6.5236-1.091-2.1542-2.2791-4.3354-3.5631-6.5236-1.2715-2.1669-2.5841-4.2506-3.9214-6.2402-2.4961-0.15586-5.053-0.23621-7.6474-0.23621s-5.1514 0.080344-7.6474 0.23621c-1.3373 1.9896-2.6499 4.0733-3.9214 6.2402-1.284 2.1883-2.4722 4.3695-3.5631 6.5236 1.091 2.1542 2.2791 4.3354 3.5631 6.5236 1.2715 2.1669 2.5841 4.2506 3.9214 6.2402zm25.956-19.585c0.64277-1.5132 1.233-3.0005 1.77-4.4541-1.5588-0.28604-3.1684-0.53874-4.8204-0.75639 0.50048 0.81278 0.9959 1.6368 1.4857 2.4716 0.53628 0.91395 1.0579 1.8273 1.5647 2.739zm-44.339-3.1344c-1.6881 0.44582-3.2876 0.93629-4.7844 1.4685-7.3089 2.5987-11.185 5.8573-11.185 8.4871s3.8763 5.8883 11.185 8.4871c1.4968 0.5322 3.0963 1.0227 4.7844 1.4685 1.1604-3.2199 2.5632-6.5572 4.1917-9.9556-1.6284-3.3983-3.0313-6.7356-4.1917-9.9556zm5.9519-1.3198c0.53708 1.4537 1.1273 2.941 1.77 4.4541 0.50673-0.91169 1.0284-1.825 1.5647-2.739 0.4898-0.83474 0.98523-1.6588 1.4857-2.4716-1.652 0.21766-3.2616 0.47035-4.8204 0.75639zm46.109 21.231c1.6881-0.44583 3.2876-0.93629 4.7844-1.4685 7.3089-2.5987 11.185-5.8573 11.185-8.4871s-3.8763-5.8883-11.185-8.4871c-1.4968-0.5322-3.0963-1.0227-4.7844-1.4685-1.1604 3.2199-2.5632 6.5572-4.1917 9.9556 1.6284 3.3983 3.0313 6.7356 4.1917 9.9556zm-5.9519 1.3198c-0.53708-1.4537-1.1273-2.941-1.77-4.4541-0.50673 0.91169-1.0284 1.825-1.5647 2.739-0.4898 0.83474-0.98523 1.6588-1.4857 2.4716 1.652-0.21766 3.2616-0.47035 4.8204-0.75639z"/>
<filter id="network-workgroup-256px-h" x="-13.5%" y="-12.8%" width="127.1%" height="130.2%">
<feOffset dy="2" in="SourceAlpha" result="shadowOffsetOuter1"/>
<feGaussianBlur in="shadowOffsetOuter1" result="shadowBlurOuter1" stdDeviation="4"/>
<feColorMatrix in="shadowBlurOuter1" values="0 0 0 0 0   0 0 0 0 0.42745098   0 0 0 0 0.968627451  0 0 0 0.5 0"/>
</filter>
<filter id="filter934" x="-.042327" y="-.10301" width="1.0847" height="1.206" color-interpolation-filters="sRGB">
<feGaussianBlur stdDeviation="3.5625"/>
</filter>
<linearGradient id="linearGradient916" x1="-105" x2="-105" y1="174" y2="187" gradientTransform="translate(238,-96)" gradientUnits="userSpaceOnUse">
<stop stop-color="#fff" offset="0"/>
<stop stop-color="#fff8a3" offset="1"/>
</linearGradient>
</defs>
<path d="m141 56.5c3.0361 6.9831 9.9253 11.5 17.54 11.5h52.46c15.464 0 28 12.536 28 28v113c0 15.464-12.536 28-28 28h-166c-15.464 0-28-12.536-28-28v-136c0-15.464 12.536-28 28-28h78.46c7.6146 0 14.504 4.5169 17.54 11.5z" fill="url(#network-workgroup-256px-b)" fill-rule="evenodd" filter="url(#network-workgroup-256px-a)"/>
<rect x="27" y="79" width="202" height="83" rx="17.995" ry="17.995" fill-opacity=".2" fill-rule="evenodd" filter="url(#filter934)" style="paint-order:stroke fill markers"/>
<rect x="27" y="77" width="202" height="83" rx="17.995" ry="17.995" fill="url(#linearGradient916)" fill-rule="evenodd" style="paint-order:stroke fill markers"/>
<path d="m45 77c-9.9694 0-17.996 8.0267-17.996 17.996v2c0-9.9694 8.0267-17.996 17.996-17.996h166.01c9.9694 0 17.996 8.0267 17.996 17.996v-2c0-9.9694-8.0267-17.996-17.996-17.996z" fill-rule="evenodd" opacity=".5" style="paint-order:stroke fill markers"/>
<path d="m17 91h222v118c0 15.464-12.536 28-28 28h-166c-15.464 0-28-12.536-28-28z" fill="url(#network-workgroup-256px-g)" fill-rule="evenodd" filter="url(#network-workgroup-256px-a)"/>
<path d="m116.03 182.53c-3.8709-0.3298-7.5633-0.83365-11.013-1.4962-2.9142 10.054-2.8274 17.639 0.48227 19.519 3.3255 1.8892 10.02-1.7852 17.388-9.2289-2.3184-2.6647-4.619-5.6115-6.8568-8.7942zm7.7996 0.4193c1.0566 1.3631 2.1173 2.6633 3.1744 3.8955 1.0572-1.2323 2.1178-2.5324 3.1744-3.8955-1.0494 0.0247-2.108 0.0371-3.1744 0.0371s-2.125-0.0125-3.1744-0.0371zm-24.703-34.661c-3.53-12.565-2.786-22.566 3.409-26.085 6.1358-3.4856 15.233 0.82707 24.469 10.029 9.2358-9.2021 18.333-13.515 24.469-10.029 6.1949 3.5192 6.939 13.52 3.409 26.085 12.171 3.2811 20.122 8.8119 20.122 15.698 0 6.8866-7.9515 12.417-20.122 15.698 3.53 12.565 2.786 22.566-3.409 26.085-6.1358 3.4856-15.233-0.82707-24.469-10.029-9.2358 9.2021-18.333 13.515-24.469 10.029-6.1949-3.5192-6.939-13.52-3.409-26.085-12.171-3.2811-20.122-8.8119-20.122-15.698 0-6.8866 7.9515-12.417 20.122-15.698zm5.8903-1.3489c3.45-0.66257 7.1424-1.1664 11.013-1.4962 2.2378-3.1827 4.5384-6.1295 6.8568-8.7942-7.3674-7.4437-14.062-11.118-17.388-9.2289-3.3096 1.8801-3.3964 9.4652-0.48227 19.519zm43.975 34.095c-3.45 0.66257-7.1424 1.1664-11.013 1.4962-2.2378 3.1827-4.5384 6.1295-6.8568 8.7942 7.3674 7.4437 14.062 11.118 17.388 9.2289 3.3096-1.8801 3.3964-9.4652 0.48227-19.519zm-18.813-36.01c-1.0566-1.3631-2.1173-2.6633-3.1744-3.8955-1.0572 1.2323-2.1178 2.5324-3.1744 3.8955 1.0494-0.0247 2.108-0.0371 3.1744-0.0371s2.125 0.0125 3.1744 0.0371zm7.7996 0.4193c3.8709 0.3298 7.5633 0.83365 11.013 1.4962 2.9142-10.054 2.8274-17.639-0.48227-19.519-3.3255-1.8892-10.02 1.7852-17.388 9.2289 2.3184 2.6647 4.619 5.6115 6.8568 8.7942zm-26.232 30.575c-0.50048-0.81278-0.99591-1.6368-1.4857-2.4716-0.53628-0.91394-1.0579-1.8273-1.5647-2.739-0.64278 1.5132-1.233 3.0005-1.77 4.4541 1.5588 0.28605 3.1684 0.53874 4.8204 0.7564zm7.6106 0.73208c2.496 0.15587 5.053 0.23621 7.6474 0.23621s5.1514-0.0803 7.6474-0.23621c1.3373-1.9896 2.6499-4.0732 3.9214-6.2402 1.284-2.1883 2.4722-4.3695 3.5631-6.5236-1.091-2.1542-2.2791-4.3354-3.5631-6.5236-1.2715-2.1669-2.584-4.2506-3.9214-6.2402-2.496-0.15586-5.053-0.23621-7.6474-0.23621s-5.1514 0.0804-7.6474 0.23621c-1.3373 1.9896-2.6499 4.0733-3.9214 6.2402-1.284 2.1883-2.4722 4.3695-3.5631 6.5236 1.091 2.1542 2.2791 4.3354 3.5631 6.5236 1.2715 2.1669 2.584 4.2506 3.9214 6.2402zm25.956-19.585c0.64278-1.5132 1.233-3.0005 1.77-4.4542-1.5588-0.28604-3.1684-0.53873-4.8204-0.75639 0.50048 0.81278 0.99591 1.6368 1.4857 2.4716 0.53628 0.91395 1.0579 1.8273 1.5647 2.739zm-44.339-3.1344c-1.6881 0.44582-3.2876 0.93629-4.7844 1.4685-7.3089 2.5987-11.185 5.8573-11.185 8.4871s3.8763 5.8884 11.185 8.4871c1.4968 0.5322 3.0963 1.0227 4.7844 1.4685 1.1604-3.22 2.5632-6.5572 4.1917-9.9556-1.6284-3.3983-3.0313-6.7356-4.1917-9.9556zm5.9519-1.3198c0.53708 1.4537 1.1273 2.941 1.77 4.4542 0.50672-0.91168 1.0284-1.825 1.5647-2.739 0.4898-0.83474 0.98523-1.6588 1.4857-2.4716-1.652 0.21766-3.2616 0.47035-4.8204 0.75639zm46.109 21.231c1.6881-0.44583 3.2876-0.93629 4.7844-1.4685 7.3089-2.5987 11.185-5.8573 11.185-8.4871s-3.8763-5.8883-11.185-8.4871c-1.4968-0.5322-3.0963-1.0227-4.7844-1.4685-1.1604 3.22-2.5632 6.5572-4.1917 9.9556 1.6284 3.3983 3.0313 6.7356 4.1917 9.9556zm-5.9519 1.3198c-0.53708-1.4537-1.1273-2.941-1.77-4.4541-0.50672 0.91168-1.0284 1.825-1.5647 2.739-0.4898 0.83474-0.98523 1.6588-1.4857 2.4716 1.652-0.21766 3.2616-0.47035 4.8204-0.7564z" fill="#32a2fb" fill-opacity=".5" fill-rule="evenodd"/>
<use width="100%" height="100%" fill="#000000" fill-rule="evenodd" filter="url(#network-workgroup-256px-h)" xlink:href="#network-workgroup-256px-i"/>
<use width="100%" height="100%" fill="url(#network-workgroup-256px-j)" fill-rule="evenodd" xlink:href="#network-workgroup-256px-i"/>
</svg>
