<svg width="64" height="64" version="1.1" viewBox="0 0 64 64" xmlns="http://www.w3.org/2000/svg" xmlns:xlink="http://www.w3.org/1999/xlink">
<defs>
<filter id="network-server-64px-a" x="-14.3%" y="-16.7%" width="128.6%" height="133.3%">
<feOffset dy="1" in="SourceAlpha" result="shadowOffsetOuter1"/>
<feGaussianBlur in="shadowOffsetOuter1" result="shadowBlurOuter1" stdDeviation="1.5"/>
<feComposite in="shadowBlurOuter1" in2="SourceAlpha" operator="out" result="shadowBlurOuter1"/>
<feColorMatrix in="shadowBlurOuter1" result="shadowMatrixOuter1" values="0 0 0 0 0   0 0 0 0 0   0 0 0 0 0  0 0 0 0.2 0"/>
<feMerge>
<feMergeNode in="shadowMatrixOuter1"/>
<feMergeNode in="SourceGraphic"/>
</feMerge>
</filter>
<linearGradient id="network-server-64px-c" x1="25.923" x2="25.923" y1="-3.0699e-14" y2="19.685" gradientTransform="scale(1.0801 .92582)" gradientUnits="userSpaceOnUse">
<stop stop-color="#00B8FF" offset="0"/>
<stop stop-color="#2E5DFF" offset="1"/>
</linearGradient>
<path id="network-server-64px-b" d="m31.279 3c0.7642 1.8177 2.5438 3 4.5156 3h13.205c3.866 0 7 3.134 7 7v28c0 3.866-3.134 7-7 7h-42c-3.866 0-7-3.134-7-7l-2.6645e-15 -34c-4.7345e-16 -3.866 3.134-7 7-7l19.764 1.1546e-14c1.9718-3.6222e-16 3.7514 1.1823 4.5156 3z"/>
<linearGradient id="network-server-64px-l" x1="52.084%" x2="52.084%" y1="4.908%" y2="100%">
<stop stop-color="#FFF" offset="0"/>
<stop stop-color="#FFF" stop-opacity=".6" offset="1"/>
</linearGradient>
<path id="network-server-64px-k" d="m12.775 4.4768c0 1.012-0.82133 1.8333-1.8333 1.8333-1.012 0-1.8333-0.82133-1.8333-1.8333s0.82133-1.8333 1.8333-1.8333c1.012 0 1.8333 0.82133 1.8333 1.8333"/>
<filter id="network-server-64px-j" x="-354.5%" y="-300%" width="809.1%" height="809.1%">
<feOffset dy="2" in="SourceAlpha" result="shadowOffsetOuter1"/>
<feGaussianBlur in="shadowOffsetOuter1" result="shadowBlurOuter1" stdDeviation="4"/>
<feColorMatrix in="shadowBlurOuter1" values="0 0 0 0 0   0 0 0 0 0.42745098   0 0 0 0 0.968627451  0 0 0 0.5 0"/>
</filter>
<path id="network-server-64px-n" d="m7.0803 9.6018c0 1.012-0.82133 1.8333-1.8333 1.8333s-1.8333-0.82133-1.8333-1.8333c0-1.012 0.82133-1.8333 1.8333-1.8333s1.8333 0.82133 1.8333 1.8333"/>
<filter id="network-server-64px-m" x="-354.5%" y="-300%" width="809.1%" height="809.1%">
<feOffset dy="2" in="SourceAlpha" result="shadowOffsetOuter1"/>
<feGaussianBlur in="shadowOffsetOuter1" result="shadowBlurOuter1" stdDeviation="4"/>
<feColorMatrix in="shadowBlurOuter1" values="0 0 0 0 0   0 0 0 0 0.42745098   0 0 0 0 0.968627451  0 0 0 0.5 0"/>
</filter>
<path id="network-server-64px-p" d="m18.099 13.998c0 1.012-0.82133 1.8333-1.8333 1.8333s-1.8333-0.82133-1.8333-1.8333 0.82133-1.8333 1.8333-1.8333 1.8333 0.82133 1.8333 1.8333"/>
<filter id="network-server-64px-o" x="-354.5%" y="-300%" width="809.1%" height="809.1%">
<feOffset dy="2" in="SourceAlpha" result="shadowOffsetOuter1"/>
<feGaussianBlur in="shadowOffsetOuter1" result="shadowBlurOuter1" stdDeviation="4"/>
<feColorMatrix in="shadowBlurOuter1" values="0 0 0 0 0   0 0 0 0 0.42745098   0 0 0 0 0.968627451  0 0 0 0.5 0"/>
</filter>
<radialGradient id="radialGradient927" cx="22.45" cy=".62361" r="52.808" gradientTransform="matrix(1.2472 0 0 .80178 4 22.5)" gradientUnits="userSpaceOnUse">
<stop stop-color="#48D5FF" offset="0"/>
<stop stop-color="#0083F6" offset="1"/>
</radialGradient>
<linearGradient id="linearGradient931" x1="11.018" x2="11.018" y1="2.8234" y2="6.3101" gradientUnits="userSpaceOnUse" xlink:href="#network-server-64px-l"/>
<linearGradient id="linearGradient933" x1="5.3234" x2="5.3234" y1="7.9484" y2="11.435" gradientUnits="userSpaceOnUse" xlink:href="#network-server-64px-l"/>
<linearGradient id="linearGradient935" x1="16.342" x2="16.342" y1="12.345" y2="15.832" gradientUnits="userSpaceOnUse" xlink:href="#network-server-64px-l"/>
<filter id="filter920" x="-.05066" y="-.1244" width="1.1013" height="1.2488" color-interpolation-filters="sRGB">
<feGaussianBlur stdDeviation="1.075575"/>
</filter>
<linearGradient id="linearGradient893" x1="17.868" x2="17.868" y1="14.103" y2="17.939" gradientTransform="matrix(1.5671 0 0 .63814 4 11)" gradientUnits="userSpaceOnUse">
<stop stop-color="#FFF" offset="0"/>
<stop stop-color="#CEF5FF" offset="1"/>
</linearGradient>
<filter id="folder-64px-a" x="-.143" y="-.167" width="1.286" height="1.333">
<feOffset dy="1" in="SourceAlpha" result="shadowOffsetOuter1"/>
<feGaussianBlur in="shadowOffsetOuter1" result="shadowBlurOuter1" stdDeviation="1.5"/>
<feComposite in="shadowBlurOuter1" in2="SourceAlpha" operator="out" result="shadowBlurOuter1"/>
<feColorMatrix in="shadowBlurOuter1" result="shadowMatrixOuter1" values="0 0 0 0 0   0 0 0 0 0   0 0 0 0 0  0 0 0 0.2 0"/>
<feMerge>
<feMergeNode in="shadowMatrixOuter1"/>
<feMergeNode in="SourceGraphic"/>
</feMerge>
</filter>
</defs>
<use transform="translate(4,11)" width="100%" height="100%" fill="url(#network-server-64px-c)" fill-rule="evenodd" filter="url(#network-server-64px-a)" xlink:href="#network-server-64px-b"/>
<g fill-rule="evenodd">
<rect x="6.523" y="20" width="50.955" height="20.75" rx="4.5254" ry="4.5254" fill-opacity=".2" filter="url(#filter920)" style="paint-order:stroke fill markers"/>
<rect x="6.523" y="20" width="50.955" height="20.75" rx="4.5" ry="4.5" fill="url(#linearGradient893)" filter="url(#folder-64px-a)"/>
<path d="m11.049 20c-2.5071 0-4.5254 2.0183-4.5254 4.5254v1c0-2.5071 2.0183-4.5254 4.5254-4.5254h41.904c2.5071 0 4.5254 2.0183 4.5254 4.5254v-1c0-2.5071-2.0183-4.5254-4.5254-4.5254z" opacity=".5" style="paint-order:stroke fill markers"/>
</g>
<path d="m4 23h56v29c0 3.866-3.134 7-7 7h-42c-3.866 0-7-3.134-7-7z" fill="url(#radialGradient927)" fill-rule="evenodd" filter="url(#network-server-64px-a)"/>
<path d="m42.355 37.966c0 5.7371-4.6518 10.389-10.389 10.389s-10.389-4.6518-10.389-10.389 4.6518-10.389 10.389-10.389 10.389 4.6518 10.389 10.389zm-0.33684 2.6279c-12.253 2.2513-17.753-5.5257-19.073-7.7892m0.26718 10.755c0.50233-2.6314 3.0238-11.502 14.436-14.29m-0.1045 17.461c0.96311-11.881-7.2551-17.032-9.7093-18.297m9.431 12.558s-5.4707 2.8502-8.4639 6.8701" fill="none" stroke="#fff" stroke-linecap="round" stroke-linejoin="round"/>
<use transform="translate(21,27)" width="100%" height="100%" fill="#000000" fill-rule="evenodd" filter="url(#network-server-64px-j)" xlink:href="#network-server-64px-k"/>
<use transform="translate(21,27)" width="100%" height="100%" fill="url(#linearGradient931)" fill-rule="evenodd" xlink:href="#network-server-64px-k"/>
<use transform="translate(21,27)" width="100%" height="100%" fill="#000000" fill-rule="evenodd" filter="url(#network-server-64px-m)" xlink:href="#network-server-64px-n"/>
<use transform="translate(21,27)" width="100%" height="100%" fill="url(#linearGradient933)" fill-rule="evenodd" xlink:href="#network-server-64px-n"/>
<use transform="translate(21,27)" width="100%" height="100%" fill="#000000" fill-rule="evenodd" filter="url(#network-server-64px-o)" xlink:href="#network-server-64px-p"/>
<use transform="translate(21,27)" width="100%" height="100%" fill="url(#linearGradient935)" fill-rule="evenodd" xlink:href="#network-server-64px-p"/>
</svg>
