<svg width="64" height="64" version="1.1" viewBox="0 0 64 64" xmlns="http://www.w3.org/2000/svg" xmlns:xlink="http://www.w3.org/1999/xlink">
<defs>
<filter id="folder-music-64px-a" x="-14.3%" y="-16.7%" width="128.6%" height="133.3%">
<feOffset dy="1" in="SourceAlpha" result="shadowOffsetOuter1"/>
<feGaussianBlur in="shadowOffsetOuter1" result="shadowBlurOuter1" stdDeviation="1.5"/>
<feComposite in="shadowBlurOuter1" in2="SourceAlpha" operator="out" result="shadowBlurOuter1"/>
<feColorMatrix in="shadowBlurOuter1" result="shadowMatrixOuter1" values="0 0 0 0 0   0 0 0 0 0   0 0 0 0 0  0 0 0 0.2 0"/>
<feMerge>
<feMergeNode in="shadowMatrixOuter1"/>
<feMergeNode in="SourceGraphic"/>
</feMerge>
</filter>
<linearGradient id="folder-music-64px-c" x1="25.923" x2="25.923" y1="-3.0699e-14" y2="19.685" gradientTransform="scale(1.0801 .92582)" gradientUnits="userSpaceOnUse">
<stop stop-color="#00B8FF" offset="0"/>
<stop stop-color="#2E5DFF" offset="1"/>
</linearGradient>
<path id="folder-music-64px-b" d="m31.279 3c0.7642 1.8177 2.5438 3 4.5156 3h13.205c3.866 0 7 3.134 7 7v28c0 3.866-3.134 7-7 7h-42c-3.866 0-7-3.134-7-7l-2.6645e-15 -34c-4.7345e-16 -3.866 3.134-7 7-7l19.764 1.1546e-14c1.9718-3.6222e-16 3.7514 1.1823 4.5156 3z"/>
<linearGradient id="folder-music-64px-l" x1="12.5" x2="12.5" y1="1.1779" y2="24" gradientUnits="userSpaceOnUse">
<stop stop-color="#FFF" offset="0"/>
<stop stop-color="#FFF" stop-opacity=".6" offset="1"/>
</linearGradient>
<path id="folder-music-64px-k" d="m12 24c-6.6274 0-12-5.3726-12-12s5.3726-12 12-12 12 5.3726 12 12-5.3726 12-12 12zm0-4c4.4183 0 8-3.5817 8-8s-3.5817-8-8-8-8 3.5817-8 8 3.5817 8 8 8z"/>
<filter id="folder-music-64px-j" x="-12.5%" y="-12.5%" width="125%" height="125%">
<feOffset in="SourceAlpha" result="shadowOffsetOuter1"/>
<feGaussianBlur in="shadowOffsetOuter1" result="shadowBlurOuter1" stdDeviation="1"/>
<feColorMatrix in="shadowBlurOuter1" values="0 0 0 0 0   0 0 0 0 0.42745098   0 0 0 0 0.968627451  0 0 0 0.5 0"/>
</filter>
<linearGradient id="folder-music-64px-m" x1="10.008" x2="7.6278" y1="5" y2="19" gradientTransform="translate(20,28)" gradientUnits="userSpaceOnUse">
<stop stop-color="#4B20FF" offset="0"/>
<stop stop-color="#9600F1" offset="1"/>
</linearGradient>
<radialGradient id="radialGradient910" cx="22.45" cy=".62361" r="52.808" gradientTransform="matrix(1.2472 0 0 .80178 4 22.5)" gradientUnits="userSpaceOnUse">
<stop stop-color="#48D5FF" offset="0"/>
<stop stop-color="#0083F6" offset="1"/>
</radialGradient>
<filter id="filter920" x="-.05066" y="-.1244" width="1.1013" height="1.2488" color-interpolation-filters="sRGB">
<feGaussianBlur stdDeviation="1.075575"/>
</filter>
<linearGradient id="linearGradient893" x1="17.868" x2="17.868" y1="14.103" y2="17.939" gradientTransform="matrix(1.5671 0 0 .63814 4 11)" gradientUnits="userSpaceOnUse">
<stop stop-color="#FFF" offset="0"/>
<stop stop-color="#CEF5FF" offset="1"/>
</linearGradient>
<filter id="folder-64px-a" x="-.143" y="-.167" width="1.286" height="1.333">
<feOffset dy="1" in="SourceAlpha" result="shadowOffsetOuter1"/>
<feGaussianBlur in="shadowOffsetOuter1" result="shadowBlurOuter1" stdDeviation="1.5"/>
<feComposite in="shadowBlurOuter1" in2="SourceAlpha" operator="out" result="shadowBlurOuter1"/>
<feColorMatrix in="shadowBlurOuter1" result="shadowMatrixOuter1" values="0 0 0 0 0   0 0 0 0 0   0 0 0 0 0  0 0 0 0.2 0"/>
<feMerge>
<feMergeNode in="shadowMatrixOuter1"/>
<feMergeNode in="SourceGraphic"/>
</feMerge>
</filter>
</defs>
<use transform="translate(4,11)" width="100%" height="100%" fill="url(#folder-music-64px-c)" fill-rule="evenodd" filter="url(#folder-music-64px-a)" xlink:href="#folder-music-64px-b"/>
<g fill-rule="evenodd">
<rect x="6.523" y="20" width="50.955" height="20.75" rx="4.5254" ry="4.5254" fill-opacity=".2" filter="url(#filter920)" style="paint-order:stroke fill markers"/>
<rect x="6.523" y="20" width="50.955" height="20.75" rx="4.5" ry="4.5" fill="url(#linearGradient893)" filter="url(#folder-64px-a)"/>
<path d="m11.049 20c-2.5071 0-4.5254 2.0183-4.5254 4.5254v1c0-2.5071 2.0183-4.5254 4.5254-4.5254h41.904c2.5071 0 4.5254 2.0183 4.5254 4.5254v-1c0-2.5071-2.0183-4.5254-4.5254-4.5254z" opacity=".5" style="paint-order:stroke fill markers"/>
</g>
<path d="m4 23h56v29c0 3.866-3.134 7-7 7h-42c-3.866 0-7-3.134-7-7z" fill="url(#radialGradient910)" fill-rule="evenodd" filter="url(#folder-music-64px-a)"/>
<use transform="translate(20,28)" width="100%" height="100%" fill="#000000" fill-rule="evenodd" filter="url(#folder-music-64px-j)" xlink:href="#folder-music-64px-k"/>
<use transform="translate(20,28)" width="100%" height="100%" fill="url(#folder-music-64px-l)" fill-rule="evenodd" xlink:href="#folder-music-64px-k"/>
<circle cx="32" cy="40" r="7" fill="url(#folder-music-64px-m)" fill-rule="evenodd"/>
<path d="m34 40.085v-2.3681c0-0.17817-0.14443-0.3226-0.3226-0.3226-0.02586 0-0.05162 0.0031-0.07674 0.0093l-2.3548 0.57668c-0.14434 0.035309-0.24586 0.16469-0.24586 0.3133v4.0897h-0.0044c0.002901 0.038389 0.0044 0.077183 0.0044 0.11633 0 0.82843-0.67157 1.5-1.5 1.5s-1.5-0.67157-1.5-1.5 0.67157-1.5 1.5-1.5c0.17532 0 0.34361 0.03008 0.5 0.08535v-3.4724c0-0.46276 0.3276-0.86078 0.78173-0.94975l3.0644-0.60037c0.52453-0.10276 1.0331 0.23914 1.1358 0.76368 0.012009 0.061296 0.018056 0.12361 0.018056 0.18607v4.3466h-0.0065c0.004293 0.046359 0.0065 0.09333 0.0065 0.14082 0 0.82843-0.67157 1.5-1.5 1.5s-1.5-0.67157-1.5-1.5 0.67157-1.5 1.5-1.5c0.17532 0 0.34361 0.03008 0.5 0.08535z" fill="#fff" fill-rule="evenodd"/>
</svg>
