<svg width="64" height="64" enable-background="new" version="1.1" viewBox="0 0 64 64" xmlns="http://www.w3.org/2000/svg" xmlns:xlink="http://www.w3.org/1999/xlink">
<defs>
<filter id="folder-home-64px-a" x="-14.3%" y="-16.7%" width="128.6%" height="133.3%">
<feOffset dy="1" in="SourceAlpha" result="shadowOffsetOuter1"/>
<feGaussianBlur in="shadowOffsetOuter1" result="shadowBlurOuter1" stdDeviation="1.5"/>
<feComposite in="shadowBlurOuter1" in2="SourceAlpha" operator="out" result="shadowBlurOuter1"/>
<feColorMatrix in="shadowBlurOuter1" result="shadowMatrixOuter1" values="0 0 0 0 0   0 0 0 0 0   0 0 0 0 0  0 0 0 0.2 0"/>
<feMerge>
<feMergeNode in="shadowMatrixOuter1"/>
<feMergeNode in="SourceGraphic"/>
</feMerge>
</filter>
<linearGradient id="folder-home-64px-c" x1="25.923" x2="25.923" y1="-3.0699e-14" y2="19.685" gradientTransform="scale(1.0801 .92582)" gradientUnits="userSpaceOnUse">
<stop stop-color="#00B8FF" offset="0"/>
<stop stop-color="#2E5DFF" offset="1"/>
</linearGradient>
<path id="folder-home-64px-b" d="m31.279 3c0.7642 1.8177 2.5438 3 4.5156 3h13.205c3.866 0 7 3.134 7 7v28c0 3.866-3.134 7-7 7h-42c-3.866 0-7-3.134-7-7l-2.6645e-15 -34c-4.7345e-16 -3.866 3.134-7 7-7l19.764 1.1546e-14c1.9718-3.6222e-16 3.7514 1.1823 4.5156 3z"/>
<radialGradient id="radialGradient899" cx="22.45" cy=".62361" r="52.808" gradientTransform="matrix(1.2472 0 0 .80178 4 22.5)" gradientUnits="userSpaceOnUse">
<stop stop-color="#48D5FF" offset="0"/>
<stop stop-color="#0083F6" offset="1"/>
</radialGradient>
<filter id="filter920" x="-.05066" y="-.1244" width="1.1013" height="1.2488" color-interpolation-filters="sRGB">
<feGaussianBlur stdDeviation="1.075575"/>
</filter>
<filter id="folder-64px-a" x="-.143" y="-.167" width="1.286" height="1.333">
<feOffset dy="1" in="SourceAlpha" result="shadowOffsetOuter1"/>
<feGaussianBlur in="shadowOffsetOuter1" result="shadowBlurOuter1" stdDeviation="1.5"/>
<feComposite in="shadowBlurOuter1" in2="SourceAlpha" operator="out" result="shadowBlurOuter1"/>
<feColorMatrix in="shadowBlurOuter1" result="shadowMatrixOuter1" values="0 0 0 0 0   0 0 0 0 0   0 0 0 0 0  0 0 0 0.2 0"/>
<feMerge>
<feMergeNode in="shadowMatrixOuter1"/>
<feMergeNode in="SourceGraphic"/>
</feMerge>
</filter>
<linearGradient id="linearGradient921" x1="17.868" x2="17.868" y1="14.103" y2="17.939" gradientTransform="matrix(1.5671 0 0 .63814 4 11)" gradientUnits="userSpaceOnUse">
<stop stop-color="#FFF" offset="0"/>
<stop stop-color="#CEF5FF" offset="1"/>
</linearGradient>
<filter id="filter897-2" x="-.119" y="-.089251" width="1.238" height="1.1785" color-interpolation-filters="sRGB">
<feGaussianBlur stdDeviation="0.79334325"/>
</filter>
<linearGradient id="linearGradient1016-9" x1="32" x2="32" y1="30" y2="51" gradientTransform="translate(4.4764e-4,-3.8589e-4)" gradientUnits="userSpaceOnUse">
<stop stop-color="#FFF" offset="0"/>
<stop stop-color="#fff" stop-opacity=".6" offset="1"/>
</linearGradient>
</defs>
<use transform="translate(4,11)" width="100%" height="100%" fill="url(#folder-home-64px-c)" fill-rule="evenodd" filter="url(#folder-home-64px-a)" xlink:href="#folder-home-64px-b"/>
<g fill-rule="evenodd">
<rect x="6.523" y="20" width="50.955" height="20.75" rx="4.5254" ry="4.5254" fill-opacity=".2" filter="url(#filter920)" style="paint-order:stroke fill markers"/>
<rect x="6.523" y="20" width="50.955" height="20.75" rx="4.5" ry="4.5" fill="url(#linearGradient921)" filter="url(#folder-64px-a)"/>
<path d="m11.049 20c-2.5071 0-4.5254 2.0183-4.5254 4.5254v1c0-2.5071 2.0183-4.5254 4.5254-4.5254h41.904c2.5071 0 4.5254 2.0183 4.5254 4.5254v-1c0-2.5071-2.0183-4.5254-4.5254-4.5254z" opacity=".5" style="paint-order:stroke fill markers"/>
</g>
<path d="m4 23h56v29c0 3.866-3.134 7-7 7h-42c-3.866 0-7-3.134-7-7z" fill="url(#radialGradient899)" fill-rule="evenodd" filter="url(#folder-home-64px-a)"/>
<g fill-rule="evenodd">
<path d="m32 30.315c2.9456 0 5.3333 2.3878 5.3333 5.3333v2.6667c1.4727 0 2.6667 1.1939 2.6667 2.6667v8c0 1.4727-1.1939 2.6667-2.6667 2.6667h-10.667c-1.4727 0-2.6667-1.1939-2.6667-2.6667v-8c0-1.4727 1.1939-2.6667 2.6667-2.6667v-2.6667c0-2.9456 2.3878-5.3333 5.3333-5.3333zm0 2.6667c-1.4727 0-2.6667 1.1939-2.6667 2.6667v2.6667h5.3333v-2.6667c0-1.4727-1.1939-2.6667-2.6667-2.6667z" fill-opacity=".50196" filter="url(#filter897-2)"/>
<path d="m32 30.315c2.9456 0 5.3333 2.3878 5.3333 5.3333v2.6667c1.4727 0 2.6667 1.1939 2.6667 2.6667v8c0 1.4727-1.1939 2.6667-2.6667 2.6667h-10.667c-1.4727 0-2.6667-1.1939-2.6667-2.6667v-8c0-1.4727 1.1939-2.6667 2.6667-2.6667v-2.6667c0-2.9456 2.3878-5.3333 5.3333-5.3333zm0 2.6667c-1.4727 0-2.6667 1.1939-2.6667 2.6667v2.6667h5.3333v-2.6667c0-1.4727-1.1939-2.6667-2.6667-2.6667z" fill="url(#linearGradient1016-9)"/>
</g>
</svg>
