<svg width="24" height="24" version="1.1" viewBox="0 0 24 24" xmlns="http://www.w3.org/2000/svg" xmlns:xlink="http://www.w3.org/1999/xlink">
<defs>
<filter id="folder-applications-stack-a" x="-11.4%" y="-13.2%" width="122.7%" height="126.3%">
<feOffset in="SourceAlpha" result="shadowOffsetOuter1"/>
<feGaussianBlur in="shadowOffsetOuter1" result="shadowBlurOuter1" stdDeviation=".5"/>
<feComposite in="shadowBlurOuter1" in2="SourceAlpha" operator="out" result="shadowBlurOuter1"/>
<feColorMatrix in="shadowBlurOuter1" result="shadowMatrixOuter1" values="0 0 0 0 0   0 0 0 0 0   0 0 0 0 0  0 0 0 0.15 0"/>
<feMerge>
<feMergeNode in="shadowMatrixOuter1"/>
<feMergeNode in="SourceGraphic"/>
</feMerge>
</filter>
<linearGradient id="folder-applications-stack-i" x1="66.942%" x2="46.177%" y1="57.088%" y2="40.586%">
<stop stop-color="#5700FC" offset="0"/>
<stop stop-color="#5867FF" stop-opacity="0" offset="1"/>
</linearGradient>
<linearGradient id="folder-applications-stack-j" x1="6.6718" x2="4.6159" y1="6.8974" y2="2.1608" gradientTransform="scale(.76696 1.3038)" gradientUnits="userSpaceOnUse">
<stop stop-color="#D1C0FF" offset="0"/>
<stop stop-color="#8375FF" offset="1"/>
</linearGradient>
<linearGradient id="folder-applications-stack-k" x1="4.9959" x2="4.1913" y1="3.6779" y2="6.8748" gradientTransform="scale(.95308 1.0492)" gradientUnits="userSpaceOnUse">
<stop stop-color="#5C3FFF" offset="0"/>
<stop stop-color="#816AFF" stop-opacity=".054" offset="1"/>
</linearGradient>
<linearGradient id="folder-applications-stack-l" x1="50%" x2="50%" y1="-22.147%" y2="100%">
<stop stop-color="#B6A2FF" offset="0"/>
<stop stop-color="#6249F0" offset="1"/>
</linearGradient>
<linearGradient id="folder-applications-stack-m" x1="4.2339" x2="4.2339" y1=".68893" y2="25.319" gradientTransform="scale(1.5948 .62706)" gradientUnits="userSpaceOnUse">
<stop stop-color="#FFF" stop-opacity=".8" offset="0"/>
<stop stop-color="#882AFF" stop-opacity=".117" offset="1"/>
</linearGradient>
<linearGradient id="folder-applications-stack-n" x1="8.2752" x2="8.2752" y1="-.50745" y2="4.9551" gradientTransform="scale(1.118 .89443)" gradientUnits="userSpaceOnUse">
<stop stop-color="#CAA2FF" stop-opacity=".3" offset="0"/>
<stop stop-color="#6249F0" offset="1"/>
</linearGradient>
<linearGradient id="folder-applications-stack-o" x1="10.849" x2="13.191" y1="5.4889" y2="4.5055" gradientTransform="scale(.76696 1.3038)" gradientUnits="userSpaceOnUse">
<stop stop-color="#B9B7FF" offset="0"/>
<stop stop-color="#8174FF" offset="1"/>
</linearGradient>
<linearGradient id="folder-applications-stack-p" x1="10.179" x2="9.1556" y1="3.8626" y2="7.2124" gradientTransform="scale(1.0004 .99964)" gradientUnits="userSpaceOnUse">
<stop stop-color="#5C3FFF" offset="0"/>
<stop stop-color="#816AFF" stop-opacity=".054" offset="1"/>
</linearGradient>
<linearGradient id="linearGradient919" x1="9.9499" x2="9.9499" y1="-3.6331e-14" y2="7.5555" gradientTransform="matrix(1.1055 0 0 .90453 1.0002 4)" gradientUnits="userSpaceOnUse">
<stop stop-color="#7859ff" offset="0"/>
<stop stop-color="#4900d4" offset="1"/>
</linearGradient>
<filter id="folder-24-a" x="-.114" y="-.139" width="1.227" height="1.278">
<feOffset in="SourceAlpha" result="shadowOffsetOuter1"/>
<feGaussianBlur in="shadowOffsetOuter1" result="shadowBlurOuter1" stdDeviation=".5"/>
<feComposite in="shadowBlurOuter1" in2="SourceAlpha" operator="out" result="shadowBlurOuter1"/>
<feColorMatrix in="shadowBlurOuter1" result="shadowMatrixOuter1" values="0 0 0 0 0   0 0 0 0 0   0 0 0 0 0  0 0 0 0.15 0"/>
<feMerge>
<feMergeNode in="shadowMatrixOuter1"/>
<feMergeNode in="SourceGraphic"/>
</feMerge>
</filter>
<filter id="filter1010" x="-.0588" y="-.147" width="1.1176" height="1.294" color-interpolation-filters="sRGB">
<feGaussianBlur stdDeviation="0.49"/>
</filter>
<linearGradient id="linearGradient968" x1="-13" x2="-13" y1="16" y2="17" gradientTransform="translate(26 -9)" gradientUnits="userSpaceOnUse">
<stop stop-color="#fff" offset="0"/>
<stop stop-color="#cef5ff" offset="1"/>
</linearGradient>
<radialGradient id="radialGradient923" cx="8.4558" cy=".89436" r="19.907" gradientTransform="matrix(.78093 0 0 .76871 5.3969 8.313)" gradientUnits="userSpaceOnUse">
<stop stop-color="#7859ff" offset="0"/>
<stop stop-color="#7859ff" offset="1"/>
</radialGradient>
<linearGradient id="linearGradient1083" x1="6.3396" x2="4.3731" y1="24.204" y2="22.641" gradientTransform="scale(1.6297 .6136)" gradientUnits="userSpaceOnUse" xlink:href="#folder-applications-stack-i"/>
<linearGradient id="linearGradient1085" x1="9.3285" x2="7.362" y1="24.204" y2="22.641" gradientTransform="scale(1.6297 .6136)" gradientUnits="userSpaceOnUse" xlink:href="#folder-applications-stack-i"/>
<linearGradient id="linearGradient1087" x1="2.9138" x2="2.9138" y1="1.7251" y2="8.3312" gradientTransform="scale(1.2019 .83205)" gradientUnits="userSpaceOnUse" xlink:href="#folder-applications-stack-l"/>
<linearGradient id="linearGradient1089" x1="8.3222" x2="8.3222" y1="1.7251" y2="8.3312" gradientTransform="scale(1.2019 .83205)" gradientUnits="userSpaceOnUse" xlink:href="#folder-applications-stack-l"/>
</defs>
<path d="m14 5c0.30643 0.61287 0.93283 1 1.618 1h4.7964c1.428 0 2.5856 1.1576 2.5856 2.5856v10.829c0 1.428-1.1576 2.5856-2.5856 2.5856h-16.829c-1.428 0-2.5856-1.1576-2.5856-2.5856v-12.829c0-1.428 1.1576-2.5856 2.5856-2.5856h8.7964c0.68521 0 1.3116 0.38713 1.618 1z" fill="url(#linearGradient919)" fill-rule="evenodd" filter="url(#folder-24-a)"/>
<rect x="2.0002" y="7" width="20" height="8" rx="1.6573" ry="1.6573" fill-opacity=".2" fill-rule="evenodd" filter="url(#filter1010)" style="paint-order:stroke fill markers"/>
<rect x="2.0002" y="7" width="20" height="8" rx="1.6573" ry="1.6573" fill="url(#linearGradient968)" fill-rule="evenodd" style="paint-order:stroke fill markers"/>
<path d="M 3.6582,7 C 2.74008,7 2,7.74008 2,8.6582 v 1 C 2,8.74008 2.74008,8 3.6582,8 h 16.684 c 0.91812,0 1.6582,0.74008 1.6582,1.6582 v -1 C 22.0004,7.74008 21.26032,7 20.3422,7 Z" fill-rule="evenodd" opacity=".5" style="paint-order:stroke fill markers"/>
<path d="m1.0002 9.0005h22v10.414c0 1.428-1.1576 2.5856-2.5856 2.5856h-16.829c-1.428 0-2.5856-1.1576-2.5856-2.5856z" fill="url(#radialGradient923)" fill-rule="evenodd" filter="url(#folder-24-a)"/>
<polygon transform="translate(1.5,4.5)" points="0 13.523 10.152 17.345 15.434 15.356 5.281 11.534" fill="url(#linearGradient1083)" fill-rule="evenodd" filter="url(#folder-applications-stack-a)"/>
<polygon transform="matrix(-1,0,0,1,26.676,4.5)" points="20.305 15.356 10.152 11.534 4.871 13.523 15.024 17.345" fill="url(#linearGradient1085)" fill-rule="evenodd" filter="url(#folder-applications-stack-a)"/>
<g transform="translate(4.748,9.568)" fill-rule="evenodd" filter="url(#folder-applications-stack-a)">
<polygon points="1.752 2.432 6.752 4.364 6.752 10.932 1.752 9" fill="url(#folder-applications-stack-j)"/>
<polygon points="1.752 2.432 6.748 4.346 5.983 7.932 1.752 6.421" fill="url(#folder-applications-stack-k)" opacity=".5"/>
<polygon points="1.752 2.432 6.752 4.364 5.348 6.932 0.252 4.886" fill="url(#linearGradient1087)"/>
<polygon points="1.752 2.432 6.752 4.364 11.752 2.432 6.752 0.432" fill="url(#folder-applications-stack-m)"/>
<polygon points="6.756 0.432 6.752 4.432 11.752 2.432" fill="url(#folder-applications-stack-n)"/>
<polygon points="6.752 2.432 11.752 4.364 11.752 10.932 6.752 8.932" fill="url(#folder-applications-stack-o)"/>
<polygon transform="matrix(-1,0,0,1,19,0)" points="6.748 2.432 12.252 4.365 10.979 7.932 6.748 6.421" fill="url(#folder-applications-stack-p)" opacity=".5"/>
<polygon transform="matrix(-1,0,0,1,20.005,0)" points="8.252 2.432 13.252 4.364 11.848 6.932 6.752 4.886" fill="url(#linearGradient1089)"/>
</g>
<g transform="translate(2.312,4.5)" fill-rule="evenodd" filter="url(#folder-applications-stack-a)">
<circle cx="11.772" cy="5.568" r="1" fill="#ffd506"/>
<circle cx="6.292" cy="4.972" r="1" fill="#ff00fe"/>
<circle cx=".812" cy="4.375" r="1" fill="#4000e0"/>
<polygon transform="rotate(23,8.651,2.908)" points="8.249 2.512 9.059 2.506 9.053 3.304 8.243 3.31" fill="#4000e0"/>
<polygon transform="rotate(23,16.781,7.022)" points="16.58 6.824 16.985 6.821 16.982 7.22 16.577 7.223" fill="#eb5959"/>
<polygon transform="rotate(45,10.03,7.838)" points="9.831 7.639 10.233 7.635 10.228 8.037 9.827 8.041" fill="#4000e0"/>
<polygon transform="rotate(45,9.624,9.031)" points="9.425 8.832 9.827 8.828 9.823 9.23 9.421 9.234" fill="#ffd506"/>
<circle cx="9.946" cy="6.563" r="1" fill="#fff"/>
<circle cx="8.322" cy="8.153" r="1" fill="#fff"/>
<polygon transform="rotate(45,10.03,4.656)" points="9.831 4.457 10.233 4.453 10.228 4.855 9.827 4.859" fill="#8a0991"/>
<polygon transform="rotate(72,8.843,7.201)" points="8.446 7.001 9.243 6.996 9.241 7.401 8.444 7.406" fill="#fff" opacity=".6"/>
<polygon transform="rotate(45,4.752,5.054)" points="4.554 4.855 4.955 4.851 4.951 5.253 4.549 5.257" fill="#4000e0"/>
<polygon transform="rotate(45,7.594,5.452)" points="7.395 5.253 7.797 5.249 7.793 5.651 7.391 5.655" fill="#9757ff"/>
<polygon transform="rotate(45,4.752,4.259)" points="4.554 4.06 4.955 4.056 4.951 4.457 4.549 4.461" fill="#ffd506"/>
<polygon transform="rotate(45,13.683,5.568)" points="13.285 5.17 14.089 5.162 14.081 5.966 13.277 5.974" fill="#7dac00" opacity=".9"/>
<polygon transform="rotate(45,13.277,4.656)" points="13.078 4.457 13.48 4.453 13.476 4.855 13.074 4.859" fill="#8a0991"/>
<polygon transform="rotate(45,12.658,7.58)" points="12.461 7.181 12.863 7.177 12.855 7.981 12.453 7.985" fill="#00c894"/>
<polygon transform="rotate(45,11.129,7.324)" points="10.731 6.926 11.534 6.918 11.526 7.722 10.723 7.73" fill="#9757ff"/>
<polygon transform="rotate(45,12.633,2.832)" points="12.037 2.236 13.242 2.223 13.23 3.429 12.024 3.441" fill="#00c894"/>
<polygon transform="rotate(24,16.766,1.71)" points="15.762 0.72 17.785 0.705 17.769 2.701 15.747 2.716" fill="#396eff"/>
<polygon transform="rotate(-51,2.203,2.076)" points="0.988 0.856 3.394 0.88 3.418 3.296 1.012 3.272" fill="#88a1ff"/>
<polygon transform="rotate(45 .861 6.014)" points="0.265 5.418 1.47 5.405 1.458 6.611 0.252 6.623" fill="#ff8100" fill-opacity=".8"/>
<polygon transform="rotate(23,4.603,9.01)" points="4.402 8.813 4.807 8.81 4.804 9.209 4.399 9.212" fill="#7dac00" opacity=".5"/>
<polygon transform="rotate(45,4.777,7.183)" points="4.377 6.986 5.181 6.978 5.177 7.38 4.373 7.388" fill="#ff00fe"/>
<polygon points="3.441 6.027 3.486 6.288 3.248 6.165 3.009 6.288 3.054 6.027 2.861 5.843 3.128 5.805 3.248 5.568 3.367 5.805 3.634 5.843" fill="#fe002e"/>
<polygon transform="rotate(-37,7.446,2.517)" points="7.64 2.618 7.687 2.88 7.449 2.754 7.214 2.876 7.256 2.614 7.063 2.426 7.327 2.391 7.443 2.153 7.564 2.393 7.829 2.434" fill="#fe002e"/>
<polygon transform="rotate(-37,8.258,6.096)" points="8.452 6.197 8.499 6.46 8.261 6.334 8.026 6.455 8.068 6.193 7.875 6.006 8.139 5.97 8.255 5.733 8.376 5.972 8.641 6.013" fill="#fe9d0b"/>
<polygon transform="rotate(-37,11.372,1.746)" points="11.662 1.897 11.734 2.291 11.377 2.102 11.024 2.284 11.088 1.892 10.797 1.61 11.194 1.557 11.368 1.201 11.549 1.56 11.947 1.622" fill="#fe9d0b"/>
<polygon transform="rotate(-37,8.96,8.934)" points="9.057 8.984 9.081 9.116 8.962 9.053 8.844 9.113 8.865 8.983 8.768 8.889 8.901 8.871 8.959 8.752 9.019 8.872 9.152 8.892" fill="#fe9d0b"/>
<polygon transform="rotate(45,15.737,4.68)" points="15.342 4.082 16.145 4.074 16.133 5.279 15.329 5.287" fill="#88a1ff" opacity=".8"/>
<polygon transform="rotate(-18,5.233,2.617)" points="4.621 2.016 5.837 2.023 5.844 3.219 4.629 3.212" fill="#00c894"/>
<polygon transform="rotate(7,6.6,6.07)" points="6.196 5.672 7.007 5.671 7.005 6.466 6.194 6.468" fill="#eb5959"/>
</g>
</svg>
