<svg width="24" height="24" version="1.1" viewBox="0 0 24 24" xmlns="http://www.w3.org/2000/svg" xmlns:xlink="http://www.w3.org/1999/xlink">
<defs>
<path id="folder-videos-j" d="m1.0971 5.8666c-0.60589 0.31317-1.0971 0.05645-1.0971-0.57476v-4.5843c0-0.63061 0.49393-0.88651 1.0971-0.57476l4.4495 2.2999c0.60589 0.31317 0.60314 0.82235 0 1.1341l-4.4495 2.2999z"/>
<linearGradient id="linearGradient919" x1="9.9499" x2="9.9499" y1="-3.6331e-14" y2="7.5555" gradientTransform="matrix(1.1055 0 0 .90453 1 3)" gradientUnits="userSpaceOnUse">
<stop stop-color="#9c3" offset="0"/>
<stop stop-color="#28851e" offset="1"/>
</linearGradient>
<filter id="folder-24-a" x="-.114" y="-.139" width="1.227" height="1.278">
<feOffset in="SourceAlpha" result="shadowOffsetOuter1"/>
<feGaussianBlur in="shadowOffsetOuter1" result="shadowBlurOuter1" stdDeviation=".5"/>
<feComposite in="shadowBlurOuter1" in2="SourceAlpha" operator="out" result="shadowBlurOuter1"/>
<feColorMatrix in="shadowBlurOuter1" result="shadowMatrixOuter1" values="0 0 0 0 0   0 0 0 0 0   0 0 0 0 0  0 0 0 0.15 0"/>
<feMerge>
<feMergeNode in="shadowMatrixOuter1"/>
<feMergeNode in="SourceGraphic"/>
</feMerge>
</filter>
<filter id="filter1010" x="-.0588" y="-.147" width="1.1176" height="1.294" color-interpolation-filters="sRGB">
<feGaussianBlur stdDeviation="0.49"/>
</filter>
<linearGradient id="linearGradient968" x1="-13" x2="-13" y1="16" y2="17" gradientTransform="translate(0,-6)" gradientUnits="userSpaceOnUse">
<stop stop-color="#fff" offset="0"/>
<stop stop-color="#cef5ff" offset="1"/>
</linearGradient>
<radialGradient id="radialGradient923" cx="8.4558" cy=".89436" r="19.907" gradientTransform="matrix(1.3009 0 0 .76871 1 7.313)" gradientUnits="userSpaceOnUse">
<stop stop-color="#ccff42" offset="0"/>
<stop stop-color="#50a100" offset="1"/>
</radialGradient>
</defs>
<g fill-rule="evenodd">
<path d="m14 4c0.30643 0.61287 0.93283 1 1.618 1h4.7964c1.428 0 2.5856 1.1576 2.5856 2.5856v10.829c0 1.428-1.1576 2.5856-2.5856 2.5856h-16.829c-1.428 0-2.5856-1.1576-2.5856-2.5856v-12.829c0-1.428 1.1576-2.5856 2.5856-2.5856h8.7964c0.6852 0 1.3116 0.38713 1.618 1z" fill="url(#linearGradient919)" filter="url(#folder-24-a)"/>
<g transform="translate(26,-4)">
<rect x="-24" y="10" width="20" height="8" rx="1.6573" ry="1.6573" fill-opacity=".2" filter="url(#filter1010)" style="paint-order:stroke fill markers"/>
<rect x="-24" y="10" width="20" height="8" rx="1.6573" ry="1.6573" fill="url(#linearGradient968)" style="paint-order:stroke fill markers"/>
<path d="m-22.342 10c-0.91812 0-1.6582 0.74008-1.6582 1.6582v1c0-0.91812 0.74008-1.6582 1.6582-1.6582h16.684c0.91812 0 1.6582 0.74008 1.6582 1.6582v-1c0-0.91812-0.74008-1.6582-1.6582-1.6582z" opacity=".5" style="paint-order:stroke fill markers"/>
</g>
<path d="m1 8.0005h22v10.414c0 1.428-1.1576 2.5856-2.5856 2.5856h-16.829c-1.428 0-2.5856-1.1576-2.5856-2.5856z" fill="url(#radialGradient923)" filter="url(#folder-24-a)"/>
</g>
<g transform="translate(7,9)" fill="none" fill-rule="evenodd" stroke="#fff">
<path d="m5 9.5c2.4853 0 4.5-2.0147 4.5-4.5s-2.0147-4.5-4.5-4.5-4.5 2.0147-4.5 4.5 2.0147 4.5 4.5 4.5z"/>
<g transform="translate(3,2)">
<mask id="folder-videos-k" fill="#fff">
<use width="100%" height="100%" xlink:href="#folder-videos-j"/>
</mask>
<path d="m0.86748 5.4224 4.4495-2.2999c0.24397-0.1261 0.24396-0.11966 0-0.24575l-4.4495-2.2999c-0.28629-0.14798-0.36748-0.10558-0.36748 0.13059v4.5843c0 0.23789 0.079434 0.27947 0.36748 0.13059z"/>
<rect x="2.5" y=".5" width="1" height="5" mask="url(#folder-videos-k)"/>
</g>
</g>
</svg>
