<svg width="24" height="24" version="1.1" viewBox="0 0 24 24" xmlns="http://www.w3.org/2000/svg">
 <defs>
  <filter id="deepin-show-desktop-a" x="-11.4%" y="-12.5%" width="122.7%" height="125%">
   <feOffset in="SourceAlpha" result="shadowOffsetOuter1"/>
   <feGaussianBlur in="shadowOffsetOuter1" result="shadowBlurOuter1" stdDeviation=".5"/>
   <feComposite in="shadowBlurOuter1" in2="SourceAlpha" operator="out" result="shadowBlurOuter1"/>
   <feColorMatrix in="shadowBlurOuter1" result="shadowMatrixOuter1" values="0 0 0 0 0   0 0 0 0 0   0 0 0 0 0  0 0 0 0.15 0"/>
   <feMerge>
    <feMergeNode in="shadowMatrixOuter1"/>
    <feMergeNode in="SourceGraphic"/>
   </feMerge>
  </filter>
  <radialGradient id="radialGradient1025" cx="11.989" cy="1.2024" r="13.497" gradientTransform="matrix(1.6522 0 0 1.4756 -7.8193 .22573)" gradientUnits="userSpaceOnUse">
   <stop stop-color="#value_light" offset="0"/>
   <stop stop-color="#value_dark" offset="1"/>
  </radialGradient>
  <radialGradient id="radialGradient1025-3" cx="11.989" cy="1.2024" r="13.497" gradientTransform="matrix(1.6522 0 0 1.4756 -7.8193 .22573)" gradientUnits="userSpaceOnUse">
   <stop stop-color="#fff" stop-opacity=".4" offset="0"/>
   <stop stop-color="#fff" stop-opacity="0" offset="1"/>
  </radialGradient>
  <filter id="filter902" x="-6.1112e-8" y="-6.7226e-8" width="1" height="1" color-interpolation-filters="sRGB">
   <feFlood flood-color="rgb(0,0,0)" flood-opacity=".49804" result="flood"/>
   <feComposite in="flood" in2="SourceGraphic" operator="in" result="composite1"/>
   <feGaussianBlur in="composite1" result="blur" stdDeviation="5.6020669e-07"/>
   <feOffset dx="0" dy="0" result="offset"/>
   <feComposite in="SourceGraphic" in2="offset" result="composite2"/>
  </filter>
 </defs>
 <path d="m21.009 2c1.0997 0 1.9912 0.89821 1.9912 1.9908v16.018c0 1.0995-0.88967 1.9908-1.9912 1.9908h-18.018c-1.0997 0-1.9912-0.89821-1.9912-1.9908v-16.018c0-1.0995 0.88967-1.9908 1.9912-1.9908z" fill="url(#radialGradient1025)" fill-rule="evenodd" filter="url(#deepin-show-desktop-a)"/>
 <path d="m21.009 2c1.0997 0 1.9912 0.89821 1.9912 1.9908v16.018c0 1.0995-0.88967 1.9908-1.9912 1.9908h-18.018c-1.0997 0-1.9912-0.89821-1.9912-1.9908v-16.018c0-1.0995 0.88967-1.9908 1.9912-1.9908z" fill="url(#radialGradient1025-3)" fill-rule="evenodd" filter="url(#filter902)" opacity=".349" style="mix-blend-mode:normal"/>
 <path d="m2 18.999c0-0.55171 0.45531-0.99896 0.9918-0.99896h18.016c0.54776 0 0.9918 0.44266 0.9918 0.99896v1.0021c0 0.55171-0.45531 0.99896-0.9918 0.99896h-18.016c-0.54776 0-0.9918-0.44266-0.9918-0.99896z" fill="#a4ffcc" fill-rule="evenodd" filter="url(#deepin-show-desktop-a)" opacity=".7"/>
 <rect x="4" y="6" width="3" height="3" rx=".5" fill="#fff" fill-rule="evenodd" filter="url(#deepin-show-desktop-a)"/>
 <rect x="4" y="11" width="3" height="3" rx=".5" fill="#fff" fill-rule="evenodd" filter="url(#deepin-show-desktop-a)"/>
</svg>
