<svg width="24" height="24" version="1.1" viewBox="0 0 24 24" xmlns="http://www.w3.org/2000/svg">
<defs>
<filter id="deepin-show-desktop-a" x="-11.4%" y="-12.5%" width="122.7%" height="125%">
<feOffset in="SourceAlpha" result="shadowOffsetOuter1"/>
<feGaussianBlur in="shadowOffsetOuter1" result="shadowBlurOuter1" stdDeviation=".5"/>
<feComposite in="shadowBlurOuter1" in2="SourceAlpha" operator="out" result="shadowBlurOuter1"/>
<feColorMatrix in="shadowBlurOuter1" result="shadowMatrixOuter1" values="0 0 0 0 0   0 0 0 0 0   0 0 0 0 0  0 0 0 0.15 0"/>
<feMerge>
<feMergeNode in="shadowMatrixOuter1"/>
<feMergeNode in="SourceGraphic"/>
</feMerge>
</filter>
<radialGradient id="radialGradient852" cx="11.989" cy="1.2024" r="13.497" gradientTransform="matrix(1.6386 0 0 1.4896 -7.6566 .20886)" gradientUnits="userSpaceOnUse">
<stop stop-color="#ccff42" offset="0"/>
<stop stop-color="#46a926" offset="1"/>
</radialGradient>
</defs>
<path d="m21.009 2c1.0997 0 1.9912 0.89821 1.9912 1.9908v16.018c0 1.0995-0.88967 1.9908-1.9912 1.9908h-18.018c-1.0997 0-1.9912-0.89821-1.9912-1.9908v-16.018c0-1.0995 0.88967-1.9908 1.9912-1.9908z" fill="url(#radialGradient852)" fill-rule="evenodd" filter="url(#deepin-show-desktop-a)"/>
<path d="m2 18.999c0-0.55171 0.45531-0.99896 0.9918-0.99896h18.016c0.54776 0 0.9918 0.44266 0.9918 0.99896v1.0021c0 0.55171-0.45531 0.99896-0.9918 0.99896h-18.016c-0.54776 0-0.9918-0.44266-0.9918-0.99896z" fill="#ccff42" fill-rule="evenodd" filter="url(#deepin-show-desktop-a)" opacity=".75"/>
<rect x="4" y="6" width="3" height="3" rx=".5" fill="#fff" fill-rule="evenodd" filter="url(#deepin-show-desktop-a)"/>
<rect x="4" y="11" width="3" height="3" rx=".5" fill="#fff" fill-rule="evenodd" filter="url(#deepin-show-desktop-a)"/>
</svg>
