<svg width="16" height="16" version="1.1" xmlns="http://www.w3.org/2000/svg">
<path d="m4.5 11 3 3s0.5 0.5 1 0l3-3z" fill="#666"/>
<path class="warning" d="m8.14 2.0141c-2.67-0.04-5.25 1.007-7.15 2.9l-0.7 0.701c-0.39 0.388-0.39 1.014 0 1.403l2.1 2.101c0.39 0.388 1.02 0.388 1.41 0l1.2-1.203v-2.258l0.2-0.082c1.78-0.785 3.82-0.782 5.601 0.01l0.2 0.073v2.257l1.21 1.203c0.379 0.389 1.01 0.389 1.399 0l2.101-2.101c0.389-0.388 0.389-1.014 0-1.402l-0.701-0.702c-1.83-1.822-4.289-2.863-6.87-2.9z" fill="#f44336"/>
</svg>
