<svg width="16" height="16" version="1.1" xmlns="http://www.w3.org/2000/svg">
<path d="m8 0a8 8 0 0 0-8 8 8 8 0 0 0 8 8 8 8 0 0 0 8-8 8 8 0 0 0-8-8zm2.3047 2.4629a6 6 0 0 1 2.8828 2.5371h-1.6836c-0.28127-0.85384-0.68605-1.7006-1.1992-2.5371zm-4.6113 0.0039063c-0.51206 0.83526-0.91641 1.6806-1.1973 2.5332h-1.6855a6 6 0 0 1 2.8828-2.5332zm2.3066 0.14258c0.5964 0.81085 1.0528 1.6066 1.377 2.3906h-2.7539c0.32412-0.78401 0.78055-1.5798 1.377-2.3906zm-5.9102 4.3906h1.9668c-0.036816 0.33775-0.057608 0.67642-0.056641 1.0156 9.374e-4 0.32866 0.018432 0.65748 0.054688 0.98438h-1.9688a6 6 0 0 1-0.085938-1 6 6 0 0 1 0.089844-1zm3.9863 0h3.8477c0.04619 0.33803 0.077128 0.67454 0.076172 1.0098-9.377e-4 0.32885-0.033815 0.65884-0.080078 0.99023h-3.8398c-0.046263-0.3314-0.07914-0.66138-0.080078-0.99023-9.559e-4 -0.33523 0.029982-0.67173 0.076172-1.0098zm5.8672 0h1.9707a6 6 0 0 1 0.085938 1 6 6 0 0 1-0.089844 1h-1.9648c0.036255-0.3269 0.053751-0.65572 0.054688-0.98438 9.67e-4 -0.3392-0.019824-0.67787-0.056641-1.0156zm-9.1309 4h1.6875c0.28293 0.85633 0.6906 1.7024 1.2031 2.5391a6 6 0 0 1-2.8906-2.5391zm3.8184 0h2.7383c-0.32444 0.78349-0.77847 1.5771-1.3691 2.3848-0.59067-0.80767-1.0447-1.6013-1.3691-2.3848zm4.8691 0h1.6895a6 6 0 0 1-2.8906 2.5352c0.51143-0.83543 0.91866-1.6801 1.2012-2.5352z" fill="#666"/>
</svg>
