<svg width="16" height="16" version="1.1" xmlns="http://www.w3.org/2000/svg">
<defs>
<style id="current-color-scheme" type="text/css">.ColorScheme-Text { color:#444444; } .ColorScheme-Highlight { color:#4285f4; }</style>
</defs>
<path class="ColorScheme-Text" d="m10.789 1c-0.942 0-1.8214 0.4336-2.412 1.1895l-5.6836 7.2734c-0.5207 0.6661-0.7587 1.5031-0.6719 2.3551 0.0868 0.853 0.4894 1.619 1.1328 2.159l0.3691 0.31c0.5488 0.46 1.2391 0.713 1.9453 0.713 0.1091 0 0.2197-6e-3 0.3282-0.018 0.8181-0.089 1.5549-0.502 2.0722-1.158 0.0018-2e-3 0.0025-3e-3 3.8339-4.906 0.683-0.8735 0.552-2.1584-0.291-2.8653l-0.193-0.1621c-0.349-0.2921-0.788-0.4531-1.2366-0.4531-0.5981 0-1.1563 0.274-1.5312 0.7539l-3.8282 4.8986c-0.25 0.32-0.2016 0.792 0.1075 1.051 0.1279 0.107 0.2888 0.166 0.4531 0.166 0.2189 0 0.4229-0.102 0.5605-0.278l3.8282-4.8981c0.1001-0.1281 0.2483-0.2012 0.4082-0.2012 0.1215 0 0.2355 0.042 0.3305 0.1211l0.193 0.1621c0.109 0.0912 0.177 0.2224 0.191 0.3672 0.015 0.1447-0.025 0.2857-0.113 0.3984l-3.8222 4.8925c-0.3157 0.404-0.7855 0.635-1.2891 0.635-0.3776 0-0.7477-0.135-1.041-0.381l-0.3692-0.309c-0.3439-0.288-0.5591-0.698-0.6054-1.154-0.0464-0.456 0.081-0.903 0.3594-1.26l5.6835-7.2731c0.3157-0.4039 0.785-0.6367 1.289-0.6367 0.378 0 0.748 0.135 1.041 0.3808l0.369 0.3106c0.71 0.5951 0.821 1.6767 0.246 2.4121-0.121 0.1551-0.176 0.3504-0.156 0.5488s0.114 0.3766 0.264 0.502c0.128 0.1072 0.289 0.166 0.453 0.166 0.219 0 0.423-0.0993 0.56-0.2754 0.52-0.6653 0.759-1.502 0.672-2.3555-0.087-0.8534-0.488-1.6198-1.131-2.1582l-0.369-0.3105c-0.549-0.46-1.241-0.7129-1.947-0.7129z" fill="#666"/>
</svg>
