<svg width="16" height="16" version="1.1" xmlns="http://www.w3.org/2000/svg">
<path d="m12.98 2.5-11.025 1.002-0.4551 0.498v10l0.8203 0.385 5.7481-4.7912 5.7086 2.8532 0.719-0.502-1-8.9997zm-0.423 1.043 0.845 7.6-5.1793-2.5903-0.543 0.0625-5.1797 4.3168v-8.475z" fill="#666"/>
<path d="m10 9a2 2 0 0 1-2 2 2 2 0 0 1-2-2 2 2 0 0 1 2-2 2 2 0 0 1 2 2zm-6-5a2 2 0 0 1-2 2 2 2 0 0 1-2-2 2 2 0 0 1 2-2 2 2 0 0 1 2 2zm0 10a2 2 0 0 1-2 2 2 2 0 0 1-2-2 2 2 0 0 1 2-2 2 2 0 0 1 2 2zm12-2a2 2 0 0 1-2 2 2 2 0 0 1-2-2 2 2 0 0 1 2-2 2 2 0 0 1 2 2zm-1-9a2 2 0 0 1-2 2 2 2 0 0 1-2-2 2 2 0 0 1 2-2 2 2 0 0 1 2 2z" fill="#666"/>
</svg>
