<svg width="16" height="16" version="1.1" xmlns="http://www.w3.org/2000/svg">
<path d="m8.5254 0.13284-0.0293 0.02929c-0.4002 0.40013-0.624 0.93107-0.627 1.4942-0.0028 0.5224 0.184 1.0157 0.5274 1.4003l-3.3399 3.3399c-0.3846-0.3434-0.8779-0.5282-1.4004-0.5254-0.563 3e-3 -1.094 0.2248-1.4941 0.625l-0.0293 0.0293c-0.1753 0.1752-0.1774 0.4594-0.0039 0.6328l2.5898 2.5879-4.3261 4.3279-0.39257 1.926 1.9258-0.393 4.3281-4.326 2.5879 2.59c0.0867 0.087 0.2022 0.13 0.3164 0.129s0.2289-0.045 0.3164-0.133l0.0293-0.029c0.4002-0.4 0.6221-0.931 0.6251-1.494 3e-3 -0.523-0.1842-1.016-0.5274-1.401l3.3414-3.3414c0.385 0.3432 0.878 0.5301 1.401 0.5273 0.563-3e-3 1.094-0.2248 1.494-0.625l0.029-0.0293c0.088-0.0875 0.132-0.2022 0.133-0.3164s-0.042-0.2297-0.129-0.3164l-6.7128-6.7129c-0.0867-0.08674-0.2021-0.12893-0.3164-0.12893s-0.2288 0.04517-0.3164 0.13284z" fill="#666"/>
</svg>
