<svg width="16" height="16" version="1.1" viewBox="0 0 16 16" xmlns="http://www.w3.org/2000/svg" xmlns:xlink="http://www.w3.org/1999/xlink">
 <defs>
  <linearGradient id="application-x-7zip-c" x1="6.4807" x2="6.4807" y1="2.7527e-16" y2="12.961" gradientTransform="scale(.92582 1.0801)" gradientUnits="userSpaceOnUse">
   <stop stop-color="#5C42B1" offset="0"/>
   <stop stop-color="#3E1888" offset=".99345"/>
  </linearGradient>
  <path id="application-x-7zip-b" d="m2.0085 14c-1.1093 0-2.0085-0.89706-2.0085-2.0059v-9.9883c0-1.1078 0.90195-2.0059 2.0085-2.0059l7.9829-1.1817e-15c1.1093-1.6421e-16 2.0085 0.89706 2.0085 2.0059v9.9883c0 1.1078-0.90195 2.0059-2.0085 2.0059h-7.9829z"/>
  <filter id="application-x-7zip-a" x="-16.7%" y="-7.1%" width="133.3%" height="128.6%">
   <feOffset dy="1" in="SourceAlpha" result="shadowOffsetOuter1"/>
   <feGaussianBlur in="shadowOffsetOuter1" result="shadowBlurOuter1" stdDeviation=".5"/>
   <feColorMatrix in="shadowBlurOuter1" values="0 0 0 0 0.241013895   0 0 0 0 0   0 0 0 0 0.621603261  0 0 0 0.5 0"/>
  </filter>
 </defs>
 <use transform="translate(2,1)" width="100%" height="100%" fill="#000000" fill-rule="evenodd" filter="url(#application-x-7zip-a)" xlink:href="#application-x-7zip-b"/>
 <use transform="translate(2,1)" width="100%" height="100%" fill="url(#application-x-7zip-c)" fill-rule="evenodd" xlink:href="#application-x-7zip-b"/>
 <circle cx="4.5" cy="8.5" r=".5" fill="#fff"/>
 <path d="m11 7a2 2 0 0 0-2 2 2 2 0 0 0 2 2 2 2 0 0 0 2-2 2 2 0 0 0-2-2zm0 0.8a1.2 1.2 0 0 1 1.2 1.2 1.2 1.2 0 0 1-1.2 1.2 1.2 1.2 0 0 1-1.2-1.2 1.2 1.2 0 0 1 1.2-1.2z" fill="#fff"/>
 <path d="m9.6406 9.195-0.84141 0.805h-5.2953l-1.5039 1.549v1.348l1.8422-1.8969h5.2781l1.0734-1.0273z" fill="#fff"/>
 <circle cx="6.5" cy="8.5" r=".5" fill="#fff"/>
</svg>
