<svg width="16" height="16" version="1.1" viewBox="0 0 16 16" xmlns="http://www.w3.org/2000/svg" xmlns:xlink="http://www.w3.org/1999/xlink">
 <defs>
  <linearGradient id="x-office-drawing-c" x1="8.641" x2="8.641" y1=".92582" y2="13.622" gradientTransform="scale(.92582 1.0801)" gradientUnits="userSpaceOnUse">
   <stop stop-color="#BA58FF" offset="0"/>
   <stop stop-color="#7E21FF" offset="1"/>
  </linearGradient>
  <path id="x-office-drawing-b" d="m4.0085 15c-1.1093 0-2.0085-0.89706-2.0085-2.0059v-9.9883c0-1.1078 0.90195-2.0059 2.0085-2.0059h7.9829c1.1093 0 2.0085 0.89706 2.0085 2.0059v9.9883c0 1.1078-0.90195 2.0059-2.0085 2.0059h-7.9829z"/>
  <filter id="x-office-drawing-a" x="-16.7%" y="-7.1%" width="133.3%" height="128.6%">
   <feOffset dy="1" in="SourceAlpha" result="shadowOffsetOuter1"/>
   <feGaussianBlur in="shadowOffsetOuter1" result="shadowBlurOuter1" stdDeviation=".5"/>
   <feColorMatrix in="shadowBlurOuter1" values="0 0 0 0 0.497310222   0 0 0 0 0   0 0 0 0 0.911005435  0 0 0 0.5 0"/>
  </filter>
 </defs>
 <use width="100%" height="100%" fill="#000000" fill-rule="evenodd" filter="url(#x-office-drawing-a)" xlink:href="#x-office-drawing-b"/>
 <use width="100%" height="100%" fill="url(#x-office-drawing-c)" fill-rule="evenodd" xlink:href="#x-office-drawing-b"/>
 <path d="m8 6-2.1 6.25-1.1531-3.25h-2.7469v1h2.0484l1.9516 5 2-6 1 4 1-4 1.525 4h2.475v-1h-1.8l-2.2-5-1 3z" fill="#fff"/>
</svg>
