<svg width="16" height="16" version="1.1" viewBox="0 0 16 16" xmlns="http://www.w3.org/2000/svg" xmlns:xlink="http://www.w3.org/1999/xlink">
 <defs>
  <path id="text-x-po-b" d="m4.0085 15c-1.1093 0-2.0085-0.89706-2.0085-2.0059v-9.9883c0-1.1078 0.90195-2.0059 2.0085-2.0059h7.9829c1.1093 0 2.0085 0.89706 2.0085 2.0059v9.9883c0 1.1078-0.90195 2.0059-2.0085 2.0059h-7.9829z"/>
  <filter id="text-x-po-a" x="-16.7%" y="-7.1%" width="133.3%" height="128.6%">
   <feOffset dy="1" in="SourceAlpha" result="shadowOffsetOuter1"/>
   <feGaussianBlur in="shadowOffsetOuter1" result="shadowBlurOuter1" stdDeviation=".5"/>
   <feColorMatrix in="shadowBlurOuter1" values="0 0 0 0 0.0156862745   0 0 0 0 0.580392157   0 0 0 0 0.898039216  0 0 0 0.5 0"/>
  </filter>
  <linearGradient id="x-media-podcast-c" x1="8.641" x2="8.641" y1=".92582" y2="13.887" gradientTransform="scale(.92582 1.0801)" gradientUnits="userSpaceOnUse">
   <stop stop-color="#5C42B1" offset="0"/>
   <stop stop-color="#3E1888" offset=".99345"/>
  </linearGradient>
 </defs>
 <use width="100%" height="100%" fill="#000000" fill-rule="evenodd" filter="url(#text-x-po-a)" xlink:href="#text-x-po-b"/>
 <path d="m4.0085 15c-1.1093 0-2.0085-0.89706-2.0085-2.0059v-9.9883c0-1.1078 0.90195-2.0059 2.0085-2.0059h7.9829c1.1093 0 2.0085 0.89706 2.0085 2.0059v9.9883c0 1.1078-0.90195 2.0059-2.0085 2.0059z" fill="url(#x-media-podcast-c)"/>
 <polygon points="6 9 11 9 11 5 6 5 6 4 5 4 5 12 6 12" fill="#fff" fill-rule="evenodd"/>
</svg>
