<svg width="16" height="16" version="1.1" viewBox="0 0 16 16" xmlns="http://www.w3.org/2000/svg">
 <defs>
  <filter id="application-x-7zip-a" x="-.167" y="-.071" width="1.333" height="1.286">
   <feOffset dy="1" in="SourceAlpha" result="shadowOffsetOuter1"/>
   <feGaussianBlur in="shadowOffsetOuter1" result="shadowBlurOuter1" stdDeviation=".5"/>
   <feColorMatrix in="shadowBlurOuter1" values="0 0 0 0 0.241013895   0 0 0 0 0   0 0 0 0 0.621603261  0 0 0 0.5 0"/>
  </filter>
  <linearGradient id="application-x-7zip-c" x1="6.4807" x2="6.4807" y1="2.7527e-16" y2="12.961" gradientTransform="matrix(.92582 0 0 1.0801 2 1)" gradientUnits="userSpaceOnUse">
   <stop stop-color="#5C42B1" offset="0"/>
   <stop stop-color="#3E1888" offset=".99345"/>
  </linearGradient>
 </defs>
 <g fill="none" fill-rule="evenodd">
  <g fill-rule="evenodd">
   <path d="m4.0085 15c-1.1093 0-2.0085-0.89706-2.0085-2.0059v-9.9883c0-1.1078 0.90195-2.0059 2.0085-2.0059h7.9829c1.1093 0 2.0085 0.89706 2.0085 2.0059v9.9883c0 1.1078-0.90195 2.0059-2.0085 2.0059z" fill="#000" filter="url(#application-x-7zip-a)"/>
   <path d="m4.0085 15c-1.1093 0-2.0085-0.89706-2.0085-2.0059v-9.9883c0-1.1078 0.90195-2.0059 2.0085-2.0059h7.9829c1.1093 0 2.0085 0.89706 2.0085 2.0059v9.9883c0 1.1078-0.90195 2.0059-2.0085 2.0059z" fill="url(#application-x-7zip-c)"/>
  </g>
  <path d="m10.611 3 0.23648 2.1961h-0.38497c-0.16133-0.39796-0.39048-0.76854-0.68745-1.1117-0.29699-0.34684-0.48895-0.50735-0.7346-0.55847-0.11-0.021899-3.4484 0-3.4484 0l3.2041 4.0744v0.14787l-3.4694 4.192h4.2442c0.53053 0 0.83285-0.23427 0.95752-0.38031 0.13198-0.15334 0.24931-0.32494 0.35198-0.5148 0.10265-0.18985 0.18698-0.3651 0.25298-0.52575l0.36848 0.11501-0.62146 2.3576h-6.88v-0.22177l3.8277-4.5948-3.8277-4.9124v-0.26295h6.6106z" fill="#FFF"/>
 </g>
</svg>
