<svg width="16" height="16" version="1.1" viewBox="0 0 16 16" xmlns="http://www.w3.org/2000/svg" xmlns:xlink="http://www.w3.org/1999/xlink">
 <defs>
  <linearGradient id="application-x-7zip-c" x1="6.4807" x2="6.4807" y1="2.7527e-16" y2="12.961" gradientTransform="scale(.92582 1.0801)" gradientUnits="userSpaceOnUse">
   <stop stop-color="#5C42B1" offset="0"/>
   <stop stop-color="#3E1888" offset=".99345"/>
  </linearGradient>
  <path id="application-x-7zip-b" d="m2.0085 14c-1.1093 0-2.0085-0.89706-2.0085-2.0059v-9.9883c0-1.1078 0.90195-2.0059 2.0085-2.0059l7.9829-1.1817e-15c1.1093-1.6421e-16 2.0085 0.89706 2.0085 2.0059v9.9883c0 1.1078-0.90195 2.0059-2.0085 2.0059h-7.9829z"/>
  <filter id="application-x-7zip-a" x="-16.7%" y="-7.1%" width="133.3%" height="128.6%">
   <feOffset dy="1" in="SourceAlpha" result="shadowOffsetOuter1"/>
   <feGaussianBlur in="shadowOffsetOuter1" result="shadowBlurOuter1" stdDeviation=".5"/>
   <feColorMatrix in="shadowBlurOuter1" values="0 0 0 0 0.241013895   0 0 0 0 0   0 0 0 0 0.621603261  0 0 0 0.5 0"/>
  </filter>
 </defs>
 <use transform="translate(2,1)" width="100%" height="100%" fill="#000000" fill-rule="evenodd" filter="url(#application-x-7zip-a)" xlink:href="#application-x-7zip-b"/>
 <use transform="translate(2,1)" width="100%" height="100%" fill="url(#application-x-7zip-c)" fill-rule="evenodd" xlink:href="#application-x-7zip-b"/>
 <path d="m7.0002 13.003-2.32e-4 -7.1998c-0.4963 0.18745-0.71993 0.3942-0.9989 0.79341-0.27586 0.39937-0.41379 1.0958-0.41379 1.6895 0 0.13537 0.0069 0.24651 0.02078 0.33341 0.01712 0.08329 0.03433 0.15098 0.05161 0.20306 0.01728 0.04863 0.03285 0.08682 0.0467 0.11459 0.01712 0.02776 0.02569 0.05208 0.02569 0.07294-0.18261 0-0.34451-0.01733-0.48571-0.052-0.14136-0.03827-0.26029-0.09733-0.35681-0.17718-0.09309-0.07969-0.16548-0.18557-0.21717-0.31765-0.04826-0.13176-0.07239-0.2949-0.07239-0.48941 0-0.23608 0.04989-0.66856 0.14968-0.89774 0.10337-0.22902 0.24293-0.44604 0.41869-0.65106 0.17918-0.20471 0.38772-0.39388 0.62559-0.56753 0.2413-0.17365 0.49801-0.32298 0.77014-0.448 0.27555-0.12847 0.56153-0.22737 0.85794-0.29671 0.29984-0.0731 0.59796-0.10965 0.89437-0.10965 0.11154-0.01412 0.27509 0.02008 0.28359 0.0207v6.5624l2.4609-6.5313h0.73908l-2.9409 7.9482h-1.8591z" fill="#fff"/>
</svg>
