<svg width="96" height="96" version="1.1" viewBox="0 0 96 96" xmlns="http://www.w3.org/2000/svg" xmlns:xlink="http://www.w3.org/1999/xlink">
 <defs>
  <linearGradient id="application-vnd.oasis.opendocument.chart-c" x1="35.327" x2="35.327" y2="70.21" gradientTransform="scale(.90582 1.104)" gradientUnits="userSpaceOnUse">
   <stop stop-color="#FFBC2A" offset="0"/>
   <stop stop-color="#E77B00" offset="1"/>
  </linearGradient>
  <path id="application-vnd.oasis.opendocument.chart-b" d="m42 0 22 22v47c0 4.9706-4.0294 9-9 9h-46c-4.9706 0-9-4.0294-9-9v-60c-6.0872e-16 -4.9706 4.0294-9 9-9l33-3.5527e-15z"/>
  <filter id="application-vnd.oasis.opendocument.chart-a" x="-15.6%" y="-10.3%" width="131.2%" height="125.6%">
   <feOffset dy="2" in="SourceAlpha" result="shadowOffsetOuter1"/>
   <feGaussianBlur in="shadowOffsetOuter1" result="shadowBlurOuter1" stdDeviation="3"/>
   <feColorMatrix in="shadowBlurOuter1" values="0 0 0 0 0.874509804   0 0 0 0 0.498039216   0 0 0 0 0.0588235294  0 0 0 0.5 0"/>
  </filter>
  <linearGradient id="application-vnd.oasis.opendocument.chart-f" x1="53" x2="44.528" y1="11" y2="19.51" gradientUnits="userSpaceOnUse">
   <stop stop-color="#FFF" stop-opacity=".1" offset="0"/>
   <stop stop-color="#FFF" stop-opacity=".3" offset="1"/>
  </linearGradient>
  <path id="application-vnd.oasis.opendocument.chart-e" d="m42 0 22 22h-13c-4.9706 0-9-4.0294-9-9v-13z"/>
  <filter id="application-vnd.oasis.opendocument.chart-d" x="-25%" y="-15.9%" width="150%" height="150%">
   <feOffset dy="2" in="SourceAlpha" result="shadowOffsetOuter1"/>
   <feGaussianBlur in="shadowOffsetOuter1" result="shadowBlurOuter1" stdDeviation="1.5"/>
   <feComposite in="shadowBlurOuter1" in2="SourceAlpha" operator="out" result="shadowBlurOuter1"/>
   <feColorMatrix in="shadowBlurOuter1" values="0 0 0 0 0   0 0 0 0 0   0 0 0 0 0  0 0 0 0.05 0"/>
  </filter>
 </defs>
 <g transform="translate(16,10)" fill-rule="evenodd">
  <use width="100%" height="100%" fill="#000000" filter="url(#application-vnd.oasis.opendocument.chart-a)" xlink:href="#application-vnd.oasis.opendocument.chart-b"/>
  <use width="100%" height="100%" fill="url(#application-vnd.oasis.opendocument.chart-c)" xlink:href="#application-vnd.oasis.opendocument.chart-b"/>
  <use width="100%" height="100%" fill="#000000" filter="url(#application-vnd.oasis.opendocument.chart-d)" xlink:href="#application-vnd.oasis.opendocument.chart-e"/>
  <use width="100%" height="100%" fill="url(#application-vnd.oasis.opendocument.chart-f)" xlink:href="#application-vnd.oasis.opendocument.chart-e"/>
 </g>
 <g transform="matrix(2,0,0,2,1,1)" fill="#fff">
  <circle cx="17.5" cy="24.5" r="1.5"/>
  <circle cx="21.5" cy="24.5" r="1.5"/>
  <circle cx="25.5" cy="24.5" r="1.5"/>
  <circle cx="29.5" cy="24.5" r="1.5"/>
  <circle cx="13.5" cy="28.5" r="1.5"/>
  <circle cx="17.5" cy="28.5" r="1.5"/>
  <circle cx="21.5" cy="28.5" r="1.5"/>
  <circle cx="25.5" cy="28.5" r="1.5"/>
  <circle cx="29.5" cy="28.5" r="1.5"/>
  <circle cx="33.5" cy="28.5" r="1.5"/>
  <circle cx="13.5" cy="32.5" r="1.5"/>
  <circle cx="17.5" cy="32.5" r="1.5"/>
  <circle cx="29.5" cy="32.5" r="1.5"/>
  <circle cx="33.5" cy="32.5" r="1.5"/>
 </g>
</svg>
