<svg width="96" height="96" version="1.1" viewBox="0 0 96 96" xmlns="http://www.w3.org/2000/svg" xmlns:xlink="http://www.w3.org/1999/xlink">
 <defs>
  <linearGradient id="rpm-c" x1="35.327" x2="35.327" y2="69.02" gradientTransform="scale(.90582 1.104)" gradientUnits="userSpaceOnUse">
   <stop stop-color="#666E7B" offset="0"/>
   <stop stop-color="#475055" offset="1"/>
  </linearGradient>
  <path id="rpm-b" d="m42 0 22 22v47c0 4.9706-4.0294 9-9 9h-46c-4.9706 0-9-4.0294-9-9v-60c-6.0872e-16 -4.9706 4.0294-9 9-9l33-3.5527e-15z"/>
  <filter id="rpm-a" x="-15.6%" y="-10.3%" width="131.2%" height="125.6%">
   <feOffset dy="2" in="SourceAlpha" result="shadowOffsetOuter1"/>
   <feGaussianBlur in="shadowOffsetOuter1" result="shadowBlurOuter1" stdDeviation="3"/>
   <feColorMatrix in="shadowBlurOuter1" values="0 0 0 0 0.361595344   0 0 0 0 0.418797512   0 0 0 0 0.450973732  0 0 0 0.5 0"/>
  </filter>
  <linearGradient id="rpm-f" x1="53" x2="44.528" y1="11" y2="19.51" gradientUnits="userSpaceOnUse">
   <stop stop-color="#FFF" stop-opacity=".1" offset="0"/>
   <stop stop-color="#FFF" stop-opacity=".3" offset="1"/>
  </linearGradient>
  <path id="rpm-e" d="m42 0 22 22h-13c-4.9706 0-9-4.0294-9-9v-13z"/>
  <filter id="rpm-d" x="-25%" y="-15.9%" width="150%" height="150%">
   <feOffset dy="2" in="SourceAlpha" result="shadowOffsetOuter1"/>
   <feGaussianBlur in="shadowOffsetOuter1" result="shadowBlurOuter1" stdDeviation="1.5"/>
   <feComposite in="shadowBlurOuter1" in2="SourceAlpha" operator="out" result="shadowBlurOuter1"/>
   <feColorMatrix in="shadowBlurOuter1" values="0 0 0 0 0   0 0 0 0 0   0 0 0 0 0  0 0 0 0.05 0"/>
  </filter>
 </defs>
 <g transform="translate(16,10)" fill-rule="evenodd">
  <use width="100%" height="100%" fill="#000000" filter="url(#rpm-a)" xlink:href="#rpm-b"/>
  <use width="100%" height="100%" fill="url(#rpm-c)" xlink:href="#rpm-b"/>
  <use width="100%" height="100%" fill="#000000" filter="url(#rpm-d)" xlink:href="#rpm-e"/>
  <use width="100%" height="100%" fill="url(#rpm-f)" xlink:href="#rpm-e"/>
 </g>
 <path d="m38.091 39.533a1.995 1.995 0 0 0-0.1909 0 1.995 1.995 0 0 0-0.52596 0.10971s-1.2493 0.41152-2.6961 1.1727c-1.4467 0.7612-3.2052 1.828-4.3362 3.6584-1.259 2.0371-0.78115 4.2165-0.3896 5.5207 0.39155 1.3042 0.60711 1.8735 0.24546 2.7466-0.17662 0.42648-1.2587 1.3598-2.4428 1.9403-1.1841 0.58028-2.2597 0.88428-2.2597 0.88428a1.995 1.995 0 0 0-1.4259 2.4506 1.995 1.995 0 0 0 1.4259 2.3961s1.0756 0.304 2.2597 0.88428c1.1841 0.58048 2.2662 1.5138 2.4428 1.9403 0.36165 0.87311 0.1461 1.4424-0.24546 2.7466-0.39155 1.3042-0.86942 3.4837 0.3896 5.5207 1.1312 1.8304 2.8896 2.8972 4.3362 3.6584 1.4467 0.7612 2.6961 1.1727 2.6961 1.1727a1.995 1.995 0 1 0 1.2545-3.7831s-0.94927-0.31816-2.0921-0.91939c-1.1429-0.60142-2.3652-1.5294-2.7973-2.2285-0.48882-0.79092-0.32842-1.0646 0.03507-2.2752 0.36348-1.2108 1.0197-3.2209 0.10909-5.4194-0.80644-1.9471-2.4159-2.9776-3.8571-3.7208 1.4412-0.74305 3.0506-1.7737 3.8571-3.7206 0.91061-2.1984 0.25441-4.2087-0.10909-5.4194-0.36349-1.2106-0.52388-1.4843-0.03507-2.2752 0.43214-0.69936 1.6545-1.6273 2.7973-2.2285 1.1429-0.60122 2.0921-0.91958 2.0921-0.91958a1.995 1.995 0 0 0-0.53765-3.896zm19.811 0a1.995 1.995 0 0 0-0.52985 3.896s0.94927 0.31836 2.0921 0.91958c1.1429 0.60122 2.3652 1.5292 2.7973 2.2285 0.48882 0.79092 0.32842 1.0646-0.03507 2.2752-0.36349 1.2106-1.0197 3.2209-0.10909 5.4194 0.80644 1.9469 2.4159 2.9776 3.8571 3.7206-1.4412 0.74325-3.0506 1.7737-3.8571 3.7208-0.91061 2.1984-0.25439 4.2085 0.10909 5.4194 0.36348 1.2106 0.52388 1.4843 0.03507 2.2752-0.43214 0.69916-1.6545 1.6271-2.7973 2.2285-1.1429 0.60122-2.0921 0.91939-2.0921 0.91939a1.995 1.995 0 1 0 1.2545 3.7831s1.2493-0.41152 2.6961-1.1727c1.4467-0.7612 3.2052-1.828 4.3362-3.6584 1.259-2.0371 0.78115-4.2165 0.3896-5.5207-0.39155-1.3042-0.60711-1.8735-0.24546-2.7466 0.17662-0.42648 1.2587-1.3598 2.4428-1.9403 1.1841-0.58028 2.2597-0.88428 2.2597-0.88428a1.995 1.995 0 0 0 1.4259-2.3961 1.995 1.995 0 0 0-1.4259-2.4506s-1.0756-0.304-2.2597-0.88448c-1.1841-0.58028-2.2662-1.5138-2.4428-1.9401-0.36165-0.87311-0.1461-1.4426 0.24546-2.7468 0.39155-1.3042 0.86942-3.4835-0.3896-5.5207-1.1312-1.8302-2.8896-2.8972-4.3362-3.6582-1.4467-0.7612-2.6961-1.1727-2.6961-1.1727a1.995 1.995 0 0 0-0.52596-0.10971 1.995 1.995 0 0 0-0.1909 0 1.995 1.995 0 0 0-0.0078 0zm-9.966 9.0115a3.9895 3.9895 0 0 0-3.9895 3.9895 3.9895 3.9895 0 0 0 3.9895 3.9895 3.9895 3.9895 0 0 0 3.9895-3.9895 3.9895 3.9895 0 0 0-3.9895-3.9895zm0 11.969c-2.2034 0-3.9895 1.7861-3.9895 3.9895 0 2.2034 1.7862 3.9895 3.9895 3.9895 1.4102 0 1.9948 3.9895 1.9948 3.9895s1.9948-7.1859 1.9948-7.979c0-2.2034-1.7862-3.9895-3.9895-3.9895z" fill="#fff" fill-rule="evenodd" stroke-width="1.9948"/>
</svg>
