<svg width="64" height="64" version="1.1" viewBox="0 0 64 64" xmlns="http://www.w3.org/2000/svg">
<title>deepin-font-installer</title>
<defs>
<linearGradient id="b" x1="14.568" x2="14.568" y1="50.615" y2="61.259" gradientTransform="scale(2.1927 .45605)" gradientUnits="userSpaceOnUse">
<stop stop-color="#fff" offset="0"/>
<stop stop-color="#C6D9E8" offset="1"/>
</linearGradient>
<filter id="a" color-interpolation-filters="sRGB">
<feFlood flood-opacity=".196" result="flood"/>
<feComposite in="flood" in2="SourceGraphic" operator="in" result="composite1"/>
<feGaussianBlur in="composite1" result="blur" stdDeviation="1"/>
<feOffset dx="0" dy="1" result="offset"/>
<feComposite in="SourceGraphic" in2="offset" result="composite2"/>
</filter>
</defs>
<g fill-rule="evenodd">
<path d="m51.5 57h-39c-1 0-1.5-0.5-1.5-1.5v-49c0-1 0.5-1.5 1.5-1.5h27.5l13 13v37.5c0 1.5-1.5 1.5-1.5 1.5z" fill="#e5b400" filter="url(#a)"/>
<path d="m41.239 18.037c-0.736 0-1.239-0.635-1.239-1.37v-11.669l13 13.037z" fill="#ffe587" filter="url(#a)"/>
<path d="m35.183 30.013h-6.926v-0.832c0.61-0.04 1.115-0.117 1.518-0.234 0.402-0.118 0.603-0.262 0.603-0.434 0-0.07-7e-3 -0.156-0.023-0.258a1.23 1.23 0 0 0-0.07-0.27l-1.383-3.726h-5.824a27.814 27.814 0 0 0-0.534 1.43c-0.136 0.406-0.26 0.781-0.369 1.125a8.02 8.02 0 0 0-0.21 0.82c-0.04 0.211-0.06 0.383-0.06 0.516 0 0.312 0.247 0.554 0.739 0.726s1.047 0.274 1.664 0.305v0.832h-6.258v-0.832c0.203-0.016 0.457-0.06 0.762-0.135a2.48 2.48 0 0 0 0.75-0.299c0.313-0.21 0.555-0.431 0.727-0.662 0.171-0.23 0.34-0.549 0.503-0.955 0.836-2.086 1.758-4.43 2.766-7.031l2.695-6.95h0.938l5.543 14.345c0.117 0.304 0.25 0.55 0.398 0.738 0.149 0.188 0.356 0.371 0.621 0.55 0.18 0.11 0.414 0.202 0.704 0.276 0.289 0.074 0.53 0.115 0.726 0.123zm-6.703-6.797-2.52-6.445-2.472 6.445zm17.94 6.586c-0.366 0.133-0.689 0.24-0.966 0.322a3.326 3.326 0 0 1-0.943 0.123c-0.61 0-1.096-0.142-1.46-0.427-0.363-0.286-0.595-0.702-0.697-1.248h-0.07c-0.508 0.562-1.053 0.992-1.635 1.289s-1.283 0.445-2.103 0.445c-0.867 0-1.58-0.266-2.139-0.797-0.558-0.531-0.838-1.226-0.838-2.086 0-0.445 0.063-0.844 0.188-1.195 0.125-0.352 0.312-0.668 0.562-0.95 0.196-0.234 0.453-0.443 0.774-0.626 0.32-0.184 0.62-0.33 0.902-0.44a73.803 73.803 0 0 1 2.139-0.738c1.074-0.36 1.799-0.64 2.174-0.844v-1.16c0-0.102-0.022-0.297-0.065-0.586s-0.135-0.562-0.275-0.82a2.334 2.334 0 0 0-0.662-0.756c-0.286-0.215-0.69-0.322-1.213-0.322-0.36 0-0.694 0.06-1.002 0.181-0.309 0.121-0.526 0.248-0.65 0.381 0 0.156 0.036 0.387 0.11 0.692 0.075 0.304 0.112 0.586 0.112 0.843 0 0.274-0.123 0.524-0.37 0.75-0.245 0.227-0.587 0.34-1.025 0.34-0.39 0-0.677-0.138-0.86-0.416a1.65 1.65 0 0 1-0.276-0.931c0-0.36 0.127-0.704 0.38-1.032 0.254-0.328 0.585-0.62 0.99-0.879a5.39 5.39 0 0 1 1.278-0.556c0.5-0.153 0.988-0.229 1.465-0.229 0.656 0 1.228 0.045 1.717 0.135 0.488 0.09 0.931 0.283 1.33 0.58 0.398 0.29 0.701 0.682 0.908 1.178s0.31 1.135 0.31 1.916c0 1.117-0.011 2.107-0.035 2.97-0.023 0.864-0.035 1.807-0.035 2.83 0 0.305 0.053 0.547 0.158 0.727 0.106 0.18 0.268 0.332 0.487 0.457 0.117 0.07 0.303 0.11 0.556 0.117 0.254 8e-3 0.514 0.012 0.78 0.012zm-4.089-6.188c-0.664 0.196-1.246 0.387-1.746 0.575-0.5 0.187-0.965 0.422-1.394 0.703-0.391 0.265-0.7 0.58-0.926 0.943-0.227 0.363-0.34 0.795-0.34 1.295 0 0.649 0.17 1.125 0.51 1.43 0.34 0.304 0.771 0.457 1.295 0.457 0.554 0 1.043-0.135 1.464-0.404 0.422-0.27 0.778-0.588 1.067-0.956z" fill="#fff" filter="url(#a)"/>
<g fill="#fff" filter="url(#a)">
<path d="m24.188 44.309c-9e-3 8e-3 -9e-3 1.342-0.028 1.69-0.018 0.281-0.047 0.886-0.723 0.886-0.695 0-0.863-0.704-0.92-1.01-0.065-0.34-0.065-0.622-0.065-0.746 0-0.398 0.028-1.508 1.089-1.508 0.319 0 0.497 0.083 0.638 0.149l0.01 0.539zm-2.722 0.977c0 2.336 1.408 2.336 1.614 2.336 0.583 0 0.958-0.281 1.118-0.77l0.019 0.737c0.178-8e-3 0.356-0.025 0.647-0.025 0.104 0 0.188 0 0.263 9e-3 0.075 0 0.15 8e-3 0.235 0.016-0.15-0.265-0.263-0.861-0.263-2.154 0-1.26 0-3.388 0.122-4.035-0.338 0.142-0.629 0.233-1.267 0.282 0.253 0.24 0.253 0.365 0.253 1.458a2.66 2.66 0 0 0-0.789-0.108c-1.68 0-1.952 1.293-1.952 2.254zm5.091-0.423c0.01-0.687 0.17-1.3 0.836-1.3 0.732 0 0.788 0.712 0.77 1.3zm2.535 0.083c0-0.969-0.216-1.922-1.605-1.922-1.915 0-1.915 1.873-1.915 2.27 0 1.682 0.854 2.345 2.29 2.345 0.638 0 0.949-0.083 1.118-0.125-0.01-0.298 0.037-0.489 0.094-0.745-0.198 0.108-0.451 0.248-1.014 0.248-1.465 0-1.484-1.176-1.484-1.582h2.498zm3.055 0.357c0 0.77-0.16 1.806-1.248 1.806-0.15 0-0.338-0.026-0.46-0.05-0.02-0.298-0.02-0.812-0.02-1.408 0-0.713 0.085-1.085 0.151-1.268 0.197-0.588 0.638-0.596 0.723-0.596 0.713 0 0.854 0.87 0.854 1.516zm-2.694 0.903c0 0.613 0 0.96-0.113 1.226 0.385 0.132 0.864 0.207 1.437 0.207 0.366 0 1.427 0 2-1.036 0.272-0.48 0.365-1.127 0.365-1.615 0-0.299-0.037-0.953-0.31-1.367a1.343 1.343 0 0 0-1.135-0.588c-0.902 0-1.164 0.662-1.305 1.002 0-0.423 0.01-1.897 0.084-2.651a4.12 4.12 0 0 1-1.39 0.323c0.367 0.132 0.367 0.68 0.367 2.46zm5.494 1.383a3.792 3.792 0 0 0-0.592-0.041c-0.3 0-0.507 0.016-0.723 0.041 0.094-0.158 0.132-0.232 0.16-0.77 0.038-0.738 0.047-2.71-0.019-3.124-0.047-0.315-0.131-0.364-0.263-0.447 0.77-0.067 0.986-0.116 1.343-0.265-0.075 0.364-0.085 0.547-0.085 1.102-0.018 2.858-0.028 3.164 0.179 3.504m3.006-2.345c-0.019 0.522-0.028 0.887-0.188 1.177a0.857 0.857 0 0 1-0.77 0.48c-0.564 0-0.685-0.414-0.685-0.82 0-0.778 0.789-0.837 1.145-0.837zm-2.582 1.02c0 0.522 0.178 1.043 0.704 1.267 0.235 0.091 0.47 0.091 0.545 0.091 0.864 0 1.155-0.563 1.333-0.911-0.01 0.364 0 0.588 0.028 0.878 0.17-8e-3 0.338-0.025 0.62-0.025 0.16 0 0.31 0.017 0.47 0.025-0.104-0.14-0.16-0.224-0.189-0.547-0.018-0.315-0.018-0.63-0.018-1.068l0.01-1.69c0-0.63-0.189-1.252-1.597-1.252-0.93 0-1.474 0.25-1.746 0.373a2 2 0 0 1 0.29 0.696 2.2 2.2 0 0 1 1.334-0.43c0.78 0 0.78 0.455 0.78 1.101-0.179-8e-3 -0.33-0.024-0.583-0.024-1.193 0-1.981 0.405-1.981 1.516zm7.99 0.505c0.01 0.282 0.01 0.58 0.14 0.82-0.206-0.016-0.328-0.041-0.713-0.041-0.225 0-0.347 0.017-0.526 0.041 0.038-0.107 0.057-0.149 0.076-0.29 0.028-0.19 0.047-0.828 0.047-1.052v-0.895c0-0.389 0-0.953-0.029-1.151-0.019-0.14-0.065-0.522-0.61-0.522-0.535 0-0.714 0.348-0.78 0.63-0.074 0.29-0.074 0.604-0.074 1.83 9e-3 1.06 9e-3 1.16 0.103 1.45a5.877 5.877 0 0 0-0.639-0.033 3.92 3.92 0 0 0-0.563 0.033c0.066-0.133 0.104-0.199 0.122-0.663 0.02-0.455 0.057-2.692-0.028-3.222-0.047-0.324-0.141-0.398-0.244-0.48 0.76-0.034 1.004-0.142 1.24-0.25v0.879c0.112-0.257 0.346-0.829 1.286-0.829 1.173 0 1.182 0.754 1.192 1.25v2.495m-8.335-4.959-0.778 0.686-0.777-0.686 0.777-0.685 0.778 0.685"/>
</g>
<rect x="8" y="24" width="48" height="35" rx="1.333" fill="#c0d0df" filter="url(#a)"/>
<path d="m8 25.505c0-0.831 0.679-1.505 1.502-1.505h44.995c0.83 0 1.503 0.68 1.503 1.505v30.99c0 0.831-0.679 1.505-1.503 1.505h-44.995c-0.83 0-1.502-0.68-1.502-1.505z" fill="#dee8f2" filter="url(#a)"/>
<path d="m60.672 33.623c0.339 0.76-0.066 1.377-0.896 1.377h-55.662c-0.834 0-1.238-0.612-0.898-1.377l4.11-9.247c0.338-0.76 1.29-1.376 2.114-1.376h44.995c0.83 0 1.775 0.612 2.116 1.377z" fill="url(#b)" filter="url(#a)"/>
<path d="m54.885 23.993c0.273 0 0.587 0.208 0.697 0.453l4.029 9.041c0.112 0.25-0.023 0.454-0.297 0.454l-54.785 0.102c-0.276 0-0.406-0.21-0.296-0.458l4.067-9.147c0.112-0.253 0.434-0.459 0.698-0.459z" fill="#f0f8fa" filter="url(#a)"/>
</g>
</svg>
