<svg width="64" height="64" version="1.1" viewBox="0 0 64 64" xmlns="http://www.w3.org/2000/svg" xmlns:xlink="http://www.w3.org/1999/xlink">
<defs>
<filter id="computer-a" x="-13.8%" y="-16.7%" width="127.6%" height="133.3%">
<feOffset dy="1" in="SourceAlpha" result="shadowOffsetOuter1"/>
<feGaussianBlur in="shadowOffsetOuter1" result="shadowBlurOuter1" stdDeviation="1.5"/>
<feComposite in="shadowBlurOuter1" in2="SourceAlpha" operator="out" result="shadowBlurOuter1"/>
<feColorMatrix in="shadowBlurOuter1" result="shadowMatrixOuter1" values="0 0 0 0 0   0 0 0 0 0   0 0 0 0 0  0 0 0 0.2 0"/>
<feMerge>
<feMergeNode in="shadowMatrixOuter1"/>
<feMergeNode in="SourceGraphic"/>
</feMerge>
</filter>
<linearGradient id="computer-b" x1="22.463" x2="22.463" y1="61.968" y2="54.222" gradientTransform="scale(1.291 .7746)" gradientUnits="userSpaceOnUse">
<stop stop-color="#CFDAFC" offset="0"/>
<stop stop-color="#CDCFD2" offset="1"/>
</linearGradient>
<polygon id="computer-c" points="24 42 34 42 34 48 24 48"/>
<filter id="computer-d" y="-16.7%" height="133.3%">
<feGaussianBlur in="SourceAlpha" result="shadowBlurInner1" stdDeviation=".5"/>
<feOffset dy="1" in="shadowBlurInner1" result="shadowOffsetInner1"/>
<feComposite in="shadowOffsetInner1" in2="SourceAlpha" k2="-1" k3="1" operator="arithmetic" result="shadowInnerInner1"/>
<feColorMatrix in="shadowInnerInner1" values="0 0 0 0 0.305544245   0 0 0 0 0.316030326   0 0 0 0 0.533769248  0 0 0 0.178130463 0"/>
</filter>
<linearGradient id="computer-e" x1="9.1706" x2="9.1706" y1="145.46" y2="150.53" gradientTransform="scale(3.1623 .31623)" gradientUnits="userSpaceOnUse">
<stop stop-color="#FFF" offset="0"/>
<stop stop-color="#EBF4FF" offset="1"/>
</linearGradient>
<path id="computer-f" d="m20 46h18c0.55228 0 1 0.44772 1 1s-0.44772 1-1 1h-18c-0.55228 0-1-0.44772-1-1s0.44772-1 1-1z"/>
<filter id="computer-g" x="-2.5%" y="-25%" width="105%" height="150%">
<feOffset dy="-1" in="SourceAlpha" result="shadowOffsetInner1"/>
<feComposite in="shadowOffsetInner1" in2="SourceAlpha" k2="-1" k3="1" operator="arithmetic" result="shadowInnerInner1"/>
<feColorMatrix in="shadowInnerInner1" values="0 0 0 0 0   0 0 0 0 0   0 0 0 0 0  0 0 0 0.168651661 0"/>
</filter>
<linearGradient id="computer-h" x1="19.544" x2="37.166" y1="11.737" y2="37.619" gradientTransform="scale(1.1751 .85096)" gradientUnits="userSpaceOnUse">
<stop stop-color="#D7E4FF" offset="0"/>
<stop stop-color="#F4F9FF" offset="1"/>
</linearGradient>
<rect id="computer-i" width="58" height="42" rx="6.25"/>
<filter id="computer-j" x="-.9%" y="-1.2%" width="101.7%" height="102.4%">
<feOffset dy="-1" in="SourceAlpha" result="shadowOffsetInner1"/>
<feComposite in="shadowOffsetInner1" in2="SourceAlpha" k2="-1" k3="1" operator="arithmetic" result="shadowInnerInner1"/>
<feColorMatrix in="shadowInnerInner1" result="shadowMatrixInner1" values="0 0 0 0 0   0 0 0 0 0   0 0 0 0 0  0 0 0 0.12 0"/>
<feOffset dy="1" in="SourceAlpha" result="shadowOffsetInner2"/>
<feComposite in="shadowOffsetInner2" in2="SourceAlpha" k2="-1" k3="1" operator="arithmetic" result="shadowInnerInner2"/>
<feColorMatrix in="shadowInnerInner2" result="shadowMatrixInner2" values="0 0 0 0 1   0 0 0 0 1   0 0 0 0 1  0 0 0 1 0"/>
<feMerge>
<feMergeNode in="shadowMatrixInner1"/>
<feMergeNode in="shadowMatrixInner2"/>
</feMerge>
</filter>
<linearGradient id="computer-l" x1="21.212" x2="21.212" y1=".25594" y2="45.147" gradientTransform="scale(1.1921 .83887)" gradientUnits="userSpaceOnUse">
<stop stop-color="#4F5D73" offset="0"/>
<stop stop-color="#313A46" offset="1"/>
</linearGradient>
<rect id="computer-k" width="54" height="38" rx="4.5"/>
<linearGradient id="computer-n" x2="15.811" y1="7.9057" y2="7.9057" gradientTransform="matrix(3.1623 0 0 .31623 7 41)" gradientUnits="userSpaceOnUse">
<stop stop-color="#A09AD3" offset="0"/>
<stop stop-color="#988DD9" offset=".49618"/>
<stop stop-color="#1654D2" offset="1"/>
</linearGradient>
<filter id="a" color-interpolation-filters="sRGB">
<feFlood flood-opacity=".196" result="flood"/>
<feComposite in="flood" in2="SourceGraphic" operator="in" result="composite1"/>
<feGaussianBlur in="composite1" result="blur" stdDeviation="1"/>
<feOffset dx="0" dy="1" result="offset"/>
<feComposite in="SourceGraphic" in2="offset" result="composite2"/>
</filter>
</defs>
<g fill-rule="evenodd">
<use transform="translate(3,8)" width="100%" height="100%" fill="url(#computer-b)" filter="url(#computer-a)" xlink:href="#computer-c"/>
<use transform="translate(3,8)" width="100%" height="100%" fill="#000000" filter="url(#computer-d)" xlink:href="#computer-c"/>
<use transform="translate(3,8)" width="100%" height="100%" fill="url(#computer-e)" filter="url(#computer-a)" xlink:href="#computer-f"/>
<use transform="translate(3,8)" width="100%" height="100%" fill="#000000" filter="url(#computer-g)" xlink:href="#computer-f"/>
<use transform="translate(3,8)" width="100%" height="100%" fill="url(#computer-h)" filter="url(#computer-a)" xlink:href="#computer-i"/>
<use transform="translate(3,8)" width="100%" height="100%" fill="#000000" filter="url(#computer-j)" xlink:href="#computer-i"/>
<use transform="translate(5,10)" width="100%" height="100%" fill="url(#computer-l)" filter="url(#computer-a)" xlink:href="#computer-k"/>
<rect x="7" y="41" width="50" height="5" rx="1.25" fill="url(#computer-n)" filter="url(#computer-a)"/>
<rect x="13" y="42" width="3" height="3" rx=".625" fill="#00c98f" filter="url(#computer-a)"/>
<rect x="25" y="42" width="3" height="3" rx=".625" fill="#75ffac" filter="url(#computer-a)"/>
<rect x="17" y="42" width="3" height="3" rx=".625" fill="#ff7d52" filter="url(#computer-a)"/>
<rect x="29" y="42" width="3" height="3" rx=".625" fill="#ffb656" filter="url(#computer-a)"/>
<rect x="37" y="42" width="3" height="3" rx=".625" fill="#ff796e" filter="url(#computer-a)"/>
</g>
<g fill-opacity=".3" fill-rule="evenodd">
<rect x="52" y="42" width="3" height="3" rx=".625" filter="url(#computer-a)"/>
<rect x="48" y="42" width="3" height="3" rx=".625" filter="url(#computer-a)"/>
<rect x="44" y="42" width="3" height="3" rx=".625" filter="url(#computer-a)"/>
</g>
<circle cx="10.5" cy="43.5" r="1.5" fill="#326cff" fill-rule="evenodd" filter="url(#computer-a)"/>
<circle cx="34.5" cy="43.5" r="1.5" fill="#482ac5" fill-rule="evenodd" filter="url(#computer-a)"/>
<path d="m32 16c-3.324 0-6 2.676-6 6v2h-1.5c-0.831 0-1.5 0.669-1.5 1.5v9c0 0.831 0.669 1.5 1.5 1.5h15c0.831 0 1.5-0.669 1.5-1.5v-9c0-0.831-0.669-1.5-1.5-1.5h-1.5v-2c0-3.324-2.676-6-6-6zm0 3c1.662 0 3 1.338 3 3v2h-6v-2c0-1.662 1.338-3 3-3z" fill="#eff7fb" filter="url(#a)"/>
</svg>
