<svg width="64" height="64" version="1.1" viewBox="0 0 64 64" xmlns="http://www.w3.org/2000/svg" xmlns:xlink="http://www.w3.org/1999/xlink">
<defs>
<filter id="preference-system-a" x="-13.3%" y="-13.3%" width="126.7%" height="126.7%">
<feOffset dy="1" in="SourceAlpha" result="shadowOffsetOuter1"/>
<feGaussianBlur in="shadowOffsetOuter1" result="shadowBlurOuter1" stdDeviation="1.5"/>
<feComposite in="shadowBlurOuter1" in2="SourceAlpha" operator="out" result="shadowBlurOuter1"/>
<feColorMatrix in="shadowBlurOuter1" result="shadowMatrixOuter1" values="0 0 0 0 0   0 0 0 0 0   0 0 0 0 0  0 0 0 0.2 0"/>
<feMerge>
<feMergeNode in="shadowMatrixOuter1"/>
<feMergeNode in="SourceGraphic"/>
</feMerge>
</filter>
<linearGradient id="preference-system-b" x1="31.622" x2="28.766" y1="61.985" gradientTransform="translate(2,2)" gradientUnits="userSpaceOnUse">
<stop stop-color="#444" offset=".01926"/>
<stop stop-color="#808080" offset="1"/>
</linearGradient>
<circle id="preference-system-c" cx="30" cy="30" r="19.091"/>
<filter id="preference-system-d" x="-5.2%" y="-5.2%" width="110.5%" height="110.5%">
<feGaussianBlur in="SourceAlpha" result="shadowBlurInner1" stdDeviation="1.5"/>
<feOffset dy="1" in="shadowBlurInner1" result="shadowOffsetInner1"/>
<feComposite in="shadowOffsetInner1" in2="SourceAlpha" k2="-1" k3="1" operator="arithmetic" result="shadowInnerInner1"/>
<feColorMatrix in="shadowInnerInner1" values="0 0 0 0 0   0 0 0 0 0   0 0 0 0 0  0 0 0 0.5 0"/>
</filter>
<path id="preference-system-f" d="m29.233 10.909c1.0133 0.12097 1.9982 0.33455 2.9459 0.63202l-0.19881 2.2214c0.76291 0.28259 1.4941 0.63189 2.1865 1.0409l1.654-1.6031c0.84902 0.52112 1.6468 1.1175 2.3842 1.78l-1.2072 2.0425c0.58187 0.59371 1.111 1.2404 1.5798 1.9323l2.3743-0.78257c0.53024 0.8057 0.9912 1.661 1.3744 2.5575l-2.1374 1.428c0.28326 0.80961 0.49433 1.6538 0.62538 2.5246l2.6878 0.36676c0.088683 0.68985 0.13441 1.3931 0.13441 2.1071 0 0.23796-0.0050792 0.47473-0.015135 0.71022l-2.7241 0.37145c-0.093725 0.91309-0.27498 1.7998-0.53514 2.6515l2.3877 1.5941c-0.29936 0.86988-0.66999 1.7066-1.1049 2.5032l-2.7245-0.897c-0.48843 0.79665-1.0544 1.5395-1.6872 2.2177l1.4967 2.5324c-0.63769 0.62539-1.3264 1.199-2.0592 1.714l-2.0968-2.0311c-0.79452 0.50758-1.6442 0.93477-2.5378 1.2703l0.26332 2.9404c-0.83242 0.2684-1.694 0.47193-2.5787 0.60463l-1.0213-2.7581c-0.46888 0.04911-0.94479 0.07428-1.4265 0.07428-0.48171 0-0.95761-0.025169-1.4265-0.07428l-1.0221 2.758c-0.88408-0.13265-1.745-0.33603-2.5769-0.60419l0.26232-2.9407c-0.89365-0.3355-1.7433-0.76269-2.5378-1.2703l-2.0967 2.0312c-0.73288-0.51502-1.4216-1.0886-2.0593-1.7141l1.4967-2.5324c-0.63284-0.67823-1.1988-1.4211-1.6872-2.2177l-2.7245 0.897c-0.43493-0.79657-0.80556-1.6333-1.1049-2.5032l2.3877-1.5941c-0.26015-0.85168-0.44141-1.7384-0.53514-2.6515l-2.7241-0.37145c-0.010056-0.23548-0.015135-0.47226-0.015135-0.71022 0-0.71398 0.045726-1.4173 0.13441-2.1071l2.6878-0.36676c0.13105-0.8708 0.34212-1.715 0.62538-2.5246l-2.1374-1.428c0.38322-0.8965 0.84419-1.7518 1.3744-2.5575l2.3743 0.78257c0.46879-0.69191 0.99797-1.3386 1.5798-1.9323l-1.2072-2.0425c0.73717-0.66228 1.5348-1.2586 2.3836-1.7796l1.6545 1.6028c0.69249-0.40904 1.4236-0.75835 2.1865-1.0409l-0.19881-2.2214c0.94773-0.29747 1.9326-0.51104 2.9459-0.63202l0.7642 2.0651c0.39416-0.034514 0.7931-0.05213 1.1961-0.05213s0.80194 0.017616 1.1961 0.05213zm-1.9603 4.9569c-6.0249 0-10.909 4.8842-10.909 10.909 0 6.0249 4.8842 10.909 10.909 10.909 6.0249 0 10.909-4.8842 10.909-10.909 0-6.0249-4.8842-10.909-10.909-10.909z"/>
<filter id="preference-system-e" x="-6.1%" y="-3.1%" width="112.2%" height="112.3%">
<feOffset dy="1" in="SourceAlpha" result="shadowOffsetOuter1"/>
<feGaussianBlur in="shadowOffsetOuter1" result="shadowBlurOuter1" stdDeviation=".5"/>
<feComposite in="shadowBlurOuter1" in2="SourceAlpha" operator="out" result="shadowBlurOuter1"/>
<feColorMatrix in="shadowBlurOuter1" values="0 0 0 0 0   0 0 0 0 0   0 0 0 0 0  0 0 0 0.2 0"/>
</filter>
<radialGradient id="preference-system-g" cx="27.271" cy="27.272" r="27.485" gradientTransform="matrix(1 0 0 .99997 4.727 4.727)" gradientUnits="userSpaceOnUse">
<stop stop-color="#E2E5ED" offset="0"/>
<stop stop-color="#9DA3B5" offset=".48405"/>
<stop stop-color="#E7ECFF" offset="1"/>
</radialGradient>
</defs>
<circle cx="32" cy="32" r="30" fill="url(#preference-system-b)" fill-rule="evenodd" filter="url(#preference-system-a)"/>
<g fill="#000000" fill-rule="evenodd">
<use transform="translate(2,2)" width="100%" height="100%" fill-opacity=".5" filter="url(#preference-system-a)" xlink:href="#preference-system-c"/>
<use transform="translate(2,2)" width="100%" height="100%" filter="url(#preference-system-d)" xlink:href="#preference-system-c"/>
<use transform="translate(4.727,4.727)" width="100%" height="100%" filter="url(#preference-system-e)" xlink:href="#preference-system-f"/>
</g>
<path d="m34.29 16.184-0.75808 2.0485-0.38011-0.03328c-0.38163-0.03342-0.76602-0.05022-1.1525-0.05022-0.38647 0-0.77087 0.01681-1.1525 0.05022l-0.38011 0.03328-0.75808-2.0485c-0.7055 0.10201-1.4004 0.25108-2.0812 0.44582l0.19652 2.1958-0.35841 0.13276c-0.73051 0.27058-1.435 0.60626-2.1059 1.0026l-0.32831 0.19393-1.6462-1.5947c-0.5855 0.37936-1.1456 0.79699-1.6764 1.2499l1.1913 2.0156-0.26858 0.27404c-0.56188 0.57332-1.0718 1.1969-1.523 1.8628l-0.21182 0.31263-2.3647-0.77943c-0.35701 0.57196-0.67727 1.1662-0.95858 1.7792l2.1098 1.4096-0.12793 0.36566c-0.27549 0.78743-0.47763 1.6015-0.6029 2.4339l-0.05574 0.37036-2.6747 0.36497c-0.05732 0.55006-0.0862 1.1053-0.0862 1.6641 0 0.09077 7.62e-4 0.18144 0.0023 0.27201l2.6942 0.36737 0.04016 0.39123c0.08953 0.8722 0.26268 1.7274 0.51594 2.5565l0.10859 0.3555-2.3722 1.5838c0.21569 0.58031 0.46524 1.1469 0.74718 1.6972l2.6994-0.88874 0.20681 0.33731c0.46964 0.766 1.0149 1.4824 1.6265 2.138l0.25518 0.27349-1.4852 2.5131c0.43808 0.4091 0.8989 0.79324 1.3801 1.1504l2.0797-2.0147 0.33315 0.21283c0.77036 0.49215 1.5892 0.90247 2.4444 1.2235l0.35608 0.13368-0.26018 2.9166c0.56307 0.1659 1.1361 0.3005 1.7171 0.40296l1.0139-2.7359 0.38604 0.04043c0.45436 0.04759 0.91289 0.07156 1.3744 0.07156s0.92005-0.02397 1.3744-0.07156l0.38615-0.04044 1.0131 2.7361c0.58152-0.10252 1.1551-0.23725 1.7187-0.40334l-0.26117-2.9163 0.35621-0.13373c0.85517-0.32106 1.674-0.73138 2.4444-1.2235l0.33313-0.21282 2.0798 2.0147c0.4812-0.35714 0.94198-0.74126 1.38-1.1503l-1.4852-2.5131 0.25518-0.27349c0.61167-0.65554 1.1569-1.372 1.6265-2.138l0.20681-0.33731 2.6994 0.88874c0.28194-0.55026 0.53149-1.1168 0.74718-1.6972l-2.3722-1.5838 0.10859-0.3555c0.25326-0.82911 0.42641-1.6843 0.51594-2.5565l0.04016-0.39123 2.6942-0.36737c0.0015-0.09058 0.0023-0.18125 0.0023-0.27201 0-0.55887-0.02888-1.1141-0.0862-1.6641l-2.6747-0.36497-0.05574-0.37036c-0.12527-0.83237-0.3274-1.6464-0.6029-2.4339l-0.12795-0.36566 2.1098-1.4096c-0.28132-0.61306-0.60158-1.2073-0.95858-1.7792l-2.3647 0.77943-0.21181-0.31263c-0.45116-0.66589-0.96111-1.2895-1.523-1.8628l-0.26858-0.27404 1.1913-2.0156c-0.53098-0.45302-1.0912-0.87075-1.6768-1.2502l-1.6457 1.5951-0.3284-0.19398c-0.67093-0.39631-1.3754-0.73198-2.1059-1.0026l-0.35841-0.13276 0.19652-2.1958c-0.68075-0.19474-1.3756-0.34381-2.0812-0.44582zm-2.2907 3.909c6.3011 0 11.409 5.108 11.409 11.409s-5.108 11.409-11.409 11.409-11.409-5.108-11.409-11.409 5.108-11.409 11.409-11.409z" fill="#585f6c" fill-rule="evenodd" filter="url(#preference-system-a)" stroke="#fff" stroke-linejoin="square" stroke-opacity=".05"/>
<path d="m36.968 5.2486c-0.42977-0.097569-0.86407 0.14411-1.0077 0.56075l-1.1147 3.2336c-0.2707 0.78531-1.0285 1.2967-1.858 1.2538-0.40413-0.02088-0.73422-0.03127-0.98898-0.03127-0.25476 0-0.58484 0.01039-0.98896 0.03126-0.82954 0.04286-1.5873-0.46847-1.858-1.2538l-1.1147-3.2337c-0.14362-0.41665-0.57792-0.65832-1.0077-0.56075l-1.7112 0.38848c-0.42783 0.097128-0.71486 0.49959-0.66736 0.93572l0.37874 3.4771c0.08564 0.78625-0.33432 1.5409-1.0476 1.8826l-1.9708 0.94398c-0.71818 0.34399-1.5756 0.19366-2.1339-0.37413l-2.4166-2.4576c-0.3096-0.31486-0.80685-0.34546-1.1527-0.070934l-1.3811 1.0962c-0.34218 0.2716-0.42766 0.75595-0.19911 1.1283l1.812 2.9518c0.41398 0.6744 0.35693 1.5367-0.1423 2.1507l-1.4695 1.8072c-0.49758 0.61195-1.3265 0.84441-2.0697 0.58042l-3.2431-1.1519c-0.41222-0.14642-0.86882 0.03851-1.063 0.43052l-0.78053 1.5759c-0.19516 0.39404-0.063099 0.87181 0.30674 1.1097l2.8529 1.8349c0.6704 0.43118 0.99236 1.241 0.80103 2.0148l-0.60441 2.4443c-0.18653 0.75437-0.82158 1.3138-1.5934 1.4038l-3.4783 0.40532c-0.42042 0.04899-0.74338 0.39545-0.76277 0.81826l-0.065625 1.4308c-9.5e-4 0.02071-0.00115 0.04145-6.109e-4 0.06218l0.01852 0.70709c0.00485 0.18525 0.14515 0.33875 0.32922 0.3602l3.7793 0.4404c0.80322 0.0936 1.4544 0.69451 1.6121 1.4876l0.52362 2.6332c0.14932 0.75091-0.1758 1.5168-0.81973 1.9309l-2.9733 1.9123c-0.35981 0.23142-0.49598 0.69138-0.32012 1.0814l0.67759 1.5027c0.18475 0.40971 0.65285 0.60925 1.0764 0.45882l3.1242-1.1097c0.76723-0.27251 1.6226-0.01543 2.1124 0.63492l1.6807 2.2314c0.46085 0.61185 0.50037 1.4434 0.09964 2.0962l-1.8693 3.0451c-0.2242 0.36524-0.14665 0.83964 0.18218 1.1145l1.2014 1.0041c0.34524 0.28855 0.85418 0.26368 1.1696-0.05714l2.362-2.4021c0.56847-0.57812 1.4455-0.72237 2.1692-0.35676l2.5416 1.284c0.69307 0.35013 1.0964 1.0933 1.0123 1.8652l-0.38474 3.5321c-0.04718 0.43311 0.23563 0.83354 0.65958 0.93392l1.4682 0.34762c0.43182 0.10224 0.87085-0.13942 1.0155-0.55895l1.1129-3.2286c0.27157-0.78783 1.0331-1.2996 1.8652-1.2534l1.2974 0.07202c0.03189 0.0018 0.06385 0.0018 0.09574 0l1.2974-0.07202c0.83204-0.04619 1.5936 0.4656 1.8652 1.2534l1.1129 3.2286c0.14462 0.41953 0.58364 0.66119 1.0155 0.55895l1.4682-0.34762c0.42395-0.10038 0.70676-0.50081 0.65958-0.93392l-0.38474-3.5321c-0.08408-0.77192 0.31926-1.5151 1.0123-1.8652l2.5416-1.284c0.72369-0.3656 1.6007-0.22136 2.1692 0.35676l2.362 2.4021c0.31547 0.32083 0.82441 0.34569 1.1696 0.05714l1.2014-1.0041c0.32883-0.27483 0.40638-0.74924 0.18218-1.1145l-1.8693-3.0451c-0.40073-0.65281-0.3612-1.4843 0.09964-2.0962l1.6807-2.2314c0.48984-0.65035 1.3452-0.90743 2.1124-0.63492l3.1242 1.1097c0.42352 0.15043 0.89162-0.0491 1.0764-0.45882l0.67759-1.5027c0.17586-0.38999 0.03969-0.84996-0.32012-1.0814l-2.9732-1.9123c-0.64393-0.41415-0.96905-1.18-0.81973-1.9309l0.52362-2.6332c0.15772-0.79312 0.80892-1.394 1.6121-1.4876l3.7793-0.4404c0.18407-0.02145 0.32437-0.17495 0.32922-0.3602l0.01852-0.70709c5.43e-4 -0.02073 3.39e-4 -0.04147-6.11e-4 -0.06218l-0.06562-1.4308c-0.01939-0.42282-0.34235-0.76927-0.76277-0.81826l-3.4783-0.40532c-0.77187-0.08994-1.4069-0.64939-1.5934-1.4038l-0.60441-2.4443c-0.19134-0.77379 0.13062-1.5836 0.80103-2.0148l2.8529-1.8349c0.36984-0.23787 0.5019-0.71564 0.30674-1.1097l-0.78053-1.5759c-0.19416-0.39201-0.65076-0.57694-1.063-0.43052l-3.2431 1.1519c-0.74322 0.26399-1.5721 0.03153-2.0697-0.58042l-1.4695-1.8072c-0.49923-0.61398-0.55629-1.4763-0.1423-2.1507l1.812-2.9518c0.22855-0.37232 0.14307-0.85667-0.19911-1.1283l-1.3811-1.0962c-0.34587-0.27452-0.84311-0.24392-1.1527 0.070934l-2.4166 2.4576c-0.55832 0.5678-1.4157 0.71812-2.1339 0.37413l-1.9708-0.94398c-0.7133-0.34166-1.1333-1.0963-1.0476-1.8826l0.37874-3.4771c0.047507-0.43614-0.23952-0.8386-0.66736-0.93572zm-8.6688 29.569c2.6534 4.5959 2.4905 10.214-0.29046 14.622l-0.19429 0.30796-0.35272-0.0904c-7.9975-2.0498-13.69-9.2859-13.69-17.658 0-1.2831 0.13265-2.5493 0.39351-3.7845l0.07536-0.35681 0.36278-0.03725c5.5-0.5648 10.882 2.1248 13.695 6.9968zm21.095-6.9968 0.36316 0.0373 0.07507 0.35727 0.03175 0.15114c0.24015 1.1872 0.36216 2.4023 0.36216 3.6329 0 8.3721-5.6919 15.608-13.689 17.658l-0.35267 0.09038-0.1943-0.30788c-2.7815-4.4074-2.9446-10.026-0.29105-14.622 2.8128-4.872 8.1953-7.5616 13.695-6.9968zm-17.395 0.94937c1.7824 0 3.2273 1.4449 3.2273 3.2273 0 1.7824-1.4449 3.2273-3.2273 3.2273-1.7824 0-3.2273-1.4449-3.2273-3.2273 0-1.7824 1.4449-3.2273 3.2273-3.2273zm-3.3e-5 -14.998c4.9276 0 9.5449 1.9652 12.945 5.3956l0.23477 0.23684-0.12844 0.30775c-2.1799 5.223-7.2949 8.6961-13.052 8.6961-5.7568 0-10.872-3.4731-13.051-8.6957l-0.12842-0.30771 0.23471-0.23682c3.4001-3.4308 8.0173-5.3961 12.945-5.3961z" fill="url(#preference-system-g)" fill-rule="evenodd" filter="url(#preference-system-a)" stroke="#fff" stroke-opacity=".3"/>
</svg>
