<svg width="24" height="24" version="1.1" viewBox="0 0 24 24" xmlns="http://www.w3.org/2000/svg" xmlns:xlink="http://www.w3.org/1999/xlink">
<defs>
<filter id="computer-a" x="-18.2%" y="-22.2%" width="136.4%" height="144.4%">
<feOffset dy="1" in="SourceAlpha" result="shadowOffsetOuter1"/>
<feGaussianBlur in="shadowOffsetOuter1" result="shadowBlurOuter1" stdDeviation=".5"/>
<feComposite in="shadowBlurOuter1" in2="SourceAlpha" operator="out" result="shadowBlurOuter1"/>
<feColorMatrix in="shadowBlurOuter1" result="shadowMatrixOuter1" values="0 0 0 0 0   0 0 0 0 0   0 0 0 0 0  0 0 0 0.15 0"/>
<feMerge>
<feMergeNode in="shadowMatrixOuter1"/>
<feMergeNode in="SourceGraphic"/>
</feMerge>
</filter>
<polygon id="computer-c" points="9 16 13 16 13 18 9 18"/>
<filter id="computer-d" x="-25%" y="-50%" width="150%" height="200%">
<feGaussianBlur in="SourceAlpha" result="shadowBlurInner1" stdDeviation=".5"/>
<feOffset dy="1" in="shadowBlurInner1" result="shadowOffsetInner1"/>
<feComposite in="shadowOffsetInner1" in2="SourceAlpha" k2="-1" k3="1" operator="arithmetic" result="shadowInnerInner1"/>
<feColorMatrix in="shadowInnerInner1" values="0 0 0 0 0.305544245   0 0 0 0 0.316030326   0 0 0 0 0.533769248  0 0 0 0.178130463 0"/>
</filter>
<rect id="computer-g" x=".75" y=".844" width="20" height="14" rx="1.75"/>
<linearGradient id="linearGradient1058" x1="7.7782" x2="7.7782" y1="25.456" y2="22.627" gradientTransform="scale(1.4142 .70711)" gradientUnits="userSpaceOnUse">
<stop stop-color="#CFDAFC" offset="0"/>
<stop stop-color="#CDCFD2" offset="1"/>
</linearGradient>
<linearGradient id="linearGradient1060" x1="3.8891" x2="3.8891" y1="48.083" y2="50.349" gradientTransform="matrix(2.8284 0 0 .35355 1 3)" gradientUnits="userSpaceOnUse">
<stop stop-color="#FFF" offset="0"/>
<stop stop-color="#EBF4FF" offset="1"/>
</linearGradient>
<linearGradient id="linearGradient1062" x1="7.4294" x2="14.128" y1="4.4191" y2="14.343" gradientTransform="matrix(1.1726 0 0 .8528 1 3)" gradientUnits="userSpaceOnUse">
<stop stop-color="#D7E4FF" offset="0"/>
<stop stop-color="#F4F9FF" offset="1"/>
</linearGradient>
<linearGradient id="linearGradient1064" x1="8.463" x2="8.463" y1="1.1033" y2="17.686" gradientTransform="scale(1.1952 .83666)" gradientUnits="userSpaceOnUse">
<stop stop-color="#4F5D73" offset="0"/>
<stop stop-color="#313A46" offset="1"/>
</linearGradient>
<linearGradient id="linearGradient1066" x2="7.3485" y1="4.899" y2="4.899" gradientTransform="matrix(2.4495 0 0 .40825 3 13.5)" gradientUnits="userSpaceOnUse">
<stop stop-color="#A09AD3" offset="0"/>
<stop stop-color="#988DD9" offset=".49618"/>
<stop stop-color="#1654D2" offset="1"/>
</linearGradient>
</defs>
<g fill-rule="evenodd">
<use transform="translate(1,3)" width="100%" height="100%" fill="url(#linearGradient1058)" filter="url(#computer-a)" xlink:href="#computer-c"/>
<use transform="translate(1,3)" width="100%" height="100%" fill="#000000" filter="url(#computer-d)" xlink:href="#computer-c"/>
<path d="m 8.46875,20 h 7.0625 C 15.790134,20 16,20.209866 16,20.46875 v 0.0625 C 16,20.790133 15.790134,21 15.53125,21 H 8.46875 C 8.2098665,21 8,20.790133 8,20.53125 v -0.0625 C 8,20.209866 8.2098665,20 8.46875,20 Z" fill="url(#linearGradient1060)" filter="url(#computer-a)"/>
<rect x="1" y="3" width="22" height="16" rx="2.344" ry="2.344" fill="url(#linearGradient1062)" filter="url(#computer-a)"/>
<use transform="translate(1.25,3.156)" width="100%" height="100%" fill="url(#linearGradient1064)" filter="url(#computer-a)" xlink:href="#computer-g"/>
<rect x="3" y="14" width="18" height="3" rx=".469" ry=".469" fill="url(#linearGradient1066)" filter="url(#computer-a)"/>
<rect x="6" y="15" width="1" height="1" rx=".234" fill="#00c98f" filter="url(#computer-a)"/>
<rect x="10" y="15" width="1" height="1" rx=".234" fill="#ffb656" filter="url(#computer-a)"/>
<rect x="14" y="15" width="1" height="1" rx=".234" fill="#ff796e" filter="url(#computer-a)"/>
<rect x="17" y="15" width="1" height="1" rx=".234" fill-opacity=".3" filter="url(#computer-a)"/>
<rect x="19" y="15" width="1" height="1" rx=".234" fill-opacity=".3" filter="url(#computer-a)"/>
<circle cx="4.5" cy="15.5" r="1" fill="#326cff" filter="url(#computer-a)"/>
<circle cx="12.5" cy="15.5" r="1" fill="#482ac5" filter="url(#computer-a)"/>
</g>
<path d="m12 5.999c-1.108 0-2 0.91-2 2.031v0.97h-0.5c-0.277 0-0.5 0.222-0.5 0.5v3c0 0.276 0.223 0.5 0.5 0.5h5c0.277 0 0.5-0.224 0.5-0.5v-3c0-0.278-0.223-0.5-0.5-0.5h-0.5v-0.97c0-1.12-0.892-2.03-2-2.03zm0 1c0.554 0 1 0.446 1 1v1h-2v-1c0-0.554 0.446-1 1-1z" fill="#f6fcff"/>
</svg>
