<svg width="64" height="64" version="1.1" xmlns="http://www.w3.org/2000/svg" xmlns:xlink="http://www.w3.org/1999/xlink">
<defs>
<filter id="filter882" x="-.036" y="-.036" width="1.072" height="1.072" color-interpolation-filters="sRGB">
<feGaussianBlur stdDeviation="0.84"/>
</filter>
<linearGradient id="linearGradient847" x1="32.858" x2="32.257" y1="56.699" y2="7.7791" gradientUnits="userSpaceOnUse">
<stop stop-color="#46a926" offset="0"/>
<stop stop-color="#7ec242" offset="1"/>
</linearGradient>
</defs>
<g stroke-width="1.4011">
<circle cx="32" cy="32" r="28" fill="#ccc" filter="url(#filter882)"/>
<circle cx="32" cy="32" r="28" fill="#fff"/>
<circle cx="32" cy="32" r="24" fill="url(#linearGradient847)"/>
</g>
<g transform="matrix(.11607 0 0 .11538 9.7143 8)" enable-background="new" fill="#92b372">
<path d="m80 104v144c0 35.157 28.843 64 64 64h96c35.157 0 64-28.843 64-64v-80c0-26.32-21.68-48-48-48-12.296 0-23.467 4.8602-32 12.586-8.5332-7.7257-19.704-12.586-32-12.586-26.32 0-48 21.68-48 48v80h32v-80c0-9.0261 6.9739-16 16-16s16 6.9739 16 16v80h32v-80c0-9.0261 6.9739-16 16-16s16 6.9739 16 16v80c0 17.863-14.137 32-32 32h-96c-17.863 0-32-14.137-32-32v-144z" color="#000000" color-rendering="auto" dominant-baseline="auto" enable-background="accumulate" fill="#fff" image-rendering="auto" shape-rendering="auto" solid-color="#000000" style="font-feature-settings:normal;font-variant-alternates:normal;font-variant-caps:normal;font-variant-ligatures:normal;font-variant-numeric:normal;font-variant-position:normal;isolation:auto;mix-blend-mode:normal;shape-padding:0;text-decoration-color:#000000;text-decoration-line:none;text-decoration-style:solid;text-indent:0;text-orientation:mixed;text-transform:none;white-space:normal"/>
</g>
</svg>
