<svg width="64" height="64" version="1.1" viewBox="0 0 64 64" xmlns="http://www.w3.org/2000/svg" xmlns:xlink="http://www.w3.org/1999/xlink">
<defs>
<filter id="computer-a" x="-13.8%" y="-16.7%" width="127.6%" height="133.3%">
<feOffset dy="1" in="SourceAlpha" result="shadowOffsetOuter1"/>
<feGaussianBlur in="shadowOffsetOuter1" result="shadowBlurOuter1" stdDeviation="1.5"/>
<feComposite in="shadowBlurOuter1" in2="SourceAlpha" operator="out" result="shadowBlurOuter1"/>
<feColorMatrix in="shadowBlurOuter1" result="shadowMatrixOuter1" values="0 0 0 0 0   0 0 0 0 0   0 0 0 0 0  0 0 0 0.2 0"/>
<feMerge>
<feMergeNode in="shadowMatrixOuter1"/>
<feMergeNode in="SourceGraphic"/>
</feMerge>
</filter>
<linearGradient id="computer-b" x1="22.463" x2="22.463" y1="61.968" y2="54.222" gradientTransform="scale(1.291 .7746)" gradientUnits="userSpaceOnUse">
<stop stop-color="#CFDAFC" offset="0"/>
<stop stop-color="#CDCFD2" offset="1"/>
</linearGradient>
<polygon id="computer-c" points="24 42 34 42 34 48 24 48"/>
<filter id="computer-d" y="-16.7%" height="133.3%">
<feGaussianBlur in="SourceAlpha" result="shadowBlurInner1" stdDeviation=".5"/>
<feOffset dy="1" in="shadowBlurInner1" result="shadowOffsetInner1"/>
<feComposite in="shadowOffsetInner1" in2="SourceAlpha" k2="-1" k3="1" operator="arithmetic" result="shadowInnerInner1"/>
<feColorMatrix in="shadowInnerInner1" values="0 0 0 0 0.305544245   0 0 0 0 0.316030326   0 0 0 0 0.533769248  0 0 0 0.178130463 0"/>
</filter>
<linearGradient id="computer-e" x1="9.1706" x2="9.1706" y1="145.46" y2="150.53" gradientTransform="scale(3.1623 .31623)" gradientUnits="userSpaceOnUse">
<stop stop-color="#FFF" offset="0"/>
<stop stop-color="#EBF4FF" offset="1"/>
</linearGradient>
<path id="computer-f" d="m20 46h18c0.55228 0 1 0.44772 1 1s-0.44772 1-1 1h-18c-0.55228 0-1-0.44772-1-1s0.44772-1 1-1z"/>
<filter id="computer-g" x="-2.5%" y="-25%" width="105%" height="150%">
<feOffset dy="-1" in="SourceAlpha" result="shadowOffsetInner1"/>
<feComposite in="shadowOffsetInner1" in2="SourceAlpha" k2="-1" k3="1" operator="arithmetic" result="shadowInnerInner1"/>
<feColorMatrix in="shadowInnerInner1" values="0 0 0 0 0   0 0 0 0 0   0 0 0 0 0  0 0 0 0.168651661 0"/>
</filter>
<linearGradient id="computer-h" x1="19.544" x2="37.166" y1="11.737" y2="37.619" gradientTransform="scale(1.1751 .85096)" gradientUnits="userSpaceOnUse">
<stop stop-color="#D7E4FF" offset="0"/>
<stop stop-color="#F4F9FF" offset="1"/>
</linearGradient>
<rect id="computer-i" width="58" height="42" rx="6.25"/>
<filter id="computer-j" x="-.9%" y="-1.2%" width="101.7%" height="102.4%">
<feOffset dy="-1" in="SourceAlpha" result="shadowOffsetInner1"/>
<feComposite in="shadowOffsetInner1" in2="SourceAlpha" k2="-1" k3="1" operator="arithmetic" result="shadowInnerInner1"/>
<feColorMatrix in="shadowInnerInner1" result="shadowMatrixInner1" values="0 0 0 0 0   0 0 0 0 0   0 0 0 0 0  0 0 0 0.12 0"/>
<feOffset dy="1" in="SourceAlpha" result="shadowOffsetInner2"/>
<feComposite in="shadowOffsetInner2" in2="SourceAlpha" k2="-1" k3="1" operator="arithmetic" result="shadowInnerInner2"/>
<feColorMatrix in="shadowInnerInner2" result="shadowMatrixInner2" values="0 0 0 0 1   0 0 0 0 1   0 0 0 0 1  0 0 0 1 0"/>
<feMerge>
<feMergeNode in="shadowMatrixInner1"/>
<feMergeNode in="shadowMatrixInner2"/>
</feMerge>
</filter>
<linearGradient id="computer-l" x1="21.212" x2="21.212" y1=".25594" y2="45.147" gradientTransform="scale(1.1921 .83887)" gradientUnits="userSpaceOnUse">
<stop stop-color="#4F5D73" offset="0"/>
<stop stop-color="#313A46" offset="1"/>
</linearGradient>
<rect id="computer-k" width="54" height="38" rx="4.5"/>
</defs>
<g fill-rule="evenodd">
<use transform="translate(3,8)" width="100%" height="100%" fill="url(#computer-b)" filter="url(#computer-a)" xlink:href="#computer-c"/>
<use transform="translate(3,8)" width="100%" height="100%" fill="#000000" filter="url(#computer-d)" xlink:href="#computer-c"/>
<use transform="translate(3,8)" width="100%" height="100%" fill="url(#computer-e)" filter="url(#computer-a)" xlink:href="#computer-f"/>
<use transform="translate(3,8)" width="100%" height="100%" fill="#000000" filter="url(#computer-g)" xlink:href="#computer-f"/>
<use transform="translate(3,8)" width="100%" height="100%" fill="url(#computer-h)" filter="url(#computer-a)" xlink:href="#computer-i"/>
<use transform="translate(3,8)" width="100%" height="100%" fill="#000000" filter="url(#computer-j)" xlink:href="#computer-i"/>
<use transform="translate(5,10)" width="100%" height="100%" fill="url(#computer-l)" filter="url(#computer-a)" xlink:href="#computer-k"/>
<path d="m44.166 10c-4.1414 9.821-5.8061 15.368-4.9297 16.527 1.4195 1.8778 0.90252 6.6348-1.0332 9.2637-1.9357 2.6289-8.0012 4.3816-8.6465 6.5098-0.64524 2.1282-16.905 3.6302-18.453 5.3828-0.11093 0.12554-0.15678 0.21394-0.22656 0.31641h43.602c2.5052 0 4.5215-2.0353 4.5215-4.5625v-28.875c0-2.5272-2.0163-4.5625-4.5215-4.5625h-10.312z" fill="#1c4186" filter="url(#computer-a)"/>
<path d="m15.867 10-3.7852 4.0078c-1.4133 19.963-1.7961 31.281-1.1523 33.992h14.084c3.2835-2.1391 9.3991-11.31 10.824-13.727 1.5493-2.6269 3.0991-6.3795 8.3926-16.387 1.9079-3.6068 2.9393-6.2299 3.1113-7.8867h-31.475z" fill="#e080a9" filter="url(#computer-a)"/>
<path d="m9.5215 10c-2.5052 0-4.5215 2.0353-4.5215 4.5625v28.875c0 2.5272 2.0163 4.5625 4.5215 4.5625h5.4512c1.6723-2.1287 3.1775-4.9844 2.4629-7.875-1.4215-5.75 5.4264-13.75 4.3926-21.375-0.46564-3.4345-0.38715-6.3426 0.20898-8.75h-12.516z" fill="#101852" filter="url(#computer-a)"/>
<path d="m46.604 10-0.37109 1.3613c-0.65291 2.3988-2.0978 4.5051-4.1016 5.9766-2.9134 2.1395-4.3711 4.5269-4.3711 7.1621 0 5.125-2.5769 10.875-6.8301 12.25s-8.6349 1-9.666 5-4.1253 0.75-5.8008 2.375c-0.99468 0.9647-1.2633 2.5825-1.7188 3.875h25.307c1.3172-7.0098 4.0525-12.028 8.2461-15 6.702-4.75-6.0577-6.125-0.77344-10.25 3.128-2.4418 3.6644-6.6948 1.6191-12.75h-1.5391z" fill="#7a6c9f" filter="url(#computer-a)"/>
</g>
</svg>
