<svg width="32" height="32" version="1.1" viewBox="0 0 32 32" xmlns="http://www.w3.org/2000/svg" xmlns:xlink="http://www.w3.org/1999/xlink">
<defs>
<filter id="folder-applications-stack-a" x="-14.3%" y="-16.7%" width="128.6%" height="133.3%">
<feOffset dy="1" in="SourceAlpha" result="shadowOffsetOuter1"/>
<feGaussianBlur in="shadowOffsetOuter1" result="shadowBlurOuter1" stdDeviation=".5"/>
<feComposite in="shadowBlurOuter1" in2="SourceAlpha" operator="out" result="shadowBlurOuter1"/>
<feColorMatrix in="shadowBlurOuter1" result="shadowMatrixOuter1" values="0 0 0 0 0   0 0 0 0 0   0 0 0 0 0  0 0 0 0.15 0"/>
<feMerge>
<feMergeNode in="shadowMatrixOuter1"/>
<feMergeNode in="SourceGraphic"/>
</feMerge>
</filter>
<path id="folder-applications-stack-b" d="m15.5 1.5c0.2986 0.89579 1.1369 1.5 2.0811 1.5h6.9189c1.933 0 3.5 1.567 3.5 3.5v14c0 1.933-1.567 3.5-3.5 3.5h-21c-1.933 0-3.5-1.567-3.5-3.5v-17c-2.3672e-16 -1.933 1.567-3.5 3.5-3.5h9.9189c0.94424 7.6425e-16 1.7825 0.60421 2.0811 1.5z"/>
<radialGradient id="folder-applications-stack-i" cx="11.225" cy=".3118" r="21.813" gradientTransform="scale(1.2472 .80178)" gradientUnits="userSpaceOnUse">
<stop stop-color="#7859FF" offset="0"/>
<stop stop-color="#5A2DFF" offset="1"/>
</radialGradient>
<path id="folder-applications-stack-h" d="m0 0.25h28v14.5c0 1.933-1.567 3.5-3.5 3.5h-21c-1.933 0-3.5-1.567-3.5-3.5v-14.5z"/>
<linearGradient id="folder-applications-stack-k" x1="66.942%" x2="46.177%" y1="57.656%" y2="39.831%">
<stop stop-color="#5700FC" offset="0"/>
<stop stop-color="#5867FF" stop-opacity="0" offset="1"/>
</linearGradient>
<linearGradient id="folder-applications-stack-l" x1="10.07" x2="7.2275" y1="9.3659" y2="2.7067" gradientTransform="scale(.76376 1.3093)" gradientUnits="userSpaceOnUse">
<stop stop-color="#D1C0FF" offset="0"/>
<stop stop-color="#8375FF" offset="1"/>
</linearGradient>
<linearGradient id="folder-applications-stack-m" x1="6.5465" x2="6.5465" y2="36" gradientTransform="scale(1.5275 .65465)" gradientUnits="userSpaceOnUse">
<stop stop-color="#FFF" stop-opacity=".8" offset="0"/>
<stop stop-color="#882AFF" stop-opacity=".117" offset="1"/>
</linearGradient>
<linearGradient id="folder-applications-stack-n" x1="12.499" x2="12.499" y1="-1.4353" y2="6.4807" gradientTransform="scale(1.0801 .92582)" gradientUnits="userSpaceOnUse">
<stop stop-color="#CAA2FF" stop-opacity=".3" offset="0"/>
<stop stop-color="#6249F0" offset="1"/>
</linearGradient>
<linearGradient id="folder-applications-stack-o" x1="15.997" x2="19.235" y1="7.3856" y2="6.0031" gradientTransform="scale(.76376 1.3093)" gradientUnits="userSpaceOnUse">
<stop stop-color="#B9B7FF" offset="0"/>
<stop stop-color="#8174FF" offset="1"/>
</linearGradient>
<linearGradient id="folder-applications-stack-p" x1="4.1938" x2="4.1938" y1="2.0749" y2="11.344" gradientTransform="scale(1.2519 .79881)" gradientUnits="userSpaceOnUse">
<stop stop-color="#B6A2FF" offset="0"/>
<stop stop-color="#6249F0" offset="1"/>
</linearGradient>
<linearGradient id="folder-applications-stack-q" x1="11.758" x2="11.758" y1="2.0873" y2="11.412" gradientTransform="scale(1.2593 .79406)" gradientUnits="userSpaceOnUse">
<stop stop-color="#B6A2FF" offset="0"/>
<stop stop-color="#6249F0" offset="1"/>
</linearGradient>
<linearGradient id="linearGradient1004" x1="9.6313" x2="6.6437" y1="35.472" y2="32.907" gradientTransform="scale(1.5986 .62554)" gradientUnits="userSpaceOnUse" xlink:href="#folder-applications-stack-k"/>
<linearGradient id="linearGradient1006" x1="14.01" x2="11.023" y1="35.472" y2="32.907" gradientTransform="scale(1.5986 .62554)" gradientUnits="userSpaceOnUse" xlink:href="#folder-applications-stack-k"/>
<filter id="filter968" x="-.041538" y="-.108" width="1.0831" height="1.216" color-interpolation-filters="sRGB">
<feGaussianBlur stdDeviation="0.45"/>
</filter>
<linearGradient id="folder-32-g" x1="8.6824" x2="8.6824" y1="6.4498" y2="8.3519" gradientTransform="matrix(1.6125 0 0 .62017 -18 5)" gradientUnits="userSpaceOnUse">
<stop stop-color="#FFF" offset="0"/>
<stop stop-color="#CEF5FF" offset="1"/>
</linearGradient>
<filter id="folder-32-a" x="-.143" y="-.167" width="1.286" height="1.333">
<feOffset dy="1" in="SourceAlpha" result="shadowOffsetOuter1"/>
<feGaussianBlur in="shadowOffsetOuter1" result="shadowBlurOuter1" stdDeviation=".5"/>
<feComposite in="shadowBlurOuter1" in2="SourceAlpha" operator="out" result="shadowBlurOuter1"/>
<feColorMatrix in="shadowBlurOuter1" result="shadowMatrixOuter1" values="0 0 0 0 0   0 0 0 0 0   0 0 0 0 0  0 0 0 0.15 0"/>
<feMerge>
<feMergeNode in="shadowMatrixOuter1"/>
<feMergeNode in="SourceGraphic"/>
</feMerge>
</filter>
</defs>
<use transform="translate(2,5)" width="100%" height="100%" fill="#4a00d5" fill-rule="evenodd" filter="url(#folder-applications-stack-a)" xlink:href="#folder-applications-stack-b"/>
<g transform="translate(20)" fill-rule="evenodd">
<rect x="-17" y="9" width="26" height="10" rx="2.2386" ry="2.2386" fill-opacity=".2" filter="url(#filter968)" style="paint-order:stroke fill markers"/>
<rect x="-17" y="9" width="26" height="10" rx="2.25" ry="2.25" fill="url(#folder-32-g)" filter="url(#folder-32-a)"/>
<path d="m-14.762 9c-1.2402 0-2.2383 0.99809-2.2383 2.2383v1c0-1.2402 0.99809-2.2383 2.2383-2.2383h21.523c1.2402 0 2.2383 0.99809 2.2383 2.2383v-1c0-1.2402-0.99809-2.2383-2.2383-2.2383z" opacity=".5" style="paint-order:stroke fill markers"/>
</g>
<use transform="translate(2,10.75)" width="100%" height="100%" fill="url(#folder-applications-stack-i)" fill-rule="evenodd" filter="url(#folder-applications-stack-a)" xlink:href="#folder-applications-stack-h"/>
<g transform="translate(1,3)" fill="none" fill-rule="evenodd" filter="url(#folder-applications-stack-a)">
<polygon points="7.87 17 0 20.08 15.13 26 23 22.92" fill="url(#linearGradient1004)"/>
<polygon transform="matrix(-1,0,0,1,37,0)" points="14.87 17 7 20.08 22.13 26 30 22.92" fill="url(#linearGradient1006)"/>
<g transform="translate(5,9)">
<polygon points="3 12 3 3 10 6 10 15" fill="url(#folder-applications-stack-l)"/>
<polygon points="10 0 3 3 10 6 17 3" fill="url(#folder-applications-stack-m)"/>
<polygon points="10 0 10 6 17 3" fill="url(#folder-applications-stack-n)"/>
<polygon points="10 6 17 3 17 12 10 15" fill="url(#folder-applications-stack-o)"/>
<polygon points="0.5 6.062 3 3 10 6 7.5 9.062" fill="url(#folder-applications-stack-p)"/>
<polygon points="10 6 17 3 19.614 6.062 12.614 9.062" fill="url(#folder-applications-stack-q)"/>
</g>
<g transform="translate(1)">
<circle cx="17.19" cy="8.167" r="1" fill="#ffd506"/>
<circle cx="9.188" cy="7.292" r="1" fill="#ff00fe"/>
<circle cx="1.186" cy="6.417" r="1" fill="#4000e0"/>
<polygon transform="rotate(23,12.633,4.265)" points="12.038 4.853 12.045 3.684 13.227 3.677 13.221 4.846" fill="#4000e0"/>
<polygon transform="rotate(23,24.505,10.3)" points="24.207 10.593 24.211 10.008 24.802 10.005 24.799 10.59" fill="#eb5959"/>
<polygon transform="rotate(45,14.646,11.496)" points="14.349 11.792 14.354 11.204 14.942 11.199 14.937 11.787" fill="#4000e0"/>
<polygon transform="rotate(45,14.053,13.246)" points="13.756 13.542 13.761 12.954 14.349 12.949 14.344 13.537" fill="#ffd506"/>
<circle cx="14.523" cy="9.625" r="1" fill="#fff"/>
<circle cx="12.152" cy="11.958" r="1" fill="#fff"/>
<polygon transform="rotate(45,14.646,6.83)" points="14.349 7.126 14.354 6.537 14.942 6.533 14.937 7.121" fill="#8a0991"/>
<polygon transform="rotate(72,12.913,10.562)" points="12.328 10.86 12.33 10.268 13.499 10.263 13.496 10.855" fill="#fff" opacity=".6"/>
<polygon transform="rotate(45,6.94,7.412)" points="6.643 7.709 6.648 7.121 7.236 7.116 7.231 7.704" fill="#4000e0"/>
<polygon transform="rotate(45,11.089,7.996)" points="10.793 8.292 10.797 7.704 11.385 7.699 11.381 8.287" fill="#9757ff"/>
<polygon transform="rotate(45,6.94,6.246)" points="6.643 6.542 6.648 5.954 7.236 5.949 7.231 6.537" fill="#ffd506"/>
<polygon transform="rotate(45,19.98,8.167)" points="19.388 8.759 19.397 7.583 20.573 7.574 20.564 8.75" fill="#7dac00" opacity=".9"/>
<polygon transform="rotate(45,19.388,6.83)" points="19.091 7.126 19.096 6.537 19.684 6.533 19.679 7.121" fill="#8a0991"/>
<polygon transform="rotate(45,18.484,11.119)" points="18.185 11.709 18.194 10.533 18.782 10.528 18.773 11.704" fill="#00c894"/>
<polygon transform="rotate(45,16.25,10.742)" points="15.657 11.334 15.667 10.158 16.843 10.149 16.834 11.325" fill="#9757ff"/>
<polygon transform="rotate(45,18.448,4.154)" points="17.559 5.043 17.573 3.279 19.337 3.265 19.323 5.029" fill="#00c894"/>
<polygon transform="rotate(24,24.482,2.509)" points="22.995 3.98 23.012 1.055 25.969 1.038 25.951 3.962" fill="#396eff"/>
<polygon transform="rotate(-51,3.217,3.045)" points="1.47 4.798 1.442 1.264 4.965 1.291 4.992 4.826" fill="#88a1ff"/>
<polygon transform="rotate(45,1.257,8.82)" points="0.368 9.71 0.382 7.946 2.147 7.932 2.132 9.696" fill="#ff8100" fill-opacity=".8"/>
<polygon transform="rotate(23,6.722,13.216)" points="6.424 13.51 6.428 12.925 7.019 12.922 7.016 13.506" fill="#7dac00" opacity=".5"/>
<polygon transform="rotate(45,6.976,10.535)" points="6.385 10.834 6.39 10.246 7.566 10.237 7.561 10.825" fill="#ff00fe"/>
<polygon points="4.742 8.167 4.916 8.514 5.306 8.57 5.024 8.84 5.091 9.222 4.742 9.042 4.394 9.222 4.46 8.84 4.178 8.57 4.568 8.514" fill="#fe002e"/>
<polygon transform="rotate(-37,10.873,3.69)" points="10.87 3.159 11.046 3.509 11.434 3.568 11.156 3.838 11.225 4.223 10.877 4.039 10.532 4.217 10.595 3.834 10.313 3.56 10.7 3.507" fill="#fe002e"/>
<polygon transform="rotate(-37,12.059,8.94)" points="12.056 8.409 12.231 8.759 12.619 8.818 12.341 9.088 12.41 9.473 12.062 9.289 11.717 9.467 11.781 9.084 11.498 8.81 11.885 8.757" fill="#fe9d0b"/>
<polygon transform="rotate(-37,16.606,2.56)" points="16.601 1.762 16.865 2.288 17.447 2.377 17.03 2.781 17.133 3.358 16.612 3.082 16.094 3.35 16.189 2.775 15.765 2.364 16.346 2.284" fill="#fe9d0b"/>
<polygon transform="rotate(-37,13.084,13.103)" points="13.082 12.837 13.17 13.012 13.364 13.042 13.225 13.177 13.259 13.369 13.085 13.277 12.913 13.366 12.944 13.175 12.803 13.037 12.997 13.011" fill="#fe9d0b"/>
<polygon transform="rotate(45,22.98,6.865)" points="22.385 7.751 22.399 5.987 23.575 5.978 23.561 7.742" fill="#88a1ff" opacity=".8"/>
<polygon transform="rotate(-18,7.64,3.839)" points="6.757 4.711 6.749 2.958 8.524 2.967 8.533 4.719" fill="#00c894"/>
<polygon transform="rotate(7,9.638,8.902)" points="9.045 9.486 9.047 8.319 10.232 8.317 10.23 9.484" fill="#eb5959"/>
</g>
</g>
</svg>
