<svg width="32" height="32" version="1.1" viewBox="0 0 32 32" xmlns="http://www.w3.org/2000/svg" xmlns:xlink="http://www.w3.org/1999/xlink">
<defs>
<filter id="folder-music-stack-a" x="-14.3%" y="-16.7%" width="128.6%" height="133.3%">
<feOffset dy="1" in="SourceAlpha" result="shadowOffsetOuter1"/>
<feGaussianBlur in="shadowOffsetOuter1" result="shadowBlurOuter1" stdDeviation=".5"/>
<feComposite in="shadowBlurOuter1" in2="SourceAlpha" operator="out" result="shadowBlurOuter1"/>
<feColorMatrix in="shadowBlurOuter1" result="shadowMatrixOuter1" values="0 0 0 0 0   0 0 0 0 0   0 0 0 0 0  0 0 0 0.15 0"/>
<feMerge>
<feMergeNode in="shadowMatrixOuter1"/>
<feMergeNode in="SourceGraphic"/>
</feMerge>
</filter>
<linearGradient id="folder-music-stack-c" x1="14.816" x2="14.816" y1="-3.0699e-14" y2="22.845" gradientTransform="scale(1.0801 .92582)" gradientUnits="userSpaceOnUse">
<stop stop-color="#C80017" offset="0"/>
<stop stop-color="#B105FF" offset="1"/>
</linearGradient>
<path id="folder-music-stack-b" d="m15.5 1.5c0.2986 0.89579 1.1369 1.5 2.0811 1.5h6.9189c1.933 0 3.5 1.567 3.5 3.5v14c0 1.933-1.567 3.5-3.5 3.5h-21c-1.933 0-3.5-1.567-3.5-3.5v-17c-2.3672e-16 -1.933 1.567-3.5 3.5-3.5h9.9189c0.94424 7.6425e-16 1.7825 0.60421 2.0811 1.5z"/>
<linearGradient id="folder-music-stack-i" x1="11.225" x2="11.225" y1=".3118" y2="21.816" gradientTransform="matrix(1.2472 0 0 .80178 2 10.75)" gradientUnits="userSpaceOnUse">
<stop stop-color="#F87136" offset="0"/>
<stop stop-color="#D22E18" offset="1"/>
</linearGradient>
<linearGradient id="folder-music-stack-j" x1="10" x2="10" y1="-4.4409e-16" y2="19.555" gradientUnits="userSpaceOnUse">
<stop stop-color="#343434" offset="0"/>
<stop stop-color="#240B0B" offset="1"/>
</linearGradient>
<linearGradient id="folder-music-stack-k" x1="50%" x2="50%" y2="100%">
<stop stop-color="#151515" offset="0"/>
<stop offset="1"/>
</linearGradient>
<linearGradient id="folder-music-stack-l" x1="10" x2="10" y1="4" y2="16" gradientUnits="userSpaceOnUse">
<stop stop-color="#E91F95" offset="0"/>
<stop stop-color="#930DCE" offset="1"/>
</linearGradient>
<linearGradient id="linearGradient905" x1="10" x2="10" y1="-4.4409e-16" y2="20" gradientUnits="userSpaceOnUse" xlink:href="#folder-music-stack-k"/>
<linearGradient id="linearGradient907" x1="10" x2="10" y1="4" y2="16" gradientUnits="userSpaceOnUse" xlink:href="#folder-music-stack-k"/>
<filter id="filter968" x="-.041538" y="-.108" width="1.0831" height="1.216" color-interpolation-filters="sRGB">
<feGaussianBlur stdDeviation="0.45"/>
</filter>
<linearGradient id="folder-32-g" x1="8.6824" x2="8.6824" y1="6.4498" y2="8.3519" gradientTransform="matrix(1.6125 0 0 .62017 -40 5)" gradientUnits="userSpaceOnUse">
<stop stop-color="#FFF" offset="0"/>
<stop stop-color="#ffedce" offset="1"/>
</linearGradient>
<filter id="folder-32-a" x="-.143" y="-.167" width="1.286" height="1.333">
<feOffset dy="1" in="SourceAlpha" result="shadowOffsetOuter1"/>
<feGaussianBlur in="shadowOffsetOuter1" result="shadowBlurOuter1" stdDeviation=".5"/>
<feComposite in="shadowBlurOuter1" in2="SourceAlpha" operator="out" result="shadowBlurOuter1"/>
<feColorMatrix in="shadowBlurOuter1" result="shadowMatrixOuter1" values="0 0 0 0 0   0 0 0 0 0   0 0 0 0 0  0 0 0 0.15 0"/>
<feMerge>
<feMergeNode in="shadowMatrixOuter1"/>
<feMergeNode in="SourceGraphic"/>
</feMerge>
</filter>
</defs>
<use transform="translate(2,5)" width="100%" height="100%" fill="url(#folder-music-stack-c)" fill-rule="evenodd" filter="url(#folder-music-stack-a)" xlink:href="#folder-music-stack-b"/>
<g transform="translate(42)" fill-rule="evenodd">
<rect x="-39" y="9" width="26" height="10" rx="2.2386" ry="2.2386" fill-opacity=".2" filter="url(#filter968)" style="paint-order:stroke fill markers"/>
<rect x="-39" y="9" width="26" height="10" rx="2.25" ry="2.25" fill="url(#folder-32-g)" filter="url(#folder-32-a)"/>
<path d="m-36.762 9c-1.2402 0-2.2383 0.99809-2.2383 2.2383v1c0-1.2402 0.99809-2.2383 2.2383-2.2383h21.523c1.2402 0 2.2383 0.99809 2.2383 2.2383v-1c0-1.2402-0.99809-2.2383-2.2383-2.2383z" opacity=".5" style="paint-order:stroke fill markers"/>
</g>
<path d="m2 11h28v14.5c0 1.933-1.567 3.5-3.5 3.5h-21c-1.933 0-3.5-1.567-3.5-3.5z" fill="url(#folder-music-stack-i)" fill-rule="evenodd" filter="url(#folder-music-stack-a)"/>
<g transform="translate(6,13)" fill-rule="evenodd" filter="url(#folder-music-stack-a)">
<circle cx="10" cy="10" r="9.5" fill="url(#folder-music-stack-j)" stroke="url(#linearGradient905)"/>
<circle cx="10" cy="10" r="5.5" fill="url(#folder-music-stack-l)" stroke="url(#linearGradient907)"/>
<polygon points="13 10 8 13 8 7" fill="#fff"/>
</g>
</svg>
