<svg width="32" height="32" version="1.1" viewBox="0 0 32 32" xmlns="http://www.w3.org/2000/svg" xmlns:xlink="http://www.w3.org/1999/xlink">
<defs>
<linearGradient id="folder-pictures-l" x1="5.9161" x2="5.9161" y2="11.688" gradientTransform="scale(1.1832 .84515)" gradientUnits="userSpaceOnUse">
<stop stop-color="#FFF" offset="0"/>
<stop stop-color="#FFF" stop-opacity=".6" offset="1"/>
</linearGradient>
<path id="folder-pictures-j" d="m0 0.78468c0-0.43337 0.34607-0.78468 0.79281-0.78468h12.414c0.43786 0 0.79281 0.35591 0.79281 0.78468v8.4306c0 0.43337-0.34607 0.78468-0.79281 0.78468h-12.414c-0.43786 0-0.79281-0.35591-0.79281-0.78468v-8.4306zm11 2.2153c0.55228 0 1-0.44772 1-1s-0.44772-1-1-1-1 0.44772-1 1 0.44772 1 1 1z"/>
<filter id="folder-pictures-k" x="-14.3%" width="128.6%" height="140%">
<feOffset dy="1" in="SourceAlpha" result="shadowOffsetOuter1"/>
<feGaussianBlur in="shadowOffsetOuter1" result="shadowBlurOuter1" stdDeviation=".5"/>
<feColorMatrix in="shadowBlurOuter1" values="0 0 0 0 0   0 0 0 0 0.42905776   0 0 0 0 0.968670281  0 0 0 0.5 0"/>
</filter>
<linearGradient id="folder-pictures-m" x1="4.2427" x2="3.5056" y1="7.3627" y2="10.439" gradientTransform="scale(1.2963 .7714)" gradientUnits="userSpaceOnUse">
<stop stop-color="#FF3C14" stop-opacity=".8" offset="0"/>
<stop stop-color="#6E00F5" stop-opacity=".8" offset=".43748"/>
<stop stop-color="#3900FF" stop-opacity=".655" offset="1"/>
</linearGradient>
<linearGradient id="folder-pictures-o" x1="6.7079" x2="6.7079" y1="6.8518" y2="13.417" gradientTransform="scale(1.3417 .74532)" gradientUnits="userSpaceOnUse">
<stop stop-color="#32F8FF" stop-opacity=".8" offset="0"/>
<stop stop-color="#0097FF" offset="1"/>
</linearGradient>
<linearGradient id="linearGradient874" x1="12.961" x2="12.961" y1="-3.0699e-14" y2="9.8424" gradientTransform="matrix(1.0801 0 0 .92582 2 5)" gradientUnits="userSpaceOnUse">
<stop stop-color="#9c3" offset="0"/>
<stop stop-color="#28851e" offset="1"/>
</linearGradient>
<filter id="folder-32-a" x="-.143" y="-.167" width="1.286" height="1.333">
<feOffset dy="1" in="SourceAlpha" result="shadowOffsetOuter1"/>
<feGaussianBlur in="shadowOffsetOuter1" result="shadowBlurOuter1" stdDeviation=".5"/>
<feComposite in="shadowBlurOuter1" in2="SourceAlpha" operator="out" result="shadowBlurOuter1"/>
<feColorMatrix in="shadowBlurOuter1" result="shadowMatrixOuter1" values="0 0 0 0 0   0 0 0 0 0   0 0 0 0 0  0 0 0 0.15 0"/>
<feMerge>
<feMergeNode in="shadowMatrixOuter1"/>
<feMergeNode in="SourceGraphic"/>
</feMerge>
</filter>
<filter id="filter968" x="-.041538" y="-.108" width="1.0831" height="1.216" color-interpolation-filters="sRGB">
<feGaussianBlur stdDeviation="0.45"/>
</filter>
<linearGradient id="folder-32-g" x1="8.6824" x2="8.6824" y1="6.4498" y2="8.3519" gradientTransform="matrix(1.6125 0 0 .62017 2 5)" gradientUnits="userSpaceOnUse">
<stop stop-color="#FFF" offset="0"/>
<stop stop-color="#CEF5FF" offset="1"/>
</linearGradient>
<radialGradient id="radialGradient883" cx="11.225" cy=".3118" r="26.404" gradientTransform="matrix(1.2472 0 0 .80178 2 10.75)" gradientUnits="userSpaceOnUse">
<stop stop-color="#ccff42" offset="0"/>
<stop stop-color="#50a100" offset="1"/>
</radialGradient>
</defs>
<g fill-rule="evenodd">
<path d="m17.5 6.5c0.2986 0.89579 1.1369 1.5 2.0811 1.5h6.9189c1.933 0 3.5 1.567 3.5 3.5v14c0 1.933-1.567 3.5-3.5 3.5h-21c-1.933 0-3.5-1.567-3.5-3.5v-17c0-1.933 1.567-3.5 3.5-3.5h9.9189c0.94424 0 1.7825 0.60421 2.0811 1.5z" fill="url(#linearGradient874)" filter="url(#folder-32-a)"/>
<rect x="3" y="9" width="26" height="10" rx="2.2386" ry="2.2386" fill-opacity=".2" filter="url(#filter968)" style="paint-order:stroke fill markers"/>
<rect x="3" y="9" width="26" height="10" rx="2.25" ry="2.25" fill="url(#folder-32-g)" filter="url(#folder-32-a)"/>
<path d="M 5.2383,9 C 3.9981,9 3,9.99809 3,11.2383 v 1 C 3,10.9981 3.99809,10 5.2383,10 h 21.523 c 1.2402,0 2.2383,0.99809 2.2383,2.2383 v -1 C 28.9996,9.9981 28.00151,9 26.7613,9 Z" opacity=".5" style="paint-order:stroke fill markers"/>
<path d="m2 11h28v14.5c0 1.933-1.567 3.5-3.5 3.5h-21c-1.933 0-3.5-1.567-3.5-3.5z" fill="url(#radialGradient883)" filter="url(#folder-32-a)"/>
</g>
<use transform="translate(9,15)" width="100%" height="100%" fill="#000000" fill-rule="evenodd" filter="url(#folder-pictures-k)" xlink:href="#folder-pictures-j"/>
<use transform="translate(9,15)" width="100%" height="100%" fill="url(#folder-pictures-l)" fill-rule="evenodd" xlink:href="#folder-pictures-j"/>
<path transform="translate(9,15)" d="m0 10 4.8904-6.2241c0.33668-0.4285 0.88236-0.42874 1.2192 0l4.8904 6.2241z" fill="url(#folder-pictures-m)" fill-rule="evenodd"/>
<path transform="translate(9,15)" d="m4 10 4.3667-5.2401c0.34974-0.41968 0.9164-0.42013 1.2665 0l4.3667 5.2401z" fill="url(#folder-pictures-o)" fill-rule="evenodd"/>
</svg>
