<svg width="32" height="32" version="1.1" viewBox="0 0 32 32" xmlns="http://www.w3.org/2000/svg" xmlns:xlink="http://www.w3.org/1999/xlink">
<defs>
<linearGradient id="linearGradient874" x1="12.961" x2="12.961" y1="-3.0699e-14" y2="9.8424" gradientTransform="matrix(1.0801 0 0 .92582 2 5)" gradientUnits="userSpaceOnUse">
<stop stop-color="#9c3" offset="0"/>
<stop stop-color="#28851e" offset="1"/>
</linearGradient>
<filter id="folder-32-a" x="-.143" y="-.167" width="1.286" height="1.333">
<feOffset dy="1" in="SourceAlpha" result="shadowOffsetOuter1"/>
<feGaussianBlur in="shadowOffsetOuter1" result="shadowBlurOuter1" stdDeviation=".5"/>
<feComposite in="shadowBlurOuter1" in2="SourceAlpha" operator="out" result="shadowBlurOuter1"/>
<feColorMatrix in="shadowBlurOuter1" result="shadowMatrixOuter1" values="0 0 0 0 0   0 0 0 0 0   0 0 0 0 0  0 0 0 0.15 0"/>
<feMerge>
<feMergeNode in="shadowMatrixOuter1"/>
<feMergeNode in="SourceGraphic"/>
</feMerge>
</filter>
<filter id="filter968" x="-.041538" y="-.108" width="1.0831" height="1.216" color-interpolation-filters="sRGB">
<feGaussianBlur stdDeviation="0.45"/>
</filter>
<linearGradient id="folder-32-g" x1="8.6824" x2="8.6824" y1="6.4498" y2="8.3519" gradientTransform="matrix(1.6125 0 0 .62017 2 5)" gradientUnits="userSpaceOnUse">
<stop stop-color="#FFF" offset="0"/>
<stop stop-color="#CEF5FF" offset="1"/>
</linearGradient>
<radialGradient id="radialGradient883" cx="11.225" cy=".3118" r="26.404" gradientTransform="matrix(1.2472 0 0 .80178 2 10.75)" gradientUnits="userSpaceOnUse">
<stop stop-color="#ccff42" offset="0"/>
<stop stop-color="#50a100" offset="1"/>
</radialGradient>
</defs>
<g fill-rule="evenodd">
<path d="m17.5 6.5c0.2986 0.89579 1.1369 1.5 2.0811 1.5h6.9189c1.933 0 3.5 1.567 3.5 3.5v14c0 1.933-1.567 3.5-3.5 3.5h-21c-1.933 0-3.5-1.567-3.5-3.5v-17c0-1.933 1.567-3.5 3.5-3.5h9.9189c0.94424 0 1.7825 0.60421 2.0811 1.5z" fill="url(#linearGradient874)" filter="url(#folder-32-a)"/>
<rect x="3" y="9" width="26" height="10" rx="2.2386" ry="2.2386" fill-opacity=".2" filter="url(#filter968)" style="paint-order:stroke fill markers"/>
<rect x="3" y="9" width="26" height="10" rx="2.25" ry="2.25" fill="url(#folder-32-g)" filter="url(#folder-32-a)"/>
<path d="M 5.2383,9 C 3.9981,9 3,9.99809 3,11.2383 v 1 C 3,10.9981 3.99809,10 5.2383,10 h 21.523 c 1.2402,0 2.2383,0.99809 2.2383,2.2383 v -1 C 28.9996,9.9981 28.00151,9 26.7613,9 Z" opacity=".5" style="paint-order:stroke fill markers"/>
<path d="m2 11h28v14.5c0 1.933-1.567 3.5-3.5 3.5h-21c-1.933 0-3.5-1.567-3.5-3.5z" fill="url(#radialGradient883)" filter="url(#folder-32-a)"/>
</g>
<path d="m16.389 22.141c-0.20815-0.19214-0.55107-0.18711-0.76594 0.01122-0.21486 0.19834-0.22031 0.51488-0.01216 0.70702 0.20815 0.19214 0.55107 0.18711 0.76594-0.01122 0.21486-0.19834 0.22031-0.51488 0.01216-0.70702zm5.7773-5.5959c-1.681-1.277-3.8415-2.045-6.1983-2.045-2.3351 0-4.4775 0.75384-6.1517 2.0097m10.731 1.9716c-1.2512-0.92636-2.8451-1.4813-4.5808-1.4813-1.7074 0-3.2775 0.53697-4.5192 1.4362m7.4924 1.9666c-0.8156-0.5665-1.8332-0.90276-2.9366-0.90276-1.093 0-2.1017 0.3299-2.9134 0.88668" fill="none" stroke="#fff" stroke-linecap="round" stroke-linejoin="round"/>
</svg>
