<svg width="32" height="32" version="1.1" viewBox="0 0 32 32" xmlns="http://www.w3.org/2000/svg" xmlns:xlink="http://www.w3.org/1999/xlink">
<defs>
<filter id="folder-music-a" x="-14.3%" y="-16.7%" width="128.6%" height="133.3%">
<feOffset dy="1" in="SourceAlpha" result="shadowOffsetOuter1"/>
<feGaussianBlur in="shadowOffsetOuter1" result="shadowBlurOuter1" stdDeviation=".5"/>
<feComposite in="shadowBlurOuter1" in2="SourceAlpha" operator="out" result="shadowBlurOuter1"/>
<feColorMatrix in="shadowBlurOuter1" result="shadowMatrixOuter1" values="0 0 0 0 0   0 0 0 0 0   0 0 0 0 0  0 0 0 0.15 0"/>
<feMerge>
<feMergeNode in="shadowMatrixOuter1"/>
<feMergeNode in="SourceGraphic"/>
</feMerge>
</filter>
<linearGradient id="folder-music-c" x1="12.961" x2="12.961" y1="-3.0699e-14" y2="9.8424" gradientTransform="scale(1.0801 .92582)" gradientUnits="userSpaceOnUse">
<stop stop-color="#00B8FF" offset="0"/>
<stop stop-color="#2E5DFF" offset="1"/>
</linearGradient>
<path id="folder-music-b" d="m15.5 1.5c0.2986 0.89579 1.1369 1.5 2.0811 1.5h6.9189c1.933 0 3.5 1.567 3.5 3.5v14c0 1.933-1.567 3.5-3.5 3.5h-21c-1.933 0-3.5-1.567-3.5-3.5v-17c-2.3672e-16 -1.933 1.567-3.5 3.5-3.5l9.9189 1.7764e-15c0.94424-1.0121e-15 1.7825 0.60421 2.0811 1.5z"/>
<linearGradient id="folder-music-l" x1="6.2501" x2="6.2501" y1=".58896" y2="12" gradientUnits="userSpaceOnUse">
<stop stop-color="#FFF" offset="0"/>
<stop stop-color="#FFF" stop-opacity=".6" offset="1"/>
</linearGradient>
<path id="folder-music-k" d="m6 12c-3.3137 0-6-2.6863-6-6s2.6863-6 6-6 6 2.6863 6 6-2.6863 6-6 6zm0-1c2.7614 0 5-2.2386 5-5s-2.2386-5-5-5-5 2.2386-5 5 2.2386 5 5 5z"/>
<filter id="folder-music-j" x="-12.5%" y="-12.5%" width="125%" height="125%">
<feOffset in="SourceAlpha" result="shadowOffsetOuter1"/>
<feGaussianBlur in="shadowOffsetOuter1" result="shadowBlurOuter1" stdDeviation=".5"/>
<feColorMatrix in="shadowBlurOuter1" values="0 0 0 0 0   0 0 0 0 0.42745098   0 0 0 0 0.968627451  0 0 0 0.5 0"/>
</filter>
<linearGradient id="folder-music-m" x1="4.5769" x2="2.877" y1="1" y2="11" gradientUnits="userSpaceOnUse">
<stop stop-color="#4B20FF" offset="0"/>
<stop stop-color="#9600F1" offset="1"/>
</linearGradient>
<radialGradient id="radialGradient883" cx="9.5394" cy=".3669" r="22.534" gradientTransform="matrix(1.4676 0 0 .68139 2 15.75)" gradientUnits="userSpaceOnUse">
<stop stop-color="#48D5FF" offset="0"/>
<stop stop-color="#0083F6" offset="1"/>
</radialGradient>
<filter id="folder-open-a" x="-.143" y="-.167" width="1.286" height="1.333">
<feOffset dy="1" in="SourceAlpha" result="shadowOffsetOuter1"/>
<feGaussianBlur in="shadowOffsetOuter1" result="shadowBlurOuter1" stdDeviation=".5"/>
<feComposite in="shadowBlurOuter1" in2="SourceAlpha" operator="out" result="shadowBlurOuter1"/>
<feColorMatrix in="shadowBlurOuter1" result="shadowMatrixOuter1" values="0 0 0 0 0   0 0 0 0 0   0 0 0 0 0  0 0 0 0.15 0"/>
<feMerge>
<feMergeNode in="shadowMatrixOuter1"/>
<feMergeNode in="SourceGraphic"/>
</feMerge>
</filter>
<filter id="filter968" x="-.041538" y="-.108" width="1.0831" height="1.216" color-interpolation-filters="sRGB">
<feGaussianBlur stdDeviation="0.45"/>
</filter>
<filter id="folder-32-a" x="-.143" y="-.167" width="1.286" height="1.333">
<feOffset dy="1" in="SourceAlpha" result="shadowOffsetOuter1"/>
<feGaussianBlur in="shadowOffsetOuter1" result="shadowBlurOuter1" stdDeviation=".5"/>
<feComposite in="shadowBlurOuter1" in2="SourceAlpha" operator="out" result="shadowBlurOuter1"/>
<feColorMatrix in="shadowBlurOuter1" result="shadowMatrixOuter1" values="0 0 0 0 0   0 0 0 0 0   0 0 0 0 0  0 0 0 0.15 0"/>
<feMerge>
<feMergeNode in="shadowMatrixOuter1"/>
<feMergeNode in="SourceGraphic"/>
</feMerge>
</filter>
<linearGradient id="linearGradient955" x1="8.6824" x2="8.6824" y1="6.4498" y2="8.3519" gradientTransform="matrix(1.6125 0 0 .62017 2 5)" gradientUnits="userSpaceOnUse">
<stop stop-color="#FFF" offset="0"/>
<stop stop-color="#CEF5FF" offset="1"/>
</linearGradient>
</defs>
<use transform="translate(2,5)" width="100%" height="100%" fill="url(#folder-music-c)" fill-rule="evenodd" filter="url(#folder-music-a)" xlink:href="#folder-music-b"/>
<g fill-rule="evenodd">
<rect x="3" y="9" width="26" height="10" rx="2.2386" ry="2.2386" fill-opacity=".2" filter="url(#filter968)" style="paint-order:stroke fill markers"/>
<rect x="3" y="9" width="26" height="10" rx="2.25" ry="2.25" fill="url(#linearGradient955)" filter="url(#folder-32-a)"/>
<path d="M 5.2383,9 C 3.9981,9 3,9.99809 3,11.2383 v 1 C 3,10.9981 3.99809,10 5.2383,10 h 21.523 c 1.2402,0 2.2383,0.99809 2.2383,2.2383 v -1 C 28.9996,9.9981 28.00151,9 26.7613,9 Z" opacity=".5" style="paint-order:stroke fill markers"/>
</g>
<path d="m2 16h28v9.5c0 1.933-1.567 3.5-3.5 3.5h-21c-1.933 0-3.5-1.567-3.5-3.5z" fill="url(#radialGradient883)" fill-rule="evenodd" filter="url(#folder-open-a)"/>
<g transform="translate(10,14)" fill-rule="evenodd">
<use width="100%" height="100%" fill="#000000" filter="url(#folder-music-j)" xlink:href="#folder-music-k"/>
<use width="100%" height="100%" fill="url(#folder-music-l)" xlink:href="#folder-music-k"/>
<circle cx="6" cy="6" r="5" fill="url(#folder-music-m)"/>
<path d="m8 6.025v-2.3077c0-0.17817-0.14443-0.3226-0.3226-0.3226-0.025857 0-0.051621 0.00311-0.076737 0.00926l-2.3548 0.57668c-0.14434 0.03535-0.24586 0.16473-0.24586 0.31334v4.0897h-0.00706c-0.066713 0.6275-0.59774 1.1163-1.2429 1.1163-0.69036 0-1.25-0.55964-1.25-1.25s0.55964-1.25 1.25-1.25c0.085616 0 0.16922 0.00861 0.25 0.025004v-3.4121c0-0.46276 0.3276-0.86078 0.78173-0.94975l3.0644-0.60037c0.52453-0.10277 1.0331 0.23914 1.1358 0.76367 0.012009 0.061296 0.018056 0.12361 0.018056 0.18607v4.3466h-0.0047c-0.055315 0.63923-0.59173 1.1408-1.2453 1.1408-0.69036 0-1.25-0.55964-1.25-1.25s0.55964-1.25 1.25-1.25c0.085616 0 0.16922 0.00861 0.25 0.025004z" fill="#fff"/>
</g>
</svg>
