<svg width="48" height="48" enable-background="new" version="1.1" viewBox="0 0 48 48" xmlns="http://www.w3.org/2000/svg">
<defs>
<filter id="filter1225" x="-.055263" y="-.065625" width="1.1105" height="1.1312" color-interpolation-filters="sRGB">
<feGaussianBlur stdDeviation="0.875"/>
</filter>
<filter id="filter1259" x="-.079963" y="-.088466" width="1.1599" height="1.1769" color-interpolation-filters="sRGB">
<feGaussianBlur stdDeviation="1.4443833"/>
</filter>
</defs>
<title>深度截图-48px</title>
<g fill-rule="evenodd">
<rect transform="rotate(15.593)" x="10.837" y="1.6288" width="38" height="32" rx="4" ry="4" fill="#d9d9d9" filter="url(#filter1259)" style="paint-order:stroke fill markers"/>
<rect transform="rotate(15.593)" x="10.837" y="1.6288" width="38" height="32" rx="4" ry="4" fill="#a6dbff" style="paint-order:stroke fill markers"/>
<rect x="5" y="9" width="38" height="32" rx="4" ry="4" fill="#d9d9d9" filter="url(#filter1225)" style="paint-order:stroke fill markers"/>
<rect x="5" y="9" width="38" height="32" rx="4" ry="4" fill="#ea004e" style="paint-order:stroke fill markers"/>
<path d="m9 9c-2.216 0-4 1.784-4 4v15c10 6.5 18.32-2.0137 20.322-6.4707 2.256 1.51 7.5075 0.67655 9.7695-2.1895 1.392 3.706 5.2222 6.3052 7.9082 6.1602v-12.5c0-2.216-1.784-4-4-4z" fill="#ff0056" style="paint-order:stroke fill markers"/>
</g>
<path d="m32.008 20c0-0.552-0.455-1.065-1.008-1h-12.992v-3a1 1 0 0 0-2 0v3h-3.008c-0.552-0.065-1 0.448-1 1a1 1 0 0 0 1 1h3.008v9a1 1 0 0 0 1 1h13v3a1 1 0 0 0 2 0v-3h2.992a1 1 0 0 0 0-2h-2.992zm-14.008 1h12v8h-12z" fill="#fff" fill-rule="evenodd"/>
</svg>
