<svg width="48" height="48" version="1.1" viewBox="0 0 48 48" xmlns="http://www.w3.org/2000/svg" xmlns:xlink="http://www.w3.org/1999/xlink">
<defs>
<filter id="computer-a" x="-14.8%" y="-18.1%" width="129.5%" height="136.1%">
<feOffset dy="1" in="SourceAlpha" result="shadowOffsetOuter1"/>
<feGaussianBlur in="shadowOffsetOuter1" result="shadowBlurOuter1" stdDeviation="1"/>
<feComposite in="shadowBlurOuter1" in2="SourceAlpha" operator="out" result="shadowBlurOuter1"/>
<feColorMatrix in="shadowBlurOuter1" result="shadowMatrixOuter1" values="0 0 0 0 0   0 0 0 0 0   0 0 0 0 0  0 0 0 0.2 0"/>
<feMerge>
<feMergeNode in="shadowMatrixOuter1"/>
<feMergeNode in="SourceGraphic"/>
</feMerge>
</filter>
<linearGradient id="computer-b" x1="15.556" x2="15.556" y1="50.912" y2="45.255" gradientTransform="scale(1.4142 .70711)" gradientUnits="userSpaceOnUse">
<stop stop-color="#CFDAFC" offset="0"/>
<stop stop-color="#CDCFD2" offset="1"/>
</linearGradient>
<polygon id="computer-c" points="18 32 26 32 26 36 18 36"/>
<filter id="computer-d" x="-12.5%" y="-25%" width="125%" height="150%">
<feGaussianBlur in="SourceAlpha" result="shadowBlurInner1" stdDeviation=".5"/>
<feOffset dy="1" in="shadowBlurInner1" result="shadowOffsetInner1"/>
<feComposite in="shadowOffsetInner1" in2="SourceAlpha" k2="-1" k3="1" operator="arithmetic" result="shadowInnerInner1"/>
<feColorMatrix in="shadowInnerInner1" values="0 0 0 0 0.305544245   0 0 0 0 0.316030326   0 0 0 0 0.533769248  0 0 0 0.178130463 0"/>
</filter>
<linearGradient id="computer-e" x1="5.5" x2="5.5" y1="140" y2="143.2" gradientTransform="matrix(4 0 0 .25 2 6)" gradientUnits="userSpaceOnUse">
<stop stop-color="#FFF" offset="0"/>
<stop stop-color="#EBF4FF" offset="1"/>
</linearGradient>
<linearGradient id="computer-f" x1="14.859" x2="28.256" y1="8.8382" y2="28.685" gradientTransform="matrix(1.1726 0 0 .8528 2 6)" gradientUnits="userSpaceOnUse">
<stop stop-color="#D7E4FF" offset="0"/>
<stop stop-color="#F4F9FF" offset="1"/>
</linearGradient>
<linearGradient id="computer-h" x1="17.044" x2="17.044" y1="1.0146" y2="36.191" gradientTransform="scale(1.1832 .84515)" gradientUnits="userSpaceOnUse">
<stop stop-color="#4F5D73" offset="0"/>
<stop stop-color="#313A46" offset="1"/>
</linearGradient>
<rect id="computer-g" x=".5" y=".688" width="42" height="30" rx="3.5"/>
<linearGradient id="computer-j" x2="12.329" y1="6.1644" y2="6.1644" gradientTransform="matrix(3.0822 0 0 .32444 5 31.001)" gradientUnits="userSpaceOnUse">
<stop stop-color="#A09AD3" offset="0"/>
<stop stop-color="#988DD9" offset=".49618"/>
<stop stop-color="#1654D2" offset="1"/>
</linearGradient>
</defs>
<g fill-rule="evenodd">
<use transform="translate(2,6)" width="100%" height="100%" fill="url(#computer-b)" filter="url(#computer-a)" xlink:href="#computer-c"/>
<use transform="translate(2,6)" width="100%" height="100%" fill="#000000" filter="url(#computer-d)" xlink:href="#computer-c"/>
<path d="m16.5 41h15c0.27614 0 0.5 0.22386 0.5 0.5s-0.22386 0.5-0.5 0.5h-15c-0.27614 0-0.5-0.22386-0.5-0.5s0.22386-0.5 0.5-0.5z" fill="url(#computer-e)" filter="url(#computer-a)"/>
<rect x="2" y="6" width="44" height="32" rx="4.688" fill="url(#computer-f)" filter="url(#computer-a)"/>
<use transform="translate(2.5,6.313)" width="100%" height="100%" fill="url(#computer-h)" filter="url(#computer-a)" xlink:href="#computer-g"/>
<rect x="5" y="31.001" width="38" height="4" rx=".938" fill="url(#computer-j)" filter="url(#computer-a)"/>
<rect x="10" y="32.001" width="2" height="2" rx=".469" fill="#00c98f" filter="url(#computer-a)"/>
<rect x="19" y="32.001" width="2" height="2" rx=".469" fill="#75ffac" filter="url(#computer-a)"/>
<rect x="13" y="32.001" width="2" height="2" rx=".469" fill="#ff7d52" filter="url(#computer-a)"/>
<rect x="22" y="32.001" width="2" height="2" rx=".469" fill="#ffb656" filter="url(#computer-a)"/>
<rect x="28" y="32.001" width="2" height="2" rx=".469" fill="#ff796e" filter="url(#computer-a)"/>
<g fill-opacity=".3">
<rect x="36" y="32.001" width="2" height="2" rx=".469" filter="url(#computer-a)"/>
<rect x="33" y="32.001" width="2" height="2" rx=".469" filter="url(#computer-a)"/>
<rect x="39" y="32.001" width="2" height="2" rx=".469" filter="url(#computer-a)"/>
</g>
<circle cx="8" cy="33.001" r="1" fill="#326cff" filter="url(#computer-a)"/>
<circle cx="26" cy="33.001" r="1" fill="#482ac5" filter="url(#computer-a)"/>
</g>
<path d="m24 12c-2.216 0-4 1.822-4 4.063v1.937h-1c-0.554 0-1 0.445-1 1v6c0 0.553 0.446 1 1 1h10c0.554 0 1-0.447 1-1v-6c0-0.555-0.446-1-1-1h-1v-1.938c0-2.24-1.784-4.062-4-4.062zm0 2c1.108 0 2 0.892 2 2v2h-4v-2c0-1.108 0.892-2 2-2z" fill="#f6fcff"/>
</svg>
