<svg width="48" height="48" version="1.1" viewBox="0 0 48 48" xmlns="http://www.w3.org/2000/svg" xmlns:xlink="http://www.w3.org/1999/xlink">
<defs>
<filter id="preference-system-a" x="-15.5%" y="-15.5%" width="131%" height="131%">
<feOffset dy="1" in="SourceAlpha" result="shadowOffsetOuter1"/>
<feGaussianBlur in="shadowOffsetOuter1" result="shadowBlurOuter1" stdDeviation="1"/>
<feComposite in="shadowBlurOuter1" in2="SourceAlpha" operator="out" result="shadowBlurOuter1"/>
<feColorMatrix in="shadowBlurOuter1" result="shadowMatrixOuter1" values="0 0 0 0 0   0 0 0 0 0   0 0 0 0 0  0 0 0 0.2 0"/>
<feMerge>
<feMergeNode in="shadowMatrixOuter1"/>
<feMergeNode in="SourceGraphic"/>
</feMerge>
</filter>
<linearGradient id="preference-system-b" x1="22.135" x2="20.136" y1="43.39" gradientTransform="translate(3,3)" gradientUnits="userSpaceOnUse">
<stop stop-color="#444" offset=".01926"/>
<stop stop-color="#808080" offset="1"/>
</linearGradient>
<circle id="preference-system-c" cx="21.5" cy="21.5" r="13.5"/>
<filter id="preference-system-d" x="-5.6%" y="-5.6%" width="111.1%" height="111.1%">
<feGaussianBlur in="SourceAlpha" result="shadowBlurInner1" stdDeviation="1"/>
<feOffset dy="1" in="shadowBlurInner1" result="shadowOffsetInner1"/>
<feComposite in="shadowOffsetInner1" in2="SourceAlpha" k2="-1" k3="1" operator="arithmetic" result="shadowInnerInner1"/>
<feColorMatrix in="shadowInnerInner1" values="0 0 0 0 0   0 0 0 0 0   0 0 0 0 0  0 0 0 0.5 0"/>
</filter>
<path id="preference-system-f" d="m20.367 7.6001c0.70516 0.084272 1.3905 0.23291 2.0501 0.43988l-0.13768 1.5478c0.53149 0.19687 1.0409 0.44022 1.5233 0.72518l1.1529-1.1165c0.5911 0.36286 1.1466 0.77811 1.66 1.2393l-0.84055 1.4234c0.40537 0.41362 0.77403 0.86415 1.1006 1.3462l1.6539-0.54546c0.36957 0.56153 0.69084 1.1577 0.95791 1.7825l-1.4893 0.99436c0.19734 0.56403 0.34438 1.1521 0.43568 1.7588l1.8725 0.25551c0.061782 0.48059 0.093638 0.97055 0.093638 1.468 0 0.16542-0.0035233 0.33002-0.010499 0.49372l-1.8979 0.25984c-0.065295 0.63612-0.19157 1.2539-0.37281 1.8472l1.6633 1.1108c-0.20864 0.6062-0.46696 1.1893-0.7701 1.7444l-1.8976-0.6257c-0.34027 0.555-0.73456 1.0725-1.1754 1.545l1.0427 1.7642c-0.44435 0.43579-0.92423 0.83547-1.4349 1.1943l-1.4605-1.4152c-0.55352 0.35362-1.1455 0.65122-1.768 0.88495l0.18318 2.0486c-0.58013 0.18704-1.1806 0.32885-1.7972 0.42128l-0.71052-1.9216c-0.32665 0.034214-0.6582 0.051748-0.99379 0.051748s-0.66714-0.017535-0.99379-0.051748l-0.71052 1.9216c-0.6166-0.092432-1.217-0.23424-1.7972-0.42128l0.18318-2.0486c-0.62258-0.23373-1.2145-0.53134-1.768-0.88495l-1.4605 1.4152c-0.51066-0.35884-0.99055-0.75853-1.4349-1.1943l1.0427-1.7642c-0.44088-0.4725-0.83517-0.99001-1.1754-1.545l-1.8976 0.6257c-0.30314-0.5551-0.56146-1.1382-0.7701-1.7444l1.6633-1.1108c-0.18124-0.59334-0.30752-1.2111-0.37281-1.8472l-1.8979-0.25984c-0.0069756-0.1637-0.010499-0.3283-0.010499-0.49372 0-0.4974 0.031856-0.98736 0.093638-1.468l1.8725-0.25551c0.091301-0.60666 0.23835-1.1948 0.43568-1.7588l-1.4893-0.99436c0.26706-0.62485 0.58834-1.221 0.95791-1.7825l1.6539 0.54546c0.32659-0.48203 0.69525-0.93257 1.1006-1.3462l-0.84055-1.4234c0.51338-0.46118 1.0689-0.87643 1.66-1.2393l1.1529 1.1165c0.48244-0.28497 0.9918-0.52831 1.5233-0.72518l-0.13768-1.5478c0.65957-0.20697 1.345-0.35561 2.0501-0.43988l0.53377 1.4385c0.2746-0.024044 0.55253-0.036317 0.83329-0.036317s0.55869 0.012273 0.83329 0.036317zm-1.3671 3.4532c-4.1974 0-7.6 3.4026-7.6 7.6s3.4026 7.6 7.6 7.6 7.6-3.4026 7.6-7.6-3.4026-7.6-7.6-7.6z"/>
<filter id="preference-system-e" x="-8.8%" y="-4.4%" width="117.5%" height="117.7%">
<feOffset dy="1" in="SourceAlpha" result="shadowOffsetOuter1"/>
<feGaussianBlur in="shadowOffsetOuter1" result="shadowBlurOuter1" stdDeviation=".5"/>
<feColorMatrix in="shadowBlurOuter1" values="0 0 0 0 0   0 0 0 0 0   0 0 0 0 0  0 0 0 0.2 0"/>
</filter>
<radialGradient id="preference-system-g" cx="18.995" cy="19.003" r="19.144" gradientTransform="matrix(1.0003 0 0 .99975 5 5)" gradientUnits="userSpaceOnUse">
<stop stop-color="#E2E5ED" offset="0"/>
<stop stop-color="#9DA3B5" offset=".48405"/>
<stop stop-color="#E7ECFF" offset="1"/>
</radialGradient>
</defs>
<circle cx="24" cy="24" r="21" fill="url(#preference-system-b)" fill-rule="evenodd" filter="url(#preference-system-a)"/>
<g fill="#000000" fill-rule="evenodd">
<use transform="translate(3,3)" width="100%" height="100%" fill-opacity=".5" filter="url(#preference-system-a)" xlink:href="#preference-system-c"/>
<use transform="translate(3,3)" width="100%" height="100%" filter="url(#preference-system-d)" xlink:href="#preference-system-c"/>
<use transform="translate(5,5)" width="100%" height="100%" filter="url(#preference-system-e)" xlink:href="#preference-system-f"/>
</g>
<use transform="translate(5,5)" width="100%" height="100%" fill="#585f6c" fill-rule="evenodd" filter="url(#preference-system-a)" xlink:href="#preference-system-f"/>
<path d="m27.582 5.0336 1.1049 0.25085c0.49538 0.11246 0.82774 0.57847 0.77273 1.0835l-0.2552 2.3429c-0.04595 0.42189 0.17939 0.82684 0.56214 1.0102l1.3089 0.62691c0.38536 0.18458 0.84543 0.10392 1.145-0.20075l1.627-1.6546c0.35849-0.36457 0.93424-0.4 1.3347-0.082134l0.89226 0.7082c0.39621 0.31448 0.49519 0.87531 0.23055 1.3064l-1.2206 1.9885c-0.22214 0.36188-0.19152 0.82458 0.07636 1.154l0.97911 1.2041c0.267 0.32836 0.71178 0.4531 1.1106 0.31144l2.1842-0.77582c0.47731-0.16954 1.006 0.04459 1.2308 0.49849l0.50423 1.0181c0.22598 0.45626 0.07306 1.0095-0.35517 1.2849l-1.9199 1.2348c-0.35973 0.23137-0.53249 0.6659-0.42982 1.0811l0.40417 1.6345c0.10009 0.40478 0.44084 0.70498 0.85502 0.75324l2.3466 0.27344c0.4868 0.05673 0.86075 0.45789 0.88321 0.94746l0.04369 0.95257c0.0011 0.02398 0.0013 0.048 7.07e-4 0.072l-0.01286 0.4908c-0.0079 0.30231-0.23687 0.55281-0.53725 0.58781l-2.5968 0.3026c-0.431 0.05022-0.78042 0.37266-0.86505 0.79824l-0.35105 1.7654c-0.08012 0.40293 0.09433 0.81387 0.43985 1.0361l2.0065 1.2905c0.41662 0.26796 0.57429 0.80055 0.37067 1.2521l-0.43541 0.9656c-0.21392 0.4744-0.75593 0.70544-1.2463 0.53126l-2.0986-0.7454c-0.41168-0.14623-0.87064-0.0083-1.1335 0.34069l-1.1283 1.498c-0.24728 0.32831-0.26849 0.7745-0.05347 1.1248l1.2618 2.0556c0.2596 0.42291 0.16981 0.97222-0.21094 1.2904l-0.76843 0.64225c-0.39975 0.33411-0.98905 0.30532-1.3543-0.06616l-1.5876-1.6145c-0.30503-0.31021-0.77563-0.38761-1.164-0.19144l-1.7071 0.86244c-0.37189 0.18788-0.58832 0.58665-0.5432 1.0008l0.2595 2.3824c0.05463 0.5015-0.27283 0.96516-0.76372 1.0814l-0.93584 0.22157c-0.5 0.11838-1.0084-0.16143-1.1758-0.64721l-0.74827-2.1707c-0.14572-0.42274-0.55437-0.69736-1.0008-0.67257l-0.86336 0.04793c-0.03692 2e-3 -0.07393 2e-3 -0.11085 0l-0.86336-0.04793c-0.44646-0.02478-0.85511 0.24984-1.0008 0.67257l-0.74827 2.1707c-0.16745 0.48578-0.6758 0.76559-1.1758 0.64721l-0.93584-0.22158c-0.49089-0.11623-0.81835-0.57988-0.76373-1.0814l0.2595-2.3824c0.04512-0.4142-0.17131-0.81297-0.5432-1.0008l-1.7071-0.86244c-0.38832-0.19618-0.85892-0.11878-1.164 0.19144l-1.5876 1.6145c-0.36528 0.37148-0.95458 0.40027-1.3543 0.06616l-0.76844-0.64225c-0.38075-0.31823-0.47055-0.86754-0.21094-1.2904l1.2618-2.0556c0.21502-0.35029 0.19382-0.79647-0.05347-1.1248l-1.1283-1.498c-0.26284-0.34897-0.7218-0.48692-1.1335-0.34069l-2.0986 0.74541c-0.49039 0.17418-1.0324-0.056859-1.2463-0.53126l-0.43541-0.9656c-0.20362-0.45157-0.045959-0.98416 0.37067-1.2521l2.0065-1.2905c0.34552-0.22223 0.51998-0.63317 0.43985-1.0361l-0.35105-1.7654c-0.084628-0.42558-0.43406-0.74802-0.86505-0.79824l-2.5968-0.3026c-0.30038-0.035-0.52933-0.28551-0.53725-0.58781l-0.012855-0.4908c-6.286e-4 -0.024-3.926e-4 -0.04802 7.073e-4 -0.072l0.043689-0.95257c0.022454-0.48958 0.39641-0.89074 0.88321-0.94746l2.3466-0.27344c0.41417-0.04826 0.75493-0.34845 0.85502-0.75324l0.40417-1.6345c0.10267-0.4152-0.070091-0.84974-0.42982-1.0811l-1.9199-1.2348c-0.42823-0.27542-0.58115-0.82863-0.35517-1.2849l0.50423-1.0181c0.22481-0.4539 0.75351-0.66803 1.2308-0.49849l2.1842 0.77582c0.3988 0.14165 0.84359 0.01692 1.1106-0.31144l0.97911-1.2041c0.26788-0.32945 0.2985-0.79216 0.07636-1.154l-1.2206-1.9885c-0.26464-0.4311-0.16566-0.99193 0.23055-1.3064l0.89226-0.7082c0.40048-0.31787 0.97624-0.28244 1.3347 0.082134l1.627 1.6546c0.29958 0.30467 0.75965 0.38533 1.145 0.20075l1.3089-0.62691c0.38275-0.18333 0.6081-0.58828 0.56214-1.0102l-0.2552-2.3429c-0.05501-0.505 0.27734-0.97101 0.77273-1.0835l1.1049-0.25085c0.49763-0.11297 1.0005 0.16686 1.1668 0.64929l0.74968 2.1748c0.14508 0.4209 0.55094 0.6952 0.99558 0.67286 0.27074-0.013601 0.49433-0.020402 0.67078-0.020402 0.17645 0 0.40004 0.0068 0.67078 0.020402 0.44464 0.022336 0.85049-0.25196 0.99558-0.67285l0.74968-2.1748c0.1663-0.48243 0.66917-0.76227 1.1668-0.64929zm8.5002 16.402c-3.6102-0.37057-7.2708 1.3557-9.2029 4.7021-1.8257 3.1622-1.6268 6.9378 0.19428 9.8269 5.3336-1.3662 9.2762-6.2049 9.2762-11.964 0-0.81441-0.07883-1.6104-0.22928-2.3808zm-14.962 4.7021c-1.9321-3.3464-5.5927-5.0727-9.204-4.7014-0.17463 0.82712-0.26648 1.6848-0.26648 2.5639 0 5.7595 3.9426 10.598 9.2759 11.963 1.8214-2.8879 2.0203-6.6635 0.19458-9.8257zm2.8796-4.0389c-1.0493 0-1.9 0.85066-1.9 1.9s0.85066 1.9 1.9 1.9 1.9-0.85066 1.9-1.9-0.85066-1.9-1.9-1.9zm-2.3e-5 -10.449c-3.4297 0-6.5329 1.398-8.7709 3.6563 1.4322 3.4318 4.8199 5.8437 8.7709 5.8437s7.3387-2.4119 8.7707-5.8447c-2.2378-2.2573-5.341-3.6553-8.7707-3.6553z" fill="url(#preference-system-g)" fill-rule="evenodd" filter="url(#preference-system-a)"/>
</svg>
