<svg width="32" height="32" version="1.1" viewBox="0 0 32 32" xmlns="http://www.w3.org/2000/svg" xmlns:xlink="http://www.w3.org/1999/xlink">
<defs>
<filter id="deepin-boot-maker-a" x="-22.2%" y="-13.3%" width="144.4%" height="126.7%">
<feOffset dy="1" in="SourceAlpha" result="shadowOffsetOuter1"/>
<feGaussianBlur in="shadowOffsetOuter1" result="shadowBlurOuter1" stdDeviation=".5"/>
<feComposite in="shadowBlurOuter1" in2="SourceAlpha" operator="out" result="shadowBlurOuter1"/>
<feColorMatrix in="shadowBlurOuter1" result="shadowMatrixOuter1" values="0 0 0 0 0   0 0 0 0 0   0 0 0 0 0  0 0 0 0.15 0"/>
<feMerge>
<feMergeNode in="shadowMatrixOuter1"/>
<feMergeNode in="SourceGraphic"/>
</feMerge>
</filter>
<linearGradient id="deepin-boot-maker-c" x1="6.1097" x2="13.656" y1="-9.2537e-31" y2="15.187" gradientTransform="scale(.94868 1.0541)" gradientUnits="userSpaceOnUse">
<stop stop-color="#9BBE34" offset="0"/>
<stop stop-color="#3A7D09" offset="1"/>
</linearGradient>
<path id="deepin-boot-maker-b" d="m15.75 0c1.2426-1.332e-15 2.25 1.0074 2.25 2.25v17.75h-18v-12.834c-5.2462e-16 -0.65759 0.25909-1.2887 0.72115-1.7566l4.6073-4.6656c0.46971-0.47566 1.1104-0.74339 1.7788-0.74339h8.6427zm0.25 1c-0.55228 0-1 0.45338-1 1.0127 0 0.55928 0.44772 1.0127 1 1.0127s1-0.45338 1-1.0127c0-0.55928-0.44772-1.0127-1-1.0127z"/>
<filter id="deepin-boot-maker-d" x="-5.6%" y="-5%" width="111.1%" height="110%">
<feGaussianBlur in="SourceAlpha" result="shadowBlurInner1" stdDeviation=".5"/>
<feOffset dy="1" in="shadowBlurInner1" result="shadowOffsetInner1"/>
<feComposite in="shadowOffsetInner1" in2="SourceAlpha" k2="-1" k3="1" operator="arithmetic" result="shadowInnerInner1"/>
<feColorMatrix in="shadowInnerInner1" result="shadowMatrixInner1" values="0 0 0 0 1   0 0 0 0 1   0 0 0 0 1  0 0 0 0.3 0"/>
<feGaussianBlur in="SourceAlpha" result="shadowBlurInner2" stdDeviation=".5"/>
<feOffset dx="-1" dy="-1" in="shadowBlurInner2" result="shadowOffsetInner2"/>
<feComposite in="shadowOffsetInner2" in2="SourceAlpha" k2="-1" k3="1" operator="arithmetic" result="shadowInnerInner2"/>
<feColorMatrix in="shadowInnerInner2" result="shadowMatrixInner2" values="0 0 0 0 0.0184287527   0 0 0 0 0.105044158   0 0 0 0 0.00466373642  0 0 0 0.35385708 0"/>
<feMerge>
<feMergeNode in="shadowMatrixInner1"/>
<feMergeNode in="shadowMatrixInner2"/>
</feMerge>
</filter>
<linearGradient id="deepin-boot-maker-g" x1="6.7082" x2="8.147" y1="31.471" y2="35.238" gradientTransform="matrix(1.3416 0 0 .74536 7 1)" gradientUnits="userSpaceOnUse">
<stop stop-color="#303030" offset="0"/>
<stop stop-color="#131212" offset="1"/>
</linearGradient>
<linearGradient id="deepin-boot-maker-h" x1="1.3093" x2="10.474" y1="37.479" y2="38.896" gradientTransform="scale(1.5275 .65465)" gradientUnits="userSpaceOnUse">
<stop stop-color="#F1E274" offset="0"/>
<stop stop-color="#CEB214" offset=".18149"/>
<stop stop-color="#F2CC00" offset=".37816"/>
<stop stop-color="#E7BF00" offset=".56473"/>
<stop stop-color="#F9D53B" offset=".67568"/>
<stop stop-color="#E8B800" offset=".83443"/>
<stop stop-color="#FFCF00" offset="1"/>
</linearGradient>
<path id="deepin-boot-maker-i" d="m3.5 22c0.27614 0 0.5 0.22386 0.5 0.5v5c0 0.27614-0.22386 0.5-0.5 0.5h-1c-0.27614 0-0.5-0.22386-0.5-0.5v-5c0-0.27614 0.22386-0.5 0.5-0.5h1zm12 0c0.27614 0 0.5 0.22386 0.5 0.5v5c0 0.27614-0.22386 0.5-0.5 0.5h-1c-0.27614 0-0.5-0.22386-0.5-0.5v-5c0-0.27614 0.22386-0.5 0.5-0.5h1zm-4 0c0.27614 0 0.5 0.22386 0.5 0.5v3c0 0.27614-0.22386 0.5-0.5 0.5h-1c-0.27614 0-0.5-0.22386-0.5-0.5v-3c0-0.27614 0.22386-0.5 0.5-0.5h1zm-4 0c0.27614 0 0.5 0.22386 0.5 0.5v3c0 0.27614-0.22386 0.5-0.5 0.5h-1c-0.27614 0-0.5-0.22386-0.5-0.5v-3c0-0.27614 0.22386-0.5 0.5-0.5h1z"/>
<filter id="deepin-boot-maker-j" x="-3.6%" y="-8.3%" width="107.1%" height="116.7%">
<feOffset dy="1" in="SourceAlpha" result="shadowOffsetInner1"/>
<feComposite in="shadowOffsetInner1" in2="SourceAlpha" k2="-1" k3="1" operator="arithmetic" result="shadowInnerInner1"/>
<feColorMatrix in="shadowInnerInner1" values="0 0 0 0 0.926828578   0 0 0 0 0.558558022   0 0 0 0 0  0 0 0 0.5 0"/>
</filter>
</defs>
<g fill-rule="evenodd">
<use transform="translate(7,1)" width="100%" height="100%" fill="url(#deepin-boot-maker-c)" filter="url(#deepin-boot-maker-a)" xlink:href="#deepin-boot-maker-b"/>
<use transform="translate(7,1)" width="100%" height="100%" fill="#000000" filter="url(#deepin-boot-maker-d)" xlink:href="#deepin-boot-maker-b"/>
<path d="m7 21h18v7.75c0 1.2426-1.0074 2.25-2.25 2.25h-13.5c-1.2426 0-2.25-1.0074-2.25-2.25z" fill="url(#deepin-boot-maker-g)" filter="url(#deepin-boot-maker-a)"/>
<use transform="translate(7,1)" width="100%" height="100%" fill="url(#deepin-boot-maker-h)" filter="url(#deepin-boot-maker-a)" xlink:href="#deepin-boot-maker-i"/>
<use transform="translate(7,1)" width="100%" height="100%" fill="#000000" filter="url(#deepin-boot-maker-j)" xlink:href="#deepin-boot-maker-i"/>
</g>
</svg>
