<svg width="32" height="32" version="1.1" viewBox="0 0 32 32" xmlns="http://www.w3.org/2000/svg">
<defs>
<filter id="deepin-show-desktop-a" x="-14.3%" y="-15.4%" width="128.6%" height="130.8%">
<feOffset dy="1" in="SourceAlpha" result="shadowOffsetOuter1"/>
<feGaussianBlur in="shadowOffsetOuter1" result="shadowBlurOuter1" stdDeviation=".5"/>
<feComposite in="shadowBlurOuter1" in2="SourceAlpha" operator="out" result="shadowBlurOuter1"/>
<feColorMatrix in="shadowBlurOuter1" result="shadowMatrixOuter1" values="0 0 0 0 0   0 0 0 0 0   0 0 0 0 0  0 0 0 0.15 0"/>
<feMerge>
<feMergeNode in="shadowMatrixOuter1"/>
<feMergeNode in="SourceGraphic"/>
</feMerge>
</filter>
<linearGradient id="deepin-show-desktop-b" x1="50%" x2="50%" y2="100%">
<stop stop-color="#00D479" offset="0"/>
<stop stop-color="#02A5CB" offset="1"/>
</linearGradient>
<filter id="a" color-interpolation-filters="sRGB">
<feFlood flood-opacity=".196" result="flood"/>
<feComposite in="flood" in2="SourceGraphic" operator="in" result="composite1"/>
<feGaussianBlur in="composite1" result="blur" stdDeviation=".7"/>
<feOffset dx="0" dy=".7" result="offset"/>
<feComposite in="SourceGraphic" in2="offset" result="composite2"/>
</filter>
</defs>
<g transform="translate(2 3)" fill="none" fill-rule="evenodd" filter="url(#deepin-show-desktop-a)">
<path d="m25.004 1.0083e-9c1.6549 6.9752e-11 2.9965 1.3431 2.9965 3.0079l1e-7 19.984c0 1.6612-1.3505 3.0079-2.9965 3.0079h-22.007c-1.6549 0-2.9965-1.3431-2.9965-3.0079v-19.984c0-1.6612 1.3505-3.0079 2.9965-3.0079l22.007 9.2757e-10z" fill="url(#deepin-show-desktop-b)"/>
<g transform="translate(1 5)">
<rect y="16" width="26" height="4" rx="2" fill="#A4FFCC" opacity=".7"/>
<rect x="3" width="4" height="4" rx=".5" fill="#FFF"/>
<rect x="3" y="7" width="4" height="4" rx=".5" fill="#FFF"/>
</g>
</g>
<path d="m14 12v5.334c0 0.369 0.334 0.666 0.75 0.666h10.5c0.416 0 0.75-0.297 0.75-0.666v-5.334z" fill="#fff" filter="url(#a)"/>
<path d="m14.75 10h10.5c0.416 0 0.75 0.297 0.75 0.667v1.333h-12v-1.333c0-0.37 0.335-0.667 0.75-0.667z" fill="#4f4f4f" filter="url(#a)" opacity=".75"/>
</svg>
