<svg width="24" height="24" version="1.1" viewBox="0 0 24 24" xmlns="http://www.w3.org/2000/svg" xmlns:xlink="http://www.w3.org/1999/xlink">
<defs>
<path id="emblem-readonly-b" d="m18 9c0 4.971-4.029 9-9 9s-9-4.029-9-9 4.029-9 9-9 9 4.029 9 9"/>
<filter id="emblem-readonly-a" x="-19.4%" y="-13.9%" width="138.9%" height="138.9%">
<feOffset dy="1" in="SourceAlpha" result="shadowOffsetOuter1"/>
<feGaussianBlur in="shadowOffsetOuter1" result="shadowBlurOuter1" stdDeviation="1"/>
<feColorMatrix in="shadowBlurOuter1" values="0 0 0 0 0   0 0 0 0 0   0 0 0 0 0  0 0 0 0.15 0"/>
</filter>
</defs>
<use transform="translate(3,3)" width="100%" height="100%" fill="#000000" fill-rule="evenodd" filter="url(#emblem-readonly-a)" xlink:href="#emblem-readonly-b"/>
<use transform="translate(3,3)" width="100%" height="100%" fill="#ffffff" fill-rule="evenodd" xlink:href="#emblem-readonly-b"/>
<path d="m10.5 5v1.71a5.5 5.5 0 0 0-1.1758 0.49219l-1.2129-1.2129-2.1221 2.1221 1.21 1.21a5.5 5.5 0 0 0-0.48535 1.1787h-1.7139v3h1.71a5.5 5.5 0 0 0 0.49219 1.1758l-1.2129 1.2129 2.1221 2.1221 1.21-1.21a5.5 5.5 0 0 0 1.1787 0.48535v1.7139h3v-1.71a5.5 5.5 0 0 0 1.1758-0.49219l1.2129 1.2129 2.1221-2.1221-1.21-1.21a5.5 5.5 0 0 0 0.48535-1.1787h1.7139v-3h-1.71a5.5 5.5 0 0 0-0.49219-1.1758l1.2129-1.2129-2.1221-2.1221-1.21 1.21a5.5 5.5 0 0 0-1.1787-0.48535v-1.7139zm1.5 4.5a2.5 2.5 0 0 1 2.5 2.5 2.5 2.5 0 0 1-2.5 2.5 2.5 2.5 0 0 1-2.5-2.5 2.5 2.5 0 0 1 2.5-2.5z" fill="#11b5ff"/>
</svg>
