<svg width="24" height="24" version="1.1" viewBox="0 0 24 24" xmlns="http://www.w3.org/2000/svg" xmlns:xlink="http://www.w3.org/1999/xlink">
<defs>
<path id="emblem-shared-b" d="m21 12c0 4.971-4.029 9-9 9s-9-4.029-9-9 4.029-9 9-9 9 4.029 9 9"/>
<filter id="emblem-shared-a" x="-19.4%" y="-13.9%" width="138.9%" height="138.9%">
<feOffset dy="1" in="SourceAlpha" result="shadowOffsetOuter1"/>
<feGaussianBlur in="shadowOffsetOuter1" result="shadowBlurOuter1" stdDeviation="1"/>
<feColorMatrix in="shadowBlurOuter1" values="0 0 0 0 0   0 0 0 0 0   0 0 0 0 0  0 0 0 0.15 0"/>
</filter>
</defs>
<g fill-rule="evenodd">
<use width="100%" height="100%" fill="#000000" filter="url(#emblem-shared-a)" xlink:href="#emblem-shared-b"/>
<use width="100%" height="100%" fill="#ffffff" xlink:href="#emblem-shared-b"/>
<g transform="translate(-.00010355 -.99998)" fill="#ff4f00">
<path id="Shape" d="m12.014 15c-0.43492 0-0.79114-0.29136-0.80512-0.65884l-0.20814-5.3344c-0.01812-0.47685 0.4344-1.0068 0.99928-1.0068 0.56333 0 1.0153 0.5273 0.9998 1.0028l-0.1807 5.3348c-0.01191 0.36923-0.36865 0.66233-0.80512 0.66233z"/>
<circle cx="12" cy="17" r="1"/>
</g>
</g>
</svg>
