<svg width="24" height="24" version="1.1" viewBox="0 0 24 24" xmlns="http://www.w3.org/2000/svg" xmlns:xlink="http://www.w3.org/1999/xlink">
<defs>
<path id="emblem-readonly-b" d="m18 9c0 4.971-4.029 9-9 9s-9-4.029-9-9 4.029-9 9-9 9 4.029 9 9"/>
<filter id="emblem-readonly-a" x="-19.4%" y="-13.9%" width="138.9%" height="138.9%">
<feOffset dy="1" in="SourceAlpha" result="shadowOffsetOuter1"/>
<feGaussianBlur in="shadowOffsetOuter1" result="shadowBlurOuter1" stdDeviation="1"/>
<feColorMatrix in="shadowBlurOuter1" values="0 0 0 0 0   0 0 0 0 0   0 0 0 0 0  0 0 0 0.15 0"/>
</filter>
</defs>
<use transform="translate(3,3)" width="100%" height="100%" fill="#000000" fill-rule="evenodd" filter="url(#emblem-readonly-a)" xlink:href="#emblem-readonly-b"/>
<use transform="translate(3,3)" width="100%" height="100%" fill="#ffffff" fill-rule="evenodd" xlink:href="#emblem-readonly-b"/>
<g transform="translate(1.7e-4)" fill="#11b5ff" fill-rule="evenodd">
<path id="Path" d="m11.5 15c-0.56156 0-1 0.43844-1 1 0 0.55353 0.44214 1 1 1s1-0.44647 1-1c0-0.56156-0.43844-1-1-1z"/>
<path d="m11.9 7c-1.6459 0-2.9002 1.0392-2.9002 2.4452 0 0.68364 0.46437 1.2219 1.1264 1.2219 0.6114 0 1.0089-0.43558 1.0089-1.0327 0-0.55878-0.2479-0.81442-0.74866-0.93986-0.11714-0.031468-0.16759-0.081348-0.16759-0.18254 0-0.41831 0.59237-0.90941 1.4109-0.90941 0.91424 0 1.4462 0.57106 1.4462 1.5904 0 0.71956-0.22732 1.1777-0.85483 1.9843-0.06537 0.08391-1.1265 1.0927-1.1265 1.9405 0 0.31086 0 0.67825 0.3263 0.84781s0.38907-0.31604 0.53284-0.84088c0.1428-0.3163 0.52465-0.75962 1.5336-1.3611 1.1584-0.79045 1.5125-1.4067 1.5125-2.3815 0-1.4514-1.2365-2.3821-3.0998-2.3821z"/>
</g>
</svg>
