<svg width="24" height="24" version="1.1" viewBox="0 0 24 24" xmlns="http://www.w3.org/2000/svg" xmlns:xlink="http://www.w3.org/1999/xlink">
<defs>
<path id="emblem-readonly-b" d="m18 9c0 4.971-4.029 9-9 9s-9-4.029-9-9 4.029-9 9-9 9 4.029 9 9"/>
<filter id="emblem-readonly-a" x="-19.4%" y="-13.9%" width="138.9%" height="138.9%">
<feOffset dy="1" in="SourceAlpha" result="shadowOffsetOuter1"/>
<feGaussianBlur in="shadowOffsetOuter1" result="shadowBlurOuter1" stdDeviation="1"/>
<feColorMatrix in="shadowBlurOuter1" values="0 0 0 0 0   0 0 0 0 0   0 0 0 0 0  0 0 0 0.15 0"/>
</filter>
</defs>
<g fill-rule="evenodd">
<use transform="translate(3,3)" width="100%" height="100%" fill="#000000" filter="url(#emblem-readonly-a)" xlink:href="#emblem-readonly-b"/>
<use transform="translate(3,3)" width="100%" height="100%" fill="#ffffff" xlink:href="#emblem-readonly-b"/>
<path d="m12 5c-1.654 0-3 1.346-3 3h1c0-1.103 0.897-2 2-2s2 0.897 2 2v2h-3-1-1-1-0.5s-0.5 0-0.5 0.5v6s0 0.5 0.5 0.5h9c0.5 0 0.5-0.5 0.5-0.5v-6c0-0.5-0.5-0.5-0.5-0.5h-1.5v-2c0-1.654-1.346-3-3-3z" fill="#ffa200"/>
</g>
</svg>
