<svg width="512" height="512" version="1.1" viewBox="0 0 512 512" xmlns="http://www.w3.org/2000/svg">
<defs>
<filter id="deepin-show-desktop-a" x="-11.7%" y="-12.9%" width="123.5%" height="125.7%">
<feOffset dy="8" in="SourceAlpha" result="shadowOffsetOuter1"/>
<feGaussianBlur in="shadowOffsetOuter1" result="shadowBlurOuter1" stdDeviation="10"/>
<feComposite in="shadowBlurOuter1" in2="SourceAlpha" operator="out" result="shadowBlurOuter1"/>
<feColorMatrix in="shadowBlurOuter1" result="shadowMatrixOuter1" values="0 0 0 0 0   0 0 0 0 0   0 0 0 0 0  0 0 0 0.2 0"/>
<feMerge>
<feMergeNode in="shadowMatrixOuter1"/>
<feMergeNode in="SourceGraphic"/>
</feMerge>
</filter>
<linearGradient id="deepin-show-desktop-b" x1="219.77" x2="219.77" y2="439.55" gradientTransform="matrix(1.0465 0 0 .95553 26 46)" gradientUnits="userSpaceOnUse">
<stop stop-color="#00D479" offset="0"/>
<stop stop-color="#02A5CB" offset="1"/>
</linearGradient>
</defs>
<g fill-rule="evenodd">
<rect x="26" y="46" width="460" height="420" rx="48" fill="url(#deepin-show-desktop-b)" filter="url(#deepin-show-desktop-a)"/>
<rect x="80" y="120" width="64" height="64" rx="10" filter="url(#deepin-show-desktop-a)" opacity=".1"/>
<rect x="80" y="232" width="64" height="64" rx="10" filter="url(#deepin-show-desktop-a)" opacity=".1"/>
<rect x="80" y="116" width="64" height="64" rx="10" fill="#fff" filter="url(#deepin-show-desktop-a)"/>
<rect x="80" y="228" width="64" height="64" rx="10" fill="#fff" filter="url(#deepin-show-desktop-a)"/>
<rect x="190" y="120" width="64" height="64" rx="10" ry="10" filter="url(#deepin-show-desktop-a)" opacity=".1"/>
<rect x="190" y="232" width="64" height="64" rx="10" ry="10" filter="url(#deepin-show-desktop-a)" opacity=".1"/>
<rect x="190" y="116" width="64" height="64" rx="10" ry="10" fill="#fff" filter="url(#deepin-show-desktop-a)"/>
<rect x="190" y="228" width="64" height="64" rx="10" ry="10" fill="#fff" filter="url(#deepin-show-desktop-a)"/>
<rect x="80" y="340" width="64" height="64" rx="10" ry="10" filter="url(#deepin-show-desktop-a)" opacity=".1"/>
<rect x="80" y="336" width="64" height="64" rx="10" ry="10" fill="#fff" filter="url(#deepin-show-desktop-a)"/>
</g>
</svg>
