<svg width="96" height="96" version="1.1" viewBox="0 0 96 96" xmlns="http://www.w3.org/2000/svg" xmlns:xlink="http://www.w3.org/1999/xlink">
<defs>
<linearGradient id="folder-remote-96px-l" x1="42.219" x2="42.219" y1="56.956" y2="86.603" gradientTransform="scale(1.1547 .86603)" gradientUnits="userSpaceOnUse">
<stop stop-color="#FFF" offset="0"/>
<stop stop-color="#FFF" stop-opacity=".6" offset="1"/>
</linearGradient>
<path id="folder-remote-96px-k" d="m45.904 69.904c-1.1817 1.1817-1.2118 3.0809-0.050501 4.2422s3.0605 1.1312 4.2422-0.050501 1.2118-3.0809 0.050501-4.2422-3.0605-1.1312-4.2422 0.050501zm2.0313-21.904c-6.5014 0-12.661 2.3408-17.585 6.553-0.40582 0.3472-0.46886 0.97684-0.1408 1.4063 0.32806 0.4295 0.923 0.49621 1.3288 0.14901 4.5896-3.9266 10.331-6.1084 16.397-6.1084 6.1218 0 11.912 2.2225 16.521 6.2155 0.40379 0.34985 0.9991 0.28704 1.3297-0.1403s0.27122-1.0574-0.13257-1.4072c-4.9438-4.2835-11.157-6.668-17.718-6.668zm-0.077362 7c-4.8077 0-9.3714 1.6866-13.063 4.7356-0.41139 0.33978-0.48463 0.96819-0.16357 1.4036 0.32105 0.43539 0.91482 0.5129 1.3262 0.17312 3.3619-2.7767 7.5171-4.3123 11.9-4.3123 4.4555 0 8.6746 1.5868 12.063 4.4479 0.40791 0.34445 1.0024 0.27371 1.3279-0.158 0.32546-0.43171 0.25862-1.0609-0.14929-1.4054-3.7205-3.1416-8.3544-4.8845-13.241-4.8845zm0.10304 7c-3.1468 0-6.1425 1.0598-8.6082 2.9889-0.41963 0.3283-0.50834 0.95447-0.19813 1.3986 0.31021 0.44411 0.90186 0.53799 1.3215 0.20969 2.1428-1.6764 4.7454-2.5972 7.4849-2.5972 2.7654 0 5.3912 0.93836 7.5447 2.6443 0.41777 0.33095 1.0099 0.2408 1.3227-0.20134s0.22753-1.0689-0.19025-1.3998c-2.478-1.963-5.5005-3.0431-8.6771-3.0431z"/>
<filter id="folder-remote-96px-j" x="-36.1%" y="-40.7%" width="172.2%" height="196.3%">
<feOffset dy="2" in="SourceAlpha" result="shadowOffsetOuter1"/>
<feGaussianBlur in="shadowOffsetOuter1" result="shadowBlurOuter1" stdDeviation="4"/>
<feColorMatrix in="shadowBlurOuter1" values="0 0 0 0 0   0 0 0 0 0.42745098   0 0 0 0 0.968627451  0 0 0 0.5 0"/>
</filter>
<linearGradient id="linearGradient903" x1="38.151" x2="38.151" y1="-2.959e-14" y2="28.97" gradientTransform="matrix(1.0747 0 0 .93051 7 18)" gradientUnits="userSpaceOnUse">
<stop stop-color="#9c3" offset="0"/>
<stop stop-color="#28851e" offset="1"/>
</linearGradient>
<filter id="folder-open-96px-a-7" x="-.146" y="-.169" width="1.293" height="1.338">
<feOffset dy="2" in="SourceAlpha" result="shadowOffsetOuter1"/>
<feGaussianBlur in="shadowOffsetOuter1" result="shadowBlurOuter1" stdDeviation="2"/>
<feComposite in="shadowBlurOuter1" in2="SourceAlpha" operator="out" result="shadowBlurOuter1"/>
<feColorMatrix in="shadowBlurOuter1" result="shadowMatrixOuter1" values="0 0 0 0 0   0 0 0 0 0   0 0 0 0 0  0 0 0 0.2 0"/>
<feMerge>
<feMergeNode in="shadowMatrixOuter1"/>
<feMergeNode in="SourceGraphic"/>
</feMerge>
</filter>
<filter id="filter984" x="-.034054" y="-.08129" width="1.0681" height="1.1626" color-interpolation-filters="sRGB">
<feGaussianBlur stdDeviation="1.05"/>
</filter>
<linearGradient id="linearGradient966" x1="-125" x2="-125" y1="31" y2="53.61" gradientUnits="userSpaceOnUse">
<stop stop-color="#fff" offset="0"/>
<stop stop-color="#cef5ff" offset="1"/>
</linearGradient>
<radialGradient id="radialGradient907" cx="26.397" cy="0" r="62.493" gradientTransform="matrix(1.5532 0 0 .64382 7 55.01)" gradientUnits="userSpaceOnUse">
<stop stop-color="#ccff42" offset="0"/>
<stop stop-color="#50a100" offset="1"/>
</radialGradient>
</defs>
<g fill-rule="evenodd">
<path d="m53 22.5c1.2162 2.7365 3.9299 4.5 6.9244 4.5h18.733c5.7119 0 10.342 4.6304 10.342 10.342v41.315c0 5.7119-4.6304 10.342-10.342 10.342h-61.315c-5.7119 0-10.342-4.6304-10.342-10.342v-50.315c0-5.7119 4.6304-10.342 10.342-10.342h28.733c2.9946 0 5.7082 1.7635 6.9244 4.5z" fill="url(#linearGradient903)" filter="url(#folder-open-96px-a-7)"/>
<g transform="translate(174)">
<rect x="-163" y="30" width="74" height="31" rx="6.6468" ry="6.6468" fill-opacity=".2" filter="url(#filter984)" style="paint-order:stroke fill markers"/>
<rect x="-163" y="30" width="74" height="31" rx="6.6468" ry="6.6468" fill="url(#linearGradient966)" style="paint-order:stroke fill markers"/>
<path d="m-156.35 30c-3.6824 0-6.6465 2.9641-6.6465 6.6465v1c0-3.6824 2.9641-6.6465 6.6465-6.6465h60.707c3.6824 0 6.6465 2.9641 6.6465 6.6465v-1c0-3.6824-2.9641-6.6465-6.6465-6.6465z" opacity=".5" style="paint-order:stroke fill markers"/>
</g>
<path d="m7 55.01h82v23.647c0 5.7119-4.6304 10.342-10.342 10.342h-61.315c-5.7119 0-10.342-4.6304-10.342-10.342z" fill="url(#radialGradient907)" filter="url(#folder-open-96px-a-7)"/>
</g>
<use width="100%" height="100%" fill="#000000" fill-rule="evenodd" filter="url(#folder-remote-96px-j)" xlink:href="#folder-remote-96px-k"/>
<use width="100%" height="100%" fill="url(#folder-remote-96px-l)" fill-rule="evenodd" xlink:href="#folder-remote-96px-k"/>
</svg>
