<svg width="96" height="96" version="1.1" viewBox="0 0 96 96" xmlns="http://www.w3.org/2000/svg" xmlns:xlink="http://www.w3.org/1999/xlink">
 <defs>
  <filter id="folder-96px-a" x="-.040604" y="-.06167" width="1.0812" height="1.1233">
   <feOffset dy="2" in="SourceAlpha" result="shadowOffsetOuter1"/>
   <feGaussianBlur in="shadowOffsetOuter1" result="shadowBlurOuter1" stdDeviation="1.3872939"/>
   <feComposite in="shadowBlurOuter1" in2="SourceAlpha" operator="out" result="shadowBlurOuter1"/>
   <feColorMatrix in="shadowBlurOuter1" result="shadowMatrixOuter1" values="0 0 0 0 0   0 0 0 0 0   0 0 0 0 0  0 0 0 0.2 0"/>
   <feMerge>
    <feMergeNode in="shadowMatrixOuter1"/>
    <feMergeNode in="SourceGraphic"/>
   </feMerge>
  </filter>
  <linearGradient id="folder-96px-c" x1="38.151" x2="38.151" y1="-2.959e-14" y2="28.97" gradientTransform="scale(1.0747 .93051)" gradientUnits="userSpaceOnUse">
   <stop stop-color="#value_light" offset="0"/>
   <stop stop-color="#value_dark" offset="1"/>
  </linearGradient>
  <path id="folder-96px-b" d="m46 4.5c1.2162 2.7365 3.9299 4.5 6.9244 4.5h18.733c5.7119 0 10.342 4.6304 10.342 10.342v41.315c0 5.7119-4.6304 10.342-10.342 10.342h-61.315c-5.7119 0-10.342-4.6304-10.342-10.342l1.7764e-15 -50.315c-6.9951e-16 -5.7119 4.6304-10.342 10.342-10.342l28.733-2.6645e-15c2.9946-5.5009e-16 5.7082 1.7635 6.9244 4.5z"/>
  <radialGradient id="radialGradient883" cx="33.268" cy="0" r="78.239" gradientTransform="matrix(1.2324 0 0 .81142 7 35.01)" gradientUnits="userSpaceOnUse">
   <stop stop-color="#value_light" offset="0"/>
   <stop stop-color="#value_dark" offset="1"/>
  </radialGradient>
  <filter id="filter973" x="-.034054" y="-.08129" width="1.0681" height="1.1626" color-interpolation-filters="sRGB">
   <feGaussianBlur stdDeviation="1.05"/>
  </filter>
  <linearGradient id="linearGradient955" x1="-85" x2="-85" y1="73.782" y2="78" gradientTransform="translate(134,-44)" gradientUnits="userSpaceOnUse">
   <stop stop-color="#fff" offset="0"/>
   <stop stop-color="#cef5ff" offset="1"/>
  </linearGradient>
  <linearGradient id="folder-96px-c-3" x1="38.151" x2="38.151" y1="-2.959e-14" y2="28.97" gradientTransform="scale(1.0747 .93051)" gradientUnits="userSpaceOnUse">
   <stop stop-color="#fff" stop-opacity=".2" offset="0"/>
   <stop stop-color="#fff" stop-opacity="0" offset="1"/>
  </linearGradient>
  <filter id="folder-96px-a-5" x="-2.5387e-6" y="-2.932e-6" width="1" height="1">
   <feOffset dy="2" in="SourceAlpha" result="shadowOffsetOuter1"/>
   <feGaussianBlur in="shadowOffsetOuter1" result="shadowBlurOuter1" stdDeviation="8.6738375e-05"/>
   <feComposite in="shadowBlurOuter1" in2="SourceAlpha" operator="out" result="shadowBlurOuter1"/>
   <feColorMatrix in="shadowBlurOuter1" result="shadowMatrixOuter1" values="0 0 0 0 0   0 0 0 0 0   0 0 0 0 0  0 0 0 0.2 0"/>
   <feMerge>
    <feMergeNode in="shadowMatrixOuter1"/>
    <feMergeNode in="SourceGraphic"/>
   </feMerge>
  </filter>
  <radialGradient id="radialGradient883-7" cx="33.268" cy="0" r="78.239" gradientTransform="matrix(1.2324 0 0 .81142 7 35.01)" gradientUnits="userSpaceOnUse">
   <stop stop-color="#fff" stop-opacity=".45" offset="0"/>
   <stop stop-color="#fff" stop-opacity="0" offset="1"/>
  </radialGradient>
  <filter id="filter957" x="-8.9554e-6" y="-1.3602e-5" width="1" height="1">
   <feOffset dy="2" in="SourceAlpha" result="shadowOffsetOuter1"/>
   <feGaussianBlur in="shadowOffsetOuter1" result="shadowBlurOuter1" stdDeviation="0.00030597525"/>
   <feComposite in="shadowBlurOuter1" in2="SourceAlpha" operator="out" result="shadowBlurOuter1"/>
   <feColorMatrix in="shadowBlurOuter1" result="shadowMatrixOuter1" values="0 0 0 0 0   0 0 0 0 0   0 0 0 0 0  0 0 0 0.2 0"/>
   <feMerge>
    <feMergeNode in="shadowMatrixOuter1"/>
    <feMergeNode in="SourceGraphic"/>
   </feMerge>
  </filter>
 </defs>
 <use transform="translate(7,18)" width="100%" height="100%" fill="url(#folder-96px-c)" fill-rule="evenodd" filter="url(#folder-96px-a)" xlink:href="#folder-96px-b"/>
 <use transform="translate(7.0002,18)" width="100%" height="100%" fill="url(#folder-96px-c-3)" fill-rule="evenodd" filter="url(#folder-96px-a-5)" style="mix-blend-mode:normal" xlink:href="#folder-96px-b"/>
 <rect x="11" y="30" width="74" height="31" rx="6.617" ry="6.617" fill-opacity=".2" fill-rule="evenodd" filter="url(#filter973)" style="paint-order:stroke fill markers"/>
 <rect x="11" y="30" width="74" height="31" rx="6.617" ry="6.617" fill="url(#linearGradient955)" fill-rule="evenodd" style="paint-order:stroke fill markers"/>
 <path d="m17.62 30c-3.6658 0-6.6172 2.9514-6.6172 6.6172v1c0-3.6658 2.9514-6.6172 6.6172-6.6172h60.766c3.6658 0 6.6172 2.9514 6.6172 6.6172v-1c0-3.6658-2.9514-6.6172-6.6172-6.6172z" fill-rule="evenodd" opacity=".5" style="paint-order:stroke fill markers"/>
 <path d="m7 35.01h82v43.647c0 5.7119-4.6304 10.342-10.342 10.342h-61.315c-5.7119 0-10.342-4.6304-10.342-10.342z" fill="url(#radialGradient883)" fill-rule="evenodd" filter="url(#folder-96px-a)"/>
 <path d="m7 35.01h82v43.647c0 5.7119-4.6304 10.342-10.342 10.342h-61.315c-5.7119 0-10.342-4.6304-10.342-10.342z" fill="url(#radialGradient883-7)" fill-rule="evenodd" filter="url(#filter957)" opacity=".451" style="mix-blend-mode:normal"/>
</svg>
