<svg width="16" height="16" version="1.1" xmlns="http://www.w3.org/2000/svg">
<defs>
<style id="current-color-scheme" type="text/css">.ColorScheme-Text { color:#dfdfdf; } .ColorScheme-Highlight { color:#4285f4; }</style>
</defs>
<path d="m4.0039 1c-1.1046 0-2 0.89543-2 2v10c0 1.1046 0.89543 2 2 2h4.0176c0.024718-0.22548 0.07937-0.44689 0.18555-0.65234l0.17969-0.34766h-4.3867l-0.11719-0.005859c-0.49505-0.05716-0.87891-0.47563-0.87891-0.99219v-1.0039l0.0078126-0.11524c0.05869-0.49682 0.4871-0.88281 0.98828-0.88281h5.9336l1.0625-2.0625c0.26587-0.51516 0.7913-0.89935 1.4082-0.93555h0.003906c0.06029-0.00334 0.1194-0.00334 0.17969 0 0.61981 0.033114 1.1488 0.4181 1.416 0.93555v-5.9375c0-1.1046-0.89543-2-2-2h-8z" fill="#dfdfdf"/>
<path d="m4.5039 12-0.089844 0.007812c-0.23324 0.04233-0.41016 0.24673-0.41016 0.49219 0 0.27614 0.22386 0.5 0.5 0.5h4.3984l0.51562-1h-4.9141z" fill="#dfdfdf"/>
<path class="ColorScheme-Highlight" d="m12.463 9a0.71065 0.79561 0 0 0-0.57812 0.39648l-2.7891 5.4102a0.71065 0.79561 0 0 0-0.095703 0.37891 0.71065 0.79561 0 0 0 0.71094 0.81445h5.5781a0.71065 0.79561 0 0 0 0.61524-1.1934l-2.7891-5.4102a0.71065 0.79561 0 0 0-0.58203-0.39648 0.71065 0.79561 0 0 0-0.070312 0zm-0.46289 1h1v3h-1zm0 4h1v1h-1z" fill="#ff9800"/>
</svg>
