<svg width="24" height="24" version="1.1" viewBox="0 0 24 24" xmlns="http://www.w3.org/2000/svg" xmlns:xlink="http://www.w3.org/1999/xlink">
<defs>
<path id="emblem-readonly-b" d="m18 9c0 4.971-4.029 9-9 9s-9-4.029-9-9 4.029-9 9-9 9 4.029 9 9"/>
<filter id="emblem-readonly-a" x="-19.4%" y="-13.9%" width="138.9%" height="138.9%">
<feOffset dy="1" in="SourceAlpha" result="shadowOffsetOuter1"/>
<feGaussianBlur in="shadowOffsetOuter1" result="shadowBlurOuter1" stdDeviation="1"/>
<feColorMatrix in="shadowBlurOuter1" values="0 0 0 0 0   0 0 0 0 0   0 0 0 0 0  0 0 0 0.15 0"/>
</filter>
</defs>
<g fill-rule="evenodd">
<use transform="translate(3,3)" width="100%" height="100%" fill="#000000" filter="url(#emblem-readonly-a)" xlink:href="#emblem-readonly-b"/>
<use transform="translate(3,3)" width="100%" height="100%" fill="#ffffff" xlink:href="#emblem-readonly-b"/>
<g transform="translate(4 4e-5)" fill="#988ad3">
<path d="m9.997 15.305c0.0317 0.15898-0.18901 0.36-0.73371 0.84746-0.73254 0.66203-1.1349 0.84746-1.7609 0.84746-0.45696 0-0.7525-0.39254-0.7525-0.83864 0-1.0258 0.89924-4.4136 0.89924-4.9241 0-0.61288-1.4674 0.84746-1.6142 0.33898-0.076306-0.26441-0.088046-0.34136 0.61632-0.81492 0.70436-0.47356 1.2664-0.71051 1.6858-0.71051 0.46958 0 0.70436 0.23898 0.70436 0.71729 0 0.97763-1.208 5.0454-0.70436 5.0454 0.35218 0.33898 1.5132-1.2478 1.66-0.50848z"/>
<circle cx="8" cy="8" r="1"/>
</g>
</g>
</svg>
