<svg width="96" height="96" version="1.1" viewBox="0 0 96 96" xmlns="http://www.w3.org/2000/svg" xmlns:xlink="http://www.w3.org/1999/xlink">
<defs>
<filter id="deepin-boot-maker-a" x="-22.2%" y="-13.6%" width="144.4%" height="127.3%">
<feOffset dy="2" in="SourceAlpha" result="shadowOffsetOuter1"/>
<feGaussianBlur in="shadowOffsetOuter1" result="shadowBlurOuter1" stdDeviation="2"/>
<feComposite in="shadowBlurOuter1" in2="SourceAlpha" operator="out" result="shadowBlurOuter1"/>
<feColorMatrix in="shadowBlurOuter1" result="shadowMatrixOuter1" values="0 0 0 0 0   0 0 0 0 0   0 0 0 0 0  0 0 0 0.2 0"/>
<feMerge>
<feMergeNode in="shadowMatrixOuter1"/>
<feMergeNode in="SourceGraphic"/>
</feMerge>
</filter>
<linearGradient id="deepin-boot-maker-c" x1="17.832" x2="41.048" y1="-3.6935e-30" y2="45.18" gradientTransform="scale(.95669 1.0453)" gradientUnits="userSpaceOnUse">
<stop stop-color="#9BBE34" offset="0"/>
<stop stop-color="#3A7D09" offset="1"/>
</linearGradient>
<path id="deepin-boot-maker-b" d="m47.25 0c3.7279-3.9959e-15 6.75 3.0221 6.75 6.75v52.25h-54v-37.706c1.5328e-15 -1.9891 0.79018-3.8968 2.1967-5.3033l13.794-13.794c1.4065-1.4065 3.3142-2.1967 5.3033-2.1967h25.956zm0.75 3c-1.6569 0-3 1.3431-3 3s1.3431 3 3 3 3-1.3431 3-3-1.3431-3-3-3z"/>
<filter id="deepin-boot-maker-d" x="-1.9%" y="-1.7%" width="103.7%" height="103.4%">
<feGaussianBlur in="SourceAlpha" result="shadowBlurInner1" stdDeviation=".5"/>
<feOffset dy="1" in="shadowBlurInner1" result="shadowOffsetInner1"/>
<feComposite in="shadowOffsetInner1" in2="SourceAlpha" k2="-1" k3="1" operator="arithmetic" result="shadowInnerInner1"/>
<feColorMatrix in="shadowInnerInner1" result="shadowMatrixInner1" values="0 0 0 0 1   0 0 0 0 1   0 0 0 0 1  0 0 0 0.3 0"/>
<feGaussianBlur in="SourceAlpha" result="shadowBlurInner2" stdDeviation=".5"/>
<feOffset dx="-1" in="shadowBlurInner2" result="shadowOffsetInner2"/>
<feComposite in="shadowOffsetInner2" in2="SourceAlpha" k2="-1" k3="1" operator="arithmetic" result="shadowInnerInner2"/>
<feColorMatrix in="shadowInnerInner2" result="shadowMatrixInner2" values="0 0 0 0 0.0184287527   0 0 0 0 0.105044158   0 0 0 0 0.00466373642  0 0 0 0.35385708 0"/>
<feMerge>
<feMergeNode in="shadowMatrixInner1"/>
<feMergeNode in="shadowMatrixInner2"/>
</feMerge>
</filter>
<linearGradient id="deepin-boot-maker-g" x1="19.786" x2="19.786" y1="80.51" y2="118.57" gradientTransform="scale(1.3646 .73283)" gradientUnits="userSpaceOnUse">
<stop stop-color="#343434" offset="0"/>
<stop stop-color="#181818" offset="1"/>
</linearGradient>
<path id="deepin-boot-maker-h" d="m0 59h54v22.25c0 3.7279-3.0221 6.75-6.75 6.75h-40.5c-3.7279 0-6.75-3.0221-6.75-6.75v-22.25z"/>
<filter id="deepin-boot-maker-i" x="-1.9%" y="-3.4%" width="103.7%" height="106.9%">
<feGaussianBlur in="SourceAlpha" result="shadowBlurInner1" stdDeviation=".5"/>
<feOffset dx="-1" dy="-1" in="shadowBlurInner1" result="shadowOffsetInner1"/>
<feComposite in="shadowOffsetInner1" in2="SourceAlpha" k2="-1" k3="1" operator="arithmetic" result="shadowInnerInner1"/>
<feColorMatrix in="shadowInnerInner1" values="0 0 0 0 0   0 0 0 0 0   0 0 0 0 0  0 0 0 0.2 0"/>
</filter>
<linearGradient id="deepin-boot-maker-j" x1="6.093" x2="30.465" y1="104.56" y2="108.87" gradientTransform="scale(1.4771 .677)" gradientUnits="userSpaceOnUse">
<stop stop-color="#F1E274" offset="0"/>
<stop stop-color="#CEB214" offset=".18149"/>
<stop stop-color="#F2CC00" offset=".37816"/>
<stop stop-color="#E7BF00" offset=".56473"/>
<stop stop-color="#F9D53B" offset=".67568"/>
<stop stop-color="#E8B800" offset=".83443"/>
<stop stop-color="#FFCF00" offset="1"/>
</linearGradient>
<path id="deepin-boot-maker-k" d="m12.5 64c0.82843 0 1.5 0.67157 1.5 1.5v13.5c0 0.82843-0.67157 1.5-1.5 1.5h-2c-0.82843 0-1.5-0.67157-1.5-1.5v-13.5c0-0.82843 0.67157-1.5 1.5-1.5h2zm31 0c0.82843 0 1.5 0.67157 1.5 1.5v13.5c0 0.82843-0.67157 1.5-1.5 1.5h-2c-0.82843 0-1.5-0.67157-1.5-1.5v-13.5c0-0.82843 0.67157-1.5 1.5-1.5h2zm-10 0c0.82843 0 1.5 0.67157 1.5 1.5v9c0 0.82843-0.67157 1.5-1.5 1.5h-2c-0.82843 0-1.5-0.67157-1.5-1.5v-9c0-0.82843 0.67157-1.5 1.5-1.5h2zm-10 0c0.82843 0 1.5 0.67157 1.5 1.5v9c0 0.82843-0.67157 1.5-1.5 1.5h-2c-0.82843 0-1.5-0.67157-1.5-1.5v-9c0-0.82843 0.67157-1.5 1.5-1.5h2z"/>
<filter id="deepin-boot-maker-l" x="-1.4%" y="-3%" width="102.8%" height="106.1%">
<feOffset dy="1" in="SourceAlpha" result="shadowOffsetInner1"/>
<feComposite in="shadowOffsetInner1" in2="SourceAlpha" k2="-1" k3="1" operator="arithmetic" result="shadowInnerInner1"/>
<feColorMatrix in="shadowInnerInner1" values="0 0 0 0 0.926828578   0 0 0 0 0.558558022   0 0 0 0 0  0 0 0 0.5 0"/>
</filter>
</defs>
<g fill-rule="evenodd">
<use transform="translate(21,4)" width="100%" height="100%" fill="url(#deepin-boot-maker-c)" filter="url(#deepin-boot-maker-a)" xlink:href="#deepin-boot-maker-b"/>
<use transform="translate(21,4)" width="100%" height="100%" fill="#000000" filter="url(#deepin-boot-maker-d)" xlink:href="#deepin-boot-maker-b"/>
<use transform="translate(21,4)" width="100%" height="100%" fill="url(#deepin-boot-maker-g)" filter="url(#deepin-boot-maker-a)" xlink:href="#deepin-boot-maker-h"/>
<use transform="translate(21,4)" width="100%" height="100%" fill="#000000" filter="url(#deepin-boot-maker-i)" xlink:href="#deepin-boot-maker-h"/>
<use transform="translate(21,4)" width="100%" height="100%" fill="url(#deepin-boot-maker-j)" filter="url(#deepin-boot-maker-a)" xlink:href="#deepin-boot-maker-k"/>
<use transform="translate(21,4)" width="100%" height="100%" fill="#000000" filter="url(#deepin-boot-maker-l)" xlink:href="#deepin-boot-maker-k"/>
</g>
</svg>
