<svg width="96" height="96" version="1.1" viewBox="0 0 25.4 25.4" xmlns="http://www.w3.org/2000/svg">
<defs>
<linearGradient id="linearGradient959" x1="177.13" x2="177.35" y1="263.91" y2="245.22" gradientTransform="matrix(1.1204 0 0 1.1204 -181.53 -268.16)" gradientUnits="userSpaceOnUse">
<stop stop-color="#28851e" offset=".01926"/>
<stop stop-color="#86be43" offset="1"/>
</linearGradient>
<filter id="filter865" x="-.048" y="-.048" width="1.096" height="1.096" color-interpolation-filters="sRGB">
<feGaussianBlur stdDeviation="0.50797128"/>
</filter>
</defs>
<path d="m12.698-0.016654c-7.0012 0-12.699 5.6981-12.699 12.699 0 7.0012 5.6981 12.699 12.699 12.699 7.0012 0 12.699-5.6981 12.699-12.699 0-7.0012-5.6981-12.699-12.699-12.699zm0 2.1165c5.8573 0 10.583 4.7257 10.583 10.583 0 5.8573-4.7257 10.583-10.583 10.583s-10.583-4.7257-10.583-10.583c0-5.8573 4.7257-10.583 10.583-10.583z" color="#000000" color-rendering="auto" dominant-baseline="auto" fill="#ccc" filter="url(#filter865)" image-rendering="auto" shape-rendering="auto" solid-color="#000000" stroke-width=".23076" style="font-feature-settings:normal;font-variant-alternates:normal;font-variant-caps:normal;font-variant-ligatures:normal;font-variant-numeric:normal;font-variant-position:normal;isolation:auto;mix-blend-mode:normal;shape-padding:0;text-decoration-color:#000000;text-decoration-line:none;text-decoration-style:solid;text-indent:0;text-orientation:mixed;text-transform:none;white-space:normal"/>
<ellipse cx="12.536" cy="12.745" rx="10.952" ry="11.169" fill="url(#linearGradient959)" stroke-width="1.1204"/>
<path d="m12.698-0.016654c-7.0012 0-12.699 5.6981-12.699 12.699 0 7.0012 5.6981 12.699 12.699 12.699 7.0012 0 12.699-5.6981 12.699-12.699 0-7.0012-5.6981-12.699-12.699-12.699zm0 2.1165c5.8573 0 10.583 4.7257 10.583 10.583 0 5.8573-4.7257 10.583-10.583 10.583s-10.583-4.7257-10.583-10.583c0-5.8573 4.7257-10.583 10.583-10.583z" color="#000000" color-rendering="auto" dominant-baseline="auto" fill="#fff" image-rendering="auto" shape-rendering="auto" solid-color="#000000" stroke-width=".23076" style="font-feature-settings:normal;font-variant-alternates:normal;font-variant-caps:normal;font-variant-ligatures:normal;font-variant-numeric:normal;font-variant-position:normal;isolation:auto;mix-blend-mode:normal;shape-padding:0;text-decoration-color:#000000;text-decoration-line:none;text-decoration-style:solid;text-indent:0;text-orientation:mixed;text-transform:none;white-space:normal"/>
<g transform="matrix(.061054 0 0 .061054 .97567 -.016654)" fill="#92b372">
<path d="m80 104v144c0 35.157 28.843 64 64 64h96c35.157 0 64-28.843 64-64v-80c0-26.32-21.68-48-48-48-12.296 0-23.467 4.8602-32 12.586-8.5332-7.7257-19.704-12.586-32-12.586-26.32 0-48 21.68-48 48v80h32v-80c0-9.0261 6.9739-16 16-16s16 6.9739 16 16v80h32v-80c0-9.0261 6.9739-16 16-16s16 6.9739 16 16v80c0 17.863-14.137 32-32 32h-96c-17.863 0-32-14.137-32-32v-144z" color="#000000" color-rendering="auto" dominant-baseline="auto" fill="#fff" image-rendering="auto" shape-rendering="auto" solid-color="#000000" style="font-feature-settings:normal;font-variant-alternates:normal;font-variant-caps:normal;font-variant-ligatures:normal;font-variant-numeric:normal;font-variant-position:normal;isolation:auto;mix-blend-mode:normal;shape-padding:0;text-decoration-color:#000000;text-decoration-line:none;text-decoration-style:solid;text-indent:0;text-orientation:mixed;text-transform:none;white-space:normal"/>
</g>
</svg>
