<svg width="96" height="96" version="1.1" viewBox="0 0 96 96" xmlns="http://www.w3.org/2000/svg">
<defs>
<filter id="deepin-show-desktop-a" x="-14.3%" y="-16.7%" width="128.6%" height="133.3%">
<feOffset dy="2" in="SourceAlpha" result="shadowOffsetOuter1"/>
<feGaussianBlur in="shadowOffsetOuter1" result="shadowBlurOuter1" stdDeviation="2"/>
<feComposite in="shadowBlurOuter1" in2="SourceAlpha" operator="out" result="shadowBlurOuter1"/>
<feColorMatrix in="shadowBlurOuter1" result="shadowMatrixOuter1" values="0 0 0 0 0   0 0 0 0 0   0 0 0 0 0  0 0 0 0.2 0"/>
<feMerge>
<feMergeNode in="shadowMatrixOuter1"/>
<feMergeNode in="SourceGraphic"/>
</feMerge>
</filter>
<linearGradient id="deepin-show-desktop-b" x1="38.884" x2="38.884" y2="77.769" gradientTransform="matrix(1.0801 0 0 .92582 6 12)" gradientUnits="userSpaceOnUse">
<stop stop-color="#00D479" offset="0"/>
<stop stop-color="#02A5CB" offset="1"/>
</linearGradient>
</defs>
<path d="m82.003 12c4.4167 0 7.9972 3.5828 7.9972 7.9977v56.005c0 4.417-3.5825 7.9977-7.9972 7.9977h-68.006c-4.4167 0-7.9972-3.5828-7.9972-7.9977v-56.005c0-4.417 3.5825-7.9977 7.9972-7.9977z" fill="url(#deepin-show-desktop-b)" fill-rule="evenodd" filter="url(#deepin-show-desktop-a)"/>
<g fill="#fff" fill-rule="evenodd">
<rect x="16" y="22" width="12" height="12" rx="2" filter="url(#deepin-show-desktop-a)"/>
<rect x="16" y="42" width="12" height="12" rx="2" filter="url(#deepin-show-desktop-a)"/>
<rect x="36" y="22" width="12" height="12" rx="2" ry="2" filter="url(#deepin-show-desktop-a)"/>
<rect x="36" y="42" width="12" height="12" rx="2" ry="2" filter="url(#deepin-show-desktop-a)"/>
<rect x="16" y="62" width="12" height="12" rx="2" ry="2" filter="url(#deepin-show-desktop-a)"/>
</g>
</svg>
