<svg width="96" height="96" version="1.1" viewBox="0 0 96 96" xmlns="http://www.w3.org/2000/svg">
<defs>
<filter id="deepin-show-desktop-a" x="-14.3%" y="-16.7%" width="128.6%" height="133.3%">
<feOffset dy="2" in="SourceAlpha" result="shadowOffsetOuter1"/>
<feGaussianBlur in="shadowOffsetOuter1" result="shadowBlurOuter1" stdDeviation="2"/>
<feComposite in="shadowBlurOuter1" in2="SourceAlpha" operator="out" result="shadowBlurOuter1"/>
<feColorMatrix in="shadowBlurOuter1" result="shadowMatrixOuter1" values="0 0 0 0 0   0 0 0 0 0   0 0 0 0 0  0 0 0 0.2 0"/>
<feMerge>
<feMergeNode in="shadowMatrixOuter1"/>
<feMergeNode in="SourceGraphic"/>
</feMerge>
</filter>
<linearGradient id="deepin-show-desktop-b" x1="50%" x2="50%" y2="100%">
<stop stop-color="#00D479" offset="0"/>
<stop stop-color="#02A5CB" offset="1"/>
</linearGradient>
<filter id="a" color-interpolation-filters="sRGB">
<feFlood flood-opacity=".196" result="flood"/>
<feComposite in="flood" in2="SourceGraphic" operator="in" result="composite1"/>
<feGaussianBlur in="composite1" result="blur" stdDeviation="1"/>
<feOffset dx="0" dy="1" result="offset"/>
<feComposite in="SourceGraphic" in2="offset" result="composite2"/>
</filter>
</defs>
<g transform="translate(6 12)" fill-rule="evenodd" filter="url(#deepin-show-desktop-a)">
<path d="m76.003 0c4.4167 0 7.9972 3.5828 7.9972 7.9977v56.005c0 4.417-3.5825 7.9977-7.9972 7.9977h-68.006c-4.4167 0-7.9972-3.5828-7.9972-7.9977v-56.005c0-4.417 3.5825-7.9977 7.9972-7.9977h68.006z" fill="url(#deepin-show-desktop-b)"/>
<path d="m4 59.996c0-2.2068 1.7852-3.9958 4.0057-3.9958h67.989c2.2123 0 4.0057 1.7965 4.0057 3.9958v4.0083c0 2.2068-1.7852 3.9958-4.0057 3.9958h-67.989c-2.2123 0-4.0057-1.7965-4.0057-3.9958v-4.0083z" fill="#A4FFCC" opacity=".7"/>
<rect x="10" y="10" width="12" height="12" rx="2" fill="#FFF"/>
<rect x="10" y="30" width="12" height="12" rx="2" fill="#FFF"/>
</g>
<path transform="matrix(1.3935 0 0 1.3935 12.13 -6.371)" d="m20 27v10.668c0 0.738 0.668 1.332 1.5 1.332h21c0.832 0 1.5-0.594 1.5-1.332v-10.668z" fill="#fff" filter="url(#a)"/>
<path transform="matrix(1.3935 0 0 1.3935 12.13 -6.371)" d="m21.5 23h21c0.832 0 1.5 0.594 1.5 1.334v2.666h-24v-2.667c0-0.738 0.669-1.333 1.5-1.333z" fill="#4f4f4f" filter="url(#a)" opacity=".75"/>
</svg>
