<svg width="48" height="48" version="1.1" viewBox="0 0 48 48" xmlns="http://www.w3.org/2000/svg" xmlns:xlink="http://www.w3.org/1999/xlink">
<defs>
<filter id="folder-stack-48px-a" x="-15.5%" y="-18.1%" width="131%" height="136.1%">
<feOffset dy="1" in="SourceAlpha" result="shadowOffsetOuter1"/>
<feGaussianBlur in="shadowOffsetOuter1" result="shadowBlurOuter1" stdDeviation="1"/>
<feComposite in="shadowBlurOuter1" in2="SourceAlpha" operator="out" result="shadowBlurOuter1"/>
<feColorMatrix in="shadowBlurOuter1" result="shadowMatrixOuter1" values="0 0 0 0 0   0 0 0 0 0   0 0 0 0 0  0 0 0 0.2 0"/>
<feMerge>
<feMergeNode in="shadowMatrixOuter1"/>
<feMergeNode in="SourceGraphic"/>
</feMerge>
</filter>
<linearGradient id="folder-stack-48px-c" x1="19.442" x2="19.442" y1="-3.5496e-14" y2="19.442" gradientTransform="scale(1.0801 .92582)" gradientUnits="userSpaceOnUse">
<stop stop-color="#008084" offset="0"/>
<stop stop-color="#02C3FF" offset="1"/>
</linearGradient>
<path id="folder-stack-48px-b" d="m24 2.5c0.60397 1.5099 2.0664 2.5 3.6926 2.5h9.1362c2.856 0 5.1712 2.3152 5.1712 5.1712v20.658c0 2.856-2.3152 5.1712-5.1712 5.1712h-31.658c-2.856 0-5.1712-2.3152-5.1712-5.1712l-1.7764e-15 -25.658c-3.4975e-16 -2.856 2.3152-5.1712 5.1712-5.1712l15.136 1.7764e-15c1.6262-2.9873e-16 3.0886 0.99009 3.6926 2.5z"/>
<radialGradient id="folder-stack-48px-i" cx="16.837" cy=".46771" r="31.145" gradientTransform="matrix(1.2472 0 0 .80178 3 16.625)" gradientUnits="userSpaceOnUse">
<stop stop-color="#25D8C1" offset="0"/>
<stop stop-color="#008FA5" offset="1"/>
</radialGradient>
<radialGradient id="folder-stack-48px-j" r="54.562%" gradientTransform="matrix(0 .91638 -1 0 1 .042)">
<stop stop-color="#FFF" stop-opacity=".217" offset="0"/>
<stop stop-color="#E9E9E9" stop-opacity=".745" offset="1"/>
</radialGradient>
<linearGradient id="folder-stack-48px-k" x1="37.964" x2="37.964" y1="2.824" y2="7.3076" gradientTransform="matrix(.32852 0 0 3.044 11 21)" gradientUnits="userSpaceOnUse">
<stop stop-color="#FFF" stop-opacity=".418" offset="0"/>
<stop stop-color="#FFF" stop-opacity=".329" offset="1"/>
</linearGradient>
<linearGradient id="folder-stack-48px-l" x1="47.132" x2="47.132" y1="6.293" y2="9.9799" gradientTransform="matrix(.47863 0 0 2.0893 11 21)" gradientUnits="userSpaceOnUse">
<stop stop-color="#FFF" stop-opacity=".418" offset="0"/>
<stop stop-color="#FFF" stop-opacity=".329" offset="1"/>
</linearGradient>
<linearGradient id="folder-stack-48px-m" x1="6.8125" x2="6.8125" y1="10.701" y2="15.215" gradientTransform="scale(.72968 1.3705)" gradientUnits="userSpaceOnUse">
<stop stop-color="#FFF" stop-opacity=".418" offset="0"/>
<stop stop-color="#FFF" stop-opacity=".329" offset="1"/>
</linearGradient>
<radialGradient id="radialGradient920" cx="4.4875" cy="9.8039" r="4.3586" gradientTransform="matrix(.95728 0 0 1.0446 11 21)" gradientUnits="userSpaceOnUse" xlink:href="#folder-stack-48px-j"/>
<radialGradient id="radialGradient922" cx="14.733" cy="7.5304" r="8.2175" gradientTransform="matrix(1.1678 0 0 .8563 11 21)" gradientUnits="userSpaceOnUse" xlink:href="#folder-stack-48px-j"/>
<filter id="filter1343" x="-.034105" y="-.081" width="1.0682" height="1.162" color-interpolation-filters="sRGB">
<feGaussianBlur stdDeviation="0.54"/>
</filter>
<linearGradient id="folder-48px-g" x1="13.627" x2="13.627" y1="10.918" y2="13.827" gradientTransform="matrix(1.5411 0 0 .64889 -41 8)" gradientUnits="userSpaceOnUse">
<stop stop-color="#FFF" offset="0"/>
<stop stop-color="#CEF5FF" offset="1"/>
</linearGradient>
<filter id="folder-48px-a" x="-.155" y="-.181" width="1.31" height="1.361">
<feOffset dy="1" in="SourceAlpha" result="shadowOffsetOuter1"/>
<feGaussianBlur in="shadowOffsetOuter1" result="shadowBlurOuter1" stdDeviation="1"/>
<feComposite in="shadowBlurOuter1" in2="SourceAlpha" operator="out" result="shadowBlurOuter1"/>
<feColorMatrix in="shadowBlurOuter1" result="shadowMatrixOuter1" values="0 0 0 0 0   0 0 0 0 0   0 0 0 0 0  0 0 0 0.2 0"/>
<feMerge>
<feMergeNode in="shadowMatrixOuter1"/>
<feMergeNode in="SourceGraphic"/>
</feMerge>
</filter>
</defs>
<use transform="translate(3,8)" width="100%" height="100%" fill="url(#folder-stack-48px-c)" fill-rule="evenodd" filter="url(#folder-stack-48px-a)" xlink:href="#folder-stack-48px-b"/>
<g transform="translate(44 7.04e-6)" fill-rule="evenodd">
<rect x="-39" y="15" width="38" height="16" rx="3.3498" ry="3.3498" fill-opacity=".2" filter="url(#filter1343)" style="paint-order:stroke fill markers"/>
<path d="m-35.676 15.084h31.351c1.836 0 3.3243 1.4884 3.3243 3.3243v9.3514c0 1.836-1.4884 3.3243-3.3243 3.3243h-31.351c-1.836 0-3.3243-1.4884-3.3243-3.3243v-9.3514c0-1.836 1.4884-3.3243 3.3243-3.3243z" fill="url(#folder-48px-g)" filter="url(#folder-48px-a)"/>
<path d="m-35.676 15.084c-1.8606 0-3.3594 1.4713-3.3594 3.2988v1c0-1.8275 1.4987-3.2988 3.3594-3.2988h31.281c1.8606 0 3.3594 1.4713 3.3594 3.2988v-1c0-1.8275-1.4987-3.2988-3.3594-3.2988z" opacity=".5" style="paint-order:stroke fill markers"/>
</g>
<path d="m3 17h42v21.829c0 2.856-2.3152 5.1712-5.1712 5.1712h-31.658c-2.856 0-5.1712-2.3152-5.1712-5.1712z" fill="url(#folder-stack-48px-i)" fill-rule="evenodd" filter="url(#folder-stack-48px-a)"/>
<path d="m15.296 34.914c1.6919 0 3.3235-2.0658 3.3235-4.0517 0-1.8178-1.4871-3.2931-3.3235-3.2931s-3.3235 1.4753-3.3235 3.2931c0 1.9859 1.6316 4.0517 3.3235 4.0517z" fill="url(#radialGradient920)" fill-rule="evenodd" filter="url(#folder-stack-48px-a)" stroke="#fff" stroke-opacity=".2"/>
<circle cx="14.059" cy="30.103" r="1" fill="#fff" fill-rule="evenodd" filter="url(#folder-stack-48px-a)"/>
<circle cx="22.471" cy="24.034" r="1" fill="#fff" fill-rule="evenodd" filter="url(#folder-stack-48px-a)"/>
<circle cx="31.647" cy="28.586" r="1" fill="#fff" fill-rule="evenodd" filter="url(#folder-stack-48px-a)"/>
<path d="m23.235 28.845c1.6919 0 3.3235-2.0658 3.3235-4.0517 0-1.8178-1.4871-3.2931-3.3235-3.2931s-3.3235 1.4753-3.3235 3.2931c0 1.9859 1.6316 4.0517 3.3235 4.0517zm9.9412 4.5517c1.6919 0 3.3235-2.0658 3.3235-4.0517 0-1.8178-1.4871-3.2931-3.3235-3.2931-1.8364 0-3.3235 1.4753-3.3235 3.2931 0 1.9859 1.6316 4.0517 3.3235 4.0517z" fill="url(#radialGradient922)" fill-rule="evenodd" filter="url(#folder-stack-48px-a)" stroke="#fff" stroke-opacity=".2"/>
<path d="m23.235 30.103c0 5.9604 0.19199 9.078 0.47228 12.634" fill="none" filter="url(#folder-stack-48px-a)" stroke="url(#folder-stack-48px-k)" stroke-linecap="round"/>
<path d="m33.941 34.655c0 4.4472-0.81156 4.0356-0.76257 6.6887" fill="none" filter="url(#folder-stack-48px-a)" stroke="url(#folder-stack-48px-l)" stroke-linecap="round"/>
<path transform="matrix(-1,0,0,1,20.941,21)" d="m6.1176 15.172c0 3.4384-2.4347 3.1202-2.2877 5.1714" fill="none" filter="url(#folder-stack-48px-a)" stroke="url(#folder-stack-48px-m)" stroke-linecap="round"/>
</svg>
