<?xml version="1.0" encoding="UTF-8" standalone="no"?>
<svg
   xmlns:dc="http://purl.org/dc/elements/1.1/"
   xmlns:cc="http://creativecommons.org/ns#"
   xmlns:rdf="http://www.w3.org/1999/02/22-rdf-syntax-ns#"
   xmlns:svg="http://www.w3.org/2000/svg"
   xmlns="http://www.w3.org/2000/svg"
   xmlns:xlink="http://www.w3.org/1999/xlink"
   xmlns:sodipodi="http://sodipodi.sourceforge.net/DTD/sodipodi-0.dtd"
   xmlns:inkscape="http://www.inkscape.org/namespaces/inkscape"
   width="48"
   height="48"
   version="1.1"
   viewBox="0 0 48 48"
   id="svg125"
   sodipodi:docname="network-server.svg"
   inkscape:version="0.92.5 (2060ec1f9f, 2020-04-08)">
  <metadata
     id="metadata129">
    <rdf:RDF>
      <cc:Work
         rdf:about="">
        <dc:format>image/svg+xml</dc:format>
        <dc:type
           rdf:resource="http://purl.org/dc/dcmitype/StillImage" />
        <dc:title></dc:title>
      </cc:Work>
    </rdf:RDF>
  </metadata>
  <sodipodi:namedview
     pagecolor="#ffffff"
     bordercolor="#666666"
     borderopacity="1"
     objecttolerance="10"
     gridtolerance="10"
     guidetolerance="10"
     inkscape:pageopacity="0"
     inkscape:pageshadow="2"
     inkscape:window-width="1366"
     inkscape:window-height="696"
     id="namedview127"
     showgrid="false"
     inkscape:zoom="6.9532167"
     inkscape:cx="47.867907"
     inkscape:cy="9.9146601"
     inkscape:window-x="0"
     inkscape:window-y="0"
     inkscape:window-maximized="1"
     inkscape:current-layer="svg125" />
  <defs
     id="defs97">
    <filter
       id="network-server-48px-a"
       x="-15.5%"
       y="-18.1%"
       width="131%"
       height="136.1%">
      <feOffset
         dy="1"
         in="SourceAlpha"
         result="shadowOffsetOuter1"
         id="feOffset2" />
      <feGaussianBlur
         in="shadowOffsetOuter1"
         result="shadowBlurOuter1"
         stdDeviation="1"
         id="feGaussianBlur4" />
      <feComposite
         in="shadowBlurOuter1"
         in2="SourceAlpha"
         operator="out"
         result="shadowBlurOuter1"
         id="feComposite6" />
      <feColorMatrix
         in="shadowBlurOuter1"
         result="shadowMatrixOuter1"
         values="0 0 0 0 0   0 0 0 0 0   0 0 0 0 0  0 0 0 0.2 0"
         id="feColorMatrix8" />
      <feMerge
         id="feMerge14">
        <feMergeNode
           in="shadowMatrixOuter1"
           id="feMergeNode10" />
        <feMergeNode
           in="SourceGraphic"
           id="feMergeNode12" />
      </feMerge>
    </filter>
    <linearGradient
       id="network-server-48px-l"
       x1="52.084%"
       x2="52.084%"
       y1="4.908%"
       y2="100%">
      <stop
         stop-color="#FFF"
         offset="0"
         id="stop17" />
      <stop
         stop-color="#FFF"
         stop-opacity=".6"
         offset="1"
         id="stop19" />
    </linearGradient>
    <path
       id="network-server-48px-k"
       d="m10.453 3.6628c0 0.828-0.672 1.5-1.5 1.5s-1.5-0.672-1.5-1.5 0.672-1.5 1.5-1.5 1.5 0.672 1.5 1.5" />
    <filter
       id="network-server-48px-j"
       x="-433.3%"
       y="-366.7%"
       width="966.7%"
       height="966.7%">
      <feOffset
         dy="2"
         in="SourceAlpha"
         result="shadowOffsetOuter1"
         id="feOffset23" />
      <feGaussianBlur
         in="shadowOffsetOuter1"
         result="shadowBlurOuter1"
         stdDeviation="4"
         id="feGaussianBlur25" />
      <feColorMatrix
         in="shadowBlurOuter1"
         values="0 0 0 0 0   0 0 0 0 0.42745098   0 0 0 0 0.968627451  0 0 0 0.5 0"
         id="feColorMatrix27" />
    </filter>
    <path
       id="network-server-48px-n"
       d="m5.793 7.856c0 0.828-0.672 1.5-1.5 1.5s-1.5-0.672-1.5-1.5 0.672-1.5 1.5-1.5 1.5 0.672 1.5 1.5" />
    <filter
       id="network-server-48px-m"
       x="-433.3%"
       y="-366.7%"
       width="966.7%"
       height="966.7%">
      <feOffset
         dy="2"
         in="SourceAlpha"
         result="shadowOffsetOuter1"
         id="feOffset31" />
      <feGaussianBlur
         in="shadowOffsetOuter1"
         result="shadowBlurOuter1"
         stdDeviation="4"
         id="feGaussianBlur33" />
      <feColorMatrix
         in="shadowBlurOuter1"
         values="0 0 0 0 0   0 0 0 0 0.42745098   0 0 0 0 0.968627451  0 0 0 0.5 0"
         id="feColorMatrix35" />
    </filter>
    <path
       id="network-server-48px-p"
       d="m14.808 11.453c0 0.828-0.672 1.5-1.5 1.5s-1.5-0.672-1.5-1.5 0.672-1.5 1.5-1.5 1.5 0.672 1.5 1.5" />
    <filter
       id="network-server-48px-o"
       x="-433.3%"
       y="-366.7%"
       width="966.7%"
       height="966.7%">
      <feOffset
         dy="2"
         in="SourceAlpha"
         result="shadowOffsetOuter1"
         id="feOffset39" />
      <feGaussianBlur
         in="shadowOffsetOuter1"
         result="shadowBlurOuter1"
         stdDeviation="4"
         id="feGaussianBlur41" />
      <feColorMatrix
         in="shadowBlurOuter1"
         values="0 0 0 0 0   0 0 0 0 0.42745098   0 0 0 0 0.968627451  0 0 0 0.5 0"
         id="feColorMatrix43" />
    </filter>
    <radialGradient
       id="radialGradient927"
       cx="16.837"
       cy=".46771"
       r="39.606"
       gradientTransform="matrix(1.2472 0 0 .80178 3 16.625)"
       gradientUnits="userSpaceOnUse">
      <stop
         stop-color="#ccff42"
         offset="0"
         id="stop46" />
      <stop
         stop-color="#50a100"
         offset="1"
         id="stop48" />
    </radialGradient>
    <linearGradient
       id="linearGradient931"
       x1="9.0151"
       x2="9.0151"
       y1="2.31"
       y2="5.1628"
       gradientUnits="userSpaceOnUse"
       xlink:href="#network-server-48px-l" />
    <linearGradient
       id="linearGradient933"
       x1="4.3555"
       x2="4.3555"
       y1="6.5032"
       y2="9.356"
       gradientUnits="userSpaceOnUse"
       xlink:href="#network-server-48px-l" />
    <linearGradient
       id="linearGradient935"
       x1="13.371"
       x2="13.371"
       y1="10.101"
       y2="12.953"
       gradientUnits="userSpaceOnUse"
       xlink:href="#network-server-48px-l" />
    <linearGradient
       id="linearGradient1031"
       x1="19.442"
       x2="19.442"
       y1="-3.5496e-14"
       y2="14.764"
       gradientTransform="matrix(1.0801 0 0 .92582 3.0006 8)"
       gradientUnits="userSpaceOnUse">
      <stop
         stop-color="#9c3"
         offset="0"
         id="stop54" />
      <stop
         stop-color="#28851e"
         offset="1"
         id="stop56" />
    </linearGradient>
    <filter
       id="folder-documents-48px-a"
       x="-.155"
       y="-.181"
       width="1.31"
       height="1.361">
      <feOffset
         dy="1"
         in="SourceAlpha"
         result="shadowOffsetOuter1"
         id="feOffset59" />
      <feGaussianBlur
         in="shadowOffsetOuter1"
         result="shadowBlurOuter1"
         stdDeviation="1"
         id="feGaussianBlur61" />
      <feComposite
         in="shadowBlurOuter1"
         in2="SourceAlpha"
         operator="out"
         result="shadowBlurOuter1"
         id="feComposite63" />
      <feColorMatrix
         in="shadowBlurOuter1"
         result="shadowMatrixOuter1"
         values="0 0 0 0 0   0 0 0 0 0   0 0 0 0 0  0 0 0 0.2 0"
         id="feColorMatrix65" />
      <feMerge
         id="feMerge71">
        <feMergeNode
           in="shadowMatrixOuter1"
           id="feMergeNode67" />
        <feMergeNode
           in="SourceGraphic"
           id="feMergeNode69" />
      </feMerge>
    </filter>
    <filter
       id="filter1343"
       x="-.034105"
       y="-.081"
       width="1.0682"
       height="1.162"
       color-interpolation-filters="sRGB">
      <feGaussianBlur
         stdDeviation="0.54"
         id="feGaussianBlur74" />
    </filter>
    <filter
       id="folder-48px-a"
       x="-.155"
       y="-.181"
       width="1.31"
       height="1.361">
      <feOffset
         dy="1"
         in="SourceAlpha"
         result="shadowOffsetOuter1"
         id="feOffset77" />
      <feGaussianBlur
         in="shadowOffsetOuter1"
         result="shadowBlurOuter1"
         stdDeviation="1"
         id="feGaussianBlur79" />
      <feComposite
         in="shadowBlurOuter1"
         in2="SourceAlpha"
         operator="out"
         result="shadowBlurOuter1"
         id="feComposite81" />
      <feColorMatrix
         in="shadowBlurOuter1"
         result="shadowMatrixOuter1"
         values="0 0 0 0 0   0 0 0 0 0   0 0 0 0 0  0 0 0 0.2 0"
         id="feColorMatrix83" />
      <feMerge
         id="feMerge89">
        <feMergeNode
           in="shadowMatrixOuter1"
           id="feMergeNode85" />
        <feMergeNode
           in="SourceGraphic"
           id="feMergeNode87" />
      </feMerge>
    </filter>
    <linearGradient
       id="linearGradient970"
       x1="13.627"
       x2="13.627"
       y1="10.918"
       y2="13.827"
       gradientTransform="matrix(1.5411 0 0 .64889 -41 8)"
       gradientUnits="userSpaceOnUse">
      <stop
         stop-color="#FFF"
         offset="0"
         id="stop92" />
      <stop
         stop-color="#CEF5FF"
         offset="1"
         id="stop94" />
    </linearGradient>
  </defs>
  <path
     d="m27.001 10.5c0.60397 1.5099 2.0664 2.5 3.6926 2.5h9.1362c2.856 0 5.1712 2.3152 5.1712 5.1712v20.658c0 2.856-2.3152 5.1712-5.1712 5.1712h-31.658c-2.856 0-5.1712-2.3152-5.1712-5.1712v-25.658c0-2.856 2.3152-5.1712 5.1712-5.1712h15.136c1.6262 0 3.0886 0.99009 3.6926 2.5z"
     fill="url(#linearGradient1031)"
     fill-rule="evenodd"
     filter="url(#folder-documents-48px-a)"
     id="path99" />
  <g
     transform="translate(44)"
     fill-rule="evenodd"
     id="g107">
    <rect
       x="-39"
       y="15"
       width="38"
       height="16"
       rx="3.3498"
       ry="3.3498"
       fill-opacity=".2"
       filter="url(#filter1343)"
       style="paint-order:stroke fill markers"
       id="rect101" />
    <path
       d="m-35.676 15.084h31.351c1.836 0 3.3243 1.4884 3.3243 3.3243v9.3514c0 1.836-1.4884 3.3243-3.3243 3.3243h-31.351c-1.836 0-3.3243-1.4884-3.3243-3.3243v-9.3514c0-1.836 1.4884-3.3243 3.3243-3.3243z"
       fill="url(#linearGradient970)"
       filter="url(#folder-48px-a)"
       id="path103" />
    <path
       d="m-35.676 15.084c-1.8606 0-3.3594 1.4713-3.3594 3.2988v1c0-1.8275 1.4987-3.2988 3.3594-3.2988h31.281c1.8606 0 3.3594 1.4713 3.3594 3.2988v-1c0-1.8275-1.4987-3.2988-3.3594-3.2988z"
       opacity=".5"
       style="paint-order:stroke fill markers"
       id="path105" />
  </g>
  <path
     d="m3 17h42v21.829c0 2.856-2.3152 5.1712-5.1712 5.1712h-31.658c-2.856 0-5.1712-2.3152-5.1712-5.1712z"
     fill="url(#radialGradient927)"
     fill-rule="evenodd"
     filter="url(#network-server-48px-a)"
     id="path109" />
  <use
     transform="translate(15,20)"
     width="100%"
     height="100%"
     fill="#000000"
     fill-rule="evenodd"
     filter="url(#network-server-48px-j)"
     xlink:href="#network-server-48px-k"
     id="use113" />
  <use
     transform="translate(15,20)"
     width="100%"
     height="100%"
     fill="#000000"
     fill-rule="evenodd"
     filter="url(#network-server-48px-m)"
     xlink:href="#network-server-48px-n"
     id="use117" />
  <use
     transform="translate(15,20)"
     width="100%"
     height="100%"
     fill="#000000"
     fill-rule="evenodd"
     filter="url(#network-server-48px-o)"
     xlink:href="#network-server-48px-p"
     id="use121" />
  <path
     style="fill:none;stroke:#ffffff;stroke-linecap:round;stroke-linejoin:round"
     inkscape:connector-curvature="0"
     d="m 32.472,28.972 c 0,4.694 -3.806,8.5 -8.5,8.5 -4.694,0 -8.5,-3.806 -8.5,-8.5 0,-4.694 3.806,-8.5 8.5,-8.5 4.694,0 8.5,3.806 8.5,8.5 z m -0.2756,2.1501 c -10.025,1.842 -14.525,-4.521 -15.605,-6.373 m 0.2186,8.7995 c 0.411,-2.153 2.474,-9.411 11.811,-11.692 m -0.0855,14.286 c 0.788,-9.721 -5.936,-13.935 -7.944,-14.97 m 7.7163,10.275 c 0,0 -4.476,2.332 -6.925,5.621"
     id="path111" />
  <use
     y="0"
     x="0"
     style="fill:#ffffff;fill-rule:evenodd;fill-opacity:1"
     transform="translate(15,20)"
     width="100%"
     height="100%"
     xlink:href="#network-server-48px-k"
     id="use115" />
  <use
     y="0"
     x="0"
     style="fill:#ffffff;fill-rule:evenodd;fill-opacity:1"
     transform="translate(15,20)"
     width="100%"
     height="100%"
     xlink:href="#network-server-48px-n"
     id="use119" />
  <use
     y="0"
     x="0"
     style="fill:#ffffff;fill-rule:evenodd;fill-opacity:1"
     transform="translate(15,20)"
     width="100%"
     height="100%"
     xlink:href="#network-server-48px-p"
     id="use123" />
</svg>
