<svg width="24" height="24" version="1.1" viewBox="0 0 24 24" xmlns="http://www.w3.org/2000/svg" xmlns:xlink="http://www.w3.org/1999/xlink">
<defs>
<filter id="computer-a" x="-18.2%" y="-22.2%" width="136.4%" height="144.4%">
<feOffset dy="1" in="SourceAlpha" result="shadowOffsetOuter1"/>
<feGaussianBlur in="shadowOffsetOuter1" result="shadowBlurOuter1" stdDeviation=".5"/>
<feComposite in="shadowBlurOuter1" in2="SourceAlpha" operator="out" result="shadowBlurOuter1"/>
<feColorMatrix in="shadowBlurOuter1" result="shadowMatrixOuter1" values="0 0 0 0 0   0 0 0 0 0   0 0 0 0 0  0 0 0 0.15 0"/>
<feMerge>
<feMergeNode in="shadowMatrixOuter1"/>
<feMergeNode in="SourceGraphic"/>
</feMerge>
</filter>
<rect id="computer-g" x=".75" y=".844" width="20" height="14" rx="1.75"/>
<linearGradient id="linearGradient1062" x1="7.4294" x2="14.128" y1="4.4191" y2="14.343" gradientTransform="matrix(1.1726 0 0 .8528 1 3)" gradientUnits="userSpaceOnUse">
<stop stop-color="#D7E4FF" offset="0"/>
<stop stop-color="#F4F9FF" offset="1"/>
</linearGradient>
<linearGradient id="linearGradient927" x1="3.8891" x2="3.8891" y1="48.083" y2="50.349" gradientTransform="matrix(2.8284 0 0 .35355 1 3)" gradientUnits="userSpaceOnUse">
<stop stop-color="#FFF" offset="0"/>
<stop stop-color="#EBF4FF" offset="1"/>
</linearGradient>
</defs>
<path transform="matrix(2.7518,0,0,2.3628,-21.021,-27.729)" d="m 8.46875,20 h 7.0625 C 15.790134,20 16,20.209866 16,20.46875 v 0.0625 C 16,20.790133 15.790134,21 15.53125,21 H 8.46875 C 8.2098665,21 8,20.790133 8,20.53125 v -0.0625 C 8,20.209866 8.2098665,20 8.46875,20 Z" fill="url(#linearGradient927)" fill-rule="evenodd" filter="url(#computer-a)" stroke-width=".39218"/>
<rect x="1" y="3" width="22" height="16" rx="2.344" ry="2.344" fill="url(#linearGradient1062)" fill-rule="evenodd" filter="url(#computer-a)"/>
<use transform="translate(1.25,3.156)" width="100%" height="100%" fill="#444444" fill-rule="evenodd" filter="url(#computer-a)" xlink:href="#computer-g"/>
</svg>
