<svg width="16" height="16" version="1.1" viewBox="0 0 16 16" xmlns="http://www.w3.org/2000/svg">
<defs>
<style id="current-color-scheme" type="text/css">.ColorScheme-Text { color:#444444; } .ColorScheme-Highlight { color:#5294e2; }</style>
</defs>
<path d="m8 1a4 4 0 0 0-4 4 4 4 0 0 0 1.1738 2.8262l-1.9004 1.9004a1.0003 1.0003 0 0 0-1.4082 1.4082l-1.8652 1.8652v2l2-1 1.4336-1.4336c1.7508 1.2159 3.9457 1.7046 6.0938 1.2871 1.1104-0.21584 2.1369-0.66588 3.0352-1.291l1.4375 1.4375 2 1v-2.002l-1.8711-1.8711c0.64632-0.77246 1.1571-1.6652 1.4785-2.6543a1.0001 1.0001 0 0 0-0.94726-1.3223 1.0001 1.0001 0 0 0-0.95312 0.70312c-0.22236 0.68438-0.57095 1.3024-1.002 1.8496l-1.8789-1.877a4 4 0 0 0 1.1738-2.8262 4 4 0 0 0-4-4zm0 2a2 2 0 0 1 2 2 2 2 0 0 1-0.58789 1.4121l-1.4121-1.4121-1.4141 1.4141a2 2 0 0 1-0.58594-1.4141 2 2 0 0 1 2-2zm-0.89258 5.8926a4 4 0 0 0 0.89258 0.10742 4 4 0 0 0 0.89453-0.10547l2.2188 2.2188c-0.59848 0.36406-1.2584 0.63731-1.9688 0.77539-1.4909 0.28979-3.0008-0.01047-4.2578-0.77539z" fill="#808080"/>
</svg>
