<?xml version="1.0" encoding="UTF-8"?>
<svg width="16" height="16" version="1.1" viewBox="0 0 16 16" xmlns="http://www.w3.org/2000/svg" xmlns:cc="http://creativecommons.org/ns#" xmlns:dc="http://purl.org/dc/elements/1.1/" xmlns:rdf="http://www.w3.org/1999/02/22-rdf-syntax-ns#">
 <metadata>
  <rdf:RDF>
   <cc:Work rdf:about="">
    <dc:format>image/svg+xml</dc:format>
    <dc:type rdf:resource="http://purl.org/dc/dcmitype/StillImage"/>
    <dc:title/>
   </cc:Work>
  </rdf:RDF>
 </metadata>
 <defs>
  <style id="current-color-scheme" type="text/css">.ColorScheme-Text { color:#444444; } .ColorScheme-Highlight { color:#5294e2; }</style>
 </defs>
 <path class="ColorScheme-Text" d="m6.2522 0.99889-0.1543 1.8438a5.5 5.5 0 0 0-1.6074 0.92969l-1.6758-0.78906-1.75 3.0312 1.5215 1.0566a5.5 5.5 0 0 0-0.084 0.92773 5.5 5.5 0 0 0 0.0801 0.93164l-1.5176 1.0527 1.75 3.0312 1.6719-0.7871a5.5 5.5 0 0 0 1.6113 0.92382l0.15 1.85h3.5l0.1543-1.8438a5.5 5.5 0 0 0 1.6074-0.92969l1.6758 0.78906 1.75-3.0312-1.5215-1.0566a5.5 5.5 0 0 0 0.084-0.92773 5.5 5.5 0 0 0-0.0801-0.93164l1.5176-1.0527-1.75-3.0312-1.6719 0.7871a5.5 5.5 0 0 0-1.6113-0.92382l-0.15-1.85h-3.5zm1.75 5a2 2 0 0 1 2 2 2 2 0 0 1-2 2 2 2 0 0 1-2-2 2 2 0 0 1 2-2z" fill="#808080"/>
</svg>
