<svg width="16" height="16" version="1.1" viewBox="0 0 16 16" xmlns="http://www.w3.org/2000/svg">
<defs>
<style id="current-color-scheme" type="text/css">.ColorScheme-Text { color:#444444; } .ColorScheme-Highlight { color:#4285f4; }</style>
</defs>
<path d="m2.8672 2c-1.0343 0-1.8672 0.83287-1.8672 1.8672v8.2656c0 1.0343 0.83287 1.8672 1.8672 1.8672h10.266c1.0343 0 1.8672-0.83287 1.8672-1.8672v-8.2656c0-1.0343-0.83287-1.8672-1.8672-1.8672zm0.71289 2.0059c0.06414 0.010249 0.127 0.033724 0.18555 0.070312l3 1.5c0.31333 0.19583 0.31333 0.65182 0 0.84766l-3 1.5c-0.23417 0.14636-0.5431 0.075966-0.68945-0.1582s-0.075965-0.5431 0.1582-0.68945l2.332-1.082-2.332-1.0703c-0.23417-0.14636-0.30456-0.45528-0.1582-0.68945 0.10977-0.17563 0.3115-0.25926 0.50391-0.22852zm3.4199 4.9941h4.5c0.27614 0 0.5 0.22386 0.5 0.5s-0.22386 0.5-0.5 0.5h-4.5c-0.27614 0-0.5-0.22386-0.5-0.5s0.22386-0.5 0.5-0.5z" fill="#808080" fill-rule="evenodd"/>
</svg>
