<?xml version="1.0" encoding="UTF-8"?>
<svg width="16" height="16" version="1.1" viewBox="0 0 16 16" xmlns="http://www.w3.org/2000/svg" xmlns:cc="http://creativecommons.org/ns#" xmlns:dc="http://purl.org/dc/elements/1.1/" xmlns:rdf="http://www.w3.org/1999/02/22-rdf-syntax-ns#">
 <metadata>
  <rdf:RDF>
   <cc:Work rdf:about="">
    <dc:format>image/svg+xml</dc:format>
    <dc:type rdf:resource="http://purl.org/dc/dcmitype/StillImage"/>
    <dc:title/>
   </cc:Work>
  </rdf:RDF>
 </metadata>
 <defs>
  <style id="current-color-scheme" type="text/css">.ColorScheme-Text { color:#444444; } .ColorScheme-Highlight { color:#5294e2; }</style>
 </defs>
 <path class="ColorScheme-Text" d="m11.881 8.5c-0.02-2 1.653-3 1.727-3-0.94-1.4-2.404-1.6-2.925-1.6-1.2464-0.2-2.4316 0.7-3.0639 0.7-0.6307 0-1.6065-0.7-2.6399-0.7-1.3581 0-2.6103 0.8-3.3096 2-1.411 2.5-0.3613 6.1 1.0139 8.1 0.672 0.9 1.4733 2 2.5254 2 1.0132 0 1.3963-0.7 2.6212-0.7s1.5692 0.7 2.6419 0.7c1.09 0 1.781-1 2.448-2 0.771-1.1 1.089-2.2 1.108-2.3-0.024 0-2.126-0.8-2.147-3.2zm-2.0146-5.9c0.5586-0.7 0.9356-1.7 0.8326-2.6-0.8044 0-1.7794 0.5-2.3565 1.2-0.5178 0.6-0.9711 1.6-0.8496 2.5 0.8979 0.1 1.8145-0.5 2.3735-1.1z" fill="#808080"/>
</svg>
