<svg width="16" height="16" enable-background="new" version="1.1" xmlns="http://www.w3.org/2000/svg" xmlns:osb="http://www.openswatchbook.org/uri/2009/osb">
<title>Pop Symbolic Icon Theme</title>
<g fill="#808080">
<path d="m2 4c-1.108 0-2 0.892-2 2v8c0 1.108 0.892 2 2 2h5v-1h1v-1h-1v-1h1v-1h-1v-1h1l-6-3v-2l6 3 6-3v2l-6 3v1h1v1h-1v1h1v1h-1v1h6c1.108 0 2-0.892 2-2v-8c0-1.108-0.892-2-2-2zm2 5.9961 1.25 0.63867-3.25 3.3613v-2zm8 0 2 2v2l-3.25-3.3613z" enable-background="new"/>
<path d="m2 2c-1.108 0-2 0.892-2 2v1c0-1.108 0.892-2 2-2h12c1.108 0 2 0.892 2 2v-1c0-1.108-0.892-2-2-2z" opacity=".5"/>
<path d="m2 0c-1.108 0-2 0.892-2 2v1c0-1.108 0.892-2 2-2h12c1.108 0 2 0.892 2 2v-1c0-1.108-0.892-2-2-2z" enable-background="new" opacity=".5"/>
</g>
</svg>
