<svg width="256" height="256" version="1.1" viewBox="0 0 256 256" xmlns="http://www.w3.org/2000/svg" xmlns:xlink="http://www.w3.org/1999/xlink">
 <defs>
  <linearGradient id="text-css-c" x1="93.467" x2="93.467" y2="186.93" gradientTransform="scale(.89872 1.1127)" gradientUnits="userSpaceOnUse">
   <stop stop-color="#FC7440" offset="0"/>
   <stop stop-color="#F04E11" offset="1"/>
  </linearGradient>
  <path id="text-css-b" d="m116 0 52 52v138c0 9.9411-8.0589 18-18 18h-132c-9.9411 0-18-8.0589-18-18v-172c-1.2174e-15 -9.9411 8.0589-18 18-18h98z"/>
  <filter id="text-css-a" x="-13.7%" y="-9.1%" width="127.4%" height="122.1%">
   <feOffset dy="4" in="SourceAlpha" result="shadowOffsetOuter1"/>
   <feGaussianBlur in="shadowOffsetOuter1" result="shadowBlurOuter1" stdDeviation="7"/>
   <feColorMatrix in="shadowBlurOuter1" values="0 0 0 0 0.941176471   0 0 0 0 0.309803922   0 0 0 0 0.0705882353  0 0 0 0.5 0"/>
  </filter>
  <linearGradient id="text-css-f" x1="142" x2="120.16" y1="26" y2="46.224" gradientUnits="userSpaceOnUse">
   <stop stop-color="#FFF" stop-opacity=".1" offset="0"/>
   <stop stop-color="#FFF" stop-opacity=".3" offset="1"/>
  </linearGradient>
  <path id="text-css-e" d="m116 0 52 52h-34c-9.9411 0-18-8.0589-18-18v-34z"/>
  <filter id="text-css-d" x="-13.5%" y="-9.6%" width="126.9%" height="126.9%">
   <feOffset dy="2" in="SourceAlpha" result="shadowOffsetOuter1"/>
   <feGaussianBlur in="shadowOffsetOuter1" result="shadowBlurOuter1" stdDeviation="2"/>
   <feComposite in="shadowBlurOuter1" in2="SourceAlpha" operator="out" result="shadowBlurOuter1"/>
   <feColorMatrix in="shadowBlurOuter1" values="0 0 0 0 0   0 0 0 0 0   0 0 0 0 0  0 0 0 0.05 0"/>
  </filter>
 </defs>
 <g transform="translate(44,28)" fill-rule="evenodd">
  <use width="100%" height="100%" fill="#000000" filter="url(#text-css-a)" xlink:href="#text-css-b"/>
  <use width="100%" height="100%" fill="url(#text-css-c)" xlink:href="#text-css-b"/>
  <use width="100%" height="100%" fill="#000000" filter="url(#text-css-d)" xlink:href="#text-css-e"/>
  <use width="100%" height="100%" fill="url(#text-css-f)" xlink:href="#text-css-e"/>
 </g>
 <path d="m80 172h-16v16h56v-16h-16v-16h8c16 0 16 32 32 32h32c16 0 16-32 16-32h-20s4 16-12 16c-8 0-16-16-16-16h4c13.28 0 24-10.4 24-24s-10.72-24-24-24h-84v16h16m60 0c4.4 0 8 3.2 8 8s-3.6 8-8 8h-36v-16" fill="#fff" stroke-width="4"/>
</svg>
