<svg width="64" height="64" version="1.1" viewBox="0 0 64 64" xmlns="http://www.w3.org/2000/svg">
 <defs>
  <filter id="application-x-flash-video-a" x="-.155" y="-.106" width="1.31" height="1.25">
   <feOffset dy="1" in="SourceAlpha" result="shadowOffsetOuter1"/>
   <feGaussianBlur in="shadowOffsetOuter1" result="shadowBlurOuter1" stdDeviation="2"/>
   <feColorMatrix in="shadowBlurOuter1" values="0 0 0 0 0.6622226   0 0 0 0 0   0 0 0 0 0  0 0 0 0.5 0"/>
  </filter>
  <linearGradient id="application-x-flash-video-c" x1="23.367" x2="23.367" y2="46.733" gradientTransform="scale(.89872 1.1127)" gradientUnits="userSpaceOnUse">
   <stop stop-color="#FF6464" offset="0"/>
   <stop stop-color="#E02222" offset="1"/>
  </linearGradient>
  <filter id="application-x-flash-video-d" x="-.269" y="-.192" width="1.538" height="1.538">
   <feOffset dy="1" in="SourceAlpha" result="shadowOffsetOuter1"/>
   <feGaussianBlur in="shadowOffsetOuter1" result="shadowBlurOuter1" stdDeviation="1"/>
   <feComposite in="shadowBlurOuter1" in2="SourceAlpha" operator="out" result="shadowBlurOuter1"/>
   <feColorMatrix in="shadowBlurOuter1" values="0 0 0 0 0   0 0 0 0 0   0 0 0 0 0  0 0 0 0.05 0"/>
  </filter>
  <linearGradient id="application-x-flash-video-f" x1="35.5" x2="30.364" y1="6.5" y2="11.855" gradientUnits="userSpaceOnUse">
   <stop stop-color="#FFF" stop-opacity=".1" offset="0"/>
   <stop stop-color="#FFF" stop-opacity=".3" offset="1"/>
  </linearGradient>
 </defs>
 <g transform="translate(11,7)" fill-rule="evenodd">
  <path d="m29 0 13 13v34.5c0 2.4853-2.0147 4.5-4.5 4.5h-33c-2.4853 0-4.5-2.0147-4.5-4.5v-43c0-2.4853 2.0147-4.5 4.5-4.5z" filter="url(#application-x-flash-video-a)"/>
  <path d="m29 0 13 13v34.5c0 2.4853-2.0147 4.5-4.5 4.5h-33c-2.4853 0-4.5-2.0147-4.5-4.5v-43c0-2.4853 2.0147-4.5 4.5-4.5z" fill="url(#application-x-flash-video-c)"/>
  <path d="m29 0 13 13h-8.5c-2.4853 0-4.5-2.0147-4.5-4.5z" filter="url(#application-x-flash-video-d)"/>
  <path d="m29 0 13 13h-8.5c-2.4853 0-4.5-2.0147-4.5-4.5z" fill="url(#application-x-flash-video-f)"/>
 </g>
 <path d="m26 38h-3v3h-3v1h3v3h3v3h1v-3h3v-3h14v-1h-14v-3h-3v-14.25h-1zm3 1v5h-5v-5z" fill="#fff" fill-rule="evenodd"/>
</svg>
