<svg width="64" height="64" version="1.1" viewBox="0 0 64 64" xmlns="http://www.w3.org/2000/svg" xmlns:xlink="http://www.w3.org/1999/xlink">
 <defs>
  <linearGradient id="rpm-c" x1="23.367" x2="23.367" y2="45.652" gradientTransform="scale(.89872 1.1127)" gradientUnits="userSpaceOnUse">
   <stop stop-color="#666E7B" offset="0"/>
   <stop stop-color="#475055" offset="1"/>
  </linearGradient>
  <path id="rpm-b" d="m29 0 13 13v34.5c0 2.4853-2.0147 4.5-4.5 4.5h-33c-2.4853 0-4.5-2.0147-4.5-4.5v-43c-3.0436e-16 -2.4853 2.0147-4.5 4.5-4.5h24.5z"/>
  <filter id="rpm-a" x="-15.5%" y="-10.6%" width="131%" height="125%">
   <feOffset dy="1" in="SourceAlpha" result="shadowOffsetOuter1"/>
   <feGaussianBlur in="shadowOffsetOuter1" result="shadowBlurOuter1" stdDeviation="2"/>
   <feColorMatrix in="shadowBlurOuter1" values="0 0 0 0 0.361595344   0 0 0 0 0.418797512   0 0 0 0 0.450973732  0 0 0 0.5 0"/>
  </filter>
  <linearGradient id="rpm-f" x1="35.5" x2="30.364" y1="6.5" y2="11.855" gradientUnits="userSpaceOnUse">
   <stop stop-color="#FFF" stop-opacity=".1" offset="0"/>
   <stop stop-color="#FFF" stop-opacity=".3" offset="1"/>
  </linearGradient>
  <path id="rpm-e" d="m29 0 13 13h-8.5c-2.4853 0-4.5-2.0147-4.5-4.5v-8.5z"/>
  <filter id="rpm-d" x="-26.9%" y="-19.2%" width="153.8%" height="153.8%">
   <feOffset dy="1" in="SourceAlpha" result="shadowOffsetOuter1"/>
   <feGaussianBlur in="shadowOffsetOuter1" result="shadowBlurOuter1" stdDeviation="1"/>
   <feComposite in="shadowBlurOuter1" in2="SourceAlpha" operator="out" result="shadowBlurOuter1"/>
   <feColorMatrix in="shadowBlurOuter1" values="0 0 0 0 0   0 0 0 0 0   0 0 0 0 0  0 0 0 0.05 0"/>
  </filter>
 </defs>
 <g transform="translate(11,7)" fill-rule="evenodd">
  <use width="100%" height="100%" fill="#000000" filter="url(#rpm-a)" xlink:href="#rpm-b"/>
  <use width="100%" height="100%" fill="url(#rpm-c)" xlink:href="#rpm-b"/>
  <use width="100%" height="100%" fill="#000000" filter="url(#rpm-d)" xlink:href="#rpm-e"/>
  <use width="100%" height="100%" fill="url(#rpm-f)" xlink:href="#rpm-e"/>
 </g>
 <path d="m26.26 26.001a1.2403 1.2421 0 0 0-0.11719 2e-3 1.2403 1.2421 0 0 0-0.32812 0.06836s-0.77626 0.25657-1.6758 0.73047c-0.89947 0.47391-1.9921 1.1377-2.6953 2.2773-0.78279 1.2684-0.48563 2.6255-0.24219 3.4375 0.24344 0.81204 0.3772 1.1672 0.15234 1.7109-0.10981 0.2655-0.78334 0.84568-1.5195 1.207-0.73669 0.36143-1.4043 0.55078-1.4043 0.55078a1.2403 1.2421 0 0 0-0.88672 1.5273 1.2403 1.2421 0 0 0 0.88672 1.4902s0.66812 0.18942 1.4043 0.55078c0.7362 0.36135 1.4098 0.94349 1.5195 1.209 0.22485 0.54365 0.09109 0.89884-0.15234 1.7109-0.24344 0.81204-0.54059 2.169 0.24219 3.4375 0.7033 1.1396 1.7959 1.8034 2.6953 2.2773 0.89947 0.47391 1.6758 0.73047 1.6758 0.73047a1.2403 1.2421 0 1 0 0.78125-2.3555s-0.59024-0.19984-1.3008-0.57422c-0.71058-0.37438-1.4716-0.95134-1.7402-1.3867-0.30392-0.49246-0.20452-0.66222 0.02148-1.416 0.22599-0.75382 0.63451-2.0062 0.06836-3.375-0.5014-1.2122-1.5024-1.8538-2.3984-2.3164 0.89602-0.46269 1.897-1.1042 2.3984-2.3164 0.56616-1.3688 0.15764-2.6212-0.06836-3.375-0.22599-0.75382-0.32539-0.92358-0.02148-1.416 0.26868-0.43537 1.0297-1.0143 1.7402-1.3887 0.71058-0.37438 1.3008-0.57227 1.3008-0.57227a1.2403 1.2421 0 0 0-0.334-2.425h-2e-3zm11.475 0a1.2403 1.2421 0 0 0-0.33008 2.4258s0.5902 0.19788 1.3008 0.57227c0.71052 0.3744 1.4716 0.9533 1.7402 1.3887 0.30391 0.49244 0.20451 0.66219-0.02148 1.416-0.226 0.75378-0.63452 2.0062-0.06836 3.375 0.50142 1.2122 1.5024 1.8537 2.3984 2.3164-0.89606 0.46265-1.897 1.1042-2.3984 2.3164-0.56615 1.3688-0.15763 2.6212 0.06836 3.375 0.226 0.7538 0.3254 0.92355 0.02148 1.416-0.26863 0.43538-1.0297 1.0123-1.7402 1.3867-0.71054 0.37438-1.3008 0.57422-1.3008 0.57422a1.2403 1.2421 0 1 0 0.78125 2.3555s0.77631-0.25656 1.6758-0.73047c0.8994-0.47396 1.992-1.1377 2.6953-2.2773 0.78277-1.2685 0.48563-2.6255 0.24219-3.4375-0.24344-0.8121-0.3772-1.1673-0.15234-1.7109 0.10976-0.2655 0.78333-0.84763 1.5195-1.209 0.73618-0.36136 1.4043-0.55078 1.4043-0.55078a1.2403 1.2421 0 0 0 0.88672-1.4902 1.2403 1.2421 0 0 0-0.88672-1.5273c1e-6 0-0.66761-0.18935-1.4043-0.55078-0.73619-0.36136-1.4097-0.94154-1.5195-1.207-0.22485-0.54371-0.0911-0.8989 0.15234-1.7109 0.24344-0.81204 0.5406-2.1691-0.24219-3.4375-0.7032-1.1396-1.7958-1.8034-2.6953-2.2773-0.89952-0.4739-1.6777-0.73047-1.6777-0.73047a1.2403 1.2421 0 0 0-0.327-0.068 1.2403 1.2421 0 0 0-0.119-2e-3 1.2403 1.2421 0 0 0-0.0039 0zm-5.735 5a2.5 2.5 0 0 0-2.5 2.5 2.5 2.5 0 0 0 2.5 2.5 2.5 2.5 0 0 0 2.5-2.5 2.5 2.5 0 0 0-2.5-2.5zm0 7.5c-1.3808 0-2.5 1.1193-2.5 2.5s1.1193 2.5 2.5 2.5c0.88371 0 1.25 2.5 1.25 2.5s1.25-4.503 1.25-5c0-1.3808-1.1193-2.5-2.5-2.5z" fill="#fff" fill-rule="evenodd"/>
</svg>
