<svg width="64" height="64" version="1.1" viewBox="0 0 64 64" xmlns="http://www.w3.org/2000/svg" xmlns:xlink="http://www.w3.org/1999/xlink">
 <defs>
  <linearGradient id="application-x-7zip-c" x1="23.367" x2="23.367" y2="46.733" gradientTransform="scale(.89872 1.1127)" gradientUnits="userSpaceOnUse">
   <stop stop-color="#5C42B1" offset="0"/>
   <stop stop-color="#3E1888" offset=".99345"/>
  </linearGradient>
  <path id="application-x-7zip-b" d="m29 0 13 13v34.5c0 2.4853-2.0147 4.5-4.5 4.5h-33c-2.4853 0-4.5-2.0147-4.5-4.5v-43c-3.0436e-16 -2.4853 2.0147-4.5 4.5-4.5h24.5z"/>
  <filter id="application-x-7zip-a" x="-15.5%" y="-10.6%" width="131%" height="125%">
   <feOffset dy="1" in="SourceAlpha" result="shadowOffsetOuter1"/>
   <feGaussianBlur in="shadowOffsetOuter1" result="shadowBlurOuter1" stdDeviation="2"/>
   <feColorMatrix in="shadowBlurOuter1" values="0 0 0 0 0.241013895   0 0 0 0 0   0 0 0 0 0.621603261  0 0 0 0.5 0"/>
  </filter>
  <linearGradient id="application-x-7zip-f" x1="35.5" x2="30.364" y1="6.5" y2="11.855" gradientUnits="userSpaceOnUse">
   <stop stop-color="#FFF" stop-opacity=".1" offset="0"/>
   <stop stop-color="#FFF" stop-opacity=".3" offset="1"/>
  </linearGradient>
  <path id="application-x-7zip-e" d="m29 0 13 13h-8.5c-2.4853 0-4.5-2.0147-4.5-4.5v-8.5z"/>
  <filter id="application-x-7zip-d" x="-26.9%" y="-19.2%" width="153.8%" height="153.8%">
   <feOffset dy="1" in="SourceAlpha" result="shadowOffsetOuter1"/>
   <feGaussianBlur in="shadowOffsetOuter1" result="shadowBlurOuter1" stdDeviation="1"/>
   <feComposite in="shadowBlurOuter1" in2="SourceAlpha" operator="out" result="shadowBlurOuter1"/>
   <feColorMatrix in="shadowBlurOuter1" values="0 0 0 0 0   0 0 0 0 0   0 0 0 0 0  0 0 0 0.05 0"/>
  </filter>
 </defs>
 <use transform="translate(11,7)" width="100%" height="100%" fill="#000000" fill-rule="evenodd" filter="url(#application-x-7zip-a)" xlink:href="#application-x-7zip-b"/>
 <use transform="translate(11,7)" width="100%" height="100%" fill="url(#application-x-7zip-c)" fill-rule="evenodd" xlink:href="#application-x-7zip-b"/>
 <use transform="translate(11,7)" width="100%" height="100%" fill="#000000" fill-rule="evenodd" filter="url(#application-x-7zip-d)" xlink:href="#application-x-7zip-e"/>
 <use transform="translate(11,7)" width="100%" height="100%" fill="url(#application-x-7zip-f)" fill-rule="evenodd" xlink:href="#application-x-7zip-e"/>
 <path d="m28 53.999-8.2e-4 -25.188c-1.751 0.6558-2.4291 1.2889-3.4096 2.6882-0.97711 1.3946-1.1067 3.9212-1.1067 5.9983 0 0.4736 0.02443 0.86242 0.07332 1.1664 0.06043 0.2914 0.1211 0.5282 0.18207 0.7104 0.06097 0.17012 0.11589 0.30375 0.16476 0.40089 0.06043 0.09714 0.09062 0.1822 0.09062 0.25519-0.64427 0-1.2155-0.06064-1.7137-0.18192-0.49869-0.1339-0.91832-0.34052-1.2589-0.61985-0.32845-0.27878-0.58385-0.64921-0.7662-1.1113-0.17027-0.46098-0.2554-1.0317-0.2554-1.7122 0-0.82592 0.23158-2.3172 0.5281-3.1408 1.2832-3.5639 5.6475-5.8588 9.0259-6.8686 1.0425-0.3116 2.1097-0.3836 3.1554-0.3836 0.39352-0.04942 1.2605 0.07028 1.2906 0.07244v22.958l8.3924-22.85h2.6076l-10.376 27.807h-6.6245z" fill="#fff"/>
</svg>
