<svg width="64" height="64" version="1.1" viewBox="0 0 64 64" xmlns="http://www.w3.org/2000/svg" xmlns:xlink="http://www.w3.org/1999/xlink">
 <defs>
  <linearGradient id="text-css-c" x1="23.367" x2="23.367" y2="46.733" gradientTransform="scale(.89872 1.1127)" gradientUnits="userSpaceOnUse">
   <stop stop-color="#FC7440" offset="0"/>
   <stop stop-color="#F04E11" offset="1"/>
  </linearGradient>
  <path id="text-css-b" d="m29 0 13 13v34.5c0 2.4853-2.0147 4.5-4.5 4.5h-33c-2.4853 0-4.5-2.0147-4.5-4.5v-43c-3.0436e-16 -2.4853 2.0147-4.5 4.5-4.5h24.5z"/>
  <filter id="text-css-a" x="-15.5%" y="-10.6%" width="131%" height="125%">
   <feOffset dy="1" in="SourceAlpha" result="shadowOffsetOuter1"/>
   <feGaussianBlur in="shadowOffsetOuter1" result="shadowBlurOuter1" stdDeviation="2"/>
   <feColorMatrix in="shadowBlurOuter1" values="0 0 0 0 0.941176471   0 0 0 0 0.309803922   0 0 0 0 0.0705882353  0 0 0 0.5 0"/>
  </filter>
  <linearGradient id="text-css-f" x1="35.5" x2="30.364" y1="6.5" y2="11.855" gradientUnits="userSpaceOnUse">
   <stop stop-color="#FFF" stop-opacity=".1" offset="0"/>
   <stop stop-color="#FFF" stop-opacity=".3" offset="1"/>
  </linearGradient>
  <path id="text-css-e" d="m29 0 13 13h-8.5c-2.4853 0-4.5-2.0147-4.5-4.5v-8.5z"/>
  <filter id="text-css-d" x="-26.9%" y="-19.2%" width="153.8%" height="153.8%">
   <feOffset dy="1" in="SourceAlpha" result="shadowOffsetOuter1"/>
   <feGaussianBlur in="shadowOffsetOuter1" result="shadowBlurOuter1" stdDeviation="1"/>
   <feComposite in="shadowBlurOuter1" in2="SourceAlpha" operator="out" result="shadowBlurOuter1"/>
   <feColorMatrix in="shadowBlurOuter1" values="0 0 0 0 0   0 0 0 0 0   0 0 0 0 0  0 0 0 0.05 0"/>
  </filter>
 </defs>
 <g transform="translate(11,7)" fill-rule="evenodd">
  <use width="100%" height="100%" fill="#000000" filter="url(#text-css-a)" xlink:href="#text-css-b"/>
  <use width="100%" height="100%" fill="url(#text-css-c)" xlink:href="#text-css-b"/>
  <use width="100%" height="100%" fill="#000000" filter="url(#text-css-d)" xlink:href="#text-css-e"/>
  <use width="100%" height="100%" fill="url(#text-css-f)" xlink:href="#text-css-e"/>
 </g>
 <path d="m20 44h-4v4h14v-4h-4v-4h2c4 0 4 8 8 8h8c4 0 4-8 4-8h-5s1 4-3 4c-2 0-4-4-4-4h1c3.32 0 6-2.6 6-6s-2.68-6-6-6h-21v4h4m15 0c1.1 0 2 0.8 2 2s-0.9 2-2 2h-9v-4" fill="#fff"/>
</svg>
