<svg width="32" height="32" version="1.1" viewBox="0 0 32 32" xmlns="http://www.w3.org/2000/svg" xmlns:xlink="http://www.w3.org/1999/xlink">
<defs>
<filter id="preference-system-a" x="-13.3%" y="-13.3%" width="126.7%" height="126.7%">
<feOffset dy="1" in="SourceAlpha" result="shadowOffsetOuter1"/>
<feGaussianBlur in="shadowOffsetOuter1" result="shadowBlurOuter1" stdDeviation=".5"/>
<feComposite in="shadowBlurOuter1" in2="SourceAlpha" operator="out" result="shadowBlurOuter1"/>
<feColorMatrix in="shadowBlurOuter1" result="shadowMatrixOuter1" values="0 0 0 0 0   0 0 0 0 0   0 0 0 0 0  0 0 0 0.15 0"/>
<feMerge>
<feMergeNode in="shadowMatrixOuter1"/>
<feMergeNode in="SourceGraphic"/>
</feMerge>
</filter>
<linearGradient id="preference-system-b" x1="15.783" x2="14.383" y1="30.396" gradientTransform="translate(1,1)" gradientUnits="userSpaceOnUse">
<stop stop-color="#444" offset="0"/>
<stop stop-color="#808080" offset="1"/>
</linearGradient>
<circle id="preference-system-c" cx="15" cy="15" r="9.545"/>
<filter id="preference-system-d" x="-7.9%" y="-7.9%" width="115.7%" height="115.7%">
<feGaussianBlur in="SourceAlpha" result="shadowBlurInner1" stdDeviation="1"/>
<feOffset dy="1" in="shadowBlurInner1" result="shadowOffsetInner1"/>
<feComposite in="shadowOffsetInner1" in2="SourceAlpha" k2="-1" k3="1" operator="arithmetic" result="shadowInnerInner1"/>
<feColorMatrix in="shadowInnerInner1" values="0 0 0 0 0   0 0 0 0 0   0 0 0 0 0  0 0 0 0.5 0"/>
</filter>
<radialGradient id="preference-system-e" cx="13.636" cy="13.636" r="13.743" gradientTransform="matrix(1 0 0 .99999 2.364 2.364)" gradientUnits="userSpaceOnUse">
<stop stop-color="#E2E5ED" offset="0"/>
<stop stop-color="#9DA3B5" offset=".48405"/>
<stop stop-color="#E7ECFF" offset="1"/>
</radialGradient>
</defs>
<g fill-rule="evenodd">
<circle cx="16" cy="16" r="15" fill="url(#preference-system-b)" filter="url(#preference-system-a)"/>
<use transform="translate(1,1)" width="100%" height="100%" fill="#000000" fill-opacity=".5" filter="url(#preference-system-a)" xlink:href="#preference-system-c"/>
<use transform="translate(1,1)" width="100%" height="100%" fill="#000000" filter="url(#preference-system-d)" xlink:href="#preference-system-c"/>
<path d="m16.98 7.8185c0.50658 0.060465 0.99894 0.16722 1.4727 0.3159l-0.099 1.1108c0.38145 0.14129 0.74703 0.31594 1.0933 0.52047l0.82704-0.80155c0.42428 0.26042 0.82298 0.55845 1.1915 0.88944l-0.60301 1.0218c0.29093 0.29685 0.55552 0.6202 0.78992 0.96616l1.1869-0.3917c0.26535 0.40315 0.49601 0.83116 0.68774 1.2798l-1.069 0.71342c0.14163 0.40481 0.24716 0.82689 0.31269 1.2623l1.344 0.18378c0.04431 0.34479 0.06715 0.69631 0.06715 1.0532 0 0.11897-0.0025 0.23734-0.0076 0.35507l-1.3621 0.18576c-0.04686 0.45654-0.13749 0.89992-0.26757 1.3258l1.1936 0.79774c-0.14971 0.4349-0.33505 0.85321-0.55253 1.2515l-1.3619-0.44905c-0.24422 0.39833-0.5272 0.76975-0.84362 1.1089l0.74787 1.2667c-0.31875 0.31255-0.66297 0.59923-1.0293 0.85662l-1.0483-1.0157c-0.39726 0.25379-0.82209 0.46738-1.2689 0.63514l0.13217 1.47c-0.41633 0.13427-0.84724 0.23608-1.2897 0.30246l-0.51074-1.379c-0.23444 0.02456-0.47239 0.03714-0.71325 0.03714-0.24086 0-0.47881-0.01258-0.71325-0.03714l-0.51074 1.379c-0.44246-0.066379-0.87337-0.16819-1.2897-0.30246l0.13217-1.47c-0.44682-0.16775-0.87166-0.38134-1.2689-0.63514l-1.0482 1.0157c-0.3667-0.25768-0.71129-0.54471-1.0303-0.85767l0.74886-1.2657c-0.31642-0.33912-0.5994-0.71054-0.84362-1.1089l-1.3619 0.44905c-0.21748-0.39824-0.40282-0.81656-0.55253-1.2515l1.1936-0.79774c-0.13008-0.42584-0.22071-0.86922-0.26757-1.3258l-1.3621-0.18576c-0.00503-0.11773-0.00757-0.2361-0.00757-0.35507 0-0.35685 0.022845-0.70836 0.067152-1.0532l1.344-0.18378c0.065527-0.4354 0.17106-0.85749 0.31269-1.2623l-1.069-0.71342c0.19173-0.44862 0.42239-0.87663 0.68774-1.2798l1.1869 0.3917c0.2344-0.34596 0.49898-0.66931 0.78992-0.96616l-0.60403-1.0209c0.36877-0.33136 0.76782-0.6297 1.1925-0.89035l0.82704 0.80155c0.34625-0.20452 0.71182-0.37917 1.0933-0.52047l-0.1-1.1105c0.4741-0.14885 0.96678-0.25571 1.4737-0.31621l0.38194 1.0326c0.19708-0.017257 0.39655-0.026065 0.59806-0.026065 0.2015 0 0.40097 0.00881 0.59805 0.026065zm-0.97996 2.4785c-3.0125 0-5.4545 2.4421-5.4545 5.4545 0 3.0125 2.4421 5.4545 5.4545 5.4545 3.0125 0 5.4545-2.4421 5.4545-5.4545 0-3.0125-2.4421-5.4545-5.4545-5.4545z" fill="#585f6c" filter="url(#preference-system-a)"/>
<path d="m14.255 2.8237 0.55733 1.6168c0.09902 0.28733 0.37627 0.47441 0.67978 0.45873 0.20602-0.010644 0.37515-0.015965 0.50739-0.015965 0.13224 0 0.30137 0.00532 0.50739 0.015966 0.3035 0.015672 0.58073-0.1714 0.67977-0.45871l0.55733-1.6168c0.11339-0.32893 0.45625-0.51973 0.79554-0.4427l0.85558 0.19424c0.33776 0.07668 0.56437 0.39441 0.52686 0.73873l-0.18937 1.7385c-0.03133 0.28765 0.12231 0.56376 0.38328 0.68875l0.98541 0.47199c0.26275 0.12585 0.57643 0.070853 0.78069-0.13688l1.2083-1.2288c0.24442-0.24857 0.63698-0.27273 0.91004-0.056001l0.69057 0.54811c0.27014 0.21442 0.33763 0.5968 0.15719 0.89074l-0.906 1.4759c-0.15146 0.24673-0.13058 0.56221 0.05206 0.78684l0.73474 0.90361c0.18204 0.22388 0.48531 0.30893 0.75722 0.21235l1.6215-0.57595c0.32544-0.11559 0.68591 0.030401 0.83919 0.33988l0.39027 0.78796c0.15408 0.31109 0.04981 0.68827-0.24216 0.87606l-1.4265 0.91745c-0.24527 0.15775-0.36306 0.45402-0.29306 0.73712l0.3022 1.2222c0.06824 0.27599 0.30058 0.48066 0.58297 0.51357l1.7391 0.20266c0.33191 0.03868 0.58688 0.3122 0.60219 0.646l0.03281 0.71542 4.82e-4 0.04909-0.0093 0.35354c-0.0057 0.21697-0.17001 0.39675-0.38559 0.42188l-1.8897 0.2202c-0.29386 0.03424-0.53211 0.25409-0.58981 0.54426l-0.26181 1.3166c-0.05463 0.27472 0.06432 0.55491 0.2999 0.70643l1.4866 0.95615c0.28406 0.1827 0.39156 0.54583 0.25273 0.85372l-0.33879 0.75134c-0.14585 0.32346-0.5154 0.48098-0.84976 0.36222l-1.5621-0.55486c-0.28069-0.0997-0.59362-0.0056-0.77283 0.23229l-0.84034 1.1157c-0.1686 0.22385-0.18306 0.52807-0.03646 0.7669l0.93464 1.5226c0.177 0.28834 0.11578 0.66287-0.14383 0.87985l-0.60069 0.50205c-0.27256 0.2278-0.67435 0.20817-0.92341-0.04511l-1.181-1.201c-0.20798-0.21151-0.52884-0.26428-0.7936-0.13052l-1.2708 0.642c-0.25356 0.1281-0.40113 0.39999-0.37036 0.6824l0.19237 1.766c0.03724 0.34193-0.18602 0.65806-0.52072 0.73731l-0.7341 0.17381c-0.34091 0.08071-0.68751-0.11007-0.80168-0.44128l-0.55646-1.6143c-0.09936-0.28823-0.37798-0.47547-0.68239-0.45857l-0.6487 0.03601c-0.02517 0.0014-0.05041 0.0014-0.07558 0l-0.6487-0.03601c-0.3044-0.0169-0.58303 0.17034-0.68239 0.45857l-0.55646 1.6143c-0.11417 0.33121-0.46077 0.52199-0.80168 0.44128l-0.7341-0.17381c-0.33465-0.07925-0.55792-0.39538-0.52067-0.73731l0.19237-1.766c0.03076-0.28241-0.1168-0.5543-0.37036-0.6824l-1.2708-0.642c-0.26476-0.13376-0.58563-0.08098-0.7936 0.13052l-1.181 1.201c-0.24906 0.25328-0.65085 0.27291-0.92341 0.04511l-0.60069-0.50205c-0.2596-0.21698-0.32083-0.5915-0.14383-0.87985l0.93464-1.5226c0.14661-0.23883 0.13215-0.54305-0.036455-0.7669l-0.84034-1.1157c-0.17921-0.23793-0.49213-0.33199-0.77283-0.23229l-1.5621 0.55486c-0.33435 0.11876-0.70391-0.03877-0.84976-0.36222l-0.33879-0.75134c-0.13883-0.30789-0.031336-0.67102 0.25273-0.85372l1.4866-0.95615c0.23558-0.15152 0.35453-0.4317 0.2999-0.70643l-0.26181-1.3166c-0.057701-0.29017-0.29595-0.51002-0.58981-0.54426l-1.8897-0.2202c-0.21558-0.025121-0.3799-0.20491-0.38559-0.42188l-0.00926-0.35354 4.823e-4 -0.04909 0.032813-0.71542c0.01531-0.3338 0.27028-0.60732 0.60219-0.646l1.7391-0.20266c0.28239-0.032906 0.51472-0.23758 0.58297-0.51357l0.30221-1.2222c0.070001-0.28309-0.04779-0.57936-0.29306-0.73712l-1.4265-0.91745c-0.29197-0.18779-0.39624-0.56498-0.24216-0.87606l0.39027-0.78796c0.15328-0.30948 0.51375-0.45547 0.83919-0.33988l1.6215 0.57595c0.27191 0.096581 0.57518 0.011535 0.75722-0.21235l0.73474-0.90361c0.18265-0.22463 0.20352-0.54011 0.052063-0.78684l-0.906-1.4759c-0.18043-0.29393-0.11295-0.67632 0.15719-0.89074l0.69057-0.54811c0.27306-0.21673 0.66562-0.19257 0.91004 0.056001l1.2083 1.2288c0.20426 0.20773 0.51794 0.26273 0.78069 0.13688l0.98541-0.47199c0.26096-0.125 0.41461-0.4011 0.38328-0.68875l-0.18937-1.7385c-0.037505-0.34432 0.1891-0.66205 0.52686-0.73873l0.85558-0.19424c0.33929-0.077028 0.68216 0.11377 0.79554 0.4427zm-0.32175 14.711c-1.3866-2.4017-4.0137-3.6406-6.6056-3.3746-0.12539 0.59377-0.19135 1.2095-0.19135 1.8406 0 4.1332 2.8291 7.6057 6.6573 8.5861 1.3073-2.0727 1.45-4.7824 0.1397-7.052zm10.739-3.3747c-2.5913-0.26623-5.2188 0.97272-6.6056 3.3747-1.3103 2.2696-1.1676 4.9794 0.14055 7.0525 3.8274-0.98093 6.6564-4.4534 6.6564-8.5866 0-0.61191-0.06201-1.2093-0.18008-1.7863zm-8.6722 0.47597c-0.75312 0-1.3636 0.61052-1.3636 1.3636 0 0.75312 0.61052 1.3636 1.3636 1.3636 0.75312 0 1.3636-0.61052 1.3636-1.3636 0-0.75312-0.61052-1.3636-1.3636-1.3636zm-1.6e-5 -7.499c-2.4617 0-4.689 1.0035-6.2945 2.6251 1.0282 2.4625 3.4592 4.1931 6.2945 4.1931s5.2664-1.7306 6.2951-4.1944c-1.6061-1.6203-3.8334-2.6238-6.2951-2.6238z" fill="url(#preference-system-e)" filter="url(#preference-system-a)"/>
</g>
</svg>
