<svg width="32" height="32" version="1.1" viewBox="0 0 32 32" xmlns="http://www.w3.org/2000/svg" xmlns:xlink="http://www.w3.org/1999/xlink">
<defs>
<filter id="deepin-picker-a" x="-14.3%" y="-14.3%" width="128.6%" height="128.6%">
<feOffset dy="1" in="SourceAlpha" result="shadowOffsetOuter1"/>
<feGaussianBlur in="shadowOffsetOuter1" result="shadowBlurOuter1" stdDeviation=".5"/>
<feComposite in="shadowBlurOuter1" in2="SourceAlpha" operator="out" result="shadowBlurOuter1"/>
<feColorMatrix in="shadowBlurOuter1" result="shadowMatrixOuter1" values="0 0 0 0 0   0 0 0 0 0   0 0 0 0 0  0 0 0 0.15 0"/>
<feMerge>
<feMergeNode in="shadowMatrixOuter1"/>
<feMergeNode in="SourceGraphic"/>
</feMerge>
</filter>
<linearGradient id="deepin-picker-c" x1="14" x2="14" y1="-1.7764e-15" y2="26.928" gradientUnits="userSpaceOnUse">
<stop stop-color="#2E2E2E" offset="0"/>
<stop stop-color="#121212" offset="1"/>
</linearGradient>
<circle id="deepin-picker-b" cx="14" cy="14" r="14"/>
<linearGradient id="deepin-picker-d" x1="8.0622" x2="4.8418" y1="4.6808" y2="8.4592" gradientUnits="userSpaceOnUse">
<stop stop-color="#7366FF" offset="0"/>
<stop stop-color="#1696FF" offset="1"/>
</linearGradient>
<linearGradient id="deepin-picker-f" x1="13.5" x2="9.1575" y1="4.2799" y2="4.2799" gradientTransform="scale(1.0371 .96427)" gradientUnits="userSpaceOnUse">
<stop stop-color="#8D47FF" offset="0"/>
<stop stop-color="#6671FF" offset="1"/>
</linearGradient>
<linearGradient id="deepin-picker-g" x1="2.8085" x2="4.2799" y1="14.191" y2="9.0603" gradientTransform="scale(.96427 1.0371)" gradientUnits="userSpaceOnUse">
<stop stop-color="#30CED6" offset="0"/>
<stop stop-color="#28BCE3" offset=".31564"/>
<stop stop-color="#1696FF" offset="1"/>
</linearGradient>
<linearGradient id="deepin-picker-h" x1="2.9477" x2="2.2258" y1="20.604" y2="15.14" gradientTransform="scale(1.0198 .98062)" gradientUnits="userSpaceOnUse">
<stop stop-color="#7EE22C" offset="0"/>
<stop stop-color="#30D6B2" offset="1"/>
</linearGradient>
<linearGradient id="deepin-picker-i" x1="8.5512" x2="5.0682" y1="23.839" y2="21.193" gradientTransform="scale(1.0338 .96732)" gradientUnits="userSpaceOnUse">
<stop stop-color="#C1EA55" offset="0"/>
<stop stop-color="#74E126" offset="1"/>
</linearGradient>
<linearGradient id="deepin-picker-j" x1="13.804" x2="9.5445" y1="24.313" y2="24.313" gradientTransform="scale(1.0142 .98602)" gradientUnits="userSpaceOnUse">
<stop stop-color="#FBEF4D" offset="0"/>
<stop stop-color="#B9EA56" offset="1"/>
</linearGradient>
<linearGradient id="deepin-picker-k" x1="19.409" x2="15.654" y1="21.864" y2="23.446" gradientTransform="scale(.96178 1.0397)" gradientUnits="userSpaceOnUse">
<stop stop-color="#FFD600" offset="0"/>
<stop stop-color="#FFED58" offset="1"/>
</linearGradient>
<linearGradient id="deepin-picker-l" x1="22.968" x2="19.979" y1="19.695" y2="23.314" gradientUnits="userSpaceOnUse">
<stop stop-color="#FFC134" offset="0"/>
<stop stop-color="#FBE04D" offset="1"/>
</linearGradient>
<linearGradient id="deepin-picker-m" x1="23.455" x2="24.626" y1="20.187" y2="15.758" gradientTransform="scale(1.0397 .96178)" gradientUnits="userSpaceOnUse">
<stop stop-color="#F5B543" offset="0"/>
<stop stop-color="#EF7640" offset="1"/>
</linearGradient>
<linearGradient id="deepin-picker-n" x1="24.313" x2="23.475" y1="14.454" y2="10.149" gradientTransform="scale(.98602 1.0142)" gradientUnits="userSpaceOnUse">
<stop stop-color="#EF7640" offset="0"/>
<stop stop-color="#FB563F" offset="1"/>
</linearGradient>
<linearGradient id="deepin-picker-o" x1="23.882" x2="20.929" y1="9.0812" y2="5.2828" gradientTransform="scale(.96732 1.0338)" gradientUnits="userSpaceOnUse">
<stop stop-color="#FB563F" offset="0"/>
<stop stop-color="#DA377B" offset="1"/>
</linearGradient>
<linearGradient id="deepin-picker-p" x1="20.001" x2="15.031" y1="4.2674" y2="3.5901" gradientTransform="scale(.98062 1.0198)" gradientUnits="userSpaceOnUse">
<stop stop-color="#DA377B" offset="0"/>
<stop stop-color="#894CEC" offset="1"/>
</linearGradient>
</defs>
<g fill-rule="evenodd">
<use transform="translate(2,2)" width="100%" height="100%" fill="url(#deepin-picker-c)" filter="url(#deepin-picker-a)" xlink:href="#deepin-picker-b"/>
<path transform="translate(2,2)" d="m7.4766 3.3351 2.2515 3.8997c-1.0045 0.63562-1.8577 1.4888-2.4933 2.4933l-3.8997-2.2515c1.0335-1.686 2.4555-3.108 4.1415-4.1415z" fill="url(#deepin-picker-d)" filter="url(#deepin-picker-a)"/>
<path transform="translate(2,2)" d="m8.3495 2.847c1.697-0.86148 3.6171-1.347 5.6505-1.347v4.5c-1.2137 0-2.3643 0.27028-3.3948 0.75394z" fill="url(#deepin-picker-f)" filter="url(#deepin-picker-a)"/>
<path transform="translate(2,2)" d="m2.847 8.3495 3.9069 2.2557c-0.48366 1.0305-0.75394 2.1811-0.75394 3.3948h-4.5c0-2.0334 0.48555-3.9535 1.347-5.6505z" fill="url(#deepin-picker-g)" filter="url(#deepin-picker-a)"/>
<path transform="translate(2,2)" d="m1.5394 15h4.5225c0.14284 1.1455 0.52787 2.2158 1.1022 3.158l-3.8984 2.2508c-0.96015-1.6047-1.5707-3.4427-1.7263-5.4088z" fill="url(#deepin-picker-h)" filter="url(#deepin-picker-a)"/>
<path transform="translate(2,2)" d="m3.8139 21.247 3.9253-2.2663c0.66092 0.82968 1.4833 1.525 2.4196 2.0385l-2.2508 3.8984c-1.6218-0.9069-3.0208-2.1647-4.0941-3.6707z" fill="url(#deepin-picker-i)" filter="url(#deepin-picker-a)"/>
<path transform="translate(2,2)" d="m8.801 25.371 2.2664-3.9255c0.90806 0.35795 1.8974 0.55459 2.9326 0.55459v4.5c-1.8551 0-3.6158-0.40412-5.199-1.1291z" fill="url(#deepin-picker-j)" filter="url(#deepin-picker-a)"/>
<path transform="translate(2,2)" d="m15 26.461v-4.5225c0.97274-0.1213 1.8912-0.41724 2.7231-0.85545l2.2515 3.8997c-1.4989 0.81718-3.1837 1.3364-4.9747 1.4782z" fill="url(#deepin-picker-k)" filter="url(#deepin-picker-a)"/>
<path transform="translate(2,2)" d="m20.833 24.469-2.2556-3.9069c0.77236-0.53976 1.445-1.2124 1.9848-1.9848l3.9069 2.2556c-0.94742 1.4486-2.1874 2.6886-3.636 3.636z" fill="url(#deepin-picker-l)" filter="url(#deepin-picker-a)"/>
<path transform="translate(2,2)" d="m24.982 19.975-3.8997-2.2515c0.43821-0.8319 0.73415-1.7504 0.85545-2.7231h4.5225c-0.14176 1.791-0.66102 3.4757-1.4782 4.9747z" fill="url(#deepin-picker-m)" filter="url(#deepin-picker-a)"/>
<path transform="translate(2,2)" d="m26.5 14h-4.5c0-1.0352-0.19663-2.0245-0.55459-2.9326l3.9255-2.2664c0.725 1.5831 1.1291 3.3438 1.1291 5.199z" fill="url(#deepin-picker-n)" filter="url(#deepin-picker-a)"/>
<path transform="translate(2,2)" d="m24.918 7.908-3.8984 2.2508c-0.51347-0.93629-1.2088-1.7587-2.0385-2.4196l2.2663-3.9253c1.5059 1.0733 2.7637 2.4723 3.6707 4.0941z" fill="url(#deepin-picker-o)" filter="url(#deepin-picker-a)"/>
<path transform="translate(2,2)" d="m20.409 3.2657-2.2508 3.8984c-0.94223-0.57435-2.0125-0.95938-3.158-1.1022v-4.5225c1.966 0.15562 3.804 0.76613 5.4088 1.7263z" fill="url(#deepin-picker-p)" filter="url(#deepin-picker-a)"/>
</g>
</svg>
