<svg width="16" height="16.035" enable-background="new" version="1.1" xmlns="http://www.w3.org/2000/svg">
<title>Pop Symbolic Icon Theme</title>
<path class="ColorScheme-Text" d="m3 1.035c-2 0-2 2-2 2v9c0 2 2 2 2 2h10c2 0 2-2 2-2v-9s0-2-2-2zm3 3h5v5.5c0 0.82843-0.67157 1.5-1.5 1.5-0.82843 0-1.5-0.67157-1.5-1.5s0.67157-1.5 1.5-1.5c0.17259 0 0.34568 0.04015 0.5 0.09375v-2.0938h-3v3.5c0 0.82843-0.67157 1.5-1.5 1.5s-1.5-0.67157-1.5-1.5 0.67157-1.5 1.5-1.5c0.17259 0 0.34568 0.04015 0.5 0.09375v-2.0938z" fill="#444"/>
</svg>
