<svg width="16" height="16" version="1.1" viewBox="0 0 16 16" xmlns="http://www.w3.org/2000/svg">
<defs>
<style id="current-color-scheme" type="text/css">.ColorScheme-Text { color:#536076; } .ColorScheme-Highlight { color:#ffffff; }</style>
</defs>
<path class="ColorScheme-Text" d="m11 1c1.1046 0 2 0.89543 2 2v10c0 1.1046-0.89543 2-2 2h-6c-1.1046 0-2-0.89543-2-2v-10c0-1.1046 0.89543-2 2-2h6zm0 1h-1v0.5c0 0.27614-0.22386 0.5-0.5 0.5h-3c-0.27614 0-0.5-0.22386-0.5-0.5v-0.5h-1c-0.51284 0-0.93551 0.38604-0.99327 0.88338l-0.0067277 0.11662v10c0 0.51284 0.38604 0.93551 0.88338 0.99327l0.11662 0.0067277h6c0.51284 0 0.93551-0.38604 0.99327-0.88338l0.0067277-0.11662v-10c0-0.55228-0.44772-1-1-1z" fill="#808080"/>
</svg>
