<svg width="16" height="16" version="1.1" xmlns="http://www.w3.org/2000/svg">
<defs>
<style id="current-color-scheme" type="text/css">.ColorScheme-Text { color:#444444; } .ColorScheme-Highlight { color:#4285f4; }</style>
</defs>
<path class="ColorScheme-Text" d="m4 0c-1.108 0-2 0.892-2 2v12c0 1.108 0.892 2 2 2h8c1.108 0 2-0.892 2-2v-12c0-1.108-0.892-2-2-2h-8zm0 2h8v8h-8v-8zm4 9.75a1.25 1.25 0 0 1 1.25 1.25 1.25 1.25 0 0 1-1.25 1.25 1.25 1.25 0 0 1-1.25-1.25 1.25 1.25 0 0 1 1.25-1.25z" fill="#808080"/>
</svg>
