<svg width="128" height="128" version="1.1" viewBox="0 0 128 128" xmlns="http://www.w3.org/2000/svg" xmlns:xlink="http://www.w3.org/1999/xlink">
<defs>
<linearGradient id="folder-remote-128px-l" x1="23.229" x2="23.229" y1="2.1889" y2="44.598" gradientTransform="scale(1.1435 .87447)" gradientUnits="userSpaceOnUse">
<stop stop-color="#FFF" offset="0"/>
<stop stop-color="#FFF" stop-opacity=".6" offset="1"/>
</linearGradient>
<path id="folder-remote-128px-k" d="m22.688 32.22c1.5774-1.5954 4.1349-1.6364 5.6884-0.065294 1.528 1.5454 1.4887 4.0536-0.06456 5.6245-1.5774 1.5954-4.1349 1.6364-5.6884 0.065294-1.528-1.5454-1.4887-4.0536 0.06456-5.6245zm2.7212-32.22c9.2878 0 18.079 3.35 25.069 9.3629 0.62803 0.54025 0.69918 1.4873 0.15893 2.1154-0.54025 0.62803-1.4873 0.69918-2.1154 0.15893-6.4524-5.5506-14.552-8.6371-23.113-8.6371-8.4818 0-16.512 3.03-22.938 8.4881-0.63139 0.53632-1.578 0.45925-2.1143-0.17214-0.53632-0.63139-0.45925-1.578 0.17214-2.1143 6.9611-5.9129 15.678-9.2016 24.88-9.2016zm-0.032849 10c7.1492 0 13.922 2.633 19.35 7.3699 0.62415 0.54473 0.68853 1.4923 0.1438 2.1164-0.54473 0.62415-1.4923 0.68853-2.1164 0.1438-4.8903-4.268-10.967-6.6301-17.377-6.6301-6.3067 0-12.291 2.2857-17.143 6.4275-0.63007 0.53787-1.5769 0.46312-2.1147-0.16695-0.53787-0.63007-0.46312-1.5769 0.16695-2.1147 5.3859-4.5977 12.057-7.1458 19.09-7.1458zm0.077704 10c4.5753 0 8.9265 1.5339 12.489 4.3181 0.65277 0.51008 0.76843 1.4528 0.25835 2.1055s-1.4528 0.76843-2.1055 0.25835c-3.0414-2.3766-6.7443-3.6819-10.642-3.6819-3.8613 0-7.5315 1.2808-10.558 3.6162-0.65583 0.50614-1.5978 0.38479-2.1039-0.27104-0.50614-0.65583-0.38479-1.5978 0.27104-2.1039 3.5454-2.7362 7.8583-4.2413 12.391-4.2413z"/>
<filter id="folder-remote-128px-j" x="-25.5%" y="-28.2%" width="151%" height="166.7%">
<feOffset dy="2" in="SourceAlpha" result="shadowOffsetOuter1"/>
<feGaussianBlur in="shadowOffsetOuter1" result="shadowBlurOuter1" stdDeviation="4"/>
<feColorMatrix in="shadowBlurOuter1" values="0 0 0 0 0   0 0 0 0 0.42745098   0 0 0 0 0.968627451  0 0 0 0.5 0"/>
</filter>
<linearGradient id="linearGradient903" x1="51.614" x2="51.614" y1="-3.0562e-14" y2="39.194" gradientTransform="matrix(1.0753 0 0 .92998 9 22)" gradientUnits="userSpaceOnUse">
<stop stop-color="#9c3" offset="0"/>
<stop stop-color="#28851e" offset="1"/>
</linearGradient>
<filter id="folder-128px-a" x="-.144" y="-.167" width="1.288" height="1.333">
<feOffset dy="2" in="SourceAlpha" result="shadowOffsetOuter1"/>
<feGaussianBlur in="shadowOffsetOuter1" result="shadowBlurOuter1" stdDeviation="3"/>
<feComposite in="shadowBlurOuter1" in2="SourceAlpha" operator="out" result="shadowBlurOuter1"/>
<feColorMatrix in="shadowBlurOuter1" result="shadowMatrixOuter1" values="0 0 0 0 0   0 0 0 0 0   0 0 0 0 0  0 0 0 0.2 0"/>
<feMerge>
<feMergeNode in="shadowMatrixOuter1"/>
<feMergeNode in="SourceGraphic"/>
</feMerge>
</filter>
<filter id="filter1016" x="-.03398" y="-.081714" width="1.068" height="1.1634" color-interpolation-filters="sRGB">
<feGaussianBlur stdDeviation="1.43"/>
</filter>
<linearGradient id="linearGradient964" x1="-70" x2="-70" y1="96.088" y2="103" gradientUnits="userSpaceOnUse">
<stop stop-color="#fff" offset="0"/>
<stop stop-color="#cef5ff" offset="1"/>
</linearGradient>
<radialGradient id="radialGradient907" cx="45.008" cy="0" r="105.85" gradientTransform="matrix(1.2331 0 0 .81096 9 45)" gradientUnits="userSpaceOnUse">
<stop stop-color="#ccff42" offset="0"/>
<stop stop-color="#50a100" offset="1"/>
</radialGradient>
</defs>
<g fill-rule="evenodd">
<path d="m71 28c1.5139 3.6333 5.0639 6 9 6h26c7.732 0 14 6.268 14 14v56c0 7.732-6.268 14-14 14h-83c-7.732 0-14-6.268-14-14v-68c0-7.732 6.268-14 14-14h39c3.9361 0 7.4861 2.3667 9 6z" fill="url(#linearGradient903)" filter="url(#folder-128px-a)"/>
<g transform="translate(138,-58)">
<rect x="-124" y="96" width="101" height="42" rx="9" ry="9" fill-opacity=".2" filter="url(#filter1016)" style="paint-order:stroke fill markers"/>
<rect x="-124" y="96" width="101" height="42" rx="9" ry="9" fill="url(#linearGradient964)" style="paint-order:stroke fill markers"/>
<path d="m-115 96c-4.986 0-9 4.014-9 9v1c0-4.986 4.014-9 9-9h83c4.986 0 9 4.014 9 9v-1c0-4.986-4.014-9-9-9z" opacity=".615" style="paint-order:stroke fill markers"/>
</g>
<path d="m9 45h111v59c0 7.732-6.268 14-14 14h-83c-7.732 0-14-6.268-14-14z" fill="url(#radialGradient907)" filter="url(#folder-128px-a)"/>
</g>
<g transform="translate(38,60)" fill-rule="evenodd">
<use width="100%" height="100%" fill="#000000" filter="url(#folder-remote-128px-j)" xlink:href="#folder-remote-128px-k"/>
<use width="100%" height="100%" fill="url(#folder-remote-128px-l)" xlink:href="#folder-remote-128px-k"/>
</g>
</svg>
