<svg width="128" height="128" version="1.1" viewBox="0 0 128 128" xmlns="http://www.w3.org/2000/svg" xmlns:xlink="http://www.w3.org/1999/xlink">
<defs>
<filter id="folder-home-128px-a" x="-14.4%" y="-16.7%" width="128.8%" height="133.3%">
<feOffset dy="2" in="SourceAlpha" result="shadowOffsetOuter1"/>
<feGaussianBlur in="shadowOffsetOuter1" result="shadowBlurOuter1" stdDeviation="3"/>
<feComposite in="shadowBlurOuter1" in2="SourceAlpha" operator="out" result="shadowBlurOuter1"/>
<feColorMatrix in="shadowBlurOuter1" result="shadowMatrixOuter1" values="0 0 0 0 0   0 0 0 0 0   0 0 0 0 0  0 0 0 0.2 0"/>
<feMerge>
<feMergeNode in="shadowMatrixOuter1"/>
<feMergeNode in="SourceGraphic"/>
</feMerge>
</filter>
<linearGradient id="folder-home-128px-c" x1="51.614" x2="51.614" y1="-3.0562e-14" y2="39.194" gradientTransform="scale(1.0753 .92998)" gradientUnits="userSpaceOnUse">
<stop stop-color="#00B8FF" offset="0"/>
<stop stop-color="#2E5DFF" offset="1"/>
</linearGradient>
<path id="folder-home-128px-b" d="m62 6c1.5139 3.6333 5.0639 6 9 6h26c7.732 0 14 6.268 14 14v56c0 7.732-6.268 14-14 14h-83c-7.732 0-14-6.268-14-14v-68c-9.469e-16 -7.732 6.268-14 14-14h39c3.9361-7.2305e-16 7.4861 2.3667 9 6z"/>
<radialGradient id="radialGradient903" cx="45.008" cy="0" r="105.85" gradientTransform="matrix(1.2331 0 0 .81096 8.5 45)" gradientUnits="userSpaceOnUse">
<stop stop-color="#48D5FF" offset="0"/>
<stop stop-color="#0083F6" offset="1"/>
</radialGradient>
<linearGradient id="linearGradient954" x1="32" x2="32" y1="30" y2="51" gradientTransform="matrix(1.875,0,0,1.875,4.0019,5.1617)" gradientUnits="userSpaceOnUse">
<stop stop-color="#FFF" offset="0"/>
<stop stop-color="#FFF" stop-opacity=".6" offset="1"/>
</linearGradient>
<filter id="filter964" x="-.119" y="-.089251" width="1.238" height="1.1785" color-interpolation-filters="sRGB">
<feGaussianBlur stdDeviation="1.4874813"/>
</filter>
<filter id="filter1016" x="-.03398" y="-.081714" width="1.068" height="1.1634" color-interpolation-filters="sRGB">
<feGaussianBlur stdDeviation="1.43"/>
</filter>
<linearGradient id="linearGradient964" x1="-70" x2="-70" y1="96.088" y2="103" gradientUnits="userSpaceOnUse">
<stop stop-color="#fff" offset="0"/>
<stop stop-color="#cef5ff" offset="1"/>
</linearGradient>
</defs>
<use transform="translate(9,22)" width="100%" height="100%" fill="url(#folder-home-128px-c)" fill-rule="evenodd" filter="url(#folder-home-128px-a)" xlink:href="#folder-home-128px-b"/>
<g transform="translate(138,-58)" fill-rule="evenodd">
<rect x="-124" y="96" width="101" height="42" rx="9" ry="9" fill-opacity=".2" filter="url(#filter1016)" style="paint-order:stroke fill markers"/>
<rect x="-124" y="96" width="101" height="42" rx="9" ry="9" fill="url(#linearGradient964)" style="paint-order:stroke fill markers"/>
<path d="m-115 96c-4.986 0-9 4.014-9 9v1c0-4.986 4.014-9 9-9h83c4.986 0 9 4.014 9 9v-1c0-4.986-4.014-9-9-9z" opacity=".615" style="paint-order:stroke fill markers"/>
</g>
<path d="m8.5 45h111v59c0 7.732-6.268 14-14 14h-83c-7.732 0-14-6.268-14-14z" fill="url(#radialGradient903)" fill-rule="evenodd" filter="url(#folder-home-128px-a)"/>
<path d="m46 94h36v1.5c0 0.82843-0.6712 1.5-1.501 1.5h-32.998c-0.829 0-1.501-0.6658-1.501-1.5z" fill="#32a2fb" fill-opacity=".5" fill-rule="evenodd"/>
<path d="m64 62.001c5.5229 0 9.9997 4.477 9.9997 9.9997v4.9999c2.7612 0 4.9999 2.2385 4.9999 4.9999v15c0 2.7612-2.2385 4.9999-4.9999 4.9999h-20c-2.7612 0-4.9999-2.2385-4.9999-4.9999v-15c0-2.7612 2.2385-4.9999 4.9999-4.9999v-4.9999c0-5.5229 4.477-9.9997 9.9997-9.9997zm0 4.9999c-2.7612 0-4.9999 2.2385-4.9999 4.9999v4.9999h9.9997v-4.9999c0-2.7612-2.2385-4.9999-4.9999-4.9999z" fill-opacity=".50196" fill-rule="evenodd" filter="url(#filter964)"/>
<path d="m64 62.001c5.5229 0 9.9997 4.477 9.9997 9.9997v4.9999c2.7612 0 4.9999 2.2385 4.9999 4.9999v15c0 2.7612-2.2385 4.9999-4.9999 4.9999h-20c-2.7612 0-4.9999-2.2385-4.9999-4.9999v-15c0-2.7612 2.2385-4.9999 4.9999-4.9999v-4.9999c0-5.5229 4.477-9.9997 9.9997-9.9997zm0 4.9999c-2.7612 0-4.9999 2.2385-4.9999 4.9999v4.9999h9.9997v-4.9999c0-2.7612-2.2385-4.9999-4.9999-4.9999z" fill="url(#linearGradient954)" fill-rule="evenodd"/>
</svg>
