<svg width="128" height="128" version="1.1" viewBox="0 0 128 128" xmlns="http://www.w3.org/2000/svg" xmlns:xlink="http://www.w3.org/1999/xlink">
<defs>
<filter id="folder-applications-stack-128px-a" x="-14.4%" y="-16.7%" width="128.8%" height="133.3%">
<feOffset dy="2" in="SourceAlpha" result="shadowOffsetOuter1"/>
<feGaussianBlur in="shadowOffsetOuter1" result="shadowBlurOuter1" stdDeviation="3"/>
<feComposite in="shadowBlurOuter1" in2="SourceAlpha" operator="out" result="shadowBlurOuter1"/>
<feColorMatrix in="shadowBlurOuter1" result="shadowMatrixOuter1" values="0 0 0 0 0   0 0 0 0 0   0 0 0 0 0  0 0 0 0.2 0"/>
<feMerge>
<feMergeNode in="shadowMatrixOuter1"/>
<feMergeNode in="SourceGraphic"/>
</feMerge>
</filter>
<path id="folder-applications-stack-128px-f" d="m0 0h111v59c0 7.732-6.268 14-14 14h-83c-7.732 0-14-6.268-14-14v-59z"/>
<linearGradient id="folder-applications-stack-128px-i" x1="66.942%" x2="46.177%" y1="57.383%" y2="40.193%">
<stop stop-color="#5700FC" offset="0"/>
<stop stop-color="#5867FF" stop-opacity="0" offset="1"/>
</linearGradient>
<linearGradient id="folder-applications-stack-128px-k" x1="60.702%" x2="44.657%" y1="25.945%" y2="86.932%">
<stop stop-color="#5C3FFF" offset="0"/>
<stop stop-color="#816AFF" stop-opacity=".054" offset="1"/>
</linearGradient>
<linearGradient id="folder-applications-stack-128px-l" x1="50%" x2="50%" y1="-22.147%" y2="100%">
<stop stop-color="#B6A2FF" offset="0"/>
<stop stop-color="#6249F0" offset="1"/>
</linearGradient>
<filter id="filter1016" x="-.03398" y="-.081714" width="1.068" height="1.1634" color-interpolation-filters="sRGB">
<feGaussianBlur stdDeviation="1.43"/>
</filter>
<linearGradient id="linearGradient964" x1="-70" x2="-70" y1="96.088" y2="103" gradientUnits="userSpaceOnUse">
<stop stop-color="#fff" offset="0"/>
<stop stop-color="#cef5ff" offset="1"/>
</linearGradient>
<radialGradient id="radialGradient1181" cx="45.008" cy="0" r="87.462" gradientTransform="scale(1.2331 .81096)" gradientUnits="userSpaceOnUse">
<stop stop-color="#7859FF" offset="0"/>
<stop stop-color="#5A2DFF" offset="1"/>
</radialGradient>
<linearGradient id="linearGradient1183" x1="31.554" x2="21.766" y1="117.39" y2="109.28" gradientTransform="scale(1.6132 .6199)" gradientUnits="userSpaceOnUse" xlink:href="#folder-applications-stack-128px-i"/>
<linearGradient id="linearGradient1185" x1="46.432" x2="36.644" y1="117.39" y2="109.28" gradientTransform="scale(1.6132 .6199)" gradientUnits="userSpaceOnUse" xlink:href="#folder-applications-stack-128px-i"/>
<linearGradient id="linearGradient1187" x1="32.136" x2="16.29" y1="40.44" y2="18.837" gradientTransform="scale(.87447 1.1435)" gradientUnits="userSpaceOnUse">
<stop stop-color="#D1C0FF" offset="0"/>
<stop stop-color="#8375FF" offset="1"/>
</linearGradient>
<linearGradient id="linearGradient1189" x1="24.161" x2="19.832" y1="16.637" y2="33.092" gradientTransform="scale(.96362 1.0377)" gradientUnits="userSpaceOnUse" xlink:href="#folder-applications-stack-128px-k"/>
<linearGradient id="linearGradient1191" x1="13.777" x2="13.777" y1="6.2959" y2="39.291" gradientTransform="scale(1.2278 .81444)" gradientUnits="userSpaceOnUse" xlink:href="#folder-applications-stack-128px-l"/>
<linearGradient id="linearGradient1193" x1="20.778" x2="20.778" y2="126.69" gradientTransform="scale(1.6127 .62006)" gradientUnits="userSpaceOnUse">
<stop stop-color="#FFF" stop-opacity=".8" offset="0"/>
<stop stop-color="#882AFF" stop-opacity=".117" offset="1"/>
</linearGradient>
<linearGradient id="linearGradient1195" x1="40.777" x2="40.777" y1="-5.0521" y2="22.812" gradientTransform="scale(1.1406 .87674)" gradientUnits="userSpaceOnUse">
<stop stop-color="#CAA2FF" stop-opacity=".3" offset="0"/>
<stop stop-color="#6249F0" offset="1"/>
</linearGradient>
<linearGradient id="linearGradient1197" x1="20.778" x2="20.778" y1="-2.6747e-10" y2="32.255" gradientTransform="scale(1.6128 .62006)" gradientUnits="userSpaceOnUse">
<stop stop-color="#FFF" stop-opacity=".1" offset="0"/>
<stop stop-color="#C6B9FF" offset="1"/>
</linearGradient>
<linearGradient id="linearGradient1199" x1="43.817" x2="61.868" y1="34.016" y2="29.531" gradientTransform="scale(.87447 1.1435)" gradientUnits="userSpaceOnUse">
<stop stop-color="#B9B7FF" offset="0"/>
<stop stop-color="#8174FF" offset="1"/>
</linearGradient>
<linearGradient id="linearGradient1201" x1="51.143" x2="46.814" y1="16.637" y2="33.092" gradientTransform="scale(.96362 1.0377)" gradientUnits="userSpaceOnUse" xlink:href="#folder-applications-stack-128px-k"/>
<linearGradient id="linearGradient1203" x1="40.79" x2="40.79" y1="6.2959" y2="39.291" gradientTransform="scale(1.2278 .81444)" gradientUnits="userSpaceOnUse" xlink:href="#folder-applications-stack-128px-l"/>
</defs>
<path d="m71 28.5c1.5225 3.3495 4.8622 5.5 8.5415 5.5h26.458c7.732 0 14 6.268 14 14v57c0 7.732-6.268 14-14 14h-83c-7.732 0-14-6.268-14-14v-68c0-7.732 6.268-14 14-14h39.458c3.6793 0 7.019 2.1505 8.5415 5.5z" fill="#4a00d5" fill-rule="evenodd" filter="url(#folder-applications-stack-128px-a)"/>
<g transform="translate(138,-57)" fill-rule="evenodd">
<rect x="-124" y="96" width="101" height="42" rx="9" ry="9" fill-opacity=".2" filter="url(#filter1016)" style="paint-order:stroke fill markers"/>
<rect x="-124" y="96" width="101" height="42" rx="9" ry="9" fill="url(#linearGradient964)" style="paint-order:stroke fill markers"/>
<path d="m-115 96c-4.986 0-9 4.014-9 9v1c0-4.986 4.014-9 9-9h83c4.986 0 9 4.014 9 9v-1c0-4.986-4.014-9-9-9z" opacity=".615" style="paint-order:stroke fill markers"/>
</g>
<g transform="translate(9,46)" fill="none" fill-rule="evenodd" filter="url(#folder-applications-stack-128px-a)">
<mask fill="#fff">
<use width="100%" height="100%" xlink:href="#folder-applications-stack-128px-f"/>
</mask>
<use width="100%" height="100%" fill="url(#radialGradient1181)" xlink:href="#folder-applications-stack-128px-f"/>
<g mask="url(#folder-applications-stack-128px-h)">
<g transform="translate(5,-9)">
<polygon points="0 66 50.019 85.22 76.039 75.22 26.019 56" fill="url(#linearGradient1183)"/>
<polygon transform="matrix(-1 0 0 1 124.04 0)" points="24 66 74.019 85.22 100.04 75.22 50.019 56" fill="url(#linearGradient1185)"/>
<g transform="translate(16.5,26)">
<path d="m33.5 20v34l-26-10v-19.244l18.833 7.2436z" fill="url(#linearGradient1187)"/>
<polygon points="7.5 10 33.5 20 27.5 38 7.5 30.309" fill="url(#linearGradient1189)" opacity=".5"/>
<polygon points="7.5 10 33.5 20 26.333 32 0.333 22" fill="url(#linearGradient1191)"/>
<polygon points="7.5 10 33.5 20 59.519 10 33.519 0" fill="url(#linearGradient1193)"/>
<polygon points="59.519 10 33.519 0 33.5 20" fill="url(#linearGradient1195)"/>
<path d="m8.8933 10 24.607 9.4641 24.626-9.4645-24.607-9.4641z" stroke="url(#linearGradient1197)"/>
<path d="m59.5 24.756v19.244l-26 10v-34l7.1666 12z" fill="url(#linearGradient1199)"/>
<polygon transform="matrix(-1,0,0,1,93,0)" points="33.5 10 59.5 20 53.5 38 33.5 30.309" fill="url(#linearGradient1201)" opacity=".5"/>
<polygon transform="matrix(-1 0 0 1 100.17 0)" points="40.667 10 66.667 20 59.5 32 33.5 22" fill="url(#linearGradient1203)"/>
</g>
<g transform="translate(4)">
<circle cx="58" cy="26" r="2" fill="#ffd506"/>
<circle cx="31" cy="23" r="1" fill="#ff00fe"/>
<circle cx="4" cy="20" r="2" fill="#4000e0"/>
<rect transform="rotate(23,42.622,12.622)" x="40.622" y="10.622" width="4" height="4" fill="#4000e0"/>
<rect transform="rotate(23,82.678,33.311)" x="81.678" y="32.311" width="2" height="2" fill="#eb5959"/>
<rect transform="rotate(45,49.414,37.414)" x="48.414" y="36.414" width="2" height="2" fill="#4000e0"/>
<rect transform="rotate(45,45.414,39.414)" x="44.414" y="38.414" width="2" height="2" fill="#ff00fe" opacity=".2"/>
<rect transform="rotate(45,41.414,41.414)" x="40.414" y="40.414" width="2" height="2" fill="#8a0991"/>
<rect transform="rotate(45,47.414,43.414)" x="46.414" y="42.414" width="2" height="2" fill="#ffd506"/>
<circle cx="49" cy="31" r="1" fill="#fff"/>
<circle cx="53" cy="39" r="1" fill="#6d39ff"/>
<circle cx="41" cy="39" r="1" fill="#fff"/>
<rect transform="rotate(45,49.414,21.414)" x="48.414" y="20.414" width="2" height="2" fill="#8a0991"/>
<rect transform="rotate(72,43.57,34.211)" x="41.569" y="33.211" width="4" height="2" fill="#fff" opacity=".6"/>
<rect transform="rotate(45,55.414,19.414)" x="54.414" y="18.414" width="2" height="2" fill="#6d39ff"/>
<rect transform="rotate(45,23.414,23.414)" x="22.414" y="22.414" width="2" height="2" fill="#4000e0"/>
<rect transform="rotate(45,37.414,25.414)" x="36.414" y="24.414" width="2" height="2" fill="#9757ff"/>
<rect transform="rotate(45,23.414,19.414)" x="22.414" y="18.414" width="2" height="2" fill="#ffd506"/>
<rect transform="rotate(45,67.414,26)" x="65.414" y="24" width="4" height="4" fill="#7dac00" opacity=".9"/>
<rect transform="rotate(45,65.414,21.414)" x="64.414" y="20.414" width="2" height="2" fill="#8a0991"/>
<rect transform="rotate(45,62.364,36.121)" x="61.364" y="34.121" width="2" height="4" fill="#00c894"/>
<rect transform="rotate(45,32,38.586)" x="31" y="37.586" width="2" height="2" fill="#6d39ff"/>
<rect transform="rotate(45,40,36.586)" x="39" y="35.586" width="2" height="2" fill="#ff00fe" opacity=".3"/>
<rect transform="rotate(76,58,38.586)" x="57" y="37.586" width="2" height="2" fill="#fff" opacity=".3"/>
<rect transform="rotate(45,54.828,34.828)" x="52.828" y="32.828" width="4" height="4" fill="#9757ff"/>
<rect transform="rotate(45,62.243,12.243)" x="59.243" y="9.243" width="6" height="6" fill="#00c894"/>
<rect transform="rotate(24,82.601,6.601)" x="77.601" y="1.601" width="10" height="10" fill="#396eff"/>
<rect transform="rotate(-51,10.855,8.439)" x="4.855" y="2.439" width="12" height="12" fill="#88a1ff"/>
<rect transform="rotate(45,4.243,28.243)" x="1.243" y="25.243" width="6" height="6" fill="#ff8100" fill-opacity=".8"/>
<rect transform="rotate(23,22.678,43.311)" x="21.678" y="42.311" width="2" height="2" fill="#7dac00" opacity=".5"/>
<rect transform="rotate(45,23.536,34.121)" x="21.536" y="33.121" width="4" height="2" fill="#ff00fe"/>
<polygon points="16.951 28.309 17.176 29.618 16 29 14.824 29.618 15.049 28.309 14.098 27.382 15.412 27.191 16 26 16.588 27.191 17.902 27.382" fill="#fe002e"/>
<polygon transform="rotate(-37,58.8,30.8)" points="59.752 31.11 59.976 32.419 58.801 31.801 57.625 32.419 57.85 31.11 56.899 30.183 58.213 29.992 58.801 28.801 59.389 29.992 60.703 30.183" fill="#fe002e"/>
<polygon transform="rotate(-37,36.8,10.8)" points="37.752 11.11 37.976 12.419 36.801 11.801 35.625 12.419 35.85 11.11 34.899 10.183 36.213 9.992 36.801 8.801 37.389 9.992 38.703 10.183" fill="#fe002e"/>
<polygon transform="rotate(-37,40.8,28.8)" points="41.752 29.11 41.976 30.419 40.801 29.801 39.625 30.419 39.85 29.11 38.899 28.183 40.213 27.992 40.801 26.801 41.389 27.992 42.703 28.183" fill="#fe9d0b"/>
<polygon transform="rotate(-37,56.201,6.998)" points="57.628 7.461 57.965 9.425 56.201 8.498 54.438 9.425 54.775 7.461 53.348 6.071 55.32 5.784 56.201 3.998 57.083 5.784 59.055 6.071" fill="#fe9d0b"/>
<polygon transform="rotate(-37,44.201,42.998)" points="44.677 43.152 44.789 43.807 44.201 43.498 43.614 43.807 43.726 43.152 43.25 42.689 43.907 42.593 44.201 41.998 44.495 42.593 45.152 42.689" fill="#fe9d0b"/>
<polygon transform="rotate(-13,51.2,41.2)" points="51.675 41.354 51.787 42.008 51.199 41.699 50.612 42.008 50.724 41.354 50.248 40.89 50.905 40.795 51.199 40.199 51.493 40.795 52.15 40.89" fill="#fe9d0b"/>
<polygon transform="rotate(45,77.536,21.536)" points="75.536 18.536 79.536 18.536 79.536 24.536 75.536 24.536" fill="#88a1ff" opacity=".8"/>
<polygon transform="rotate(-18,25.78,11.162)" points="22.78 8.162 28.78 8.162 28.78 14.162 22.78 14.162" fill="#00c894"/>
<polygon transform="rotate(7,32.52,28.52)" points="30.52 26.52 34.52 26.52 34.52 30.52 30.52 30.52" fill="#eb5959"/>
</g>
</g>
</g>
</g>
</svg>
