<svg width="128" height="128" version="1.1" viewBox="0 0 128 128" xmlns="http://www.w3.org/2000/svg" xmlns:xlink="http://www.w3.org/1999/xlink">
<defs>
<filter id="network-workgroup-128px-a" x="-14.4%" y="-16.7%" width="128.8%" height="133.3%">
<feOffset dy="2" in="SourceAlpha" result="shadowOffsetOuter1"/>
<feGaussianBlur in="shadowOffsetOuter1" result="shadowBlurOuter1" stdDeviation="3"/>
<feComposite in="shadowBlurOuter1" in2="SourceAlpha" operator="out" result="shadowBlurOuter1"/>
<feColorMatrix in="shadowBlurOuter1" result="shadowMatrixOuter1" values="0 0 0 0 0   0 0 0 0 0   0 0 0 0 0  0 0 0 0.2 0"/>
<feMerge>
<feMergeNode in="shadowMatrixOuter1"/>
<feMergeNode in="SourceGraphic"/>
</feMerge>
</filter>
<linearGradient id="network-workgroup-128px-c" x1="51.614" x2="51.614" y1="-3.0562e-14" y2="39.194" gradientTransform="scale(1.0753 .92998)" gradientUnits="userSpaceOnUse">
<stop stop-color="#00B8FF" offset="0"/>
<stop stop-color="#2E5DFF" offset="1"/>
</linearGradient>
<path id="network-workgroup-128px-b" d="m62 6c1.5139 3.6333 5.0639 6 9 6h26c7.732 0 14 6.268 14 14v56c0 7.732-6.268 14-14 14h-83c-7.732 0-14-6.268-14-14v-68c-9.469e-16 -7.732 6.268-14 14-14h39c3.9361-7.2305e-16 7.4861 2.3667 9 6z"/>
<linearGradient id="network-workgroup-128px-l" x1="23.659" x2="23.659" y1="2.2364" y2="45.431" gradientTransform="scale(1.0567 .94634)" gradientUnits="userSpaceOnUse">
<stop stop-color="#FFF" offset="0"/>
<stop stop-color="#FFF" stop-opacity=".6" offset="1"/>
</linearGradient>
<path id="network-workgroup-128px-k" d="m18.513 30.772c-1.9355-0.1649-3.7817-0.41682-5.5066-0.74811-1.4571 5.027-1.4137 8.8196 0.24114 9.7597 1.6628 0.94458 5.0102-0.89261 8.6939-4.6145-1.1592-1.3323-2.3095-2.8058-3.4284-4.3971zm3.8998 0.20965c0.52831 0.68155 1.0586 1.3316 1.5872 1.9478 0.52857-0.61613 1.0589-1.2662 1.5872-1.9478-0.52472 0.012327-1.054 0.018556-1.5872 0.018556s-1.0625-0.006229-1.5872-0.018556zm-12.352-17.331c-1.765-6.2826-1.393-11.283 1.7045-13.043 3.0679-1.7428 7.6165 0.41353 12.234 5.0146 4.6179-4.6011 9.1665-6.7574 12.234-5.0146 3.0974 1.7596 3.4695 6.76 1.7045 13.043 6.0854 1.6406 10.061 4.4059 10.061 7.8492s-3.9758 6.2087-10.061 7.8492c1.765 6.2826 1.393 11.283-1.7045 13.043-3.0679 1.7428-7.6165-0.41353-12.234-5.0146-4.6179 4.6011-9.1665 6.7574-12.234 5.0146-3.0974-1.7596-3.4695-6.76-1.7045-13.043-6.0854-1.6406-10.061-4.4059-10.061-7.8492s3.9758-6.2087 10.061-7.8492zm2.9452-0.67444c1.725-0.33128 3.5712-0.58321 5.5066-0.74811 1.1189-1.5913 2.2692-3.0647 3.4284-4.3971-3.6837-3.7219-7.0312-5.559-8.6939-4.6145-1.6548 0.94007-1.6982 4.7326-0.24114 9.7597zm21.987 17.047c-1.725 0.33128-3.5712 0.58321-5.5066 0.74811-1.1189 1.5913-2.2692 3.0647-3.4284 4.3971 3.6837 3.7219 7.0312 5.559 8.6939 4.6145 1.6548-0.94007 1.6982-4.7326 0.24114-9.7597zm-9.4065-18.005c-0.52831-0.68155-1.0586-1.3316-1.5872-1.9478-0.52857 0.61613-1.0589 1.2662-1.5872 1.9478 0.52472-0.012327 1.054-0.018556 1.5872-0.018556s1.0625 0.006229 1.5872 0.018556zm3.8998 0.20965c1.9355 0.1649 3.7817 0.41682 5.5066 0.74811 1.4571-5.027 1.4137-8.8196-0.24114-9.7597-1.6628-0.94459-5.0102 0.89261-8.6939 4.6145 1.1592 1.3323 2.3095 2.8058 3.4284 4.3971zm-13.122 15.278c-0.24824-0.40329-0.49399-0.81214-0.73697-1.2262-0.26814-0.45697-0.52897-0.91364-0.78233-1.3695-0.32 0.75331-0.61393 1.4938-0.88153 2.2176 0.77205 0.14137 1.5736 0.26803 2.4008 0.37809zm3.809 0.37234c1.24 0.07925 2.5187 0.12136 3.8259 0.12136s2.5859-0.042108 3.8259-0.12136c0.6679-0.9938 1.3234-2.0346 1.9585-3.1168 0.64201-1.0941 1.2361-2.1847 1.7816-3.2618-0.54548-1.0771-1.1396-2.1677-1.7816-3.2618-0.63504-1.0823-1.2906-2.123-1.9585-3.1168-1.24-0.07925-2.5187-0.12136-3.8259-0.12136s-2.5859 0.042108-3.8259 0.12136c-0.6679 0.9938-1.3234 2.0346-1.9585 3.1168-0.64201 1.0941-1.2361 2.1847-1.7816 3.2618 0.54548 1.0771 1.1396 2.1677 1.7816 3.2618 0.63504 1.0823 1.2906 2.123 1.9585 3.1168zm12.98-9.7892c0.32-0.75331 0.61393-1.4938 0.88153-2.2176-0.77205-0.14137-1.5736-0.26803-2.4008-0.37809 0.24824 0.40329 0.49399 0.81214 0.73697 1.2262 0.26814 0.45697 0.52897 0.91364 0.78233 1.3695zm-22.168-1.5635c-4.8692 1.2656-7.9862 3.1471-7.9862 4.9741s3.117 3.7085 7.9862 4.9741c0.57992-1.6088 1.2809-3.2762 2.0945-4.9741-0.81359-1.6978-1.5146-3.3652-2.0945-4.9741zm2.9781-0.65414c0.2676 0.72384 0.56154 1.4643 0.88153 2.2176 0.25336-0.45584 0.51419-0.91251 0.78233-1.3695 0.24298-0.4141 0.48874-0.82294 0.73697-1.2262-0.82724 0.11007-1.6288 0.23672-2.4008 0.37809zm23.05 10.602c4.8692-1.2656 7.9862-3.1471 7.9862-4.9741s-3.117-3.7085-7.9862-4.9741c-0.57992 1.6088-1.2809 3.2762-2.0945 4.9741 0.81359 1.6978 1.5146 3.3652 2.0945 4.9741zm-2.9781 0.65414c-0.2676-0.72384-0.56154-1.4643-0.88153-2.2176-0.25336 0.45584-0.51419 0.91251-0.78233 1.3695-0.24298 0.4141-0.48874 0.82294-0.73697 1.2262 0.82724-0.11007 1.6288-0.23672 2.4008-0.37809z"/>
<filter id="network-workgroup-128px-j" x="-27.1%" y="-25.6%" width="154.2%" height="160.5%">
<feOffset dy="2" in="SourceAlpha" result="shadowOffsetOuter1"/>
<feGaussianBlur in="shadowOffsetOuter1" result="shadowBlurOuter1" stdDeviation="4"/>
<feColorMatrix in="shadowBlurOuter1" values="0 0 0 0 0   0 0 0 0 0.42745098   0 0 0 0 0.968627451  0 0 0 0.5 0"/>
</filter>
<radialGradient id="radialGradient904" cx="45.008" cy="0" r="105.85" gradientTransform="matrix(1.2331 0 0 .81096 9 45)" gradientUnits="userSpaceOnUse">
<stop stop-color="#48D5FF" offset="0"/>
<stop stop-color="#0083F6" offset="1"/>
</radialGradient>
<filter id="filter1016" x="-.03398" y="-.081714" width="1.068" height="1.1634" color-interpolation-filters="sRGB">
<feGaussianBlur stdDeviation="1.43"/>
</filter>
<linearGradient id="linearGradient964" x1="-70" x2="-70" y1="96.088" y2="103" gradientUnits="userSpaceOnUse">
<stop stop-color="#fff" offset="0"/>
<stop stop-color="#cef5ff" offset="1"/>
</linearGradient>
</defs>
<use transform="translate(9,22)" width="100%" height="100%" fill="url(#network-workgroup-128px-c)" fill-rule="evenodd" filter="url(#network-workgroup-128px-a)" xlink:href="#network-workgroup-128px-b"/>
<g transform="translate(138,-58)" fill-rule="evenodd">
<rect x="-124" y="96" width="101" height="42" rx="9" ry="9" fill-opacity=".2" filter="url(#filter1016)" style="paint-order:stroke fill markers"/>
<rect x="-124" y="96" width="101" height="42" rx="9" ry="9" fill="url(#linearGradient964)" style="paint-order:stroke fill markers"/>
<path d="m-115 96c-4.986 0-9 4.014-9 9v1c0-4.986 4.014-9 9-9h83c4.986 0 9 4.014 9 9v-1c0-4.986-4.014-9-9-9z" opacity=".615" style="paint-order:stroke fill markers"/>
</g>
<path d="m9 45h111v59c0 7.732-6.268 14-14 14h-83c-7.732 0-14-6.268-14-14z" fill="url(#radialGradient904)" fill-rule="evenodd" filter="url(#network-workgroup-128px-a)"/>
<use transform="translate(40,58)" width="100%" height="100%" fill="#000000" fill-rule="evenodd" filter="url(#network-workgroup-128px-j)" xlink:href="#network-workgroup-128px-k"/>
<use transform="translate(40,58)" width="100%" height="100%" fill="url(#network-workgroup-128px-l)" fill-rule="evenodd" xlink:href="#network-workgroup-128px-k"/>
</svg>
