<svg width="128" height="128" version="1.1" viewBox="0 0 128 128" xmlns="http://www.w3.org/2000/svg" xmlns:xlink="http://www.w3.org/1999/xlink">
 <defs>
  <linearGradient id="folder-home-128px-l" x1="23.495" x2="23.495" y1="1.8146e-15" y2="46.989" gradientTransform="scale(1.0215 .97895)" gradientUnits="userSpaceOnUse">
   <stop stop-color="#FFF" offset="0"/>
   <stop stop-color="#FFF" stop-opacity=".6" offset="1"/>
  </linearGradient>
  <path id="folder-home-128px-k" d="m6 27.656v18.344h36v-18.344l-18-16.75-18 16.75zm22 14.344h-8v-12h8v12zm20-19.704-2.722 2.93-21.278-19.766-21.278 19.736-2.722-2.93 24-22.266 24 22.296z"/>
  <filter id="folder-home-128px-j" x="-13.5%" y="-12%" width="127.1%" height="128.3%">
   <feOffset dy="1" in="SourceAlpha" result="shadowOffsetOuter1"/>
   <feGaussianBlur in="shadowOffsetOuter1" result="shadowBlurOuter1" stdDeviation="2"/>
   <feColorMatrix in="shadowBlurOuter1" values="0 0 0 0 0   0 0 0 0 0.42905776   0 0 0 0 0.968670281  0 0 0 0.5 0"/>
  </filter>
  <linearGradient id="linearGradient903" x1="51.614" x2="51.614" y1="-3.0562e-14" y2="39.194" gradientTransform="matrix(1.0753 0 0 .92998 9 22)" gradientUnits="userSpaceOnUse">
   <stop stop-color="#9c3" offset="0"/>
   <stop stop-color="#28851e" offset="1"/>
  </linearGradient>
  <filter id="folder-128px-a" x="-.144" y="-.167" width="1.288" height="1.333">
   <feOffset dy="2" in="SourceAlpha" result="shadowOffsetOuter1"/>
   <feGaussianBlur in="shadowOffsetOuter1" result="shadowBlurOuter1" stdDeviation="3"/>
   <feComposite in="shadowBlurOuter1" in2="SourceAlpha" operator="out" result="shadowBlurOuter1"/>
   <feColorMatrix in="shadowBlurOuter1" result="shadowMatrixOuter1" values="0 0 0 0 0   0 0 0 0 0   0 0 0 0 0  0 0 0 0.2 0"/>
   <feMerge>
    <feMergeNode in="shadowMatrixOuter1"/>
    <feMergeNode in="SourceGraphic"/>
   </feMerge>
  </filter>
  <filter id="filter1016" x="-.03398" y="-.081714" width="1.068" height="1.1634" color-interpolation-filters="sRGB">
   <feGaussianBlur stdDeviation="1.43"/>
  </filter>
  <linearGradient id="linearGradient964" x1="-70" x2="-70" y1="96.088" y2="103" gradientUnits="userSpaceOnUse">
   <stop stop-color="#fff" offset="0"/>
   <stop stop-color="#cef5ff" offset="1"/>
  </linearGradient>
  <radialGradient id="radialGradient907" cx="45.008" cy="0" r="105.85" gradientTransform="matrix(1.2331 0 0 .81096 9 45)" gradientUnits="userSpaceOnUse">
   <stop stop-color="#ccff42" offset="0"/>
   <stop stop-color="#50a100" offset="1"/>
  </radialGradient>
 </defs>
 <g transform="translate(0 -.5)" fill-rule="evenodd">
  <path d="m71 28c1.5139 3.6333 5.0639 6 9 6h26c7.732 0 14 6.268 14 14v56c0 7.732-6.268 14-14 14h-83c-7.732 0-14-6.268-14-14v-68c0-7.732 6.268-14 14-14h39c3.9361 0 7.4861 2.3667 9 6z" fill="url(#linearGradient903)" filter="url(#folder-128px-a)"/>
  <g transform="translate(138,-58)">
   <rect x="-124" y="96" width="101" height="42" rx="9" ry="9" fill-opacity=".2" filter="url(#filter1016)" style="paint-order:stroke fill markers"/>
   <rect x="-124" y="96" width="101" height="42" rx="9" ry="9" fill="url(#linearGradient964)" style="paint-order:stroke fill markers"/>
   <path d="m-115 96c-4.986 0-9 4.014-9 9v1c0-4.986 4.014-9 9-9h83c4.986 0 9 4.014 9 9v-1c0-4.986-4.014-9-9-9z" opacity=".615" style="paint-order:stroke fill markers"/>
  </g>
  <path d="m9 45h111v59c0 7.732-6.268 14-14 14h-83c-7.732 0-14-6.268-14-14z" fill="url(#radialGradient907)" filter="url(#folder-128px-a)"/>
 </g>
 <g transform="translate(40,54)" fill-rule="evenodd">
  <use width="100%" height="100%" fill="#000000" filter="url(#folder-home-128px-j)" xlink:href="#folder-home-128px-k"/>
  <use width="100%" height="100%" fill="url(#folder-home-128px-l)" xlink:href="#folder-home-128px-k"/>
 </g>
</svg>
