<svg width="48" height="48" version="1.1" viewBox="0 0 48 48" xmlns="http://www.w3.org/2000/svg">
 <defs>
  <filter id="image-bmp-a" x="-.156" y="-.103" width="1.312" height="1.256">
   <feOffset dy="1" in="SourceAlpha" result="shadowOffsetOuter1"/>
   <feGaussianBlur in="shadowOffsetOuter1" result="shadowBlurOuter1" stdDeviation="1.5"/>
   <feColorMatrix in="shadowBlurOuter1" values="0 0 0 0 0.262745098   0 0 0 0 0.71372549   0 0 0 0 0.607843137  0 0 0 0.5 0"/>
  </filter>
  <linearGradient id="image-bmp-c" x1="17.664" x2="17.664" y2="35.327" gradientTransform="scale(.90582 1.104)" gradientUnits="userSpaceOnUse">
   <stop stop-color="#28DCB1" offset="0"/>
   <stop stop-color="#00AF9D" offset="1"/>
  </linearGradient>
  <filter id="image-bmp-d" x="-.318" y="-.227" width="1.636" height="1.636">
   <feOffset dy="1" in="SourceAlpha" result="shadowOffsetOuter1"/>
   <feGaussianBlur in="shadowOffsetOuter1" result="shadowBlurOuter1" stdDeviation="1"/>
   <feComposite in="shadowBlurOuter1" in2="SourceAlpha" operator="out" result="shadowBlurOuter1"/>
   <feColorMatrix in="shadowBlurOuter1" values="0 0 0 0 0   0 0 0 0 0   0 0 0 0 0  0 0 0 0.05 0"/>
  </filter>
  <linearGradient id="image-bmp-f" x1="26.5" x2="22.345" y1="5.5" y2="9.7364" gradientUnits="userSpaceOnUse">
   <stop stop-color="#FFF" stop-opacity=".1" offset="0"/>
   <stop stop-color="#FFF" stop-opacity=".3" offset="1"/>
  </linearGradient>
 </defs>
 <g transform="translate(8,5)" fill-rule="evenodd">
  <path d="m21 0 11 11v23.5c0 2.4853-2.0147 4.5-4.5 4.5h-23c-2.4853 0-4.5-2.0147-4.5-4.5v-30c0-2.4853 2.0147-4.5 4.5-4.5z" filter="url(#image-bmp-a)"/>
  <path d="m21 0 11 11v23.5c0 2.4853-2.0147 4.5-4.5 4.5h-23c-2.4853 0-4.5-2.0147-4.5-4.5v-30c0-2.4853 2.0147-4.5 4.5-4.5z" fill="url(#image-bmp-c)"/>
  <path d="m21 0 11 11h-6.5c-2.4853 0-4.5-2.0147-4.5-4.5z" filter="url(#image-bmp-d)"/>
  <path d="m21 0 11 11h-6.5c-2.4853 0-4.5-2.0147-4.5-4.5z" fill="url(#image-bmp-f)"/>
 </g>
 <path d="m18 39.292c4.1143-4.3741 3.7464-8.1776 0.62768-11.435-0.52258-0.54584-1.0838-1.0258-1.6445-1.4346-0.19565-0.14265-0.69936-0.46968-0.73126-0.48792-0.44518-0.25439-0.26466-0.93412 0.24807-0.93412h14c0.27614 0 0.5 0.22386 0.5 0.5s-0.22386 0.5-0.5 0.5h-12.5c0.41288 0.33569 0.96151 0.75933 1.35 1.1651 3.4763 3.631 3.8797 8.0409-0.65678 12.848-0.02069 0.02193 8.387-0.0062 10.392-0.01219 0.20561-0.58316 0.76152-1.0011 1.415-1.0011 0.82843 0 1.5 0.67157 1.5 1.5s-0.67157 1.5-1.5 1.5c-0.65311 0-1.2087-0.4174-1.4146-1h-11.06s-0.01179-0.32255-0.025-0.68415v2.1842h-3.5v-3.5h3.5zm-1 2.2083v-1.5h-1.5v1.5z" fill="#fff" fill-rule="evenodd"/>
 <g transform="translate(0,-4.5)" fill-rule="evenodd">
  <path d="m21.5 25h3v-2h-3v-1.5h5v5h-5zm-2-3.5v5h-11.5v-5zm9 0h11.5v5h-11.5z" fill="#fff8f8" fill-opacity=".5"/>
  <path d="m20.75 20h6.5c0.41421 0 0.75 0.33579 0.75 0.75v6.5c0 0.41421-0.33579 0.75-0.75 0.75h-6.5c-0.41421 0-0.75-0.33579-0.75-0.75v-6.5c0-0.41421 0.33579-0.75 0.75-0.75zm0.25 1v6h6v-6zm0 2.5h3v1h-3z" fill="#f4f4f4"/>
 </g>
</svg>
