<svg width="16" height="16" version="1.1" xmlns="http://www.w3.org/2000/svg">
<path d="m3 0c1.662 0 3 1.338 3 3v10c0 1.662-1.338 3-3 3s-3-1.338-3-3v-10c0-1.662 1.338-3 3-3z" fill="#666"/>
<path d="m5.41 0c0.87 0.71 1.47 1.79 1.47 3v1h2.12c-0.07-1.09 1.25-2 2-2 0.68 0 1 0.01 1 1v1h1.22c1.23-0.6 1.78-1.97 1.78-2.69 0-0.73-2.39-1.31-3.69-1.31z" fill="#666"/>
<path d="m7 5v4.31c2.77 2.66 6.13 2.41 6.13 2.41s0.35-1.52-1.91-4.03l-2.38-2.69zm2.98 2.53 1.68 1.74c-1.8 0.16-2.15-0.86-1.68-1.74z" fill="#666"/>
</svg>
