<svg width="16" height="16" version="1.1" xmlns="http://www.w3.org/2000/svg">
<path d="m2 3c-1.1046 0-2 0.8954-2 2v9c0 1.1046 0.8954 2 2 2h3.7539c-0.96009-0.00527-1.7845-0.38156-2.3008-0.94727h-0.0019531c-0.19445-0.21372-0.33517-0.45108-0.45117-0.69531v0.64258h-1l-0.11719-0.005859c-0.49734-0.05776-0.88281-0.4813-0.88281-0.99414v-1h1.707c0.006326-0.30671 0.058592-0.64835 0.17969-1h-1.8867v-2h2v1.7031c0.06958-0.14656 0.15101-0.29343 0.25391-0.4375 0.43842-0.61443 1.2864-1.0938 2.3008-1.0938 0.18012 0 0.27826 0.11398 0.44531 0.14062v-7.3125h-4zm7 0v0.0078125l0.052734-0.0078125h-0.052734zm-7 1h1v2h-2v-1l0.0058594-0.11719c0.05776-0.49734 0.4813-0.88281 0.99414-0.88281zm9.9512 0.57227-1.0059 0.15625c0.025482 0.088243 0.054688 0.17504 0.054688 0.27148v1h-2v1h2v2h-2v1h2v0.70703c0.070176-0.14784 0.15164-0.29603 0.25586-0.44141 0.18004-0.25232 0.44254-0.4712 0.74414-0.6543v-4.6113c0-0.14738-0.018578-0.28943-0.048828-0.42773zm-10.951 2.4277h2v2h-2v-2zm8 5v1h1.8535c-0.096992-0.30248-0.15039-0.61204-0.15039-0.91602 0-0.026618 0.003344-0.056754 0.003906-0.083984h-1.707zm-3.4453 0.17188c-0.50561 0-0.5623 0.10229-0.67188 0.25586h-0.0019531c-0.10396 0.14532-0.17773 0.4459-0.17773 0.65625 0 0.22037 0.083842 0.46208 0.22852 0.62109 0.14799 0.16186 0.33962 0.29688 0.8418 0.29688 0.64487 0 0.84063-0.14301 0.9375-0.27539 0.1124-0.15433 0.22235-0.44756 0.26562-0.9082l-0.52734-0.3457c-0.32014-0.21084-0.52398-0.30078-0.89453-0.30078zm5.4453 1.1836v0.64453c0 0.55228-0.44772 1-1 1h-1v-1.5h-0.20117c-0.096633 0.49401-0.17439 0.99744-0.4707 1.4043-0.56091 0.76935-1.522 1.0907-2.5312 1.0957h4.2031c0.94356 0 1.7289-0.65612 1.9395-1.5352-0.18143-0.12207-0.34661-0.25854-0.48633-0.41211-0.1956-0.21434-0.33672-0.45233-0.45312-0.69726z" fill="#444"/>
<path d="m15.514 0.041a2.807 2.807 0 0 0-0.41 0.016l-7.21 1.125c-0.813 0.082-0.901 0.462-0.894 0.935v9.52c-0.413-0.272-0.856-0.465-1.445-0.465-0.76 0-1.213 0.29-1.487 0.674-0.274 0.383-0.365 0.865-0.365 1.238 0 0.45 0.155 0.929 0.488 1.295 0.334 0.366 0.846 0.623 1.582 0.623 0.832 0 1.416-0.232 1.747-0.686 0.26-0.357 0.405-0.835 0.457-1.423 7e-3 -0.072 0.01-0.146 0.015-0.221 4e-3 -0.06 3e-3 -0.102 4e-3 -0.172h4e-3v-7.703c0.022-0.62 0.584-0.711 0.584-0.711l5.854-0.914c0.562-0.172 0.562 0.523 0.562 0.523v6.942c-0.413-0.272-0.856-0.465-1.445-0.465-0.76 0-1.212 0.29-1.486 0.674-0.275 0.383-0.366 0.865-0.366 1.238 0 0.45 0.155 0.929 0.489 1.295 0.333 0.366 0.845 0.623 1.582 0.623 0.831 0 1.415-0.232 1.746-0.686 0.26-0.357 0.405-0.835 0.457-1.423 7e-3 -0.072 0.01-0.146 0.015-0.221 4e-3 -0.06 3e-3 -0.102 4e-3 -0.172h4e-3v-10.568c0.012-0.686-0.14-0.867-0.486-0.891z" color="#000000" fill="#444" fill-rule="evenodd" font-weight="400" overflow="visible" solid-color="#000000" style="font-feature-settings:normal;font-variant-alternates:normal;font-variant-caps:normal;font-variant-ligatures:normal;font-variant-numeric:normal;font-variant-position:normal;isolation:auto;mix-blend-mode:normal;shape-padding:0;text-decoration-color:#000000;text-decoration-line:none;text-decoration-style:solid;text-indent:0;text-orientation:mixed;text-transform:none;white-space:normal"/>
</svg>
