<svg width="16" height="16" version="1.1" xmlns="http://www.w3.org/2000/svg">
<path d="m7 0v2h-1c-0.55 0-1 0.45-1 1v4l0.54 0.54-3.41 5.96-0.13 2.5 1.87-1.5 0.72-1.27c1.07 0.5 2.23 0.77 3.41 0.77s2.34-0.27 3.41-0.77l0.72 1.27 1.87 1.5-0.13-2.5-0.77-1.34c1.84-1.52 2.9-3.78 2.9-6.16h-2c0 1.66-0.69 3.25-1.91 4.38l-1.63-2.84 0.54-0.54v-4c0-0.55-0.45-1-1-1h-1v-2zm1 4c0.55 0 1 0.45 1 1s-0.45 1-1 1-1-0.45-1-1 0.45-1 1-1zm-0.99 5c0.63 0.31 1.26 0.54 1.98 0l1.42 2.49c-0.76 0.33-1.58 0.51-2.41 0.51s-1.65-0.18-2.41-0.51z" fill="#666"/>
</svg>
