<svg width="16" height="16" version="1.1" viewBox="0 0 16 16" xmlns="http://www.w3.org/2000/svg">
<path d="m3.586 2c-1.428 0-2.584 1.1579-2.584 2.5859l-2e-3 1.4141 2e-3 3.127h14v-2.541h-2e-3c0-0.20126-0.0229-0.3979-0.06641-0.58594h-0.0078c-0.08713-0.37412-0.26156-0.70934-0.4922-1h0.02539c-0.03659-0.047066-0.08531-0.082563-0.125-0.12695-0.0309-0.034353-0.06303-0.066926-0.0957-0.099609-0.08564-0.086096-0.17253-0.16877-0.26953-0.24219-0.0011-8.55e-4 -0.0028-0.0011-0.0039-0.00195-0.0022-0.00162-0.0037-0.00424-0.0059-0.00586-0.08563-0.064279-0.17613-0.1204-0.26953-0.17383l-0.0019-0.00195-2e-3 -0.00195c-0.0013-7.133e-4 -0.0026-0.00124-0.0039-0.00195-0.17688-0.10026-0.36472-0.18168-0.56444-0.23828-0.01469-0.00436-0.02817-0.011527-0.04297-0.015625-0.21125-0.05579-0.42942-0.089856-0.6582-0.089856h-1.7969c-0.68512 0-1.3107-0.38713-1.6171-1s-0.93393-1-1.6191-1zm-2.584 7-2e-3 3h0.07227c0.26611 1.1448 1.2878 2 2.5137 2h8.8301c1.2258 0 2.2476-0.85516 2.5137-2h0.0039c0.0017-0.0075 2.88e-4 -0.01591 2e-3 -0.02344 0.04038-0.18153 0.06641-0.3688 0.06641-0.5625v-2.4141z" fill="#444"/>
<g fill="#333">
<path d="m15 11.43v-0.76953l-13.328-7.6934c-0.37538 0.44778-0.66638 0.98343-0.66797 1.6133l13.641 7.875c0.078388-0.16522 0.24281-0.27291 0.28516-0.45508h0.0039c0.0017-0.0075 2.42e-4 -0.01591 2e-3 -0.02344 0.03926-0.17648 0.06305-0.35891 0.06445-0.54687z"/>
<path d="m6.9277 14-5.9277-3.4219v1.4219h0.07227c0.09037 0.38876 0.36633 0.67088 0.60938 0.9707l1.5918 0.91992c0.11404 0.015431 0.19415 0.10938 0.3125 0.10938z"/>
<path d="m13.311 13.686-12.311-7.1074 2e-3 2 9.3906 5.4219h2.0234c0.3389 0 0.59848-0.19567 0.89453-0.31445z"/>
<path d="m3.5156 2.0293 11.484 6.6309v-2l-4.8262-2.7871c-0.3085-0.082751-0.5666-0.22932-0.79102-0.45508l-2.4551-1.418h-3.3418c-0.02748 0-0.04304 0.028446-0.07031 0.029297z"/>
</g>
</svg>
