<svg width="16" height="16" version="1.1" xmlns="http://www.w3.org/2000/svg">
<path d="m2.0312 0.57227c-1.1218 0-2.0293 0.90925-2.0293 2.0312v0.39648h10.588c-0.017095-0.023059-0.028869-0.049924-0.046875-0.072266h0.03125c-0.37167-0.47819-0.953-0.78516-1.6055-0.78516h-1.4121c-0.53827 0-1.0288-0.30362-1.2695-0.78516-0.24071-0.48154-0.73514-0.78516-1.2734-0.78516h-2.9824zm-2.0293 3.4277v2.082l-0.0019531 1.9043c0.00151 0.16016 0.026067 0.31362 0.0625 0.46289h0.0019531c0.077956 0.31884 0.23192 0.60732 0.43945 0.84766 0.012172 0.01397 0.024578 0.029339 0.037109 0.042969 0.056176 0.06159 0.11836 0.11566 0.18164 0.16992 0.028276 0.02402 0.054407 0.049796 0.083984 0.072266 0.058825 0.0451 0.12188 0.086488 0.18555 0.125 0.045861 0.02746 0.092503 0.052312 0.14062 0.076172 0.054063 0.02706 0.10931 0.053972 0.16602 0.076172 0.069291 0.02685 0.14211 0.045243 0.21484 0.064453 0.047049 0.01255 0.092266 0.027939 0.14062 0.037109 0.11549 0.02166 0.23199 0.035909 0.35352 0.037109 0.00679 6.8e-5 0.014648 0.0019531 0.021484 0.0019531h1.9727v-1.3965c0-1.6616 1.3668-3.0312 3.0293-3.0312h2.9824c0.34902 0 0.67825 0.095565 0.98633 0.23438v-1.6328h-0.001953c0-0.01793-0.00546-0.032961-0.005859-0.050781-0.001516-0.041762-0.010473-0.081559-0.013672-0.12305h-10.977z" fill="#666"/>
<path d="m7.0312 6.5723c-1.1218 0-2.0293 0.90925-2.0293 2.0312v0.39648h10.588c-0.017098-0.023035-0.028869-0.049924-0.046875-0.072266h0.03125c-0.37166-0.47819-0.953-0.78516-1.6055-0.78516h-1.4121c-0.53827 0-1.0288-0.30362-1.2695-0.78516-0.24071-0.48154-0.73514-0.78516-1.2734-0.78516h-2.9824zm-2.0293 3.4277v2.082l-0.0019531 1.9043c0.0015 0.16016 0.02606 0.31362 0.0625 0.46289h0.0019531c0.07796 0.31884 0.23192 0.60732 0.43945 0.84766 0.01217 0.01397 0.024579 0.029339 0.037109 0.042969 0.05618 0.06159 0.11836 0.11566 0.18164 0.16992 0.02828 0.02402 0.054404 0.049795 0.083984 0.072265 0.05883 0.0451 0.12188 0.086488 0.18555 0.125 0.04586 0.02746 0.092502 0.052312 0.14062 0.076172 0.05406 0.02706 0.10931 0.053972 0.16602 0.076172 0.06929 0.02685 0.14211 0.045243 0.21484 0.064453 0.04705 0.01255 0.092261 0.027939 0.14062 0.03711 0.11549 0.02166 0.23199 0.035909 0.35352 0.037109 0.0068 6.8e-5 0.014644 0.001953 0.021484 0.001953h6.9395c0.955 0 1.7497-0.66257 1.9668-1.5508h0.011719c0.0039-0.01681 0.002359-0.033811 0.005859-0.050781 0.02393-0.111 0.032139-0.22682 0.037109-0.34375 9.12e-4 -0.02136 0.007613-0.04098 0.007813-0.0625h0.001953v-3.8183h-0.001953c0-0.01793-0.00546-0.032961-0.005859-0.050781-0.001516-0.041762-0.010344-0.081776-0.013672-0.12305h-10.977z" fill="#666"/>
</svg>
