<svg width="256" height="256" version="1.1" viewBox="0 0 256 256" xmlns="http://www.w3.org/2000/svg" xmlns:xlink="http://www.w3.org/1999/xlink">
<defs>
<filter id="deepin-virtualkeyboard-a" x="-11.7%" y="-12.9%" width="123.5%" height="125.7%">
<feOffset dy="4" in="SourceAlpha" result="shadowOffsetOuter1"/>
<feGaussianBlur in="shadowOffsetOuter1" result="shadowBlurOuter1" stdDeviation="5"/>
<feComposite in="shadowBlurOuter1" in2="SourceAlpha" operator="out" result="shadowBlurOuter1"/>
<feColorMatrix in="shadowBlurOuter1" result="shadowMatrixOuter1" values="0 0 0 0 0   0 0 0 0 0   0 0 0 0 0  0 0 0 0.2 0"/>
<feMerge>
<feMergeNode in="shadowMatrixOuter1"/>
<feMergeNode in="SourceGraphic"/>
</feMerge>
</filter>
<linearGradient id="deepin-virtualkeyboard-b" x1="109.89" x2="109.89" y2="215.68" gradientTransform="matrix(1.0465 0 0 .95553 13 23)" gradientUnits="userSpaceOnUse">
<stop stop-color="#FFF" offset="0"/>
<stop stop-color="#EDEDED" offset="1"/>
</linearGradient>
<linearGradient id="deepin-virtualkeyboard-e" x1="81.317" x2="81.317" y1="103.24" y2="193.75" gradientTransform="scale(1.4142 .70711)" gradientUnits="userSpaceOnUse">
<stop stop-color="#4A4A4A" offset="0"/>
<stop stop-color="#363636" offset=".97645"/>
</linearGradient>
<path id="deepin-virtualkeyboard-d" d="m167 73h8c2.2091 0 4 1.7909 4 4v8c0 2.2091-1.7909 4-4 4h-8c-2.2091 0-4-1.7909-4-4v-8c0-2.2091 1.7909-4 4-4zm-24 0h8c2.2091 0 4 1.7909 4 4v8c0 2.2091-1.7909 4-4 4h-8c-2.2091 0-4-1.7909-4-4v-8c0-2.2091 1.7909-4 4-4zm-24 0h8c2.2091 0 4 1.7909 4 4v8c0 2.2091-1.7909 4-4 4h-8c-2.2091 0-4-1.7909-4-4v-8c0-2.2091 1.7909-4 4-4zm20 28v8c0 2.2091-1.7909 4-4 4h-8c-2.2091 0-4-1.7909-4-4v-8c0-2.2091 1.7909-4 4-4h8c2.2091 0 4 1.7909 4 4zm-44-28h8c2.2091 0 4 1.7909 4 4v8c0 2.2091-1.7909 4-4 4h-8c-2.2091 0-4-1.7909-4-4v-8c0-2.2091 1.7909-4 4-4zm20 28v8c0 2.2091-1.7909 4-4 4h-8c-2.2091 0-4-1.7909-4-4v-8c0-2.2091 1.7909-4 4-4h8c2.2091 0 4 1.7909 4 4zm-60-28h24c2.2091 0 4 1.7909 4 4v8c0 2.2091-1.7909 4-4 4h-24c-2.2091 0-4-1.7909-4-4v-8c0-2.2091 1.7909-4 4-4zm0 24h32c2.2091 0 4 1.7909 4 4v8c0 2.2091-1.7909 4-4 4h-32c-2.2091 0-4-1.7909-4-4v-8c0-2.2091 1.7909-4 4-4zm96 40h-64c-2.2091 0-4-1.7909-4-4v-8c0-2.2091 1.7909-4 4-4h64c2.2091 0 4 1.7909 4 4v8c0 2.2091-1.7909 4-4 4zm-80 0h-16c-2.2091 0-4-1.7909-4-4v-8c0-2.2091 1.7909-4 4-4h16c2.2091 0 4 1.7909 4 4v8c0 2.2091-1.7909 4-4 4zm104-24h-24c-2.2091 0-4-1.7909-4-4v-8c0-2.2091 1.7909-4 4-4h24c2.2091 0 4 1.7909 4 4v8c0 2.2091-1.7909 4-4 4zm0 24h-8c-2.2091 0-4-1.7909-4-4v-8c0-2.2091 1.7909-4 4-4h8c2.2091 0 4 1.7909 4 4v8c0 2.2091-1.7909 4-4 4z"/>
<filter id="deepin-virtualkeyboard-c" x="-.8%" y="-1.6%" width="101.6%" height="106.2%">
<feOffset dy="2" in="SourceAlpha" result="shadowOffsetOuter1"/>
<feColorMatrix in="shadowOffsetOuter1" values="0 0 0 0 0   0 0 0 0 0   0 0 0 0 0  0 0 0 0.1 0"/>
</filter>
<filter id="deepin-virtualkeyboard-f" x="-.8%" y="-1.6%" width="101.6%" height="106.2%">
<feOffset dy="2" in="SourceAlpha" result="shadowOffsetInner1"/>
<feComposite in="shadowOffsetInner1" in2="SourceAlpha" k2="-1" k3="1" operator="arithmetic" result="shadowInnerInner1"/>
<feColorMatrix in="shadowInnerInner1" result="shadowMatrixInner1" values="0 0 0 0 1   0 0 0 0 1   0 0 0 0 1  0 0 0 0.05 0"/>
<feOffset dy="-2" in="SourceAlpha" result="shadowOffsetInner2"/>
<feComposite in="shadowOffsetInner2" in2="SourceAlpha" k2="-1" k3="1" operator="arithmetic" result="shadowInnerInner2"/>
<feColorMatrix in="shadowInnerInner2" result="shadowMatrixInner2" values="0 0 0 0 0   0 0 0 0 0   0 0 0 0 0  0 0 0 0.5 0"/>
<feMerge>
<feMergeNode in="shadowMatrixInner1"/>
<feMergeNode in="shadowMatrixInner2"/>
</feMerge>
</filter>
</defs>
<rect x="13" y="23" width="230" height="210" rx="40" fill="url(#deepin-virtualkeyboard-b)" fill-rule="evenodd" filter="url(#deepin-virtualkeyboard-a)"/>
<g>
<use transform="translate(13,23)" width="100%" height="100%" fill="#000000" filter="url(#deepin-virtualkeyboard-c)" xlink:href="#deepin-virtualkeyboard-d"/>
<use transform="translate(13,23)" width="100%" height="100%" fill="url(#deepin-virtualkeyboard-e)" filter="url(#deepin-virtualkeyboard-a)" xlink:href="#deepin-virtualkeyboard-d"/>
<use transform="translate(13,23)" width="100%" height="100%" fill="#000000" filter="url(#deepin-virtualkeyboard-f)" xlink:href="#deepin-virtualkeyboard-d"/>
</g>
<g fill="#f22c42" fill-rule="evenodd">
<rect x="104" y="96" width="16" height="16" rx="4" ry="4" style="paint-order:stroke fill markers"/>
<rect x="128" y="96" width="16" height="16" rx="4" ry="4" style="paint-order:stroke fill markers"/>
<rect x="112" y="120" width="16" height="16" rx="4" ry="4" style="paint-order:stroke fill markers"/>
</g>
</svg>
