<svg width="256" height="256" version="1.1" viewBox="0 0 256 256" xmlns="http://www.w3.org/2000/svg">
<defs>
<filter id="deepin-show-desktop-a" x="-11.7%" y="-12.9%" width="123.5%" height="125.7%">
<feOffset dy="4" in="SourceAlpha" result="shadowOffsetOuter1"/>
<feGaussianBlur in="shadowOffsetOuter1" result="shadowBlurOuter1" stdDeviation="5"/>
<feComposite in="shadowBlurOuter1" in2="SourceAlpha" operator="out" result="shadowBlurOuter1"/>
<feColorMatrix in="shadowBlurOuter1" result="shadowMatrixOuter1" values="0 0 0 0 0   0 0 0 0 0   0 0 0 0 0  0 0 0 0.2 0"/>
<feMerge>
<feMergeNode in="shadowMatrixOuter1"/>
<feMergeNode in="SourceGraphic"/>
</feMerge>
</filter>
<linearGradient id="deepin-show-desktop-b" x1="109.89" x2="109.89" y2="219.77" gradientTransform="matrix(1.0465 0 0 .95553 13 23)" gradientUnits="userSpaceOnUse">
<stop stop-color="#00D479" offset="0"/>
<stop stop-color="#02A5CB" offset="1"/>
</linearGradient>
<filter id="a" color-interpolation-filters="sRGB">
<feFlood flood-opacity=".294" result="flood"/>
<feComposite in="flood" in2="SourceGraphic" operator="in" result="composite1"/>
<feGaussianBlur in="composite1" result="blur" stdDeviation="1.5"/>
<feOffset dx="0" dy="1.5" result="offset"/>
<feComposite in="SourceGraphic" in2="offset" result="composite2"/>
</filter>
</defs>
<g fill-rule="evenodd">
<rect x="13" y="23" width="230" height="210" rx="24" fill="url(#deepin-show-desktop-b)" filter="url(#deepin-show-desktop-a)"/>
<rect x="28" y="186" width="200" height="32" rx="8" fill="#a4ffcc" filter="url(#deepin-show-desktop-a)" opacity=".7"/>
<rect x="40" y="60" width="32" height="32" rx="5" filter="url(#deepin-show-desktop-a)" opacity=".1"/>
<rect x="40" y="116" width="32" height="32" rx="5" filter="url(#deepin-show-desktop-a)" opacity=".1"/>
</g>
<g fill="#fff">
<rect x="40" y="58" width="32" height="32" rx="5" fill-rule="evenodd" filter="url(#deepin-show-desktop-a)"/>
<rect x="40" y="114" width="32" height="32" rx="5" fill-rule="evenodd" filter="url(#deepin-show-desktop-a)"/>
<path transform="matrix(3.6785 0 0 3.6785 41.55 -13.924)" d="m20 27v10.668c0 0.738 0.668 1.332 1.5 1.332h21c0.832 0 1.5-0.594 1.5-1.332v-10.668z" filter="url(#a)"/>
</g>
<path transform="matrix(3.6785 0 0 3.6785 41.55 -13.924)" d="m21.5 23h21c0.832 0 1.5 0.594 1.5 1.334v2.666h-24v-2.667c0-0.738 0.669-1.333 1.5-1.333z" fill="#4f4f4f" filter="url(#a)" opacity=".75"/>
</svg>
