<svg width="512" height="512" version="1.1" viewBox="0 0 512 512" xmlns="http://www.w3.org/2000/svg" xmlns:xlink="http://www.w3.org/1999/xlink">
 <defs>
  <linearGradient id="application-x-7zip-c" x1="186.93" x2="186.93" y2="373.87" gradientTransform="scale(.89872 1.1127)" gradientUnits="userSpaceOnUse">
   <stop stop-color="#5C42B1" offset="0"/>
   <stop stop-color="#3E1888" offset=".99345"/>
  </linearGradient>
  <path id="application-x-7zip-b" d="m232 0 104 104v276c0 19.882-16.118 36-36 36h-264c-19.882 0-36-16.118-36-36v-344c-2.4349e-15 -19.882 16.118-36 36-36h196z"/>
  <filter id="application-x-7zip-a" x="-13.7%" y="-9.1%" width="127.4%" height="122.1%">
   <feOffset dy="8" in="SourceAlpha" result="shadowOffsetOuter1"/>
   <feGaussianBlur in="shadowOffsetOuter1" result="shadowBlurOuter1" stdDeviation="14"/>
   <feColorMatrix in="shadowBlurOuter1" values="0 0 0 0 0.241013895   0 0 0 0 0   0 0 0 0 0.621603261  0 0 0 0.5 0"/>
  </filter>
  <linearGradient id="application-x-7zip-f" x1="284" x2="240.31" y1="52" y2="92.449" gradientUnits="userSpaceOnUse">
   <stop stop-color="#FFF" stop-opacity=".1" offset="0"/>
   <stop stop-color="#FFF" stop-opacity=".3" offset="1"/>
  </linearGradient>
  <path id="application-x-7zip-e" d="m232 0 104 104h-68c-19.882 0-36-16.118-36-36v-68z"/>
  <filter id="application-x-7zip-d" x="-13.5%" y="-9.6%" width="126.9%" height="126.9%">
   <feOffset dy="4" in="SourceAlpha" result="shadowOffsetOuter1"/>
   <feGaussianBlur in="shadowOffsetOuter1" result="shadowBlurOuter1" stdDeviation="4"/>
   <feComposite in="shadowBlurOuter1" in2="SourceAlpha" operator="out" result="shadowBlurOuter1"/>
   <feColorMatrix in="shadowBlurOuter1" values="0 0 0 0 0   0 0 0 0 0   0 0 0 0 0  0 0 0 0.05 0"/>
  </filter>
 </defs>
 <use transform="translate(88,56)" width="100%" height="100%" fill="#000000" fill-rule="evenodd" filter="url(#application-x-7zip-a)" xlink:href="#application-x-7zip-b"/>
 <use transform="translate(88,56)" width="100%" height="100%" fill="url(#application-x-7zip-c)" fill-rule="evenodd" xlink:href="#application-x-7zip-b"/>
 <use transform="translate(88,56)" width="100%" height="100%" fill="#000000" fill-rule="evenodd" filter="url(#application-x-7zip-d)" xlink:href="#application-x-7zip-e"/>
 <use transform="translate(88,56)" width="100%" height="100%" fill="url(#application-x-7zip-f)" fill-rule="evenodd" xlink:href="#application-x-7zip-e"/>
 <g transform="matrix(8.0602 0 0 8.0602 6.3978 -11.927)" fill="#fff">
  <circle cx="18.5" cy="38.5" r="2.5"/>
  <circle cx="27.5" cy="38.5" r="2.5"/>
  <path d="m42 32a7 7 0 0 0-7 7 7 7 0 0 0 7 7 7 7 0 0 0 7-7 7 7 0 0 0-7-7zm0 2.8a4.2 4.2 0 0 1 4.2 4.2 4.2 4.2 0 0 1-4.2 4.2 4.2 4.2 0 0 1-4.2-4.2 4.2 4.2 0 0 1 4.2-4.2z"/>
  <path d="m36.848 41.494-3.5234 3.5059h-18.516l-4.8086 5.0039v4.3281l6.0859-6.332h18.477l4.4023-4.3789z"/>
 </g>
</svg>
