<svg width="256" height="256" version="1.1" viewBox="0 0 256 256" xmlns="http://www.w3.org/2000/svg">
<title>deepin-font-installer</title>
<defs>
<linearGradient id="b" x1="108.12" x2="108.12" y1="163.07" y2="268.55" gradientTransform="scale(1.1838 .84471)" gradientUnits="userSpaceOnUse">
<stop stop-color="#D5E5F4" offset="0"/>
<stop stop-color="#DEE8F2" offset="1"/>
</linearGradient>
<linearGradient id="c" x1="58.27" x2="58.27" y1="202.47" y2="222.93" gradientTransform="scale(2.1928 .45603)" gradientUnits="userSpaceOnUse">
<stop stop-color="#fff" offset="0"/>
<stop stop-color="#C9DAE9" offset="1"/>
</linearGradient>
<filter id="a" color-interpolation-filters="sRGB">
<feFlood flood-color="#A9A69A" flood-opacity=".498" result="flood"/>
<feComposite in="flood" in2="SourceGraphic" operator="in" result="composite1"/>
<feGaussianBlur in="composite1" result="blur" stdDeviation="4"/>
<feOffset dx="0" dy="4" result="offset"/>
<feComposite in="SourceGraphic" in2="offset" result="composite2"/>
</filter>
</defs>
<g fill-rule="evenodd">
<path d="m206 230h-156c-4 0-6-2-6-6v-196c0-4 2-6 6-6h110l52 52v150c0 6-6 6-6 6z" fill="#e5b400" filter="url(#a)"/>
<path d="m44 224c0 4 2 6 6 6h156s6 0 6-6v-2c0 6-6 6-6 6h-156c-4 0-6-2-6-6z" fill-opacity=".12" filter="url(#a)"/>
<path d="m44 28c0-4 2-6 6-6h110v2h-110c-4 0-6 2-6 6z" fill="#fff" filter="url(#a)" opacity=".25"/>
<path d="m141.73 128.05h-27.703v-3.328c2.437-0.156 4.46-0.469 6.07-0.938 1.61-0.468 2.414-1.047 2.414-1.734 0-0.281-0.03-0.625-0.093-1.031s-0.157-0.766-0.282-1.078l-5.53-14.906h-23.299c-0.875 2.187-1.586 4.093-2.133 5.719a287.22 287.22 0 0 0-1.476 4.5c-0.406 1.343-0.688 2.437-0.844 3.28-0.156 0.844-0.234 1.532-0.234 2.063 0 1.25 0.984 2.219 2.953 2.906s4.187 1.094 6.656 1.22v3.327h-25.03v-3.328c0.813-0.062 1.828-0.242 3.047-0.539s2.219-0.695 3-1.195c1.25-0.844 2.219-1.727 2.906-2.649s1.36-2.195 2.016-3.82c3.344-8.344 7.03-17.719 11.062-28.125s7.625-19.672 10.78-27.797h3.75l22.173 57.375c0.468 1.219 1 2.203 1.594 2.953 0.593 0.75 1.421 1.485 2.484 2.203 0.719 0.438 1.656 0.805 2.812 1.102 1.157 0.297 2.125 0.46 2.907 0.492zm-26.812-27.188-10.078-25.781-9.89 25.781zm71.766 26.344a69.72 69.72 0 0 1-3.867 1.29c-1.11 0.327-2.367 0.491-3.774 0.491-2.437 0-4.382-0.57-5.836-1.71s-2.382-2.805-2.789-4.993h-0.28c-2.032 2.25-4.212 3.969-6.54 5.156-2.328 1.188-5.133 1.782-8.414 1.782-3.469 0-6.32-1.063-8.555-3.188-2.234-2.125-3.351-4.906-3.351-8.344 0-1.781 0.25-3.375 0.75-4.78s1.25-2.673 2.25-3.798c0.78-0.937 1.812-1.773 3.093-2.508 1.282-0.734 2.485-1.32 3.61-1.757 1.406-0.532 4.258-1.516 8.555-2.954 4.296-1.437 7.195-2.562 8.695-3.375v-4.64c0-0.406-0.086-1.188-0.258-2.344a9.813 9.813 0 0 0-1.102-3.281c-0.625-1.156-1.507-2.164-2.648-3.024s-2.758-1.289-4.852-1.289c-1.437 0-2.773 0.243-4.007 0.727s-2.102 0.992-2.602 1.523c0 0.625 0.148 1.547 0.445 2.766s0.446 2.344 0.446 3.375c0 1.094-0.493 2.094-1.477 3s-2.352 1.36-4.102 1.36c-1.562 0-2.71-0.555-3.445-1.665-0.734-1.11-1.101-2.351-1.101-3.726 0-1.438 0.507-2.813 1.523-4.125 1.016-1.313 2.336-2.485 3.96-3.516 1.407-0.875 3.11-1.617 5.11-2.227s3.953-0.914 5.86-0.914c2.625 0 4.914 0.18 6.867 0.54a12.609 12.609 0 0 1 5.32 2.32c1.594 1.156 2.805 2.726 3.633 4.71s1.242 4.54 1.242 7.665c0 4.469-0.047 8.43-0.14 11.883a419.55 419.55 0 0 0-0.141 11.32c0 1.219 0.21 2.187 0.633 2.906 0.422 0.719 1.07 1.328 1.945 1.828 0.469 0.281 1.21 0.438 2.227 0.469 1.015 0.031 2.054 0.047 3.117 0.047zm-16.359-24.75c-2.656 0.781-4.984 1.547-6.984 2.297s-3.86 1.687-5.579 2.812c-1.562 1.063-2.796 2.32-3.703 3.774-0.906 1.453-1.359 3.18-1.359 5.18 0 2.593 0.68 4.5 2.04 5.718 1.358 1.22 3.085 1.828 5.179 1.828 2.219 0 4.172-0.539 5.86-1.617s3.109-2.351 4.265-3.82z" fill="#c99e00" filter="url(#a)"/>
<path d="m141.73 126.05h-27.703v-3.328c2.437-0.156 4.46-0.469 6.07-0.938 1.61-0.468 2.414-1.047 2.414-1.734 0-0.281-0.03-0.625-0.093-1.031s-0.157-0.766-0.282-1.078l-5.53-14.906h-23.299c-0.875 2.187-1.586 4.093-2.133 5.718a287.22 287.22 0 0 0-1.476 4.5c-0.406 1.344-0.688 2.438-0.844 3.282-0.156 0.843-0.234 1.53-0.234 2.062 0 1.25 0.984 2.219 2.953 2.906 1.969 0.688 4.187 1.094 6.656 1.22v3.327h-25.03v-3.328c0.813-0.062 1.828-0.242 3.047-0.539s2.219-0.695 3-1.195c1.25-0.844 2.219-1.727 2.906-2.649s1.36-2.195 2.016-3.82c3.344-8.344 7.03-17.719 11.062-28.125s7.625-19.672 10.78-27.797h3.75l22.173 57.375c0.468 1.219 1 2.203 1.594 2.953 0.593 0.75 1.421 1.485 2.484 2.203 0.719 0.438 1.656 0.805 2.812 1.102 1.157 0.297 2.125 0.46 2.907 0.492zm-26.812-27.187-10.078-25.781-9.89 25.781zm71.766 26.344a69.72 69.72 0 0 1-3.867 1.29c-1.11 0.327-2.367 0.491-3.774 0.491-2.437 0-4.382-0.57-5.836-1.71s-2.382-2.805-2.789-4.993h-0.28c-2.032 2.25-4.212 3.969-6.54 5.156-2.328 1.188-5.133 1.782-8.414 1.782-3.469 0-6.32-1.063-8.555-3.188-2.234-2.125-3.351-4.906-3.351-8.344 0-1.781 0.25-3.375 0.75-4.78 0.5-1.407 1.25-2.673 2.25-3.798 0.78-0.937 1.812-1.773 3.093-2.508 1.282-0.734 2.485-1.32 3.61-1.757 1.406-0.532 4.258-1.516 8.555-2.954 4.296-1.437 7.195-2.562 8.695-3.375v-4.64c0-0.406-0.086-1.188-0.258-2.344a9.813 9.813 0 0 0-1.102-3.281c-0.625-1.156-1.507-2.164-2.648-3.024s-2.758-1.289-4.852-1.289c-1.437 0-2.773 0.243-4.007 0.727s-2.102 0.992-2.602 1.523c0 0.625 0.148 1.547 0.445 2.766s0.446 2.344 0.446 3.375c0 1.094-0.493 2.094-1.477 3s-2.352 1.36-4.102 1.36c-1.562 0-2.71-0.555-3.445-1.665-0.734-1.11-1.101-2.351-1.101-3.726 0-1.438 0.507-2.813 1.523-4.125 1.016-1.313 2.336-2.485 3.96-3.516 1.407-0.875 3.11-1.617 5.11-2.227s3.953-0.914 5.86-0.914c2.625 0 4.914 0.18 6.867 0.54a12.609 12.609 0 0 1 5.32 2.32c1.594 1.156 2.805 2.726 3.633 4.71s1.242 4.54 1.242 7.665c0 4.469-0.047 8.43-0.14 11.883a419.55 419.55 0 0 0-0.141 11.32c0 1.219 0.21 2.187 0.633 2.906 0.422 0.719 1.07 1.328 1.945 1.828 0.469 0.281 1.21 0.438 2.227 0.469 1.015 0.031 2.054 0.047 3.117 0.047zm-16.359-24.75c-2.656 0.781-4.984 1.547-6.984 2.297s-3.86 1.687-5.579 2.812c-1.562 1.063-2.796 2.32-3.703 3.774-0.906 1.453-1.359 3.18-1.359 5.18 0 2.593 0.68 4.5 2.04 5.718 1.358 1.22 3.085 1.828 5.179 1.828 2.219 0 4.172-0.539 5.86-1.617s3.109-2.351 4.265-3.82z" fill="#fbf4db" filter="url(#a)"/>
<path d="m152.74 115.54c0.16 2.079 0.827 3.644 2.001 4.697 1.36 1.219 3.086 1.828 5.18 1.828 2.219 0 4.172-0.539 5.86-1.617s3.109-2.352 4.265-3.82l0.246-14.162 0.035-0.01-0.281 16.171c-1.156 1.47-2.578 2.743-4.266 3.82s-3.64 1.618-5.86 1.618c-2.093 0-3.82-0.61-5.179-1.828-1.36-1.22-2.039-3.125-2.039-5.72 0-0.333 0.013-0.659 0.038-0.977zm-9.43 1.11c-0.02-0.313-0.03-0.631-0.03-0.956 0-1.781 0.25-3.375 0.75-4.781s1.25-2.672 2.25-3.797c0.781-0.938 1.813-1.773 3.094-2.508 1.281-0.734 2.484-1.32 3.61-1.758 1.405-0.53 4.257-1.515 8.554-2.953 4.297-1.437 7.195-2.562 8.695-3.375v2c-1.5 0.813-4.398 1.938-8.695 3.375-4.297 1.438-7.148 2.422-8.555 2.953-1.125 0.438-2.328 1.024-3.61 1.758-1.28 0.734-2.312 1.57-3.093 2.508-1 1.125-1.75 2.39-2.25 3.797-0.4 1.125-0.64 2.371-0.72 3.737zm11.68-30.672c0.061 0.303 0.134 0.63 0.22 0.982 0.297 1.219 0.445 2.344 0.445 3.375 0 0.241-0.024 0.478-0.072 0.71a16.154 16.154 0 0 0-0.373-2.085c-0.297-1.219-0.445-2.14-0.445-2.766a3.21 3.21 0 0 1 0.225-0.216zm-9.384 4.376a7.212 7.212 0 0 1-0.075-1.05c0-1.438 0.507-2.813 1.523-4.125 1.016-1.313 2.336-2.485 3.96-3.516 1.407-0.875 3.11-1.617 5.11-2.227s3.953-0.914 5.86-0.914c2.625 0 4.914 0.18 6.867 0.54a12.609 12.609 0 0 1 5.32 2.32c1.594 1.156 2.805 2.726 3.633 4.71s1.242 4.54 1.242 7.665c0 0.546 0 1.085-2e-3 1.617-0.033-2.952-0.446-5.379-1.24-7.281-0.828-1.985-2.04-3.555-3.633-4.711a12.61 12.61 0 0 0-5.32-2.32c-1.953-0.36-4.242-0.54-6.867-0.54-1.907 0-3.86 0.305-5.86 0.914s-3.703 1.352-5.11 2.227c-1.624 1.031-2.944 2.203-3.96 3.516-0.79 1.02-1.273 2.079-1.448 3.176zm33.162 26.851c0.027 1.104 0.236 1.991 0.63 2.661 0.421 0.719 1.07 1.328 1.945 1.828 0.469 0.281 1.21 0.438 2.226 0.469s2.055 0.047 3.118 0.047v2c-1.063 0-2.102-0.016-3.118-0.047-1.015-0.031-1.757-0.188-2.226-0.469-0.875-0.5-1.524-1.11-1.945-1.828-0.422-0.719-0.633-1.687-0.633-2.906 0-0.592 0-1.176 3e-3 -1.754zm-83.051-18.339h18.42l0.782 2h-19.97z" fill="#fff" filter="url(#a)"/>
<path d="m114.03 124.72v-2c2.438-0.156 4.46-0.469 6.07-0.938 1.174-0.341 1.92-0.742 2.238-1.2 0.032 0.139 0.06 0.283 0.083 0.435 0.062 0.406 0.093 0.75 0.093 1.031 0 0.688-0.804 1.266-2.414 1.734-1.61 0.47-3.633 0.782-6.07 0.938zm-25.297-5.434c0.306 0.922 1.254 1.66 2.844 2.215 1.968 0.688 4.187 1.094 6.656 1.22v2c-2.47-0.126-4.688-0.532-6.656-1.22s-2.954-1.656-2.954-2.906c0-0.363 0.037-0.8 0.11-1.309zm-15.531 5.434v-2c0.813-0.063 1.828-0.242 3.047-0.54 1.219-0.296 2.219-0.694 3-1.194 1.25-0.844 2.219-1.727 2.906-2.649s1.36-2.195 2.016-3.82c3.343-8.344 7.03-17.72 11.062-28.125s7.625-19.672 10.78-27.797h3.75l22.173 57.375c0.468 1.219 1 2.203 1.593 2.953 0.594 0.75 1.422 1.484 2.485 2.203 0.719 0.438 1.656 0.805 2.812 1.102 1.157 0.297 2.125 0.46 2.907 0.492v2c-0.782-0.031-1.75-0.195-2.907-0.492-1.156-0.297-2.093-0.664-2.812-1.102-1.063-0.719-1.89-1.453-2.485-2.203-0.593-0.75-1.125-1.734-1.593-2.953l-22.172-57.375h-3.75c-3.157 8.125-6.75 17.39-10.781 27.797s-7.719 19.78-11.062 28.125c-0.657 1.625-1.328 2.898-2.016 3.82s-1.656 1.805-2.906 2.649c-0.781 0.5-1.781 0.898-3 1.195s-2.235 0.476-3.047 0.539z" fill="#fff" filter="url(#a)"/>
<path d="m164.95 76.149c-2.944 0-4.955-2.539-4.955-5.483v-46.666l52 50v2.15z" filter="url(#a)" opacity=".096"/>
<path d="m164.95 74.149c-2.944 0-4.955-2.539-4.955-5.483v-46.666l52 52.15z" fill="#ffe587" filter="url(#a)"/>
<path d="m34 101.34a5.34 5.34 0 0 1 5.336-5.338h181.33a5.334 5.334 0 0 1 5.334 5.338v128.67a5.993 5.993 0 0 1-6.01 5.993h-179.98c-3.319 0-6.01-2.687-6.01-5.993z" fill="#c0d0df" filter="url(#a)"/>
<path d="m32 101.33a5.335 5.335 0 0 1 5.336-5.329h181.33a5.327 5.327 0 0 1 5.334 5.329v125.67a5.995 5.995 0 0 1-6.01 5.997h-179.98c-3.319 0-6.01-2.69-6.01-5.997z" fill="url(#b)" filter="url(#a)"/>
<path d="m242.7 134.52c1.35 3.028-0.233 5.483-3.565 5.483h-222.71c-3.318 0-4.921-2.446-3.572-5.483l16.46-37.034c1.346-3.028 5.115-5.483 8.447-5.483h179.98c3.32 0 7.1 2.447 8.454 5.483z" fill="url(#c)" filter="url(#a)"/>
<path d="m217.64 95.017c2.214 0 4.766 1.619 5.706 3.632l16.203 34.702c0.936 2.007-0.098 3.633-2.303 3.633l-218.94 0.014c-2.209 0-3.245-1.619-2.308-3.632l16.156-34.696c0.934-2.006 3.49-3.632 5.7-3.632z" fill="#f0f8fa" filter="url(#a)"/>
</g>
</svg>
