<svg width="256" height="256" version="1.1" viewBox="0 0 256 256" xmlns="http://www.w3.org/2000/svg" xmlns:xlink="http://www.w3.org/1999/xlink">
<defs>
<filter id="deepin-boot-maker-a" x="-18.8%" y="-11.5%" width="137.5%" height="123.1%">
<feOffset dy="4" in="SourceAlpha" result="shadowOffsetOuter1"/>
<feGaussianBlur in="shadowOffsetOuter1" result="shadowBlurOuter1" stdDeviation="5"/>
<feComposite in="shadowBlurOuter1" in2="SourceAlpha" operator="out" result="shadowBlurOuter1"/>
<feColorMatrix in="shadowBlurOuter1" result="shadowMatrixOuter1" values="0 0 0 0 0   0 0 0 0 0   0 0 0 0 0  0 0 0 0.2 0"/>
<feMerge>
<feMergeNode in="shadowMatrixOuter1"/>
<feMergeNode in="SourceGraphic"/>
</feMerge>
</filter>
<linearGradient id="deepin-boot-maker-c" x1="48.384" x2="109.32" y1="-2.3282e-32" y2="121.12" gradientTransform="scale(.95166 1.0508)" gradientUnits="userSpaceOnUse">
<stop stop-color="#9BBE34" offset="0"/>
<stop stop-color="#3A7D09" offset="1"/>
</linearGradient>
<path id="deepin-boot-maker-b" d="m126 0c9.9411-1.8262e-15 18 8.0589 18 18v141h-144v-102.22c6.4558e-15 -5.3043 2.1071-10.391 5.8579-14.142l36.784-36.784c3.7507-3.7507 8.8378-5.8579 14.142-5.8579h69.216zm2.5 8c-4.1421 0-7.5 3.3579-7.5 7.5s3.3579 7.5 7.5 7.5 7.5-3.3579 7.5-7.5-3.3579-7.5-7.5-7.5z"/>
<filter id="deepin-boot-maker-d" x="-1%" y="-.9%" width="102.1%" height="101.9%">
<feGaussianBlur in="SourceAlpha" result="shadowBlurInner1" stdDeviation=".5"/>
<feOffset dy="2" in="shadowBlurInner1" result="shadowOffsetInner1"/>
<feComposite in="shadowOffsetInner1" in2="SourceAlpha" k2="-1" k3="1" operator="arithmetic" result="shadowInnerInner1"/>
<feColorMatrix in="shadowInnerInner1" result="shadowMatrixInner1" values="0 0 0 0 1   0 0 0 0 1   0 0 0 0 1  0 0 0 0.3 0"/>
<feGaussianBlur in="SourceAlpha" result="shadowBlurInner2" stdDeviation="1"/>
<feOffset dx="-1" dy="-1" in="shadowBlurInner2" result="shadowOffsetInner2"/>
<feComposite in="shadowOffsetInner2" in2="SourceAlpha" k2="-1" k3="1" operator="arithmetic" result="shadowInnerInner2"/>
<feColorMatrix in="shadowInnerInner2" result="shadowMatrixInner2" values="0 0 0 0 0.0184287527   0 0 0 0 0.105044158   0 0 0 0 0.00466373642  0 0 0 0.35385708 0"/>
<feMerge>
<feMergeNode in="shadowMatrixInner1"/>
<feMergeNode in="shadowMatrixInner2"/>
</feMerge>
</filter>
<linearGradient id="deepin-boot-maker-g" x1="51.962" x2="51.962" y1="220.32" y2="320.26" gradientTransform="scale(1.3856 .72169)" gradientUnits="userSpaceOnUse">
<stop stop-color="#343434" offset="0"/>
<stop stop-color="#181818" offset="1"/>
</linearGradient>
<path id="deepin-boot-maker-h" d="m0 159h144v57c0 9.9411-8.0589 18-18 18h-108c-9.9411 0-18-8.0589-18-18v-57z"/>
<filter id="deepin-boot-maker-i" x="-1.4%" y="-2.7%" width="102.8%" height="105.3%">
<feGaussianBlur in="SourceAlpha" result="shadowBlurInner1" stdDeviation="1"/>
<feOffset dx="-2" dy="-2" in="shadowBlurInner1" result="shadowOffsetInner1"/>
<feComposite in="shadowOffsetInner1" in2="SourceAlpha" k2="-1" k3="1" operator="arithmetic" result="shadowInnerInner1"/>
<feColorMatrix in="shadowInnerInner1" values="0 0 0 0 0   0 0 0 0 0   0 0 0 0 0  0 0 0 0.2 0"/>
</filter>
<linearGradient id="deepin-boot-maker-j" x1="16.081" x2="81.747" y1="282.46" y2="293.6" gradientTransform="scale(1.4924 .67006)" gradientUnits="userSpaceOnUse">
<stop stop-color="#F1E274" offset="0"/>
<stop stop-color="#CEB214" offset=".18149"/>
<stop stop-color="#F2CC00" offset=".37816"/>
<stop stop-color="#E7BF00" offset=".56473"/>
<stop stop-color="#F9D53B" offset=".67568"/>
<stop stop-color="#E8B800" offset=".83443"/>
<stop stop-color="#FFCF00" offset="1"/>
</linearGradient>
<path id="deepin-boot-maker-k" d="m34 171c2.2091 0 4 1.7909 4 4v36c0 2.2091-1.7909 4-4 4h-6c-2.2091 0-4-1.7909-4-4v-36c0-2.2091 1.7909-4 4-4h6zm84 0c2.2091 0 4 1.7909 4 4v36c0 2.2091-1.7909 4-4 4h-6c-2.2091 0-4-1.7909-4-4v-36c0-2.2091 1.7909-4 4-4h6zm-28 0c2.2091 0 4 1.7909 4 4v24c0 2.2091-1.7909 4-4 4h-6c-2.2091 0-4-1.7909-4-4v-24c0-2.2091 1.7909-4 4-4h6zm-28 0c2.2091 0 4 1.7909 4 4v24c0 2.2091-1.7909 4-4 4h-6c-2.2091 0-4-1.7909-4-4v-24c0-2.2091 1.7909-4 4-4h6z"/>
<filter id="deepin-boot-maker-l" x="-1%" y="-2.3%" width="102%" height="104.5%">
<feOffset dy="2" in="SourceAlpha" result="shadowOffsetInner1"/>
<feComposite in="shadowOffsetInner1" in2="SourceAlpha" k2="-1" k3="1" operator="arithmetic" result="shadowInnerInner1"/>
<feColorMatrix in="shadowInnerInner1" values="0 0 0 0 0.926828578   0 0 0 0 0.558558022   0 0 0 0 0  0 0 0 0.5 0"/>
</filter>
</defs>
<g transform="translate(-1.4038e-6)" fill-rule="evenodd">
<use transform="translate(56,11)" width="100%" height="100%" fill="url(#deepin-boot-maker-c)" filter="url(#deepin-boot-maker-a)" xlink:href="#deepin-boot-maker-b"/>
<use transform="translate(56,11)" width="100%" height="100%" fill="url(#deepin-boot-maker-g)" filter="url(#deepin-boot-maker-a)" xlink:href="#deepin-boot-maker-h"/>
<use transform="translate(56,11)" width="100%" height="100%" fill="#000000" filter="url(#deepin-boot-maker-d)" xlink:href="#deepin-boot-maker-b"/>
<use transform="translate(56,11)" width="100%" height="100%" fill="#000000" filter="url(#deepin-boot-maker-i)" xlink:href="#deepin-boot-maker-h"/>
<use transform="translate(56,11)" width="100%" height="100%" fill="url(#deepin-boot-maker-j)" filter="url(#deepin-boot-maker-a)" xlink:href="#deepin-boot-maker-k"/>
<use transform="translate(56,11)" width="100%" height="100%" fill="#000000" filter="url(#deepin-boot-maker-l)" xlink:href="#deepin-boot-maker-k"/>
</g>
</svg>
