<svg width="256" height="256" version="1.1" viewBox="0 0 256 256" xmlns="http://www.w3.org/2000/svg" xmlns:xlink="http://www.w3.org/1999/xlink">
<defs>
<filter id="preference-system-a" x="-11.4%" y="-11.4%" width="122.9%" height="122.9%">
<feOffset dy="4" in="SourceAlpha" result="shadowOffsetOuter1"/>
<feGaussianBlur in="shadowOffsetOuter1" result="shadowBlurOuter1" stdDeviation="5"/>
<feComposite in="shadowBlurOuter1" in2="SourceAlpha" operator="out" result="shadowBlurOuter1"/>
<feColorMatrix in="shadowBlurOuter1" result="shadowMatrixOuter1" values="0 0 0 0 0   0 0 0 0 0   0 0 0 0 0  0 0 0 0.2 0"/>
<feMerge>
<feMergeNode in="shadowMatrixOuter1"/>
<feMergeNode in="SourceGraphic"/>
</feMerge>
</filter>
<linearGradient id="preference-system-b" x1="124.38" x2="113.15" y1="243.81" gradientTransform="translate(10,10)" gradientUnits="userSpaceOnUse">
<stop stop-color="#444" offset=".01926"/>
<stop stop-color="#808080" offset="1"/>
</linearGradient>
<circle id="preference-system-c" cx="118" cy="118" r="75.091"/>
<filter id="preference-system-d" x="-5.3%" y="-5.3%" width="110.7%" height="110.7%">
<feGaussianBlur in="SourceAlpha" result="shadowBlurInner1" stdDeviation="5"/>
<feOffset dy="6" in="shadowBlurInner1" result="shadowOffsetInner1"/>
<feComposite in="shadowOffsetInner1" in2="SourceAlpha" k2="-1" k3="1" operator="arithmetic" result="shadowInnerInner1"/>
<feColorMatrix in="shadowInnerInner1" values="0 0 0 0 0   0 0 0 0 0   0 0 0 0 0  0 0 0 0.5 0"/>
</filter>
<path id="preference-system-f" d="m114.98 42.909c3.9848 0.47581 7.8577 1.3157 11.585 2.4854l-0.78092 8.7377c3.0008 1.1115 5.8766 2.4854 8.6004 4.0943l6.5077-6.3045c3.3385 2.0493 6.4758 4.3947 9.3752 6.9995l-4.7477 8.0344c2.2887 2.3353 4.3701 4.879 6.214 7.6005l9.3395-3.0769c2.086 3.1699 3.8994 6.5351 5.4069 10.062l-8.4088 5.6131c1.1141 3.1845 1.9444 6.5049 2.4598 9.93l10.572 1.4446c0.34865 2.7127 0.52841 5.4784 0.52841 8.286 0 0.93513-0.019943 1.8656-0.059426 2.791l-10.715 1.4635c-0.36865 3.5915-1.0816 7.0794-2.1049 10.429l9.392 6.2687c-1.1779 3.4229-2.6363 6.7153-4.3478 9.8496l-10.715-3.5305c-1.9212 3.1335-4.1473 6.0553-6.6365 8.723l5.886 9.9618c-2.5079 2.4594-5.2162 4.7152-8.0982 6.7406l-8.2478-7.9889c-3.1251 1.9965-6.4671 3.6768-9.9822 4.9964l1.0335 11.566c-3.2736 1.0554-6.6617 1.8557-10.141 2.3775l-4.0166-10.849c-1.8443 0.19317-3.7162 0.29217-5.6109 0.29217s-3.7666-0.099-5.6109-0.29217l-4.0166 10.849c-3.4794-0.52187-6.8677-1.3223-10.142-2.3777l1.0341-11.566c-3.515-1.3196-6.857-2.9999-9.9822-4.9964l-8.2468 7.9896c-2.8824-2.0255-5.591-4.2815-8.0992-6.7413l5.886-9.9618c-2.4892-2.6677-4.7153-5.5895-6.6365-8.723l-10.715 3.5305c-1.7114-3.134-3.1697-6.4261-4.3475-9.8486l9.3917-6.2697c-1.0233-3.3499-1.7362-6.8379-2.1049-10.429l-10.715-1.4635c-0.039483-0.92541-0.059425-1.8559-0.059425-2.791 0-2.8076 0.17976-5.5732 0.52841-8.286l10.572-1.4446c0.51548-3.4251 1.3457-6.7456 2.4598-9.93l-8.4088-5.6131c1.5075-3.5272 3.3209-6.8924 5.4069-10.062l9.3395 3.0769c1.8439-2.7215 3.9253-5.2652 6.214-7.6005l-4.7467-8.0353c2.8991-2.6045 6.0361-4.9495 9.3742-6.9986l6.5077 6.3045c2.7238-1.6089 5.5996-2.9828 8.6004-4.0943l-0.78191-8.7374c3.727-1.1698 7.6001-2.0098 11.585-2.4856l3.008 8.1223c1.5504-0.13575 3.1195-0.20504 4.7047-0.20504 1.5852 0 3.1543 0.069291 4.7047 0.20504zm-7.7121 19.497c-23.698 0-42.909 19.211-42.909 42.909 0 23.698 19.211 42.909 42.909 42.909 23.698 0 42.909-19.211 42.909-42.909 0-23.698-19.211-42.909-42.909-42.909z"/>
<filter id="preference-system-e" x="-9.3%" y="-4.7%" width="118.6%" height="118.8%">
<feOffset dy="6" in="SourceAlpha" result="shadowOffsetOuter1"/>
<feGaussianBlur in="shadowOffsetOuter1" result="shadowBlurOuter1" stdDeviation="3"/>
<feComposite in="shadowBlurOuter1" in2="SourceAlpha" operator="out" result="shadowBlurOuter1"/>
<feColorMatrix in="shadowBlurOuter1" values="0 0 0 0 0   0 0 0 0 0   0 0 0 0 0  0 0 0 0.2 0"/>
</filter>
<radialGradient id="preference-system-g" cx="107.27" cy="107.27" r="108.11" gradientTransform="scale(1 .99998)" gradientUnits="userSpaceOnUse">
<stop stop-color="#E2E5ED" offset="0"/>
<stop stop-color="#9DA3B5" offset=".48405"/>
<stop stop-color="#E7ECFF" offset="1"/>
</radialGradient>
<path id="preference-system-h" d="m127.25 0.13391 6.7306 1.528c2.6571 0.60322 4.4397 3.1027 4.1446 5.8113l-1.4897 13.677c-0.24649 2.2629 0.96219 4.4349 3.0151 5.4182l7.7519 3.713c2.067 0.99002 4.5346 0.55738 6.1414-1.0768l9.5054-9.6668c1.9228-1.9554 5.0109-2.1455 7.159-0.44054l5.4325 4.3118c2.1251 1.6868 2.656 4.6948 1.2366 7.0071l-7.1272 11.611c-1.1915 1.941-1.0273 4.4227 0.40956 6.1898l5.7799 7.1084c1.4321 1.7612 3.8178 2.4302 5.9568 1.6705l12.756-4.5308c2.5601-0.90934 5.3958 0.23916 6.6017 2.6737l3.0701 6.1987c1.2121 2.4472 0.39188 5.4144-1.905 6.8917l-11.221 7.2173c-1.9295 1.241-2.8561 3.5716-2.3054 5.7986l2.3773 9.6143c0.53686 2.1711 2.3645 3.7812 4.586 4.0401l13.681 1.5942c2.611 0.30425 4.6168 2.4559 4.7372 5.0818l0.25812 5.628c0.0059 0.12864 0.007166 0.25745 0.003794 0.38618l-0.072844 2.7812c-0.044704 1.7068-1.3374 3.1211-3.0333 3.3187l-14.865 1.7322c-2.3117 0.26938-4.1859 1.9988-4.6398 4.2815l-2.0596 10.357c-0.42976 2.1612 0.50596 4.3653 2.3592 5.5572l11.695 7.5217c2.2346 1.4372 3.0803 4.2939 1.9881 6.7159l-2.6652 5.9105c-1.1474 2.5445-4.0545 3.7837-6.6848 2.8495l-12.289-4.3649c-2.2081-0.78431-4.6698-0.044404-6.0796 1.8273l-6.6107 8.7769c-1.3263 1.7609-1.4401 4.1541-0.28678 6.0329l7.3525 11.978c1.3924 2.2683 0.91079 5.2146-1.1314 6.9215l-4.7255 3.9495c-2.1441 1.792-5.3049 1.6376-7.2641-0.35488l-9.2905-9.4482c-1.6361-1.6639-4.1602-2.079-6.243-1.0268l-9.997 5.0504c-1.9947 1.0077-3.1555 3.1466-2.9135 5.3682l1.5133 13.893c0.29299 2.6899-1.4634 5.1768-4.0963 5.8001l-5.775 1.3673c-2.6818 0.63496-5.4084-0.86586-6.3066-3.4714l-4.3775-12.699c-0.7816-2.2674-2.9735-3.7404-5.3681-3.6074l-5.1031 0.28328c-0.19804 0.010994-0.39653 0.010994-0.59457 0l-5.1031-0.28328c-2.3947-0.13293-4.5865 1.34-5.3681 3.6074l-4.3775 12.699c-0.89815 2.6055-3.6247 4.1063-6.3066 3.4714l-5.775-1.3673c-2.633-0.62339-4.3893-3.1103-4.0963-5.8001l1.5133-13.893c0.24199-2.2216-0.91885-4.3605-2.9135-5.3682l-9.997-5.0504c-2.0828-1.0522-4.6069-0.63708-6.243 1.0268l-9.2905 9.4482c-1.9592 1.9925-5.12 2.1469-7.2641 0.35488l-4.7255-3.9495c-2.0422-1.7069-2.5238-4.6532-1.1314-6.9215l7.3525-11.978c1.1533-1.8788 1.0396-4.272-0.28678-6.0329l-6.6107-8.7769c-1.4098-1.8717-3.8715-2.6116-6.0796-1.8273l-12.289 4.3649c-2.6303 0.93425-5.5374-0.30497-6.6848-2.8495l-2.6652-5.9105c-1.0922-2.4221-0.24651-5.2787 1.9881-6.7159l11.695-7.5217c1.8533-1.192 2.789-3.3961 2.3592-5.5572l-2.0596-10.357c-0.45392-2.2827-2.3281-4.0121-4.6398-4.2815l-14.865-1.7322c-1.6959-0.19762-2.9886-1.6119-3.0333-3.3187l-0.072844-2.7812c-0.0033716-0.12873-0.0021062-0.25754 0.0037937-0.38618l0.25813-5.628c0.12044-2.6259 2.1262-4.7776 4.7372-5.0818l13.681-1.5942c2.2215-0.25886 4.0492-1.869 4.586-4.0401l2.3773-9.6143c0.55067-2.227-0.37594-4.5577-2.3054-5.7986l-11.221-7.2173c-2.2969-1.4773-3.1171-4.4445-1.905-6.8917l3.0701-6.1987c1.2058-2.4346 4.0415-3.5831 6.6017-2.6737l12.756 4.5308c2.139 0.75977 4.5247 0.090746 5.9568-1.6705l5.7799-7.1084c1.4368-1.7671 1.601-4.2488 0.40956-6.1898l-7.1272-11.611c-1.4194-2.3123-0.88855-5.3204 1.2366-7.0071l5.4325-4.3118c2.148-1.7049 5.2362-1.5149 7.159 0.44054l9.5054 9.6668c1.6069 1.6341 4.0745 2.0668 6.1414 1.0768l7.7519-3.713c2.0529-0.9833 3.2616-3.1553 3.0151-5.4182l-1.4897-13.677c-0.29504-2.7086 1.4876-5.2081 4.1446-5.8113l6.7306-1.528c2.6691-0.60595 5.3663 0.89498 6.2583 3.4826l4.3844 12.719c0.77912 2.2602 2.96 3.7319 5.3476 3.6085 1.6207-0.083729 2.9511-0.12559 3.9914-0.12559 1.0403 0 2.3707 0.041864 3.9914 0.12559 2.3875 0.12334 4.5684-1.3483 5.3475-3.6085l4.3844-12.719c0.89197-2.5876 3.5892-4.0885 6.2583-3.4826zm48.243 92.66c-20.385-2.0941-41.054 7.6523-51.963 26.547-10.309 17.856-9.1846 39.175 1.1035 55.481 30.11-7.7159 52.366-35.033 52.366-67.549 0-4.6211-0.44954-9.1372-1.3073-13.507zm-84.479 26.547c-10.909-18.895-31.579-28.642-51.965-26.546-0.98627 4.6706-1.505 9.5136-1.505 14.478 0 32.515 22.256 59.833 52.368 67.548 10.286-16.305 11.41-37.624 1.1015-55.48zm16.258-22.803c-5.9245 0-10.727 4.8028-10.727 10.727s4.8028 10.727 10.727 10.727 10.727-4.8028 10.727-10.727-4.8028-10.727-10.727-10.727zm-1.31e-4 -58.992c-19.365 0-36.886 7.8939-49.521 20.641 8.086 19.377 27.213 32.995 49.521 32.995 22.308 0 41.435-13.618 49.52-32.997-12.635-12.745-30.156-20.639-49.52-20.639z"/>
</defs>
<circle cx="128" cy="128" r="118" fill="url(#preference-system-b)" fill-rule="evenodd" filter="url(#preference-system-a)"/>
<g fill="#000000" fill-rule="evenodd">
<use transform="translate(10,10)" width="100%" height="100%" fill-opacity=".5" filter="url(#preference-system-a)" xlink:href="#preference-system-c"/>
<use transform="translate(10,10)" width="100%" height="100%" filter="url(#preference-system-d)" xlink:href="#preference-system-c"/>
<use transform="translate(20.727,20.727)" width="100%" height="100%" filter="url(#preference-system-e)" xlink:href="#preference-system-f"/>
</g>
<path d="m136.37 64.727-2.9969 8.094-0.76009-0.06655c-1.5291-0.13389-3.0692-0.20123-4.6175-0.20123-1.5483 0-3.0884 0.06734-4.6175 0.20123l-0.76002 0.06655-2.9975-8.094c-3.3503 0.44232-6.643 1.1497-9.8544 2.1127l0.7778 8.6915-0.71681 0.26551c-2.9276 1.0844-5.7507 2.4296-8.4392 4.0176l-0.65664 0.38786-6.4945-6.2917c-2.8033 1.7683-5.4647 3.7544-7.9591 5.9381l4.7176 7.9861-0.53703 0.54796c-2.2506 2.2964-4.2932 4.7942-6.1003 7.4614l-0.42357 0.62516-9.3249-3.0721c-1.739 2.7132-3.2691 5.5556-4.5753 8.5038l8.3581 5.5793-0.25597 0.73161c-1.1035 3.1541-1.9131 6.4148-2.4149 9.7486l-0.11146 0.74058-10.551 1.4417c-0.2841 2.443-0.42736 4.9123-0.42736 7.3995 0 0.63922 0.0095 1.2773 0.02835 1.9141l10.661 1.4561 0.0803 0.78226c0.35855 3.4931 1.0521 6.9184 2.0665 10.239l0.21719 0.71104-9.3648 6.2517c1.0131 2.8308 2.2268 5.5822 3.6306 8.2355l10.67-3.5157 0.41371 0.67478c1.8811 3.0682 4.0651 5.9378 6.5151 8.5635l0.51031 0.54692-5.8656 9.9272c2.1149 2.0238 4.3671 3.8999 6.7395 5.6136l8.2167-7.9604 0.66631 0.42567c3.0868 1.972 6.3682 3.6163 9.7953 4.9029l0.7123 0.26741-1.0302 11.523c2.7503 0.84836 5.5621 1.5088 8.4202 1.975l4.0022-10.809 0.77233 0.0809c1.8206 0.19067 3.6578 0.28672 5.5067 0.28672 1.849 0 3.6861-0.096 5.5067-0.28672l0.77233-0.0809 4.0022 10.809c2.8579-0.46624 5.6695-1.1266 8.4196-1.9749l-1.0296-11.523 0.71227-0.2674c3.4271-1.2866 6.7085-2.9309 9.7953-4.9029l0.66623-0.42562 8.2177 7.9597c2.3721-1.7135 4.6239-3.5894 6.7386-5.6129l-5.8656-9.9272 0.51031-0.54692c2.45-2.6258 4.634-5.4953 6.5151-8.5635l0.41371-0.67478 10.67 3.5157c1.4039-2.6535 2.6178-5.4053 3.631-8.2364l-9.3651-6.2507 0.21721-0.71111c1.0144-3.3209 1.7079-6.7462 2.0665-10.239l0.0803-0.78227 10.661-1.4561c0.0189-0.6368 0.0283-1.2749 0.0283-1.9141 0-2.4872-0.14325-4.9564-0.42735-7.3995l-10.551-1.4417-0.11145-0.74058c-0.50173-3.3338-1.3114-6.5946-2.4149-9.7486l-0.25597-0.73161 8.3581-5.5793c-1.3062-2.9482-2.8363-5.7906-4.5753-8.5038l-9.3249 3.0721-0.42356-0.62516c-1.8071-2.6672-3.8497-5.165-6.1003-7.4614l-0.53711-0.54804 4.7186-7.9852c-2.4946-2.184-5.1563-4.1703-7.96-5.9389l-6.4945 6.2917-0.65664-0.38786c-2.6885-1.588-5.5116-2.9332-8.4392-4.0176l-0.71673-0.26548 0.77681-8.6918c-3.2113-0.96296-6.5039-1.6703-9.8541-2.1125zm-8.3744 17.406c24.25 0 43.909 19.659 43.909 43.909s-19.659 43.909-43.909 43.909-43.909-19.659-43.909-43.909 19.659-43.909 43.909-43.909z" fill="#585f6c" fill-rule="evenodd" filter="url(#preference-system-a)" stroke="#fff" stroke-linejoin="square" stroke-opacity=".1" stroke-width="2"/>
<use transform="translate(20.727,20.727)" width="100%" height="100%" fill="url(#preference-system-g)" fill-rule="evenodd" filter="url(#preference-system-a)" xlink:href="#preference-system-h"/>
</svg>
