<svg width="64" height="64" version="1.1" viewBox="0 0 64 64" xmlns="http://www.w3.org/2000/svg" xmlns:xlink="http://www.w3.org/1999/xlink">
 <defs>
  <linearGradient id="application-x-blender-c" x1="23.367" x2="23.367" y2="46.44" gradientTransform="scale(.89872 1.1127)" gradientUnits="userSpaceOnUse">
   <stop stop-color="#FFBC2A" offset="0"/>
   <stop stop-color="#E77B00" offset="1"/>
  </linearGradient>
  <path id="application-x-blender-b" d="m29 0 13 13v34.5c0 2.4853-2.0147 4.5-4.5 4.5h-33c-2.4853 0-4.5-2.0147-4.5-4.5v-43c-3.0436e-16 -2.4853 2.0147-4.5 4.5-4.5h24.5z"/>
  <filter id="application-x-blender-a" x="-15.5%" y="-10.6%" width="131%" height="125%">
   <feOffset dy="1" in="SourceAlpha" result="shadowOffsetOuter1"/>
   <feGaussianBlur in="shadowOffsetOuter1" result="shadowBlurOuter1" stdDeviation="2"/>
   <feColorMatrix in="shadowBlurOuter1" values="0 0 0 0 0.874509804   0 0 0 0 0.498039216   0 0 0 0 0.0588235294  0 0 0 0.5 0"/>
  </filter>
  <linearGradient id="application-x-blender-f" x1="35.5" x2="30.364" y1="6.5" y2="11.855" gradientUnits="userSpaceOnUse">
   <stop stop-color="#FFF" stop-opacity=".1" offset="0"/>
   <stop stop-color="#FFF" stop-opacity=".3" offset="1"/>
  </linearGradient>
  <path id="application-x-blender-e" d="m29 0 13 13h-8.5c-2.4853 0-4.5-2.0147-4.5-4.5v-8.5z"/>
  <filter id="application-x-blender-d" x="-26.9%" y="-19.2%" width="153.8%" height="153.8%">
   <feOffset dy="1" in="SourceAlpha" result="shadowOffsetOuter1"/>
   <feGaussianBlur in="shadowOffsetOuter1" result="shadowBlurOuter1" stdDeviation="1"/>
   <feComposite in="shadowBlurOuter1" in2="SourceAlpha" operator="out" result="shadowBlurOuter1"/>
   <feColorMatrix in="shadowBlurOuter1" values="0 0 0 0 0   0 0 0 0 0   0 0 0 0 0  0 0 0 0.05 0"/>
  </filter>
 </defs>
 <g transform="translate(11,7)" fill-rule="evenodd" opacity=".9">
  <use width="100%" height="100%" fill="#000000" filter="url(#application-x-blender-a)" xlink:href="#application-x-blender-b"/>
  <use width="100%" height="100%" fill="url(#application-x-blender-c)" xlink:href="#application-x-blender-b"/>
 </g>
 <use transform="translate(11,7)" width="100%" height="100%" fill="#000000" fill-rule="evenodd" filter="url(#application-x-blender-d)" xlink:href="#application-x-blender-e"/>
 <use transform="translate(11,7)" width="100%" height="100%" fill="url(#application-x-blender-f)" fill-rule="evenodd" xlink:href="#application-x-blender-e"/>
 <path d="m20 41.333 11 4.6667v-14l-11-4z" fill="#fff" fill-rule="evenodd"/>
 <path d="m32 32v14l12-5v-13.76z" fill="#fff" fill-rule="evenodd"/>
 <path d="m20 26.833 11.5 4.1667 12.5-5-10.5-3z" fill="#fff" fill-rule="evenodd"/>
</svg>
