<svg width="64" height="64" version="1.1" viewBox="0 0 64 64" xmlns="http://www.w3.org/2000/svg">
 <defs>
  <filter id="application-x-cd-image-a" x="-.155" y="-.106" width="1.31" height="1.25">
   <feOffset dy="1" in="SourceAlpha" result="shadowOffsetOuter1"/>
   <feGaussianBlur in="shadowOffsetOuter1" result="shadowBlurOuter1" stdDeviation="2"/>
   <feColorMatrix in="shadowBlurOuter1" values="0 0 0 0 0.505882353   0 0 0 0 0.741176471   0 0 0 0 0  0 0 0 0.5 0"/>
  </filter>
  <linearGradient id="application-x-cd-image-c" x1="23.367" x2="23.367" y2="46.733" gradientTransform="scale(.89872 1.1127)" gradientUnits="userSpaceOnUse">
   <stop stop-color="#B7EE43" offset="0"/>
   <stop stop-color="#6AD500" offset="1"/>
  </linearGradient>
  <filter id="application-x-cd-image-d" x="-.269" y="-.192" width="1.538" height="1.538">
   <feOffset dy="1" in="SourceAlpha" result="shadowOffsetOuter1"/>
   <feGaussianBlur in="shadowOffsetOuter1" result="shadowBlurOuter1" stdDeviation="1"/>
   <feComposite in="shadowBlurOuter1" in2="SourceAlpha" operator="out" result="shadowBlurOuter1"/>
   <feColorMatrix in="shadowBlurOuter1" values="0 0 0 0 0   0 0 0 0 0   0 0 0 0 0  0 0 0 0.05 0"/>
  </filter>
  <linearGradient id="application-x-cd-image-f" x1="35.5" x2="30.364" y1="6.5" y2="11.855" gradientUnits="userSpaceOnUse">
   <stop stop-color="#FFF" stop-opacity=".1" offset="0"/>
   <stop stop-color="#FFF" stop-opacity=".3" offset="1"/>
  </linearGradient>
 </defs>
 <g transform="translate(11,7)" fill-rule="evenodd">
  <path d="m29 0 13 13v34.5c0 2.4853-2.0147 4.5-4.5 4.5h-33c-2.4853 0-4.5-2.0147-4.5-4.5v-43c0-2.4853 2.0147-4.5 4.5-4.5z" filter="url(#application-x-cd-image-a)"/>
  <path d="m29 0 13 13v34.5c0 2.4853-2.0147 4.5-4.5 4.5h-33c-2.4853 0-4.5-2.0147-4.5-4.5v-43c0-2.4853 2.0147-4.5 4.5-4.5z" fill="url(#application-x-cd-image-c)"/>
  <path d="m29 0 13 13h-8.5c-2.4853 0-4.5-2.0147-4.5-4.5z" filter="url(#application-x-cd-image-d)"/>
  <path d="m29 0 13 13h-8.5c-2.4853 0-4.5-2.0147-4.5-4.5z" fill="url(#application-x-cd-image-f)"/>
 </g>
 <path d="m30.818 22.625-5.6545 0.58748 0.37794 5.6662zm2.3639 0 5.2766 6.2537 0.37794-5.6662zm4.4908 6.8732-5.6728-6.7233-5.675 6.726zm-5.7299-7.9954c0.0033-3.78e-4 0.0066-7.23e-4 0.01-1e-3l0.047114-0.004933 0.04715 0.0049c0.0033 3.12e-4 0.0066 6.57e-4 0.01 1e-3l7.7581 0.80604 6.5776 7.8267-14.393 18.509-14.393-18.509 6.5776-7.8267zm-7.7396 2.3384-4.7579 5.6613 5.1354-0.0012zm15.594 0-0.3773 5.6567 5.1302-0.0012zm-6.6025 21.638 11.651-14.983-5.5728 0.0013zm-2.3886 0-6.0768-14.978-5.5695 0.0013zm-4.9978-14.979 6.1921 15.262 6.1933-15.265z" fill="#fff" fill-rule="evenodd"/>
</svg>
