<svg width="20" height="20" version="1.1" viewBox="0 0 20 20" xmlns="http://www.w3.org/2000/svg">
<path d="m10 2c-4.4183 0-8 3.5817-8 8s3.5817 8 8 8 8-3.5817 8-8-3.5817-8-8-8zm-0.53711 2.002c0.08159-0.00635 0.1658 0.0072499 0.24609 0.044922l0.074219 0.041016 4.25 2.9102c0.26911 0.1842 0.2868 0.56317 0.060547 0.77539l-0.076172 0.058594-3.584 2.2793 3.584 2.2812c0.30264 0.19259 0.31164 0.63137 0.015625 0.83398l-4.25 2.9102c-0.33183 0.22714-0.7832-0.011943-0.7832-0.41406v-4.6992l-2.9824 1.8984c-0.20708 0.13178-0.47383 0.092019-0.63477-0.082031l-0.054688-0.070313c-0.13178-0.20708-0.092019-0.47382 0.082031-0.63476l0.072266-0.056641 3.0898-1.9668-3.0898-1.9668c-0.23297-0.14826-0.30255-0.45648-0.1543-0.68945 0.14826-0.23297 0.45648-0.30255 0.68945-0.1543l2.9824 1.8984v-4.6992c0-0.28005 0.21812-0.47899 0.46289-0.49805zm0.53711 1.4473v3.7539l2.8418-1.8086-2.8418-1.9453zm0 5.5723v3.7539l2.8418-1.9453-2.8418-1.8086z" fill="#fff"/>
</svg>
