<svg width="16" height="16" enable-background="new" version="1.1" xmlns="http://www.w3.org/2000/svg" xmlns:osb="http://www.openswatchbook.org/uri/2009/osb">
<title>Pop Symbolic Icon Theme</title>
<path d="m4.9685 1c-1.108 0-2 0.89199-2 2v10c0 1.108 0.89199 2 2 2h7c1.108 0 2-0.89199 2-2v-10c0-1.108-0.89199-2-2-2zm0 1h7c0.554 0 1 0.446 1 1v10c0 0.554-0.446 1-1 1h-7z" fill="#666"/>
<rect x="2.9685" y=".99999" width="2" height="14" ry="0" fill="#666"/>
<path d="m8.9685 5c-1.662 0-3 1.338-3 3s1.338 3 3 3h0.5c0.277 0 0.5-0.223 0.5-0.5s-0.223-0.5-0.5-0.5h-0.5c-1.108 0-2-0.892-2-2s0.892-2 2-2 2 0.892 2 2h-1a1 1 0 0 0-1-1 1 1 0 0 0-1 1 1 1 0 0 0 1 1h2c0.554 0 1-0.446 1-1 0-1.662-1.338-3-3-3z" fill="#666"/>
<rect x="12.969" y="3" width="2" height="3" ry="1" fill="#666"/>
<rect x="12.969" y="7" width="2" height="3" ry="1" fill="#666"/>
<rect x="12.969" y="11" width="2" height="3" ry="1" fill="#666"/>
</svg>
