<svg width="16" height="16" enable-background="new" version="1.1" xmlns="http://www.w3.org/2000/svg" xmlns:osb="http://www.openswatchbook.org/uri/2009/osb">
<title>Pop Symbolic Icon Theme</title>
<path d="m2.9685 2.0034c-1.108 0-2 0.892-2 2v5c0 1.108 0.892 2 2 2h10c1.108 0 2-0.892 2-2v-5c0-1.108-0.892-2-2-2h-5.7617zm0 1h10c0.554 0 1 0.446 1 1v5c0 0.554-0.446 1-1 1h-10c-0.554 0-1-0.446-1-1v-5c0-0.554 0.446-1 1-1z" enable-background="new" fill="#666"/>
<path d="m11.969 11.003-2 2-2-2z" enable-background="new" fill="#666"/>
<rect x="3.9685" y="5.0034" width="8" height="1" fill="#666"/>
<rect x="3.9685" y="7.0034" width="8" height="1" fill="#666"/>
</svg>
