<svg width="16" height="16.003" enable-background="new" version="1.1" xmlns="http://www.w3.org/2000/svg" xmlns:osb="http://www.openswatchbook.org/uri/2009/osb">
<title>Pop Symbolic Icon Theme</title>
<defs>
<filter color-interpolation-filters="sRGB">
<feBlend in2="BackgroundImage" mode="darken"/>
</filter>
</defs>
<g transform="translate(-804.03 -172)" fill="#666">
<path d="m806.03 173s-1 0-1 1v1h7 1 6s0-1-1-1h-6l-1-1z" color="#000000" enable-background="accumulate" style="text-decoration-line:none;text-indent:0;text-transform:none"/>
<path d="m805.03 176c-0.554 0-1 0.446-1 1v10c0 0.554 0.446 1 1 1h14c0.554 0 1-0.446 1-1v-10c0-0.554-0.446-1-1-1zm5.25 2h3.5c0.1385 0 0.25 0.1115 0.25 0.25v0.5c0 0.1385-0.1115 0.25-0.25 0.25h-3.5c-0.1385 0-0.25-0.1115-0.25-0.25v-0.5c0-0.1385 0.1115-0.25 0.25-0.25z"/>
</g>
</svg>
