<svg width="16" height="16" version="1.1" xmlns="http://www.w3.org/2000/svg">
<path d="m16 0c-1.462 0.79964-4.472 1.1006-7.3192 1.0666-2.235 0.0134-6.5977-0.1844-7.3473 2.0001 0.2832-0.3901 5.4788-2.1612 4.9564 0.0387-0.6151 1.7917-1.7139 3.2851-2.6555 4.907-0.9149 0.0686-2.1823 0.1085-2.968 0.6545 0.20457-0.1265 1.9472-0.4728 2.6454-0.0919-1.0688 1.768-2.1717 3.199-2.956 5.123-0.2159 0.662-0.70235 1.725 0.04464 2.204 0.63373 0.295 0.18992-0.13 0.44646-0.543 1.0749-2.311 2.5549-4.257 3.9056-6.4025 0.7889 0.3282 1.5539 0.9361 2.4142 1.0307 1.1715 0.1388 3.1902-1.5161 3.5002-2.6539-1.3339 1.0013-3.6348 0.6891-5.1554 0.6564l3.2831-5.0588c0.3232 0.0986 0.8936 0.1259 1.8373 0.1358 2.199 0.0626 5.01-0.7477 5.368-3.0667z" fill="#666"/>
</svg>
