<svg width="16" height="16" version="1.1" xmlns="http://www.w3.org/2000/svg">
<path d="m8 1a7 7 0 0 0-7 7 7 7 0 0 0 7 7 7 7 0 0 0 7-7 7 7 0 0 0-7-7zm-1.1855 0.64453c0.15834-0.035946 0.31818 0.05353 0.37109 0.20703l0.25976 0.75391c0.046211 0.13409 0.17477 0.22216 0.31641 0.21484 0.09614-0.00497 0.17657-0.00781 0.23828-0.00781s0.14018 0.00284 0.23633 0.00781c0.14163 0.00731 0.27019-0.080766 0.31641-0.21484l0.25977-0.75391c0.05291-0.1535 0.21276-0.24298 0.37109-0.20703l0.40039 0.091797c0.15762 0.035784 0.2636 0.18307 0.24609 0.34375l-0.089844 0.81055c-0.01462 0.13424 0.057905 0.26393 0.17969 0.32227l0.45898 0.2207c0.12262 0.05873 0.26991 0.032488 0.36523-0.064453l0.56445-0.57422c0.11406-0.116 0.2964-0.12653 0.42383-0.025391l0.32226 0.25586c0.12607 0.10006 0.15842 0.27885 0.07422 0.41602l-0.42383 0.68945c-0.07068 0.11514-0.05985 0.26236 0.02539 0.36719l0.3418 0.41992c0.08495 0.10448 0.22662 0.14468 0.35352 0.099609l0.75781-0.26758c0.15187-0.053944 0.31909 0.013779 0.39062 0.1582l0.18164 0.36719c0.0719 0.14517 0.02298 0.32057-0.11328 0.4082l-0.66406 0.42969c-0.11446 0.073616-0.16938 0.21164-0.13672 0.34375l0.14062 0.57031c0.03185 0.1288 0.1397 0.22292 0.27148 0.23828l0.8125 0.095703c0.15489 0.018049 0.2741 0.14501 0.28125 0.30078l0.01367 0.33398 2e-3 0.023437-0.0059 0.16406c-0.0027 0.10125-0.07909 0.18554-0.17969 0.19727l-0.88086 0.10352c-0.13714 0.01598-0.24846 0.11849-0.27539 0.25391l-0.12305 0.61328c-0.02549 0.1282 0.03069 0.25937 0.14062 0.33008l0.69336 0.44727c0.13256 0.08526 0.18198 0.25476 0.11719 0.39844l-0.1582 0.34961c-0.06807 0.15095-0.24045 0.22534-0.39648 0.16992l-0.72852-0.25977c-0.13099-0.04653-0.27574-0.0017-0.35938 0.10938l-0.39258 0.51953c-0.07868 0.10446-0.086 0.24597-0.01758 0.35742l0.43555 0.71094c0.0826 0.13456 0.05474 0.3089-0.06641 0.41016l-0.28125 0.23438c-0.12719 0.10631-0.31346 0.09867-0.42969-0.01953l-0.55078-0.56055c-0.09706-0.0987-0.24754-0.12492-0.37109-0.0625l-0.59375 0.30078c-0.11833 0.05978-0.18623 0.18657-0.17188 0.31836l0.089844 0.82422c0.01738 0.15957-0.087948 0.30677-0.24414 0.34375l-0.3418 0.08203c-0.15909 0.03767-0.31977-0.05246-0.37305-0.20703l-0.25977-0.75391c-0.04637-0.13451-0.1763-0.22078-0.31836-0.21289l-0.30273 0.01563h-0.037109l-0.30274-0.01563c-0.14206-0.0079-0.27199 0.07838-0.31836 0.21289l-0.25977 0.75391c-0.05328 0.15456-0.21395 0.2447-0.37305 0.20703l-0.3418-0.08203c-0.15619-0.03698-0.26152-0.18418-0.24414-0.34375l0.089844-0.82422c0.01436-0.13179-0.053548-0.25858-0.17188-0.31836l-0.59375-0.30078c-0.12356-0.06242-0.27404-0.0362-0.37109 0.0625l-0.55078 0.56055c-0.11623 0.1182-0.30445 0.12584-0.43164 0.01953l-0.2793-0.23438c-0.12115-0.10126-0.149-0.2756-0.066406-0.41016l0.43555-0.71094c0.06842-0.11146 0.061102-0.25296-0.017578-0.35742l-0.39258-0.51953c-0.08363-0.11104-0.22838-0.1559-0.35938-0.10938l-0.72852 0.25977c-0.15603 0.05542-0.33037-0.01898-0.39844-0.16992l-0.15625-0.34961c-0.06479-0.14368-0.015372-0.31318 0.11719-0.39844l0.69336-0.44727c0.10994-0.070709 0.16612-0.20187 0.14062-0.33008l-0.12304-0.61328c-0.02693-0.13541-0.13826-0.23793-0.27539-0.25391l-0.88086-0.10352c-0.1006-0.011723-0.17704-0.096015-0.17969-0.19727l-0.00586-0.16406 0.00195-0.023437 0.013672-0.33398c0.0071-0.15577 0.12636-0.28273 0.28125-0.30078l0.8125-0.095703c0.13178-0.015356 0.23964-0.10949 0.27148-0.23828l0.14063-0.57031c0.03267-0.13211-0.022258-0.27013-0.13672-0.34375l-0.66602-0.42969c-0.13626-0.087635-0.18323-0.26303-0.11133-0.4082l0.18164-0.36719c0.07153-0.14442 0.23875-0.21215 0.39062-0.1582l0.75781 0.26758c0.12689 0.045071 0.26856 0.00487 0.35352-0.099609l0.3418-0.41992c0.08524-0.10483 0.096071-0.25205 0.025391-0.36719l-0.42383-0.68945c-0.0842-0.13717-0.051852-0.31595 0.074218-0.41602l0.32227-0.25586c0.12742-0.10114 0.30976-0.09061 0.42383 0.025391l0.56445 0.57422c0.09532 0.096941 0.24262 0.12318 0.36524 0.064453l0.45898-0.2207c0.12178-0.058331 0.19431-0.18803 0.17969-0.32227l-0.089843-0.81055c-0.0175-0.16068 0.088476-0.30797 0.24609-0.34375zm1.1855 2.2188c-1.1488 0-2.1888 0.46872-2.9375 1.2266 0.48009 1.1485 1.6148 1.9551 2.9375 1.9551 1.3231 0 2.4562-0.8063 2.9355-1.957-0.74946-0.7556-1.7872-1.2246-2.9355-1.2246zm3.5918 3.2637c-1.0534 0.042957-2.0628 0.60924-2.6289 1.5898-0.61148 1.0591-0.5449 2.3237 0.066406 3.291 1.7857-0.45806 3.1055-2.0793 3.1055-4.0078 0-0.2769-0.02623-0.54693-0.07813-0.80859l-0.01172-0.050781c-0.15113-0.015492-0.30263-0.019809-0.45312-0.013672zm-7.1855 0.00195c-0.15059-0.00608-0.30381-0.00189-0.45508 0.013672-0.05844 0.27691-0.087891 0.56312-0.087891 0.85742 0 1.9285 1.3185 3.5498 3.1055 4.0078 0.61002-0.96723 0.67789-2.2319 0.066406-3.291-0.56609-0.9805-1.5748-1.5453-2.6289-1.5879zm3.5938 0.23438c-0.35145 0-0.63672 0.28526-0.63672 0.63672 0 0.35145 0.28526 0.63672 0.63672 0.63672s0.63477-0.28526 0.63477-0.63672c0-0.35145-0.28331-0.63672-0.63477-0.63672z" fill="#666" fill-rule="evenodd"/>
</svg>
