<svg width="16" height="16" version="1.1" viewBox="0 0 16 16" xmlns="http://www.w3.org/2000/svg">
<title>deepin-font-installer</title>
<g fill-rule="evenodd">
<path d="m3 14v-12h10v12z" fill="#e5b400"/>
<path d="m9.178 10h-2.902v-0.345c0.256-0.017 0.468-0.049 0.636-0.098s0.253-0.108 0.253-0.18a0.716 0.716 0 0 0-0.04-0.219l-0.525-1.19h-2.632c-0.032 0.084-0.06 0.164-0.085 0.237a29.69 29.69 0 0 0-0.155 0.467c-0.042 0.14-0.072 0.253-0.088 0.34a1.217 1.217 0 0 0-0.025 0.215c0 0.13 0.103 0.23 0.31 0.301 0.206 0.071 0.438 0.114 0.697 0.127v0.345h-2.622v-0.345c0.085-7e-3 0.192-0.026 0.32-0.056 0.127-0.031 0.232-0.072 0.313-0.124 0.131-0.088 0.233-0.18 0.305-0.275 0.072-0.096 0.142-0.228 0.211-0.397 0.35-0.866 0.736-1.838 1.159-2.918 0.422-1.08 0.798-2.042 1.129-2.885h0.393l2.322 5.954c0.049 0.127 0.105 0.229 0.167 0.307 0.062 0.077 0.149 0.154 0.26 0.228a1.1 1.1 0 0 0 0.295 0.115c0.12 0.03 0.222 0.047 0.304 0.05zm-2.878-3h-1.992l1.038-2.583zm7.4 2.793a7.526 7.526 0 0 1-0.409 0.132c-0.117 0.034-0.25 0.051-0.399 0.051-0.258 0-0.463-0.059-0.617-0.176s-0.252-0.288-0.295-0.512h-0.03a2.409 2.409 0 0 1-0.691 0.53c-0.246 0.121-0.543 0.182-0.89 0.182-0.367 0-0.668-0.109-0.904-0.327s-0.355-0.504-0.355-0.857c0-0.183 0.027-0.346 0.08-0.49s0.132-0.275 0.237-0.39c0.083-0.097 0.192-0.183 0.328-0.258 0.135-0.075 0.262-0.135 0.381-0.18 0.149-0.055 0.45-0.156 0.905-0.304 0.454-0.147 0.76-0.263 0.92-0.346v-0.476c0-0.042-0.01-0.122-0.028-0.241a0.967 0.967 0 0 0-0.397-0.647c-0.12-0.089-0.291-0.133-0.513-0.133-0.152 0-0.293 0.025-0.423 0.075s-0.223 0.102-0.275 0.156c0 0.064 0.015 0.16 0.047 0.284 0.031 0.125 0.047 0.24 0.047 0.347 0 0.112-0.052 0.215-0.156 0.308s-0.25 0.14-0.434 0.14c-0.165 0-0.287-0.058-0.364-0.172s-0.117-0.241-0.117-0.382a0.67 0.67 0 0 1 0.161-0.424c0.108-0.134 0.247-0.255 0.419-0.36 0.149-0.09 0.329-0.167 0.54-0.23s0.418-0.093 0.62-0.093c0.277 0 0.52 0.018 0.726 0.055 0.207 0.037 0.394 0.117 0.563 0.239 0.168 0.118 0.296 0.28 0.384 0.483 0.087 0.204 0.131 0.466 0.131 0.787 0 0.459-5e-3 0.865-0.015 1.22s-0.015 0.742-0.015 1.162c0 0.125 0.023 0.225 0.067 0.299s0.113 0.136 0.206 0.187c0.05 0.03 0.128 0.045 0.235 0.048 0.108 4e-3 0.218 5e-3 0.33 5e-3zm-1.73-2.523c-0.28 0.08-0.527 0.158-0.738 0.235a3.034 3.034 0 0 0-0.59 0.286 1.317 1.317 0 0 0-0.392 0.385 0.951 0.951 0 0 0-0.144 0.528c0 0.265 0.072 0.46 0.216 0.584a0.807 0.807 0 0 0 0.548 0.186c0.234 0 0.44-0.055 0.62-0.165 0.178-0.11 0.328-0.24 0.45-0.39z" fill="#fff"/>
<path d="m2 6h12v9h-12z" fill="#d0dfed"/>
<path d="m16 10h-16l1.5-4h13z" fill="#ccdcea"/>
<path d="m15 9h-14l1-3h12z" fill="#fff"/>
</g>
</svg>
