<svg width="16" height="16" version="1.1" viewBox="0 0 16 16" xmlns="http://www.w3.org/2000/svg" xmlns:xlink="http://www.w3.org/1999/xlink">
<defs>
<linearGradient id="preference-system-a" x1="7.3655" x2="6.7122" y1="14.185" y2="-8.8818e-16" gradientTransform="translate(1,1)" gradientUnits="userSpaceOnUse">
<stop stop-color="#444" offset="0"/>
<stop stop-color="#808080" offset="1"/>
</linearGradient>
<circle id="preference-system-b" cx="7" cy="7" r="4.455"/>
<filter id="preference-system-c" x="-5.6%" y="-5.6%" width="111.2%" height="111.2%">
<feGaussianBlur in="SourceAlpha" result="shadowBlurInner1" stdDeviation=".5"/>
<feOffset in="shadowBlurInner1" result="shadowOffsetInner1"/>
<feComposite in="shadowOffsetInner1" in2="SourceAlpha" k2="-1" k3="1" operator="arithmetic" result="shadowInnerInner1"/>
<feColorMatrix in="shadowInnerInner1" values="0 0 0 0 0   0 0 0 0 0   0 0 0 0 0  0 0 0 0.5 0"/>
</filter>
<radialGradient id="preference-system-d" cx="6.3634" cy="6.3633" r="6.4133" gradientTransform="matrix(1 0 0 .99999 1.636 1.636)" gradientUnits="userSpaceOnUse">
<stop stop-color="#E2E5ED" offset="0"/>
<stop stop-color="#9DA3B5" offset=".48405"/>
<stop stop-color="#E7ECFF" offset="1"/>
</radialGradient>
</defs>
<g fill-rule="evenodd">
<circle cx="8" cy="8" r="7" fill="url(#preference-system-a)"/>
<use transform="translate(1,1)" width="100%" height="100%" fill="#000000" fill-opacity=".5" xlink:href="#preference-system-b"/>
<use transform="translate(1,1)" width="100%" height="100%" fill="#000000" filter="url(#preference-system-c)" xlink:href="#preference-system-b"/>
<path d="m8.4574 4.1815c0.23621 0.028221 0.46579 0.078007 0.68672 0.14733l-0.04608 0.51842c0.17801 0.065937 0.34861 0.14744 0.51019 0.24288l0.38557-0.37429c0.19816 0.1216 0.38438 0.26078 0.55647 0.41537l-0.28148 0.47676c0.13577 0.13853 0.25924 0.28943 0.36863 0.45088l0.55398-0.18261c0.12375 0.18804 0.23133 0.38767 0.32077 0.59691l-0.49879 0.33307c0.06609 0.18891 0.11534 0.38588 0.14592 0.58907l0.62714 0.08544c0.02071 0.16101 0.03138 0.32516 0.03138 0.4918 0 0.055475-0.0012 0.11067-0.0035 0.16557l-0.63566 0.086815c-0.02187 0.21305-0.06416 0.41996-0.12486 0.61869l0.55709 0.37205c-0.06985 0.20294-0.15632 0.39815-0.25779 0.58399l-0.63571-0.2093c-0.11397 0.18589-0.24603 0.35922-0.39369 0.51747l0.34839 0.59172c-0.14871 0.14575-0.30929 0.27944-0.48016 0.39947l-0.48874-0.47429c-0.18539 0.11844-0.38364 0.21811-0.59216 0.2964l0.061213 0.68617c-0.19403 0.06255-0.39485 0.10999-0.60107 0.14095l-0.23869-0.64349c-0.10941 0.01146-0.22045 0.01733-0.33285 0.01733-0.1124 0-0.22344-0.0059-0.33285-0.01733l-0.2377 0.64364c-0.20664-0.03096-0.40786-0.07848-0.60227-0.14116l0.061423-0.6861c-0.20852-0.078284-0.40677-0.17796-0.59216-0.2964l-0.48874 0.47429c-0.17117-0.12024-0.33201-0.25419-0.48094-0.40024l0.34917-0.59095c-0.14766-0.15825-0.27972-0.33158-0.39369-0.51747l-0.63571 0.2093c-0.10147-0.18584-0.18794-0.38105-0.25779-0.58399l0.55709-0.37205c-0.060702-0.19873-0.103-0.40564-0.12487-0.61869l-0.63616-0.087443-3e-3 -0.16495c0-0.16664 0.010675-0.33079 0.03138-0.4918l0.62714-0.08544c0.030579-0.20319 0.079829-0.40016 0.14592-0.58907l-0.49879-0.33307c0.089432-0.20924 0.19701-0.40887 0.32077-0.59691l0.55399 0.18261c0.10938-0.16145 0.23286-0.31234 0.36863-0.45088l-0.28148-0.47676c0.17183-0.15435 0.35773-0.29334 0.55555-0.4148l0.38649 0.37373c0.16158-0.095443 0.33218-0.17695 0.51019-0.24288l-0.046132-0.5184c0.22126-0.069432 0.4512-0.11927 0.68778-0.14747l0.17766 0.48193c0.091972-0.00805 0.18506-0.012164 0.27909-0.012164 0.094034 0 0.18712 0.00411 0.27909 0.012164zm-0.45775 1.1566c-1.4058 0-2.5455 1.1396-2.5455 2.5455 0 1.4058 1.1396 2.5455 2.5455 2.5455 1.4058 0 2.5455-1.1396 2.5455-2.5455 0-1.4058-1.1396-2.5455-2.5455-2.5455z" fill="#585f6c"/>
<path d="m9.1848 1.6439 0.39927 0.090645c0.15762 0.035784 0.26337 0.18406 0.24587 0.34474l-0.088373 0.81132c-0.014622 0.13424 0.057079 0.26309 0.17886 0.32142l0.45986 0.22026c0.12262 0.05873 0.269 0.033065 0.36432-0.063876l0.56388-0.57345c0.11406-0.116 0.29726-0.12727 0.42468-0.026134l0.32226 0.25579c0.12607 0.10006 0.15756 0.27851 0.07336 0.41568l-0.4228 0.68876c-0.07068 0.11514-0.06094 0.26237 0.0243 0.36719l0.34288 0.42169c0.08495 0.10448 0.22648 0.14417 0.35337 0.099096l0.75671-0.26878c0.15187-0.053944 0.32009 0.014187 0.39162 0.15861l0.18212 0.36772c0.0719 0.14517 0.02325 0.32119-0.11301 0.40883l-0.66568 0.42814c-0.11446 0.073616-0.16943 0.21188-0.13676 0.34399l0.14103 0.57034c0.03185 0.1288 0.14027 0.22431 0.27205 0.23967l0.8116 0.094574c0.15489 0.018049 0.27388 0.14569 0.28102 0.30147l0.01531 0.33386 2.26e-4 0.022909-0.0043 0.16499c-0.0027 0.10125-0.07934 0.18515-0.17994 0.19687l-0.88184 0.10276c-0.13714 0.01598-0.24832 0.11857-0.27524 0.25399l-0.12218 0.61441c-0.02549 0.1282 0.03002 0.25896 0.13995 0.32967l0.69376 0.4462c0.13256 0.08526 0.18273 0.25472 0.11794 0.3984l-0.15813 0.35062c-0.06807 0.15095-0.24052 0.22446-0.39656 0.16904l-0.72899-0.25893c-0.13099-0.04653-0.27702-0.0026-0.36065 0.1084l-0.39216 0.52066c-0.07868 0.10446-0.08543 0.24643-0.01701 0.35789l0.43616 0.71053c0.0826 0.13456 0.05403 0.30934-0.06712 0.4106l-0.28032 0.23429c-0.12719 0.10631-0.3147 0.09715-0.43092-0.02105l-0.55113-0.56049c-0.09706-0.0987-0.24679-0.12333-0.37035-0.06091l-0.59304 0.2996c-0.11833 0.05978-0.18719 0.18666-0.17284 0.31845l0.089772 0.82416c0.017381 0.15957-0.08681 0.3071-0.243 0.34408l-0.34258 0.08111c-0.15909 0.037667-0.32084-0.051364-0.37412-0.20593l-0.25968-0.75334c-0.046366-0.13451-0.17639-0.22189-0.31845-0.214l-0.30273 0.0168h-0.035271l-0.30273-0.0168c-0.14206-0.0079-0.27208 0.07949-0.31845 0.214l-0.25968 0.75334c-0.05328 0.15456-0.21503 0.2436-0.37412 0.20593l-0.34258-0.081111c-0.15619-0.036981-0.26038-0.18451-0.243-0.34408l0.089772-0.82416c0.014355-0.13179-0.054509-0.25867-0.17284-0.31845l-0.59304-0.2996c-0.12356-0.06242-0.27329-0.037793-0.37035 0.060911l-0.55113 0.56049c-0.11623 0.1182-0.30373 0.12736-0.43092 0.021052l-0.28032-0.23429c-0.12115-0.10126-0.14972-0.27604-0.067119-0.4106l0.43616-0.71053c0.068417-0.11146 0.061669-0.25342-0.017012-0.35789l-0.39216-0.52066c-0.083632-0.11104-0.22966-0.15493-0.36065-0.1084l-0.72899 0.25893c-0.15603 0.055422-0.32849-0.018091-0.39655-0.16904l-0.1581-0.35062c-0.064789-0.14368-0.014623-0.31314 0.11794-0.3984l0.69376-0.4462c0.10994-0.070709 0.16545-0.20146 0.13995-0.32967l-0.12218-0.61441c-0.026927-0.13541-0.13811-0.23801-0.27524-0.25399l-0.88185-0.10276c-0.1006-0.011723-0.17729-0.095624-0.17994-0.19687l-0.00432-0.16499 2.25e-4 -0.022909 0.015311-0.33386c0.0071445-0.15577 0.12613-0.28342 0.28102-0.30147l0.8116-0.094574c0.13178-0.015356 0.2402-0.11087 0.27205-0.23967l0.14103-0.57034c0.032667-0.13211-0.022302-0.27037-0.13676-0.34399l-0.66568-0.42814c-0.13626-0.087635-0.18491-0.26366-0.11301-0.40883l0.18212-0.36772c0.071531-0.14442 0.23975-0.21255 0.39162-0.15861l0.75671 0.26878c0.12689 0.045071 0.26842 0.00538 0.35337-0.099096l0.34288-0.42169c0.085235-0.10483 0.094976-0.25205 0.024296-0.36719l-0.4228-0.68876c-0.084202-0.13717-0.052711-0.31562 0.073357-0.41568l0.32226-0.25579c0.12743-0.10114 0.31062-0.089867 0.42468 0.026134l0.56388 0.57345c0.095322 0.096941 0.24171 0.12261 0.36432 0.063876l0.45986-0.22026c0.12178-0.058331 0.19348-0.18718 0.17886-0.32142l-0.088373-0.81132c-0.017502-0.16068 0.088246-0.30896 0.24587-0.34474l0.39927-0.090645c0.15834-0.035946 0.31834 0.053092 0.37125 0.20659l0.26009 0.75451c0.046211 0.13409 0.17559 0.22139 0.31723 0.21407 0.096143-0.00497 0.17507-0.00745 0.23678-0.00745 0.061711 0 0.14064 0.00248 0.23678 0.00745 0.14163 0.0073139 0.27101-0.079989 0.31722-0.21407l0.26009-0.75451c0.052914-0.1535 0.21292-0.24254 0.37125-0.20659zm-2.1496 7.0716c-0.64696-1.1206-1.8726-1.6987-3.0828-1.5742-0.058435 0.27691-0.08917 0.56403-0.08917 0.85832 0 1.9285 1.3198 3.5488 3.1068 4.0068 0.61002-0.96723 0.67664-2.2318 0.065158-3.2909zm5.0108-1.5749c-1.209-0.12394-2.4349 0.45423-3.0819 1.5749-0.61148 1.0591-0.54486 2.3237 0.066442 3.291 1.7857-0.45806 3.1055-2.0783 3.1055-4.0069 0-0.2769-0.02721-0.54745-0.0791-0.80912zm-4.0463 0.22219c-0.35145 0-0.63636 0.28491-0.63636 0.63636 0 0.35145 0.28491 0.63636 0.63636 0.63636s0.63636-0.28491 0.63636-0.63636c0-0.35145-0.28491-0.63636-0.63636-0.63636zm-7.7e-6 -3.4995c-1.1488 0-2.1883 0.46836-2.9369 1.2262 0.48009 1.1485 1.6143 1.9556 2.9369 1.9556 1.3231 0 2.4575-0.80754 2.9368-1.9583-0.74946-0.7556-1.7885-1.2235-2.9368-1.2235z" fill="url(#preference-system-d)"/>
</g>
</svg>
