<svg width="24" height="24" version="1.1" xmlns="http://www.w3.org/2000/svg">
<defs>
<style id="current-color-scheme" type="text/css">.ColorScheme-Text { color:#d3dae3; } .ColorScheme-Highlight { color:#5294e2; }</style>
</defs>
<path class="ColorScheme-Text" d="m12-1.125e-5c-4.2605 0-7.7142 3.4636-7.7142 7.7334 0 2.5318 1.1916 4.7418 3.0616 6.1519 0.86014 0.65107 1.5718 1.4898 1.5718 2.6468l0.080848 1.4673h5.9998l0.08565-1.4673c0.0675-1.1552 0.70828-1.9958 1.5669-2.6468 1.8715-1.4101 3.0616-3.6202 3.0616-6.1519 0-4.2698-3.4535-7.7334-7.7142-7.7334zm0 3.0905c2.5549 0 4.6284 2.0842 4.6284 4.643 0 1.4618-0.66568 2.8072-1.8321 3.6835-1.7403 1.3168-2.3998 2.7878-2.642 4.0114h-0.30854c-0.2407-1.2235-0.90101-2.6945-2.642-4.0114-1.1633-0.87709-1.8321-2.2223-1.8321-3.6835 0-2.5588 2.0743-4.643 4.6284-4.643zm-2.9999 16.41v1.5h5.9998v-1.5zm1.5 2.9999v1.5h2.9999v-1.5z" color="#d3dae3" fill="#444" opacity=".35" stroke-width="1.5"/>
</svg>
