<svg width="22" height="22" version="1.1" xmlns="http://www.w3.org/2000/svg">
<defs>
<style id="current-color-scheme" type="text/css">.ColorScheme-Text { color:#dfdfdf; } .ColorScheme-Highlight { color:#4285f4; }</style>
</defs>
<path d="m11 4c-0.26252 0-0.52047 0.016937-0.77539 0.044922-2.7299 0.29968-4.9766 2.1618-5.8398 4.6758-0.00636 0.01834-0.013315 0.03628-0.019531 0.05469-0.10779 0.32268-0.19168 0.65616-0.25195 0.99805-0.010049 0.05631-0.016706 0.11314-0.025391 0.16992-0.052227 0.34557-0.087891 0.69622-0.087891 1.0566v4.666s-1.144e-4 0.32801 0.12305 0.73828c0.082108 0.27351 0.21932 0.58391 0.44727 0.85742 0.34191 0.41027 0.88867 0.73828 1.7637 0.73828h2.666v-6h-3v-1c0-0.18781 0.014741-0.37473 0.041016-0.55859 0.00122-0.0085 0.00264-0.01689 0.00391-0.02539 0.025845-0.17304 0.064499-0.34319 0.11133-0.51172 0.024323-0.09373 0.061681-0.18319 0.091797-0.27539 0.094328-0.27161 0.20587-0.53824 0.3457-0.79297a5 5.3593 0 0 1 0.41992-0.69336c0.68185-0.91256 1.6488-1.609 2.7246-1.9316 0.18988-0.059754 0.38087-0.11338 0.57617-0.14844 0.22516-0.040418 0.45445-0.0625 0.68555-0.0625s0.46038 0.022082 0.68555 0.0625c0.1953 0.035058 0.38629 0.088683 0.57617 0.14844 2.0577 0.61704 3.7383 2.63 3.7383 4.7891v1h-3v6h2.666c1.42 0 1.9717-0.86234 2.1895-1.5391 0.0027-0.0041 0.0051-0.0076 0.0078-0.01172l-2e-3 -2e-3c0.13576-0.42914 0.13867-0.78125 0.13867-0.78125v-4.666c0-3.6108-2.7183-6.5702-6.2246-6.9551-0.25492-0.027985-0.51287-0.044922-0.77539-0.044922z" fill="#dfdfdf" opacity=".3"/>
</svg>
