<svg width="22" height="22" version="1.1" xmlns="http://www.w3.org/2000/svg">
<defs>
<style id="current-color-scheme" type="text/css">.ColorScheme-Text { color:#dfdfdf; } .ColorScheme-Highlight { color:#4285f4; }</style>
</defs>
<g transform="translate(19 3)" fill="#dfdfdf">
<path d="m-12 1c-1.1046 0-2 0.89543-2 2v10c0 1.1046 0.89543 2 2 2h8c1.1046 0 2-0.89543 2-2v-10c0-1.1046-0.89543-2-2-2zm-0.0039 10h8.0078c0.54974 0 0.99609 0.44175 0.99609 0.99805v1.0039l-0.0059 0.11524c-0.05865 0.49682-0.48902 0.88281-0.99021 0.88281h-8.0078l-0.11719-0.0059c-0.49505-0.05716-0.87891-0.47563-0.87891-0.99219v-1.0039l0.0078-0.11524c0.05869-0.49682 0.4871-0.88281 0.98828-0.88281z"/>
<path d="m-11.5 12h7c0.27614 0 0.5 0.22386 0.5 0.5 0 0.24546-0.17688 0.44961-0.41012 0.49194l-0.089876 0.0081h-7c-0.27614 0-0.5-0.22386-0.5-0.5 0-0.24546 0.17688-0.44961 0.41012-0.49194l0.089876-0.0081h7z"/>
</g>
</svg>
