<svg width="256" height="256" version="1.1" viewBox="0 0 256 256" xmlns="http://www.w3.org/2000/svg" xmlns:xlink="http://www.w3.org/1999/xlink">
 <defs>
  <linearGradient id="x-office-drawing-c" x1="93.467" x2="93.467" y2="183.1" gradientTransform="scale(.89872 1.1127)" gradientUnits="userSpaceOnUse">
   <stop stop-color="#BA58FF" offset="0"/>
   <stop stop-color="#7E21FF" offset="1"/>
  </linearGradient>
  <path id="x-office-drawing-b" d="m116 0 52 52v138c0 9.9411-8.0589 18-18 18h-132c-9.9411 0-18-8.0589-18-18v-172c-1.2174e-15 -9.9411 8.0589-18 18-18h98z"/>
  <filter id="x-office-drawing-a" x="-13.7%" y="-9.1%" width="127.4%" height="122.1%">
   <feOffset dy="4" in="SourceAlpha" result="shadowOffsetOuter1"/>
   <feGaussianBlur in="shadowOffsetOuter1" result="shadowBlurOuter1" stdDeviation="7"/>
   <feColorMatrix in="shadowBlurOuter1" values="0 0 0 0 0.497310222   0 0 0 0 0   0 0 0 0 0.911005435  0 0 0 0.5 0"/>
  </filter>
  <linearGradient id="x-office-drawing-f" x1="142" x2="120.16" y1="26" y2="46.224" gradientUnits="userSpaceOnUse">
   <stop stop-color="#FFF" stop-opacity=".1" offset="0"/>
   <stop stop-color="#FFF" stop-opacity=".3" offset="1"/>
  </linearGradient>
  <path id="x-office-drawing-e" d="m116 0 52 52h-34c-9.9411 0-18-8.0589-18-18v-34z"/>
  <filter id="x-office-drawing-d" x="-13.5%" y="-9.6%" width="126.9%" height="126.9%">
   <feOffset dy="2" in="SourceAlpha" result="shadowOffsetOuter1"/>
   <feGaussianBlur in="shadowOffsetOuter1" result="shadowBlurOuter1" stdDeviation="2"/>
   <feComposite in="shadowBlurOuter1" in2="SourceAlpha" operator="out" result="shadowBlurOuter1"/>
   <feColorMatrix in="shadowBlurOuter1" values="0 0 0 0 0   0 0 0 0 0   0 0 0 0 0  0 0 0 0.05 0"/>
  </filter>
 </defs>
 <g transform="translate(44,28)" fill-rule="evenodd">
  <use width="100%" height="100%" fill="#000000" filter="url(#x-office-drawing-a)" xlink:href="#x-office-drawing-b"/>
  <use width="100%" height="100%" fill="url(#x-office-drawing-c)" xlink:href="#x-office-drawing-b"/>
  <use width="100%" height="100%" fill="#000000" filter="url(#x-office-drawing-d)" xlink:href="#x-office-drawing-e"/>
  <use width="100%" height="100%" fill="url(#x-office-drawing-f)" xlink:href="#x-office-drawing-e"/>
 </g>
 <path d="m124 98-24 78-15.392-46h-40.608v16h31.312l24.688 68 24-76 16 48 20-48 15 48h37v-16h-28l-24-64-20 44z" fill="#fff" stroke-width="4"/>
</svg>
