<svg width="256" height="256" version="1.1" viewBox="0 0 256 256" xmlns="http://www.w3.org/2000/svg" xmlns:xlink="http://www.w3.org/1999/xlink">
 <defs>
  <linearGradient id="application-x-7zip-c" x1="93.467" x2="93.467" y2="186.93" gradientTransform="scale(.89872 1.1127)" gradientUnits="userSpaceOnUse">
   <stop stop-color="#5C42B1" offset="0"/>
   <stop stop-color="#3E1888" offset=".99345"/>
  </linearGradient>
  <path id="application-x-7zip-b" d="m116 0 52 52v138c0 9.9411-8.0589 18-18 18h-132c-9.9411 0-18-8.0589-18-18v-172c-1.2174e-15 -9.9411 8.0589-18 18-18h98z"/>
  <filter id="application-x-7zip-a" x="-13.7%" y="-9.1%" width="127.4%" height="122.1%">
   <feOffset dy="4" in="SourceAlpha" result="shadowOffsetOuter1"/>
   <feGaussianBlur in="shadowOffsetOuter1" result="shadowBlurOuter1" stdDeviation="7"/>
   <feColorMatrix in="shadowBlurOuter1" values="0 0 0 0 0.241013895   0 0 0 0 0   0 0 0 0 0.621603261  0 0 0 0.5 0"/>
  </filter>
  <linearGradient id="application-x-7zip-f" x1="142" x2="120.16" y1="26" y2="46.224" gradientUnits="userSpaceOnUse">
   <stop stop-color="#FFF" stop-opacity=".1" offset="0"/>
   <stop stop-color="#FFF" stop-opacity=".3" offset="1"/>
  </linearGradient>
  <path id="application-x-7zip-e" d="m116 0 52 52h-34c-9.9411 0-18-8.0589-18-18v-34z"/>
  <filter id="application-x-7zip-d" x="-13.5%" y="-9.6%" width="126.9%" height="126.9%">
   <feOffset dy="2" in="SourceAlpha" result="shadowOffsetOuter1"/>
   <feGaussianBlur in="shadowOffsetOuter1" result="shadowBlurOuter1" stdDeviation="2"/>
   <feComposite in="shadowBlurOuter1" in2="SourceAlpha" operator="out" result="shadowBlurOuter1"/>
   <feColorMatrix in="shadowBlurOuter1" values="0 0 0 0 0   0 0 0 0 0   0 0 0 0 0  0 0 0 0.05 0"/>
  </filter>
 </defs>
 <use transform="translate(44,28)" width="100%" height="100%" fill="#000000" fill-rule="evenodd" filter="url(#application-x-7zip-a)" xlink:href="#application-x-7zip-b"/>
 <use transform="translate(44,28)" width="100%" height="100%" fill="url(#application-x-7zip-c)" fill-rule="evenodd" xlink:href="#application-x-7zip-b"/>
 <use transform="translate(44,28)" width="100%" height="100%" fill="#000000" fill-rule="evenodd" filter="url(#application-x-7zip-d)" xlink:href="#application-x-7zip-e"/>
 <use transform="translate(44,28)" width="100%" height="100%" fill="url(#application-x-7zip-f)" fill-rule="evenodd" xlink:href="#application-x-7zip-e"/>
 <g transform="matrix(4,0,0,4,4,-8)" fill="#fff">
  <circle cx="18.5" cy="38.5" r="2.5"/>
  <circle cx="27.5" cy="38.5" r="2.5"/>
  <path d="m42 32a7 7 0 0 0-7 7 7 7 0 0 0 7 7 7 7 0 0 0 7-7 7 7 0 0 0-7-7zm0 2.8a4.2 4.2 0 0 1 4.2 4.2 4.2 4.2 0 0 1-4.2 4.2 4.2 4.2 0 0 1-4.2-4.2 4.2 4.2 0 0 1 4.2-4.2z"/>
  <path d="m36.848 41.494-3.5234 3.5059h-18.516l-4.8086 5.0039v4.3281l6.0859-6.332h18.477l4.4023-4.3789z"/>
 </g>
</svg>
