<svg width="256" height="256" version="1.1" viewBox="0 0 256 256" xmlns="http://www.w3.org/2000/svg" xmlns:xlink="http://www.w3.org/1999/xlink">
 <defs>
  <linearGradient id="rpm-c" x1="93.467" x2="93.467" y2="182.61" gradientTransform="scale(.89872 1.1127)" gradientUnits="userSpaceOnUse">
   <stop stop-color="#666E7B" offset="0"/>
   <stop stop-color="#475055" offset="1"/>
  </linearGradient>
  <path id="rpm-b" d="m116 0 52 52v138c0 9.9411-8.0589 18-18 18h-132c-9.9411 0-18-8.0589-18-18v-172c-1.2174e-15 -9.9411 8.0589-18 18-18h98z"/>
  <filter id="rpm-a" x="-13.7%" y="-9.1%" width="127.4%" height="122.1%">
   <feOffset dy="4" in="SourceAlpha" result="shadowOffsetOuter1"/>
   <feGaussianBlur in="shadowOffsetOuter1" result="shadowBlurOuter1" stdDeviation="7"/>
   <feColorMatrix in="shadowBlurOuter1" values="0 0 0 0 0.361595344   0 0 0 0 0.418797512   0 0 0 0 0.450973732  0 0 0 0.5 0"/>
  </filter>
  <linearGradient id="rpm-f" x1="142" x2="120.16" y1="26" y2="46.224" gradientUnits="userSpaceOnUse">
   <stop stop-color="#FFF" stop-opacity=".1" offset="0"/>
   <stop stop-color="#FFF" stop-opacity=".3" offset="1"/>
  </linearGradient>
  <path id="rpm-e" d="m116 0 52 52h-34c-9.9411 0-18-8.0589-18-18v-34z"/>
  <filter id="rpm-d" x="-13.5%" y="-9.6%" width="126.9%" height="126.9%">
   <feOffset dy="2" in="SourceAlpha" result="shadowOffsetOuter1"/>
   <feGaussianBlur in="shadowOffsetOuter1" result="shadowBlurOuter1" stdDeviation="2"/>
   <feComposite in="shadowBlurOuter1" in2="SourceAlpha" operator="out" result="shadowBlurOuter1"/>
   <feColorMatrix in="shadowBlurOuter1" values="0 0 0 0 0   0 0 0 0 0   0 0 0 0 0  0 0 0 0.05 0"/>
  </filter>
 </defs>
 <g transform="translate(44,28)" fill-rule="evenodd">
  <use width="100%" height="100%" fill="#000000" filter="url(#rpm-a)" xlink:href="#rpm-b"/>
  <use width="100%" height="100%" fill="url(#rpm-c)" xlink:href="#rpm-b"/>
  <use width="100%" height="100%" fill="#000000" filter="url(#rpm-d)" xlink:href="#rpm-e"/>
  <use width="100%" height="100%" fill="url(#rpm-f)" xlink:href="#rpm-e"/>
 </g>
 <path d="m104.25 102.42a5.1322 5.1396 0 0 0-0.48492 8e-3 5.1322 5.1396 0 0 0-1.3577 0.28286s-3.212 1.0616-6.9342 3.0226c-3.7218 1.961-8.243 4.7076-11.153 9.423-3.239 5.2484-2.0094 10.864-1.0021 14.224 1.0073 3.36 1.5608 4.8296 0.63036 7.0794-0.45438 1.0986-3.2414 3.4992-6.2874 4.9944-3.0484 1.4955-5.8108 2.279-5.8108 2.279a5.1322 5.1396 0 0 0-3.669 6.3198 5.1322 5.1396 0 0 0 3.669 6.1662s2.7646 0.7838 5.8108 2.279c3.0462 1.4952 5.8336 3.904 6.2874 5.0026 0.93039 2.2496 0.37691 3.7192-0.63036 7.0794-1.0073 3.36-2.2368 8.975 1.0021 14.224 2.9102 4.7154 7.4312 7.4622 11.153 9.423 3.7218 1.961 6.9342 3.0226 6.9342 3.0226a5.1322 5.1396 0 1 0 3.2326-9.7466s-2.4424-0.8269-5.3824-2.376c-2.9402-1.5491-6.0892-3.9364-7.2006-5.738-1.2576-2.0378-0.84628-2.7402 0.0888-5.8592 0.9351-3.1192 2.6254-8.3014 0.28286-13.965-2.0748-5.0158-6.2166-7.6708-9.9242-9.5848 3.7076-1.9145 7.8494-4.569 9.9242-9.5848 2.3426-5.6638 0.65228-10.846-0.28286-13.965-0.9351-3.1192-1.3464-3.8216-0.0888-5.8592 1.1118-1.8015 4.2608-4.197 7.2006-5.7462 2.9402-1.5491 5.3824-2.368 5.3824-2.368a5.1322 5.1396 0 0 0-1.382-10.034h-8e-3zm47.482 0a5.1322 5.1396 0 0 0-1.3658 10.038s2.4422 0.8188 5.3824 2.368c2.94 1.5492 6.0892 3.9446 7.2006 5.7462 1.2575 2.0376 0.84622 2.74-0.0888 5.8592-0.93516 3.119-2.6256 8.3014-0.28286 13.965 2.0748 5.0158 6.2166 7.6702 9.9242 9.5848-3.7078 1.9144-7.8494 4.569-9.9242 9.5848-2.3426 5.6638-0.65226 10.846 0.28286 13.965 0.93514 3.1192 1.3464 3.8216 0.0888 5.8592-1.1115 1.8015-4.2608 4.1888-7.2006 5.738-2.94 1.5491-5.3824 2.376-5.3824 2.376a5.1322 5.1396 0 1 0 3.2326 9.7466s3.2122-1.0616 6.9342-3.0226c3.7216-1.9612 8.2426-4.7076 11.153-9.423 3.239-5.2488 2.0094-10.864 1.0022-14.224-1.0073-3.3604-1.5608-4.83-0.63036-7.0794 0.45416-1.0986 3.2412-3.5074 6.2874-5.0026 3.0462-1.4952 5.8108-2.279 5.8108-2.279a5.1322 5.1396 0 0 0 3.6692-6.1662 5.1322 5.1396 0 0 0-3.6692-6.3198s-2.7624-0.7835-5.8108-2.279c-3.0462-1.4952-5.8332-3.896-6.2874-4.9944-0.93039-2.2498-0.37695-3.7194 0.63036-7.0794 1.0073-3.36 2.2368-8.9754-1.0022-14.224-2.9098-4.7154-7.4308-7.4622-11.153-9.423-3.722-1.9609-6.942-3.0226-6.942-3.0226a5.1322 5.1396 0 0 0-1.3531-0.28138 5.1322 5.1396 0 0 0-0.4924-8e-3 5.1322 5.1396 0 0 0-0.016 0zm-23.73 20.69a10.345 10.345 0 0 0-10.345 10.345 10.345 10.345 0 0 0 10.345 10.345 10.345 10.345 0 0 0 10.345-10.345 10.345 10.345 0 0 0-10.345-10.345zm0 31.034c-5.7136 0-10.345 4.6314-10.345 10.345s4.6314 10.345 10.345 10.345c3.6566 0 5.1722 10.345 5.1722 10.345s5.1722-18.633 5.1722-20.69c0-5.7136-4.6314-10.345-10.345-10.345z" fill="#fff" fill-rule="evenodd" stroke-width="4.1378"/>
</svg>
