<svg width="16" height="16" enable-background="new" version="1.1" xmlns="http://www.w3.org/2000/svg">
 <title>Pop Symbolic Icon Theme</title>
 <path d="m3.5855 2c-1.4278 0-2.5836 1.1579-2.5836 2.5859l-0.0019528 1.4141 0.0019528 2.127h13.998v-1.541h-2e-3c0-0.20126-0.0229-0.3979-0.0664-0.58594h-0.0078c-0.087127-0.37412-0.26152-0.70934-0.49213-1h0.02539c-0.03659-0.047066-0.0853-0.082566-0.12498-0.12695-0.0309-0.034353-0.06302-0.066926-0.09569-0.099609-0.085628-0.086096-0.17251-0.16877-0.2695-0.24219-0.0011-8.55e-4 -0.0028-0.0011-0.0039-0.00195-0.0022-0.00162-0.0037-0.00424-0.0059-0.00586-0.08557-0.064279-0.17605-0.1204-0.26944-0.17383l-4e-3 -0.0039c-0.0013-7.133e-4 -0.0026-0.00124-0.0039-0.00195-0.17686-0.10026-0.36468-0.18168-0.56437-0.23828-0.01469-0.00436-0.02817-0.011527-0.04296-0.015625-0.2111-0.055802-0.42924-0.089856-0.65799-0.089856h-1.7966c-0.68502 0-1.3106-0.38713-1.617-1-0.30636-0.61287-0.93384-1-1.6189-1zm-2.5836 7-0.001953 1.6406 0.00195 0.77344c-8.6e-6 0.26199 0.050682 0.50972 0.12303 0.74805 0.049215 0.16204 0.11309 0.31599 0.19138 0.46289 0.033795 0.06327 0.062785 0.12947 0.10155 0.18945 0.042497 0.06593 0.094435 0.12587 0.14256 0.1875 0.046937 0.05986 0.092575 0.12034 0.14451 0.17578 0.051069 0.05477 0.10648 0.10414 0.16209 0.1543 0.061538 0.05525 0.12472 0.109 0.19138 0.1582 0.054854 0.04065 0.11183 0.07897 0.1699 0.11524 0.077232 0.04802 0.15781 0.09105 0.2402 0.13086 0.05886 0.02853 0.11645 0.05796 0.17771 0.08203 0.092744 0.03634 0.18945 0.06233 0.28707 0.08789 0.054831 0.01439 0.10783 0.03412 0.16404 0.04492 0.15823 0.0303 0.32112 0.04883 0.48821 0.04883h8.8288c1.2256 0 2.2472-0.85516 2.5133-2h0.0039c0.0017-0.0075 2.41e-4 -0.01591 2e-3 -0.02344 0.04037-0.18153 0.0664-0.3688 0.0664-0.5625v-2.4141z" fill="#e0464f"/>
</svg>
