<svg width="16" height="16" version="1.1" viewBox="0 0 16 16" xmlns="http://www.w3.org/2000/svg">
 <defs>
  <style id="current-color-scheme" type="text/css">.ColorScheme-Text { color:#536076; } .ColorScheme-Highlight { color:#ffffff; }</style>
 </defs>
 <path class="ColorScheme-Text" d="m8 1c3.866 0 7 3.134 7 7s-3.134 7-7 7-7-3.134-7-7 3.134-7 7-7zm1.5 7h-3c-0.27614 0-0.5 0.22386-0.5 0.5s-0.22386 0.5-0.5 0.5h-0.5c-0.10986 0-0.21521 0.04364-0.29289 0.12132-0.16176 0.16176-0.16176 0.42403 0 0.58579l2.9393 2.9393c0.19526 0.19526 0.51184 0.19526 0.70711 0l2.9393-2.9393c0.07768-0.07768 0.12132-0.18304 0.12132-0.29289 0-0.22876-0.18545-0.41421-0.41421-0.41421h-0.5c-0.27614 0-0.5-0.22386-0.5-0.5s-0.22386-0.5-0.5-0.5zm0-2h-3c-0.27614 0-0.5 0.22386-0.5 0.5s0.22386 0.5 0.5 0.5h3c0.27614 0 0.5-0.22386 0.5-0.5s-0.22386-0.5-0.5-0.5zm0-2h-3c-0.27614 0-0.5 0.22386-0.5 0.5s0.22386 0.5 0.5 0.5h3c0.27614 0 0.5-0.22386 0.5-0.5s-0.22386-0.5-0.5-0.5z" fill="#26b2fa"/>
</svg>
