<?xml version="1.0" encoding="UTF-8"?>
<svg width="16" height="16" version="1.1" viewBox="0 0 16 16" xmlns="http://www.w3.org/2000/svg" xmlns:cc="http://creativecommons.org/ns#" xmlns:dc="http://purl.org/dc/elements/1.1/" xmlns:rdf="http://www.w3.org/1999/02/22-rdf-syntax-ns#">
 <metadata>
  <rdf:RDF>
   <cc:Work rdf:about="">
    <dc:format>image/svg+xml</dc:format>
    <dc:type rdf:resource="http://purl.org/dc/dcmitype/StillImage"/>
    <dc:title/>
   </cc:Work>
  </rdf:RDF>
 </metadata>
 <defs>
  <style id="current-color-scheme" type="text/css">.ColorScheme-Text { color:#444444; } .ColorScheme-Highlight { color:#5294e2; }</style>
 </defs>
 <path class="ColorScheme-Text" d="m2.9102 1.0352c-0.49829 0.0427-0.8373 0.47989-0.9375 0.9375-0.29175 0.89152-0.5919 1.7934-0.875 2.6875l-0.09375 0.375v8c0 0.554 0.446 1 1 1h12c0.554 0 1-0.446 1-1v-8l-0.125-0.46875c-0.33823-0.98973-0.64265-2.0178-1-3-0.21398-0.43813-0.7019-0.57677-1.1562-0.53125h-9.8125zm0.81836 2h8.5332c0.10804 0.32301 0.22204 0.66784 0.33203 1h-9.1914c0.10875-0.33377 0.21582-0.66405 0.32617-1zm3.2754 3h2v3h1.75l-2.75 3-2.75-3h1.75v-3z" fill="#808080"/>
</svg>
