<svg width="16" height="16" version="1.1" viewBox="0 0 16 16" xmlns="http://www.w3.org/2000/svg">
<defs>
<style id="current-color-scheme" type="text/css">.ColorScheme-Text { color:#536076; } .ColorScheme-Highlight { color:#ffffff; }</style>
</defs>
<path class="ColorScheme-Text" d="m11.525 1.3005c1.215 0 2.2 0.98497 2.2 2.2 0 1.215-0.98497 2.2-2.2 2.2-0.68291 0-1.2931-0.31116-1.6967-0.79944l-0.03049 0.017705-4 2c-0.036921 0.018461-0.074637 0.03359-0.11281 0.045502 0.045345 0.17124 0.068644 0.35267 0.068644 0.53954 0 0.17609-0.020688 0.34735-0.059767 0.51148l4.1458 2.0734c0.40357-0.48118 1.0093-0.78711 1.6864-0.78711 1.215 0 2.2 0.98497 2.2 2.2 0 1.215-0.98497 2.2-2.2 2.2-1.215 0-2.2-0.98497-2.2-2.2-0.045265-0.020038-0.089978-0.037194-0.13358-0.058997l-4.3292-2.1646c-0.0017542-8.7709e-4 -0.0035034-0.0017601-0.0052477-0.0026491-0.36456 0.26927-0.81591 0.42851-1.3044 0.42851-1.215 0-2.2-0.98497-2.2-2.2 0-1.215 0.98497-2.2 2.2-2.2 0.50434 0 0.96905 0.16971 1.3401 0.45513 0.062497-0.073219 0.14104-0.13573 0.23322-0.18182l4-2c0.064294-0.032147 0.131-0.054192 0.19831-0.066738-3.18e-4 -0.0031614-3.2555e-4 -0.0065245-3.2555e-4 -0.0098893 0-1.215 0.98497-2.2 2.2-2.2z" fill="#808080"/>
</svg>
