<svg width="16" height="16" version="1.1" viewBox="0 0 16 16" xmlns="http://www.w3.org/2000/svg">
<defs>
<style id="current-color-scheme" type="text/css">.ColorScheme-Text { color:#536076; } .ColorScheme-Highlight { color:#ffffff; }</style>
</defs>
<path class="ColorScheme-Text" d="m12.994 2c1.1078 0 2.0059 0.90195 2.0059 2.0085v7.9829c0 1.1093-0.89706 2.0085-2.0059 2.0085h-9.9883c-1.1078 0-2.0059-0.90195-2.0059-2.0085v-7.9829c0-1.1093 0.89706-2.0085 2.0059-2.0085h9.9883zm-3.9102 4.2226-1.3637 2.8216c-0.12164 0.25168-0.34293 0.25734-0.48614 0.0258l-0.88055-1.4237c-0.21847-0.21847-0.58084-0.18848-0.76042 0.062934l-2.5 3.5c-0.23638 0.33093 1.8046e-4 0.79062 0.40687 0.79062h9c0.38865 0 0.6287-0.42399 0.42875-0.75725l-3-5c-0.18885-0.31475-0.64117-0.32551-0.84477-0.020102zm-4.584-2.2226c-0.82843 0-1.5 0.67157-1.5 1.5s0.67157 1.5 1.5 1.5 1.5-0.67157 1.5-1.5-0.67157-1.5-1.5-1.5z" fill="#93d421"/>
</svg>
