<?xml version="1.0" encoding="UTF-8"?>
<svg width="16" height="16" version="1.1" viewBox="0 0 16 16" xmlns="http://www.w3.org/2000/svg" xmlns:cc="http://creativecommons.org/ns#" xmlns:dc="http://purl.org/dc/elements/1.1/" xmlns:rdf="http://www.w3.org/1999/02/22-rdf-syntax-ns#">
 <metadata>
  <rdf:RDF>
   <cc:Work rdf:about="">
    <dc:format>image/svg+xml</dc:format>
    <dc:type rdf:resource="http://purl.org/dc/dcmitype/StillImage"/>
    <dc:title/>
   </cc:Work>
  </rdf:RDF>
 </metadata>
 <defs>
  <style id="current-color-scheme" type="text/css">.ColorScheme-Text { color:#444444; } .ColorScheme-Highlight { color:#5294e2; }</style>
 </defs>
 <path class="ColorScheme-Text" d="m2.707 0.015625-0.70508 0.70703 1.4062 1.4082a2.5 2.5 0 0 0-0.41016 1.3691 2.5 2.5 0 0 0 2 2.4492v4.1055a2.5 2.5 0 0 0-2 2.4453 2.5 2.5 0 0 0 2.5 2.5 2.5 2.5 0 0 0 2.5-2.5 2.5 2.5 0 0 0-2-2.4492v-4.1055a2.5 2.5 0 0 0 0.86914-0.35352l1.541 1.541a2.5 2.5 0 0 0-0.4082 1.3691 2.5 2.5 0 0 0 2.5 2.5 2.5 2.5 0 0 0 2.5-2.5 2.5 2.5 0 0 0-2.5-2.5 2.5 2.5 0 0 0-1.3867 0.42188l-1.5332-1.5352a2.5 2.5 0 0 0 0.41992-1.3867 2.5 2.5 0 0 0-2.5-2.5 2.5 2.5 0 0 0-1.3848 0.42188l-1.4082-1.4082z" fill="#808080"/>
</svg>
