<svg width="16" height="16" version="1.1" viewBox="0 0 16 16" xmlns="http://www.w3.org/2000/svg">
<defs>
<style id="current-color-scheme" type="text/css">.ColorScheme-Text { color:#536076; } .ColorScheme-Highlight { color:#ffffff; }</style>
</defs>
<path class="ColorScheme-Text" d="m14.231 11.193c-1.1612 2.2603-3.5156 3.8065-6.231 3.8065l-0.17284-0.0027363c0.8502-0.58764 1.5881-1.3262 2.1749-2.177l0.21194-0.32522 0.098385-0.0013877c1.4504-0.059425 2.7946-0.53076 3.9186-1.3001zm-5.1869 1.2462c-0.72812 0.99161-1.6957 1.7972-2.8171 2.3326-1.4844-0.38706-2.7766-1.2491-3.7049-2.414 0.085512-1.2913 0.42944-2.5113 0.98007-3.6097 1.1458 1.9812 3.1711 3.3896 5.5419 3.6912zm1.4559-4.4397c0 1.2597-0.31056 2.4468-0.85928 3.4891-2.4626-0.13376-4.5599-1.6379-5.5431-3.763 1.2149-1.817 3.0388-3.1908 5.1794-3.8301 0.7738 1.179 1.223 2.589 1.223 4.104zm1.5-4.5c0.49405 0 0.9793 0.037714 1.453 0.11042 0.96751 1.2002 1.547 2.7272 1.547 4.3896 0 0.44245-0.04105 0.87531-0.11955 1.295-1.0329 1.1712-2.4804 1.9681-4.1128 2.1602 0.47111-1.0564 0.73231-2.2253 0.73231-3.4551 0-1.589-0.43604-3.0762-1.195-4.3485 0.54934-0.099748 1.1161-0.15152 1.695-0.15152zm-9.3452-0.020021c-0.10172 0.49111-0.15477 0.99937-0.15477 1.52 0 0.92589 0.16778 1.8126 0.47458 2.6314-0.61391 1.0294-1.0567 2.1733-1.2888 3.3919-0.43976-0.91442-0.68578-1.9401-0.68578-3.0233 0-1.7229 0.62246-3.3005 1.6548-4.52zm3.5718-2.2533c0.92283 0.44104 1.7414 1.0647 2.4088 1.8243-1.9772 0.66817-3.6904 1.9094-4.9422 3.5259-0.12633-0.5044-0.19317-1.0328-0.19317-1.5768 0-1.0225 0.23611-1.9899 0.65678-2.8506 0.62664-0.41308 1.3239-0.72793 2.0698-0.92275zm1.7734-0.22665c1.638 0 3.1446 0.5626 4.3371 1.5051-0.11228-0.0033251-0.22446-0.0050973-0.33706-0.0050973-0.79435 0-1.5681 0.088208-2.312 0.25536-0.52633-0.67253-1.1544-1.2642-1.8598-1.7519l0.17182-0.0034376z" fill="#26b2fa"/>
</svg>
