<svg width="16" height="16" version="1.1" viewBox="0 0 16 16" xmlns="http://www.w3.org/2000/svg">
 <defs>
  <style id="current-color-scheme" type="text/css">.ColorScheme-Text { color:#536076; } .ColorScheme-Highlight { color:#ffffff; }</style>
 </defs>
 <path class="ColorScheme-Text" style="fill:#value_light" d="m10 1 4 4h-4v-4zm1.4996 11.001h-6.9991c-0.26964 0-0.50044 0.22386-0.50044 0.5 0 0.23828 0.17703 0.44801 0.41048 0.49168l0.089954 0.0083216h6.9991c0.26964 0 0.50044-0.22386 0.50044-0.5 0-0.26807-0.22405-0.5-0.50044-0.5zm0-2h-6.9991c-0.26964 0-0.50044 0.22386-0.50044 0.5 0 0.23828 0.17703 0.44801 0.41048 0.49168l0.089954 0.0083216h6.9991c0.26964 0 0.50044-0.22386 0.50044-0.5 0-0.26807-0.22405-0.5-0.50044-0.5zm0-2h-6.9991c-0.26964 0-0.50044 0.22386-0.50044 0.5 0 0.23828 0.17703 0.44801 0.41048 0.49168l0.089954 0.0083216h6.9991c0.26964 0 0.50044-0.22386 0.50044-0.5 0-0.26807-0.22405-0.5-0.50044-0.5zm-2.4996-7.001v5h5v7c0 1.1046-0.89543 2-2 2h-8c-1.1046 0-2-0.89543-2-2v-10c0-1.1046 0.89543-2 2-2h5z" />
</svg>
