<svg width="16" height="16" version="1.1" viewBox="0 0 16 16" xmlns="http://www.w3.org/2000/svg">
<defs>
<style id="current-color-scheme" type="text/css">.ColorScheme-Text { color:#536076; } .ColorScheme-Highlight { color:#ffffff; }</style>
</defs>
<path class="ColorScheme-Text" d="m8 1c3.866 0 7 3.134 7 7 0 3.866-3.134 7-7 7-3.866 0-7-3.134-7-7 0-3.866 3.134-7 7-7zm-0.5 2.5c-0.27614 0-0.5 0.22386-0.5 0.5v4.5c0 0.27614 0.22386 0.5 0.5 0.5h4.5c0.27614 0 0.5-0.22386 0.5-0.5s-0.22386-0.5-0.5-0.5h-4v-4c0-0.27614-0.22386-0.5-0.5-0.5z" fill="#808080"/>
</svg>
