<svg width="16" height="16" version="1.1" xmlns="http://www.w3.org/2000/svg">
<defs>
<style id="current-color-scheme" type="text/css">.ColorScheme-Text { color:#444444; } .ColorScheme-Highlight { color:#4285f4; }</style>
</defs>
<path class="ColorScheme-Text" d="m12.236 1.9941c-0.24091 0.001125-0.46358 0.076809-0.67188 0.22461-0.52719 0.3763-1.6258 0.77965-3.5645 0.78125-1.9387 0-3.0373-0.40495-3.5645-0.78125-0.20832-0.1478-0.40805-0.21985-0.65039-0.21875-0.24234 1e-3 -0.52179 0.06595-0.80664 0.21875-1.0374 0.5465-1.9911 2.336-2.5098 4.6562-0.44216 1.9709-0.6054 4.6661-0.3418 5.75 0.22958 0.9317 0.62629 1.3438 1.332 1.3438 1.0459-0.018 2.3601-1.1823 3.1934-2.75 0.6027-0.8679 2.0006-1.2624 3.3477-1.2188 1.347-0.047 2.7449 0.35085 3.3477 1.2188 0.8333 1.5677 2.1475 2.7321 3.1934 2.75 0.70576 0 1.1024-0.41205 1.332-1.3438 0.2636-1.0839 0.10036-3.7791-0.3418-5.75-0.51869-2.3202-1.4724-4.1098-2.5098-4.6562-0.28485-0.1523-0.54424-0.22573-0.78516-0.22461zm-8.2031 3.0059h0.99219v1h0.99023v1h-0.99023v1h-0.99219v-1h-0.99219v-1h0.99219v-1zm7.4375 0c0.2739 0 0.49609 0.2239 0.49609 0.5 0 0.2762-0.22219 0.5-0.49609 0.5s-0.49414-0.2238-0.49414-0.5c0-0.2761 0.22024-0.5 0.49414-0.5zm-0.99023 1c0.2739 0 0.49609 0.2239 0.49609 0.5 0 0.2762-0.22219 0.5-0.49609 0.5-0.27389 0-0.49609-0.2238-0.49609-0.5 0-0.2761 0.2222-0.5 0.49609-0.5zm1.9824 0c0.27389 0 0.49609 0.2239 0.49609 0.5 0 0.2762-0.2222 0.5-0.49609 0.5-0.2739 0-0.49609-0.2238-0.49609-0.5 0-0.2761 0.22219-0.5 0.49609-0.5zm-0.99219 1c0.2739 0 0.49609 0.2239 0.49609 0.5 0 0.2762-0.22219 0.5-0.49609 0.5s-0.49414-0.2238-0.49414-0.5c0-0.2761 0.22024-0.5 0.49414-0.5z" fill="#808080"/>
</svg>
