<svg width="16" height="16" version="1.1" viewBox="0 0 16 16" xmlns="http://www.w3.org/2000/svg">
<defs>
<style id="current-color-scheme" type="text/css">.ColorScheme-Text { color:#536076; } .ColorScheme-Highlight { color:#ffffff; }</style>
</defs>
<path class="ColorScheme-Text" d="m14.934 6.0004c0.043507 0.18804 0.066495 0.38393 0.066495 0.58519v4.8288c3e-6 1.428-1.1575 2.5856-2.5854 2.5856h-8.8282c-1.4279 0-2.5854-1.1576-2.5854-2.5856l-9.999e-4 -5.4144zm-8.9329 1.9996h-0.99993v3h0.99993v-1h3.9997v1h0.99993v-3h-0.99993v1h-3.9997zm1.3819-6c0.68516 0 1.3115 0.38713 1.6179 1 0.30641 0.61287 0.93276 1 1.6179 1h1.7963c0.83047 0 1.5695 0.39159 2.0425 1.0002l-13.457-2.066e-4 9.999e-4 -0.41441c0-1.428 1.1575-2.5856 2.5854-2.5856z" color="#536076" fill="#e0464f"/>
</svg>
