<svg width="16" height="16" version="1.1" viewBox="0 0 16 16" xmlns="http://www.w3.org/2000/svg">
<defs>
<style id="current-color-scheme" type="text/css">.ColorScheme-Text { color:#536076; } .ColorScheme-Highlight { color:#ffffff; }</style>
</defs>
<path class="ColorScheme-Text" d="m13.988 3.7793c0.0081487 0.073339 0.012232 0.14707 0.012232 0.22086v7.0781c-0.074108 1.0611-0.85052 1.8821-2 1.8821-1.205 0-2-0.90218-2-2.0399 0-1.1377 0.79502-2.0399 2-2.0399 0.3778 0 0.7153 0.088685 1.0006 0.24551l-6.254e-4 -4.2075c0-0.55228-0.44772-1-1-1-0.047319 0-0.094578 0.0033586-0.14142 0.010051l-5 0.71429c-0.49265 0.070378-0.85858 0.4923-0.85858 0.98995v7.1327c0 1.1377-0.79502 2.2346-2 2.2346s-2-0.90218-2-2.0399 0.79502-2.0399 2-2.0399c0.37801 0 0.71567 0.069621 1.0011 0.20031l-0.0011034-6.5651c0-1.0191 0.76627-1.8752 1.7791-1.9878l5-0.55556c1.0978-0.12198 2.0867 0.66909 2.2086 1.7669z" fill="#26b2fa"/>
</svg>
