<?xml version="1.0" encoding="UTF-8"?>
<svg width="16" height="16" version="1.1" viewBox="0 0 16 16" xmlns="http://www.w3.org/2000/svg" xmlns:cc="http://creativecommons.org/ns#" xmlns:dc="http://purl.org/dc/elements/1.1/" xmlns:rdf="http://www.w3.org/1999/02/22-rdf-syntax-ns#">
 <metadata>
  <rdf:RDF>
   <cc:Work rdf:about="">
    <dc:format>image/svg+xml</dc:format>
    <dc:type rdf:resource="http://purl.org/dc/dcmitype/StillImage"/>
    <dc:title/>
   </cc:Work>
  </rdf:RDF>
 </metadata>
 <defs>
  <style id="current-color-scheme" type="text/css">.ColorScheme-Text { color:#444444; } .ColorScheme-Highlight { color:#5294e2; }</style>
 </defs>
 <path class="ColorScheme-Text" d="m8 3a5 5 0 0 0-4.7324 3.3984 4 4 0 0 0-2.2676 3.6016 4 4 0 0 0 4 4 4 4 0 0 0 2.6582-1.0176 5 5 0 0 0 0.3418 0.017578 5 5 0 0 0 2.1133-0.47461 4 4 0 0 0 1.8867 0.47461 4 4 0 0 0 4-4 4 4 0 0 0-4-4 4 4 0 0 0-0.007812 0 5 5 0 0 0-3.9922-2z" fill="#808080"/>
</svg>
