<svg width="16" height="16" version="1.1" viewBox="0 0 16 16" xmlns="http://www.w3.org/2000/svg">
<defs>
<style id="current-color-scheme" type="text/css">.ColorScheme-Text { color:#444444; } .ColorScheme-Highlight { color:#5294e2; }</style>
</defs>
<path d="m8.0004 0.20304c-2.707 0-4.9023 0.72266-4.9023 1.6172 0 0.89453 2.1953 1.6172 4.9023 1.6172s4.9023-0.72266 4.9023-1.6172c0-0.89453-2.1953-1.6172-4.9023-1.6172m-4.8906 2.1641c-0.08594 0.15625-0.14062 0.32031-0.14062 0.48828v1.5312c0 1.1836 2.2578 2.1445 5.0312 2.1445 2.7773 0 5.0312-0.96094 5.0312-2.1445v-1.5312c0-0.16797-0.05469-0.33203-0.14062-0.48828-0.09375 0.86719-2.2461 1.5547-4.8906 1.5547s-4.793-0.6875-4.8906-1.5547m0.01563 3.0586c-0.09766 0.16406-0.15625 0.33984-0.15625 0.51172v1.5312c0 1.1836 2.2578 2.1406 5.0312 2.1406 2.7773 0 5.0312-0.95703 5.0312-2.1406v-1.5312c0-0.17188-0.05859-0.34766-0.15625-0.51172-0.53906 0.93359-2.5117 1.6289-4.875 1.6289-2.3594 0-4.3359-0.69531-4.875-1.6289m0 3.1602c-0.09766 0.16406-0.15625 0.33594-0.15625 0.51562v1.5312c0 1.1797 2.2578 2.1367 5.0312 2.1367 2.7773 0 5.0312-0.95703 5.0312-2.1367v-1.5312c0-0.17969-0.05859-0.35156-0.15625-0.51562-0.53906 0.9375-2.5117 1.6289-4.875 1.6289-2.3594 0-4.3359-0.69141-4.875-1.6289m3.8748 4.4141v1h-7c0.21875 0.22266 1.7617 1.8008 2 2h12c0.23438-0.19922 1.7812-1.7774 2-2h-7v-1" fill="#808080"/>
</svg>
