<svg width="16" height="16" version="1.1" viewBox="0 0 16 16" xmlns="http://www.w3.org/2000/svg">
 <defs>
  <style id="current-color-scheme" type="text/css">.ColorScheme-Text { color:#536076; } .ColorScheme-Highlight { color:#ffffff; }</style>
 </defs>
 <path style="fill:#value_light" class="ColorScheme-Text"  d="m13 2c1.1046 0 2 0.89543 2 2v8c0 1.1046-0.89543 2-2 2h-10c-1.1046 0-2-0.89543-2-2v-8c0-1.1046 0.89543-2 2-2h10zm0 9h-10c-0.55228 0-1 0.44772-1 1 0 0.51284 0.38604 0.93551 0.88338 0.99327l0.11662 0.0067277h10c0.55228 0 1-0.44772 1-1s-0.44772-1-1-1zm-9.5-5h-1c-0.27614 0-0.5 0.22386-0.5 0.5v1c0 0.27614 0.22386 0.5 0.5 0.5h1c0.27614 0 0.5-0.22386 0.5-0.5v-1c0-0.27614-0.22386-0.5-0.5-0.5zm0-3h-0.5c-0.51284 0-0.93551 0.38604-0.99327 0.88338l-0.0067277 0.11662v0.5c0 0.24546 0.17688 0.44961 0.41012 0.49194l0.089876 0.0080557h1c0.24546 0 0.44961-0.17688 0.49194-0.41012l0.0080557-0.089876v-1c0-0.27614-0.22386-0.5-0.5-0.5z"  />
</svg>
