<svg width="48" height="48" version="1.1" viewBox="0 0 48 48" xmlns="http://www.w3.org/2000/svg" xmlns:xlink="http://www.w3.org/1999/xlink">
 <defs>
  <linearGradient id="rpm-c" x1="17.664" x2="17.664" y2="34.51" gradientTransform="scale(.90582 1.104)" gradientUnits="userSpaceOnUse">
   <stop stop-color="#666E7B" offset="0"/>
   <stop stop-color="#475055" offset="1"/>
  </linearGradient>
  <path id="rpm-b" d="m21 0 11 11v23.5c0 2.4853-2.0147 4.5-4.5 4.5h-23c-2.4853 0-4.5-2.0147-4.5-4.5v-30c-3.0436e-16 -2.4853 2.0147-4.5 4.5-4.5l16.5-1.7764e-15z"/>
  <filter id="rpm-a" x="-15.6%" y="-10.3%" width="131.2%" height="125.6%">
   <feOffset dy="1" in="SourceAlpha" result="shadowOffsetOuter1"/>
   <feGaussianBlur in="shadowOffsetOuter1" result="shadowBlurOuter1" stdDeviation="1.5"/>
   <feColorMatrix in="shadowBlurOuter1" values="0 0 0 0 0.361595344   0 0 0 0 0.418797512   0 0 0 0 0.450973732  0 0 0 0.5 0"/>
  </filter>
  <linearGradient id="rpm-f" x1="26.5" x2="22.345" y1="5.5" y2="9.7364" gradientUnits="userSpaceOnUse">
   <stop stop-color="#FFF" stop-opacity=".1" offset="0"/>
   <stop stop-color="#FFF" stop-opacity=".3" offset="1"/>
  </linearGradient>
  <path id="rpm-e" d="m21 0 11 11h-6.5c-2.4853 0-4.5-2.0147-4.5-4.5v-6.5z"/>
  <filter id="rpm-d" x="-31.8%" y="-22.7%" width="163.6%" height="163.6%">
   <feOffset dy="1" in="SourceAlpha" result="shadowOffsetOuter1"/>
   <feGaussianBlur in="shadowOffsetOuter1" result="shadowBlurOuter1" stdDeviation="1"/>
   <feComposite in="shadowBlurOuter1" in2="SourceAlpha" operator="out" result="shadowBlurOuter1"/>
   <feColorMatrix in="shadowBlurOuter1" values="0 0 0 0 0   0 0 0 0 0   0 0 0 0 0  0 0 0 0.05 0"/>
  </filter>
 </defs>
 <g transform="translate(8,5)" fill-rule="evenodd">
  <use width="100%" height="100%" fill="#000000" filter="url(#rpm-a)" xlink:href="#rpm-b"/>
  <use width="100%" height="100%" fill="url(#rpm-c)" xlink:href="#rpm-b"/>
  <use width="100%" height="100%" fill="#000000" filter="url(#rpm-d)" xlink:href="#rpm-e"/>
  <use width="100%" height="100%" fill="url(#rpm-f)" xlink:href="#rpm-e"/>
 </g>
 <path d="m19.032 18.742a1.0001 1.0001 0 0 0-0.0957 0 1.0001 1.0001 0 0 0-0.26367 0.055s-0.62631 0.2063-1.3516 0.5879c-0.72525 0.3816-1.6068 0.9164-2.1738 1.834-0.63117 1.0212-0.3916 2.1138-0.19531 2.7676s0.30435 0.9392 0.12305 1.3769c-0.08854 0.2138-0.631 0.6817-1.2246 0.9727-0.59361 0.2909-1.1328 0.4433-1.1328 0.4433a1.0001 1.0001 0 0 0-0.71484 1.2285 1.0001 1.0001 0 0 0 0.71484 1.2012s0.53921 0.1524 1.1328 0.4433c0.59361 0.291 1.1361 0.7589 1.2246 0.9727 0.1813 0.4377 0.07324 0.7231-0.12305 1.3769s-0.43585 1.7464 0.19531 2.7676c0.56708 0.9176 1.4486 1.4524 2.1738 1.834 0.72525 0.3816 1.3516 0.5879 1.3516 0.5879a1.0001 1.0001 0 1 0 0.62891-1.8965s-0.47588-0.1595-1.0488-0.4609c-0.57295-0.3015-1.1857-0.7667-1.4023-1.1172-0.24505-0.3965-0.16464-0.5337 0.01758-1.1406 0.18222-0.607 0.51118-1.6147 0.05469-2.7168-0.40428-0.9761-1.2111-1.4927-1.9336-1.8653 0.72247-0.3725 1.5293-0.8892 1.9336-1.8652 0.4565-1.1021 0.12754-2.1099-0.05469-2.7168-0.18222-0.6069-0.26263-0.7441-0.01758-1.1406 0.21664-0.3506 0.8294-0.8158 1.4023-1.1172 0.57295-0.3014 1.0488-0.461 1.0488-0.461a1.0001 1.0001 0 0 0-0.26953-1.9531zm9.9316 0a1.0001 1.0001 0 0 0-0.26562 1.9531s0.47588 0.1596 1.0488 0.461c0.57295 0.3014 1.1857 0.7666 1.4023 1.1172 0.24505 0.3965 0.16464 0.5337-0.01758 1.1406s-0.51119 1.6147-0.05469 2.7168c0.40428 0.976 1.2111 1.4927 1.9336 1.8652-0.72247 0.3726-1.5293 0.8892-1.9336 1.8653-0.4565 1.1021-0.12753 2.1098 0.05469 2.7168 0.18222 0.6069 0.26263 0.7441 0.01758 1.1406-0.21664 0.3505-0.8294 0.8157-1.4023 1.1172-0.57295 0.3014-1.0488 0.4609-1.0488 0.4609a1.0001 1.0001 0 1 0 0.62891 1.8965s0.62631-0.2063 1.3516-0.5879c0.72525-0.3816 1.6068-0.9164 2.1738-1.834 0.63117-1.0212 0.3916-2.1138 0.19531-2.7676s-0.30435-0.9392-0.12305-1.3769c0.08854-0.2138 0.631-0.6817 1.2246-0.9727 0.5936-0.2909 1.1328-0.4433 1.1328-0.4433a1.0001 1.0001 0 0 0 0.71484-1.2012 1.0001 1.0001 0 0 0-0.71484-1.2285s-0.53921-0.1524-1.1328-0.4434c-0.59361-0.2909-1.1361-0.7589-1.2246-0.9726-0.1813-0.4377-0.07324-0.7232 0.12305-1.377s0.43585-1.7463-0.19531-2.7676c-0.56708-0.9175-1.4486-1.4524-2.1738-1.8339-0.72525-0.3816-1.3516-0.5879-1.3516-0.5879a1.0001 1.0001 0 0 0-0.26367-0.055 1.0001 1.0001 0 0 0-0.0957 0 1.0001 1.0001 0 0 0-0.0039 0zm-4.9961 4.5176a2 2 0 0 0-2 2 2 2 0 0 0 2 2 2 2 0 0 0 2-2 2 2 0 0 0-2-2zm0 6c-1.1046 0-2 0.8954-2 2s0.89543 2 2 2c0.70697 0 1 2 1 2s1-3.6024 1-4c0-1.1046-0.89543-2-2-2z" fill="#fff" fill-rule="evenodd"/>
</svg>
