<svg width="24" height="24" version="1.1" viewBox="0 0 24 24" xmlns="http://www.w3.org/2000/svg" xmlns:xlink="http://www.w3.org/1999/xlink">
 <defs>
  <linearGradient id="text-css-c" x1="8.9443" x2="8.9443" y2="17.889" gradientTransform="scale(.89443 1.118)" gradientUnits="userSpaceOnUse">
   <stop stop-color="#FC7440" offset="0"/>
   <stop stop-color="#F04E11" offset="1"/>
  </linearGradient>
  <path id="text-css-b" d="m10.5 0 5.5 5.5v12.25c0 1.2426-1.0074 2.25-2.25 2.25h-11.5c-1.2426 0-2.25-1.0074-2.25-2.25v-15.5c-1.5218e-16 -1.2426 1.0074-2.25 2.25-2.25h8.25z"/>
  <filter id="text-css-a" x="-21.9%" y="-12.5%" width="143.8%" height="135%">
   <feOffset dy="1" in="SourceAlpha" result="shadowOffsetOuter1"/>
   <feGaussianBlur in="shadowOffsetOuter1" result="shadowBlurOuter1" stdDeviation="1"/>
   <feColorMatrix in="shadowBlurOuter1" values="0 0 0 0 0.941176471   0 0 0 0 0.309803922   0 0 0 0 0.0705882353  0 0 0 0.5 0"/>
  </filter>
  <linearGradient id="text-css-f" x1="13.419" x2="11.418" y1="2.785" y2="4.9302" gradientTransform="scale(.98742 1.0127)" gradientUnits="userSpaceOnUse">
   <stop stop-color="#FFF" stop-opacity=".1" offset="0"/>
   <stop stop-color="#FFF" stop-opacity=".3" offset="1"/>
  </linearGradient>
  <path id="text-css-e" d="m10.5 0 5.5 5.641h-3.25c-1.2426 0-2.25-1.0074-2.25-2.25v-3.391z"/>
  <filter id="text-css-d" x="-36.4%" y="-17.7%" width="172.7%" height="170.9%">
   <feOffset dy="1" in="SourceAlpha" result="shadowOffsetOuter1"/>
   <feGaussianBlur in="shadowOffsetOuter1" result="shadowBlurOuter1" stdDeviation=".5"/>
   <feComposite in="shadowBlurOuter1" in2="SourceAlpha" operator="out" result="shadowBlurOuter1"/>
   <feColorMatrix in="shadowBlurOuter1" values="0 0 0 0 0   0 0 0 0 0   0 0 0 0 0  0 0 0 0.05 0"/>
  </filter>
 </defs>
 <use transform="translate(4,2)" width="100%" height="100%" fill="#000000" fill-rule="evenodd" filter="url(#text-css-a)" xlink:href="#text-css-b"/>
 <use transform="translate(4,2)" width="100%" height="100%" fill="url(#text-css-c)" fill-rule="evenodd" xlink:href="#text-css-b"/>
 <use transform="translate(4,2)" width="100%" height="100%" fill="#000000" fill-rule="evenodd" filter="url(#text-css-d)" xlink:href="#text-css-e"/>
 <use transform="translate(4,2)" width="100%" height="100%" fill="url(#text-css-f)" fill-rule="evenodd" xlink:href="#text-css-e"/>
 <path d="m11.457 11-1.8887 5.666-0.67773-2.7129h-4.8906v1h4.1094l1.3223 5.2871 2.1113-6.334 1.0508 2.627 1.2598-1.9355 0.78516 2.3555h5.3613v-1h-4.6387l-1.2148-3.6426-1.3398 2.0625z" fill="#fff"/>
</svg>
