<svg width="24" height="24" version="1.1" viewBox="0 0 24 24" xmlns="http://www.w3.org/2000/svg">
 <defs>
  <filter id="application-x-gzip-a" x="-.219" y="-.125" width="1.438" height="1.35">
   <feOffset dy="1" in="SourceAlpha" result="shadowOffsetOuter1"/>
   <feGaussianBlur in="shadowOffsetOuter1" result="shadowBlurOuter1" stdDeviation="1"/>
   <feColorMatrix in="shadowBlurOuter1" values="0 0 0 0 0.00784313725   0 0 0 0 0.42745098   0 0 0 0 0.168627451  0 0 0 0.5 0"/>
  </filter>
  <filter id="image-png-a" x="-.219" y="-.125" width="1.438" height="1.35">
   <feOffset dy="1" in="SourceAlpha" result="shadowOffsetOuter1"/>
   <feGaussianBlur in="shadowOffsetOuter1" result="shadowBlurOuter1" stdDeviation="1"/>
   <feColorMatrix in="shadowBlurOuter1" values="0 0 0 0 0.262745098   0 0 0 0 0.71372549   0 0 0 0 0.607843137  0 0 0 0.5 0"/>
  </filter>
  <linearGradient id="image-png-c" x1="8.9443" x2="8.9443" y2="17.889" gradientTransform="scale(.89443 1.118)" gradientUnits="userSpaceOnUse">
   <stop stop-color="#28DCB1" offset="0"/>
   <stop stop-color="#00AF9D" offset="1"/>
  </linearGradient>
  <filter id="image-png-d" x="-.364" y="-.177" width="1.727" height="1.709">
   <feOffset dy="1" in="SourceAlpha" result="shadowOffsetOuter1"/>
   <feGaussianBlur in="shadowOffsetOuter1" result="shadowBlurOuter1" stdDeviation=".5"/>
   <feComposite in="shadowBlurOuter1" in2="SourceAlpha" operator="out" result="shadowBlurOuter1"/>
   <feColorMatrix in="shadowBlurOuter1" values="0 0 0 0 0   0 0 0 0 0   0 0 0 0 0  0 0 0 0.05 0"/>
  </filter>
  <linearGradient id="image-png-f" x1="13.419" x2="11.418" y1="2.785" y2="4.9302" gradientTransform="scale(.98742 1.0127)" gradientUnits="userSpaceOnUse">
   <stop stop-color="#FFF" stop-opacity=".1" offset="0"/>
   <stop stop-color="#FFF" stop-opacity=".3" offset="1"/>
  </linearGradient>
 </defs>
 <path d="m14.5 2 5.5 5.5v12.25c0 1.2426-1.0074 2.25-2.25 2.25h-11.5c-1.2426 0-2.25-1.0074-2.25-2.25v-15.5c0-1.2426 1.0074-2.25 2.25-2.25z" fill-rule="evenodd" filter="url(#application-x-gzip-a)"/>
 <g transform="translate(4 1.859)" fill-rule="evenodd">
  <path d="m10.5 0 5.5 5.5v12.25c0 1.2426-1.0074 2.25-2.25 2.25h-11.5c-1.2426 0-2.25-1.0074-2.25-2.25v-15.5c0-1.2426 1.0074-2.25 2.25-2.25z" filter="url(#image-png-a)"/>
  <path d="m10.5 0 5.5 5.5v12.25c0 1.2426-1.0074 2.25-2.25 2.25h-11.5c-1.2426 0-2.25-1.0074-2.25-2.25v-15.5c0-1.2426 1.0074-2.25 2.25-2.25z" fill="url(#image-png-c)"/>
  <path d="m10.5 0 5.5 5.641h-3.25c-1.2426 0-2.25-1.0074-2.25-2.25z" filter="url(#image-png-d)"/>
  <path d="m10.5 0 5.5 5.641h-3.25c-1.2426 0-2.25-1.0074-2.25-2.25z" fill="url(#image-png-f)"/>
 </g>
 <g transform="translate(4,8)" fill-rule="evenodd">
  <path d="m4 1v3h-4v-3zm8 0h4v3h-4z" fill="#fff8f8" fill-opacity=".5"/>
  <path d="m5.375 0h5.25c0.20711 0 0.375 0.16789 0.375 0.375v4.25c0 0.20711-0.16789 0.375-0.375 0.375h-5.25c-0.20711 0-0.375-0.16789-0.375-0.375v-4.25c0-0.20711 0.16789-0.375 0.375-0.375zm0.625 1v3h4v-3zm0 1h3v1h-3z" fill="#f4f4f4"/>
 </g>
 <g transform="translate(0,-1)">
  <circle cx="16.5" cy="18.5" r="1" fill="none" stroke="#fff"/>
  <rect x="6.5" y="17.5" width="2" height="2" fill="none" stroke="#fff"/>
  <rect x="8" y="18" width="7.5326" height="1" fill="#fff"/>
 </g>
</svg>
