<svg width="24" height="24" version="1.1" viewBox="0 0 24 24" xmlns="http://www.w3.org/2000/svg" xmlns:xlink="http://www.w3.org/1999/xlink">
 <defs>
  <filter id="application-x-7zip-a" x="-.219" y="-.125" width="1.438" height="1.35">
   <feOffset dy="1" in="SourceAlpha" result="shadowOffsetOuter1"/>
   <feGaussianBlur in="shadowOffsetOuter1" result="shadowBlurOuter1" stdDeviation="1"/>
   <feColorMatrix in="shadowBlurOuter1" values="0 0 0 0 0.241013895   0 0 0 0 0   0 0 0 0 0.621603261  0 0 0 0.5 0"/>
  </filter>
  <linearGradient id="application-x-7zip-c" x1="8.9443" x2="8.9443" y2="17.889" gradientTransform="matrix(.89443 0 0 1.118 4 2)" gradientUnits="userSpaceOnUse">
   <stop stop-color="#5C42B1" offset="0"/>
   <stop stop-color="#3E1888" offset=".99345"/>
  </linearGradient>
  <filter id="application-x-7zip-d" x="-.364" y="-.177" width="1.727" height="1.709">
   <feOffset dy="1" in="SourceAlpha" result="shadowOffsetOuter1"/>
   <feGaussianBlur in="shadowOffsetOuter1" result="shadowBlurOuter1" stdDeviation=".5"/>
   <feComposite in="shadowBlurOuter1" in2="SourceAlpha" operator="out" result="shadowBlurOuter1"/>
   <feColorMatrix in="shadowBlurOuter1" values="0 0 0 0 0   0 0 0 0 0   0 0 0 0 0  0 0 0 0.05 0"/>
  </filter>
  <linearGradient id="linearGradient119" x1="13.419" x2="11.418" y1="2.785" y2="4.9302" gradientTransform="matrix(.98742 0 0 1.0127 4 2)" gradientUnits="userSpaceOnUse">
   <stop stop-color="#FFF" stop-opacity=".1" offset="0"/>
   <stop stop-color="#FFF" stop-opacity=".3" offset="1"/>
  </linearGradient>
 </defs>
 <g fill-rule="evenodd">
  <path d="m14.5 2 5.5 5.5v12.25c0 1.2426-1.0074 2.25-2.25 2.25h-11.5c-1.2426 0-2.25-1.0074-2.25-2.25v-15.5c0-1.2426 1.0074-2.25 2.25-2.25z" filter="url(#application-x-7zip-a)"/>
  <path d="m14.5 2 5.5 5.5v12.25c0 1.2426-1.0074 2.25-2.25 2.25h-11.5c-1.2426 0-2.25-1.0074-2.25-2.25v-15.5c0-1.2426 1.0074-2.25 2.25-2.25z" fill="url(#application-x-7zip-c)"/>
  <path d="m14.5 2 5.5 5.641h-3.25c-1.2426 0-2.25-1.0074-2.25-2.25z" filter="url(#application-x-7zip-d)"/>
  <path d="m14.5 2 5.5 5.641h-3.25c-1.2426 0-2.25-1.0074-2.25-2.25z" fill="url(#linearGradient119)"/>
 </g>
 <path d="m15.05 8.012 0.2522 2.415h-0.41056c-0.17205-0.43763-0.41643-0.84515-0.73314-1.2226-0.31672-0.38142-0.52144-0.55792-0.78341-0.61413-0.11731-0.024082-3.6776 0-3.6776 0l3.417 4.4806v0.16261l-3.6999 4.6099h4.5263c0.56578 0 0.8882-0.25762 1.0211-0.41822 0.14076-0.16863 0.26588-0.35733 0.37537-0.56611 0.10948-0.20878 0.19941-0.4015 0.2698-0.57816l0.39296 0.12647-0.66276 2.5926h-7.3372v-0.24388l4.0821-5.0529-4.0821-5.4021v-0.28916z" fill="#fff" fill-rule="evenodd"/>
</svg>
