<svg width="24" height="24" version="1.1" viewBox="0 0 24 24" xmlns="http://www.w3.org/2000/svg">
 <defs>
  <filter id="image-png-a" x="-.219" y="-.125" width="1.438" height="1.35">
   <feOffset dy="1" in="SourceAlpha" result="shadowOffsetOuter1"/>
   <feGaussianBlur in="shadowOffsetOuter1" result="shadowBlurOuter1" stdDeviation="1"/>
   <feColorMatrix in="shadowBlurOuter1" values="0 0 0 0 0.262745098   0 0 0 0 0.71372549   0 0 0 0 0.607843137  0 0 0 0.5 0"/>
  </filter>
  <linearGradient id="image-png-c" x1="8.9443" x2="8.9443" y2="17.889" gradientTransform="scale(.89443 1.118)" gradientUnits="userSpaceOnUse">
   <stop stop-color="#28DCB1" offset="0"/>
   <stop stop-color="#00AF9D" offset="1"/>
  </linearGradient>
  <filter id="image-png-d" x="-.364" y="-.177" width="1.727" height="1.709">
   <feOffset dy="1" in="SourceAlpha" result="shadowOffsetOuter1"/>
   <feGaussianBlur in="shadowOffsetOuter1" result="shadowBlurOuter1" stdDeviation=".5"/>
   <feComposite in="shadowBlurOuter1" in2="SourceAlpha" operator="out" result="shadowBlurOuter1"/>
   <feColorMatrix in="shadowBlurOuter1" values="0 0 0 0 0   0 0 0 0 0   0 0 0 0 0  0 0 0 0.05 0"/>
  </filter>
  <linearGradient id="image-png-f" x1="13.419" x2="11.418" y1="2.785" y2="4.9302" gradientTransform="scale(.98742 1.0127)" gradientUnits="userSpaceOnUse">
   <stop stop-color="#FFF" stop-opacity=".1" offset="0"/>
   <stop stop-color="#FFF" stop-opacity=".3" offset="1"/>
  </linearGradient>
 </defs>
 <g transform="translate(4 1.859)" fill-rule="evenodd">
  <path d="m10.5 0 5.5 5.5v12.25c0 1.2426-1.0074 2.25-2.25 2.25h-11.5c-1.2426 0-2.25-1.0074-2.25-2.25v-15.5c0-1.2426 1.0074-2.25 2.25-2.25z" filter="url(#image-png-a)"/>
  <path d="m10.5 0 5.5 5.5v12.25c0 1.2426-1.0074 2.25-2.25 2.25h-11.5c-1.2426 0-2.25-1.0074-2.25-2.25v-15.5c0-1.2426 1.0074-2.25 2.25-2.25z" fill="url(#image-png-c)"/>
  <path d="m10.5 0 5.5 5.641h-3.25c-1.2426 0-2.25-1.0074-2.25-2.25z" filter="url(#image-png-d)"/>
  <path d="m10.5 0 5.5 5.641h-3.25c-1.2426 0-2.25-1.0074-2.25-2.25z" fill="url(#image-png-f)"/>
 </g>
 <g transform="translate(6,8)" fill="none" fill-rule="evenodd" stroke="#fff">
  <path d="m10.5 0.5h-8.5s7 4 0.66667 10h6.8333" stroke-linecap="round" stroke-linejoin="round"/>
  <circle cx="10.5" cy="10.5" r="1"/>
  <rect x=".5" y="9.5" width="2" height="2"/>
 </g>
</svg>
