<svg width="24" height="24" version="1.1" viewBox="0 0 24 24" xmlns="http://www.w3.org/2000/svg" xmlns:xlink="http://www.w3.org/1999/xlink">
 <defs>
  <linearGradient id="rpm-c" x1="8.9443" x2="8.9443" y2="17.475" gradientTransform="scale(.89443 1.118)" gradientUnits="userSpaceOnUse">
   <stop stop-color="#666E7B" offset="0"/>
   <stop stop-color="#475055" offset="1"/>
  </linearGradient>
  <path id="rpm-b" d="m10.5 0 5.5 5.5v12.25c0 1.2426-1.0074 2.25-2.25 2.25h-11.5c-1.2426 0-2.25-1.0074-2.25-2.25v-15.5c-1.5218e-16 -1.2426 1.0074-2.25 2.25-2.25h8.25z"/>
  <filter id="rpm-a" x="-21.9%" y="-12.5%" width="143.8%" height="135%">
   <feOffset dy="1" in="SourceAlpha" result="shadowOffsetOuter1"/>
   <feGaussianBlur in="shadowOffsetOuter1" result="shadowBlurOuter1" stdDeviation="1"/>
   <feColorMatrix in="shadowBlurOuter1" values="0 0 0 0 0.361595344   0 0 0 0 0.418797512   0 0 0 0 0.450973732  0 0 0 0.5 0"/>
  </filter>
  <linearGradient id="rpm-f" x1="13.419" x2="11.418" y1="2.785" y2="4.9302" gradientTransform="scale(.98742 1.0127)" gradientUnits="userSpaceOnUse">
   <stop stop-color="#FFF" stop-opacity=".1" offset="0"/>
   <stop stop-color="#FFF" stop-opacity=".3" offset="1"/>
  </linearGradient>
  <path id="rpm-e" d="m10.5 0 5.5 5.641h-3.25c-1.2426 0-2.25-1.0074-2.25-2.25v-3.391z"/>
  <filter id="rpm-d" x="-36.4%" y="-17.7%" width="172.7%" height="170.9%">
   <feOffset dy="1" in="SourceAlpha" result="shadowOffsetOuter1"/>
   <feGaussianBlur in="shadowOffsetOuter1" result="shadowBlurOuter1" stdDeviation=".5"/>
   <feComposite in="shadowBlurOuter1" in2="SourceAlpha" operator="out" result="shadowBlurOuter1"/>
   <feColorMatrix in="shadowBlurOuter1" values="0 0 0 0 0   0 0 0 0 0   0 0 0 0 0  0 0 0 0.05 0"/>
  </filter>
 </defs>
 <g transform="translate(4,2)" fill-rule="evenodd">
  <use width="100%" height="100%" fill="#000000" filter="url(#rpm-a)" xlink:href="#rpm-b"/>
  <use width="100%" height="100%" fill="url(#rpm-c)" xlink:href="#rpm-b"/>
  <use width="100%" height="100%" fill="#000000" filter="url(#rpm-d)" xlink:href="#rpm-e"/>
  <use width="100%" height="100%" fill="url(#rpm-f)" xlink:href="#rpm-e"/>
 </g>
 <path d="m9.5161 9.371a0.50005 0.50005 0 0 0-0.04785 0 0.50005 0.50005 0 0 0-0.13184 0.0275s-0.31316 0.10315-0.6758 0.29395c-0.36262 0.1908-0.8034 0.4582-1.0869 0.917-0.31558 0.5106-0.1958 1.0569-0.097655 1.3838s0.15218 0.4696 0.061525 0.68845c-0.04427 0.1069-0.3155 0.34085-0.6123 0.48635-0.2968 0.14545-0.5664 0.22165-0.5664 0.22165a0.50005 0.50005 0 0 0-0.35742 0.61425 0.50005 0.50005 0 0 0 0.35742 0.6006s0.2696 0.0762 0.5664 0.22165c0.2968 0.1455 0.56805 0.37945 0.6123 0.48635 0.09065 0.21885 0.03662 0.36155-0.061525 0.68845s-0.21792 0.8732 0.097655 1.3838c0.28354 0.4588 0.7243 0.7262 1.0869 0.917 0.36262 0.1908 0.6758 0.29395 0.6758 0.29395a0.50005 0.50005 0 1 0 0.31446-0.94825s-0.23794-0.07975-0.5244-0.23045c-0.28648-0.15075-0.59285-0.38335-0.70115-0.5586-0.12252-0.19825-0.08232-0.26685 0.00879-0.5703 0.09111-0.3035 0.25559-0.80735 0.027345-1.3584-0.20214-0.48805-0.60555-0.74635-0.9668-0.93265 0.36124-0.18625 0.76465-0.4446 0.9668-0.9326 0.22825-0.55105 0.06377-1.055-0.027345-1.3584-0.09111-0.30345-0.13132-0.37205-0.00879-0.5703 0.10832-0.1753 0.4147-0.4079 0.70115-0.5586 0.28648-0.1507 0.5244-0.2305 0.5244-0.2305a0.50005 0.50005 0 0 0-0.13476-0.97655zm4.9658 0a0.50005 0.50005 0 0 0-0.13281 0.97655s0.23794 0.0798 0.5244 0.2305c0.28648 0.1507 0.59285 0.3833 0.70115 0.5586 0.12252 0.19825 0.08232 0.26685-0.0088 0.5703-0.09111 0.30345-0.2556 0.80735-0.02735 1.3584 0.20214 0.488 0.60555 0.74635 0.9668 0.9326-0.36124 0.1863-0.76465 0.4446-0.9668 0.93265-0.22825 0.55105-0.06376 1.0549 0.02735 1.3584 0.09111 0.30345 0.13132 0.37205 0.0088 0.5703-0.10832 0.17525-0.4147 0.40785-0.70115 0.5586-0.28648 0.1507-0.5244 0.23045-0.5244 0.23045a0.50005 0.50005 0 1 0 0.31446 0.94825s0.31316-0.10315 0.6758-0.29395c0.36262-0.1908 0.8034-0.4582 1.0869-0.917 0.31558-0.5106 0.1958-1.0569 0.09765-1.3838-0.09814-0.3269-0.15218-0.4696-0.06152-0.68845 0.04427-0.1069 0.3155-0.34085 0.6123-0.48635 0.2968-0.14545 0.5664-0.22165 0.5664-0.22165a0.50005 0.50005 0 0 0 0.35742-0.6006 0.50005 0.50005 0 0 0-0.35742-0.61425s-0.2696-0.0762-0.5664-0.2217c-0.2968-0.14545-0.56805-0.37945-0.6123-0.4863-0.09065-0.21885-0.03662-0.3616 0.06152-0.6885s0.21792-0.87315-0.09765-1.3838c-0.28354-0.45875-0.7243-0.7262-1.0869-0.91695-0.36262-0.1908-0.6758-0.29395-0.6758-0.29395a0.50005 0.50005 0 0 0-0.13184-0.0275 0.50005 0.50005 0 0 0-0.04785 0 0.50005 0.50005 0 0 0-2e-3 0zm-2.498 2.2588a1 1 0 0 0-1 1 1 1 0 0 0 1 1 1 1 0 0 0 1-1 1 1 0 0 0-1-1zm0 3c-0.5523 0-1 0.4477-1 1s0.44772 1 1 1c0.35348 0 0.5 1 0.5 1s0.5-1.8012 0.5-2c0-0.5523-0.44772-1-1-1z" fill="#fff" fill-rule="evenodd"/>
</svg>
