<svg width="128" height="128" version="1.1" viewBox="0 0 128 128" xmlns="http://www.w3.org/2000/svg" xmlns:xlink="http://www.w3.org/1999/xlink">
<defs>
<filter id="folder-music-stack-128px-a" x="-12.2%" y="-14.1%" width="124.3%" height="128.1%">
<feOffset dy="2" in="SourceAlpha" result="shadowOffsetOuter1"/>
<feGaussianBlur in="shadowOffsetOuter1" result="shadowBlurOuter1" stdDeviation="2.5"/>
<feComposite in="shadowBlurOuter1" in2="SourceAlpha" operator="out" result="shadowBlurOuter1"/>
<feColorMatrix in="shadowBlurOuter1" result="shadowMatrixOuter1" values="0 0 0 0 0   0 0 0 0 0   0 0 0 0 0  0 0 0 0.2 0"/>
<feMerge>
<feMergeNode in="shadowMatrixOuter1"/>
<feMergeNode in="SourceGraphic"/>
</feMerge>
</filter>
<linearGradient id="folder-music-stack-128px-b" x1="58.999" x2="58.999" y1="-3.0562e-14" y2="90.972" gradientTransform="matrix(1.0753 0 0 .92998 9 23)" gradientUnits="userSpaceOnUse">
<stop stop-color="#C80017" offset="0"/>
<stop stop-color="#B105FF" offset="1"/>
</linearGradient>
<linearGradient id="folder-music-stack-128px-h" x1="45.008" x2="45.008" y2="86.223" gradientTransform="scale(1.2331 .81096)" gradientUnits="userSpaceOnUse">
<stop stop-color="#F87136" offset="0"/>
<stop stop-color="#D22E18" offset="1"/>
</linearGradient>
<path id="folder-music-stack-128px-g" d="m0 0h111v59c0 7.732-6.268 14-14 14h-83c-7.732 0-14-6.268-14-14v-59z"/>
<linearGradient id="folder-music-stack-128px-l" x1="34" x2="34" y1="-1" y2="67.442" gradientUnits="userSpaceOnUse">
<stop stop-color="#343434" offset="0"/>
<stop stop-color="#240B0B" offset="1"/>
</linearGradient>
<linearGradient id="folder-music-stack-128px-m" x1="50%" x2="50%" y2="100%">
<stop stop-color="#151515" offset="0"/>
<stop offset="1"/>
</linearGradient>
<circle id="folder-music-stack-128px-j" cx="34" cy="34" r="34"/>
<filter id="folder-music-stack-128px-k" x="-11.8%" y="-8.8%" width="123.5%" height="123.5%">
<feMorphology in="SourceAlpha" operator="dilate" radius="1" result="shadowSpreadOuter1"/>
<feOffset dy="2" in="shadowSpreadOuter1" result="shadowOffsetOuter1"/>
<feGaussianBlur in="shadowOffsetOuter1" result="shadowBlurOuter1" stdDeviation="2"/>
<feComposite in="shadowBlurOuter1" in2="SourceAlpha" operator="out" result="shadowBlurOuter1"/>
<feColorMatrix in="shadowBlurOuter1" values="0 0 0 0 0   0 0 0 0 0   0 0 0 0 0  0 0 0 0.5 0"/>
</filter>
<filter id="folder-music-stack-128px-o" x="-50%" y="-17.6%" width="200%" height="135.3%">
<feGaussianBlur in="SourceGraphic" stdDeviation="4"/>
</filter>
<filter id="folder-music-stack-128px-p" x="-50%" y="-17.6%" width="200%" height="135.3%">
<feGaussianBlur in="SourceGraphic" stdDeviation="4"/>
</filter>
<linearGradient id="folder-music-stack-128px-q" x1="34" x2="34" y1="19.5" y2="48.5" gradientUnits="userSpaceOnUse">
<stop stop-color="#E91F95" offset="0"/>
<stop stop-color="#930DCE" offset="1"/>
</linearGradient>
<filter id="filter1016" x="-.03398" y="-.081714" width="1.068" height="1.1634" color-interpolation-filters="sRGB">
<feGaussianBlur stdDeviation="1.43"/>
</filter>
<linearGradient id="linearGradient964" x1="-70" x2="-70" y1="96.088" y2="103" gradientTransform="translate(-11.683 -53.586)" gradientUnits="userSpaceOnUse">
<stop stop-color="#fff" offset="0"/>
<stop stop-color="#ffedce" offset="1"/>
</linearGradient>
<linearGradient id="linearGradient1033" x1="34" x2="34" y1="-1" y2="69" gradientUnits="userSpaceOnUse" xlink:href="#folder-music-stack-128px-m"/>
<linearGradient id="linearGradient1035" x1="34" x2="34" y1="1" y2="67" gradientUnits="userSpaceOnUse" xlink:href="#folder-music-stack-128px-m"/>
<linearGradient id="linearGradient1037" x1="34" x2="34" y1="3" y2="65" gradientUnits="userSpaceOnUse" xlink:href="#folder-music-stack-128px-m"/>
<linearGradient id="linearGradient1039" x1="34" x2="34" y1="5" y2="63" gradientUnits="userSpaceOnUse" xlink:href="#folder-music-stack-128px-m"/>
<linearGradient id="linearGradient1041" x1="34" x2="34" y1="7" y2="61" gradientUnits="userSpaceOnUse" xlink:href="#folder-music-stack-128px-m"/>
<linearGradient id="linearGradient1043" x1="34" x2="34" y1="9" y2="59" gradientUnits="userSpaceOnUse" xlink:href="#folder-music-stack-128px-m"/>
<linearGradient id="linearGradient1045" x1="34" x2="34" y1="11" y2="57" gradientUnits="userSpaceOnUse" xlink:href="#folder-music-stack-128px-m"/>
<linearGradient id="linearGradient1047" x1="34" x2="34" y1="13" y2="55" gradientUnits="userSpaceOnUse" xlink:href="#folder-music-stack-128px-m"/>
<linearGradient id="linearGradient1049" x1="34" x2="34" y1="15" y2="53" gradientUnits="userSpaceOnUse" xlink:href="#folder-music-stack-128px-m"/>
<linearGradient id="linearGradient1051" x1="34" x2="34" y1="17" y2="51" gradientUnits="userSpaceOnUse" xlink:href="#folder-music-stack-128px-m"/>
<linearGradient id="linearGradient1053" x1="34" x2="34" y1="19.5" y2="48.5" gradientUnits="userSpaceOnUse" xlink:href="#folder-music-stack-128px-m"/>
<mask id="folder-music-stack-128px-i" fill="#fff">
<use width="100%" height="100%" xlink:href="#folder-music-stack-128px-g"/>
</mask>
</defs>
<path d="m71 28.75c1.5181 3.4916 4.9627 5.75 8.77 5.75h26.23c7.732 0 14 6.268 14 14v56.5c0 7.732-6.268 14-14 14h-83c-7.732 0-14-6.268-14-14v-68c0-7.732 6.268-14 14-14h39.23c3.8073 0 7.2519 2.2584 8.77 5.75z" fill="url(#folder-music-stack-128px-b)" fill-rule="evenodd" filter="url(#folder-music-stack-128px-a)"/>
<g transform="translate(149.68 -3.4142)" fill-rule="evenodd">
<rect x="-135.68" y="42.414" width="101" height="42" rx="9" ry="9" fill-opacity=".2" filter="url(#filter1016)" style="paint-order:stroke fill markers"/>
<rect x="-135.68" y="42.414" width="101" height="42" rx="9" ry="9" fill="url(#linearGradient964)" style="paint-order:stroke fill markers"/>
<path d="m-126.68 42.414c-4.986 0-9 4.014-9 9v1c0-4.986 4.014-9 9-9h83c4.986 0 9 4.014 9 9v-1c0-4.986-4.014-9-9-9z" opacity=".615" style="paint-order:stroke fill markers"/>
</g>
<use transform="translate(9,46)" width="100%" height="100%" fill="url(#folder-music-stack-128px-h)" fill-rule="evenodd" filter="url(#folder-music-stack-128px-a)" xlink:href="#folder-music-stack-128px-g"/>
<g transform="translate(9,46)" fill="none" fill-rule="evenodd" filter="url(#folder-music-stack-128px-a)" mask="url(#folder-music-stack-128px-i)">
<g transform="translate(21,21)">
<mask id="folder-music-stack-128px-n" fill="#fff">
<use width="100%" height="100%" xlink:href="#folder-music-stack-128px-j"/>
</mask>
<use width="100%" height="100%" fill="#000000" filter="url(#folder-music-stack-128px-k)" xlink:href="#folder-music-stack-128px-j"/>
<circle cx="34" cy="34" r="34.5" fill="url(#folder-music-stack-128px-l)" stroke="url(#linearGradient1033)"/>
<circle cx="34" cy="34" r="32.5" mask="url(#folder-music-stack-128px-n)" stroke="url(#linearGradient1035)"/>
<circle cx="34" cy="34" r="30.5" mask="url(#folder-music-stack-128px-n)" stroke="url(#linearGradient1037)"/>
<circle cx="34" cy="34" r="28.5" mask="url(#folder-music-stack-128px-n)" stroke="url(#linearGradient1039)"/>
<circle cx="34" cy="34" r="26.5" mask="url(#folder-music-stack-128px-n)" stroke="url(#linearGradient1041)"/>
<circle cx="34" cy="34" r="24.5" mask="url(#folder-music-stack-128px-n)" stroke="url(#linearGradient1043)"/>
<circle cx="34" cy="34" r="22.5" mask="url(#folder-music-stack-128px-n)" stroke="url(#linearGradient1045)"/>
<circle cx="34" cy="34" r="20.5" mask="url(#folder-music-stack-128px-n)" stroke="url(#linearGradient1047)"/>
<circle cx="34" cy="34" r="18.5" mask="url(#folder-music-stack-128px-n)" stroke="url(#linearGradient1049)"/>
<circle cx="34" cy="34" r="16.5" mask="url(#folder-music-stack-128px-n)" stroke="url(#linearGradient1051)"/>
<path transform="rotate(120,34,34)" d="m34 34 12 34h-24zl-12-34h24z" fill="#fff" filter="url(#folder-music-stack-128px-o)" mask="url(#folder-music-stack-128px-n)" opacity=".1"/>
<path transform="rotate(45,34,34)" d="m34 34 12 34h-24zl-12-34h24z" fill="#fff" filter="url(#folder-music-stack-128px-p)" mask="url(#folder-music-stack-128px-n)" opacity=".1"/>
<circle cx="34" cy="34" r="14" fill="url(#folder-music-stack-128px-q)" mask="url(#folder-music-stack-128px-n)" stroke="url(#linearGradient1053)"/>
<polygon points="31 39 31 29 39 34" fill="#fff" mask="url(#folder-music-stack-128px-n)"/>
</g>
</g>
</svg>
