<svg width="128" height="128" version="1.1" viewBox="0 0 128 128" xmlns="http://www.w3.org/2000/svg" xmlns:xlink="http://www.w3.org/1999/xlink">
<defs>
<filter id="folder-stack-128px-a" x="-12.2%" y="-14.1%" width="124.3%" height="128.1%">
<feOffset dy="2" in="SourceAlpha" result="shadowOffsetOuter1"/>
<feGaussianBlur in="shadowOffsetOuter1" result="shadowBlurOuter1" stdDeviation="2.5"/>
<feComposite in="shadowBlurOuter1" in2="SourceAlpha" operator="out" result="shadowBlurOuter1"/>
<feColorMatrix in="shadowBlurOuter1" result="shadowMatrixOuter1" values="0 0 0 0 0   0 0 0 0 0   0 0 0 0 0  0 0 0 0.2 0"/>
<feMerge>
<feMergeNode in="shadowMatrixOuter1"/>
<feMergeNode in="SourceGraphic"/>
</feMerge>
</filter>
<radialGradient id="folder-stack-128px-h" r="55%" gradientTransform="matrix(0 .9091 -1 0 1 .045)">
<stop stop-color="#FFF" stop-opacity=".217" offset="0"/>
<stop stop-color="#E9E9E9" stop-opacity=".745" offset="1"/>
</radialGradient>
<linearGradient id="folder-stack-128px-i" x1="27.186%" x2="39.056%" y1="7.763%" y2="50%">
<stop stop-color="#FFF" stop-opacity=".571" offset="0"/>
<stop stop-color="#FFF" stop-opacity=".2" offset="1"/>
</linearGradient>
<filter id="filter1016" x="-.03398" y="-.081714" width="1.068" height="1.1634" color-interpolation-filters="sRGB">
<feGaussianBlur stdDeviation="1.43"/>
</filter>
<linearGradient id="linearGradient964" x1="-70" x2="-70" y1="96.088" y2="103" gradientUnits="userSpaceOnUse">
<stop stop-color="#fff" offset="0"/>
<stop stop-color="#cef5ff" offset="1"/>
</linearGradient>
<linearGradient id="linearGradient1034" x1="51.614" x2="51.614" y1="-3.0562e-14" y2="51.614" gradientTransform="matrix(1.0753 0 0 .92998 9 23)" gradientUnits="userSpaceOnUse">
<stop stop-color="#008084" offset="0"/>
<stop stop-color="#02C3FF" offset="1"/>
</linearGradient>
<radialGradient id="radialGradient1038" cx="45.008" cy="0" r="83.254" gradientTransform="matrix(1.2331 0 0 .81096 9 46)" gradientUnits="userSpaceOnUse">
<stop stop-color="#25D8C1" offset="0"/>
<stop stop-color="#008FA5" offset="1"/>
</radialGradient>
<radialGradient id="radialGradient1040" cx="10.735" cy="25.743" r="11.537" gradientTransform="matrix(.95346 0 0 1.0488 31 59)" gradientUnits="userSpaceOnUse" xlink:href="#folder-stack-128px-h"/>
<linearGradient id="linearGradient1042" x1="5.9493" x2="8.4391" y1="16.884" y2="25.743" gradientTransform="matrix(.95346 0 0 1.0488 31 59)" gradientUnits="userSpaceOnUse" xlink:href="#folder-stack-128px-i"/>
<radialGradient id="radialGradient1044" cx="37.828" cy="19.774" r="21.751" gradientTransform="matrix(1.1632 0 0 .85973 31 59)" gradientUnits="userSpaceOnUse" xlink:href="#folder-stack-128px-h"/>
<linearGradient id="linearGradient1046" x1="28.806" x2="33.5" y1="3.0701" y2="19.774" gradientTransform="matrix(1.1632 0 0 .85973 31 59)" gradientUnits="userSpaceOnUse" xlink:href="#folder-stack-128px-i"/>
<linearGradient id="linearGradient1048" x1="119.03" x2="119.03" y1="6.2134" y2="15.384" gradientTransform="matrix(.26563 0 0 3.7647 31 59)" gradientUnits="userSpaceOnUse">
<stop stop-color="#FFF" stop-opacity=".418" offset="0"/>
<stop stop-color="#FFF" stop-opacity=".329" offset="1"/>
</linearGradient>
<linearGradient id="linearGradient1050" x1="140.78" x2="140.78" y1="14.581" y2="22.348" gradientTransform="matrix(.41201 0 0 2.4272 31 59)" gradientUnits="userSpaceOnUse">
<stop stop-color="#FFF" stop-opacity=".418" offset="0"/>
<stop stop-color="#FFF" stop-opacity=".329" offset="1"/>
</linearGradient>
<linearGradient id="linearGradient1052" x1="17.236" x2="17.236" y1="27.426" y2="37.766" gradientTransform="scale(.69625 1.4363)" gradientUnits="userSpaceOnUse">
<stop stop-color="#FFF" stop-opacity=".418" offset="0"/>
<stop stop-color="#FFF" stop-opacity=".329" offset="1"/>
</linearGradient>
</defs>
<path d="m71 28.75c1.5181 3.4916 4.9627 5.75 8.77 5.75h26.23c7.732 0 14 6.268 14 14v56.5c0 7.732-6.268 14-14 14h-83c-7.732 0-14-6.268-14-14v-68c0-7.732 6.268-14 14-14h39.23c3.8073 0 7.2519 2.2584 8.77 5.75z" fill="url(#linearGradient1034)" fill-rule="evenodd" filter="url(#folder-stack-128px-a)"/>
<g transform="translate(138,-57)" fill-rule="evenodd">
<rect x="-124" y="96" width="101" height="42" rx="9" ry="9" fill-opacity=".2" filter="url(#filter1016)" style="paint-order:stroke fill markers"/>
<rect x="-124" y="96" width="101" height="42" rx="9" ry="9" fill="url(#linearGradient964)" style="paint-order:stroke fill markers"/>
<path d="m-115 96c-4.986 0-9 4.014-9 9v1c0-4.986 4.014-9 9-9h83c4.986 0 9 4.014 9 9v-1c0-4.986-4.014-9-9-9z" opacity=".615" style="paint-order:stroke fill markers"/>
</g>
<path d="m9 46h111v59c0 7.732-6.268 14-14 14h-83c-7.732 0-14-6.268-14-14z" fill="url(#radialGradient1038)" fill-rule="evenodd" filter="url(#folder-stack-128px-a)"/>
<path d="m41.235 96.5c4.9174 0 9.5-5.8488 9.5-11.5 0-5.2467-4.2533-9.5-9.5-9.5-5.2467 0-9.5 4.2533-9.5 9.5 0 5.6512 4.5826 11.5 9.5 11.5z" fill="url(#radialGradient1040)" fill-rule="evenodd" filter="url(#folder-stack-128px-a)" stroke="url(#linearGradient1042)"/>
<circle cx="38" cy="83" r="2" fill="#fff" fill-rule="evenodd" filter="url(#folder-stack-128px-a)"/>
<circle cx="60" cy="67" r="2" fill="#fff" fill-rule="evenodd" filter="url(#folder-stack-128px-a)"/>
<circle cx="84" cy="79" r="2" fill="#fff" fill-rule="evenodd" filter="url(#folder-stack-128px-a)"/>
<path d="m62 80.5c4.9174 0 9.5-5.8488 9.5-11.5 0-5.2467-4.2533-9.5-9.5-9.5s-9.5 4.2533-9.5 9.5c0 5.6512 4.5826 11.5 9.5 11.5zm26 12c4.9174 0 9.5-5.8488 9.5-11.5 0-5.2467-4.2533-9.5-9.5-9.5s-9.5 4.2533-9.5 9.5c0 5.6512 4.5826 11.5 9.5 11.5z" fill="url(#radialGradient1044)" fill-rule="evenodd" filter="url(#folder-stack-128px-a)" stroke="url(#linearGradient1046)"/>
<path d="m62 83c0 15.714 0.50214 23.933 1.2352 33.307" fill="none" filter="url(#folder-stack-128px-a)" stroke="url(#linearGradient1048)" stroke-linecap="round" stroke-width="1.2"/>
<path d="m90 95c0 11.724-2.1226 10.639-1.9944 17.634" fill="none" filter="url(#folder-stack-128px-a)" stroke="url(#linearGradient1050)" stroke-linecap="round" stroke-width="1.2"/>
<path transform="matrix(-1,0,0,1,55,59)" d="m15 40c0 9.0649-6.3677 8.2259-5.9833 13.634" fill="none" filter="url(#folder-stack-128px-a)" stroke="url(#linearGradient1052)" stroke-linecap="round" stroke-width="1.2"/>
</svg>
