<svg width="128" height="128" version="1.1" viewBox="0 0 128 128" xmlns="http://www.w3.org/2000/svg" xmlns:xlink="http://www.w3.org/1999/xlink">
 <defs>
  <filter id="folder-128px-a" x="-14.4%" y="-16.7%" width="128.8%" height="133.3%">
   <feOffset dy="2" in="SourceAlpha" result="shadowOffsetOuter1"/>
   <feGaussianBlur in="shadowOffsetOuter1" result="shadowBlurOuter1" stdDeviation="3"/>
   <feComposite in="shadowBlurOuter1" in2="SourceAlpha" operator="out" result="shadowBlurOuter1"/>
   <feColorMatrix in="shadowBlurOuter1" result="shadowMatrixOuter1" values="0 0 0 0 0   0 0 0 0 0   0 0 0 0 0  0 0 0 0.2 0"/>
   <feMerge>
    <feMergeNode in="shadowMatrixOuter1"/>
    <feMergeNode in="SourceGraphic"/>
   </feMerge>
  </filter>
  <linearGradient id="folder-128px-c" x1="51.614" x2="51.614" y1="-3.0562e-14" y2="39.194" gradientTransform="scale(1.0753 .92998)" gradientUnits="userSpaceOnUse">
   <stop stop-color="#ba5638" offset="0"/>
   <stop stop-color="#870b3d" offset="1"/>
  </linearGradient>
  <path id="folder-128px-b" d="m62 6c1.5139 3.6333 5.0639 6 9 6h26c7.732 0 14 6.268 14 14v56c0 7.732-6.268 14-14 14h-83c-7.732 0-14-6.268-14-14v-68c-9.469e-16 -7.732 6.268-14 14-14h39c3.9361-7.2305e-16 7.4861 2.3667 9 6z"/>
  <radialGradient id="radialGradient883" cx="45.008" cy="0" r="105.85" gradientTransform="matrix(1.2331 0 0 .81096 9 45)" gradientUnits="userSpaceOnUse">
   <stop stop-color="#ff774d" offset="0"/>
   <stop stop-color="#ba0e55" offset="1"/>
  </radialGradient>
  <filter id="filter1016" x="-.03398" y="-.081714" width="1.068" height="1.1634" color-interpolation-filters="sRGB">
   <feGaussianBlur stdDeviation="1.43"/>
  </filter>
  <linearGradient id="linearGradient964" x1="-70" x2="-70" y1="96.088" y2="103" gradientTransform="translate(138,-58.5)" gradientUnits="userSpaceOnUse">
   <stop stop-color="#fff" offset="0"/>
   <stop stop-color="#fff8a3" offset="1"/>
  </linearGradient>
 </defs>
 <use transform="translate(9,22)" width="100%" height="100%" fill="url(#folder-128px-c)" fill-rule="evenodd" filter="url(#folder-128px-a)" xlink:href="#folder-128px-b"/>
 <rect x="14" y="37.5" width="101" height="42" rx="9" ry="9" fill-opacity=".2" fill-rule="evenodd" filter="url(#filter1016)" style="paint-order:stroke fill markers"/>
 <rect x="14" y="37.5" width="101" height="42" rx="9" ry="9" fill="url(#linearGradient964)" fill-rule="evenodd" style="paint-order:stroke fill markers"/>
 <path d="m23 37.5c-4.986 0-9 4.014-9 9v1c0-4.986 4.014-9 9-9h83c4.986 0 9 4.014 9 9v-1c0-4.986-4.014-9-9-9z" fill-rule="evenodd" opacity=".615" style="paint-order:stroke fill markers"/>
 <path d="m9 45h111v59c0 7.732-6.268 14-14 14h-83c-7.732 0-14-6.268-14-14z" fill="url(#radialGradient883)" fill-rule="evenodd" filter="url(#folder-128px-a)"/>
</svg>
