<svg width="16" height="16" version="1.1" xmlns="http://www.w3.org/2000/svg">
<path d="m2 11.32v2.68h2.67l6.75-6.75-2.67-2.68zm11.79-6.43c0.28-0.28 0.28-0.73 0-1.01l-1.67-1.67c-0.29-0.28-0.73-0.28-1.01 0l-1.4 1.4 2.67 2.68z" fill="#444"/>
<path class="warning" d="m12.529 8c-0.02085-5.267e-4 -0.04171 1.252e-4 -0.0625 0.00195-0.21008 0.012314-0.40039 0.14311-0.50586 0.34766l-2.877 5.6016c-0.23925 0.4654 0.058839 1.0475 0.53711 1.0488h5.7559c0.47914 3.4e-4 0.77874-0.58258 0.53906-1.0488l-2.877-5.6016c-0.10579-0.20657-0.29792-0.33834-0.50976-0.34961zm-0.5293 2h1v2h-1zm0 3h1v1h-1z" fill="#ae8e6c"/>
</svg>
