<svg width="32" height="32" version="1.1" viewBox="0 0 32 32" xmlns="http://www.w3.org/2000/svg">
 <defs>
  <filter id="application-x-flash-video-a" x="-.159" y="-.096" width="1.318" height="1.269">
   <feOffset dy="1" in="SourceAlpha" result="shadowOffsetOuter1"/>
   <feGaussianBlur in="shadowOffsetOuter1" result="shadowBlurOuter1" stdDeviation="1"/>
   <feColorMatrix in="shadowBlurOuter1" values="0 0 0 0 0.6622226   0 0 0 0 0   0 0 0 0 0  0 0 0 0.5 0"/>
  </filter>
  <linearGradient id="application-x-flash-video-c" x1="11.958" x2="11.958" y2="23.917" gradientTransform="scale(.91987 1.0871)" gradientUnits="userSpaceOnUse">
   <stop stop-color="#FF6464" offset="0"/>
   <stop stop-color="#E02222" offset="1"/>
  </linearGradient>
  <filter id="application-x-flash-video-d" x="-.286" y="-.143" width="1.571" height="1.571">
   <feOffset dy="1" in="SourceAlpha" result="shadowOffsetOuter1"/>
   <feGaussianBlur in="shadowOffsetOuter1" result="shadowBlurOuter1" stdDeviation=".5"/>
   <feComposite in="shadowBlurOuter1" in2="SourceAlpha" operator="out" result="shadowBlurOuter1"/>
   <feColorMatrix in="shadowBlurOuter1" values="0 0 0 0 0   0 0 0 0 0   0 0 0 0 0  0 0 0 0.05 0"/>
  </filter>
  <linearGradient id="application-x-flash-video-f" x1="18.5" x2="15.734" y1="3.5" y2="6.3836" gradientUnits="userSpaceOnUse">
   <stop stop-color="#FFF" stop-opacity=".1" offset="0"/>
   <stop stop-color="#FFF" stop-opacity=".3" offset="1"/>
  </linearGradient>
 </defs>
 <g transform="translate(5,3)" fill-rule="evenodd">
  <path d="m15 0 7 7v15c0 2.2091-1.7909 4-4 4h-14c-2.2091 0-4-1.7909-4-4v-18c0-2.2091 1.7909-4 4-4z" filter="url(#application-x-flash-video-a)"/>
  <path d="m15 0 7 7v15c0 2.2091-1.7909 4-4 4h-14c-2.2091 0-4-1.7909-4-4v-18c0-2.2091 1.7909-4 4-4z" fill="url(#application-x-flash-video-c)"/>
  <path d="m15 0 7 7h-4.75c-1.2426 0-2.25-1.0074-2.25-2.25z" filter="url(#application-x-flash-video-d)"/>
  <path d="m15 0 7 7h-4.75c-1.2426 0-2.25-1.0074-2.25-2.25z" fill="url(#application-x-flash-video-f)"/>
 </g>
 <path d="m13 17h-2v2h-2v1h2v2h2v1.3333h1v-1.3333h2v-2h7v-1h-7v-2h-2v-7h-1zm-1 1h3v3h-3z" fill="#fff" fill-rule="evenodd"/>
</svg>
