<svg width="33" height="32" version="1.1" viewBox="0 0 33 32" xmlns="http://www.w3.org/2000/svg" xmlns:xlink="http://www.w3.org/1999/xlink">
 <defs>
  <linearGradient id="application-x-7zip-c" x1="11.958" x2="11.958" y2="23.917" gradientTransform="scale(.91987 1.0871)" gradientUnits="userSpaceOnUse">
   <stop stop-color="#5C42B1" offset="0"/>
   <stop stop-color="#3E1888" offset=".99345"/>
  </linearGradient>
  <path id="application-x-7zip-b" d="m15 0 7 7v15c0 2.2091-1.7909 4-4 4h-14c-2.2091 0-4-1.7909-4-4v-18c-2.7054e-16 -2.2091 1.7909-4 4-4h11z"/>
  <filter id="application-x-7zip-a" x="-15.9%" y="-9.6%" width="131.8%" height="126.9%">
   <feOffset dy="1" in="SourceAlpha" result="shadowOffsetOuter1"/>
   <feGaussianBlur in="shadowOffsetOuter1" result="shadowBlurOuter1" stdDeviation="1"/>
   <feColorMatrix in="shadowBlurOuter1" values="0 0 0 0 0.241013895   0 0 0 0 0   0 0 0 0 0.621603261  0 0 0 0.5 0"/>
  </filter>
  <linearGradient id="application-x-7zip-f" x1="18.5" x2="15.734" y1="3.5" y2="6.3836" gradientUnits="userSpaceOnUse">
   <stop stop-color="#FFF" stop-opacity=".1" offset="0"/>
   <stop stop-color="#FFF" stop-opacity=".3" offset="1"/>
  </linearGradient>
  <path id="application-x-7zip-e" d="m15 0 7 7h-4.75c-1.2426 0-2.25-1.0074-2.25-2.25v-4.75z"/>
  <filter id="application-x-7zip-d" x="-28.6%" y="-14.3%" width="157.1%" height="157.1%">
   <feOffset dy="1" in="SourceAlpha" result="shadowOffsetOuter1"/>
   <feGaussianBlur in="shadowOffsetOuter1" result="shadowBlurOuter1" stdDeviation=".5"/>
   <feComposite in="shadowBlurOuter1" in2="SourceAlpha" operator="out" result="shadowBlurOuter1"/>
   <feColorMatrix in="shadowBlurOuter1" values="0 0 0 0 0   0 0 0 0 0   0 0 0 0 0  0 0 0 0.05 0"/>
  </filter>
 </defs>
 <g fill-rule="evenodd">
  <use transform="translate(6,3)" width="100%" height="100%" fill="#000000" filter="url(#application-x-7zip-a)" xlink:href="#application-x-7zip-b"/>
  <use transform="translate(6,3)" width="100%" height="100%" fill="url(#application-x-7zip-c)" xlink:href="#application-x-7zip-b"/>
  <use transform="translate(6,3)" width="100%" height="100%" fill="#000000" filter="url(#application-x-7zip-d)" xlink:href="#application-x-7zip-e"/>
  <use transform="translate(6,3)" width="100%" height="100%" fill="url(#application-x-7zip-f)" xlink:href="#application-x-7zip-e"/>
 </g>
 <path d="m13.999 26-4.07e-4 -12.594c-0.86815 0.3279-1.2368 0.64444-1.7229 1.3441-0.48445 0.69728-0.54869 1.9606-0.54869 2.9992 0 0.2368 0.01211 0.43121 0.03635 0.58322 0.02996 0.1457 0.06004 0.2641 0.09027 0.3552 0.03023 0.08506 0.05746 0.15188 0.08169 0.20044 0.02996 0.04857 0.04493 0.0911 0.04493 0.12759-0.31943 0-0.60264-0.03032-0.84964-0.09096-0.24725-0.06695-0.4553-0.17026-0.62414-0.30993-0.16284-0.13939-0.28947-0.32461-0.37988-0.55565-0.08442-0.23049-0.12663-0.51586-0.12663-0.8561 0-0.41296 0.11482-1.1586 0.26184-1.5704 0.6362-1.782 2.8-2.9294 4.4751-3.4343 0.51688-0.1558 1.046-0.1918 1.5645-0.1918 0.19511-0.02471 0.4812 0.03514 0.49608 0.03622v11.479l4.3048-11.425h1.2928l-5.1444 13.903h-3.252z" fill="#fff"/>
</svg>
