<svg width="32" height="32" version="1.1" viewBox="0 0 32 32" xmlns="http://www.w3.org/2000/svg" xmlns:xlink="http://www.w3.org/1999/xlink">
 <defs>
  <linearGradient id="text-css-c" x1="11.958" x2="11.958" y2="23.917" gradientTransform="scale(.91987 1.0871)" gradientUnits="userSpaceOnUse">
   <stop stop-color="#FC7440" offset="0"/>
   <stop stop-color="#F04E11" offset="1"/>
  </linearGradient>
  <path id="text-css-b" d="m15 0 7 7v15c0 2.2091-1.7909 4-4 4h-14c-2.2091 0-4-1.7909-4-4v-18c-2.7054e-16 -2.2091 1.7909-4 4-4h11z"/>
  <filter id="text-css-a" x="-15.9%" y="-9.6%" width="131.8%" height="126.9%">
   <feOffset dy="1" in="SourceAlpha" result="shadowOffsetOuter1"/>
   <feGaussianBlur in="shadowOffsetOuter1" result="shadowBlurOuter1" stdDeviation="1"/>
   <feColorMatrix in="shadowBlurOuter1" values="0 0 0 0 0.941176471   0 0 0 0 0.309803922   0 0 0 0 0.0705882353  0 0 0 0.5 0"/>
  </filter>
  <linearGradient id="text-css-f" x1="18.5" x2="15.734" y1="3.5" y2="6.3836" gradientUnits="userSpaceOnUse">
   <stop stop-color="#FFF" stop-opacity=".1" offset="0"/>
   <stop stop-color="#FFF" stop-opacity=".3" offset="1"/>
  </linearGradient>
  <path id="text-css-e" d="m15 0 7 7h-4.75c-1.2426 0-2.25-1.0074-2.25-2.25v-4.75z"/>
  <filter id="text-css-d" x="-28.6%" y="-14.3%" width="157.1%" height="157.1%">
   <feOffset dy="1" in="SourceAlpha" result="shadowOffsetOuter1"/>
   <feGaussianBlur in="shadowOffsetOuter1" result="shadowBlurOuter1" stdDeviation=".5"/>
   <feComposite in="shadowBlurOuter1" in2="SourceAlpha" operator="out" result="shadowBlurOuter1"/>
   <feColorMatrix in="shadowBlurOuter1" values="0 0 0 0 0   0 0 0 0 0   0 0 0 0 0  0 0 0 0.05 0"/>
  </filter>
 </defs>
 <use transform="translate(5,3)" width="100%" height="100%" fill="#000000" fill-rule="evenodd" filter="url(#text-css-a)" xlink:href="#text-css-b"/>
 <use transform="translate(5,3)" width="100%" height="100%" fill="url(#text-css-c)" fill-rule="evenodd" xlink:href="#text-css-b"/>
 <use transform="translate(5,3)" width="100%" height="100%" fill="#000000" fill-rule="evenodd" filter="url(#text-css-d)" xlink:href="#text-css-e"/>
 <use transform="translate(5,3)" width="100%" height="100%" fill="url(#text-css-f)" fill-rule="evenodd" xlink:href="#text-css-e"/>
 <path d="m10 20h-2v2h7v-2h-2v-2h1c2 0 2 4 4 4h4c2 0 2-4 2-4h-2.5s0.5 2-1.5 2c-1 0-2-2-2-2h0.5c1.66 0 3-1.3 3-3s-1.34-3-3-3h-10.5v2h2m7.5 0c0.55 0 1 0.4 1 1s-0.45 1-1 1h-4.5v-2" fill="#fff" fill-rule="evenodd"/>
</svg>
