<svg width="512" height="512" version="1.1" viewBox="0 0 512 512" xmlns="http://www.w3.org/2000/svg" xmlns:xlink="http://www.w3.org/1999/xlink">
 <defs>
  <linearGradient id="application-x-blender-c" x1="186.93" x2="186.93" y2="371.52" gradientTransform="scale(.89872 1.1127)" gradientUnits="userSpaceOnUse">
   <stop stop-color="#FFBC2A" offset="0"/>
   <stop stop-color="#E77B00" offset="1"/>
  </linearGradient>
  <path id="application-x-blender-b" d="m232 0 104 104v276c0 19.882-16.118 36-36 36h-264c-19.882 0-36-16.118-36-36v-344c-2.4349e-15 -19.882 16.118-36 36-36h196z"/>
  <filter id="application-x-blender-a" x="-13.7%" y="-9.1%" width="127.4%" height="122.1%">
   <feOffset dy="8" in="SourceAlpha" result="shadowOffsetOuter1"/>
   <feGaussianBlur in="shadowOffsetOuter1" result="shadowBlurOuter1" stdDeviation="14"/>
   <feColorMatrix in="shadowBlurOuter1" values="0 0 0 0 0.874509804   0 0 0 0 0.498039216   0 0 0 0 0.0588235294  0 0 0 0.5 0"/>
  </filter>
  <linearGradient id="application-x-blender-f" x1="284" x2="240.31" y1="52" y2="92.449" gradientUnits="userSpaceOnUse">
   <stop stop-color="#FFF" stop-opacity=".1" offset="0"/>
   <stop stop-color="#FFF" stop-opacity=".3" offset="1"/>
  </linearGradient>
  <path id="application-x-blender-e" d="m232 0 104 104h-68c-19.882 0-36-16.118-36-36v-68z"/>
  <filter id="application-x-blender-d" x="-13.5%" y="-9.6%" width="126.9%" height="126.9%">
   <feOffset dy="4" in="SourceAlpha" result="shadowOffsetOuter1"/>
   <feGaussianBlur in="shadowOffsetOuter1" result="shadowBlurOuter1" stdDeviation="4"/>
   <feComposite in="shadowBlurOuter1" in2="SourceAlpha" operator="out" result="shadowBlurOuter1"/>
   <feColorMatrix in="shadowBlurOuter1" values="0 0 0 0 0   0 0 0 0 0   0 0 0 0 0  0 0 0 0.05 0"/>
  </filter>
 </defs>
 <use transform="translate(88,56)" width="100%" height="100%" fill="#000000" fill-rule="evenodd" filter="url(#application-x-blender-a)" opacity=".9" xlink:href="#application-x-blender-b"/>
 <use transform="translate(88,56)" width="100%" height="100%" fill="url(#application-x-blender-c)" fill-rule="evenodd" opacity=".9" xlink:href="#application-x-blender-b"/>
 <use transform="translate(88,56)" width="100%" height="100%" fill="#000000" fill-rule="evenodd" filter="url(#application-x-blender-d)" xlink:href="#application-x-blender-e"/>
 <use transform="translate(88,56)" width="100%" height="100%" fill="url(#application-x-blender-f)" fill-rule="evenodd" xlink:href="#application-x-blender-e"/>
 <path d="m160 330.67 88 37.333v-112l-88-32z" fill="#fff" fill-rule="evenodd"/>
 <path d="m258 256v112l96-40v-110.08z" fill="#fff" fill-rule="evenodd"/>
 <path d="m160 214.67 92 33.333 100-40-84-24z" fill="#fff" fill-rule="evenodd"/>
</svg>
