<svg width="512" height="512" version="1.1" viewBox="0 0 512 512" xmlns="http://www.w3.org/2000/svg" xmlns:xlink="http://www.w3.org/1999/xlink">
 <defs>
  <linearGradient id="application-vnd.oasis.opendocument.chart-c" x1="186.93" x2="186.93" y2="371.52" gradientTransform="scale(.89872 1.1127)" gradientUnits="userSpaceOnUse">
   <stop stop-color="#FFBC2A" offset="0"/>
   <stop stop-color="#E77B00" offset="1"/>
  </linearGradient>
  <path id="application-vnd.oasis.opendocument.chart-b" d="m232 0 104 104v276c0 19.882-16.118 36-36 36h-264c-19.882 0-36-16.118-36-36v-344c-2.4349e-15 -19.882 16.118-36 36-36h196z"/>
  <filter id="application-vnd.oasis.opendocument.chart-a" x="-13.7%" y="-9.1%" width="127.4%" height="122.1%">
   <feOffset dy="8" in="SourceAlpha" result="shadowOffsetOuter1"/>
   <feGaussianBlur in="shadowOffsetOuter1" result="shadowBlurOuter1" stdDeviation="14"/>
   <feColorMatrix in="shadowBlurOuter1" values="0 0 0 0 0.874509804   0 0 0 0 0.498039216   0 0 0 0 0.0588235294  0 0 0 0.5 0"/>
  </filter>
  <linearGradient id="application-vnd.oasis.opendocument.chart-f" x1="284" x2="240.31" y1="52" y2="92.449" gradientUnits="userSpaceOnUse">
   <stop stop-color="#FFF" stop-opacity=".1" offset="0"/>
   <stop stop-color="#FFF" stop-opacity=".3" offset="1"/>
  </linearGradient>
  <path id="application-vnd.oasis.opendocument.chart-e" d="m232 0 104 104h-68c-19.882 0-36-16.118-36-36v-68z"/>
  <filter id="application-vnd.oasis.opendocument.chart-d" x="-13.5%" y="-9.6%" width="126.9%" height="126.9%">
   <feOffset dy="4" in="SourceAlpha" result="shadowOffsetOuter1"/>
   <feGaussianBlur in="shadowOffsetOuter1" result="shadowBlurOuter1" stdDeviation="4"/>
   <feComposite in="shadowBlurOuter1" in2="SourceAlpha" operator="out" result="shadowBlurOuter1"/>
   <feColorMatrix in="shadowBlurOuter1" values="0 0 0 0 0   0 0 0 0 0   0 0 0 0 0  0 0 0 0.05 0"/>
  </filter>
 </defs>
 <g transform="translate(88,56)" fill-rule="evenodd">
  <use width="100%" height="100%" fill="#000000" filter="url(#application-vnd.oasis.opendocument.chart-a)" xlink:href="#application-vnd.oasis.opendocument.chart-b"/>
  <use width="100%" height="100%" fill="url(#application-vnd.oasis.opendocument.chart-c)" xlink:href="#application-vnd.oasis.opendocument.chart-b"/>
  <use width="100%" height="100%" fill="#000000" filter="url(#application-vnd.oasis.opendocument.chart-d)" xlink:href="#application-vnd.oasis.opendocument.chart-e"/>
  <use width="100%" height="100%" fill="url(#application-vnd.oasis.opendocument.chart-f)" xlink:href="#application-vnd.oasis.opendocument.chart-e"/>
 </g>
 <g transform="matrix(8,0,0,8,4,14)" fill="#fff">
  <circle cx="24" cy="32" r="2"/>
  <circle cx="29" cy="32" r="2"/>
  <circle cx="34" cy="32" r="2"/>
  <circle cx="39" cy="32" r="2"/>
  <circle cx="24" cy="37" r="2"/>
  <circle cx="29" cy="37" r="2"/>
  <circle cx="34" cy="37" r="2"/>
  <circle cx="39" cy="37" r="2"/>
  <circle cx="44" cy="37" r="2"/>
  <circle cx="19" cy="37" r="2"/>
  <circle cx="19" cy="42" r="2"/>
  <circle cx="24" cy="42" r="2"/>
  <circle cx="44" cy="42" r="2"/>
  <circle cx="39" cy="42" r="2"/>
 </g>
</svg>
