<svg width="512" height="512" version="1.1" viewBox="0 0 512 512" xmlns="http://www.w3.org/2000/svg">
 <defs>
  <filter id="application-x-7zip-a" x="-.137" y="-.091" width="1.274" height="1.221">
   <feOffset dy="8" in="SourceAlpha" result="shadowOffsetOuter1"/>
   <feGaussianBlur in="shadowOffsetOuter1" result="shadowBlurOuter1" stdDeviation="14"/>
   <feColorMatrix in="shadowBlurOuter1" values="0 0 0 0 0.241013895   0 0 0 0 0   0 0 0 0 0.621603261  0 0 0 0.5 0"/>
  </filter>
  <linearGradient id="application-x-7zip-c" x1="186.93" x2="186.93" y2="373.87" gradientTransform="matrix(.89872 0 0 1.1127 88 56)" gradientUnits="userSpaceOnUse">
   <stop stop-color="#5C42B1" offset="0"/>
   <stop stop-color="#3E1888" offset=".99345"/>
  </linearGradient>
  <filter id="application-x-7zip-d" x="-.135" y="-.096" width="1.269" height="1.269">
   <feOffset dy="4" in="SourceAlpha" result="shadowOffsetOuter1"/>
   <feGaussianBlur in="shadowOffsetOuter1" result="shadowBlurOuter1" stdDeviation="4"/>
   <feComposite in="shadowBlurOuter1" in2="SourceAlpha" operator="out" result="shadowBlurOuter1"/>
   <feColorMatrix in="shadowBlurOuter1" values="0 0 0 0 0   0 0 0 0 0   0 0 0 0 0  0 0 0 0.05 0"/>
  </filter>
  <linearGradient id="application-x-7zip-f" x1="284" x2="240.31" y1="52" y2="92.449" gradientTransform="translate(88,56)" gradientUnits="userSpaceOnUse">
   <stop stop-color="#FFF" stop-opacity=".1" offset="0"/>
   <stop stop-color="#FFF" stop-opacity=".3" offset="1"/>
  </linearGradient>
 </defs>
 <g fill="none" fill-rule="evenodd">
  <g fill-rule="evenodd">
   <path d="m320 56 104 104v276c0 19.882-16.118 36-36 36h-264c-19.882 0-36-16.118-36-36v-344c0-19.882 16.118-36 36-36z" fill="#000" filter="url(#application-x-7zip-a)"/>
   <path d="m320 56 104 104v276c0 19.882-16.118 36-36 36h-264c-19.882 0-36-16.118-36-36v-344c0-19.882 16.118-36 36-36z" fill="url(#application-x-7zip-c)"/>
   <path d="m320 56 104 104h-68c-19.882 0-36-16.118-36-36z" fill="#000" filter="url(#application-x-7zip-d)"/>
   <path d="m320 56 104 104h-68c-19.882 0-36-16.118-36-36z" fill="url(#application-x-7zip-f)"/>
  </g>
  <path d="m305.92 176 7.7402 49.877h-7.7402c-3.2436-8.0718-7.8509-15.588-13.822-22.549-5.9711-7.035-9.8307-10.29-14.77-11.327-2.2116-0.44418-69.333 0-69.333 0l64.421 82.641v2.9992l-68.421 82.359h84c10.667 0 17.494-1.0379 20-4 2.6536-3.1103 4.2642-7.6379 6.3284-11.489 2.0639-3.8508 3.7594-7.4054 5.0864-10.664l7.4085 2.3327-12.495 47.82h-138.33v-4.4982l76.96-93.197-76.96-99.638v-10.667h129.92z" fill="#FFF"/>
 </g>
</svg>
