<svg width="512" height="512" version="1.1" viewBox="0 0 512 512" xmlns="http://www.w3.org/2000/svg" xmlns:xlink="http://www.w3.org/1999/xlink">
 <defs>
  <linearGradient id="rpm-c" x1="186.93" x2="186.93" y2="365.22" gradientTransform="scale(.89872 1.1127)" gradientUnits="userSpaceOnUse">
   <stop stop-color="#666E7B" offset="0"/>
   <stop stop-color="#475055" offset="1"/>
  </linearGradient>
  <path id="rpm-b" d="m232 0 104 104v276c0 19.882-16.118 36-36 36h-264c-19.882 0-36-16.118-36-36v-344c-2.4349e-15 -19.882 16.118-36 36-36h196z"/>
  <filter id="rpm-a" x="-13.7%" y="-9.1%" width="127.4%" height="122.1%">
   <feOffset dy="8" in="SourceAlpha" result="shadowOffsetOuter1"/>
   <feGaussianBlur in="shadowOffsetOuter1" result="shadowBlurOuter1" stdDeviation="14"/>
   <feColorMatrix in="shadowBlurOuter1" values="0 0 0 0 0.361595344   0 0 0 0 0.418797512   0 0 0 0 0.450973732  0 0 0 0.5 0"/>
  </filter>
  <linearGradient id="rpm-f" x1="284" x2="240.31" y1="52" y2="92.449" gradientUnits="userSpaceOnUse">
   <stop stop-color="#FFF" stop-opacity=".1" offset="0"/>
   <stop stop-color="#FFF" stop-opacity=".3" offset="1"/>
  </linearGradient>
  <path id="rpm-e" d="m232 0 104 104h-68c-19.882 0-36-16.118-36-36v-68z"/>
  <filter id="rpm-d" x="-13.5%" y="-9.6%" width="126.9%" height="126.9%">
   <feOffset dy="4" in="SourceAlpha" result="shadowOffsetOuter1"/>
   <feGaussianBlur in="shadowOffsetOuter1" result="shadowBlurOuter1" stdDeviation="4"/>
   <feComposite in="shadowBlurOuter1" in2="SourceAlpha" operator="out" result="shadowBlurOuter1"/>
   <feColorMatrix in="shadowBlurOuter1" values="0 0 0 0 0   0 0 0 0 0   0 0 0 0 0  0 0 0 0.05 0"/>
  </filter>
 </defs>
 <g transform="translate(88,56)" fill-rule="evenodd">
  <use width="100%" height="100%" fill="#000000" filter="url(#rpm-a)" xlink:href="#rpm-b"/>
  <use width="100%" height="100%" fill="url(#rpm-c)" xlink:href="#rpm-b"/>
  <use width="100%" height="100%" fill="#000000" filter="url(#rpm-d)" xlink:href="#rpm-e"/>
  <use width="100%" height="100%" fill="url(#rpm-f)" xlink:href="#rpm-e"/>
 </g>
 <path d="m208.49 212.84a10.264 10.279 0 0 0-0.96984 0.016 10.264 10.279 0 0 0-2.7154 0.56572s-6.424 2.1233-13.868 6.0452c-7.4436 3.9219-16.486 9.4152-22.305 18.846-6.478 10.497-4.0188 21.728-2.0043 28.448 2.0146 6.72 3.1216 9.6592 1.2607 14.159-0.90876 2.1972-6.4828 6.9984-12.575 9.9888-6.0968 2.9911-11.622 4.558-11.622 4.558a10.264 10.279 0 0 0-7.338 12.64 10.264 10.279 0 0 0 7.338 12.332s5.5292 1.5676 11.622 4.558c6.0924 2.9904 11.667 7.808 12.575 10.005 1.8608 4.4992 0.75382 7.4384-1.2607 14.159-2.0146 6.72-4.4736 17.95 2.0043 28.448 5.8204 9.4308 14.862 14.924 22.305 18.846 7.4436 3.9219 13.868 6.0452 13.868 6.0452a10.264 10.279 0 1 0 6.4652-19.493s-4.8848-1.6538-10.765-4.752c-5.8804-3.0982-12.178-7.8728-14.401-11.476-2.5151-4.0756-1.6926-5.4804 0.1776-11.718 1.8702-6.2384 5.2508-16.603 0.56572-27.93-4.1496-10.032-12.433-15.342-19.848-19.17 7.4152-3.8291 15.699-9.138 19.848-19.17 4.6852-11.328 1.3046-21.692-0.56572-27.93-1.8702-6.2384-2.6928-7.6432-0.1776-11.718 2.2235-3.6029 8.5216-8.394 14.401-11.492 5.8804-3.0982 10.765-4.736 10.765-4.736a10.264 10.279 0 0 0-2.7641-20.068h-0.016zm94.964 0a10.264 10.279 0 0 0-2.7316 20.075s4.8844 1.6376 10.765 4.736c5.88 3.0984 12.178 7.8892 14.401 11.492 2.515 4.0752 1.6924 5.48-0.1776 11.718-1.8703 6.238-5.2512 16.603-0.56572 27.93 4.1496 10.032 12.433 15.34 19.848 19.17-7.4156 3.8287-15.699 9.138-19.848 19.17-4.6852 11.328-1.3045 21.692 0.56572 27.93 1.8703 6.2384 2.6929 7.6432 0.1776 11.718-2.2231 3.603-8.5216 8.3776-14.401 11.476-5.88 3.0982-10.765 4.752-10.765 4.752a10.264 10.279 0 1 0 6.4652 19.493s6.4244-2.1232 13.868-6.0452c7.4432-3.9224 16.485-9.4152 22.305-18.846 6.478-10.498 4.0188-21.728 2.0043-28.448-2.0146-6.7208-3.1216-9.66-1.2607-14.159 0.90832-2.1972 6.4824-7.0148 12.575-10.005 6.0924-2.9905 11.622-4.558 11.622-4.558a10.264 10.279 0 0 0 7.3384-12.332 10.264 10.279 0 0 0-7.3384-12.64s-5.5248-1.567-11.622-4.558c-6.0924-2.9905-11.666-7.792-12.575-9.9888-1.8608-4.4996-0.7539-7.4388 1.2607-14.159 2.0146-6.72 4.4736-17.951-2.0043-28.448-5.8196-9.4308-14.862-14.924-22.305-18.846-7.444-3.9218-13.884-6.0452-13.884-6.0452a10.264 10.279 0 0 0-2.7062-0.56276 10.264 10.279 0 0 0-0.9848-0.016 10.264 10.279 0 0 0-0.032 0zm-47.46 41.38a20.689 20.689 0 0 0-20.689 20.689 20.689 20.689 0 0 0 20.689 20.689 20.689 20.689 0 0 0 20.689-20.689 20.689 20.689 0 0 0-20.689-20.689zm0 62.068c-11.427 0-20.689 9.2628-20.689 20.689s9.2628 20.689 20.689 20.689c7.3132 0 10.344 20.689 10.344 20.689s10.344-37.265 10.344-41.38c0-11.427-9.2628-20.689-20.689-20.689z" fill="#fff" fill-rule="evenodd" stroke-width="8.2756"/>
</svg>
