<svg width="16px" height="16px" version="1.1" viewBox="0 0 16 16" xmlns="http://www.w3.org/2000/svg">
<title>ISO安装器-16px</title>
<desc>Created with Sketch.</desc>
<g fill-rule="evenodd">
<path d="m9.544 1.2226c-2.915-0.8525-5.9686 0.81881-6.8214 3.7338-0.85251 2.9147 0.81916 5.9685 3.7342 6.821 2.9143 0.8525 5.9686-0.81881 6.8207-3.7335 0.8525-2.9153-0.81916-5.9689-3.7335-6.8214z" fill="#fff"/>
<path d="m9.6246 2.0253c-0.68265-0.24904-1.3819-0.31621-2.0605-0.25311-0.78682 0.062089-1.1709 0.3057-1.1482 0.26159-1.2866 0.45939-2.3744 1.4474-2.8782 2.833-0.89708 2.4676 0.37356 5.1965 2.8375 6.0949 2.4649 0.89843 5.1898-0.37389 6.0869-2.8415 0.89742-2.4676-0.37322-5.1962-2.8375-6.0949z" fill="#00b7ff" opacity=".8"/>
<rect x="2" y="6" width="12" height="9" fill="#d69a4e"/>
<polygon points="15.321 9 0.651 9 1.9843 6 13.984 6" fill="#ffcd6f"/>
</g>
</svg>
