<svg width="16" height="16" version="1.1" viewBox="0 0 16 16" xmlns="http://www.w3.org/2000/svg" xmlns:xlink="http://www.w3.org/1999/xlink">
<defs>
<filter id="deepin-boot-maker-a" x="-44.4%" y="-28.6%" width="188.9%" height="157.1%">
<feOffset dy="1" in="SourceAlpha" result="shadowOffsetOuter1"/>
<feGaussianBlur in="shadowOffsetOuter1" result="shadowBlurOuter1" stdDeviation=".5"/>
<feComposite in="shadowBlurOuter1" in2="SourceAlpha" operator="out" result="shadowBlurOuter1"/>
<feColorMatrix in="shadowBlurOuter1" result="shadowMatrixOuter1" values="0 0 0 0 0   0 0 0 0 0   0 0 0 0 0  0 0 0 0.15 0"/>
<feMerge>
<feMergeNode in="shadowMatrixOuter1"/>
<feMergeNode in="SourceGraphic"/>
</feMerge>
</filter>
<linearGradient id="deepin-boot-maker-c" x1="3.0549" x2="6.8279" y1="-4.6268e-31" y2="7.5935" gradientTransform="scale(.94868 1.0541)" gradientUnits="userSpaceOnUse">
<stop stop-color="#9BBE34" offset="0"/>
<stop stop-color="#3A7D09" offset="1"/>
</linearGradient>
<path id="deepin-boot-maker-b" d="m3.5536 0h4.3214c0.62132-6.6598e-16 1.125 0.50368 1.125 1.125v8.875h-9v-6.4172c-2.6231e-16 -0.3288 0.12955-0.64435 0.36058-0.87831l2.3036-2.3328c0.23486-0.23783 0.55518-0.37169 0.88942-0.37169z"/>
<filter id="deepin-boot-maker-d" x="-11.1%" width="122.2%">
<feGaussianBlur in="SourceAlpha" result="shadowBlurInner1" stdDeviation=".5"/>
<feOffset dy="1" in="shadowBlurInner1" result="shadowOffsetInner1"/>
<feComposite in="shadowOffsetInner1" in2="SourceAlpha" k2="-1" k3="1" operator="arithmetic" result="shadowInnerInner1"/>
<feColorMatrix in="shadowInnerInner1" result="shadowMatrixInner1" values="0 0 0 0 1   0 0 0 0 1   0 0 0 0 1  0 0 0 0.3 0"/>
<feGaussianBlur in="SourceAlpha" result="shadowBlurInner2" stdDeviation=".5"/>
<feOffset dx="-1" dy="-1" in="shadowBlurInner2" result="shadowOffsetInner2"/>
<feComposite in="shadowOffsetInner2" in2="SourceAlpha" k2="-1" k3="1" operator="arithmetic" result="shadowInnerInner2"/>
<feColorMatrix in="shadowInnerInner2" result="shadowMatrixInner2" values="0 0 0 0 0.0184287527   0 0 0 0 0.105044158   0 0 0 0 0.00466373642  0 0 0 0.35385708 0"/>
<feMerge>
<feMergeNode in="shadowMatrixInner1"/>
<feMergeNode in="shadowMatrixInner2"/>
</feMerge>
</filter>
<linearGradient id="deepin-boot-maker-g" x1="3.3541" x2="4.0735" y1="14.394" y2="16.277" gradientTransform="matrix(1.3416 0 0 .74536 4 1)" gradientUnits="userSpaceOnUse">
<stop stop-color="#303030" offset="0"/>
<stop stop-color="#131212" offset="1"/>
</linearGradient>
<linearGradient id="deepin-boot-maker-h" x1=".65465" x2="5.2372" y1="17.212" y2="17.921" gradientTransform="scale(1.5275 .65465)" gradientUnits="userSpaceOnUse">
<stop stop-color="#F1E274" offset="0"/>
<stop stop-color="#CEB214" offset=".18149"/>
<stop stop-color="#F2CC00" offset=".37816"/>
<stop stop-color="#E7BF00" offset=".56473"/>
<stop stop-color="#F9D53B" offset=".67568"/>
<stop stop-color="#E8B800" offset=".83443"/>
<stop stop-color="#FFCF00" offset="1"/>
</linearGradient>
<path id="deepin-boot-maker-i" d="m1.75 10c0.13807 0 0.25 0.11193 0.25 0.25v2.5c0 0.13807-0.11193 0.25-0.25 0.25h-0.5c-0.13807 0-0.25-0.11193-0.25-0.25v-2.5c0-0.13807 0.11193-0.25 0.25-0.25h0.5zm6 0c0.13807 0 0.25 0.11193 0.25 0.25v2.5c0 0.13807-0.11193 0.25-0.25 0.25h-0.5c-0.13807 0-0.25-0.11193-0.25-0.25v-2.5c0-0.13807 0.11193-0.25 0.25-0.25h0.5zm-2 0c0.13807 0 0.25 0.11193 0.25 0.25v1.5c0 0.13807-0.11193 0.25-0.25 0.25h-0.5c-0.13807 0-0.25-0.11193-0.25-0.25v-1.5c0-0.13807 0.11193-0.25 0.25-0.25h0.5zm-2 0c0.13807 0 0.25 0.11193 0.25 0.25v1.5c0 0.13807-0.11193 0.25-0.25 0.25h-0.5c-0.13807 0-0.25-0.11193-0.25-0.25v-1.5c0-0.13807 0.11193-0.25 0.25-0.25h0.5z"/>
<filter id="deepin-boot-maker-j" x="-7.1%" y="-16.7%" width="114.3%" height="133.3%">
<feOffset dy="1" in="SourceAlpha" result="shadowOffsetInner1"/>
<feComposite in="shadowOffsetInner1" in2="SourceAlpha" k2="-1" k3="1" operator="arithmetic" result="shadowInnerInner1"/>
<feColorMatrix in="shadowInnerInner1" values="0 0 0 0 0.926828578   0 0 0 0 0.558558022   0 0 0 0 0  0 0 0 0.5 0"/>
</filter>
</defs>
<g fill-rule="evenodd">
<use transform="translate(4,1)" width="100%" height="100%" fill="url(#deepin-boot-maker-c)" filter="url(#deepin-boot-maker-a)" xlink:href="#deepin-boot-maker-b"/>
<use transform="translate(4,1)" width="100%" height="100%" fill="#000000" filter="url(#deepin-boot-maker-d)" xlink:href="#deepin-boot-maker-b"/>
<path d="m4 10h9v3.875c0 0.62132-0.50368 1.125-1.125 1.125h-6.75c-0.62132 0-1.125-0.50368-1.125-1.125z" fill="url(#deepin-boot-maker-g)" filter="url(#deepin-boot-maker-a)"/>
<use transform="translate(4,1)" width="100%" height="100%" fill="url(#deepin-boot-maker-h)" filter="url(#deepin-boot-maker-a)" xlink:href="#deepin-boot-maker-i"/>
<use transform="translate(4,1)" width="100%" height="100%" fill="#000000" filter="url(#deepin-boot-maker-j)" xlink:href="#deepin-boot-maker-i"/>
</g>
</svg>
