<svg width="16" height="16" version="1.1" viewBox="0 0 16 16" xmlns="http://www.w3.org/2000/svg">
<title>深度截图-16px</title>
<rect transform="rotate(15.006)" x="2.928" y=".63878" width="14" height="11" rx="2" ry="2" fill="#a6dbff" fill-rule="evenodd"/>
<g transform="translate(20)">
<rect x="-19" y="3" width="14" height="11" rx="2" ry="2" fill="#ea004e" fill-rule="evenodd"/>
<g transform="translate(-20)">
<path d="m3 3c-1.108 0-2 0.892-2 2v4.6953c3.59 2.29 6.9353-0.71125 7.6543-2.2812 0.81 0.532 2.6939 0.23852 3.5059-0.77148 0.5 1.306 1.8758 2.2229 2.8398 2.1719v-3.8145c0-1.108-0.892-2-2-2z" fill="#ff0056" fill-rule="evenodd"/>
</g>
<path d="m-9 6.5s0-0.5-0.558-0.5h-4.442v-1.5s0-0.5-0.5-0.5-0.5 0.5-0.5 0.5v1.5h-1.5s-0.5 0-0.5 0.5 0.5 0.5 0.5 0.5h1.5v3.5c0 0.5 0.5 0.5 0.5 0.5h4.5v1.5s0 0.5 0.5 0.5 0.5-0.5 0.5-0.5v-1.5h1.512s0.488 0 0.488-0.5-0.488-0.5-0.488-0.5h-1.512zm-5 3.5v-3h4v3z" fill="#fff" fill-rule="evenodd"/>
</g>
</svg>
