<svg width="128" height="128" version="1.1" viewBox="0 0 128 128" xmlns="http://www.w3.org/2000/svg" xmlns:xlink="http://www.w3.org/1999/xlink">
<defs>
<filter id="filter900" x="-.048" y="-.048" width="1.096" height="1.096" color-interpolation-filters="sRGB">
<feGaussianBlur stdDeviation="2.24"/>
</filter>
<linearGradient id="linearGradient910" x1="65" x2="65" y1="113" y2="18" gradientUnits="userSpaceOnUse">
<stop stop-color="#46a926" offset="0"/>
<stop stop-color="#7ec242" offset="1"/>
</linearGradient>
</defs>
<title>deepin-calculator</title>
<g>
<g stroke-width="2.7966">
<circle cx="64" cy="64" r="56" fill="#ccc" filter="url(#filter900)"/>
<circle cx="64" cy="64" r="56" fill="#fff"/>
<circle cx="64" cy="64" r="48" fill="url(#linearGradient910)"/>
</g>
<g transform="matrix(.23214 0 0 .23077 19.429 16)" enable-background="new" fill="#92b372">
<path d="m80 104v144c0 35.157 28.843 64 64 64h96c35.157 0 64-28.843 64-64v-80c0-26.32-21.68-48-48-48-12.296 0-23.467 4.8602-32 12.586-8.5332-7.7257-19.704-12.586-32-12.586-26.32 0-48 21.68-48 48v80h32v-80c0-9.0261 6.9739-16 16-16s16 6.9739 16 16v80h32v-80c0-9.0261 6.9739-16 16-16s16 6.9739 16 16v80c0 17.863-14.137 32-32 32h-96c-17.863 0-32-14.137-32-32v-144z" color="#000000" color-rendering="auto" dominant-baseline="auto" enable-background="accumulate" fill="#fff" image-rendering="auto" shape-rendering="auto" solid-color="#000000" style="font-feature-settings:normal;font-variant-alternates:normal;font-variant-caps:normal;font-variant-ligatures:normal;font-variant-numeric:normal;font-variant-position:normal;isolation:auto;mix-blend-mode:normal;shape-padding:0;text-decoration-color:#000000;text-decoration-line:none;text-decoration-style:solid;text-indent:0;text-orientation:mixed;text-transform:none;white-space:normal"/>
</g>
</g>
</svg>
