<svg width="128" height="128" version="1.1" viewBox="0 0 128 128" xmlns="http://www.w3.org/2000/svg" xmlns:xlink="http://www.w3.org/1999/xlink">
<defs>
<filter id="computer-a" x="-13.8%" y="-16.3%" width="127.6%" height="132.7%">
<feOffset dy="2" in="SourceAlpha" result="shadowOffsetOuter1"/>
<feGaussianBlur in="shadowOffsetOuter1" result="shadowBlurOuter1" stdDeviation="3"/>
<feComposite in="shadowBlurOuter1" in2="SourceAlpha" operator="out" result="shadowBlurOuter1"/>
<feColorMatrix in="shadowBlurOuter1" result="shadowMatrixOuter1" values="0 0 0 0 0   0 0 0 0 0   0 0 0 0 0  0 0 0 0.2 0"/>
<feMerge>
<feMergeNode in="shadowMatrixOuter1"/>
<feMergeNode in="SourceGraphic"/>
</feMerge>
</filter>
<linearGradient id="computer-b" x1="44.927" x2="44.927" y1="125.23" y2="109.73" gradientTransform="scale(1.291 .7746)" gradientUnits="userSpaceOnUse">
<stop stop-color="#CFDAFC" offset="0"/>
<stop stop-color="#CDCFD2" offset="1"/>
</linearGradient>
<polygon id="computer-c" points="48 85 68 85 68 97 48 97"/>
<filter id="computer-d" y="-16.7%" height="133.3%">
<feGaussianBlur in="SourceAlpha" result="shadowBlurInner1" stdDeviation="1"/>
<feOffset dy="2" in="shadowBlurInner1" result="shadowOffsetInner1"/>
<feComposite in="shadowOffsetInner1" in2="SourceAlpha" k2="-1" k3="1" operator="arithmetic" result="shadowInnerInner1"/>
<feColorMatrix in="shadowInnerInner1" values="0 0 0 0 0.305544245   0 0 0 0 0.316030326   0 0 0 0 0.533769248  0 0 0 0.178130463 0"/>
</filter>
<linearGradient id="computer-e" x1="15.884" x2="15.884" y1="346.89" y2="355.67" gradientTransform="scale(3.6515 .27386)" gradientUnits="userSpaceOnUse">
<stop stop-color="#FFF" offset="0"/>
<stop stop-color="#EBF4FF" offset="1"/>
</linearGradient>
<path id="computer-f" d="m39.5 95h37c0.82843 0 1.5 0.67157 1.5 1.5s-0.67157 1.5-1.5 1.5h-37c-0.82843 0-1.5-0.67157-1.5-1.5s0.67157-1.5 1.5-1.5z"/>
<filter id="computer-g" x="-1.2%" y="-16.7%" width="102.5%" height="133.3%">
<feOffset dy="-1" in="SourceAlpha" result="shadowOffsetInner1"/>
<feComposite in="shadowOffsetInner1" in2="SourceAlpha" k2="-1" k3="1" operator="arithmetic" result="shadowInnerInner1"/>
<feColorMatrix in="shadowInnerInner1" values="0 0 0 0 0   0 0 0 0 0   0 0 0 0 0  0 0 0 0.168651661 0"/>
</filter>
<linearGradient id="computer-h" x1="39.321" x2="74.773" y1="22.99" y2="76.307" gradientTransform="scale(1.1682 .85601)" gradientUnits="userSpaceOnUse">
<stop stop-color="#D7E4FF" offset="0"/>
<stop stop-color="#F4F9FF" offset="1"/>
</linearGradient>
<rect id="computer-i" width="116" height="85" rx="12.5"/>
<filter id="computer-j" x="-.4%" y="-.6%" width="100.9%" height="101.2%">
<feOffset dy="-1" in="SourceAlpha" result="shadowOffsetInner1"/>
<feComposite in="shadowOffsetInner1" in2="SourceAlpha" k2="-1" k3="1" operator="arithmetic" result="shadowInnerInner1"/>
<feColorMatrix in="shadowInnerInner1" result="shadowMatrixInner1" values="0 0 0 0 0   0 0 0 0 0   0 0 0 0 0  0 0 0 0.12 0"/>
<feOffset dy="1" in="SourceAlpha" result="shadowOffsetInner2"/>
<feComposite in="shadowOffsetInner2" in2="SourceAlpha" k2="-1" k3="1" operator="arithmetic" result="shadowInnerInner2"/>
<feColorMatrix in="shadowInnerInner2" result="shadowMatrixInner2" values="0 0 0 0 1   0 0 0 0 1   0 0 0 0 1  0 0 0 1 0"/>
<feMerge>
<feMergeNode in="shadowMatrixInner1"/>
<feMergeNode in="shadowMatrixInner2"/>
</feMerge>
</filter>
<linearGradient id="computer-l" x1="42.702" x2="42.702" y1="1.1074" y2="91.478" gradientTransform="scale(1.1843 .84437)" gradientUnits="userSpaceOnUse">
<stop stop-color="#4F5D73" offset="0"/>
<stop stop-color="#313A46" offset="1"/>
</linearGradient>
<rect id="computer-k" y=".5" width="108" height="77" rx="9"/>
<linearGradient id="computer-n" x2="31.623" y1="15.811" y2="15.811" gradientTransform="matrix(3.1623 0 0 .31623 14 82)" gradientUnits="userSpaceOnUse">
<stop stop-color="#A09AD3" offset="0"/>
<stop stop-color="#988DD9" offset=".49618"/>
<stop stop-color="#1654D2" offset="1"/>
</linearGradient>
<filter id="a" color-interpolation-filters="sRGB">
<feFlood flood-color="#908B78" flood-opacity=".498" result="flood"/>
<feComposite in="flood" in2="SourceGraphic" operator="in" result="composite1"/>
<feGaussianBlur in="composite1" result="blur" stdDeviation="1.5"/>
<feOffset dx="0" dy="1.5" result="offset"/>
<feComposite in="SourceGraphic" in2="offset" result="composite2"/>
</filter>
</defs>
<g fill-rule="evenodd">
<use transform="translate(6,15)" width="100%" height="100%" fill="url(#computer-b)" filter="url(#computer-a)" xlink:href="#computer-c"/>
<use transform="translate(6,15)" width="100%" height="100%" fill="#000000" filter="url(#computer-d)" xlink:href="#computer-c"/>
<use transform="translate(6,15)" width="100%" height="100%" fill="url(#computer-e)" filter="url(#computer-a)" xlink:href="#computer-f"/>
<use transform="translate(6,15)" width="100%" height="100%" fill="#000000" filter="url(#computer-g)" xlink:href="#computer-f"/>
<use transform="translate(6,15)" width="100%" height="100%" fill="url(#computer-h)" filter="url(#computer-a)" xlink:href="#computer-i"/>
<use transform="translate(6,15)" width="100%" height="100%" fill="#000000" filter="url(#computer-j)" xlink:href="#computer-i"/>
<use transform="translate(10,18.5)" width="100%" height="100%" fill="url(#computer-l)" filter="url(#computer-a)" xlink:href="#computer-k"/>
<rect x="14" y="82" width="100" height="10" rx="2.5" fill="url(#computer-n)" filter="url(#computer-a)"/>
<rect x="26" y="84" width="6" height="6" rx="1.25" fill="#00c98f" filter="url(#computer-a)"/>
<rect x="49" y="84" width="6" height="6" rx="1.25" fill="#75ffac" filter="url(#computer-a)"/>
<rect x="34" y="84" width="6" height="6" rx="1.25" fill="#ff7d52" filter="url(#computer-a)"/>
<rect x="57" y="84" width="6" height="6" rx="1.25" fill="#ffb656" filter="url(#computer-a)"/>
<rect x="73" y="84" width="6" height="6" rx="1.25" fill="#ff796e" filter="url(#computer-a)"/>
</g>
<g fill-opacity=".3" fill-rule="evenodd">
<rect x="96" y="84" width="6" height="6" rx="1.25" filter="url(#computer-a)"/>
<rect x="88" y="84" width="6" height="6" rx="1.25" filter="url(#computer-a)"/>
<rect x="104" y="84" width="6" height="6" rx="1.25" filter="url(#computer-a)"/>
</g>
<circle cx="21" cy="87" r="3" fill="#326cff" fill-rule="evenodd" filter="url(#computer-a)"/>
<circle cx="68" cy="87" r="3" fill="#482ac5" fill-rule="evenodd" filter="url(#computer-a)"/>
<path transform="matrix(1.9351 0 0 1.9351 2.0768 -5.3976)" d="m32 19c-3.324 0-6 2.676-6 6v2h-1.5c-0.831 0-1.5 0.669-1.5 1.5v9c0 0.831 0.669 1.5 1.5 1.5h15c0.831 0 1.5-0.669 1.5-1.5v-9c0-0.831-0.669-1.5-1.5-1.5h-1.5v-2c0-3.324-2.676-6-6-6zm0 3c1.662 0 3 1.338 3 3v2h-6v-2c0-1.662 1.338-3 3-3z" fill="#fff" filter="url(#a)"/>
</svg>
