<svg width="128" height="128" version="1.1" viewBox="0 0 128 128" xmlns="http://www.w3.org/2000/svg" xmlns:xlink="http://www.w3.org/1999/xlink">
<defs>
<filter id="preference-system-a" x="-13.6%" y="-13.6%" width="127.1%" height="127.1%">
<feOffset dy="2" in="SourceAlpha" result="shadowOffsetOuter1"/>
<feGaussianBlur in="shadowOffsetOuter1" result="shadowBlurOuter1" stdDeviation="3"/>
<feComposite in="shadowBlurOuter1" in2="SourceAlpha" operator="out" result="shadowBlurOuter1"/>
<feColorMatrix in="shadowBlurOuter1" result="shadowMatrixOuter1" values="0 0 0 0 0   0 0 0 0 0   0 0 0 0 0  0 0 0 0.2 0"/>
<feMerge>
<feMergeNode in="shadowMatrixOuter1"/>
<feMergeNode in="SourceGraphic"/>
</feMerge>
</filter>
<linearGradient id="preference-system-b" x1="62.19" x2="56.574" y1="121.9" gradientTransform="translate(4,4)" gradientUnits="userSpaceOnUse">
<stop stop-color="#444" offset=".01926"/>
<stop stop-color="#808080" offset="1"/>
</linearGradient>
<circle id="preference-system-c" cx="59" cy="59" r="37.545"/>
<filter id="preference-system-d" x="-5.3%" y="-5.3%" width="110.7%" height="110.7%">
<feGaussianBlur in="SourceAlpha" result="shadowBlurInner1" stdDeviation="2.5"/>
<feOffset dy="3" in="shadowBlurInner1" result="shadowOffsetInner1"/>
<feComposite in="shadowOffsetInner1" in2="SourceAlpha" k2="-1" k3="1" operator="arithmetic" result="shadowInnerInner1"/>
<feColorMatrix in="shadowInnerInner1" values="0 0 0 0 0   0 0 0 0 0   0 0 0 0 0  0 0 0 0.5 0"/>
</filter>
<path id="preference-system-f" d="m57.492 21.454c1.9924 0.23787 3.9288 0.65777 5.7923 1.2426l-0.38992 4.369c1.5004 0.55575 2.9383 1.2427 4.3002 2.0472l3.2544-3.152c1.669 1.0245 3.2374 2.197 4.6869 3.4992l-2.3736 4.0174c1.1443 1.1676 2.185 2.4395 3.107 3.8002l4.6694-1.539c1.0431 1.585 1.9499 3.2678 2.7037 5.0315l-4.2043 2.8067c0.55707 1.5922 0.97218 3.2524 1.2299 4.965l5.2862 0.72281c0.17428 1.3562 0.26414 2.7388 0.26414 4.1425 0 0.46756-0.0099712 0.9328-0.029713 1.3955l-5.3575 0.73176c-0.18433 1.7957-0.5408 3.5397-1.0524 5.2147l4.696 3.1343c-0.58887 1.7113-1.318 3.3573-2.1736 4.9243l-5.3578-1.7647c-0.96058 1.5667-2.0737 3.0277-3.3182 4.3615l2.943 4.9809c-1.254 1.2298-2.6083 2.3578-4.0495 3.3705l-4.1235-3.9947c-1.5626 0.99824-3.2336 1.8384-4.9911 2.4982l0.51674 5.7832c-1.6366 0.52764-3.3305 0.92778-5.07 1.1887l-2.0088-5.4242c-0.92214 0.096584-1.8581 0.14608-2.8054 0.14608s-1.8833-0.0495-2.8054-0.14608l-2.0078 5.4243c-1.74-0.26095-3.4344-0.6612-5.0716-1.189l0.51734-5.783c-1.7575-0.65982-3.4285-1.4999-4.9911-2.4982l-4.1232 3.9949c-1.4412-1.0128-2.7956-2.1408-4.0498-3.3707l2.943-4.9809c-1.2446-1.3339-2.3577-2.7948-3.3182-4.3615l-5.3578 1.7647c-0.85547-1.5667-1.5845-3.2124-2.1733-4.9233l4.6957-3.1353c-0.51163-1.675-0.86811-3.4189-1.0524-5.2147l-5.3575-0.73176c-0.019741-0.46271-0.029713-0.92794-0.029713-1.3955 0-1.4036 0.08986-2.7863 0.26414-4.1425l5.2862-0.72281c0.25774-1.7126 0.67285-3.3728 1.2299-4.965l-4.2043-2.8067c0.7538-1.7637 1.6606-3.4465 2.7037-5.0315l4.6694 1.539c0.92196-1.3608 1.9627-2.6326 3.107-3.8002l-2.3741-4.017c1.4496-1.3024 3.0182-2.475 4.6874-3.4997l3.2544 3.152c1.3619-0.80445 2.7998-1.4914 4.3002-2.0472l-0.39091-4.3687c1.8638-0.58499 3.8005-1.005 5.7933-1.2429l1.5032 4.0613c0.77519-0.067877 1.5598-0.10252 2.3523-0.10252 0.79258 0 1.5772 0.034646 2.3523 0.10252zm-3.8555 9.7486c-11.849 0-21.455 9.6055-21.455 21.455 0 11.849 9.6055 21.455 21.455 21.455 11.849 0 21.455-9.6055 21.455-21.455 0-11.849-9.6055-21.455-21.455-21.455z"/>
<filter id="preference-system-e" x="-9.3%" y="-4.7%" width="118.6%" height="118.8%">
<feOffset dy="3" in="SourceAlpha" result="shadowOffsetOuter1"/>
<feGaussianBlur in="shadowOffsetOuter1" result="shadowBlurOuter1" stdDeviation="1.5"/>
<feComposite in="shadowBlurOuter1" in2="SourceAlpha" operator="out" result="shadowBlurOuter1"/>
<feColorMatrix in="shadowBlurOuter1" values="0 0 0 0 0   0 0 0 0 0   0 0 0 0 0  0 0 0 0.2 0"/>
</filter>
<radialGradient id="preference-system-g" cx="53.633" cy="53.634" r="54.055" gradientTransform="matrix(1 0 0 .99997 9.364 9.364)" gradientUnits="userSpaceOnUse">
<stop stop-color="#E2E5ED" offset="0"/>
<stop stop-color="#9DA3B5" offset=".48405"/>
<stop stop-color="#E7ECFF" offset="1"/>
</radialGradient>
</defs>
<circle cx="63" cy="63" r="59" fill="url(#preference-system-b)" fill-rule="evenodd" filter="url(#preference-system-a)"/>
<g fill="#000000" fill-rule="evenodd">
<use transform="translate(4,4)" width="100%" height="100%" fill-opacity=".5" filter="url(#preference-system-a)" xlink:href="#preference-system-c"/>
<use transform="translate(4,4)" width="100%" height="100%" filter="url(#preference-system-d)" xlink:href="#preference-system-c"/>
<use transform="translate(9.364,9.364)" width="100%" height="100%" filter="url(#preference-system-e)" xlink:href="#preference-system-f"/>
</g>
<path d="m67.187 31.364-1.4979 4.0471-0.38009-0.03328c-0.76455-0.06695-1.5346-0.10062-2.3087-0.10062-0.77414 0-1.5442 0.03367-2.3087 0.10062l-0.38009 0.03328-1.4979-4.0471c-1.6754 0.22115-3.322 0.57486-4.9279 1.0564l0.38886 4.3457-0.3584 0.13276c-1.4638 0.54219-2.8753 1.2148-4.2196 2.0088l-0.32828 0.19391-3.2477-3.1456c-1.4018 0.88426-2.7325 1.8774-3.9798 2.9694l2.3596 3.9924-0.26858 0.27404c-1.1253 1.1482-2.1466 2.3971-3.0502 3.7307l-0.21181 0.31262-4.6621-1.5365c-0.8696 1.3567-1.6347 2.778-2.2879 4.2523l4.179 2.7898-0.12798 0.3658c-0.55175 1.577-0.95657 3.2074-1.2074 4.8743l-0.05572 0.37026-5.2754 0.72134c-0.14201 1.2214-0.21362 2.4558-0.21362 3.6993 0 0.3196 0.0047 0.63864 0.01418 0.95704l5.3303 0.72805 0.04015 0.39114c0.17928 1.7465 0.52604 3.4592 1.0332 5.1197l0.10859 0.35549-4.6822 3.1263c0.50646 1.4151 1.1132 2.7905 1.8149 4.1168l5.3353-1.7574 0.20684 0.33736c0.94056 1.5341 2.0325 2.9689 3.2575 4.2818l0.25516 0.27346-2.9328 4.9636c1.0575 1.0119 2.1836 1.95 3.3699 2.8069l4.1082-3.9803 0.33316 0.21284c1.5434 0.986 3.1841 1.8081 4.8976 2.4515l0.35617 0.13372-0.51542 5.7615c1.3754 0.42426 2.7815 0.75452 4.2108 0.98768l2.0006-5.4048 0.3862 0.04045c0.9103 0.09534 1.8289 0.14336 2.7534 0.14336 0.92448 0 1.8431-0.04802 2.7534-0.14336l0.38613-0.04044 2.0016 5.4047c1.4288-0.23312 2.8344-0.56327 4.2093-0.98736l-0.51482-5.7616 0.35613-0.1337c1.7136-0.64332 3.3542-1.4654 4.8976-2.4515l0.33314-0.21283 4.1085 3.9801c1.1862-0.85681 2.3122-1.7948 3.3696-2.8067l-2.9328-4.9636 0.25516-0.27346c1.225-1.3129 2.317-2.7477 3.2575-4.2818l0.20684-0.33736 5.3353 1.7574c0.70187-1.3266 1.3087-2.7023 1.8152-4.1177l-4.6826-3.1253 0.10861-0.35555c0.5072-1.6605 0.85396-3.3731 1.0332-5.1197l0.04015-0.39114 5.3303-0.72805c0.0094-0.3184 0.01417-0.63743 0.01417-0.95704 0-1.2435-0.07161-2.4779-0.21362-3.6993l-5.2754-0.72134-0.05572-0.37026c-0.25086-1.6669-0.65568-3.2973-1.2074-4.8743l-0.12798-0.3658 4.179-2.7898c-0.65316-1.4742-1.4183-2.8955-2.2879-4.2523l-4.6621 1.5365-0.21181-0.31262c-0.90356-1.3336-1.9248-2.5825-3.0502-3.7307l-0.26854-0.274 2.3591-3.9928c-1.2471-1.0918-2.5777-2.0848-3.9793-2.969l-3.2477 3.1456-0.32828-0.19391c-1.3443-0.79402-2.7558-1.4666-4.2196-2.0088l-0.35831-0.13272 0.38786-4.346c-1.6057-0.48145-3.2519-0.83507-4.927-1.0562zm-4.1868 8.703c12.125 0 21.955 9.8294 21.955 21.955s-9.8294 21.955-21.955 21.955c-12.125 0-21.955-9.8294-21.955-21.955s9.8294-21.955 21.955-21.955z" fill="#585f6c" fill-rule="evenodd" filter="url(#preference-system-a)" stroke="#fff" stroke-linejoin="square" stroke-opacity=".1"/>
<path d="m72.879 9.9185c-1.0857-0.24649-2.1829 0.36406-2.5457 1.4166l-2.1922 6.3595c-0.46218 1.3408-1.7559 2.2138-3.1723 2.1407-0.80242-0.04146-1.4595-0.06213-1.9699-0.06213-0.51042 0-1.1675 0.02068-1.9699 0.06213-1.4163 0.07317-2.7101-0.79987-3.1723-2.1407l-2.1922-6.3595c-0.36284-1.0526-1.46-1.6631-2.5457-1.4166l-3.3653 0.76401c-1.0808 0.24538-1.806 1.2621-1.686 2.3639l0.74486 6.8383c0.14622 1.3424-0.57079 2.6309-1.7886 3.2142l-3.876 1.8565c-1.2262 0.5873-2.69 0.33065-3.6432-0.63876l-4.7527-4.8334c-0.78215-0.79543-2.0383-0.87273-2.9121-0.1792l-2.7162 2.1559c-0.86446 0.68614-1.0804 1.9098-0.50302 2.8504l3.5636 5.8053c0.7068 1.1514 0.60939 2.6237-0.24296 3.6719l-2.89 3.5542c-0.84953 1.0448-2.2648 1.4417-3.5337 0.99096l-6.378-2.2654c-1.0414-0.3699-2.1949 0.09728-2.6854 1.0876l-1.5351 3.0993c-0.49304 0.99548-0.15941 2.2025 0.77491 2.8034l5.6107 3.6086c1.1446 0.73616 1.6943 2.1188 1.3676 3.4399l-1.1887 4.8072c-0.31847 1.2879-1.4027 2.2431-2.7205 2.3967l-6.8406 0.79712c-1.0621 0.12376-1.878 0.99902-1.927 2.0672l-0.12906 2.814c-0.0024 0.05233-0.00291 0.10472-0.00154 0.15709l0.036422 1.3906c0.015838 0.60472 0.47383 1.1058 1.0747 1.1758l7.4327 0.86611c1.3714 0.1598 2.4832 1.1858 2.7524 2.5399l1.0298 5.1786c0.25494 1.282-0.30015 2.5896-1.3995 3.2967l-5.8474 3.7609c-0.909 0.58464-1.253 1.7467-0.80872 2.7319l1.3326 2.9553c0.46673 1.0351 1.6493 1.5392 2.7192 1.1591l6.1444-2.1824c1.3099-0.46527 2.7702-0.02634 3.6065 1.084l3.3053 4.3884c0.78681 1.0446 0.8543 2.4643 0.17012 3.5789l-3.6762 5.9888c-0.56641 0.9227-0.37049 2.1212 0.46024 2.8155l2.3627 1.9747c0.87219 0.72897 2.1579 0.66615 2.9549-0.14435l4.6452-4.7241c0.97056-0.98704 2.4679-1.2333 3.7035-0.60911l4.9985 2.5252c1.1833 0.59779 1.8719 1.8666 1.7284 3.1845l-0.75665 6.9464c-0.11918 1.0942 0.59527 2.1058 1.6663 2.3594l2.8875 0.68365c1.0909 0.25829 2.2-0.35221 2.5654-1.4121l2.1887-6.3495c0.46366-1.3451 1.7639-2.2189 3.1845-2.14l2.5516 0.14165c0.08056 5e-3 0.1613 5e-3 0.24186 0l2.5516-0.14165c1.4206-0.0789 2.7208 0.79493 3.1845 2.14l2.1887 6.3495c0.36535 1.0599 1.4745 1.6704 2.5654 1.4121l2.8875-0.68365c1.071-0.25358 1.7855-1.2652 1.6663-2.3594l-0.75665-6.9464c-0.14356-1.3179 0.54508-2.5867 1.7284-3.1845l4.9985-2.5252c1.2356-0.6242 2.7329-0.37793 3.7035 0.60911l4.6452 4.7241c0.79698 0.8105 2.0827 0.87332 2.9549 0.14435l2.3627-1.9747c0.83074-0.69432 1.0266-1.8928 0.46024-2.8155l-3.6762-5.9888c-0.68417-1.1146-0.61669-2.5342 0.17012-3.5789l3.3054-4.3884c0.83632-1.1104 2.2966-1.5493 3.6065-1.084l6.1444 2.1824c1.0699 0.38003 2.2525-0.12406 2.7192-1.1591l1.3326-2.9553c0.44427-0.98525 0.10027-2.1473-0.80873-2.7319l-5.8474-3.7609c-1.0994-0.70709-1.6545-2.0146-1.3995-3.2967l1.0298-5.1786c0.26927-1.3541 1.3811-2.3801 2.7524-2.5399l7.4327-0.86611c0.60086-0.07002 1.0588-0.57111 1.0747-1.1758l0.0364-1.3906c1e-3 -0.05237 8.6e-4 -0.10476-2e-3 -0.15709l-0.12907-2.814c-0.049-1.0682-0.86489-1.9434-1.927-2.0672l-6.8406-0.79712c-1.3178-0.15356-2.402-1.1087-2.7205-2.3967l-1.1887-4.8072c-0.32668-1.3211 0.22301-2.7037 1.3676-3.4399l5.6108-3.6086c0.93432-0.60092 1.268-1.8079 0.77491-2.8034l-1.535-3.0993c-0.4905-0.99034-1.644-1.4575-2.6854-1.0876l-6.378 2.2654c-1.2689 0.45071-2.6842 0.05383-3.5337-0.99096l-2.89-3.5542c-0.85235-1.0483-0.94976-2.5205-0.24296-3.6719l3.5636-5.8053c0.57739-0.94059 0.36144-2.1642-0.50302-2.8504l-2.7157-2.1559c-0.87378-0.69353-2.13-0.61623-2.9121 0.1792l-4.7527 4.8334c-0.95322 0.96941-2.4171 1.2261-3.6432 0.63876l-3.876-1.8565c-1.2178-0.58331-1.9348-1.8718-1.7886-3.2142l0.74486-6.8383c0.12002-1.1018-0.60512-2.1186-1.686-2.3639zm-17.574 58.866c5.1277 8.8814 4.813 19.738-0.56102 28.257l-0.19428 0.30796-0.35272-0.09038c-15.516-3.9758-26.56-18.015-26.56-34.259 0-2.4896 0.25735-4.9464 0.76341-7.3427l0.07535-0.3568 0.36276-0.03727c10.629-1.0919 21.03 4.1056 26.466 13.521zm41.858-13.521 0.36556 0.03756 0.07329 0.3601 0.09961 0.4895c0.43972 2.2402 0.663 4.5308 0.663 6.8498 0 16.243-11.044 30.283-26.559 34.259l-0.3527 0.09038-0.19429-0.30792c-5.3748-8.5184-5.6897-19.375-0.56192-28.257 5.436-9.4154 15.838-14.613 26.466-13.521zm-34.162 1.8695c3.2384 0 5.8636 2.6252 5.8636 5.8636s-2.6252 5.8636-5.8636 5.8636-5.8636-2.6252-5.8636-5.8636 2.6252-5.8636 5.8636-5.8636zm-6.5e-5 -29.496c9.5605 0 18.518 3.8123 25.115 10.468l0.23476 0.23682-0.12842 0.30774c-4.212 10.094-14.097 16.806-25.222 16.806-11.125 0-21.01-6.7118-25.222-16.805l-0.12842-0.30771 0.23472-0.23682c6.5972-6.6564 15.554-10.469 25.115-10.469z" fill="url(#preference-system-g)" fill-rule="evenodd" filter="url(#preference-system-a)" stroke="#fff" stroke-opacity=".3"/>
</svg>
