<svg width="128" height="128" version="1.1" viewBox="0 0 128 128" xmlns="http://www.w3.org/2000/svg" xmlns:xlink="http://www.w3.org/1999/xlink">
<defs>
<filter id="deepin-virtualkeyboard-a" x="-13.8%" y="-15.1%" width="127.6%" height="130.2%">
<feOffset dy="2" in="SourceAlpha" result="shadowOffsetOuter1"/>
<feGaussianBlur in="shadowOffsetOuter1" result="shadowBlurOuter1" stdDeviation="3"/>
<feComposite in="shadowBlurOuter1" in2="SourceAlpha" operator="out" result="shadowBlurOuter1"/>
<feColorMatrix in="shadowBlurOuter1" result="shadowMatrixOuter1" values="0 0 0 0 0   0 0 0 0 0   0 0 0 0 0  0 0 0 0.2 0"/>
<feMerge>
<feMergeNode in="shadowMatrixOuter1"/>
<feMergeNode in="SourceGraphic"/>
</feMerge>
</filter>
<linearGradient id="deepin-virtualkeyboard-b" x1="55.444" x2="55.444" y2="108.82" gradientTransform="matrix(1.0461 0 0 .95593 6 11)" gradientUnits="userSpaceOnUse">
<stop stop-color="#FFF" offset="0"/>
<stop stop-color="#EDEDED" offset="1"/>
</linearGradient>
<linearGradient id="deepin-virtualkeyboard-e" x1="41.012" x2="41.012" y1="52.326" y2="97.581" gradientTransform="scale(1.4142 .70711)" gradientUnits="userSpaceOnUse">
<stop stop-color="#4A4A4A" offset="0"/>
<stop stop-color="#363636" offset=".97645"/>
</linearGradient>
<path id="deepin-virtualkeyboard-d" d="m84.017 37h3.9652c1.1142 0 2.0174 0.90322 2.0174 2.0174v3.9652c0 1.1142-0.90322 2.0174-2.0174 2.0174h-3.9652c-1.1142 0-2.0174-0.90322-2.0174-2.0174v-3.9652c0-1.1142 0.90322-2.0174 2.0174-2.0174zm-12 0h3.9652c1.1142 0 2.0174 0.90322 2.0174 2.0174v3.9652c0 1.1142-0.90322 2.0174-2.0174 2.0174h-3.9652c-1.1142 0-2.0174-0.90322-2.0174-2.0174v-3.9652c0-1.1142 0.90322-2.0174 2.0174-2.0174zm-12 0h3.9652c1.1142 0 2.0174 0.90322 2.0174 2.0174v3.9652c0 1.1142-0.90322 2.0174-2.0174 2.0174h-3.9652c-1.1142 0-2.0174-0.90322-2.0174-2.0174v-3.9652c0-1.1142 0.90322-2.0174 2.0174-2.0174zm9.9826 14.017v3.9652c0 1.1142-0.90322 2.0174-2.0174 2.0174h-3.9652c-1.1142 0-2.0174-0.90322-2.0174-2.0174v-3.9652c0-1.1142 0.90322-2.0174 2.0174-2.0174h3.9652c1.1142 0 2.0174 0.90322 2.0174 2.0174zm-21.983-14.017h3.9652c1.1142 0 2.0174 0.90322 2.0174 2.0174v3.9652c0 1.1142-0.90322 2.0174-2.0174 2.0174h-3.9652c-1.1142 0-2.0174-0.90322-2.0174-2.0174v-3.9652c0-1.1142 0.90322-2.0174 2.0174-2.0174zm9.9826 14.017v3.9652c0 1.1142-0.90322 2.0174-2.0174 2.0174h-3.9652c-1.1142 0-2.0174-0.90322-2.0174-2.0174v-3.9652c0-1.1142 0.90322-2.0174 2.0174-2.0174h3.9652c1.1142 0 2.0174 0.90322 2.0174 2.0174zm-29.983-14.017h11.965c1.1142 0 2.0174 0.90322 2.0174 2.0174v3.9652c0 1.1142-0.90322 2.0174-2.0174 2.0174h-11.965c-1.1142 0-2.0174-0.90322-2.0174-2.0174v-3.9652c0-1.1142 0.90322-2.0174 2.0174-2.0174zm0 12h15.965c1.1142 0 2.0174 0.90322 2.0174 2.0174v3.9652c0 1.1142-0.90322 2.0174-2.0174 2.0174h-15.965c-1.1142 0-2.0174-0.90322-2.0174-2.0174v-3.9652c0-1.1142 0.90322-2.0174 2.0174-2.0174zm47.965 20h-31.965c-1.1142 0-2.0174-0.90322-2.0174-2.0174v-3.9652c0-1.1142 0.90322-2.0174 2.0174-2.0174h31.965c1.1142 0 2.0174 0.90322 2.0174 2.0174v3.9652c0 1.1142-0.90322 2.0174-2.0174 2.0174zm-40 0h-7.9652c-1.1142 0-2.0174-0.90322-2.0174-2.0174v-3.9652c0-1.1142 0.90322-2.0174 2.0174-2.0174h7.9652c1.1142 0 2.0174 0.90322 2.0174 2.0174v3.9652c0 1.1142-0.90322 2.0174-2.0174 2.0174zm52-12h-11.965c-1.1142 0-2.0174-0.90322-2.0174-2.0174v-3.9652c0-1.1142 0.90322-2.0174 2.0174-2.0174h11.965c1.1142 0 2.0174 0.90322 2.0174 2.0174v3.9652c0 1.1142-0.90322 2.0174-2.0174 2.0174zm0 12h-3.9652c-1.1142 0-2.0174-0.90322-2.0174-2.0174v-3.9652c0-1.1142 0.90322-2.0174 2.0174-2.0174h3.9652c1.1142 0 2.0174 0.90322 2.0174 2.0174v3.9652c0 1.1142-0.90322 2.0174-2.0174 2.0174z"/>
<filter id="deepin-virtualkeyboard-c" x="-.8%" y="-1.6%" width="101.6%" height="106.2%">
<feOffset dy="1" in="SourceAlpha" result="shadowOffsetOuter1"/>
<feColorMatrix in="shadowOffsetOuter1" values="0 0 0 0 0   0 0 0 0 0   0 0 0 0 0  0 0 0 0.1 0"/>
</filter>
<filter id="deepin-virtualkeyboard-f" x="-.8%" y="-1.6%" width="101.6%" height="106.2%">
<feOffset dy="1" in="SourceAlpha" result="shadowOffsetInner1"/>
<feComposite in="shadowOffsetInner1" in2="SourceAlpha" k2="-1" k3="1" operator="arithmetic" result="shadowInnerInner1"/>
<feColorMatrix in="shadowInnerInner1" result="shadowMatrixInner1" values="0 0 0 0 1   0 0 0 0 1   0 0 0 0 1  0 0 0 0.05 0"/>
<feOffset dy="-1" in="SourceAlpha" result="shadowOffsetInner2"/>
<feComposite in="shadowOffsetInner2" in2="SourceAlpha" k2="-1" k3="1" operator="arithmetic" result="shadowInnerInner2"/>
<feColorMatrix in="shadowInnerInner2" result="shadowMatrixInner2" values="0 0 0 0 0   0 0 0 0 0   0 0 0 0 0  0 0 0 0.5 0"/>
<feMerge>
<feMergeNode in="shadowMatrixInner1"/>
<feMergeNode in="shadowMatrixInner2"/>
</feMerge>
</filter>
</defs>
<rect x="6" y="11" width="116" height="106" rx="20.174" fill="url(#deepin-virtualkeyboard-b)" fill-rule="evenodd" filter="url(#deepin-virtualkeyboard-a)"/>
<g>
<use transform="translate(6,11)" width="100%" height="100%" fill="#000000" filter="url(#deepin-virtualkeyboard-c)" xlink:href="#deepin-virtualkeyboard-d"/>
<use transform="translate(6,11)" width="100%" height="100%" fill="url(#deepin-virtualkeyboard-e)" filter="url(#deepin-virtualkeyboard-a)" xlink:href="#deepin-virtualkeyboard-d"/>
<use transform="translate(6,11)" width="100%" height="100%" fill="#000000" filter="url(#deepin-virtualkeyboard-f)" xlink:href="#deepin-virtualkeyboard-d"/>
</g>
<g fill="#f22c42" fill-rule="evenodd">
<rect x="52" y="48" width="8" height="8" rx="2" ry="2" style="paint-order:stroke fill markers"/>
<rect x="64" y="48" width="8" height="8" rx="2" ry="2" style="paint-order:stroke fill markers"/>
<rect x="56" y="60" width="8" height="8" rx="2" ry="2" style="paint-order:stroke fill markers"/>
</g>
</svg>
