<svg width="96" height="96" version="1.1" viewBox="0 0 96 96" xmlns="http://www.w3.org/2000/svg" xmlns:xlink="http://www.w3.org/1999/xlink">
<title>deepin-font-installer</title>
<defs>
<path id="b" d="M80 34h1.905c1.105 0 2.367.82 2.814 1.825l6.396 14.35c.449 1.008-.087 1.825-1.19 1.825H84v33.993A2.005 2.005 0 0 1 82 88H14c-1.105 0-2-.903-2-2.007V52H5.91c-1.108 0-1.64-.82-1.194-1.825l6.378-14.35C11.543 34.817 12.804 34 13.907 34H16V10c0-1.16.754-2 2-2h42.02L80 28v6z"/>
<linearGradient id="c" x1="21.831" x2="21.831" y1="74.9" y2="85.096" gradientTransform="scale(2.1949 .45561)" gradientUnits="userSpaceOnUse">
<stop stop-color="#fff" offset="0"/>
<stop stop-color="#C9DAE9" offset="1"/>
</linearGradient>
<filter id="a" color-interpolation-filters="sRGB">
<feFlood flood-opacity=".196" result="flood"/>
<feComposite in="flood" in2="SourceGraphic" operator="in" result="composite1"/>
<feGaussianBlur in="composite1" result="blur" stdDeviation="1"/>
<feOffset dx="0" dy="1" result="offset"/>
<feComposite in="SourceGraphic" in2="offset" result="composite2"/>
</filter>
</defs>
<use width="100%" height="100%" fill-opacity="0" filter="url(#a)" xlink:href="#b"/>
<g fill-rule="evenodd" filter="url(#a)">
<path d="m78.002 86h-60.002c-1.247 0-2-0.952-2-2v-74c0-1.16 0.753-2 2-2h42.02l19.98 20v56c-0.064 2-1.998 2-1.998 2z" fill="#92d700"/>
<path d="m78.002 86h-60.002c-1.247 0-2-0.952-2-2v-74c0-1.16 0.753-2 2-2h42.02l19.98 20v56c-0.064 2-1.998 2-1.998 2z" fill="#e5b400"/>
<path d="m16 84c0 1.048 0.753 2 2 2h60.002s1.934 0 1.998-2v-1c-0.064 2-1.998 2-1.998 2h-60.002c-1.247 0-2-0.952-2-2z" opacity=".1"/>
<path d="m16 10c0-1.16 0.753-2 2-2h42.02v1h-42.02c-1.247 0-2 0.84-2 2v36.5z" fill="#fff" opacity=".197"/>
<path d="m52.979 47h-10.389v-1.248c0.914-0.059 1.673-0.176 2.276-0.352s0.906-0.392 0.906-0.65c0-0.105-0.012-0.234-0.035-0.387a1.846 1.846 0 0 0-0.106-0.404l-2.074-5.59h-8.737c-0.329 0.82-0.595 1.535-0.8 2.145s-0.39 1.172-0.554 1.687c-0.152 0.504-0.258 0.914-0.316 1.23a4.436 4.436 0 0 0-0.088 0.774c0 0.469 0.369 0.832 1.107 1.09s1.57 0.41 2.496 0.457v1.248h-9.385v-1.248c0.304-0.023 0.685-0.09 1.142-0.202 0.457-0.111 0.832-0.26 1.125-0.448 0.469-0.317 0.832-0.648 1.09-0.994 0.258-0.345 0.51-0.823 0.756-1.432a987.08 987.08 0 0 0 4.148-10.547c1.512-3.903 2.86-7.377 4.043-10.424h1.406l8.315 21.516c0.176 0.457 0.375 0.826 0.598 1.107 0.222 0.281 0.533 0.557 0.931 0.826 0.27 0.164 0.621 0.302 1.055 0.414 0.433 0.11 0.797 0.172 1.09 0.184zm-10.055-10.195-3.78-9.668-3.708 9.668zm26.912 9.879c-0.55 0.2-1.034 0.36-1.45 0.483a4.99 4.99 0 0 1-1.415 0.185c-0.914 0-1.644-0.214-2.189-0.642-0.545-0.427-0.893-1.052-1.046-1.872h-0.105c-0.762 0.844-1.58 1.488-2.452 1.934-0.873 0.445-1.925 0.668-3.155 0.668-1.301 0-2.37-0.399-3.208-1.196-0.838-0.796-1.257-1.84-1.257-3.128 0-0.668 0.093-1.266 0.281-1.793a4.285 4.285 0 0 1 0.844-1.424c0.293-0.352 0.68-0.665 1.16-0.94s0.932-0.496 1.353-0.66c0.528-0.2 1.597-0.568 3.208-1.107 1.612-0.54 2.699-0.961 3.261-1.266v-1.74c0-0.152-0.032-0.445-0.097-0.879s-0.202-0.844-0.413-1.23c-0.234-0.434-0.565-0.812-0.993-1.134s-1.034-0.484-1.82-0.484c-0.538 0-1.04 0.091-1.502 0.273-0.463 0.181-0.788 0.372-0.976 0.571 0 0.234 0.056 0.58 0.167 1.037 0.112 0.457 0.167 0.88 0.167 1.266 0 0.41-0.184 0.785-0.553 1.125-0.37 0.34-0.882 0.51-1.538 0.51-0.586 0-1.017-0.208-1.292-0.624s-0.414-0.882-0.414-1.398c0-0.54 0.19-1.055 0.572-1.547 0.38-0.492 0.876-0.932 1.485-1.318 0.528-0.328 1.166-0.607 1.916-0.835a7.518 7.518 0 0 1 2.197-0.343c0.985 0 1.843 0.067 2.576 0.202a4.728 4.728 0 0 1 1.995 0.87c0.597 0.434 1.052 1.023 1.362 1.767s0.466 1.702 0.466 2.874c0 1.676-0.018 3.16-0.053 4.456-0.035 1.295-0.053 2.71-0.053 4.245 0 0.457 0.08 0.82 0.238 1.09s0.401 0.498 0.73 0.685c0.175 0.106 0.453 0.164 0.834 0.176s0.77 0.018 1.17 0.018zm-6.135-9.281c-0.996 0.293-1.869 0.58-2.619 0.861a10.6 10.6 0 0 0-2.092 1.055 4.76 4.76 0 0 0-1.388 1.415c-0.34 0.545-0.51 1.192-0.51 1.942 0 0.973 0.255 1.688 0.764 2.145 0.51 0.457 1.158 0.685 1.943 0.685 0.832 0 1.564-0.202 2.197-0.606a6.394 6.394 0 0 0 1.6-1.433z" fill="#cda100"/>
<path d="m52.979 46h-10.389v-1.248c0.914-0.059 1.673-0.176 2.276-0.352s0.906-0.392 0.906-0.65c0-0.105-0.012-0.234-0.035-0.387a1.846 1.846 0 0 0-0.106-0.404l-2.074-5.59h-8.737c-0.329 0.82-0.595 1.535-0.8 2.145s-0.39 1.172-0.554 1.687c-0.152 0.504-0.258 0.914-0.316 1.23a4.436 4.436 0 0 0-0.088 0.774c0 0.469 0.369 0.832 1.107 1.09s1.57 0.41 2.496 0.457v1.248h-9.385v-1.248c0.304-0.023 0.685-0.09 1.142-0.202 0.457-0.111 0.832-0.26 1.125-0.448 0.469-0.317 0.832-0.648 1.09-0.994 0.258-0.345 0.51-0.823 0.756-1.432a987.08 987.08 0 0 0 4.148-10.547c1.512-3.903 2.86-7.377 4.043-10.424h1.406l8.315 21.516c0.176 0.457 0.375 0.826 0.598 1.107 0.222 0.281 0.533 0.557 0.931 0.826 0.27 0.164 0.621 0.302 1.055 0.414 0.433 0.11 0.797 0.172 1.09 0.184zm-10.055-10.195-3.78-9.668-3.708 9.668zm26.912 9.879c-0.55 0.2-1.034 0.36-1.45 0.483a4.99 4.99 0 0 1-1.415 0.185c-0.914 0-1.644-0.214-2.189-0.642-0.545-0.427-0.893-1.052-1.046-1.872h-0.105c-0.762 0.844-1.58 1.488-2.452 1.934-0.873 0.445-1.925 0.668-3.155 0.668-1.301 0-2.37-0.399-3.208-1.196-0.838-0.796-1.257-1.84-1.257-3.128 0-0.668 0.093-1.266 0.281-1.793a4.285 4.285 0 0 1 0.844-1.424c0.293-0.352 0.68-0.665 1.16-0.94s0.932-0.496 1.353-0.66c0.528-0.2 1.597-0.568 3.208-1.107 1.612-0.54 2.699-0.961 3.261-1.266v-1.74c0-0.152-0.032-0.445-0.097-0.879s-0.202-0.844-0.413-1.23c-0.234-0.434-0.565-0.812-0.993-1.134s-1.034-0.484-1.82-0.484c-0.538 0-1.04 0.091-1.502 0.273-0.463 0.181-0.788 0.372-0.976 0.571 0 0.234 0.056 0.58 0.167 1.037 0.112 0.457 0.167 0.88 0.167 1.266 0 0.41-0.184 0.785-0.553 1.125-0.37 0.34-0.882 0.51-1.538 0.51-0.586 0-1.017-0.208-1.292-0.624s-0.414-0.882-0.414-1.398c0-0.54 0.19-1.055 0.572-1.547 0.38-0.492 0.876-0.932 1.485-1.318 0.528-0.328 1.166-0.607 1.916-0.835a7.518 7.518 0 0 1 2.197-0.343c0.985 0 1.843 0.067 2.576 0.202a4.728 4.728 0 0 1 1.995 0.87c0.597 0.434 1.052 1.023 1.362 1.767s0.466 1.702 0.466 2.874c0 1.676-0.018 3.16-0.053 4.456-0.035 1.295-0.053 2.71-0.053 4.245 0 0.457 0.08 0.82 0.238 1.09s0.401 0.498 0.73 0.685c0.175 0.106 0.453 0.164 0.834 0.176s0.77 0.018 1.17 0.018zm-6.135-9.281c-0.996 0.293-1.869 0.58-2.619 0.861a10.6 10.6 0 0 0-2.092 1.055 4.76 4.76 0 0 0-1.388 1.415c-0.34 0.545-0.51 1.192-0.51 1.942 0 0.973 0.255 1.688 0.764 2.145 0.51 0.457 1.158 0.685 1.943 0.685 0.832 0 1.564-0.202 2.197-0.606a6.394 6.394 0 0 0 1.6-1.433z" fill="#fff"/>
<path d="m61.858 28.056c-1.104 0-1.858-0.952-1.858-2.056v-18l20 20z" fill="#ffe587"/>
<rect x="12" y="36" width="72" height="52" rx="2" fill="#c0d0df"/>
<path d="m12 37.999c0-1.104 0.897-2 2-2h68a2 2 0 0 1 2 2v47.001c0 1.104-0.897 2-2 2h-68a2 2 0 0 1-2-2z" fill="#dee8f2"/>
<path d="m91.115 50.175c0.45 1.008-0.087 1.825-1.19 1.825h-84.015c-1.107 0-1.64-0.82-1.193-1.825l6.378-14.35c0.449-1.008 1.709-1.825 2.812-1.825h67.999c1.104 0 2.366 0.82 2.814 1.825z" fill="url(#c)"/>
<path d="m82.371 35.048c0.554 0 1.185 0.41 1.41 0.915l6.287 14.109c0.225 0.504-0.03 0.914-0.593 0.914l-83.14 0.051c-0.553 0-0.818-0.412-0.598-0.907l6.318-14.214c0.223-0.501 0.856-0.907 1.406-0.907z" fill="#f0f8fa"/>
</g>
</svg>
