<svg width="96" height="96" version="1.1" viewBox="0 0 96 96" xmlns="http://www.w3.org/2000/svg" xmlns:xlink="http://www.w3.org/1999/xlink">
<defs>
<filter id="preference-system-a" x="-13.6%" y="-13.6%" width="127.3%" height="127.3%">
<feOffset dy="2" in="SourceAlpha" result="shadowOffsetOuter1"/>
<feGaussianBlur in="shadowOffsetOuter1" result="shadowBlurOuter1" stdDeviation="2"/>
<feComposite in="shadowBlurOuter1" in2="SourceAlpha" operator="out" result="shadowBlurOuter1"/>
<feColorMatrix in="shadowBlurOuter1" result="shadowMatrixOuter1" values="0 0 0 0 0   0 0 0 0 0   0 0 0 0 0  0 0 0 0.2 0"/>
<feMerge>
<feMergeNode in="shadowMatrixOuter1"/>
<feMergeNode in="SourceGraphic"/>
</feMerge>
</filter>
<linearGradient id="preference-system-b" x1="46.379" x2="42.191" y1="90.912" gradientTransform="translate(4,4)" gradientUnits="userSpaceOnUse">
<stop stop-color="#444" offset=".01926"/>
<stop stop-color="#808080" offset="1"/>
</linearGradient>
<circle id="preference-system-c" cx="44" cy="44" r="28"/>
<filter id="preference-system-d" x="-5.4%" y="-5.4%" width="110.7%" height="110.7%">
<feGaussianBlur in="SourceAlpha" result="shadowBlurInner1" stdDeviation="2"/>
<feOffset dy="2" in="shadowBlurInner1" result="shadowOffsetInner1"/>
<feComposite in="shadowOffsetInner1" in2="SourceAlpha" k2="-1" k3="1" operator="arithmetic" result="shadowInnerInner1"/>
<feColorMatrix in="shadowInnerInner1" values="0 0 0 0 0   0 0 0 0 0   0 0 0 0 0  0 0 0 0.5 0"/>
</filter>
<path id="preference-system-f" d="m42.876 16c1.486 0.17746 2.9302 0.49069 4.32 0.92694l-0.29185 3.2579c1.1189 0.41446 2.1913 0.92677 3.2069 1.5267l2.4267-2.3508c1.245 0.76425 2.415 1.6389 3.4962 2.6103l-1.7707 2.9955c0.8534 0.87077 1.6295 1.8193 2.3171 2.8341l3.4824-1.1476c0.77809 1.1823 1.4545 2.4376 2.0167 3.7532l-3.1359 2.0921c0.41544 1.1874 0.72501 2.4256 0.91723 3.7027l3.9423 0.5395c0.12993 1.0113 0.19693 2.0422 0.19693 3.0888 0 0.34853-0.0074292 0.69532-0.022138 1.0402l-3.9955 0.54621c-0.13746 1.3392-0.40331 2.6398-0.78487 3.8889l3.5019 2.3381c-0.43915 1.2761-0.98286 2.5035-1.6209 3.672l-3.9955-1.3163c-0.71636 1.1684-1.5465 2.2579-2.4746 3.2527l2.1949 3.7145c-0.93537 0.91731-1.9455 1.7587-3.0205 2.514l-3.0748-2.9794c-1.1653 0.74445-2.4115 1.371-3.7222 1.8631l0.38532 4.3129c-1.2203 0.39342-2.4833 0.69178-3.7802 0.88636l-1.4988-4.0451c-0.68769 0.072028-1.3857 0.10894-2.0922 0.10894s-1.4045-0.036915-2.0922-0.10894l-1.4988 4.0451c-1.2969-0.19459-2.5599-0.49295-3.7802-0.88636l0.38532-4.3129c-1.3107-0.49207-2.5569-1.1186-3.7222-1.8631l-3.0748 2.9794c-1.0749-0.75537-2.0851-1.5967-3.0205-2.514l2.1949-3.7145c-0.92816-0.99474-1.7582-2.0842-2.4746-3.2527l-3.9955 1.3163c-0.63805-1.1685-1.1818-2.3959-1.6209-3.672l3.5019-2.3381c-0.38156-1.2491-0.6474-2.5497-0.78487-3.8889l-3.9955-0.54621c-0.014709-0.34491-0.022138-0.6917-0.022138-1.0402 0-1.0466 0.066994-2.0776 0.19693-3.0888l3.9423-0.5395c0.19221-1.2772 0.50178-2.5153 0.91723-3.7027l-3.1359-2.0921c0.56223-1.3157 1.2386-2.5709 2.0167-3.7532l3.4824 1.1476c0.68756-1.0148 1.4637-1.9633 2.3171-2.8341l-1.7707-2.9955c1.0812-0.97144 2.2512-1.8461 3.4962-2.6103l2.4267 2.3508c1.0157-0.59993 2.088-1.1122 3.2069-1.5267l-0.29185-3.2579c1.3898-0.43625 2.8341-0.74948 4.32-0.92694l1.1217 3.0287c0.57811-0.05062 1.1632-0.076457 1.7543-0.076457s1.1762 0.025837 1.7543 0.076457zm-2.876 7.27c-8.8366 0-16 7.1634-16 16s7.1634 16 16 16 16-7.1634 16-16-7.1634-16-16-16z"/>
<filter id="preference-system-e" x="-8.3%" y="-4.2%" width="116.7%" height="116.8%">
<feOffset dy="2" in="SourceAlpha" result="shadowOffsetOuter1"/>
<feGaussianBlur in="shadowOffsetOuter1" result="shadowBlurOuter1" stdDeviation="1"/>
<feComposite in="shadowBlurOuter1" in2="SourceAlpha" operator="out" result="shadowBlurOuter1"/>
<feColorMatrix in="shadowBlurOuter1" values="0 0 0 0 0   0 0 0 0 0   0 0 0 0 0  0 0 0 0.2 0"/>
</filter>
<radialGradient id="preference-system-g" cx="39.998" cy="39.998" r="40.312" gradientTransform="matrix(1 0 0 .99997 8 8)" gradientUnits="userSpaceOnUse">
<stop stop-color="#E2E5ED" offset="0"/>
<stop stop-color="#9DA3B5" offset=".48405"/>
<stop stop-color="#E7ECFF" offset="1"/>
</radialGradient>
</defs>
<circle cx="48" cy="48" r="44" fill="url(#preference-system-b)" fill-rule="evenodd" filter="url(#preference-system-a)"/>
<g fill="#000000" fill-rule="evenodd">
<use transform="translate(4,4)" width="100%" height="100%" fill-opacity=".5" filter="url(#preference-system-a)" xlink:href="#preference-system-c"/>
<use transform="translate(4,4)" width="100%" height="100%" filter="url(#preference-system-d)" xlink:href="#preference-system-c"/>
<use transform="translate(8,8)" width="100%" height="100%" filter="url(#preference-system-e)" xlink:href="#preference-system-f"/>
</g>
<path d="m51.207 24.546-1.1161 3.0137-0.38-0.03327c-0.56649-0.049606-1.1371-0.074556-1.7107-0.074556s-1.1442 0.02495-1.7107 0.07455l-0.38 0.03327-1.1161-3.0137c-1.1734 0.16008-2.3276 0.40791-3.455 0.74055l0.28971 3.234-0.35844 0.13277c-1.0845 0.40171-2.1303 0.90003-3.1263 1.4883l-0.32832 0.19393-2.4194-2.3438c-0.97938 0.62362-1.9116 1.3191-2.7887 2.0802l1.7557 2.9701-0.2686 0.27407c-0.83388 0.85086-1.5907 1.7763-2.2602 2.7646l-0.2118 0.31261-3.4743-1.1449c-0.60421 0.95141-1.1394 1.9452-1.6008 2.9741l3.1097 2.0747-0.12802 0.36591c-0.40886 1.1686-0.70884 2.3768-0.89474 3.612l-0.05572 0.37021-3.9307 0.53791c-0.09789 0.87391-0.14724 1.7567-0.14724 2.6458 0 0.20096 0.0025 0.40162 0.0076 0.60194l3.9673 0.54236 0.04014 0.39109c0.13285 1.2943 0.38982 2.5634 0.76567 3.7939l0.10859 0.3555-3.4877 2.3286c0.35661 0.9832 0.77859 1.9403 1.2627 2.8656l3.9722-1.3086 0.20684 0.33737c0.69698 1.1368 1.5062 2.2 2.4139 3.1729l0.25516 0.27347-2.1843 3.6964c0.73753 0.69976 1.5195 1.3513 2.3408 1.9502l3.059-2.9641 0.33318 0.21286c1.1436 0.73056 2.3592 1.3397 3.6287 1.8163l0.35613 0.1337-0.38332 4.2905c0.95507 0.28998 1.9299 0.51895 2.9199 0.68505l1.4912-4.0246 0.38606 0.04044c0.67447 0.07064 1.3551 0.10622 2.0401 0.10622s1.3656-0.03558 2.0401-0.10622l0.38606-0.04044 1.4912 4.0246c0.99002-0.1661 1.9649-0.39508 2.9199-0.68505l-0.38332-4.2905 0.35613-0.1337c1.2696-0.47663 2.4852-1.0858 3.6287-1.8163l0.33318-0.21286 3.059 2.9641c0.8213-0.59889 1.6033-1.2505 2.3408-1.9502l-2.1843-3.6964 0.25516-0.27347c0.90777-0.97288 1.7169-2.0361 2.4139-3.1729l0.20684-0.33737 3.9722 1.3086c0.48413-0.92528 0.90612-1.8824 1.2627-2.8656l-3.4877-2.3286 0.10859-0.3555c0.37585-1.2305 0.63282-2.4996 0.76567-3.7939l0.04014-0.39109 3.9673-0.54236c5e-3 -0.20032 0.0076-0.40098 0.0076-0.60194 0-0.88907-0.04935-1.7719-0.14724-2.6458l-3.9307-0.53791-0.05572-0.37021c-0.18598-1.2352-0.48596-2.4434-0.89482-3.612l-0.12802-0.36591 3.1097-2.0747c-0.46146-1.0289-0.99662-2.0227-1.6008-2.9741l-3.4743 1.1449-0.2118-0.31261c-0.66956-0.98823-1.4264-1.9137-2.2602-2.7646l-0.2686-0.27407 1.7557-2.9701c-0.87716-0.76107-1.8094-1.4566-2.7887-2.0802l-2.4194 2.3438-0.32832-0.19393c-0.99598-0.58831-2.0418-1.0866-3.1263-1.4883l-0.35844-0.13277 0.28971-3.234c-1.1274-0.33264-2.2815-0.58047-3.455-0.74055zm-3.2068 6.2237c9.1127 0 16.5 7.3873 16.5 16.5 0 9.1127-7.3873 16.5-16.5 16.5s-16.5-7.3873-16.5-16.5c0-9.1127 7.3873-16.5 16.5-16.5z" fill="#585f6c" fill-rule="evenodd" filter="url(#preference-system-a)" stroke="#fff" stroke-linejoin="square" stroke-opacity=".1"/>
<path d="m55.339 8.5375c-0.74644-0.16946-1.5007 0.25029-1.7502 0.97394l-1.6348 4.7427c-0.36314 1.0535-1.3797 1.7394-2.4925 1.682-0.59642-0.03081-1.0844-0.04617-1.4625-0.04617-0.37818 0-0.86612 0.01535-1.4625 0.04617-1.1128 0.05749-2.1294-0.62847-2.4925-1.682l-1.6348-4.7427c-0.24945-0.72365-1.0038-1.1434-1.7502-0.97394l-2.5097 0.56977c-0.74307 0.1687-1.2416 0.8677-1.1591 1.6252l0.55549 5.0997c0.11489 1.0547-0.44848 2.0671-1.4053 2.5254l-2.8905 1.3845c-0.96341 0.46145-2.1136 0.25979-2.8625-0.50188l-3.5444-3.6046c-0.53773-0.54686-1.4014-0.6-2.0021-0.1232l-2.0257 1.6078c-0.59432 0.47172-0.74278 1.313-0.34583 1.9596l2.6576 4.3294c0.55535 0.90469 0.47881 2.0614-0.1909 2.8851l-2.1552 2.6506c-0.66749 0.82091-1.7795 1.1327-2.7765 0.77861l-4.7565-1.6895c-0.71597-0.25431-1.509 0.06688-1.8462 0.74774l-1.1448 2.3114c-0.33897 0.68439-0.10959 1.5142 0.53275 1.9273l4.1843 2.6912c0.89932 0.57842 1.3312 1.6647 1.0746 2.7028l-0.88647 3.585c-0.25023 1.012-1.1021 1.7624-2.1375 1.8831l-5.1015 0.59446c-0.7302 0.08509-1.2911 0.68683-1.3248 1.4212l-0.09625 2.0986c-0.00165 0.03598-2e-3 0.072-0.00106 0.108l0.027162 1.0371c0.010156 0.38775 0.30382 0.70906 0.6891 0.75395l5.543 0.64592c1.0775 0.12556 1.9511 0.93166 2.1626 1.9956l0.76798 3.862c0.20031 1.0073-0.23583 2.0347-1.0996 2.5902l-4.3608 2.8047c-0.62494 0.40194-0.86143 1.2008-0.556 1.8782l0.99379 2.2039c0.32088 0.7116 1.1339 1.0582 1.8695 0.79689l4.5822-1.6276c1.0292-0.36557 2.1766-0.0207 2.8337 0.85172l2.465 3.2727c0.61821 0.82078 0.67123 1.9362 0.13367 2.812l-2.7416 4.4662c-0.3894 0.63436-0.25471 1.4583 0.31642 1.9357l1.762 1.4727c0.59963 0.50116 1.4836 0.45798 2.0315-0.09925l3.4643-3.5231c0.76258-0.77553 1.9391-0.96903 2.9099-0.47859l3.7277 1.8832c0.92972 0.46969 1.4708 1.4666 1.358 2.5021l-0.56428 5.1804c-0.08194 0.75225 0.40925 1.4477 1.1456 1.6221l2.1534 0.50984c0.75001 0.17757 1.5125-0.24215 1.7637-0.97081l1.6323-4.7352c0.3643-1.0568 1.3859-1.7434 2.5021-1.6814l1.9029 0.10563c0.05538 0.0031 0.1109 0.0031 0.16628 0l1.9029-0.10563c1.1162-0.06196 2.1378 0.62459 2.5021 1.6814l1.6323 4.7352c0.25118 0.72866 1.0137 1.1484 1.7637 0.97081l2.1534-0.50984c0.73634-0.17434 1.2275-0.86983 1.1456-1.6221l-0.56428-5.1804c-0.11279-1.0355 0.42828-2.0324 1.358-2.5021l3.7277-1.8832c0.9708-0.49044 2.1473-0.29694 2.9099 0.47859l3.4643 3.5231c0.54792 0.55722 1.4319 0.60041 2.0315 0.09925l1.762-1.4727c0.57113-0.47734 0.70582-1.3013 0.31642-1.9357l-2.7416-4.4662c-0.53756-0.87572-0.48454-1.9912 0.13367-2.812l2.465-3.2727c0.6571-0.87242 1.8045-1.2173 2.8337-0.85172l4.5822 1.6276c0.73558 0.26127 1.5486-0.08529 1.8695-0.79689l0.99379-2.2039c0.30543-0.67736 0.06894-1.4762-0.556-1.8782l-4.3608-2.8047c-0.8638-0.55557-1.2999-1.5829-1.0996-2.5902l0.76798-3.862c0.21157-1.0639 1.0851-1.8701 2.1626-1.9956l5.543-0.64592c0.38528-0.04489 0.67894-0.3662 0.6891-0.75395l0.02716-1.0371c9.43e-4 -0.036 5.89e-4 -0.07202-0.0011-0.108l-0.09625-2.0986c-0.03368-0.73436-0.59461-1.3361-1.3248-1.4212l-5.1015-0.59446c-1.0354-0.12066-1.8873-0.87113-2.1375-1.8831l-0.88647-3.585c-0.25667-1.038 0.17523-2.1243 1.0746-2.7028l4.1843-2.6912c0.64234-0.41314 0.87172-1.2429 0.53275-1.9273l-1.1448-2.3114c-0.33722-0.68086-1.1303-1.002-1.8462-0.74774l-4.7565 1.6895c-0.99701 0.35413-2.109 0.0423-2.7765-0.77861l-2.1552-2.6506c-0.6697-0.82363-0.74624-1.9804-0.1909-2.8851l2.6576-4.3294c0.39695-0.64666 0.24849-1.4879-0.34583-1.9596l-2.0257-1.6078c-0.60072-0.4768-1.4644-0.42366-2.0021 0.1232l-3.5444 3.6046c-0.74896 0.76168-1.8991 0.96333-2.8625 0.50188l-2.8905-1.3845c-0.95687-0.45832-1.5202-1.4707-1.4053-2.5254l0.55549-5.0997c0.082512-0.7575-0.41602-1.4565-1.1591-1.6252zm-12.968 43.712c3.8479 6.6647 3.6117 14.812-0.42094 21.204l-0.19427 0.30795-0.35272-0.09038c-11.627-2.9792-19.903-13.5-19.903-25.672 0-1.8655 0.19284-3.7064 0.57205-5.5021l0.07535-0.35679 0.36274-0.03728c7.9755-0.8197 15.781 3.0807 19.861 10.146zm31.119-10.146 0.36557 0.03756 0.07328 0.36012 0.07444 0.3659c0.32951 1.6787 0.49682 3.3952 0.49682 5.1328 0 12.172-8.2757 22.693-19.902 25.672l-0.35271 0.09038-0.19428-0.30794c-4.033-6.3924-4.2693-14.54-0.4214-21.205 4.0793-7.0655 11.885-10.966 19.861-10.146zm-25.49 1.3935c2.4853 0 4.5 2.0147 4.5 4.5 0 2.4853-2.0147 4.5-4.5 4.5-2.4853 0-4.5-2.0147-4.5-4.5 0-2.4853 2.0147-4.5 4.5-4.5zm-4.9e-5 -21.997c7.164 0 13.876 2.8568 18.82 7.8439l0.23476 0.23681-0.1284 0.30774c-3.1605 7.5746-10.578 12.612-18.927 12.612-8.3483 0-15.766-5.0367-18.927-12.61l-0.12842-0.30771 0.23472-0.23682c4.9437-4.988 11.656-7.8451 18.82-7.8451z" fill="url(#preference-system-g)" fill-rule="evenodd" filter="url(#preference-system-a)" stroke="#fff" stroke-opacity=".3"/>
</svg>
