<svg width="22" height="22" version="1.1" xmlns="http://www.w3.org/2000/svg">
<defs>
<style id="current-color-scheme" type="text/css">.ColorScheme-Text { color:#dfdfdf; } .ColorScheme-Highlight { color:#4285f4; }</style>
</defs>
<path d="m6.5 16c-0.277 0-0.5 0.223-0.5 0.5s0.223 0.5 0.5 0.5h6.2539l0.51562-1h-6.7695z" fill="#dfdfdf" stroke-linejoin="round" stroke-width="2.1308"/>
<path d="m6.334 3c-1.2887 0-2.334 1.0228-2.334 2.2852v11.43c0 1.2624 1.0453 2.2852 2.334 2.2852h5.6719c-2.92e-4 -0.023013-0.006342-0.04528-0.005859-0.068359 0.006994-0.32107 0.085278-0.63733 0.23438-0.92578l0.003906-0.005859h-6.043l-0.14062-0.005859c-0.59406-0.057109-1.0547-0.47563-1.0547-0.99219v-1.0039l0.0097656-0.11524c0.070396-0.49682 0.58413-0.88281 1.1855-0.88281h7.5898l0.24219-0.4707 1.793-3.4785c0.29984-0.58108 0.88568-1.0077 1.5703-1.0488h0.003906c0.06672-0.0037599 0.13444-0.0036099 0.20117 0 0.14049 0.0074 0.27349 0.04215 0.4043 0.080078v-4.7969c0-1.2624-1.0453-2.2852-2.334-2.2852h-9.332z" fill="#dfdfdf" stroke-width="1.1547"/>
<path class="ColorScheme-Highlight" d="m17.451 11a0.91369 1.0229 0 0 0-0.74219 0.50977l-1.793 3.4785-1.793 3.4766a0.91369 1.0229 0 0 0-0.12305 0.48828 0.91369 1.0229 0 0 0 0.91406 1.0469h7.1719a0.91369 1.0229 0 0 0 0.79102-1.5352l-1.793-3.4766-1.793-3.4785a0.91369 1.0229 0 0 0-0.74805-0.50977 0.91369 1.0229 0 0 0-0.0918 0zm-0.45117 2h1v4h-1zm0 5h1v1h-1z" fill="#ff9800"/>
</svg>
