<svg width="512" height="512" version="1.1" viewBox="0 0 512 512" xmlns="http://www.w3.org/2000/svg" xmlns:xlink="http://www.w3.org/1999/xlink">
<defs>
<filter id="preference-system-a" x="-11.4%" y="-11.4%" width="122.9%" height="122.9%">
<feOffset dy="8" in="SourceAlpha" result="shadowOffsetOuter1"/>
<feGaussianBlur in="shadowOffsetOuter1" result="shadowBlurOuter1" stdDeviation="10"/>
<feComposite in="shadowBlurOuter1" in2="SourceAlpha" operator="out" result="shadowBlurOuter1"/>
<feColorMatrix in="shadowBlurOuter1" result="shadowMatrixOuter1" values="0 0 0 0 0   0 0 0 0 0   0 0 0 0 0  0 0 0 0.2 0"/>
<feMerge>
<feMergeNode in="shadowMatrixOuter1"/>
<feMergeNode in="SourceGraphic"/>
</feMerge>
</filter>
<linearGradient id="preference-system-b" x1="248.76" x2="226.3" y1="487.62" gradientTransform="translate(20,20)" gradientUnits="userSpaceOnUse">
<stop stop-color="#444" offset=".01926"/>
<stop stop-color="#808080" offset="1"/>
</linearGradient>
<circle id="preference-system-c" cx="236" cy="236" r="150.18"/>
<filter id="preference-system-d" x="-5.3%" y="-5.3%" width="110.7%" height="110.7%">
<feGaussianBlur in="SourceAlpha" result="shadowBlurInner1" stdDeviation="10"/>
<feOffset dy="12" in="shadowBlurInner1" result="shadowOffsetInner1"/>
<feComposite in="shadowOffsetInner1" in2="SourceAlpha" k2="-1" k3="1" operator="arithmetic" result="shadowInnerInner1"/>
<feColorMatrix in="shadowInnerInner1" values="0 0 0 0 0   0 0 0 0 0   0 0 0 0 0  0 0 0 0.5 0"/>
</filter>
<path id="preference-system-f" d="m229.97 85.818c7.9695 0.95163 15.715 2.6314 23.169 4.9708l-1.5618 17.475c6.0015 2.223 11.753 4.9709 17.201 8.1887l13.016-12.609c6.6768 4.0985 12.951 8.789 18.75 13.998l-9.4948 16.069c4.5773 4.6705 8.7402 9.7579 12.428 15.201l18.679-6.1541c4.172 6.3398 7.7989 13.07 10.814 20.125l-16.817 11.227c2.2283 6.369 3.8887 13.01 4.9197 19.86l21.144 2.8883c0.69738 5.4258 1.057 10.957 1.057 16.573 0 1.8703-0.039885 3.7312-0.11885 5.582l-21.43 2.9271c-0.7373 7.1829-2.1632 14.159-4.2097 20.859l18.784 12.538c-2.3556 6.8453-5.2722 13.429-8.6949 19.698l-21.43-7.0604c-3.8423 6.267-8.2946 12.111-13.273 17.446l11.773 19.923c-5.016 4.9192-10.433 9.431-16.197 13.482l-16.495-15.978c-6.2503 3.993-12.934 7.3535-19.964 9.9928l2.0676 23.132c-6.547 2.1108-13.323 3.7114-20.281 4.7551l-8.0342-21.697c-3.6885 0.38633-7.4323 0.58433-11.222 0.58433-3.7895 0-7.5332-0.198-11.222-0.58433l-8.0342 21.697c-6.9587-1.0438-13.735-2.6445-20.282-4.7555l2.0686-23.132c-7.03-2.6393-13.714-5.9998-19.964-9.9928l-16.495 15.978c-5.7644-4.0509-11.181-8.5627-16.197-13.482l11.772-19.924c-4.9783-5.3354-9.4306-11.179-13.273-17.446l-21.43 7.0604c-3.4227-6.2682-6.3393-12.852-8.6949-19.698l18.784-12.538c-2.0465-6.6999-3.4724-13.676-4.2097-20.859l-21.43-2.9271c-0.078966-1.8508-0.11885-3.7118-0.11885-5.582 0-5.6155 0.35957-11.147 1.057-16.573l21.144-2.8883c1.031-6.8503 2.6914-13.491 4.9197-19.86l-16.817-11.227c3.015-7.0544 6.6418-13.785 10.814-20.125l18.679 6.1541c3.6878-5.443 7.8507-10.53 12.428-15.201l-9.4943-16.07c5.7986-5.2093 12.073-9.8997 18.749-13.998l13.015 12.609c5.4476-3.2178 11.199-5.9657 17.201-8.1887l-1.5618-17.475c7.454-2.3395 15.2-4.0192 23.17-4.9709l6.0144 16.245c3.1008-0.27151 6.2391-0.41009 9.4094-0.41009 3.1703 0 6.3086 0.13858 9.4094 0.41009zm-15.424 38.994c-47.396 0-85.818 38.422-85.818 85.818s38.422 85.818 85.818 85.818c47.396 0 85.818-38.422 85.818-85.818s-38.422-85.818-85.818-85.818z"/>
<filter id="preference-system-e" x="-9.3%" y="-4.7%" width="118.6%" height="118.8%">
<feOffset dy="12" in="SourceAlpha" result="shadowOffsetOuter1"/>
<feGaussianBlur in="shadowOffsetOuter1" result="shadowBlurOuter1" stdDeviation="6"/>
<feComposite in="shadowBlurOuter1" in2="SourceAlpha" operator="out" result="shadowBlurOuter1"/>
<feColorMatrix in="shadowBlurOuter1" values="0 0 0 0 0   0 0 0 0 0   0 0 0 0 0  0 0 0 0.2 0"/>
</filter>
<radialGradient id="preference-system-g" cx="214.53" cy="214.53" r="216.22" gradientTransform="scale(1 .99998)" gradientUnits="userSpaceOnUse">
<stop stop-color="#E2E5ED" offset="0"/>
<stop stop-color="#9DA3B5" offset=".48405"/>
<stop stop-color="#E7ECFF" offset="1"/>
</radialGradient>
<path id="preference-system-h" d="m254.5 0.26782 13.461 3.056c5.3141 1.2064 8.8793 6.2054 8.2893 11.623l-2.9794 27.353c-0.49297 4.5258 1.9244 8.8697 6.0302 10.836l15.504 7.426c4.1339 1.98 9.0692 1.1148 12.283-2.1535l19.011-19.334c3.8456-3.9109 10.022-4.2909 14.318-0.88108l10.865 8.6237c4.2503 3.3735 5.312 9.3897 2.4732 14.014l-14.254 23.221c-2.3829 3.8819-2.0545 8.8455 0.81912 12.38l11.56 14.217c2.8641 3.5224 7.6355 4.8605 11.914 3.3409l25.512-9.0617c5.1202-1.8187 10.792 0.47831 13.203 5.3475l6.1402 12.397c2.4241 4.8944 0.78375 10.829-3.81 13.783l-22.443 14.435c-3.8589 2.4819-5.7121 7.1433-4.6108 11.597l4.7547 19.229c1.0737 4.3422 4.7291 7.5625 9.172 8.0802l27.363 3.1885c5.222 0.60851 9.2335 4.9119 9.4744 10.164l0.51625 11.256c0.0118 0.25728 0.014331 0.5149 0.007587 0.77235l-0.14569 5.5624c-0.089407 3.4136-2.6748 6.2423-6.0666 6.6375l-29.731 3.4645c-4.6234 0.53876-8.3718 3.9977-9.2796 8.563l-4.1192 20.714c-0.85951 4.3223 1.0119 8.7306 4.7184 11.114l23.39 15.043c4.4692 2.8745 6.1605 8.5877 3.9762 13.432l-5.3303 11.821c-2.2947 5.0891-8.109 7.5675-13.37 5.699l-24.577-8.7297c-4.4162-1.5686-9.3396-0.088809-12.159 3.6547l-13.221 17.554c-2.6527 3.5219-2.8802 8.3082-0.57356 12.066l14.705 23.955c2.7848 4.5366 1.8216 10.429-2.2629 13.843l-9.4509 7.899c-4.2883 3.5841-10.61 3.2752-14.528-0.70977l-18.581-18.896c-3.2722-3.3277-8.3204-4.158-12.486-2.0536l-19.994 10.101c-3.9894 2.0154-6.311 6.2931-5.8271 10.736l3.0266 27.786c0.58599 5.3797-2.9268 10.354-8.1927 11.6l-11.55 2.7346c-5.3637 1.2699-10.817-1.7317-12.613-6.9428l-8.755-25.398c-1.5632-4.5348-5.9469-7.4807-10.736-7.2149l-10.206 0.56656c-0.39608 0.021986-0.79306 0.021986-1.1891 0l-10.206-0.56656c-4.7893-0.26586-9.173 2.68-10.736 7.2149l-8.755 25.398c-1.7963 5.211-7.2495 8.2127-12.613 6.9428l-11.55-2.7346c-5.2659-1.2468-8.7787-6.2206-8.1927-11.6l3.0266-27.786c0.48398-4.4433-1.8377-8.721-5.8271-10.736l-19.994-10.101c-4.1656-2.1044-9.2139-1.2742-12.486 2.0536l-18.581 18.896c-3.9185 3.985-10.24 4.2938-14.528 0.70977l-9.4509-7.899c-4.0845-3.4137-5.0477-9.3063-2.2629-13.843l14.705-23.955c2.3066-3.7576 2.0791-8.544-0.57356-12.066l-13.221-17.554c-2.8196-3.7435-7.7429-5.2233-12.159-3.6547l-24.577 8.7297c-5.2605 1.8685-11.075-0.60994-13.37-5.699l-5.3303-11.821c-2.1843-4.8441-0.49302-10.557 3.9762-13.432l23.39-15.043c3.7065-2.3839 5.5779-6.7922 4.7184-11.114l-4.1192-20.714c-0.90783-4.5653-4.6562-8.0242-9.2796-8.563l-29.731-3.4645c-3.3918-0.39524-5.9772-3.2239-6.0666-6.6375l-0.14569-5.5624c-0.0067432-0.25746-0.0042124-0.51508 0.0075875-0.77235l0.51625-11.256c0.24087-5.2518 4.2524-9.5552 9.4744-10.164l27.363-3.1885c4.4429-0.51773 8.0983-3.738 9.172-8.0802l4.7547-19.229c1.1013-4.454-0.75189-9.1153-4.6108-11.597l-22.443-14.435c-4.5937-2.9545-6.2341-8.8889-3.81-13.783l6.1402-12.397c2.4116-4.8692 8.0831-7.1661 13.203-5.3475l25.512 9.0617c4.2781 1.5195 9.0494 0.18149 11.914-3.3409l11.56-14.217c2.8736-3.5341 3.2021-8.4977 0.81912-12.38l-14.254-23.221c-2.8388-4.6246-1.7771-10.641 2.4732-14.014l10.865-8.6237c4.2961-3.4099 10.472-3.0298 14.318 0.88108l19.011 19.334c3.2137 3.2683 8.149 4.1336 12.283 2.1535l15.504-7.426c4.1058-1.9666 6.5232-6.3106 6.0302-10.836l-2.9794-27.353c-0.59008-5.4173 2.9752-10.416 8.2893-11.623l13.461-3.056c5.3382-1.2119 10.733 1.79 12.517 6.9652l8.7687 25.438c1.5582 4.5204 5.9201 7.4638 10.695 7.2171 3.2414-0.16746 5.9023-0.25119 7.9828-0.25119 2.0805 0 4.7415 0.083729 7.9828 0.25119 4.775 0.2467 9.1369-2.6967 10.695-7.2171l8.7687-25.438c1.7839-5.1752 7.1784-8.1771 12.517-6.9652zm96.487 185.32c-40.769-4.1886-82.11 15.304-103.93 53.095-20.618 35.711-18.369 78.349 2.2061 110.96 60.22-15.431 104.73-70.066 104.73-135.1 0-9.2422-0.89908-18.274-2.6145-27.014zm-168.96 53.095c-21.818-37.791-63.159-57.283-103.93-53.093-1.9727 9.3415-3.0102 19.028-3.0102 28.956 0 65.031 44.513 119.67 104.74 135.1 20.572-32.611 22.82-75.249 2.2027-110.96zm32.516-45.606c-11.849 0-21.455 9.6055-21.455 21.455 0 11.849 9.6055 21.455 21.455 21.455s21.455-9.6055 21.455-21.455c0-11.849-9.6055-21.455-21.455-21.455zm-2.61e-4 -117.98c-38.73 0-73.772 15.788-99.041 41.283 16.172 38.753 54.426 65.99 99.041 65.99 44.615 0 82.869-27.237 99.041-65.994-25.27-25.491-60.312-41.279-99.041-41.279z"/>
</defs>
<circle cx="256" cy="256" r="236" fill="url(#preference-system-b)" fill-rule="evenodd" filter="url(#preference-system-a)"/>
<g fill="#000000" fill-rule="evenodd">
<use transform="translate(20,20)" width="100%" height="100%" fill-opacity=".5" filter="url(#preference-system-a)" xlink:href="#preference-system-c"/>
<use transform="translate(20,20)" width="100%" height="100%" filter="url(#preference-system-d)" xlink:href="#preference-system-c"/>
<use transform="translate(41.455,41.455)" width="100%" height="100%" filter="url(#preference-system-e)" xlink:href="#preference-system-f"/>
</g>
<path d="m272.75 129.46-5.9937 16.188-1.5202-0.13311c-3.0582-0.26778-6.1384-0.40247-9.2349-0.40247s-6.1767 0.13469-9.2349 0.40247l-1.5202 0.13311-5.9934-16.188c-6.7004 0.88455-13.286 2.2992-19.708 4.2251l1.5536 17.384-1.4334 0.53096c-5.8551 2.1688-11.501 4.8591-16.878 8.0352l-1.3133 0.77573-12.989-12.583c-5.607 3.5369-10.93 7.5093-15.919 11.877l9.4362 15.971-1.0742 1.096c-4.5013 4.5929-8.5864 9.5885-12.201 14.923l-0.84715 1.2503-18.65-6.1445c-3.478 5.4264-6.5383 11.111-9.1507 17.008l16.716 11.159-0.51193 1.4632c-2.207 6.3081-3.8263 12.83-4.8297 19.497l-0.22293 1.4812-21.101 2.8824c-0.56827 4.8864-0.85482 9.8252-0.85482 14.8 0 1.2784 0.0189 2.5545 0.0567 3.8281l21.321 2.9122 0.16059 1.5645c0.7171 6.9861 2.1042 13.837 4.133 20.479l0.43441 1.4222-18.73 12.502c2.0262 5.6617 4.4537 11.165 7.2613 16.471l21.341-7.0308 0.82739 1.3495c3.7622 6.1364 8.1301 11.875 13.03 17.127l1.0206 1.0938-11.731 19.854c4.2296 4.0473 8.7335 7.7993 13.478 11.226l16.434-15.92 1.3325 0.8513c6.1736 3.944 12.736 7.2325 19.591 9.8058l1.4246 0.53485-2.0609 23.046c5.5005 1.6967 11.124 3.0175 16.84 3.95l8.0053-21.619 1.5446 0.16177c3.6412 0.38138 7.3155 0.57346 11.013 0.57346 3.6979 0 7.3722-0.19208 11.013-0.57346l1.5446-0.16177 8.0053 21.619c5.7156-0.93251 11.339-2.2532 16.839-3.9498l-2.0599-23.046 1.4246-0.53483c6.8542-2.5733 13.417-5.8618 19.591-9.8058l1.3325-0.85127 16.435 15.92c4.7446-3.4272 9.2485-7.1792 13.478-11.227l-11.732-19.854 1.0207-1.0939c4.9001-5.2515 9.2679-10.991 13.03-17.127l0.82739-1.3495 21.341 7.0308c2.8076-5.3066 5.2351-10.81 7.2613-16.471l-18.73-12.502 0.43441-1.4222c2.0288-6.6418 3.4158-13.492 4.133-20.479l0.16059-1.5645 21.321-2.9122c0.0378-1.2736 0.0567-2.5497 0.0567-3.8281 0-4.9748-0.28655-9.9135-0.85482-14.8l-21.101-2.8824-0.22292-1.4812c-1.0035-6.6676-2.6227-13.189-4.8297-19.497l-0.51193-1.4632 16.716-11.159c-2.6124-5.8963-5.6726-11.581-9.1506-17.008l-18.65 6.1445-0.84714-1.2503c-3.6142-5.3344-7.6994-10.33-12.201-14.923l-1.0742-1.096 9.4367-15.971c-4.9891-4.3677-10.312-8.3402-15.919-11.877l-12.989 12.583-1.3132-0.77571c-5.377-3.1761-11.023-5.8664-16.878-8.0352l-1.4334-0.53096 1.5536-17.384c-6.4227-1.9259-13.008-3.3405-19.708-4.2251zm-16.749 34.812c48.501 0 87.818 39.318 87.818 87.818 0 48.501-39.318 87.818-87.818 87.818-48.501 0-87.818-39.318-87.818-87.818 0-48.501 39.318-87.818 87.818-87.818z" fill="#585f6c" fill-rule="evenodd" filter="url(#preference-system-a)" stroke="#fff" stroke-linejoin="square" stroke-opacity=".1" stroke-width="4"/>
<use transform="translate(41.455,41.455)" width="100%" height="100%" fill="url(#preference-system-g)" fill-rule="evenodd" filter="url(#preference-system-a)" xlink:href="#preference-system-h"/>
</svg>
