<svg width="32" height="32" version="1.1" viewBox="0 0 32 32" xmlns="http://www.w3.org/2000/svg">
 <defs>
  <filter id="application-x-cd-image-a" x="-.159" y="-.096" width="1.318" height="1.269">
   <feOffset dy="1" in="SourceAlpha" result="shadowOffsetOuter1"/>
   <feGaussianBlur in="shadowOffsetOuter1" result="shadowBlurOuter1" stdDeviation="1"/>
   <feColorMatrix in="shadowBlurOuter1" values="0 0 0 0 0.505882353   0 0 0 0 0.741176471   0 0 0 0 0  0 0 0 0.5 0"/>
  </filter>
  <linearGradient id="application-x-cd-image-c" x1="11.958" x2="11.958" y2="23.917" gradientTransform="scale(.91987 1.0871)" gradientUnits="userSpaceOnUse">
   <stop stop-color="#B7EE43" offset="0"/>
   <stop stop-color="#6AD500" offset="1"/>
  </linearGradient>
  <filter id="application-x-cd-image-d" x="-.286" y="-.143" width="1.571" height="1.571">
   <feOffset dy="1" in="SourceAlpha" result="shadowOffsetOuter1"/>
   <feGaussianBlur in="shadowOffsetOuter1" result="shadowBlurOuter1" stdDeviation=".5"/>
   <feComposite in="shadowBlurOuter1" in2="SourceAlpha" operator="out" result="shadowBlurOuter1"/>
   <feColorMatrix in="shadowBlurOuter1" values="0 0 0 0 0   0 0 0 0 0   0 0 0 0 0  0 0 0 0.05 0"/>
  </filter>
  <linearGradient id="application-x-cd-image-f" x1="18.5" x2="15.734" y1="3.5" y2="6.3836" gradientUnits="userSpaceOnUse">
   <stop stop-color="#FFF" stop-opacity=".1" offset="0"/>
   <stop stop-color="#FFF" stop-opacity=".3" offset="1"/>
  </linearGradient>
 </defs>
 <g transform="translate(5,3)" fill-rule="evenodd">
  <path d="m15 0 7 7v15c0 2.2091-1.7909 4-4 4h-14c-2.2091 0-4-1.7909-4-4v-18c0-2.2091 1.7909-4 4-4z" filter="url(#application-x-cd-image-a)"/>
  <path d="m15 0 7 7v15c0 2.2091-1.7909 4-4 4h-14c-2.2091 0-4-1.7909-4-4v-18c0-2.2091 1.7909-4 4-4z" fill="url(#application-x-cd-image-c)"/>
  <path d="m15 0 7 7h-4.75c-1.2426 0-2.25-1.0074-2.25-2.25z" filter="url(#application-x-cd-image-d)"/>
  <path d="m15 0 7 7h-4.75c-1.2426 0-2.25-1.0074-2.25-2.25z" fill="url(#application-x-cd-image-f)"/>
 </g>
 <g transform="translate(9,11)" fill="none" fill-rule="evenodd" stroke="#fff">
  <polygon points="7 0 10.5 0.583 14 4.455 7 13.5 0 4.455 3.5 0.583"/>
  <path d="m0 4.5h14"/>
  <polyline points="3.5 0.583 3.5 4.5 7 13 10.5 4.5 10.5 0.583"/>
  <polyline points="3.5 4.5 7 0.5 10.5 4.5"/>
 </g>
</svg>
