<svg width="32" height="32" version="1.1" viewBox="0 0 32 32" xmlns="http://www.w3.org/2000/svg" xmlns:xlink="http://www.w3.org/1999/xlink">
 <defs>
  <linearGradient id="application-vnd.oasis.opendocument.chart-c" x1="11.958" x2="11.958" y2="23.766" gradientTransform="scale(.91987 1.0871)" gradientUnits="userSpaceOnUse">
   <stop stop-color="#FFBC2A" offset="0"/>
   <stop stop-color="#E77B00" offset="1"/>
  </linearGradient>
  <path id="application-vnd.oasis.opendocument.chart-b" d="m15 0 7 7v15c0 2.2091-1.7909 4-4 4h-14c-2.2091 0-4-1.7909-4-4v-18c-2.7054e-16 -2.2091 1.7909-4 4-4h11z"/>
  <filter id="application-vnd.oasis.opendocument.chart-a" x="-15.9%" y="-9.6%" width="131.8%" height="126.9%">
   <feOffset dy="1" in="SourceAlpha" result="shadowOffsetOuter1"/>
   <feGaussianBlur in="shadowOffsetOuter1" result="shadowBlurOuter1" stdDeviation="1"/>
   <feColorMatrix in="shadowBlurOuter1" values="0 0 0 0 0.874509804   0 0 0 0 0.498039216   0 0 0 0 0.0588235294  0 0 0 0.5 0"/>
  </filter>
  <linearGradient id="application-vnd.oasis.opendocument.chart-f" x1="18.5" x2="15.734" y1="3.5" y2="6.3836" gradientUnits="userSpaceOnUse">
   <stop stop-color="#FFF" stop-opacity=".1" offset="0"/>
   <stop stop-color="#FFF" stop-opacity=".3" offset="1"/>
  </linearGradient>
  <path id="application-vnd.oasis.opendocument.chart-e" d="m15 0 7 7h-4.75c-1.2426 0-2.25-1.0074-2.25-2.25v-4.75z"/>
  <filter id="application-vnd.oasis.opendocument.chart-d" x="-28.6%" y="-14.3%" width="157.1%" height="157.1%">
   <feOffset dy="1" in="SourceAlpha" result="shadowOffsetOuter1"/>
   <feGaussianBlur in="shadowOffsetOuter1" result="shadowBlurOuter1" stdDeviation=".5"/>
   <feComposite in="shadowBlurOuter1" in2="SourceAlpha" operator="out" result="shadowBlurOuter1"/>
   <feColorMatrix in="shadowBlurOuter1" values="0 0 0 0 0   0 0 0 0 0   0 0 0 0 0  0 0 0 0.05 0"/>
  </filter>
 </defs>
 <g transform="translate(5,3)" fill-rule="evenodd">
  <use width="100%" height="100%" fill="#000000" filter="url(#application-vnd.oasis.opendocument.chart-a)" xlink:href="#application-vnd.oasis.opendocument.chart-b"/>
  <use width="100%" height="100%" fill="url(#application-vnd.oasis.opendocument.chart-c)" xlink:href="#application-vnd.oasis.opendocument.chart-b"/>
  <use width="100%" height="100%" fill="#000000" filter="url(#application-vnd.oasis.opendocument.chart-d)" xlink:href="#application-vnd.oasis.opendocument.chart-e"/>
  <use width="100%" height="100%" fill="url(#application-vnd.oasis.opendocument.chart-f)" xlink:href="#application-vnd.oasis.opendocument.chart-e"/>
 </g>
 <circle cx="11.5" cy="17" r="1" fill="#fff"/>
 <circle cx="14.5" cy="17" r="1" fill="#fff"/>
 <circle cx="17.5" cy="17" r="1" fill="#fff"/>
 <circle cx="20.5" cy="17" r="1" fill="#fff"/>
 <circle cx="11.5" cy="20" r="1" fill="#fff"/>
 <circle cx="14.5" cy="20" r="1" fill="#fff"/>
 <circle cx="17.5" cy="20" r="1" fill="#fff"/>
 <circle cx="20.5" cy="20" r="1" fill="#fff"/>
 <circle cx="8.5" cy="20" r="1" fill="#fff"/>
 <circle cx="23.5" cy="20" r="1" fill="#fff"/>
 <circle cx="11.5" cy="23" r="1" fill="#fff"/>
 <circle cx="20.5" cy="23" r="1" fill="#fff"/>
 <circle cx="8.5" cy="23" r="1" fill="#fff"/>
 <circle cx="23.5" cy="23" r="1" fill="#fff"/>
</svg>
