<svg width="32" height="32" version="1.1" viewBox="0 0 32 32" xmlns="http://www.w3.org/2000/svg">
 <defs>
  <filter id="image-gif-a" x="-.159" y="-.096" width="1.318" height="1.269">
   <feOffset dy="1" in="SourceAlpha" result="shadowOffsetOuter1"/>
   <feGaussianBlur in="shadowOffsetOuter1" result="shadowBlurOuter1" stdDeviation="1"/>
   <feColorMatrix in="shadowBlurOuter1" values="0 0 0 0 0.262745098   0 0 0 0 0.71372549   0 0 0 0 0.607843137  0 0 0 0.5 0"/>
  </filter>
  <linearGradient id="image-gif-c" x1="11.958" x2="11.958" y2="23.917" gradientTransform="scale(.91987 1.0871)" gradientUnits="userSpaceOnUse">
   <stop stop-color="#28DCB1" offset="0"/>
   <stop stop-color="#00AF9D" offset="1"/>
  </linearGradient>
  <filter id="image-gif-d" x="-.286" y="-.143" width="1.571" height="1.571">
   <feOffset dy="1" in="SourceAlpha" result="shadowOffsetOuter1"/>
   <feGaussianBlur in="shadowOffsetOuter1" result="shadowBlurOuter1" stdDeviation=".5"/>
   <feComposite in="shadowBlurOuter1" in2="SourceAlpha" operator="out" result="shadowBlurOuter1"/>
   <feColorMatrix in="shadowBlurOuter1" values="0 0 0 0 0   0 0 0 0 0   0 0 0 0 0  0 0 0 0.05 0"/>
  </filter>
  <linearGradient id="image-gif-f" x1="18.5" x2="15.734" y1="3.5" y2="6.3836" gradientUnits="userSpaceOnUse">
   <stop stop-color="#FFF" stop-opacity=".1" offset="0"/>
   <stop stop-color="#FFF" stop-opacity=".3" offset="1"/>
  </linearGradient>
 </defs>
 <g transform="translate(5,3)" fill-rule="evenodd">
  <path d="m15 0 7 7v15c0 2.2091-1.7909 4-4 4h-14c-2.2091 0-4-1.7909-4-4v-18c0-2.2091 1.7909-4 4-4z" filter="url(#image-gif-a)"/>
  <path d="m15 0 7 7v15c0 2.2091-1.7909 4-4 4h-14c-2.2091 0-4-1.7909-4-4v-18c0-2.2091 1.7909-4 4-4z" fill="url(#image-gif-c)"/>
  <path d="m15 0 7 7h-4.75c-1.2426 0-2.25-1.0074-2.25-2.25z" filter="url(#image-gif-d)"/>
  <path d="m15 0 7 7h-4.75c-1.2426 0-2.25-1.0074-2.25-2.25z" fill="url(#image-gif-f)"/>
 </g>
 <g transform="translate(-1,-2)" fill-rule="evenodd">
  <path d="m13 15v3h-7v-3zm8 0h7v3h-7z" fill="#fff8f8" fill-opacity=".5"/>
  <path d="m14.5 14h5c0.27614 0 0.5 0.22386 0.5 0.5v4c0 0.27614-0.22386 0.5-0.5 0.5h-5c-0.27614 0-0.5-0.22386-0.5-0.5v-4c0-0.27614 0.22386-0.5 0.5-0.5zm0.5 1v3h4v-3zm1 1h2v1h-2z" fill="#f4f4f4"/>
 </g>
 <g transform="translate(0,-4)">
  <circle cx="20.5" cy="25.5" r="1" fill="none" stroke="#fff"/>
  <rect x="9.5" y="24.5" width="2" height="2" fill="none" stroke="#fff"/>
  <rect x="11" y="25" width="9" height="1" fill="#fff"/>
 </g>
</svg>
