<svg width="32" height="32" version="1.1" viewBox="0 0 32 32" xmlns="http://www.w3.org/2000/svg">
 <defs>
  <filter id="x-media-podcast-a" x="-.159" y="-.096" width="1.318" height="1.269">
   <feOffset dy="1" in="SourceAlpha" result="shadowOffsetOuter1"/>
   <feGaussianBlur in="shadowOffsetOuter1" result="shadowBlurOuter1" stdDeviation="1"/>
   <feColorMatrix in="shadowBlurOuter1" values="0 0 0 0 0.241013895   0 0 0 0 0   0 0 0 0 0.621603261  0 0 0 0.5 0"/>
  </filter>
  <linearGradient id="x-media-podcast-c" x1="11.958" x2="11.958" y2="23.917" gradientTransform="scale(.91987 1.0871)" gradientUnits="userSpaceOnUse">
   <stop stop-color="#5C42B1" offset="0"/>
   <stop stop-color="#3E1888" offset=".99345"/>
  </linearGradient>
  <filter id="x-media-podcast-d" x="-.286" y="-.143" width="1.571" height="1.571">
   <feOffset dy="1" in="SourceAlpha" result="shadowOffsetOuter1"/>
   <feGaussianBlur in="shadowOffsetOuter1" result="shadowBlurOuter1" stdDeviation=".5"/>
   <feComposite in="shadowBlurOuter1" in2="SourceAlpha" operator="out" result="shadowBlurOuter1"/>
   <feColorMatrix in="shadowBlurOuter1" values="0 0 0 0 0   0 0 0 0 0   0 0 0 0 0  0 0 0 0.05 0"/>
  </filter>
  <linearGradient id="x-media-podcast-f" x1="18.5" x2="15.734" y1="3.5" y2="6.3836" gradientUnits="userSpaceOnUse">
   <stop stop-color="#FFF" stop-opacity=".1" offset="0"/>
   <stop stop-color="#FFF" stop-opacity=".3" offset="1"/>
  </linearGradient>
 </defs>
 <g transform="translate(5,3)" fill-rule="evenodd">
  <path d="m15 0 7 7v15c0 2.2091-1.7909 4-4 4h-14c-2.2091 0-4-1.7909-4-4v-18c0-2.2091 1.7909-4 4-4z" filter="url(#x-media-podcast-a)"/>
  <path d="m15 0 7 7v15c0 2.2091-1.7909 4-4 4h-14c-2.2091 0-4-1.7909-4-4v-18c0-2.2091 1.7909-4 4-4z" fill="url(#x-media-podcast-c)"/>
  <path d="m15 0 7 7h-4.75c-1.2426 0-2.25-1.0074-2.25-2.25z" filter="url(#x-media-podcast-d)"/>
  <path d="m15 0 7 7h-4.75c-1.2426 0-2.25-1.0074-2.25-2.25z" fill="url(#x-media-podcast-f)"/>
 </g>
 <polygon points="12 18 21 18 21 12 12 12 12 11 11 11 11 23 12 23" fill="#fff" fill-rule="evenodd"/>
</svg>
