<svg width="24" height="24" version="1.1" xmlns="http://www.w3.org/2000/svg">
<defs>
<style id="current-color-scheme" type="text/css">.ColorScheme-Text { color:#dfdfdf; } .ColorScheme-Highlight { color:#4285f4; }</style>
</defs>
<path class="ColorScheme-Text" d="m12 5.0001c3.3137 0 6 0.92752 6 2.3333 0 0.11091-0.73933 3.3498-2.218 9.7165l-0.09341 0.40199c-0.05963 0.25667-0.21817 0.47943-0.44114 0.61986-0.98265 0.61885-2.0651 0.92828-3.2475 0.92828-1.0838 0-2.0837-0.26001-2.9998-0.78003l-0.24775-0.14826c-0.22297-0.14042-0.3815-0.36317-0.44114-0.61983-1.5409-6.631-2.3113-10.004-2.3113-10.119 0-1.4058 2.6863-2.3333 6-2.3333zm0 1.1667c-2.651 0-4.8 0.52233-4.8 1.1667 0 0.64433 2.149 1.1667 4.8 1.1667s4.8-0.52233 4.8-1.1667c0-0.64433-2.149-1.1667-4.8-1.1667z" color="#444444" fill="#dfdfdf"/>
</svg>
