<svg width="24" height="24" version="1.1" xmlns="http://www.w3.org/2000/svg">
<defs>
<style id="current-color-scheme" type="text/css">.ColorScheme-Text { color:#dfdfdf; } .ColorScheme-Highlight { color:#4285f4; }</style>
</defs>
<path d="m7 4c-1.108 0-2 0.892-2 2v12c0 1.108 0.892 2 2 2h6.0059c-2.63e-4 -0.022362-0.006328-0.043982-0.005859-0.066406 0.006994-0.32107 0.085278-0.63733 0.23438-0.92578l0.51953-1.0078h-5.7539c-0.554 0-1-0.446-1-1v-1c0-0.554 0.446-1 1-1h7.3008l1.5195-2.9473c0.29984-0.58108 0.88568-1.0077 1.5703-1.0488h0.001953l0.001953-0.001953c0.06672-0.003757 0.13444-0.003614 0.20117 0 0.14049 0.0074 0.27349 0.042021 0.4043 0.080078v-5.082c0-1.108-0.892-2-2-2h-10zm10 13c0 0.55267-0.44394 0.99786-0.99609 1l-0.99219 1.9258c-0.004145 0.008001-0.010853 0.027976-0.011719 0.048828-4.99e-4 0.02386-0.003319 0.019693-0.003906 0.025391h2.0039v-3z" fill="#dfdfdf" fill-rule="evenodd" style="paint-order:stroke fill markers"/>
<path d="m8.5273 16c-0.29261 0-0.52734 0.223-0.52734 0.5s0.23474 0.5 0.52734 0.5h5.7422l0.51562-1h-6.2578z" fill="#dfdfdf" fill-rule="evenodd" style="paint-order:stroke fill markers"/>
<path class="ColorScheme-Highlight" d="m18.451 12a0.91369 1.0229 0 0 0-0.74219 0.50977l-1.793 3.4785-1.793 3.4766a0.91369 1.0229 0 0 0-0.12305 0.48828 0.91369 1.0229 0 0 0 0.91406 1.0469h7.1719a0.91369 1.0229 0 0 0 0.79102-1.5352l-1.793-3.4766-1.793-3.4785a0.91369 1.0229 0 0 0-0.74805-0.50977 0.91369 1.0229 0 0 0-0.0918 0zm-0.45117 2h1v4h-1zm0 5h1v1h-1z" fill="#ff9800"/>
</svg>
