<svg width="24" height="24" version="1.1" viewBox="0 0 24 24" xmlns="http://www.w3.org/2000/svg" xmlns:xlink="http://www.w3.org/1999/xlink">
<defs>
<filter id="folder-music-a" x="-11.4%" y="-13.9%" width="122.7%" height="127.8%">
<feOffset in="SourceAlpha" result="shadowOffsetOuter1"/>
<feGaussianBlur in="shadowOffsetOuter1" result="shadowBlurOuter1" stdDeviation=".5"/>
<feComposite in="shadowBlurOuter1" in2="SourceAlpha" operator="out" result="shadowBlurOuter1"/>
<feColorMatrix in="shadowBlurOuter1" result="shadowMatrixOuter1" values="0 0 0 0 0   0 0 0 0 0   0 0 0 0 0  0 0 0 0.15 0"/>
<feMerge>
<feMergeNode in="shadowMatrixOuter1"/>
<feMergeNode in="SourceGraphic"/>
</feMerge>
</filter>
<linearGradient id="folder-music-c" x1="9.9499" x2="9.9499" y1="-3.5349e-14" y2="7.5555" gradientTransform="scale(1.1055 .90453)" gradientUnits="userSpaceOnUse">
<stop stop-color="#ba5638" offset="0"/>
<stop stop-color="#870b3d" offset="1"/>
</linearGradient>
<path id="folder-music-b" d="m13 1c0.30643 0.61287 0.93283 1 1.618 1h4.7964c1.428 0 2.5856 1.1576 2.5856 2.5856v10.829c0 1.428-1.1576 2.5856-2.5856 2.5856h-16.829c-1.428 0-2.5856-1.1576-2.5856-2.5856v-12.829c-1.7488e-16 -1.428 1.1576-2.5856 2.5856-2.5856h8.7964c0.68521 5.9781e-16 1.3116 0.38713 1.618 1z"/>
<radialGradient id="radialGradient884" cx="8.4558" cy=".89436" r="19.907" gradientTransform="matrix(1.3009 0 0 .76871 1 7.313)" gradientUnits="userSpaceOnUse">
<stop stop-color="#ff774d" offset="0"/>
<stop stop-color="#ba0e55" offset="1"/>
</radialGradient>
<filter id="filter1010" x="-.0588" y="-.147" width="1.1176" height="1.294" color-interpolation-filters="sRGB">
<feGaussianBlur stdDeviation="0.49"/>
</filter>
<linearGradient id="linearGradient968" x1="-13" x2="-13" y1="16" y2="17" gradientTransform="translate(26.004,-10)" gradientUnits="userSpaceOnUse">
<stop stop-color="#fff" offset="0"/>
<stop stop-color="#fff8a3" offset="1"/>
</linearGradient>
</defs>
<use transform="translate(1,3)" width="100%" height="100%" fill="url(#folder-music-c)" fill-rule="evenodd" filter="url(#folder-music-a)" xlink:href="#folder-music-b"/>
<rect x="2.004" y="6" width="20" height="8" rx="1.6573" ry="1.6573" fill-opacity=".2" fill-rule="evenodd" filter="url(#filter1010)" style="paint-order:stroke fill markers"/>
<rect x="2.004" y="6" width="20" height="8" rx="1.6573" ry="1.6573" fill="url(#linearGradient968)" fill-rule="evenodd" style="paint-order:stroke fill markers"/>
<path d="m3.662 6c-0.91812 0-1.6582 0.74008-1.6582 1.6582v1c0-0.91812 0.74008-1.6582 1.6582-1.6582h16.684c0.91812 0 1.6582 0.74008 1.6582 1.6582v-1c0-0.91812-0.74008-1.6582-1.6582-1.6582z" fill-rule="evenodd" opacity=".5" style="paint-order:stroke fill markers"/>
<path d="m1 8.0005h22v10.414c0 1.428-1.1576 2.5856-2.5856 2.5856h-16.829c-1.428 0-2.5856-1.1576-2.5856-2.5856z" fill="url(#radialGradient884)" fill-rule="evenodd" filter="url(#folder-music-a)"/>
<path d="m15.987 10.775c0.008417 0.051555 0.012646 0.10371 0.012646 0.15594l-1e-3 5.256 1e-3 0.01859c0 0.0061-4.3e-5 0.01212-1.29e-4 0.01817l1.29e-4 0.091014c-0.05994 0.63916-0.59639 1.1408-1.25 1.1408-0.69036 0-1.25-0.55964-1.25-1.25s0.55964-1.25 1.25-1.25c0.0856 0 0.16919 0.0086 0.24995 0.02499l5.1e-5 -3.3316c0-0.17817-0.14443-0.3226-0.3226-0.3226-0.01955 0-0.03905 0.0018-0.05828 0.0053l-3.3548 0.61619c-0.15313 0.028134-0.26432 0.16161-0.26432 0.3173l-1e-3 4.9218 1e-3 0.01859-3.2e-5 0.0091 3.2e-5 0.12457c-0.0739 0.62762-0.60488 1.1163-1.25 1.1163-0.69036 0-1.25-0.55964-1.25-1.25s0.55964-1.25 1.25-1.25c0.085599 0 0.16919 0.0086 0.24995 0.02499l5.06e-5 -4.3861c0-0.47431 0.34374-0.87873 0.81186-0.95516l4.0644-0.66357c0.52752-0.086126 1.025 0.27169 1.1111 0.79921z" fill="#fff" fill-rule="evenodd"/>
</svg>
