<svg width="24" height="24" version="1.1" viewBox="0 0 24 24" xmlns="http://www.w3.org/2000/svg" xmlns:xlink="http://www.w3.org/1999/xlink">
<defs>
<path id="folder-open-b" d="m13 1c0.30643 0.61287 0.93283 1 1.618 1h4.7964c1.428 0 2.5856 1.1576 2.5856 2.5856v10.829c0 1.428-1.1576 2.5856-2.5856 2.5856h-16.829c-1.428 0-2.5856-1.1576-2.5856-2.5856l-4.4409e-16 -12.829c-1.7488e-16 -1.428 1.1576-2.5856 2.5856-2.5856l8.7964 2.2204e-15c0.68521-7.3445e-16 1.3116 0.38713 1.618 1z"/>
<linearGradient id="linearGradient903" x1="9.9499" x2="9.9499" y1="-3.6331e-14" y2="7.5555" gradientTransform="scale(1.1055 .90453)" gradientUnits="userSpaceOnUse">
<stop stop-color="#9c3" offset="0"/>
<stop stop-color="#28851e" offset="1"/>
</linearGradient>
<filter id="folder-open-a-3" x="-.114" y="-.139" width="1.227" height="1.278">
<feOffset in="SourceAlpha" result="shadowOffsetOuter1"/>
<feGaussianBlur in="shadowOffsetOuter1" result="shadowBlurOuter1" stdDeviation=".5"/>
<feComposite in="shadowBlurOuter1" in2="SourceAlpha" operator="out" result="shadowBlurOuter1"/>
<feColorMatrix in="shadowBlurOuter1" result="shadowMatrixOuter1" values="0 0 0 0 0   0 0 0 0 0   0 0 0 0 0  0 0 0 0.15 0"/>
<feMerge>
<feMergeNode in="shadowMatrixOuter1"/>
<feMergeNode in="SourceGraphic"/>
</feMerge>
</filter>
<filter id="filter1047" x="-.0504" y="-.126" width="1.1008" height="1.252" color-interpolation-filters="sRGB">
<feGaussianBlur stdDeviation="0.42"/>
</filter>
<linearGradient id="linearGradient1025" x1="-20" x2="-20" y1="6" y2="12" gradientUnits="userSpaceOnUse">
<stop stop-color="#fff" offset="0"/>
<stop stop-color="#cef5ff" offset="1"/>
</linearGradient>
<radialGradient id="radialGradient930" cx="7.4162" cy="1.0197" r="17.525" gradientTransform="matrix(1.4832 0 0 .6742 1 10.313)" gradientUnits="userSpaceOnUse">
<stop stop-color="#ccff42" offset="0"/>
<stop stop-color="#50a100" offset="1"/>
</radialGradient>
</defs>
<g transform="translate(0,-5e-4)" fill-rule="evenodd">
<use transform="translate(1,3)" width="100%" height="100%" fill="url(#linearGradient903)" filter="url(#folder-open-a-3)" xlink:href="#folder-open-b"/>
<g transform="translate(32)">
<rect x="-30" y="6" width="20" height="8" rx="1.6874" ry="1.6874" fill-opacity=".2" filter="url(#filter1047)" style="paint-order:stroke fill markers"/>
<rect x="-30" y="6" width="20" height="8" rx="1.6874" ry="1.6874" fill="url(#linearGradient1025)" style="paint-order:stroke fill markers"/>
<path d="m-28.312 6.0005c-0.93482 0-1.6875 0.75268-1.6875 1.6875v1c0-0.93482 0.75268-1.6875 1.6875-1.6875h16.625c0.93482 0 1.6875 0.75268 1.6875 1.6875v-1c0-0.93482-0.75268-1.6875-1.6875-1.6875z" opacity=".5" style="paint-order:stroke fill markers"/>
</g>
<path d="m1 11h22v7.4144c0 1.428-1.1576 2.5856-2.5856 2.5856h-16.829c-1.428 0-2.5856-1.1576-2.5856-2.5856z" fill="url(#radialGradient930)" filter="url(#folder-open-a-3)"/>
</g>
<path d="m12.359 16.644c-0.19214-0.19214-0.50868-0.18711-0.70702 0.01122-0.19834 0.19834-0.20336 0.51488-0.01122 0.70702s0.50868 0.18711 0.70702-0.01122c0.19834-0.19834 0.20336-0.51488 0.01122-0.70702zm4.3809-4.5503c-1.293-0.99325-2.955-1.5906-4.768-1.5906-1.7962 0-3.4442 0.58632-4.732 1.5631m8.258 1.589c-0.96244-0.7205-2.1885-1.1521-3.5237-1.1521-1.3134 0-2.5211 0.41764-3.4763 1.117m5.7633 1.5851c-0.62739-0.44061-1.4101-0.70215-2.259-0.70215-0.84078 0-1.6167 0.25659-2.241 0.68964" fill="none" stroke="#fff" stroke-linecap="round" stroke-linejoin="round"/>
</svg>
