<svg width="24" height="24" version="1.1" viewBox="0 0 24 24" xmlns="http://www.w3.org/2000/svg" xmlns:xlink="http://www.w3.org/1999/xlink">
<defs>
<filter id="folder-stack-a" x="-11.4%" y="-13.9%" width="122.7%" height="127.8%">
<feOffset in="SourceAlpha" result="shadowOffsetOuter1"/>
<feGaussianBlur in="shadowOffsetOuter1" result="shadowBlurOuter1" stdDeviation=".5"/>
<feComposite in="shadowBlurOuter1" in2="SourceAlpha" operator="out" result="shadowBlurOuter1"/>
<feColorMatrix in="shadowBlurOuter1" result="shadowMatrixOuter1" values="0 0 0 0 0   0 0 0 0 0   0 0 0 0 0  0 0 0 0.15 0"/>
<feMerge>
<feMergeNode in="shadowMatrixOuter1"/>
<feMergeNode in="SourceGraphic"/>
</feMerge>
</filter>
<radialGradient id="folder-stack-j" r="56.897%" gradientTransform="matrix(0 .87879 -1 0 1 .06)">
<stop stop-color="#FFF" stop-opacity=".217" offset="0"/>
<stop stop-color="#E9E9E9" stop-opacity=".745" offset="1"/>
</radialGradient>
<linearGradient id="folder-stack-k" x1="22.112" x2="22.112" y1="2.102" y2="5.6527" gradientTransform="scale(.36878 2.7116)" gradientUnits="userSpaceOnUse">
<stop stop-color="#FFF" stop-opacity=".418" offset="0"/>
<stop stop-color="#FFF" stop-opacity=".329" offset="1"/>
</linearGradient>
<linearGradient id="folder-stack-l" x1="28.436" x2="28.436" y1="4.5663" y2="7.458" gradientTransform="scale(.51871 1.9279)" gradientUnits="userSpaceOnUse">
<stop stop-color="#FFF" stop-opacity=".418" offset="0"/>
<stop stop-color="#FFF" stop-opacity=".329" offset="1"/>
</linearGradient>
<linearGradient id="folder-stack-m" x1="4.3807" x2="4.3807" y1="7.2992" y2="10.668" gradientTransform="scale(.74196 1.3478)" gradientUnits="userSpaceOnUse">
<stop stop-color="#FFF" stop-opacity=".418" offset="0"/>
<stop stop-color="#FFF" stop-opacity=".329" offset="1"/>
</linearGradient>
<linearGradient id="linearGradient919" x1="9.9499" x2="9.9499" y1="-3.6331e-14" y2="7.5555" gradientTransform="matrix(1.1055 0 0 .90453 1 3)" gradientUnits="userSpaceOnUse">
<stop stop-color="#008084" offset="0"/>
<stop stop-color="#02c3ff" offset="1"/>
</linearGradient>
<filter id="folder-24-a" x="-.114" y="-.139" width="1.227" height="1.278">
<feOffset in="SourceAlpha" result="shadowOffsetOuter1"/>
<feGaussianBlur in="shadowOffsetOuter1" result="shadowBlurOuter1" stdDeviation=".5"/>
<feComposite in="shadowBlurOuter1" in2="SourceAlpha" operator="out" result="shadowBlurOuter1"/>
<feColorMatrix in="shadowBlurOuter1" result="shadowMatrixOuter1" values="0 0 0 0 0   0 0 0 0 0   0 0 0 0 0  0 0 0 0.15 0"/>
<feMerge>
<feMergeNode in="shadowMatrixOuter1"/>
<feMergeNode in="SourceGraphic"/>
</feMerge>
</filter>
<filter id="filter1010" x="-.0588" y="-.147" width="1.1176" height="1.294" color-interpolation-filters="sRGB">
<feGaussianBlur stdDeviation="0.49"/>
</filter>
<linearGradient id="linearGradient968" x1="-13" x2="-13" y1="16" y2="17" gradientTransform="translate(0,-6)" gradientUnits="userSpaceOnUse">
<stop stop-color="#fff" offset="0"/>
<stop stop-color="#cef5ff" offset="1"/>
</linearGradient>
<radialGradient id="radialGradient923" cx="8.4558" cy=".89436" r="19.907" gradientTransform="matrix(1.1568 -2.3804e-8 1.5818e-8 .76871 2.2183 7.313)" gradientUnits="userSpaceOnUse">
<stop stop-color="#25d8c1" offset="0"/>
<stop stop-color="#008fa5" offset="1"/>
</radialGradient>
<radialGradient id="radialGradient994" cx="2.9963" cy="6.5459" r="3.0347" gradientTransform="scale(.93744 1.0667)" gradientUnits="userSpaceOnUse" xlink:href="#folder-stack-j"/>
<radialGradient id="radialGradient996" cx="9.8373" cy="5.0279" r="5.7215" gradientTransform="scale(1.1436 .87442)" gradientUnits="userSpaceOnUse" xlink:href="#folder-stack-j"/>
</defs>
<g transform="translate(0,1)" fill-rule="evenodd">
<path d="m14 4c0.30643 0.61287 0.93283 1 1.618 1h4.7964c1.428 0 2.5856 1.1576 2.5856 2.5856v10.829c0 1.428-1.1576 2.5856-2.5856 2.5856h-16.829c-1.428 0-2.5856-1.1576-2.5856-2.5856v-12.829c0-1.428 1.1576-2.5856 2.5856-2.5856h8.7964c0.68521 0 1.3116 0.38713 1.618 1z" fill="url(#linearGradient919)" filter="url(#folder-24-a)"/>
<g transform="translate(26,-4)">
<rect x="-24" y="10" width="20" height="8" rx="1.6573" ry="1.6573" fill-opacity=".2" filter="url(#filter1010)" style="paint-order:stroke fill markers"/>
<rect x="-24" y="10" width="20" height="8" rx="1.6573" ry="1.6573" fill="url(#linearGradient968)" style="paint-order:stroke fill markers"/>
<path d="m-22.342 10c-0.91812 0-1.6582 0.74008-1.6582 1.6582v1c0-0.91812 0.74008-1.6582 1.6582-1.6582h16.684c0.91812 0 1.6582 0.74008 1.6582 1.6582v-1c0-0.91812-0.74008-1.6582-1.6582-1.6582z" opacity=".5" style="paint-order:stroke fill markers"/>
</g>
<path d="m1 8.0005h22v10.414c0 1.428-1.1576 2.5856-2.5856 2.5856h-16.829c-1.428 0-2.5856-1.1576-2.5856-2.5856z" fill="url(#radialGradient923)" filter="url(#folder-24-a)"/>
</g>
<g transform="translate(4,9)" fill="none" fill-rule="evenodd" filter="url(#folder-stack-a)">
<path d="m2.8088 9.3276c0.99483 0 2-1.3271 2-2.6034 0-1.1559-0.89929-2.0862-2-2.0862s-2 0.9303-2 2.0862c0 1.2763 1.0052 2.6034 2 2.6034z" fill="url(#radialGradient994)" stroke="#fff" stroke-opacity=".2"/>
<circle cx="2" cy="6.207" r="1" fill="#fff"/>
<circle cx="7.5" cy="2.069" r="1" fill="#fff"/>
<circle cx="13.5" cy="5.172" r="1" fill="#fff"/>
<path d="m8 5.1897c0.99483 0 2-1.3271 2-2.6034 0-1.1559-0.89929-2.0862-2-2.0862s-2 0.9303-2 2.0862c0 1.2763 1.0052 2.6034 2 2.6034zm6.5 3.1034c0.99483 0 2-1.3271 2-2.6034 0-1.1559-0.8993-2.0862-2-2.0862s-2 0.9303-2 2.0862c0 1.2763 1.0052 2.6034 2 2.6034z" fill="url(#radialGradient996)" stroke="#fff" stroke-opacity=".2"/>
<path d="m8 6.2069c0 4.0639 0.12553 6.1895 0.3088 8.614" stroke="url(#folder-stack-k)" stroke-linecap="round"/>
<path d="m15 9.3103c0 3.0322-0.53064 2.7515-0.49861 4.5605" stroke="url(#folder-stack-l)" stroke-linecap="round"/>
<path transform="matrix(-1,0,0,1,6.5,0)" d="m4 10.345c0 2.3444-1.5919 2.1274-1.4958 3.526" stroke="url(#folder-stack-m)" stroke-linecap="round"/>
</g>
</svg>
