<svg width="24" height="24" version="1.1" viewBox="0 0 24 24" xmlns="http://www.w3.org/2000/svg">
 <defs>
  <linearGradient id="linearGradient903" x1="9.9499" x2="9.9499" y1="-3.6331e-14" y2="7.5555" gradientTransform="matrix(1.1055 0 0 .90453 1.004 3)" gradientUnits="userSpaceOnUse">
   <stop stop-color="#ba5638" offset="0"/>
   <stop stop-color="#870b3d" offset="1"/>
  </linearGradient>
  <filter id="folder-open-a" x="-.114" y="-.139" width="1.227" height="1.278">
   <feOffset in="SourceAlpha" result="shadowOffsetOuter1"/>
   <feGaussianBlur in="shadowOffsetOuter1" result="shadowBlurOuter1" stdDeviation=".5"/>
   <feComposite in="shadowBlurOuter1" in2="SourceAlpha" operator="out" result="shadowBlurOuter1"/>
   <feColorMatrix in="shadowBlurOuter1" result="shadowMatrixOuter1" values="0 0 0 0 0   0 0 0 0 0   0 0 0 0 0  0 0 0 0.15 0"/>
   <feMerge>
    <feMergeNode in="shadowMatrixOuter1"/>
    <feMergeNode in="SourceGraphic"/>
   </feMerge>
  </filter>
  <filter id="filter1047" x="-.0504" y="-.126" width="1.1008" height="1.252" color-interpolation-filters="sRGB">
   <feGaussianBlur stdDeviation="0.42"/>
  </filter>
  <linearGradient id="linearGradient1025" x1="-20" x2="-20" y1="6" y2="12" gradientTransform="translate(32.004)" gradientUnits="userSpaceOnUse">
   <stop stop-color="#fff" offset="0"/>
   <stop stop-color="#fff8a3" offset="1"/>
  </linearGradient>
  <radialGradient id="radialGradient930" cx="7.4162" cy="1.0197" r="17.525" gradientTransform="matrix(1.4832 0 0 .6742 1.004 10.313)" gradientUnits="userSpaceOnUse">
   <stop stop-color="#ff774d" offset="0"/>
   <stop stop-color="#ba0e55" offset="1"/>
  </radialGradient>
 </defs>
 <path d="m14.004 4c0.30643 0.61287 0.93283 1 1.618 1h4.7964c1.428 0 2.5856 1.1576 2.5856 2.5856v10.829c0 1.428-1.1576 2.5856-2.5856 2.5856h-16.829c-1.428 0-2.5856-1.1576-2.5856-2.5856v-12.829c0-1.428 1.1576-2.5856 2.5856-2.5856h8.7964c0.6852 0 1.3116 0.38713 1.618 1z" fill="url(#linearGradient903)" fill-rule="evenodd" filter="url(#folder-open-a)"/>
 <rect x="2.004" y="6" width="20" height="8" rx="1.6874" ry="1.6874" fill-opacity=".2" fill-rule="evenodd" filter="url(#filter1047)" style="paint-order:stroke fill markers"/>
 <rect x="2.004" y="6" width="20" height="8" rx="1.6874" ry="1.6874" fill="url(#linearGradient1025)" fill-rule="evenodd" style="paint-order:stroke fill markers"/>
 <path d="m3.692 6.0005c-0.93482 0-1.6875 0.75268-1.6875 1.6875v1c0-0.93482 0.75268-1.6875 1.6875-1.6875h16.625c0.93482 0 1.6875 0.75268 1.6875 1.6875v-1c0-0.93482-0.75268-1.6875-1.6875-1.6875z" fill-rule="evenodd" opacity=".5" style="paint-order:stroke fill markers"/>
 <path d="m1.004 11h22v7.4144c0 1.428-1.1576 2.5856-2.5856 2.5856h-16.829c-1.428 0-2.5856-1.1576-2.5856-2.5856z" fill="url(#radialGradient930)" fill-rule="evenodd" filter="url(#folder-open-a)"/>
 <path d="m9.5 14.5h3m-3 2h3m-3-4h1" fill="none" stroke="#fff" stroke-linecap="round" stroke-linejoin="round"/>
 <rect x="7.5" y="10.5" width="7" height="8" fill="none" stroke="#fff" stroke-linecap="round" stroke-linejoin="round"/>
 <path d="m16.5 12.5v6" fill="none" stroke="#fff" stroke-linecap="square"/>
 <path d="m16.5 10.071v1" fill="none" stroke="#fff"/>
</svg>
