<svg width="24" height="24" version="1.1" viewBox="0 0 24 24" xmlns="http://www.w3.org/2000/svg" xmlns:xlink="http://www.w3.org/1999/xlink">
<defs>
<filter id="folder-open-a" x="-11.4%" y="-13.9%" width="122.7%" height="127.8%">
<feOffset in="SourceAlpha" result="shadowOffsetOuter1"/>
<feGaussianBlur in="shadowOffsetOuter1" result="shadowBlurOuter1" stdDeviation=".5"/>
<feComposite in="shadowBlurOuter1" in2="SourceAlpha" operator="out" result="shadowBlurOuter1"/>
<feColorMatrix in="shadowBlurOuter1" result="shadowMatrixOuter1" values="0 0 0 0 0   0 0 0 0 0   0 0 0 0 0  0 0 0 0.15 0"/>
<feMerge>
<feMergeNode in="shadowMatrixOuter1"/>
<feMergeNode in="SourceGraphic"/>
</feMerge>
</filter>
<path id="folder-open-b" d="m13 1c0.30643 0.61287 0.93283 1 1.618 1h4.7964c1.428 0 2.5856 1.1576 2.5856 2.5856v10.829c0 1.428-1.1576 2.5856-2.5856 2.5856h-16.829c-1.428 0-2.5856-1.1576-2.5856-2.5856l-4.4409e-16 -12.829c-1.7488e-16 -1.428 1.1576-2.5856 2.5856-2.5856l8.7964 2.2204e-15c0.68521-7.3445e-16 1.3116 0.38713 1.618 1z"/>
<linearGradient id="linearGradient903" x1="9.9499" x2="9.9499" y1="-3.6331e-14" y2="7.5555" gradientTransform="scale(1.1055 .90453)" gradientUnits="userSpaceOnUse">
<stop stop-color="#9c3" offset="0"/>
<stop stop-color="#28851e" offset="1"/>
</linearGradient>
<radialGradient id="radialGradient930" cx="7.4162" cy="1.0197" r="17.525" gradientTransform="matrix(1.4832 0 0 .6742 1 10.313)" gradientUnits="userSpaceOnUse">
<stop stop-color="#ccff42" offset="0"/>
<stop stop-color="#50a100" offset="1"/>
</radialGradient>
<linearGradient id="linearGradient1025" x1="-20" x2="-20" y1="6" y2="12" gradientUnits="userSpaceOnUse">
<stop stop-color="#fff" offset="0"/>
<stop stop-color="#cef5ff" offset="1"/>
</linearGradient>
<filter id="filter1047" x="-.0504" y="-.126" width="1.1008" height="1.252" color-interpolation-filters="sRGB">
<feGaussianBlur stdDeviation="0.42"/>
</filter>
</defs>
<use transform="translate(1,3)" width="100%" height="100%" fill="url(#linearGradient903)" fill-rule="evenodd" filter="url(#folder-open-a)" xlink:href="#folder-open-b"/>
<g transform="translate(32)" fill-rule="evenodd">
<rect x="-30" y="6" width="20" height="8" rx="1.6874" ry="1.6874" fill-opacity=".2" filter="url(#filter1047)" style="paint-order:stroke fill markers"/>
<rect x="-30" y="6" width="20" height="8" rx="1.6874" ry="1.6874" fill="url(#linearGradient1025)" style="paint-order:stroke fill markers"/>
<path d="m-28.312 6.0005c-0.93482 0-1.6875 0.75268-1.6875 1.6875v1c0-0.93482 0.75268-1.6875 1.6875-1.6875h16.625c0.93482 0 1.6875 0.75268 1.6875 1.6875v-1c0-0.93482-0.75268-1.6875-1.6875-1.6875z" opacity=".5" style="paint-order:stroke fill markers"/>
</g>
<path d="m1 11h22v7.4144c0 1.428-1.1576 2.5856-2.5856 2.5856h-16.829c-1.428 0-2.5856-1.1576-2.5856-2.5856z" fill="url(#radialGradient930)" fill-rule="evenodd" filter="url(#folder-open-a)"/>
<g transform="translate(-.00044661 .00010678)" fill="none" stroke="#fff">
<path d="m12.5 17.5v-2h-1v2z"/>
<path d="m9.5 14.313v3.1871h5v-3.1871l-2.5-2.5926z"/>
<polyline points="8 13.5 12 9.5 16 13.5"/>
</g>
</svg>
