<svg width="64" height="64" version="1.1" viewBox="0 0 64 64" xmlns="http://www.w3.org/2000/svg" xmlns:xlink="http://www.w3.org/1999/xlink">
<defs>
<filter id="drive-harddisk-root-64px-a" x="-17.4%" y="-14.8%" width="134.8%" height="129.6%">
<feOffset dy="1" in="SourceAlpha" result="shadowOffsetOuter1"/>
<feGaussianBlur in="shadowOffsetOuter1" result="shadowBlurOuter1" stdDeviation="1.5"/>
<feComposite in="shadowBlurOuter1" in2="SourceAlpha" operator="out" result="shadowBlurOuter1"/>
<feColorMatrix in="shadowBlurOuter1" result="shadowMatrixOuter1" values="0 0 0 0 0   0 0 0 0 0   0 0 0 0 0  0 0 0 0.2 0"/>
<feMerge>
<feMergeNode in="shadowMatrixOuter1"/>
<feMergeNode in="SourceGraphic"/>
</feMerge>
</filter>
<linearGradient id="drive-harddisk-root-64px-b" x1="47.683" x2="-1.2331" y1="26.821" y2="26.821" gradientTransform="scale(.9893 1.0108)" gradientUnits="userSpaceOnUse">
<stop stop-color="#0067BC" offset="0"/>
<stop stop-color="#30EA7F" offset=".04571"/>
<stop stop-color="#00D887" offset=".09931"/>
<stop stop-color="#00B160" offset=".88945"/>
<stop stop-color="#00C165" offset=".93793"/>
<stop stop-color="#008CBD" offset="1"/>
</linearGradient>
<linearGradient id="drive-harddisk-root-64px-c" x1="25.377" x2="1.043e-9" y1="83.201" y2="83.201" gradientTransform="scale(1.8127 .55168)" gradientUnits="userSpaceOnUse">
<stop stop-color="#FFF" stop-opacity=".5" offset="0"/>
<stop stop-color="#FFF" stop-opacity=".9" offset=".09936"/>
<stop stop-color="#FFF" stop-opacity=".7" offset=".52356"/>
<stop stop-color="#FFF" stop-opacity=".9" offset=".87648"/>
<stop stop-color="#FFF" stop-opacity=".5" offset="1"/>
</linearGradient>
<path id="drive-harddisk-root-64px-d" d="m1.8905e-9 42.507c-3.0938e-10 -2.489 2.0061-4.5068 4.4944-4.5068h37.011c2.4822 0 4.4944 2.0059 4.4944 4.5068v4.9865c0 2.489-2.0061 4.5068-4.4944 4.5068l-37.011 2e-7c-2.4822 0-4.4944-2.0059-4.4944-4.5068l-6.1982e-10 -4.9865z"/>
<filter id="drive-harddisk-root-64px-e" x="-1.1%" y="-3.6%" width="102.2%" height="107.1%">
<feMorphology in="SourceAlpha" radius="1" result="shadowSpreadInner1"/>
<feOffset in="shadowSpreadInner1" result="shadowOffsetInner1"/>
<feComposite in="shadowOffsetInner1" in2="SourceAlpha" k2="-1" k3="1" operator="arithmetic" result="shadowInnerInner1"/>
<feColorMatrix in="shadowInnerInner1" values="0 0 0 0 1   0 0 0 0 1   0 0 0 0 1  0 0 0 0.5 0"/>
</filter>
<radialGradient id="drive-harddisk-root-64px-f" cx="10.346" cy="98.467" r="16.869" gradientTransform="scale(2.1448 .46625)" gradientUnits="userSpaceOnUse">
<stop stop-color="#7CFFFE" offset="0"/>
<stop stop-color="#D6CDE6" offset="1"/>
</radialGradient>
<path id="drive-harddisk-root-64px-g" d="m-1.0657e-9 49c0-2.7614 2.2342-5 4.9994-5h36.001c2.7611 0 4.9994 2.2442 4.9994 5 0 2.7614-2.2342 5-4.9994 5h-36.001c-2.7611 0-4.9994-2.2442-4.9994-5z"/>
<filter id="drive-harddisk-root-64px-h" x="-1.1%" y="-5%" width="102.2%" height="110%">
<feMorphology in="SourceAlpha" radius="1" result="shadowSpreadInner1"/>
<feOffset in="shadowSpreadInner1" result="shadowOffsetInner1"/>
<feComposite in="shadowOffsetInner1" in2="SourceAlpha" k2="-1" k3="1" operator="arithmetic" result="shadowInnerInner1"/>
<feColorMatrix in="shadowInnerInner1" values="0 0 0 0 0   0 0 0 0 0.239215686   0 0 0 0 0.611764706  0 0 0 0.2 0"/>
</filter>
<linearGradient id="drive-harddisk-root-64px-i" x1="21.407" x2="21.407" y1="77.941" y2="84.574" gradientTransform="scale(1.6583 .60302)" gradientUnits="userSpaceOnUse">
<stop stop-color="#0174FF" offset="0"/>
<stop stop-color="#01C2FF" offset=".5085"/>
<stop stop-color="#0056FF" offset="1"/>
</linearGradient>
<radialGradient id="drive-harddisk-root-64px-j" cx="6" cy="48.506" r="2.4943" gradientUnits="userSpaceOnUse">
<stop stop-color="#B0FF58" offset="0"/>
<stop stop-color="#37EC00" offset="1"/>
</radialGradient>
</defs>
<g transform="translate(9,5)" fill-rule="evenodd" filter="url(#drive-harddisk-root-64px-a)">
<path d="m0 7.9995c0-4.418 3.5904-7.9995 7.9994-7.9995h30.001c4.418 0 7.9994 3.5906 7.9994 7.9995l1e-6 39h-46z" fill="url(#drive-harddisk-root-64px-b)"/>
<use width="100%" height="100%" fill="url(#drive-harddisk-root-64px-c)" xlink:href="#drive-harddisk-root-64px-d"/>
<use width="100%" height="100%" fill="#000000" filter="url(#drive-harddisk-root-64px-e)" xlink:href="#drive-harddisk-root-64px-d"/>
<use width="100%" height="100%" fill="url(#drive-harddisk-root-64px-f)" xlink:href="#drive-harddisk-root-64px-g"/>
<use width="100%" height="100%" fill="#000000" filter="url(#drive-harddisk-root-64px-h)" xlink:href="#drive-harddisk-root-64px-g"/>
<path d="m30.5 47c0.27614 0 0.5 0.21506 0.5 0.49048v3.019c0 0.24079-0.18326 0.44105-0.41225 0.48258l-0.087749 0.007902c-0.27614 0-0.5-0.21506-0.5-0.49048v-3.019c0-0.24079 0.18326-0.44105 0.41225-0.48258zm2 0c0.27614 0 0.5 0.21506 0.5 0.49048v3.019c0 0.24079-0.18326 0.44105-0.41225 0.48258l-0.087749 0.007902c-0.27614 0-0.5-0.21506-0.5-0.49048v-3.019c0-0.24079 0.18326-0.44105 0.41225-0.48258zm2 0c0.27614 0 0.5 0.21506 0.5 0.49048v3.019c0 0.24079-0.18326 0.44105-0.41225 0.48258l-0.087749 0.007902c-0.27614 0-0.5-0.21506-0.5-0.49048v-3.019c0-0.24079 0.18326-0.44105 0.41225-0.48258zm2 0c0.27614 0 0.5 0.21506 0.5 0.49048v3.019c0 0.24079-0.18326 0.44105-0.41225 0.48258l-0.087749 0.007902c-0.27614 0-0.5-0.21506-0.5-0.49048v-3.019c0-0.24079 0.18326-0.44105 0.41225-0.48258zm2 0c0.27614 0 0.5 0.21506 0.5 0.49048v3.019c0 0.24079-0.18326 0.44105-0.41225 0.48258l-0.087749 0.007902c-0.27614 0-0.5-0.21506-0.5-0.49048v-3.019c0-0.24079 0.18326-0.44105 0.41225-0.48258zm2 0c0.27614 0 0.5 0.21506 0.5 0.49048v3.019c0 0.24079-0.18326 0.44105-0.41225 0.48258l-0.087749 0.007902c-0.27614 0-0.5-0.21506-0.5-0.49048v-3.019c0-0.24079 0.18326-0.44105 0.41225-0.48258z" fill="url(#drive-harddisk-root-64px-i)"/>
<path d="m6 50.5c0.82843 0 1.5-0.67157 1.5-1.5s-0.67157-1.5-1.5-1.5-1.5 0.67157-1.5 1.5 0.67157 1.5 1.5 1.5z" fill="url(#drive-harddisk-root-64px-j)" stroke="#54d800"/>
</g>
</svg>
