<svg width="96" height="96" version="1.1" viewBox="0 0 96 96" xmlns="http://www.w3.org/2000/svg">
 <defs>
  <filter id="application-x-cd-image-a" x="-.156" y="-.103" width="1.312" height="1.256">
   <feOffset dy="2" in="SourceAlpha" result="shadowOffsetOuter1"/>
   <feGaussianBlur in="shadowOffsetOuter1" result="shadowBlurOuter1" stdDeviation="3"/>
   <feColorMatrix in="shadowBlurOuter1" values="0 0 0 0 0.505882353   0 0 0 0 0.741176471   0 0 0 0 0  0 0 0 0.5 0"/>
  </filter>
  <linearGradient id="application-x-cd-image-c" x1="35.327" x2="35.327" y2="70.654" gradientTransform="scale(.90582 1.104)" gradientUnits="userSpaceOnUse">
   <stop stop-color="#B7EE43" offset="0"/>
   <stop stop-color="#6AD500" offset="1"/>
  </linearGradient>
  <filter id="application-x-cd-image-d" x="-.25" y="-.159" width="1.5" height="1.5">
   <feOffset dy="2" in="SourceAlpha" result="shadowOffsetOuter1"/>
   <feGaussianBlur in="shadowOffsetOuter1" result="shadowBlurOuter1" stdDeviation="1.5"/>
   <feComposite in="shadowBlurOuter1" in2="SourceAlpha" operator="out" result="shadowBlurOuter1"/>
   <feColorMatrix in="shadowBlurOuter1" values="0 0 0 0 0   0 0 0 0 0   0 0 0 0 0  0 0 0 0.05 0"/>
  </filter>
  <linearGradient id="application-x-cd-image-f" x1="53" x2="44.528" y1="11" y2="19.51" gradientUnits="userSpaceOnUse">
   <stop stop-color="#FFF" stop-opacity=".1" offset="0"/>
   <stop stop-color="#FFF" stop-opacity=".3" offset="1"/>
  </linearGradient>
 </defs>
 <g transform="translate(16,10)" fill-rule="evenodd">
  <path d="m42 0 22 22v47c0 4.9706-4.0294 9-9 9h-46c-4.9706 0-9-4.0294-9-9v-60c0-4.9706 4.0294-9 9-9z" filter="url(#application-x-cd-image-a)"/>
  <path d="m42 0 22 22v47c0 4.9706-4.0294 9-9 9h-46c-4.9706 0-9-4.0294-9-9v-60c0-4.9706 4.0294-9 9-9z" fill="url(#application-x-cd-image-c)"/>
  <path d="m42 0 22 22h-13c-4.9706 0-9-4.0294-9-9z" filter="url(#application-x-cd-image-d)"/>
  <path d="m42 0 22 22h-13c-4.9706 0-9-4.0294-9-9z" fill="url(#application-x-cd-image-f)"/>
 </g>
 <path d="m45.658 35.249-7.3128 0.75978 0.48876 7.4291zm4.6847 0 6.8241 8.1889 0.48876-7.4291zm5.5227 9.7513-7.865-9.438-7.865 9.438zm-7.9794-11.994c0.076-0.0087 0.15281-0.0087 0.22881 0l11.395 1.1839 9.7744 11.791-21.284 27.213-21.284-27.213 9.7744-11.791zm-11.454 4.3888-6.3039 7.6047h6.8042zm23.137 0-0.50031 7.6047h6.8042zm-8.8383 29.062 15.218-19.458h-7.2764zm-5.46 0-7.9419-19.458h-7.2764zm-5.7817-19.458 8.5117 20.854 8.5117-20.854z" fill="#fff"/>
</svg>
