<svg width="96" height="96" version="1.1" viewBox="0 0 96 96" xmlns="http://www.w3.org/2000/svg">
 <defs>
  <filter id="application-x-deepinclone-dim-a" x="-.156" y="-.103" width="1.312" height="1.256">
   <feOffset dy="2" in="SourceAlpha" result="shadowOffsetOuter1"/>
   <feGaussianBlur in="shadowOffsetOuter1" result="shadowBlurOuter1" stdDeviation="3"/>
   <feColorMatrix in="shadowBlurOuter1" values="0 0 0 0 0.0391387195   0 0 0 0 0.388542822   0 0 0 0 1  0 0 0 0.5 0"/>
  </filter>
  <linearGradient id="application-x-deepinclone-dim-c" x1="35.327" x2="35.327" y2="70.654" gradientTransform="matrix(.90582 0 0 1.104 16 10)" gradientUnits="userSpaceOnUse">
   <stop stop-color="#327DFF" offset="0"/>
   <stop stop-color="#1066FF" offset="1"/>
  </linearGradient>
  <filter id="application-x-deepinclone-dim-d" x="-.25" y="-.159" width="1.5" height="1.5">
   <feOffset dy="2" in="SourceAlpha" result="shadowOffsetOuter1"/>
   <feGaussianBlur in="shadowOffsetOuter1" result="shadowBlurOuter1" stdDeviation="1.5"/>
   <feComposite in="shadowBlurOuter1" in2="SourceAlpha" operator="out" result="shadowBlurOuter1"/>
   <feColorMatrix in="shadowBlurOuter1" values="0 0 0 0 0   0 0 0 0 0   0 0 0 0 0  0 0 0 0.05 0"/>
  </filter>
  <linearGradient id="application-x-deepinclone-dim-f" x1="53" x2="44.528" y1="11" y2="19.51" gradientTransform="translate(16,10)" gradientUnits="userSpaceOnUse">
   <stop stop-color="#FFF" stop-opacity=".1" offset="0"/>
   <stop stop-color="#FFF" stop-opacity=".3" offset="1"/>
  </linearGradient>
 </defs>
 <path d="m80 79c0 4.9706-4.0294 9-9 9h-46c-4.9706 0-9-4.0294-9-9v-60c0-4.9706 4.0294-9 9-9h33l22 22z" fill-rule="evenodd" filter="url(#application-x-deepinclone-dim-a)"/>
 <path d="m80 79c0 4.9706-4.0294 9-9 9h-46c-4.9706 0-9-4.0294-9-9v-60c0-4.9706 4.0294-9 9-9h33l22 22z" fill="url(#application-x-deepinclone-dim-c)" fill-rule="evenodd"/>
 <path d="m58 10 22 22h-13c-4.9706 0-9-4.0294-9-9z" fill-rule="evenodd" filter="url(#application-x-deepinclone-dim-d)"/>
 <path d="m58 10 22 22h-13c-4.9706 0-9-4.0294-9-9z" fill="url(#application-x-deepinclone-dim-f)" fill-rule="evenodd"/>
 <path d="m40 35v22h-4v4h-4v2h4v4h4v4h2v-4h4v-4h22v-2h-22v-4h-4v-22zm-2 24h6v6h-6z" fill="#5a97ff" fill-rule="evenodd"/>
 <path d="m40 34v22h-4v4h-4v2h4v4h4v4h2v-4h4v-4h22v-2h-22v-4h-4v-22zm-2 24h6v6h-6z" fill="#fff" fill-rule="evenodd"/>
</svg>
