<svg width="96" height="96" version="1.1" viewBox="0 0 96 96" xmlns="http://www.w3.org/2000/svg">
 <defs>
  <filter id="application-x-7zip-a" x="-.156" y="-.103" width="1.312" height="1.256">
   <feOffset dy="2" in="SourceAlpha" result="shadowOffsetOuter1"/>
   <feGaussianBlur in="shadowOffsetOuter1" result="shadowBlurOuter1" stdDeviation="3"/>
   <feColorMatrix in="shadowBlurOuter1" values="0 0 0 0 0.241013895   0 0 0 0 0   0 0 0 0 0.621603261  0 0 0 0.5 0"/>
  </filter>
  <linearGradient id="application-x-7zip-c" x1="35.327" x2="35.327" y2="70.654" gradientTransform="scale(.90582 1.104)" gradientUnits="userSpaceOnUse">
   <stop stop-color="#5C42B1" offset="0"/>
   <stop stop-color="#3E1888" offset=".99345"/>
  </linearGradient>
  <filter id="application-x-7zip-d" x="-.25" y="-.159" width="1.5" height="1.5">
   <feOffset dy="2" in="SourceAlpha" result="shadowOffsetOuter1"/>
   <feGaussianBlur in="shadowOffsetOuter1" result="shadowBlurOuter1" stdDeviation="1.5"/>
   <feComposite in="shadowBlurOuter1" in2="SourceAlpha" operator="out" result="shadowBlurOuter1"/>
   <feColorMatrix in="shadowBlurOuter1" values="0 0 0 0 0   0 0 0 0 0   0 0 0 0 0  0 0 0 0.05 0"/>
  </filter>
  <linearGradient id="application-x-7zip-f" x1="53" x2="44.528" y1="11" y2="19.51" gradientUnits="userSpaceOnUse">
   <stop stop-color="#FFF" stop-opacity=".1" offset="0"/>
   <stop stop-color="#FFF" stop-opacity=".3" offset="1"/>
  </linearGradient>
 </defs>
 <g transform="translate(16,10)" fill-rule="evenodd">
  <path d="m42 0 22 22v47c0 4.9706-4.0294 9-9 9h-46c-4.9706 0-9-4.0294-9-9v-60c0-4.9706 4.0294-9 9-9z" filter="url(#application-x-7zip-a)"/>
  <path d="m42 0 22 22v47c0 4.9706-4.0294 9-9 9h-46c-4.9706 0-9-4.0294-9-9v-60c0-4.9706 4.0294-9 9-9z" fill="url(#application-x-7zip-c)"/>
  <path d="m42 0 22 22h-13c-4.9706 0-9-4.0294-9-9z" filter="url(#application-x-7zip-d)"/>
  <path d="m42 0 22 22h-13c-4.9706 0-9-4.0294-9-9z" fill="url(#application-x-7zip-f)"/>
 </g>
 <path d="m58.921 34 0.8915 8.3519h-1.4513c-0.60818-1.5135-1.472-2.9228-2.5916-4.228-1.1196-1.3191-1.8433-1.9295-2.7693-2.1239-0.41467-0.083284-13 0-13 0l12.079 15.495v0.56235l-13.079 15.942h16c2 0 3.1397-0.89093 3.6097-1.4463 0.49756-0.58318 0.93986-1.2358 1.3269-1.9578 0.38698-0.72203 0.70488-1.3885 0.9537-1.9995l1.3891 0.43738-2.3428 8.9662h-25.937v-0.84342l14.43-17.474-14.43-18.682v-1z" fill="#fff" fill-rule="evenodd"/>
</svg>
