<svg width="16" height="16" version="1" xmlns="http://www.w3.org/2000/svg">
<path d="m10.747 4.6036c0.24 0.1383 0.321 0.4444 0.181 0.6862l-1.9965 3.4568c-0.1396 0.2417-0.4452 0.325-0.6852 0.1866-0.2391-0.1378-0.3199-0.4439-0.1802-0.6857l1.9969-3.4568c0.139-0.2417 0.445-0.325 0.684-0.1871zm-10.512-2.2247 2.1456-2.144c0.3135-0.31323 0.8183-0.31328 1.1318 2e-5l2.1455 2.1438c0.3135 0.3133 0.3135 0.8176 0 1.1309l-2.1455 2.1439c-0.3135 0.3133-0.8183 0.3133-1.1319 0l-2.1455-2.1438c-0.31353-0.3133-0.31357-0.8177-5e-5 -1.1309z" fill="#666"/>
<path d="M 10,8.5 A 1.5,1.5 0 0 1 8.5,10 1.5,1.5 0 0 1 7,8.5 1.5,1.5 0 0 1 8.5,7 1.5,1.5 0 0 1 10,8.5 Z M 8.5,1 A 7.5,7.5 0 0 0 1,8.5 7.5,7.5 0 0 0 8.5,16 7.5,7.5 0 0 0 16,8.5 7.5,7.5 0 0 0 8.5,1 Z M 8.5,3 A 5.5,5.5 0 0 1 14,8.5 5.5,5.5 0 0 1 8.5,14 5.5,5.5 0 0 1 3,8.5 5.5,5.5 0 0 1 8.5,3 Z" fill="#666"/>
</svg>
