<svg width="64" height="64" version="1.1" viewBox="0 0 64 64" xmlns="http://www.w3.org/2000/svg" xmlns:xlink="http://www.w3.org/1999/xlink">
<defs>
<filter id="folder-64px-a" x="-14.3%" y="-16.7%" width="128.6%" height="133.3%">
<feOffset dy="1" in="SourceAlpha" result="shadowOffsetOuter1"/>
<feGaussianBlur in="shadowOffsetOuter1" result="shadowBlurOuter1" stdDeviation="1.5"/>
<feComposite in="shadowBlurOuter1" in2="SourceAlpha" operator="out" result="shadowBlurOuter1"/>
<feColorMatrix in="shadowBlurOuter1" result="shadowMatrixOuter1" values="0 0 0 0 0   0 0 0 0 0   0 0 0 0 0  0 0 0 0.2 0"/>
<feMerge>
<feMergeNode in="shadowMatrixOuter1"/>
<feMergeNode in="SourceGraphic"/>
</feMerge>
</filter>
<path id="folder-64px-b" d="m31.279 3c0.7642 1.8177 2.5438 3 4.5156 3h13.205c3.866 0 7 3.134 7 7v28c0 3.866-3.134 7-7 7h-42c-3.866 0-7-3.134-7-7l-2.6645e-15 -34c-4.7345e-16 -3.866 3.134-7 7-7l19.764 1.1546e-14c1.9718-3.6222e-16 3.7514 1.1823 4.5156 3z"/>
<rect id="folder-64px-f" x="2.523" y="9" width="50.955" height="20.75" rx="4.5"/>
<linearGradient id="linearGradient891" x1="25.923" x2="25.923" y1="-3.0699e-14" y2="19.685" gradientTransform="scale(1.0801 .92582)" gradientUnits="userSpaceOnUse">
<stop stop-color="#9c3" offset="0"/>
<stop stop-color="#28851e" offset="1"/>
</linearGradient>
<radialGradient id="radialGradient895" cx="22.45" cy=".62361" r="52.808" gradientTransform="matrix(1.2472 0 0 .80178 4 22.5)" gradientUnits="userSpaceOnUse">
<stop stop-color="#ccff42" offset="0"/>
<stop stop-color="#50a100" offset="1"/>
</radialGradient>
<filter id="filter920" x="-.05066" y="-.1244" width="1.1013" height="1.2488" color-interpolation-filters="sRGB">
<feGaussianBlur stdDeviation="1.075575"/>
</filter>
<linearGradient id="linearGradient982" x1="17.868" x2="17.868" y1="14.103" y2="17.939" gradientTransform="scale(1.5671 .63814)" gradientUnits="userSpaceOnUse">
<stop stop-color="#FFF" offset="0"/>
<stop stop-color="#CEF5FF" offset="1"/>
</linearGradient>
<filter id="folder-videos-64px-j" x="-.146" y="-.104" width="1.292" height="1.292">
<feOffset dy="1" in="SourceAlpha" result="shadowOffsetOuter1"/>
<feGaussianBlur in="shadowOffsetOuter1" result="shadowBlurOuter1" stdDeviation="1"/>
<feColorMatrix in="shadowBlurOuter1" values="0 0 0 0 0   0 0 0 0 0.42905776   0 0 0 0 0.968670281  0 0 0 0.5 0"/>
</filter>
<linearGradient id="folder-videos-64px-l" x1="12" x2="12" y2="24" gradientTransform="translate(20,28)" gradientUnits="userSpaceOnUse">
<stop stop-color="#FFF" offset="0"/>
<stop stop-color="#FFF" stop-opacity=".6" offset="1"/>
</linearGradient>
</defs>
<use transform="translate(4,11)" width="100%" height="100%" fill="url(#linearGradient891)" fill-rule="evenodd" filter="url(#folder-64px-a)" xlink:href="#folder-64px-b"/>
<g fill-rule="evenodd">
<rect x="6.523" y="20" width="50.955" height="20.75" rx="4.5254" ry="4.5254" fill-opacity=".2" filter="url(#filter920)" style="paint-order:stroke fill markers"/>
<use transform="translate(4,11)" width="100%" height="100%" fill="url(#linearGradient982)" filter="url(#folder-64px-a)" xlink:href="#folder-64px-f"/>
<path d="m11.049 20c-2.5071 0-4.5254 2.0183-4.5254 4.5254v1c0-2.5071 2.0183-4.5254 4.5254-4.5254h41.904c2.5071 0 4.5254 2.0183 4.5254 4.5254v-1c0-2.5071-2.0183-4.5254-4.5254-4.5254z" opacity=".5" style="paint-order:stroke fill markers"/>
</g>
<path d="m4 23h56v29c0 3.866-3.134 7-7 7h-42c-3.866 0-7-3.134-7-7z" fill="url(#radialGradient895)" fill-rule="evenodd" filter="url(#folder-64px-a)"/>
<g transform="translate(-5.1498e-8 1.2274e-6)" fill-rule="evenodd">
<circle cx="32" cy="40" r="12" filter="url(#folder-videos-64px-j)"/>
<circle cx="32" cy="40" r="12" fill="url(#folder-videos-64px-l)"/>
<path d="m29.194 46.211c-1.2118 0.67854-2.1941 0.12231-2.1941-1.2453v-9.9327c0-1.3663 0.98786-1.9208 2.1941-1.2453l8.8991 4.9831c1.2118 0.67854 1.2063 1.7818 0 2.4572z" fill="#ff006b"/>
<path d="m35 42.96-5.8059 3.251c-1.2016 0.67282-2.1775 0.1316-2.1939-1.2109h2.9998v-10.761l5 2.7998zm-8-2.9607v-4.9664c0-0.42839 0.09711-0.77697 0.26762-1.0329h2.3059l0.42644 0.23879z" fill="#ffb600"/>
<path d="m31 34.799v10.401l-1.8059 1.0112c-1.2118 0.67854-2.1941 0.12231-2.1941-1.2453v-9.9327c0-1.3663 0.98786-1.9208 2.1941-1.2453z" fill="#1473ff"/>
</g>
</svg>
