<svg width="64" height="64" version="1.1" viewBox="0 0 64 64" xmlns="http://www.w3.org/2000/svg" xmlns:xlink="http://www.w3.org/1999/xlink">
<defs>
<filter id="folder-64px-a" x="-14.3%" y="-16.7%" width="128.6%" height="133.3%">
<feOffset dy="1" in="SourceAlpha" result="shadowOffsetOuter1"/>
<feGaussianBlur in="shadowOffsetOuter1" result="shadowBlurOuter1" stdDeviation="1.5"/>
<feComposite in="shadowBlurOuter1" in2="SourceAlpha" operator="out" result="shadowBlurOuter1"/>
<feColorMatrix in="shadowBlurOuter1" result="shadowMatrixOuter1" values="0 0 0 0 0   0 0 0 0 0   0 0 0 0 0  0 0 0 0.2 0"/>
<feMerge>
<feMergeNode in="shadowMatrixOuter1"/>
<feMergeNode in="SourceGraphic"/>
</feMerge>
</filter>
<path id="folder-64px-b" d="m31.279 3c0.7642 1.8177 2.5438 3 4.5156 3h13.205c3.866 0 7 3.134 7 7v28c0 3.866-3.134 7-7 7h-42c-3.866 0-7-3.134-7-7l-2.6645e-15 -34c-4.7345e-16 -3.866 3.134-7 7-7l19.764 1.1546e-14c1.9718-3.6222e-16 3.7514 1.1823 4.5156 3z"/>
<rect id="folder-64px-f" x="2.523" y="9" width="50.955" height="20.75" rx="4.5"/>
<linearGradient id="linearGradient891" x1="25.923" x2="25.923" y1="-3.0699e-14" y2="19.685" gradientTransform="scale(1.0801 .92582)" gradientUnits="userSpaceOnUse">
<stop stop-color="#9c3" offset="0"/>
<stop stop-color="#28851e" offset="1"/>
</linearGradient>
<linearGradient id="linearGradient893" x1="17.868" x2="17.868" y1="14.103" y2="17.939" gradientTransform="scale(1.5671 .63814)" gradientUnits="userSpaceOnUse">
<stop stop-color="#FFF" offset="0"/>
<stop stop-color="#CEF5FF" offset="1"/>
</linearGradient>
<radialGradient id="radialGradient895" cx="22.45" cy=".62361" r="52.808" gradientTransform="matrix(1.2472 0 0 .80178 4 22.5)" gradientUnits="userSpaceOnUse">
<stop stop-color="#ccff42" offset="0"/>
<stop stop-color="#50a100" offset="1"/>
</radialGradient>
<filter id="filter920" x="-.05066" y="-.1244" width="1.1013" height="1.2488" color-interpolation-filters="sRGB">
<feGaussianBlur stdDeviation="1.075575"/>
</filter>
<filter id="folder-downloads-j" x="-.146" y="-.104" width="1.292" height="1.292">
<feOffset dy="1" in="SourceAlpha" result="shadowOffsetOuter1"/>
<feGaussianBlur in="shadowOffsetOuter1" result="shadowBlurOuter1" stdDeviation="1"/>
<feColorMatrix in="shadowBlurOuter1" values="0 0 0 0 0   0 0 0 0 0.42905776   0 0 0 0 0.968670281  0 0 0 0.5 0"/>
</filter>
<linearGradient id="folder-downloads-l" x1="12" x2="12" y2="24" gradientTransform="translate(20,28)" gradientUnits="userSpaceOnUse">
<stop stop-color="#FFF" offset="0"/>
<stop stop-color="#FFF" stop-opacity=".6" offset="1"/>
</linearGradient>
<linearGradient id="folder-downloads-m" x1="13.876" x2="13.876" y1="4.3241" y2="17.803" gradientTransform="matrix(.86482 0 0 1.1563 20 28)" gradientUnits="userSpaceOnUse">
<stop stop-color="#FF3D3D" offset="0"/>
<stop stop-color="#E3FF00" offset=".19361"/>
<stop stop-color="#7fcb10" offset=".48269"/>
<stop stop-color="#00b160" offset="1"/>
</linearGradient>
</defs>
<g fill-rule="evenodd">
<use transform="translate(4,11)" width="100%" height="100%" fill="url(#linearGradient891)" filter="url(#folder-64px-a)" xlink:href="#folder-64px-b"/>
<rect x="6.523" y="20" width="50.955" height="20.75" rx="4.5254" ry="4.5254" fill-opacity=".2" filter="url(#filter920)" style="paint-order:stroke fill markers"/>
<use transform="translate(4,11)" width="100%" height="100%" fill="url(#linearGradient893)" filter="url(#folder-64px-a)" xlink:href="#folder-64px-f"/>
<path d="m11.049 20c-2.5071 0-4.5254 2.0183-4.5254 4.5254v1c0-2.5071 2.0183-4.5254 4.5254-4.5254h41.904c2.5071 0 4.5254 2.0183 4.5254 4.5254v-1c0-2.5071-2.0183-4.5254-4.5254-4.5254z" opacity=".5" style="paint-order:stroke fill markers"/>
<path d="m4 23h56v29c0 3.866-3.134 7-7 7h-42c-3.866 0-7-3.134-7-7z" fill="url(#radialGradient895)" filter="url(#folder-64px-a)"/>
</g>
<g transform="translate(-5.1498e-8 1.2274e-6)">
<circle cx="32" cy="40" r="12" fill-rule="evenodd" filter="url(#folder-downloads-j)"/>
<circle cx="32" cy="40" r="12" fill="url(#folder-downloads-l)" fill-rule="evenodd"/>
<path d="m36 42h1c0.45753 0 0.82843 0.3709 0.82843 0.82843 0 0.21971-0.08728 0.43043-0.24264 0.58579l-4.8787 4.8787c-0.39052 0.39052-1.0237 0.39052-1.4142 0l-4.8787-4.8787c-0.32352-0.32352-0.32352-0.84805 0-1.1716 0.15536-0.15536 0.36607-0.24264 0.58579-0.24264h1c0.55228 0 1-0.44772 1-1v-1c0-0.55228 0.44772-1 1-1h4c0.55228 0 1 0.44772 1 1v1c0 0.55228 0.44772 1 1 1zm-1-8.5c0 0.27614-0.27218 0.5-0.5 0.5h-5c-0.22782 0-0.5-0.22386-0.5-0.5s0.27218-0.5 0.5-0.5h5c0.22782 0 0.5 0.22386 0.5 0.5zm-5 1.5h4c0.55228 0 1 0.44772 1 1v1c0 0.55228-0.44772 1-1 1h-4c-0.55228 0-1-0.44772-1-1v-1c0-0.55228 0.44772-1 1-1z" fill="#fff" fill-rule="evenodd"/>
<path d="m36 42h1c0.45753 0 0.82843 0.3709 0.82843 0.82843 0 0.21971-0.08728 0.43043-0.24264 0.58579l-4.8787 4.8787c-0.39052 0.39052-1.0237 0.39052-1.4142 0l-4.8787-4.8787c-0.32352-0.32352-0.32352-0.84805 0-1.1716 0.15536-0.15536 0.36607-0.24264 0.58579-0.24264h1c0.55228 0 1-0.44772 1-1v-1c0-0.55228 0.44772-1 1-1h4c0.55228 0 1 0.44772 1 1v1c0 0.55228 0.44772 1 1 1zm0 1c-1.1046 0-2-0.89543-2-2v-1h-4v1c0 1.1046-0.89543 2-2 2h-0.58579l4.5858 4.5858 4.5858-4.5858zm-1-9.5c0 0.27614-0.27218 0.5-0.5 0.5h-5c-0.22782 0-0.5-0.22386-0.5-0.5s0.27218-0.5 0.5-0.5h5c0.22782 0 0.5 0.22386 0.5 0.5zm-5 1.5h4c0.55228 0 1 0.44772 1 1v1c0 0.55228-0.44772 1-1 1h-4c-0.55228 0-1-0.44772-1-1v-1c0-0.55228 0.44772-1 1-1zm0 1v1h4v-1z" fill="url(#folder-downloads-m)"/>
</g>
</svg>
