<svg width="64" height="64" version="1.1" viewBox="0 0 64 64" xmlns="http://www.w3.org/2000/svg" xmlns:xlink="http://www.w3.org/1999/xlink">
<defs>
<filter id="folder-applications-stack-64px-a" x="-14.3%" y="-16.7%" width="128.6%" height="133.3%">
<feOffset dy="1" in="SourceAlpha" result="shadowOffsetOuter1"/>
<feGaussianBlur in="shadowOffsetOuter1" result="shadowBlurOuter1" stdDeviation="1.5"/>
<feComposite in="shadowBlurOuter1" in2="SourceAlpha" operator="out" result="shadowBlurOuter1"/>
<feColorMatrix in="shadowBlurOuter1" result="shadowMatrixOuter1" values="0 0 0 0 0   0 0 0 0 0   0 0 0 0 0  0 0 0 0.2 0"/>
<feMerge>
<feMergeNode in="shadowMatrixOuter1"/>
<feMergeNode in="SourceGraphic"/>
</feMerge>
</filter>
<linearGradient id="folder-applications-stack-64px-k" x1="66.942%" x2="46.177%" y1="57.239%" y2="40.384%">
<stop stop-color="#5700FC" offset="0"/>
<stop stop-color="#5867FF" stop-opacity="0" offset="1"/>
</linearGradient>
<linearGradient id="folder-applications-stack-64px-l" x1="16.509" x2="11.127" y1="16.898" y2="4.6101" gradientTransform="scale(.76871 1.3009)" gradientUnits="userSpaceOnUse">
<stop stop-color="#D1C0FF" offset="0"/>
<stop stop-color="#8375FF" offset="1"/>
</linearGradient>
<linearGradient id="folder-applications-stack-64px-m" x1="60.915%" x2="44.55%" y1="25.945%" y2="86.932%">
<stop stop-color="#5C3FFF" offset="0"/>
<stop stop-color="#816AFF" stop-opacity=".054" offset="1"/>
</linearGradient>
<linearGradient id="folder-applications-stack-64px-n" x1="50%" x2="50%" y1="-22.147%" y2="100%">
<stop stop-color="#B6A2FF" offset="0"/>
<stop stop-color="#6249F0" offset="1"/>
</linearGradient>
<linearGradient id="folder-applications-stack-64px-o" x1="10.494" x2="10.494" y2="63.336" gradientTransform="scale(1.6125 .62017)" gradientUnits="userSpaceOnUse">
<stop stop-color="#FFF" stop-opacity=".8" offset="0"/>
<stop stop-color="#882AFF" stop-opacity=".117" offset="1"/>
</linearGradient>
<linearGradient id="folder-applications-stack-64px-p" x1="20.542" x2="20.542" y1="-2.5251" y2="11.402" gradientTransform="scale(1.1402 .87706)" gradientUnits="userSpaceOnUse">
<stop stop-color="#CAA2FF" stop-opacity=".3" offset="0"/>
<stop stop-color="#6249F0" offset="1"/>
</linearGradient>
<linearGradient id="folder-applications-stack-64px-q" x1="27.29" x2="33.421" y1="13.244" y2="10.693" gradientTransform="scale(.76871 1.3009)" gradientUnits="userSpaceOnUse">
<stop stop-color="#B9B7FF" offset="0"/>
<stop stop-color="#8174FF" offset="1"/>
</linearGradient>
<linearGradient id="linearGradient891" x1="25.923" x2="25.923" y1="-3.0699e-14" y2="19.685" gradientTransform="matrix(1.0801 0 0 .92582 4 11)" gradientUnits="userSpaceOnUse">
<stop stop-color="#7859ff" offset="0"/>
<stop stop-color="#4a00d5" offset="1"/>
</linearGradient>
<filter id="folder-64px-a" x="-.143" y="-.167" width="1.286" height="1.333">
<feOffset dy="1" in="SourceAlpha" result="shadowOffsetOuter1"/>
<feGaussianBlur in="shadowOffsetOuter1" result="shadowBlurOuter1" stdDeviation="1.5"/>
<feComposite in="shadowBlurOuter1" in2="SourceAlpha" operator="out" result="shadowBlurOuter1"/>
<feColorMatrix in="shadowBlurOuter1" result="shadowMatrixOuter1" values="0 0 0 0 0   0 0 0 0 0   0 0 0 0 0  0 0 0 0.2 0"/>
<feMerge>
<feMergeNode in="shadowMatrixOuter1"/>
<feMergeNode in="SourceGraphic"/>
</feMerge>
</filter>
<filter id="filter920" x="-.05066" y="-.1244" width="1.1013" height="1.2488" color-interpolation-filters="sRGB">
<feGaussianBlur stdDeviation="1.075575"/>
</filter>
<linearGradient id="linearGradient893" x1="17.868" x2="17.868" y1="14.103" y2="17.939" gradientTransform="matrix(1.5671 0 0 .63814 4 11)" gradientUnits="userSpaceOnUse">
<stop stop-color="#FFF" offset="0"/>
<stop stop-color="#CEF5FF" offset="1"/>
</linearGradient>
<radialGradient id="radialGradient895" cx="22.45" cy=".62361" r="52.808" gradientTransform="matrix(1.2472 0 0 .80178 4 22.5)" gradientUnits="userSpaceOnUse">
<stop stop-color="#7859ff" offset="0"/>
<stop stop-color="#5a2dff" offset="1"/>
</radialGradient>
<linearGradient id="linearGradient1106" x1="15.855" x2="10.937" y1="60.57" y2="56.578" gradientTransform="scale(1.6211 .61685)" gradientUnits="userSpaceOnUse" xlink:href="#folder-applications-stack-64px-k"/>
<linearGradient id="linearGradient1108" x1="23.331" x2="18.413" y1="60.57" y2="56.578" gradientTransform="scale(1.6211 .61685)" gradientUnits="userSpaceOnUse" xlink:href="#folder-applications-stack-64px-k"/>
<linearGradient id="linearGradient1110" x1="12.169" x2="9.9505" y1="8.3595" y2="16.628" gradientTransform="scale(.96839 1.0326)" gradientUnits="userSpaceOnUse" xlink:href="#folder-applications-stack-64px-m"/>
<linearGradient id="linearGradient1112" x1="6.9227" x2="6.9227" y1="3.1635" y2="19.743" gradientTransform="scale(1.2339 .81043)" gradientUnits="userSpaceOnUse" xlink:href="#folder-applications-stack-64px-n"/>
<linearGradient id="linearGradient1114" x1="25.727" x2="23.508" y1="8.3595" y2="16.628" gradientTransform="scale(.96839 1.0326)" gradientUnits="userSpaceOnUse" xlink:href="#folder-applications-stack-64px-m"/>
<linearGradient id="linearGradient1116" x1="20.496" x2="20.496" y1="3.1635" y2="19.742" gradientTransform="scale(1.2339 .81045)" gradientUnits="userSpaceOnUse" xlink:href="#folder-applications-stack-64px-n"/>
</defs>
<g fill-rule="evenodd">
<path d="m35.279 14c0.7642 1.8177 2.5438 3 4.5156 3h13.205c3.866 0 7 3.134 7 7v28c0 3.866-3.134 7-7 7h-42c-3.866 0-7-3.134-7-7v-34c0-3.866 3.134-7 7-7h19.764c1.9718 0 3.7514 1.1823 4.5156 3z" fill="url(#linearGradient891)" filter="url(#folder-64px-a)"/>
<rect x="6.523" y="20" width="50.955" height="20.75" rx="4.5254" ry="4.5254" fill-opacity=".2" filter="url(#filter920)" style="paint-order:stroke fill markers"/>
<rect x="6.523" y="20" width="50.955" height="20.75" rx="4.5" ry="4.5" fill="url(#linearGradient893)" filter="url(#folder-64px-a)"/>
<path d="m11.049 20c-2.5071 0-4.5254 2.0183-4.5254 4.5254v1c0-2.5071 2.0183-4.5254 4.5254-4.5254h41.904c2.5071 0 4.5254 2.0183 4.5254 4.5254v-1c0-2.5071-2.0183-4.5254-4.5254-4.5254z" opacity=".5" style="paint-order:stroke fill markers"/>
<path d="m4 23h56v29c0 3.866-3.134 7-7 7h-42c-3.866 0-7-3.134-7-7z" fill="url(#radialGradient895)" filter="url(#folder-64px-a)"/>
</g>
<g transform="translate(6,14)" fill="none" fill-rule="evenodd" filter="url(#folder-applications-stack-64px-a)">
<polygon points="0 34 25.257 43.61 38.396 38.61 13.139 29" fill="url(#linearGradient1106)"/>
<polygon transform="matrix(-1,0,0,1,62.633,0)" points="12.119 34 37.376 43.61 50.515 38.61 25.257 29" fill="url(#linearGradient1108)"/>
<g transform="translate(8.08,14)">
<polygon points="3.921 5 16.921 10 16.921 27 3.921 22" fill="url(#folder-applications-stack-64px-l)"/>
<polygon points="3.787 5 16.916 10 13.886 19 3.787 15.154" fill="url(#linearGradient1110)" opacity=".5"/>
<polygon points="3.787 5 16.916 10 13.297 16 0.168 11" fill="url(#linearGradient1112)"/>
<polygon points="3.921 5 16.916 10 29.921 5 16.926 0" fill="url(#folder-applications-stack-64px-o)"/>
<polygon points="16.93 0 16.921 10 29.921 5" fill="url(#folder-applications-stack-64px-p)"/>
<polygon points="16.921 5 29.921 10 29.921 27 16.921 22" fill="url(#folder-applications-stack-64px-q)"/>
<polygon transform="matrix(-1,0,0,1,46.96,0)" points="16.916 5 30.045 10 27.015 19 16.916 15.154" fill="url(#linearGradient1114)" opacity=".5"/>
<polygon transform="matrix(-1,0,0,1,50.58,0)" points="20.535 5 33.663 10 30.045 16 16.916 11" fill="url(#linearGradient1116)"/>
</g>
<g transform="translate(2.02)">
<ellipse cx="29.287" cy="14" rx="1.01" ry="1" fill="#ffd506"/>
<circle cx="15.653" cy="12.5" r="1" fill="#ff00fe"/>
<ellipse cx="2.02" cy="11" rx="1.01" ry="1" fill="#4000e0"/>
<polygon transform="rotate(23,21.522,7.311)" points="20.517 6.313 22.534 6.306 22.527 8.309 20.51 8.316" fill="#4000e0"/>
<polygon transform="rotate(23,41.749,17.656)" points="41.246 17.157 42.255 17.153 42.251 18.155 41.243 18.158" fill="#eb5959"/>
<polygon transform="rotate(45,24.952,19.707)" points="24.452 19.207 25.457 19.202 25.452 20.207 24.447 20.212" fill="#4000e0"/>
<polygon transform="rotate(45,23.942,22.707)" points="23.442 22.207 24.447 22.202 24.442 23.207 23.437 23.212" fill="#ffd506"/>
<circle cx="24.743" cy="16.5" r="1" fill="#fff"/>
<circle cx="20.703" cy="20.5" r="1" fill="#fff"/>
<polygon transform="rotate(45,24.952,11.707)" points="24.452 11.207 25.457 11.202 25.452 12.207 24.447 12.212" fill="#8a0991"/>
<polygon transform="rotate(72,22,18.106)" points="21.001 17.604 23.003 17.598 23 18.607 20.998 18.613" fill="#fff" opacity=".6"/>
<polygon transform="rotate(45,11.823,12.707)" points="11.323 12.207 12.328 12.202 12.323 13.207 11.318 13.212" fill="#4000e0"/>
<polygon transform="rotate(45,18.892,13.707)" points="18.392 13.207 19.397 13.202 19.392 14.207 18.387 14.212" fill="#9757ff"/>
<polygon transform="rotate(45,11.823,10.707)" points="11.323 10.207 12.328 10.202 12.323 11.207 11.318 11.212" fill="#ffd506"/>
<polygon transform="rotate(45,34.04,14)" points="33.041 13 35.051 12.99 35.041 15 33.031 15.01" fill="#7dac00" opacity=".9"/>
<polygon transform="rotate(45,33.03,11.707)" points="32.531 11.207 33.536 11.202 33.531 12.207 32.526 12.212" fill="#8a0991"/>
<polygon transform="rotate(45,31.49,19.06)" points="30.993 18.058 31.998 18.053 31.988 20.063 30.983 20.068" fill="#00c894"/>
<polygon transform="rotate(45,27.686,18.414)" points="26.686 17.414 28.696 17.404 28.686 19.414 26.676 19.424" fill="#9757ff"/>
<polygon transform="rotate(45,31.43,7.121)" points="29.929 5.621 32.944 5.606 32.929 8.621 29.915 8.636" fill="#00c894"/>
<polygon transform="rotate(24,41.71,4.3)" points="39.198 1.806 44.239 1.787 44.221 6.796 39.18 6.814" fill="#396eff"/>
<polygon transform="rotate(-51,5.481,5.22)" points="2.455 2.187 8.478 2.216 8.508 8.252 2.484 8.223" fill="#88a1ff"/>
<polygon transform="rotate(45,2.142,15.121)" points="0.642 13.621 3.657 13.606 3.642 16.621 0.627 16.636" fill="#ff8100" fill-opacity=".8"/>
<polygon transform="rotate(23,11.452,22.656)" points="10.949 22.157 11.957 22.153 11.954 23.155 10.946 23.158" fill="#7dac00" opacity=".5"/>
<polygon transform="rotate(45,11.884,18.06)" points="10.882 17.563 12.892 17.553 12.887 18.558 10.877 18.568" fill="#ff00fe"/>
<polygon points="8.559 15.155 8.673 15.809 8.079 15.5 7.486 15.809 7.599 15.155 7.119 14.691 7.782 14.595 8.079 14 8.376 14.595 9.04 14.691" fill="#fe002e"/>
<polygon transform="rotate(-37,18.525,6.326)" points="19.005 6.578 19.121 7.235 18.528 6.922 17.938 7.229 18.048 6.573 17.568 6.106 18.228 6.013 18.521 5.417 18.82 6.016 19.482 6.115" fill="#fe002e"/>
<polygon transform="rotate(-37,20.544,15.326)" points="21.025 15.578 21.141 16.235 20.548 15.922 19.958 16.229 20.068 15.573 19.587 15.106 20.248 15.013 20.541 14.417 20.84 15.016 21.501 15.115" fill="#fe9d0b"/>
<polygon transform="rotate(-37,28.292,4.387)" points="29.013 4.765 29.187 5.751 28.298 5.281 27.413 5.742 27.577 4.758 26.856 4.057 27.848 3.918 28.287 3.023 28.735 3.922 29.727 4.07" fill="#fe9d0b"/>
<polygon transform="rotate(-37,22.29,22.462)" points="22.531 22.587 22.589 22.916 22.292 22.76 21.997 22.913 22.052 22.585 21.812 22.351 22.142 22.305 22.289 22.007 22.438 22.307 22.769 22.356" fill="#fe9d0b"/>
<polygon transform="rotate(45,39.152,11.768)" points="38.154 10.265 40.164 10.255 40.149 13.27 38.139 13.28" fill="#88a1ff" opacity=".8"/>
<polygon transform="rotate(-18,13.018,6.581)" points="11.5 5.075 14.527 5.084 14.536 8.087 11.509 8.078" fill="#00c894"/>
<polygon transform="rotate(7,16.421,15.26)" points="15.413 14.261 17.432 14.259 17.43 16.259 15.41 16.261" fill="#eb5959"/>
</g>
</g>
</svg>
