<svg width="64" height="64" version="1.1" viewBox="0 0 64 64" xmlns="http://www.w3.org/2000/svg" xmlns:xlink="http://www.w3.org/1999/xlink">
<defs>
<filter id="folder-documents-stack-64px-a" x="-14.3%" y="-16.7%" width="128.6%" height="133.3%">
<feOffset dy="1" in="SourceAlpha" result="shadowOffsetOuter1"/>
<feGaussianBlur in="shadowOffsetOuter1" result="shadowBlurOuter1" stdDeviation="1.5"/>
<feComposite in="shadowBlurOuter1" in2="SourceAlpha" operator="out" result="shadowBlurOuter1"/>
<feColorMatrix in="shadowBlurOuter1" result="shadowMatrixOuter1" values="0 0 0 0 0   0 0 0 0 0   0 0 0 0 0  0 0 0 0.2 0"/>
<feMerge>
<feMergeNode in="shadowMatrixOuter1"/>
<feMergeNode in="SourceGraphic"/>
</feMerge>
</filter>
<linearGradient id="folder-documents-stack-64px-l" x1="15.532" x2="15.532" y1=".90139" y2="29.746" gradientTransform="scale(.90139 1.1094)" gradientUnits="userSpaceOnUse">
<stop stop-color="#FFF" offset="0"/>
<stop stop-color="#FFE3C0" offset="1"/>
</linearGradient>
<radialGradient id="folder-documents-stack-64px-m" cx="8.9752" cy="8.0631" r="11.225" gradientTransform="matrix(1.2472 0 0 .80178 16 31)" gradientUnits="userSpaceOnUse">
<stop stop-color="#FA9361" offset="0"/>
<stop stop-color="#5F1CF7" offset="1"/>
</radialGradient>
<linearGradient id="folder-documents-stack-64px-n" x1="3.2623" x2="3.2623" y1="7.7618" y2="12.376" gradientTransform="matrix(1.456 0 0 .68679 16 31)" gradientUnits="userSpaceOnUse">
<stop stop-color="#0E3BAC" offset="0"/>
<stop stop-color="#1A0570" offset="1"/>
</linearGradient>
<filter id="folder-documents-stack-64px-o" x="-100%" y="-9.4%" width="300%" height="118.8%">
<feGaussianBlur in="SourceGraphic" stdDeviation="1"/>
</filter>
<linearGradient id="folder-documents-stack-64px-p" x1="4.5415" x2="4.5415" y1="1.6514" y2="10.734" gradientTransform="scale(.33029 3.0277)" gradientUnits="userSpaceOnUse">
<stop stop-color="#242424" offset="0"/>
<stop offset="1"/>
</linearGradient>
<linearGradient id="folder-documents-stack-64px-q" x1="2.6401" x2="2.6186" y1="3.3305" y2="4.103" gradientTransform="scale(.19069 5.244)" gradientUnits="userSpaceOnUse">
<stop stop-color="#463417" offset="0"/>
<stop stop-color="#281212" offset="1"/>
</linearGradient>
<linearGradient id="folder-documents-stack-64px-r" x1="13.11" x2="13.11" y1=".95346" y2="6.1975" gradientTransform="scale(.19069 5.244)" gradientUnits="userSpaceOnUse">
<stop stop-color="#080808" offset="0"/>
<stop stop-color="#481D1D" offset="1"/>
</linearGradient>
<linearGradient id="folder-documents-stack-64px-s" x1="1.6404" x2="2.1407" y1=".61386" y2=".61386" gradientTransform="scale(.7746 1.291)" gradientUnits="userSpaceOnUse">
<stop stop-color="#6A6A6A" offset="0"/>
<stop stop-color="#0A0A0A" offset="1"/>
</linearGradient>
<linearGradient id="linearGradient891" x1="25.923" x2="25.923" y1="-3.0699e-14" y2="19.685" gradientTransform="matrix(1.0801 0 0 .92582 4 11)" gradientUnits="userSpaceOnUse">
<stop stop-color="#d9630f" offset="0"/>
<stop stop-color="#c70000" offset="1"/>
</linearGradient>
<filter id="folder-64px-a" x="-.143" y="-.167" width="1.286" height="1.333">
<feOffset dy="1" in="SourceAlpha" result="shadowOffsetOuter1"/>
<feGaussianBlur in="shadowOffsetOuter1" result="shadowBlurOuter1" stdDeviation="1.5"/>
<feComposite in="shadowBlurOuter1" in2="SourceAlpha" operator="out" result="shadowBlurOuter1"/>
<feColorMatrix in="shadowBlurOuter1" result="shadowMatrixOuter1" values="0 0 0 0 0   0 0 0 0 0   0 0 0 0 0  0 0 0 0.2 0"/>
<feMerge>
<feMergeNode in="shadowMatrixOuter1"/>
<feMergeNode in="SourceGraphic"/>
</feMerge>
</filter>
<filter id="filter920" x="-.05066" y="-.1244" width="1.1013" height="1.2488" color-interpolation-filters="sRGB">
<feGaussianBlur stdDeviation="1.075575"/>
</filter>
<linearGradient id="linearGradient893" x1="17.868" x2="17.868" y1="14.103" y2="17.939" gradientTransform="matrix(1.5671 0 0 .63814 4 11)" gradientUnits="userSpaceOnUse">
<stop stop-color="#FFF" offset="0"/>
<stop stop-color="#ffedce" offset="1"/>
</linearGradient>
<radialGradient id="radialGradient895" cx="22.45" cy=".62361" r="52.808" gradientTransform="matrix(1.2472 0 0 .80178 4 22.5)" gradientUnits="userSpaceOnUse">
<stop stop-color="#ffb754" offset="0"/>
<stop stop-color="#ff7248" offset="1"/>
</radialGradient>
</defs>
<path d="m35.279 14c0.7642 1.8177 2.5438 3 4.5156 3h13.205c3.866 0 7 3.134 7 7v28c0 3.866-3.134 7-7 7h-42c-3.866 0-7-3.134-7-7v-34c0-3.866 3.134-7 7-7h19.764c1.9718 0 3.7514 1.1823 4.5156 3z" fill="url(#linearGradient891)" fill-rule="evenodd" filter="url(#folder-64px-a)"/>
<rect x="6.523" y="20" width="50.955" height="20.75" rx="4.5254" ry="4.5254" fill-opacity=".2" fill-rule="evenodd" filter="url(#filter920)" style="paint-order:stroke fill markers"/>
<rect x="6.523" y="20" width="50.955" height="20.75" rx="4.5" ry="4.5" fill="url(#linearGradient893)" fill-rule="evenodd" filter="url(#folder-64px-a)"/>
<path d="m11.049 20c-2.5071 0-4.5254 2.0183-4.5254 4.5254v1c0-2.5071 2.0183-4.5254 4.5254-4.5254h41.904c2.5071 0 4.5254 2.0183 4.5254 4.5254v-1c0-2.5071-2.0183-4.5254-4.5254-4.5254z" fill-rule="evenodd" opacity=".5" style="paint-order:stroke fill markers"/>
<path d="m4 23h56v29c0 3.866-3.134 7-7 7h-42c-3.866 0-7-3.134-7-7z" fill="url(#radialGradient895)" fill-rule="evenodd" filter="url(#folder-64px-a)"/>
<polygon transform="translate(13,27)" points="27.976 32 0 32 0.014 0 28 0" fill="#1d1d1d" fill-opacity=".1" fill-rule="evenodd" filter="url(#folder-documents-stack-64px-a)"/>
<polygon transform="translate(13,27)" points="26.977 33 1 33 1.013 1 27 1" fill="url(#folder-documents-stack-64px-l)" fill-rule="evenodd" filter="url(#folder-documents-stack-64px-a)"/>
<path d="m16.25 31.25v8.5h13.5v-8.5z" fill="url(#folder-documents-stack-64px-m)" fill-rule="evenodd" filter="url(#folder-documents-stack-64px-a)" stroke="#000" stroke-opacity=".1" stroke-width=".5"/>
<circle cx="27" cy="37" r="1" fill="#ff5151" fill-rule="evenodd" filter="url(#folder-documents-stack-64px-a)"/>
<path d="m16.5 39.5h8.5l-1.9635-2.54c-0.16889-0.21847-0.48291-0.25867-0.70138-0.08978-0.0047 0.0036-0.0093 0.0073-0.01382 0.01108l-0.91163 0.7578c-0.21236 0.17652-0.5276 0.14747-0.70412-0.06488-0.01999-0.02405-0.03768-0.04992-0.05284-0.07727l-0.96895-1.7485c-0.13385-0.24154-0.43816-0.32884-0.67969-0.19499-0.07522 0.04168-0.13842 0.10206-0.18349 0.17531z" fill="url(#folder-documents-stack-64px-n)" fill-rule="evenodd" filter="url(#folder-documents-stack-64px-a)"/>
<path d="m31 31h7v1h-7zm0 2h7v1h-7zm0 2h7v1h-7zm0 2h7v1h-7zm0 2h7v1h-7zm-15 2h22v1h-22zm0 2h22v1h-22zm0 2h22v1h-22zm0 2h22v1h-22zm0 2h22v1h-22zm0 2h14v1h-14zm0 4h22v1h-22z" fill-opacity=".5" fill-rule="evenodd" filter="url(#folder-documents-stack-64px-a)"/>
<polygon transform="translate(46,27.5)" points="4 5.156 4 32 1 32 1 5.156 2.5 0" fill="#7b3400" fill-opacity=".3" fill-rule="evenodd" filter="url(#folder-documents-stack-64px-o)"/>
<polygon transform="translate(46,27.5)" points="0 5 3 5 3 32.5 0 32.5" fill="url(#folder-documents-stack-64px-p)" fill-rule="evenodd" filter="url(#folder-documents-stack-64px-a)"/>
<polygon transform="translate(46,27.5)" points="0 5 1 5 1 32.5 0 32.5" fill="url(#folder-documents-stack-64px-q)" fill-rule="evenodd" filter="url(#folder-documents-stack-64px-a)"/>
<polygon transform="translate(46,27.5)" points="2 5 3 5 3 32.5 2 32.5" fill="url(#folder-documents-stack-64px-r)" fill-rule="evenodd" filter="url(#folder-documents-stack-64px-a)"/>
<polygon transform="translate(46,27.5)" points="1.5 0 3 5 0 5" fill="#ffdcac" fill-rule="evenodd" filter="url(#folder-documents-stack-64px-a)"/>
<polygon transform="translate(46,27.5)" points="1.5 0 2 5 1 5" fill="#d8915b" fill-rule="evenodd" filter="url(#folder-documents-stack-64px-a)"/>
<polygon transform="translate(46,27.5)" points="1.5 0 3 5 2 5" fill="#965600" fill-rule="evenodd" filter="url(#folder-documents-stack-64px-a)"/>
<polygon transform="translate(46,27.5)" points="1.8 1 1.2 1 1.5 0" fill="url(#folder-documents-stack-64px-s)" fill-rule="evenodd" filter="url(#folder-documents-stack-64px-a)"/>
</svg>
