<svg width="64" height="64" version="1.1" viewBox="0 0 64 64" xmlns="http://www.w3.org/2000/svg" xmlns:xlink="http://www.w3.org/1999/xlink">
<defs>
<filter id="folder-music-stack-64px-a" x="-14.3%" y="-16.7%" width="128.6%" height="133.3%">
<feOffset dy="1" in="SourceAlpha" result="shadowOffsetOuter1"/>
<feGaussianBlur in="shadowOffsetOuter1" result="shadowBlurOuter1" stdDeviation="1.5"/>
<feComposite in="shadowBlurOuter1" in2="SourceAlpha" operator="out" result="shadowBlurOuter1"/>
<feColorMatrix in="shadowBlurOuter1" result="shadowMatrixOuter1" values="0 0 0 0 0   0 0 0 0 0   0 0 0 0 0  0 0 0 0.2 0"/>
<feMerge>
<feMergeNode in="shadowMatrixOuter1"/>
<feMergeNode in="SourceGraphic"/>
</feMerge>
</filter>
<linearGradient id="folder-music-stack-64px-n" x1="17" x2="17" y1="-1" y2="34.199" gradientTransform="translate(15,31)" gradientUnits="userSpaceOnUse">
<stop stop-color="#343434" offset="0"/>
<stop stop-color="#240B0B" offset="1"/>
</linearGradient>
<linearGradient id="folder-music-stack-64px-o" x1="50%" x2="50%" y2="100%">
<stop stop-color="#151515" offset="0"/>
<stop offset="1"/>
</linearGradient>
<circle id="folder-music-stack-64px-l" cx="17" cy="17" r="17"/>
<filter id="folder-music-stack-64px-m" x="-19.1%" y="-13.2%" width="138.2%" height="138.2%">
<feMorphology in="SourceAlpha" operator="dilate" radius="1" result="shadowSpreadOuter1"/>
<feOffset dy="2" in="shadowSpreadOuter1" result="shadowOffsetOuter1"/>
<feGaussianBlur in="shadowOffsetOuter1" result="shadowBlurOuter1" stdDeviation="1.5"/>
<feComposite in="shadowBlurOuter1" in2="SourceAlpha" operator="out" result="shadowBlurOuter1"/>
<feColorMatrix in="shadowBlurOuter1" values="0 0 0 0 0   0 0 0 0 0   0 0 0 0 0  0 0 0 0.5 0"/>
</filter>
<filter id="folder-music-stack-64px-q" x="-52.9%" y="-18.6%" width="205.9%" height="137.2%">
<feGaussianBlur in="SourceGraphic" stdDeviation="2"/>
</filter>
<filter id="folder-music-stack-64px-r" x="-52.9%" y="-18.6%" width="205.9%" height="137.2%">
<feGaussianBlur in="SourceGraphic" stdDeviation="2"/>
</filter>
<linearGradient id="folder-music-stack-64px-s" x1="17" x2="17" y1="9.5" y2="24.5" gradientUnits="userSpaceOnUse">
<stop stop-color="#E91F95" offset="0"/>
<stop stop-color="#930DCE" offset="1"/>
</linearGradient>
<linearGradient id="linearGradient891" x1="25.923" x2="26.425" y1="-3.0699e-14" y2="50.793" gradientTransform="matrix(1.0801 0 0 .92582 4 11)" gradientUnits="userSpaceOnUse">
<stop stop-color="#c80017" offset="0"/>
<stop stop-color="#b105ff" offset="1"/>
</linearGradient>
<filter id="folder-64px-a" x="-.143" y="-.167" width="1.286" height="1.333">
<feOffset dy="1" in="SourceAlpha" result="shadowOffsetOuter1"/>
<feGaussianBlur in="shadowOffsetOuter1" result="shadowBlurOuter1" stdDeviation="1.5"/>
<feComposite in="shadowBlurOuter1" in2="SourceAlpha" operator="out" result="shadowBlurOuter1"/>
<feColorMatrix in="shadowBlurOuter1" result="shadowMatrixOuter1" values="0 0 0 0 0   0 0 0 0 0   0 0 0 0 0  0 0 0 0.2 0"/>
<feMerge>
<feMergeNode in="shadowMatrixOuter1"/>
<feMergeNode in="SourceGraphic"/>
</feMerge>
</filter>
<filter id="filter920" x="-.05066" y="-.1244" width="1.1013" height="1.2488" color-interpolation-filters="sRGB">
<feGaussianBlur stdDeviation="1.075575"/>
</filter>
<linearGradient id="linearGradient893" x1="17.868" x2="17.868" y1="14.103" y2="17.939" gradientTransform="matrix(1.5671 0 0 .63814 4 11)" gradientUnits="userSpaceOnUse">
<stop stop-color="#FFF" offset="0"/>
<stop stop-color="#CEF5FF" offset="1"/>
</linearGradient>
<radialGradient id="radialGradient895" cx="22.45" cy=".62361" r="52.808" gradientTransform="matrix(1.2472 0 0 .80178 4 22.5)" gradientUnits="userSpaceOnUse">
<stop stop-color="#f87136" offset="0"/>
<stop stop-color="#d22e18" offset="1"/>
</radialGradient>
<linearGradient id="linearGradient1048" x1="17" x2="17" y1="-1" y2="35" gradientTransform="translate(15,31)" gradientUnits="userSpaceOnUse" xlink:href="#folder-music-stack-64px-o"/>
<linearGradient id="linearGradient1050" x1="17" x2="17" y1="1" y2="33" gradientUnits="userSpaceOnUse" xlink:href="#folder-music-stack-64px-o"/>
<linearGradient id="linearGradient1052" x1="17" x2="17" y1="3" y2="31" gradientUnits="userSpaceOnUse" xlink:href="#folder-music-stack-64px-o"/>
<linearGradient id="linearGradient1054" x1="17" x2="17" y1="5" y2="29" gradientUnits="userSpaceOnUse" xlink:href="#folder-music-stack-64px-o"/>
<linearGradient id="linearGradient1056" x1="17" x2="17" y1="7" y2="27" gradientUnits="userSpaceOnUse" xlink:href="#folder-music-stack-64px-o"/>
<mask id="folder-music-stack-64px-p" fill="#fff">
<use width="100%" height="100%" xlink:href="#folder-music-stack-64px-l"/>
</mask>
</defs>
<g fill-rule="evenodd">
<path d="m35.279 14c0.7642 1.8177 2.5438 3 4.5156 3h13.205c3.866 0 7 3.134 7 7v28c0 3.866-3.134 7-7 7h-42c-3.866 0-7-3.134-7-7v-34c0-3.866 3.134-7 7-7h19.764c1.9718 0 3.7514 1.1823 4.5156 3z" fill="url(#linearGradient891)" filter="url(#folder-64px-a)"/>
<rect x="6.523" y="20" width="50.955" height="20.75" rx="4.5254" ry="4.5254" fill-opacity=".2" filter="url(#filter920)" style="paint-order:stroke fill markers"/>
<rect x="6.523" y="20" width="50.955" height="20.75" rx="4.5" ry="4.5" fill="url(#linearGradient893)" filter="url(#folder-64px-a)"/>
<path d="m11.049 20c-2.5071 0-4.5254 2.0183-4.5254 4.5254v1c0-2.5071 2.0183-4.5254 4.5254-4.5254h41.904c2.5071 0 4.5254 2.0183 4.5254 4.5254v-1c0-2.5071-2.0183-4.5254-4.5254-4.5254z" opacity=".5" style="paint-order:stroke fill markers"/>
<path d="m4 23h56v29c0 3.866-3.134 7-7 7h-42c-3.866 0-7-3.134-7-7z" fill="url(#radialGradient895)" filter="url(#folder-64px-a)"/>
</g>
<use transform="translate(15,31)" width="100%" height="100%" fill="#000000" fill-rule="evenodd" filter="url(#folder-music-stack-64px-m)" xlink:href="#folder-music-stack-64px-l"/>
<circle cx="32" cy="48" r="17.5" fill="url(#folder-music-stack-64px-n)" fill-rule="evenodd" filter="url(#folder-music-stack-64px-a)" stroke="url(#linearGradient1048)"/>
<path transform="rotate(120 15 35.187)" d="m17.738 15.434 5.6667 16.133h-11.333z" fill="#fff" fill-rule="evenodd" filter="url(#folder-music-stack-64px-q)"/>
<path transform="rotate(120 15 35.187)" d="m17.738 15.434-5.6667-16.133h11.333z" fill="#fff" fill-rule="evenodd" filter="url(#folder-music-stack-64px-q)"/>
<path transform="rotate(45 -14.389 47.126)" d="m17.738 15.434 5.6667 16.133h-11.333z" fill="#fff" fill-rule="evenodd" filter="url(#folder-music-stack-64px-r)"/>
<path transform="rotate(45 -14.389 47.126)" d="m17.738 15.434-5.6667-16.133h11.333z" fill="#fff" fill-rule="evenodd" filter="url(#folder-music-stack-64px-r)"/>
<circle transform="translate(15,31)" cx="17" cy="17" r="15.5" fill="none" filter="url(#folder-music-stack-64px-a)" mask="url(#folder-music-stack-64px-p)" stroke="url(#linearGradient1050)"/>
<circle transform="translate(15,31)" cx="17" cy="17" r="13.5" fill="none" filter="url(#folder-music-stack-64px-a)" mask="url(#folder-music-stack-64px-p)" stroke="url(#linearGradient1052)"/>
<circle transform="translate(15,31)" cx="17" cy="17" r="11.5" fill="none" filter="url(#folder-music-stack-64px-a)" mask="url(#folder-music-stack-64px-p)" stroke="url(#linearGradient1054)"/>
<circle transform="translate(15,31)" cx="17" cy="17" r="9.5" fill="none" filter="url(#folder-music-stack-64px-a)" mask="url(#folder-music-stack-64px-p)" stroke="url(#linearGradient1056)"/>
<circle transform="translate(15,31)" cx="17" cy="17" r="7" fill="url(#folder-music-stack-64px-s)" fill-rule="evenodd" filter="url(#folder-music-stack-64px-a)" mask="url(#folder-music-stack-64px-p)" stroke="#1a1a1a"/>
<polygon transform="translate(15,31)" points="15 20 15 14 20 17" fill="#fff" fill-rule="evenodd" filter="url(#folder-music-stack-64px-a)" mask="url(#folder-music-stack-64px-p)"/>
</svg>
