<svg width="64" height="64" version="1.1" viewBox="0 0 64 64" xmlns="http://www.w3.org/2000/svg" xmlns:xlink="http://www.w3.org/1999/xlink">
<defs>
<filter id="folder-64px-a" x="-14.3%" y="-16.7%" width="128.6%" height="133.3%">
<feOffset dy="1" in="SourceAlpha" result="shadowOffsetOuter1"/>
<feGaussianBlur in="shadowOffsetOuter1" result="shadowBlurOuter1" stdDeviation="1.5"/>
<feComposite in="shadowBlurOuter1" in2="SourceAlpha" operator="out" result="shadowBlurOuter1"/>
<feColorMatrix in="shadowBlurOuter1" result="shadowMatrixOuter1" values="0 0 0 0 0   0 0 0 0 0   0 0 0 0 0  0 0 0 0.2 0"/>
<feMerge>
<feMergeNode in="shadowMatrixOuter1"/>
<feMergeNode in="SourceGraphic"/>
</feMerge>
</filter>
<path id="folder-64px-b" d="m31.279 3c0.7642 1.8177 2.5438 3 4.5156 3h13.205c3.866 0 7 3.134 7 7v28c0 3.866-3.134 7-7 7h-42c-3.866 0-7-3.134-7-7l-2.6645e-15 -34c-4.7345e-16 -3.866 3.134-7 7-7l19.764 1.1546e-14c1.9718-3.6222e-16 3.7514 1.1823 4.5156 3z"/>
<rect id="folder-64px-f" x="2.523" y="9" width="50.955" height="20.75" rx="4.5"/>
<linearGradient id="linearGradient891" x1="25.923" x2="25.923" y1="-3.0699e-14" y2="19.685" gradientTransform="scale(1.0801 .92582)" gradientUnits="userSpaceOnUse">
<stop stop-color="#9c3" offset="0"/>
<stop stop-color="#28851e" offset="1"/>
</linearGradient>
<radialGradient id="radialGradient895" cx="22.45" cy=".62361" r="52.808" gradientTransform="matrix(1.2472 0 0 .80178 4 22.5)" gradientUnits="userSpaceOnUse">
<stop stop-color="#ccff42" offset="0"/>
<stop stop-color="#50a100" offset="1"/>
</radialGradient>
<filter id="filter920" x="-.05066" y="-.1244" width="1.1013" height="1.2488" color-interpolation-filters="sRGB">
<feGaussianBlur stdDeviation="1.075575"/>
</filter>
<linearGradient id="linearGradient982" x1="17.868" x2="17.868" y1="14.103" y2="17.939" gradientTransform="scale(1.5671 .63814)" gradientUnits="userSpaceOnUse">
<stop stop-color="#FFF" offset="0"/>
<stop stop-color="#CEF5FF" offset="1"/>
</linearGradient>
</defs>
<use transform="translate(4,11)" width="100%" height="100%" fill="url(#linearGradient891)" fill-rule="evenodd" filter="url(#folder-64px-a)" xlink:href="#folder-64px-b"/>
<g fill-rule="evenodd">
<rect x="6.523" y="20" width="50.955" height="20.75" rx="4.5254" ry="4.5254" fill-opacity=".2" filter="url(#filter920)" style="paint-order:stroke fill markers"/>
<use transform="translate(4,11)" width="100%" height="100%" fill="url(#linearGradient982)" filter="url(#folder-64px-a)" xlink:href="#folder-64px-f"/>
<path d="m11.049 20c-2.5071 0-4.5254 2.0183-4.5254 4.5254v1c0-2.5071 2.0183-4.5254 4.5254-4.5254h41.904c2.5071 0 4.5254 2.0183 4.5254 4.5254v-1c0-2.5071-2.0183-4.5254-4.5254-4.5254z" opacity=".5" style="paint-order:stroke fill markers"/>
</g>
<path d="m4 23h56v29c0 3.866-3.134 7-7 7h-42c-3.866 0-7-3.134-7-7z" fill="url(#radialGradient895)" fill-rule="evenodd" filter="url(#folder-64px-a)"/>
<path d="m42.355 37.966c0 5.7371-4.6518 10.389-10.389 10.389s-10.389-4.6518-10.389-10.389 4.6518-10.389 10.389-10.389 10.389 4.6518 10.389 10.389z" fill="none" stroke="#fff" stroke-linecap="round" stroke-linejoin="round"/>
<path d="m42.019 40.594c-12.253 2.2513-17.753-5.5257-19.073-7.7892" fill="none" stroke="#fff" stroke-linecap="round" stroke-linejoin="round"/>
<path d="m37.664 28.768a0.50005 0.50005 0 0 0-0.13476 0.01563c-5.8166 1.421-9.4143 4.4178-11.594 7.3945s-2.9542 5.9217-3.2148 7.2871a0.50008 0.50008 0 1 0 0.98242 0.1875c0.24168-1.266 0.97913-4.0713 3.0391-6.8848 2.0599-2.8135 5.4298-5.6447 11.025-7.0117a0.50005 0.50005 0 0 0-0.10352-0.98828z" color="#000000" color-rendering="auto" dominant-baseline="auto" fill="#fff" image-rendering="auto" shape-rendering="auto" solid-color="#000000" style="font-feature-settings:normal;font-variant-alternates:normal;font-variant-caps:normal;font-variant-ligatures:normal;font-variant-numeric:normal;font-variant-position:normal;isolation:auto;mix-blend-mode:normal;shape-padding:0;text-decoration-color:#000000;text-decoration-line:none;text-decoration-style:solid;text-indent:0;text-orientation:mixed;text-transform:none;white-space:normal"/>
<path d="m37.544 46.73c0.96311-11.881-7.2551-17.032-9.7093-18.297" fill="none" stroke="#fff" stroke-linecap="round" stroke-linejoin="round"/>
<path d="m37.266 40.991s-5.4707 2.8502-8.4639 6.8701" fill="none" stroke="#fff" stroke-linecap="round" stroke-linejoin="round"/>
<g fill="#fff" fill-rule="evenodd">
<path d="m33.775 31.476c0 1.012-0.82133 1.8333-1.8333 1.8333-1.012 0-1.8333-0.82133-1.8333-1.8333s0.82133-1.8333 1.8333-1.8333c1.012 0 1.8333 0.82133 1.8333 1.8333"/>
<path d="m28.081 36.601c0 1.012-0.82133 1.8333-1.8333 1.8333s-1.8333-0.82133-1.8333-1.8333c0-1.012 0.82133-1.8333 1.8333-1.8333s1.8333 0.82133 1.8333 1.8333"/>
<path d="m39.099 40.998c0 1.012-0.82133 1.8333-1.8333 1.8333s-1.8333-0.82133-1.8333-1.8333 0.82133-1.8333 1.8333-1.8333 1.8333 0.82133 1.8333 1.8333"/>
</g>
</svg>
