<svg width="64" height="64" version="1.1" viewBox="0 0 64 64" xmlns="http://www.w3.org/2000/svg" xmlns:xlink="http://www.w3.org/1999/xlink">
<defs>
<filter id="folder-home-64px-a" x="-14.3%" y="-16.7%" width="128.6%" height="133.3%">
<feOffset dy="1" in="SourceAlpha" result="shadowOffsetOuter1"/>
<feGaussianBlur in="shadowOffsetOuter1" result="shadowBlurOuter1" stdDeviation="1.5"/>
<feComposite in="shadowBlurOuter1" in2="SourceAlpha" operator="out" result="shadowBlurOuter1"/>
<feColorMatrix in="shadowBlurOuter1" result="shadowMatrixOuter1" values="0 0 0 0 0   0 0 0 0 0   0 0 0 0 0  0 0 0 0.2 0"/>
<feMerge>
<feMergeNode in="shadowMatrixOuter1"/>
<feMergeNode in="SourceGraphic"/>
</feMerge>
</filter>
<linearGradient id="folder-home-64px-l" x1="31.326" x2="31.326" y1="27.581" y2="51.075" gradientTransform="scale(1.0215 .97895)" gradientUnits="userSpaceOnUse">
<stop stop-color="#FFF" offset="0"/>
<stop stop-color="#FFF" stop-opacity=".6" offset="1"/>
</linearGradient>
<path id="folder-home-64px-k" d="m23 40.828v9.172h18v-9.172l-9-8.375-9 8.375zm11 7.172h-4v-6h4v6zm10-9.852-1.361 1.465-10.639-9.883-10.639 9.868-1.361-1.465 12-11.133 12 11.148z"/>
<filter id="folder-home-64px-j" x="-14.6%" y="-10.9%" width="129.2%" height="130.4%">
<feOffset dy="1" in="SourceAlpha" result="shadowOffsetOuter1"/>
<feGaussianBlur in="shadowOffsetOuter1" result="shadowBlurOuter1" stdDeviation="1"/>
<feColorMatrix in="shadowBlurOuter1" values="0 0 0 0 0   0 0 0 0 0.42905776   0 0 0 0 0.968670281  0 0 0 0.5 0"/>
</filter>
<radialGradient id="radialGradient899" cx="22.45" cy=".62361" r="52.808" gradientTransform="matrix(1.2472 0 0 .80178 4 22.5)" gradientUnits="userSpaceOnUse">
<stop stop-color="#ccff42" offset="0"/>
<stop stop-color="#50a100" offset="1"/>
</radialGradient>
<linearGradient id="linearGradient891" x1="25.923" x2="25.923" y1="-3.0699e-14" y2="19.685" gradientTransform="matrix(1.0801 0 0 .92582 4.0003 11)" gradientUnits="userSpaceOnUse">
<stop stop-color="#9c3" offset="0"/>
<stop stop-color="#28851e" offset="1"/>
</linearGradient>
<filter id="folder-64px-a" x="-.143" y="-.167" width="1.286" height="1.333">
<feOffset dy="1" in="SourceAlpha" result="shadowOffsetOuter1"/>
<feGaussianBlur in="shadowOffsetOuter1" result="shadowBlurOuter1" stdDeviation="1.5"/>
<feComposite in="shadowBlurOuter1" in2="SourceAlpha" operator="out" result="shadowBlurOuter1"/>
<feColorMatrix in="shadowBlurOuter1" result="shadowMatrixOuter1" values="0 0 0 0 0   0 0 0 0 0   0 0 0 0 0  0 0 0 0.2 0"/>
<feMerge>
<feMergeNode in="shadowMatrixOuter1"/>
<feMergeNode in="SourceGraphic"/>
</feMerge>
</filter>
<filter id="filter920" x="-.05066" y="-.1244" width="1.1013" height="1.2488" color-interpolation-filters="sRGB">
<feGaussianBlur stdDeviation="1.075575"/>
</filter>
<filter id="folder-64px-a-3" x="-.143" y="-.167" width="1.286" height="1.333">
<feOffset dy="1" in="SourceAlpha" result="shadowOffsetOuter1"/>
<feGaussianBlur in="shadowOffsetOuter1" result="shadowBlurOuter1" stdDeviation="1.5"/>
<feComposite in="shadowBlurOuter1" in2="SourceAlpha" operator="out" result="shadowBlurOuter1"/>
<feColorMatrix in="shadowBlurOuter1" result="shadowMatrixOuter1" values="0 0 0 0 0   0 0 0 0 0   0 0 0 0 0  0 0 0 0.2 0"/>
<feMerge>
<feMergeNode in="shadowMatrixOuter1"/>
<feMergeNode in="SourceGraphic"/>
</feMerge>
</filter>
<linearGradient id="linearGradient941" x1="17.868" x2="17.868" y1="14.103" y2="17.939" gradientTransform="matrix(1.5671 0 0 .63814 -54 11)" gradientUnits="userSpaceOnUse">
<stop stop-color="#FFF" offset="0"/>
<stop stop-color="#CEF5FF" offset="1"/>
</linearGradient>
</defs>
<path d="m35.279 14c0.7642 1.8177 2.5438 3 4.5156 3h13.205c3.866 0 7 3.134 7 7v28c0 3.866-3.134 7-7 7h-42c-3.866 0-7-3.134-7-7v-34c0-3.866 3.134-7 7-7h19.764c1.9718 0 3.7514 1.1823 4.5156 3z" fill="url(#linearGradient891)" fill-rule="evenodd" filter="url(#folder-64px-a)"/>
<g transform="translate(58)" fill-rule="evenodd">
<rect x="-51.477" y="20" width="50.955" height="20.75" rx="4.5254" ry="4.5254" fill-opacity=".2" filter="url(#filter920)" style="paint-order:stroke fill markers"/>
<rect x="-51.477" y="20" width="50.955" height="20.75" rx="4.5" ry="4.5" fill="url(#linearGradient941)" filter="url(#folder-64px-a-3)"/>
<path d="m-46.951 20c-2.5071 0-4.5254 2.0183-4.5254 4.5254v1c0-2.5071 2.0183-4.5254 4.5254-4.5254h41.904c2.5071 0 4.5254 2.0183 4.5254 4.5254v-1c0-2.5071-2.0183-4.5254-4.5254-4.5254z" opacity=".5" style="paint-order:stroke fill markers"/>
</g>
<path d="m4 23h56v29c0 3.866-3.134 7-7 7h-42c-3.866 0-7-3.134-7-7z" fill="url(#radialGradient899)" fill-rule="evenodd" filter="url(#folder-home-64px-a)"/>
<use width="100%" height="100%" fill="#000000" fill-rule="evenodd" filter="url(#folder-home-64px-j)" xlink:href="#folder-home-64px-k"/>
<use width="100%" height="100%" fill="url(#folder-home-64px-l)" fill-rule="evenodd" xlink:href="#folder-home-64px-k"/>
</svg>
