<svg width="24" height="24" version="1.1" xmlns="http://www.w3.org/2000/svg">
<defs>
<style id="current-color-scheme" type="text/css">.ColorScheme-Text { color:#dfdfdf; } .ColorScheme-Highlight { color:#4285f4; }</style>
</defs>
<g transform="translate(.074218 -.058658)" fill="#dfdfdf" fill-rule="evenodd">
<path d="m11.926 5.0587c-3.878 0-7 3.122-7 7s3.122 7 7 7c0.34078 0 0.6725-0.03151 1-0.07813v-1.709l-1.2168 0.83398c-0.33183 0.22714-0.7832-0.01194-0.7832-0.41406v-4.6992l-2.9805 1.8984c-0.20708 0.13179-0.47578 0.09202-0.63672-0.08203l-0.054688-0.07031c-0.13179-0.20708-0.092019-0.47382 0.082031-0.63477l0.072266-0.05664 3.0898-1.9668-3.0898-1.9668c-0.23298-0.14825-0.30255-0.45648-0.1543-0.68945s0.45844-0.30255 0.69141-0.1543l2.9805 1.8984v-4.6992c0-0.28005 0.21812-0.47899 0.46289-0.49805 0.08159-0.00635 0.1658 0.00725 0.24609 0.044922l0.07422 0.041016 4.25 2.9102c0.26912 0.1842 0.28681 0.56317 0.06055 0.77539l-0.07422 0.058594-3.5859 2.2793 1.9902 1.2656c0.48424-0.76784 1.3345-1.2871 2.3008-1.2871h0.55078c0.64153 0 1.2275 0.2359 1.6953 0.61328 0.01749-0.20267 0.0293-0.40592 0.0293-0.61328 0-3.878-3.122-7-7-7zm0 2.3594v3.7539l2.8418-1.8086zm0 5.5723v3.7539l1.2383-0.84766c0.1833-0.26355 0.45002-0.47272 0.76172-0.60742v-0.50586c0-0.16721 0.02126-0.32898 0.05078-0.48828l-2.0508-1.3047z" style="paint-order:stroke fill markers"/>
<path d="m15.926 14.784c0-0.399 0.325-0.725 0.725-0.725h0.55c0.4 0 0.725 0.326 0.725 0.725v1.275h-2zm3.451 1.275h-0.451v-1.275c0-0.951-0.773-1.725-1.725-1.725h-0.55c-0.952 0-1.725 0.774-1.725 1.725v1.275h-0.451c-0.303 0-0.549 0.246-0.549 0.55v2.901c0 0.304 0.246 0.549 0.549 0.549h4.902c0.303 0 0.549-0.245 0.549-0.549v-2.901c0-0.304-0.246-0.55-0.549-0.55z"/>
</g>
</svg>
