<svg width="24" height="24" version="1.1" xmlns="http://www.w3.org/2000/svg">
<defs>
<style id="current-color-scheme" type="text/css">.ColorScheme-Text { color:#dfdfdf; } .ColorScheme-Highlight { color:#4285f4; }</style>
</defs>
<g fill="#dfdfdf" fill-rule="evenodd">
<path d="m7 4c-1.108 0-2 0.892-2 2v12c0 1.108 0.892 2 2 2h10c1.108 0 2-0.892 2-2v-12c0-1.108-0.892-2-2-2zm1 11h8c0.554 0 1 0.446 1 1v1c0 0.554-0.446 1-1 1h-8c-0.554 0-1-0.446-1-1v-1c0-0.554 0.446-1 1-1z" style="paint-order:stroke fill markers"/>
<rect x="8" y="16" width="8" height="1" rx=".52817" ry="1" style="paint-order:stroke fill markers"/>
</g>
</svg>
