<svg width="24" height="24" version="1.1" xmlns="http://www.w3.org/2000/svg">
<defs>
<style id="current-color-scheme" type="text/css">.ColorScheme-Text { color:#dfdfdf; } .ColorScheme-Highlight { color:#4285f4; }</style>
</defs>
<path d="m8.4996 8.0007c-2.4853 0-4.5 2.0147-4.5 4.5s2.0147 4.5 4.5 4.5c1.9047-3e-3 3.6014-1.2042 4.2363-3l3.2637-0.0039v2h3v-2.0039l1 0.0039v-3l-7.2637 0.0039c-0.6349-1.7958-2.3316-2.9973-4.2363-3zm0 3c0.82843 0 1.5 0.67157 1.5 1.5s-0.67157 1.5-1.5 1.5-1.5-0.67157-1.5-1.5 0.67157-1.5 1.5-1.5z" fill="#dfdfdf" opacity=".3"/>
<path d="m20 18a1 1 0 0 1-1 1 1 1 0 0 1-1-1 1 1 0 0 1 1-1 1 1 0 0 1 1 1zm-3 0a1 1 0 0 1-1 1 1 1 0 0 1-1-1 1 1 0 0 1 1-1 1 1 0 0 1 1 1zm-3 0a1 1 0 0 1-1 1 1 1 0 0 1-1-1 1 1 0 0 1 1-1 1 1 0 0 1 1 1z" fill="#dfdfdf"/>
</svg>
