<svg width="16" height="16" version="1.1" xmlns="http://www.w3.org/2000/svg">
<defs>
<style id="current-color-scheme" type="text/css">.ColorScheme-Text { color:#444444; } .ColorScheme-Highlight { color:#4285f4; }</style>
</defs>
<path class="ColorScheme-Text" d="m8 1c-3.3137 0-6 2.6863-6 6 0 2.087 1.0708 3.9251 2.6875 5h-0.6875c-2 0-2 2-2 2v1h12v-1s0-2-2-2h-0.6875c1.6167-1.0749 2.6875-2.913 2.6875-5 0-3.3137-2.6863-6-6-6zm0 4.0039a2 2 0 0 1 2 2 2 2 0 0 1-2 2 2 2 0 0 1-2-2 2 2 0 0 1 2-2z" fill="#808080"/>
</svg>
