<svg width="16" height="16" version="1.1" xmlns="http://www.w3.org/2000/svg">
<defs>
<style id="current-color-scheme" type="text/css">.ColorScheme-Text { color:#444444; } .ColorScheme-Highlight { color:#4285f4; }</style>
</defs>
<path class="ColorScheme-Text" d="m2.8008 4c-0.4432 0-0.8008 0.3576-0.8008 0.8008v3.1992h1v1h-1v3.199c0 0.443 0.3576 0.801 0.8008 0.801h11.398c0.443 0 0.801-0.358 0.801-0.801v-3.199h-1v-1h1v-3.1992c0-0.4432-0.358-0.8008-0.801-0.8008h-11.398zm2.1992 3h1v1h-1v-1zm2 0h1v1h-1v-1zm2 0h1v1h-1v-1zm2 0h1v1h-1v-1zm-5 2h1v1h-1v-1zm2 0h1v1h-1v-1zm2 0h1v1h-1v-1z" fill="#666" opacity=".3"/>
<path class="ColorScheme-Text" d="m4.6484 6c-0.3556 0-0.7009 0.2835-0.6425 0.625l0.6425 3.75c0.0585 0.342 0.2869 0.625 0.6426 0.625h6.42c0.355 0 0.582-0.283 0.641-0.625l0.64-3.75c0.059-0.3415-0.285-0.625-0.64-0.625zm-2.8984 1c-0.4155 0-0.75 0.3345-0.75 0.75v1.5c0 0.4155 0.3345 0.75 0.75 0.75h1.5c0.4155 0 0.75-0.3345 0.75-0.75v-1.5c0-0.4155-0.3345-0.75-0.75-0.75zm3.25 0h1v1h-1zm2 0h1v1h-1zm2 0h1v1h-1zm2 0h1v1h-1zm2.75 0c-0.415 0-0.75 0.3345-0.75 0.75v1.5c0 0.4155 0.335 0.75 0.75 0.75h1.5c0.415 0 0.75-0.3345 0.75-0.75v-1.5c0-0.4155-0.335-0.75-0.75-0.75zm-11.75 1h1v1h-1zm12 0h1v1h-1zm-8 1h1v1h-1zm2 0h1v1h-1zm2 0h1v1h-1z" fill="#666"/>
</svg>
