<svg width="16px" height="16px" version="1.1" viewBox="0 0 16 16" xmlns="http://www.w3.org/2000/svg">
<title>disk-normal-16px</title>
<desc>Created with Sketch.</desc>
<rect width="16" height="16" opacity="0"/>
<path d="m5 0c-0.81159 0-1.5068 0.4851-1.8203 1.1797 0.25075-0.11319 0.52733-0.17969 0.82031-0.17969h8c1.5271 0 2 0.57149 2 2v10c0 0.29298-0.0665 0.56956-0.17969 0.82031 0.69459-0.31354 1.1797-1.0087 1.1797-1.8203v-10c0-1.1046-0.89543-2-2-2z" fill="#808080"/>
<g transform="translate(16)" fill="#808080">
<path d="m-13 2c-1.1046 0-2 0.89543-2 2v10c0 1.1046 0.89543 2 2 2h8c1.1046 0 2-0.89543 2-2v-10c0-1.1046-0.89543-2-2-2zm-0.0039 10h8.0078c0.54974 0 0.99613 0.44175 0.99609 0.99805v1.0039l-0.00781 0.11524c-0.058688 0.49682-0.4871 0.88281-0.98828 0.88281h-8.0078l-0.11719-0.0059c-0.49505-0.05712-0.87891-0.47559-0.87891-0.99215v-1.0039l0.0078-0.11524c0.058697-0.49682 0.48711-0.88281 0.98829-0.88281z"/>
<path d="m-12.5 13h7c0.27614 0 0.5 0.22386 0.5 0.5 0 0.24546-0.17688 0.44961-0.41012 0.49194l-0.08988 0.0081h-7c-0.27614 0-0.5-0.22386-0.5-0.5 0-0.24546 0.17688-0.44961 0.41012-0.49194l0.08988-0.0081h7z"/>
</g>
</svg>
