<svg width="16px" height="16px" version="1.1" viewBox="0 0 16 16" xmlns="http://www.w3.org/2000/svg">
<title>disk-normal-16px</title>
<desc>Created with Sketch.</desc>
<path class="ColorScheme-Text" d="m12 1c1.1046 0 2 0.89543 2 2v10c0 1.1046-0.89543 2-2 2h-8c-1.1046 0-2-0.89543-2-2v-10c0-1.1046 0.89543-2 2-2zm0.0046 10h-8.0092c-0.50118 0-0.92987 0.38564-0.98856 0.88246l-0.0068 0.1165v1.0021c0 0.51656 0.38426 0.93514 0.87931 0.9923l0.11604 0.0067h8.0092c0.50118 0 0.92987-0.38564 0.98856-0.88246l0.0068-0.1165v-1.0021c3.9e-5 -0.5563-0.44562-0.99896-0.99536-0.99896zm-7.5046 1h7c0.27614 0 0.5 0.22386 0.5 0.5 0 0.24546-0.17688 0.44961-0.41012 0.49194l-0.089876 0.008056h-7c-0.27614 0-0.5-0.22386-0.5-0.5 0-0.24546 0.17688-0.44961 0.41012-0.49194l0.08988-0.0081h7zm3.5-10c-1.1046 0-2 0.89543-2 2v1c-0.55229 0-1 0.44772-1 1v3c0 0.55228 0.44772 1 1 1h4c0.55228 0 1-0.44772 1-1v-3c0-0.55228-0.44772-1-1-1v-1c0-1.1046-0.89543-2-2-2zm0 1c0.55228 0 1 0.44772 1 1v1h-2v-1c0-0.55228 0.44772-1 1-1z" fill="#808080"/>
</svg>
