<svg width="16" height="16" version="1.1" viewBox="0 0 16 16" xmlns="http://www.w3.org/2000/svg">
<defs>
<style id="current-color-scheme" type="text/css">.ColorScheme-Text { color:#536076; } .ColorScheme-Highlight { color:#ffffff; }</style>
</defs>
<path class="ColorScheme-Text" d="m8 1c1.3852 0 3.3982 0.2026 4.0986 0.55279 0.47176 0.23588 0.73772 0.50184 0.84861 0.72361 0.034714 0.069428 0.052786 0.14598 0.052786 0.22361v11c0 0.077622-0.018072 0.15418-0.052786 0.22361-0.11088 0.22176-0.37684 0.48772-0.84861 0.72361-0.70037 0.35019-2.7134 0.55279-4.0986 0.55279s-3.3982-0.2026-4.0986-0.55279c-0.47176-0.23588-0.73772-0.50184-0.84861-0.72361-0.034714-0.069428-0.052786-0.14598-0.052786-0.22361v-11c0-0.077623 0.018073-0.15418 0.052786-0.22361 0.11088-0.22176 0.37684-0.48772 0.84861-0.72361 0.70037-0.35019 2.7134-0.55279 4.0986-0.55279zm3.9472 2h-8l0.052786 10h8l-0.052786-10zm-0.94721 1v8h-6v-8h6z" fill="#808080"/>
</svg>
