<svg width="16" height="16" version="1.1" xmlns="http://www.w3.org/2000/svg">
<defs>
<style id="current-color-scheme" type="text/css">.ColorScheme-Text { color:#444444; } .ColorScheme-Highlight { color:#4285f4; }</style>
</defs>
<path d="m2 2c-0.554 0-1 0.446-1 1v8c0 0.13807 0.027522 0.26903 0.078125 0.38867v0.001953c0.05058 0.11903 0.12474 0.2263 0.21484 0.31641 0.090375 0.090375 0.19669 0.16438 0.31641 0.21484 0.12004 0.051008 0.25197 0.078125 0.39062 0.078125h5v1h-3.5c-0.27614 0-0.5 0.22386-0.5 0.5s0.22386 0.5 0.5 0.5h9c0.27614 0 0.5-0.22386 0.5-0.5s-0.22386-0.5-0.5-0.5h-3.5v-1h5c0.55228 0 1-0.44772 1-1v-8c0-0.554-0.446-1-1-1h-12zm0.35352 1h11.293c0.19586 0 0.35352 0.15889 0.35352 0.35742v7.2852c0 0.19853-0.15766 0.35742-0.35352 0.35742h-11.293c-0.19585 0-0.35352-0.15889-0.35352-0.35742v-7.2852c0-0.19853 0.15766-0.35742 0.35352-0.35742z" color="#444444" fill="#666"/>
</svg>
