<svg width="128" height="128" version="1.1" viewBox="0 0 128 128" xmlns="http://www.w3.org/2000/svg">
<title>deepin-font-installer</title>
<defs>
<linearGradient id="b" x1="53.864" x2="53.864" y1="81.655" y2="133.44" gradientTransform="scale(1.1882 .84163)" gradientUnits="userSpaceOnUse">
<stop stop-color="#D5E5F4" offset="0"/>
<stop stop-color="#DEE8F2" offset="1"/>
</linearGradient>
<linearGradient id="c" x1="29.137" x2="29.137" y1="102.24" y2="117.61" gradientTransform="scale(2.1928 .45604)" gradientUnits="userSpaceOnUse">
<stop stop-color="#fff" offset="0"/>
<stop stop-color="#C9DAE9" offset="1"/>
</linearGradient>
<filter id="a" color-interpolation-filters="sRGB">
<feFlood flood-opacity=".196" result="flood"/>
<feComposite in="flood" in2="SourceGraphic" operator="in" result="composite1"/>
<feGaussianBlur in="composite1" result="blur" stdDeviation="2"/>
<feOffset dx="0" dy="2" result="offset"/>
<feComposite in="SourceGraphic" in2="offset" result="composite2"/>
</filter>
</defs>
<g fill-rule="evenodd">
<path d="m103 116h-78c-2 0-3-1-3-3v-98c0-2 1-3 3-3h55l26 26v75c0 3-3 3-3 3z" fill="#e5b400" filter="url(#a)"/>
<path d="m22 113c0 2 1 3 3 3h78s3 0 3-3v-1c0 3-3 3-3 3h-78c-2 0-3-1-3-3z" fill-opacity=".12" filter="url(#a)"/>
<path d="m22 15c0-2 1-3 3-3h55v1h-55c-2 0-3 1-3 3z" fill="#fff" filter="url(#a)" opacity=".25"/>
<path d="m82.477 38.075c-1.472 0-2.477-1.27-2.477-2.741v-23.334l26 26.075z" fill="#ffe587" filter="url(#a)"/>
<path d="m68.366 63.027h-13.852v-1.664c1.219-0.078 2.23-0.234 3.035-0.469 0.805-0.234 1.207-0.523 1.207-0.867 0-0.14-0.015-0.313-0.047-0.516a2.461 2.461 0 0 0-0.14-0.539l-2.766-7.453h-11.648a55.668 55.668 0 0 0-1.066 2.86c-0.274 0.812-0.52 1.562-0.739 2.25-0.203 0.671-0.343 1.218-0.421 1.64s-0.118 0.766-0.118 1.031c0 0.625 0.493 1.11 1.477 1.453 0.984 0.344 2.094 0.547 3.328 0.61v1.664h-12.516v-1.664c0.406-0.031 0.914-0.121 1.523-0.27 0.61-0.148 1.11-0.347 1.5-0.597 0.625-0.422 1.11-0.864 1.454-1.325s0.68-1.097 1.007-1.91c1.672-4.172 3.516-8.859 5.532-14.062 2.015-5.203 3.812-9.836 5.39-13.898h1.875l11.086 28.689c0.235 0.61 0.5 1.102 0.797 1.477s0.711 0.742 1.242 1.101c0.36 0.22 0.828 0.403 1.406 0.551 0.579 0.149 1.063 0.23 1.454 0.246v1.664zm-13.406-13.594-5.04-12.891-4.944 12.891zm35.883 13.172c-0.734 0.266-1.379 0.48-1.934 0.645-0.554 0.164-1.183 0.246-1.886 0.246-1.22 0-2.192-0.286-2.918-0.856-0.727-0.57-1.192-1.402-1.395-2.496h-0.14c-1.016 1.125-2.106 1.984-3.27 2.578s-2.566 0.89-4.207 0.89c-1.734 0-3.16-0.53-4.277-1.593s-1.676-2.453-1.676-4.172c0-0.89 0.125-1.687 0.375-2.39a5.714 5.714 0 0 1 1.125-1.899c0.39-0.469 0.906-0.887 1.547-1.254s1.242-0.66 1.805-0.879c0.703-0.265 2.128-0.758 4.277-1.476 2.148-0.72 3.598-1.282 4.348-1.688v-2.32c0-0.203-0.043-0.594-0.13-1.172a4.907 4.907 0 0 0-0.55-1.64 4.667 4.667 0 0 0-1.324-1.512c-0.57-0.43-1.38-0.645-2.426-0.645-0.719 0-1.387 0.121-2.004 0.363s-1.05 0.497-1.3 0.762c0 0.313 0.073 0.774 0.222 1.383 0.148 0.61 0.223 1.172 0.223 1.687 0 0.547-0.247 1.047-0.739 1.5-0.492 0.454-1.176 0.68-2.05 0.68-0.782 0-1.356-0.277-1.723-0.832a3.301 3.301 0 0 1-0.551-1.863c0-0.719 0.254-1.406 0.762-2.063 0.507-0.656 1.168-1.242 1.98-1.758 0.703-0.437 1.555-0.808 2.555-1.113s1.976-0.457 2.93-0.457c1.312 0 2.457 0.09 3.433 0.27 0.977 0.18 1.863 0.566 2.66 1.16 0.797 0.578 1.403 1.363 1.817 2.355 0.414 0.993 0.62 2.27 0.62 3.832 0 2.235-0.023 4.215-0.07 5.942s-0.07 3.613-0.07 5.66c0 0.61 0.106 1.094 0.317 1.453 0.21 0.36 0.535 0.664 0.972 0.914 0.235 0.14 0.606 0.219 1.114 0.235 0.507 0.015 1.027 0.023 1.558 0.023zm-8.18-12.375a51.22 51.22 0 0 0-3.492 1.148c-1 0.375-1.93 0.844-2.789 1.407-0.781 0.53-1.398 1.16-1.852 1.886-0.453 0.727-0.68 1.59-0.68 2.59 0 1.297 0.34 2.25 1.02 2.86 0.68 0.609 1.543 0.914 2.59 0.914 1.11 0 2.086-0.27 2.93-0.809s1.554-1.176 2.133-1.91z" fill="#c99e00" filter="url(#a)"/>
<path d="m68.366 62.027h-13.852v-1.664c1.219-0.078 2.23-0.234 3.035-0.469 0.805-0.234 1.207-0.523 1.207-0.867 0-0.14-0.015-0.313-0.047-0.516a2.461 2.461 0 0 0-0.14-0.539l-2.766-7.453h-11.648a55.668 55.668 0 0 0-1.066 2.86c-0.274 0.812-0.52 1.562-0.739 2.25-0.203 0.671-0.343 1.218-0.421 1.64s-0.118 0.766-0.118 1.031c0 0.625 0.493 1.11 1.477 1.453 0.984 0.344 2.094 0.547 3.328 0.61v1.664h-12.516v-1.664c0.406-0.031 0.914-0.121 1.523-0.27 0.61-0.148 1.11-0.347 1.5-0.597 0.625-0.422 1.11-0.864 1.454-1.325s0.68-1.097 1.007-1.91c1.672-4.172 3.516-8.859 5.532-14.062 2.015-5.203 3.812-9.836 5.39-13.898h1.875l11.086 28.689c0.235 0.61 0.5 1.102 0.797 1.477s0.711 0.742 1.242 1.101c0.36 0.22 0.828 0.403 1.406 0.551 0.579 0.149 1.063 0.23 1.454 0.246v1.664zm-13.406-13.594-5.04-12.891-4.944 12.891zm35.883 13.172c-0.734 0.266-1.379 0.48-1.934 0.645-0.554 0.164-1.183 0.246-1.886 0.246-1.22 0-2.192-0.286-2.918-0.856-0.727-0.57-1.192-1.402-1.395-2.496h-0.14c-1.016 1.125-2.106 1.984-3.27 2.578s-2.566 0.89-4.207 0.89c-1.734 0-3.16-0.53-4.277-1.593s-1.676-2.453-1.676-4.172c0-0.89 0.125-1.687 0.375-2.39a5.714 5.714 0 0 1 1.125-1.899c0.39-0.469 0.906-0.887 1.547-1.254s1.242-0.66 1.805-0.879c0.703-0.265 2.128-0.758 4.277-1.476 2.148-0.72 3.598-1.282 4.348-1.688v-2.32c0-0.203-0.043-0.594-0.13-1.172a4.907 4.907 0 0 0-0.55-1.64 4.667 4.667 0 0 0-1.324-1.512c-0.57-0.43-1.38-0.645-2.426-0.645-0.719 0-1.387 0.121-2.004 0.363s-1.05 0.497-1.3 0.762c0 0.313 0.073 0.774 0.222 1.383 0.148 0.61 0.223 1.172 0.223 1.687 0 0.547-0.247 1.047-0.739 1.5-0.492 0.454-1.176 0.68-2.05 0.68-0.782 0-1.356-0.277-1.723-0.832a3.301 3.301 0 0 1-0.551-1.863c0-0.719 0.254-1.406 0.762-2.063 0.507-0.656 1.168-1.242 1.98-1.758 0.703-0.437 1.555-0.808 2.555-1.113s1.976-0.457 2.93-0.457c1.312 0 2.457 0.09 3.433 0.27 0.977 0.18 1.863 0.566 2.66 1.16 0.797 0.578 1.403 1.363 1.817 2.355 0.414 0.993 0.62 2.27 0.62 3.832 0 2.235-0.023 4.215-0.07 5.942s-0.07 3.613-0.07 5.66c0 0.61 0.106 1.094 0.317 1.453 0.21 0.36 0.535 0.664 0.972 0.914 0.235 0.14 0.606 0.219 1.114 0.235 0.507 0.015 1.027 0.023 1.558 0.023zm-8.18-12.375a51.22 51.22 0 0 0-3.492 1.148c-1 0.375-1.93 0.844-2.789 1.407-0.781 0.53-1.398 1.16-1.852 1.886-0.453 0.727-0.68 1.59-0.68 2.59 0 1.297 0.34 2.25 1.02 2.86 0.68 0.609 1.543 0.914 2.59 0.914 1.11 0 2.086-0.27 2.93-0.809s1.554-1.176 2.133-1.91z" fill="#fff" filter="url(#a)"/>
<path d="m16 50.659a2.664 2.664 0 0 1 2.668-2.659h90.664a2.66 2.66 0 0 1 2.668 2.66v64.334a3.002 3.002 0 0 1-3.005 3.008h-89.99a3 3 0 0 1-3.005-3.009z" fill="#c0d0df" filter="url(#a)"/>
<path d="m16 50.666a2.668 2.668 0 0 1 2.668-2.666h90.664a2.668 2.668 0 0 1 2.668 2.666v62.325a3.003 3.003 0 0 1-3.005 3.01h-89.99a3.004 3.004 0 0 1-3.005-3.011z" fill="url(#b)" filter="url(#a)"/>
<path d="m121.35 67.259c0.675 1.514-0.117 2.741-1.782 2.741h-111.35c-1.66 0-2.461-1.223-1.786-2.741l8.23-18.517c0.673-1.514 2.557-2.741 4.223-2.741h89.99c1.66 0 3.55 1.223 4.227 2.741l8.252 18.517z" fill="url(#c)" filter="url(#a)"/>
<path d="m108.32 48.009c1.107 0 2.401 0.808 2.883 1.79l8.041 16.403c0.485 0.989-0.027 1.79-1.121 1.791l-108.47 7e-3c-1.105 0-1.605-0.808-1.125-1.79l8.018-16.4c0.484-0.989 1.765-1.79 2.88-1.79l88.893-0.01z" fill="#f0f8fa" filter="url(#a)"/>
</g>
</svg>
