<svg width="128" height="128" version="1.1" viewBox="0 0 128 128" xmlns="http://www.w3.org/2000/svg" xmlns:xlink="http://www.w3.org/1999/xlink">
<defs>
<filter id="deepin-boot-maker-a" x="-22.2%" y="-13.8%" width="144.4%" height="127.6%">
<feOffset dy="2" in="SourceAlpha" result="shadowOffsetOuter1"/>
<feGaussianBlur in="shadowOffsetOuter1" result="shadowBlurOuter1" stdDeviation="3"/>
<feComposite in="shadowBlurOuter1" in2="SourceAlpha" operator="out" result="shadowBlurOuter1"/>
<feColorMatrix in="shadowBlurOuter1" result="shadowMatrixOuter1" values="0 0 0 0 0   0 0 0 0 0   0 0 0 0 0  0 0 0 0.2 0"/>
<feMerge>
<feMergeNode in="shadowMatrixOuter1"/>
<feMergeNode in="SourceGraphic"/>
</feMerge>
</filter>
<linearGradient id="deepin-boot-maker-c" x1="23.943" x2="54.703" y1="-3.7248e-30" y2="60.367" gradientTransform="scale(.95467 1.0475)" gradientUnits="userSpaceOnUse">
<stop stop-color="#9BBE34" offset="0"/>
<stop stop-color="#3A7D09" offset="1"/>
</linearGradient>
<path id="deepin-boot-maker-b" d="m63 0c4.9706-5.3278e-15 9 4.0294 9 9v70h-72v-50.608c-1.5026e-15 -2.6522 1.0536-5.1957 2.9289-7.0711l18.392-18.392c1.8754-1.8754 4.4189-2.9289 7.0711-2.9289h34.608zm1 4c-2.2091 0-4 1.7909-4 4s1.7909 4 4 4 4-1.7909 4-4-1.7909-4-4-4z"/>
<filter id="deepin-boot-maker-d" x="-1.4%" y="-1.3%" width="102.8%" height="102.5%">
<feGaussianBlur in="SourceAlpha" result="shadowBlurInner1" stdDeviation=".5"/>
<feOffset dy="1" in="shadowBlurInner1" result="shadowOffsetInner1"/>
<feComposite in="shadowOffsetInner1" in2="SourceAlpha" k2="-1" k3="1" operator="arithmetic" result="shadowInnerInner1"/>
<feColorMatrix in="shadowInnerInner1" result="shadowMatrixInner1" values="0 0 0 0 1   0 0 0 0 1   0 0 0 0 1  0 0 0 0.3 0"/>
<feGaussianBlur in="SourceAlpha" result="shadowBlurInner2" stdDeviation=".5"/>
<feOffset dx="-1" dy="-1" in="shadowBlurInner2" result="shadowOffsetInner2"/>
<feComposite in="shadowOffsetInner2" in2="SourceAlpha" k2="-1" k3="1" operator="arithmetic" result="shadowInnerInner2"/>
<feColorMatrix in="shadowInnerInner2" result="shadowMatrixInner2" values="0 0 0 0 0.0184287527   0 0 0 0 0.105044158   0 0 0 0 0.00466373642  0 0 0 0.35385708 0"/>
<feMerge>
<feMergeNode in="shadowMatrixInner1"/>
<feMergeNode in="shadowMatrixInner2"/>
</feMerge>
</filter>
<linearGradient id="deepin-boot-maker-g" x1="26.153" x2="26.153" y1="107.37" y2="157.67" gradientTransform="scale(1.3765 .72648)" gradientUnits="userSpaceOnUse">
<stop stop-color="#343434" offset="0"/>
<stop stop-color="#181818" offset="1"/>
</linearGradient>
<path id="deepin-boot-maker-h" d="m0 78h72v29c0 4.9706-4.0294 9-9 9h-54c-4.9706 0-9-4.0294-9-9v-29z"/>
<filter id="deepin-boot-maker-i" x="-1.4%" y="-2.6%" width="102.8%" height="105.3%">
<feGaussianBlur in="SourceAlpha" result="shadowBlurInner1" stdDeviation=".5"/>
<feOffset dx="-1" dy="-1" in="shadowBlurInner1" result="shadowOffsetInner1"/>
<feComposite in="shadowOffsetInner1" in2="SourceAlpha" k2="-1" k3="1" operator="arithmetic" result="shadowInnerInner1"/>
<feColorMatrix in="shadowInnerInner1" values="0 0 0 0 0   0 0 0 0 0   0 0 0 0 0  0 0 0 0.2 0"/>
</filter>
<linearGradient id="deepin-boot-maker-j" x1="8.0407" x2="40.874" y1="140.48" y2="146.05" gradientTransform="scale(1.4924 .67006)" gradientUnits="userSpaceOnUse">
<stop stop-color="#F1E274" offset="0"/>
<stop stop-color="#CEB214" offset=".18149"/>
<stop stop-color="#F2CC00" offset=".37816"/>
<stop stop-color="#E7BF00" offset=".56473"/>
<stop stop-color="#F9D53B" offset=".67568"/>
<stop stop-color="#E8B800" offset=".83443"/>
<stop stop-color="#FFCF00" offset="1"/>
</linearGradient>
<path id="deepin-boot-maker-k" d="m17 85c1.1046 0 2 0.89543 2 2v18c0 1.1046-0.89543 2-2 2h-3c-1.1046 0-2-0.89543-2-2v-18c0-1.1046 0.89543-2 2-2h3zm42 0c1.1046 0 2 0.89543 2 2v18c0 1.1046-0.89543 2-2 2h-3c-1.1046 0-2-0.89543-2-2v-18c0-1.1046 0.89543-2 2-2h3zm-14 0c1.1046 0 2 0.89543 2 2v12c0 1.1046-0.89543 2-2 2h-3c-1.1046 0-2-0.89543-2-2v-12c0-1.1046 0.89543-2 2-2h3zm-14 0c1.1046 0 2 0.89543 2 2v12c0 1.1046-0.89543 2-2 2h-3c-1.1046 0-2-0.89543-2-2v-12c0-1.1046 0.89543-2 2-2h3z"/>
<filter id="deepin-boot-maker-l" x="-1%" y="-2.3%" width="102%" height="104.5%">
<feOffset dy="1" in="SourceAlpha" result="shadowOffsetInner1"/>
<feComposite in="shadowOffsetInner1" in2="SourceAlpha" k2="-1" k3="1" operator="arithmetic" result="shadowInnerInner1"/>
<feColorMatrix in="shadowInnerInner1" values="0 0 0 0 0.926828578   0 0 0 0 0.558558022   0 0 0 0 0  0 0 0 0.5 0"/>
</filter>
</defs>
<g fill-rule="evenodd">
<use transform="translate(28,6)" width="100%" height="100%" fill="url(#deepin-boot-maker-c)" filter="url(#deepin-boot-maker-a)" xlink:href="#deepin-boot-maker-b"/>
<use transform="translate(28,6)" width="100%" height="100%" fill="#000000" filter="url(#deepin-boot-maker-d)" xlink:href="#deepin-boot-maker-b"/>
<use transform="translate(28,6)" width="100%" height="100%" fill="url(#deepin-boot-maker-g)" filter="url(#deepin-boot-maker-a)" xlink:href="#deepin-boot-maker-h"/>
<use transform="translate(28,6)" width="100%" height="100%" fill="#000000" filter="url(#deepin-boot-maker-i)" xlink:href="#deepin-boot-maker-h"/>
<use transform="translate(28,6)" width="100%" height="100%" fill="url(#deepin-boot-maker-j)" filter="url(#deepin-boot-maker-a)" xlink:href="#deepin-boot-maker-k"/>
<use transform="translate(28,6)" width="100%" height="100%" fill="#000000" filter="url(#deepin-boot-maker-l)" xlink:href="#deepin-boot-maker-k"/>
</g>
</svg>
