<svg width="128" height="128" version="1.1" viewBox="0 0 128 128" xmlns="http://www.w3.org/2000/svg" xmlns:xlink="http://www.w3.org/1999/xlink">
<defs>
<filter id="deepin-picker-a" x="-13.6%" y="-13.6%" width="127.1%" height="127.1%">
<feOffset dy="2" in="SourceAlpha" result="shadowOffsetOuter1"/>
<feGaussianBlur in="shadowOffsetOuter1" result="shadowBlurOuter1" stdDeviation="3"/>
<feComposite in="shadowBlurOuter1" in2="SourceAlpha" operator="out" result="shadowBlurOuter1"/>
<feColorMatrix in="shadowBlurOuter1" result="shadowMatrixOuter1" values="0 0 0 0 0   0 0 0 0 0   0 0 0 0 0  0 0 0 0.2 0"/>
<feMerge>
<feMergeNode in="shadowMatrixOuter1"/>
<feMergeNode in="SourceGraphic"/>
</feMerge>
</filter>
<linearGradient id="deepin-picker-c" x1="59" x2="59" y2="113.48" gradientUnits="userSpaceOnUse">
<stop stop-color="#2E2E2E" offset="0"/>
<stop stop-color="#121212" offset="1"/>
</linearGradient>
<circle id="deepin-picker-b" cx="59" cy="59" r="59"/>
<linearGradient id="deepin-picker-e" x1="28.3" x2="12.34" y1="11.56" y2="30.138" gradientTransform="scale(.99773 1.0023)" gradientUnits="userSpaceOnUse">
<stop stop-color="#FB563F" offset="0"/>
<stop stop-color="#DA377B" offset="1"/>
</linearGradient>
<linearGradient id="deepin-picker-f" x1="47.169" x2="25.332" y1="9.1472" y2="14.891" gradientTransform="scale(1.0706 .93405)" gradientUnits="userSpaceOnUse">
<stop stop-color="#EF7640" offset="0"/>
<stop stop-color="#FB563F" offset="1"/>
</linearGradient>
<linearGradient id="deepin-picker-g" x1="11.262" x2="7.8834" y1="22.576" y2="47.257" gradientTransform="scale(.93122 1.0739)" gradientUnits="userSpaceOnUse">
<stop stop-color="#DA377B" offset="0"/>
<stop stop-color="#894CEC" offset="1"/>
</linearGradient>
<linearGradient id="deepin-picker-h" x1="7.476" x2="11.295" y1="46.667" y2="71.41" gradientTransform="scale(.93808 1.066)" gradientUnits="userSpaceOnUse">
<stop stop-color="#8D47FF" offset="0"/>
<stop stop-color="#6671FF" offset="1"/>
</linearGradient>
<linearGradient id="deepin-picker-i" x1="15.326" x2="31.98" y1="70.195" y2="87.898" gradientTransform="scale(1.0023 .99773)" gradientUnits="userSpaceOnUse">
<stop stop-color="#7366FF" offset="0"/>
<stop stop-color="#1696FF" offset="1"/>
</linearGradient>
<linearGradient id="deepin-picker-j" x1="47.23" x2="22.602" y1="97.081" y2="97.081" gradientTransform="scale(1.0692 .93525)" gradientUnits="userSpaceOnUse">
<stop stop-color="#30CED6" offset="0"/>
<stop stop-color="#1696FF" offset="1"/>
</linearGradient>
<linearGradient id="deepin-picker-k" x1="66.697" x2="46.633" y1="93.177" y2="100.35" gradientTransform="scale(1.0692 .93525)" gradientUnits="userSpaceOnUse">
<stop stop-color="#7EE22C" offset="0"/>
<stop stop-color="#30D6B2" offset="1"/>
</linearGradient>
<linearGradient id="deepin-picker-l" x1="84.861" x2="70.751" y1="70.354" y2="90.378" gradientTransform="scale(1.0023 .99773)" gradientUnits="userSpaceOnUse">
<stop stop-color="#C1EA55" offset="0"/>
<stop stop-color="#74E126" offset="1"/>
</linearGradient>
<linearGradient id="deepin-picker-m" x1="95.305" x2="92.834" y1="46.667" y2="69.821" gradientTransform="scale(.93808 1.066)" gradientUnits="userSpaceOnUse">
<stop stop-color="#FBEF4D" offset="0"/>
<stop stop-color="#B9EA56" offset="1"/>
</linearGradient>
<linearGradient id="deepin-picker-n" x1="94.318" x2="101.12" y1="22.576" y2="47.257" gradientTransform="scale(.93122 1.0739)" gradientUnits="userSpaceOnUse">
<stop stop-color="#FFD600" offset="0"/>
<stop stop-color="#FFED58" offset="1"/>
</linearGradient>
<linearGradient id="deepin-picker-o" x1="68.388" x2="85.6" y1="15.509" y2="30.526" gradientTransform="scale(.99773 1.0023)" gradientUnits="userSpaceOnUse">
<stop stop-color="#FFC134" offset="0"/>
<stop stop-color="#FBE04D" offset="1"/>
</linearGradient>
<linearGradient id="deepin-picker-p" x1="65.073" x2="46.235" y1="17.755" y2="11.318" gradientTransform="scale(1.0706 .93405)" gradientUnits="userSpaceOnUse">
<stop stop-color="#F5B543" offset="0"/>
<stop stop-color="#EF7640" offset="1"/>
</linearGradient>
</defs>
<g fill-rule="evenodd">
<use transform="translate(5,5)" width="100%" height="100%" fill="url(#deepin-picker-c)" filter="url(#deepin-picker-a)" xlink:href="#deepin-picker-b"/>
<g stroke="#000" stroke-opacity=".2">
<path transform="rotate(90,50,64)" d="m24.636 6.3166 8.7509 15.157-0.41972 0.25342c-4.6942 2.8343-8.6243 6.8042-11.411 11.527l-0.25168 0.42661-15.157-8.7509 0.25453-0.43421c4.3206-7.3705 10.457-13.549 17.798-17.92z" fill="url(#deepin-picker-e)" filter="url(#deepin-picker-a)"/>
<path transform="rotate(90,50,64)" d="m25.073 6.0678c7.3905-4.2024 15.74-6.4828 24.421-6.5678l0.5049-0.004946v17.499l-0.49268 0.0072c-5.5736 0.08155-10.932 1.5478-15.689 4.2293l-0.43111 0.24304-8.7508-15.157z" fill="url(#deepin-picker-f)" filter="url(#deepin-picker-a)"/>
<path transform="rotate(90,50,64)" d="m6.1477 24.93 15.157 8.7509-0.23619 0.42916c-2.6172 4.7556-4.0277 10.096-4.0683 15.641l-0.0036 0.49635h-17.499l0.00246-0.50245c0.042358-8.6524 2.2646-16.983 6.4002-24.373z" fill="url(#deepin-picker-g)" filter="url(#deepin-picker-a)"/>
<path transform="rotate(90,50,64)" d="m-0.50251 50.248h17.499l0.01074 0.48902c0.12119 5.5165 1.5998 10.816 4.2692 15.521l0.24488 0.43162-15.157 8.7509-0.24912-0.43626c-4.19-7.3375-6.4837-15.626-6.6105-24.249z" fill="url(#deepin-picker-h)" filter="url(#deepin-picker-a)"/>
<path transform="rotate(90,50,64)" d="m6.3645 75.44 15.157-8.751 0.25387 0.41788c2.8156 4.6345 6.7399 8.5194 11.403 11.288l0.42476 0.25216-8.7508 15.157-0.43454-0.2558c-7.3088-4.3024-13.44-10.393-17.793-17.672z" fill="url(#deepin-picker-i)" filter="url(#deepin-picker-a)"/>
<path transform="rotate(90,50,64)" d="m24.852 93.804 8.7509-15.157 0.42969 0.23801c4.7039 2.6056 9.985 4.0288 15.474 4.1091l0.49268 0.0072v17.499l-0.5049-5e-3c-8.5943-0.0842-16.864-2.3199-24.201-6.4435z" fill="url(#deepin-picker-j)" filter="url(#deepin-picker-a)"/>
<path transform="rotate(90,50,64)" d="m49.999 100.5v-17.499l0.49268-0.0072c5.4889-0.08031 10.77-1.5036 15.474-4.1092l0.42969-0.23801 8.7509 15.157-0.44096 0.24782c-7.3373 4.1236-15.607 6.3594-24.201 6.4436z" fill="url(#deepin-picker-k)" filter="url(#deepin-picker-a)"/>
<path transform="rotate(90,50,64)" d="m75.147 93.804-8.7508-15.157 0.42476-0.25216c4.6629-2.7682 8.5872-6.6531 11.403-11.288l0.25387-0.41788 15.157 8.751-0.26054 0.43575c-4.3522 7.2792-10.484 13.37-17.793 17.672z" fill="url(#deepin-picker-l)" filter="url(#deepin-picker-a)"/>
<path transform="rotate(90,50,64)" d="m93.634 75.44-15.157-8.7509 0.24488-0.43162c2.6693-4.705 4.148-10.005 4.2692-15.521l0.01074-0.48902h17.499l-7e-3 0.50735c-0.12679 8.6229-2.4204 16.911-6.6105 24.249z" fill="url(#deepin-picker-m)" filter="url(#deepin-picker-a)"/>
<path transform="rotate(90,50,64)" d="m100.5 50.248h-17.499l-0.0036-0.49635c-0.04056-5.5457-1.4511-10.886-4.0683-15.641l-0.23619-0.42916 15.157-8.7509 0.24747 0.44222c4.1356 7.3903 6.3578 15.721 6.4002 24.373z" fill="url(#deepin-picker-n)" filter="url(#deepin-picker-a)"/>
<path transform="rotate(90,50,64)" d="m93.851 24.93-15.157 8.7509-0.25168-0.42661c-2.7863-4.7229-6.7164-8.6927-11.411-11.527l-0.41972-0.25342 8.7509-15.157 0.43543 0.25926c7.3408 4.3708 13.478 10.549 17.798 17.92z" fill="url(#deepin-picker-o)" filter="url(#deepin-picker-a)"/>
<path transform="rotate(90,50,64)" d="m75.363 6.3166-8.7508 15.157-0.43111-0.24303c-4.7566-2.6815-10.115-4.1477-15.689-4.2293l-0.49269-0.0072v-17.499l0.5049 0.004946c8.6811 0.085048 17.031 2.3654 24.421 6.5678z" fill="url(#deepin-picker-p)" filter="url(#deepin-picker-a)"/>
</g>
</g>
</svg>
