<svg width="128" height="128" version="1.1" viewBox="0 0 128 128" xmlns="http://www.w3.org/2000/svg">
<title>软件包安装器-128px</title>
<defs>
<linearGradient id="b" x1="21.831" x2="21.831" y1="74.9" y2="85.096" gradientTransform="scale(2.1949 .45561)" gradientUnits="userSpaceOnUse">
<stop stop-color="#fff" offset="0"/>
<stop stop-color="#C9DAE9" offset="1"/>
</linearGradient>
<filter id="a" color-interpolation-filters="sRGB">
<feFlood flood-color="#908B78" flood-opacity=".498" result="flood"/>
<feComposite in="flood" in2="SourceGraphic" operator="in" result="composite1"/>
<feGaussianBlur in="composite1" result="blur" stdDeviation="1.5"/>
<feOffset dx="0" dy="1.5" result="offset"/>
<feComposite in="SourceGraphic" in2="offset" result="composite2"/>
</filter>
</defs>
<g fill-rule="evenodd">
<path d="m22 112.36c0 1.378 0.993 2.63 2.636 2.63h79.083s2.549 0 2.633-2.63v-1.316c-0.084 2.631-2.633 2.631-2.633 2.631h-79.083c-1.643 0-2.636-1.252-2.636-2.631z" filter="url(#a)" opacity=".1"/>
<path d="m22 15c0-1.526 0.993-2.631 2.636-2.631h55.382v1.316h-55.382c-1.643 0-2.636 1.105-2.636 2.63v48.02z" fill="#fff" filter="url(#a)" opacity=".197"/>
<path d="m103.72 114.99h-79.084c-1.644 0-2.636-1.252-2.636-2.631v-97.355c0-1.526 0.992-2.63 2.636-2.63h55.382l26.334 26.311v73.674c-0.085 2.631-2.634 2.631-2.634 2.631z" fill="#92d700" filter="url(#a)"/>
<path d="m82.441 38.755c-1.455 0-2.448-1.253-2.448-2.705v-23.68l26.36 26.311z" fill="#ff5491" filter="url(#a)"/>
<g filter="url(#a)">
<path d="m100.04 113.34h-72.046c-6.004 0-6.004-5.393-6.004-5.393v-93.687c0-1.622 1.256-2.797 3.002-2.797h57.036l24.015 23.971v71.915c0 5.993-6.004 5.993-6.004 5.993z" fill="#d70751" stroke-width="2.546"/>
<path d="m85.035 35.43c-1.547 0-3.002-1.452-3.002-2.996v-20.975l24.015 23.971z" fill="#ff5491" stroke-width="2.546"/>
<path d="m64.022 68.492-24.015-31.602 24.015 6.238 24.015-6.238zm-14.41-47.943 14.41 3.038 14.41-3.038v4.794l-14.41 3.26-14.41-3.26zm0 9.588 14.41 3.039 14.41-3.039v4.795l-14.41 3.26-14.41-3.26z" fill="#fff" stroke-width="5.091"/>
</g>
<rect transform="matrix(1.318 0 0 1.3156 .913 1.844)" x="12" y="36" width="72" height="52" rx="2" fill="#c0d0df" filter="url(#a)"/>
<path transform="matrix(1.318 0 0 1.3156 .913 1.844)" d="m12 37.999c0-1.104 0.897-2 2-2h68a2 2 0 0 1 2 2v47.001c0 1.104-0.897 2-2 2h-68a2 2 0 0 1-2-2z" fill="#dee8f2" filter="url(#a)"/>
<path transform="matrix(1.318 0 0 1.3156 .913 1.844)" d="m91.115 50.175c0.45 1.008-0.087 1.825-1.19 1.825h-84.015c-1.107 0-1.64-0.82-1.193-1.825l6.378-14.35c0.449-1.008 1.709-1.825 2.812-1.825h67.999c1.104 0 2.366 0.82 2.814 1.825z" fill="url(#b)" filter="url(#a)"/>
<path transform="matrix(1.318 0 0 1.3156 .913 1.844)" d="m82.371 35.048c0.554 0 1.185 0.41 1.41 0.915l6.287 14.109c0.225 0.504-0.03 0.914-0.593 0.914l-83.14 0.051c-0.553 0-0.818-0.412-0.598-0.907l6.318-14.214c0.223-0.501 0.856-0.907 1.406-0.907z" fill="#f0f8fa" filter="url(#a)"/>
</g>
</svg>
