<svg width="512" height="512" version="1.1" viewBox="0 0 512 512" xmlns="http://www.w3.org/2000/svg">
 <defs>
  <filter id="folder-open-512px-a" x="-12.2%" y="-14.1%" width="124.3%" height="128.1%">
   <feOffset dy="8" in="SourceAlpha" result="shadowOffsetOuter1"/>
   <feGaussianBlur in="shadowOffsetOuter1" result="shadowBlurOuter1" stdDeviation="10"/>
   <feComposite in="shadowBlurOuter1" in2="SourceAlpha" operator="out" result="shadowBlurOuter1"/>
   <feColorMatrix in="shadowBlurOuter1" result="shadowMatrixOuter1" values="0 0 0 0 0   0 0 0 0 0   0 0 0 0 0  0 0 0 0.2 0"/>
   <feMerge>
    <feMergeNode in="shadowMatrixOuter1"/>
    <feMergeNode in="SourceGraphic"/>
   </feMerge>
  </filter>
  <linearGradient id="folder-open-512px-b" x1="206.46" x2="206.46" y1="-3.0562e-14" y2="156.77" gradientTransform="matrix(1.0753 0 0 .92998 34 90)" gradientUnits="userSpaceOnUse">
   <stop stop-color="#value_light" offset="0"/>
   <stop stop-color="#value_dark" offset="1"/>
  </linearGradient>
  <radialGradient id="folder-open-512px-g" cx="145.99" cy="0" r="345.31" gradientTransform="matrix(1.5207 0 0 .6576 34 282)" gradientUnits="userSpaceOnUse">
   <stop stop-color="#value_light" offset="0"/>
   <stop stop-color="#value_dark" offset="1"/>
  </radialGradient>
  <filter id="filter992" x="-.042327" y="-.10301" width="1.0847" height="1.206" color-interpolation-filters="sRGB">
   <feGaussianBlur stdDeviation="7.125"/>
  </filter>
  <linearGradient id="linearGradient966" x1="-260" x2="-260" y1="372" y2="497.81" gradientTransform="translate(44,-212)" gradientUnits="userSpaceOnUse">
   <stop stop-color="#fff" offset="0"/>
   <stop stop-color="#cef5ff" offset="1"/>
  </linearGradient>
  <radialGradient id="folder-open-512px-g-3" cx="145.99" cy="0" r="345.31" gradientTransform="matrix(1.5207 0 0 .6576 34 282)" gradientUnits="userSpaceOnUse">
   <stop stop-color="#fff" stop-opacity=".4" offset="0"/>
   <stop stop-color="#fff" stop-opacity="0" offset="1"/>
  </radialGradient>
  <linearGradient id="folder-open-512px-b-7" x1="206.46" x2="206.46" y1="-3.0562e-14" y2="156.77" gradientTransform="matrix(1.0753 0 0 .92998 34 90)" gradientUnits="userSpaceOnUse">
   <stop stop-color="#fff" stop-opacity=".35" offset="0"/>
   <stop stop-color="#fff" stop-opacity="0" offset="1"/>
  </linearGradient>
  <filter id="filter984" x="-8.5946e-5" y="-.00019875" width="1.0002" height="1.0004" color-interpolation-filters="sRGB">
   <feFlood flood-color="rgb(0,0,0)" flood-opacity=".49804" result="flood"/>
   <feComposite in="flood" in2="SourceGraphic" operator="in" result="composite1"/>
   <feGaussianBlur in="composite1" result="blur" stdDeviation="0.0159"/>
   <feOffset dx="0" dy="0" result="offset"/>
   <feComposite in="SourceGraphic" in2="offset" result="composite2"/>
  </filter>
  <filter id="filter996" x="-4.5151e-7" y="-5.2206e-7" width="1" height="1" color-interpolation-filters="sRGB">
   <feFlood flood-color="rgb(0,0,0)" flood-opacity=".49804" result="flood"/>
   <feComposite in="flood" in2="SourceGraphic" operator="in" result="composite1"/>
   <feGaussianBlur in="composite1" result="blur" stdDeviation="8.3528969e-05"/>
   <feOffset dx="0" dy="0" result="offset"/>
   <feComposite in="SourceGraphic" in2="offset" result="composite2"/>
  </filter>
 </defs>
 <path d="m282 113c6.0723 13.966 19.851 23 35.08 23h104.92c30.928 0 56 25.072 56 56v226c0 30.928-25.072 56-56 56h-332c-30.928 0-56-25.072-56-56v-272c0-30.928 25.072-56 56-56h156.92c15.229 0 29.008 9.0338 35.08 23z" fill="url(#folder-open-512px-b)" fill-rule="evenodd" filter="url(#folder-open-512px-a)"/>
 <path d="m282 113c6.0723 13.966 19.851 23 35.08 23h104.92c30.928 0 56 25.072 56 56v226c0 30.928-25.072 56-56 56h-332c-30.928 0-56-25.072-56-56v-272c0-30.928 25.072-56 56-56h156.92c15.229 0 29.008 9.0338 35.08 23z" fill="url(#folder-open-512px-b-7)" fill-rule="evenodd" filter="url(#filter996)" opacity=".349" style="mix-blend-mode:normal"/>
 <g transform="translate(488,-2)" fill-rule="evenodd">
  <rect x="-434" y="156" width="404" height="166" rx="36" ry="36" fill-opacity=".2" filter="url(#filter992)" style="paint-order:stroke fill markers"/>
  <rect x="-434" y="154" width="404" height="166" rx="36" ry="36" fill="url(#linearGradient966)" style="paint-order:stroke fill markers"/>
  <path d="m-398 154c-19.944 0-36 16.056-36 36v4c0-19.944 16.056-36 36-36h332c19.944 0 36 16.056 36 36v-4c0-19.944-16.056-36-36-36z" opacity=".5" style="paint-order:stroke fill markers"/>
 </g>
 <path d="m34 282h444v136c0 30.928-25.072 56-56 56h-332c-30.928 0-56-25.072-56-56z" fill="url(#folder-open-512px-g)" fill-rule="evenodd" filter="url(#folder-open-512px-a)"/>
 <path d="m34 282h444v136c0 30.928-25.072 56-56 56h-332c-30.928 0-56-25.072-56-56z" fill="url(#folder-open-512px-g-3)" fill-rule="evenodd" filter="url(#filter984)" style="mix-blend-mode:normal"/>
</svg>
