<svg width="512" height="512" version="1.1" viewBox="0 0 512 512" xmlns="http://www.w3.org/2000/svg" xmlns:xlink="http://www.w3.org/1999/xlink">
<defs>
<filter id="folder-video-stack-512px-a" x="-12.2%" y="-14.1%" width="124.3%" height="128.1%">
<feOffset dy="8" in="SourceAlpha" result="shadowOffsetOuter1"/>
<feGaussianBlur in="shadowOffsetOuter1" result="shadowBlurOuter1" stdDeviation="10"/>
<feComposite in="shadowBlurOuter1" in2="SourceAlpha" operator="out" result="shadowBlurOuter1"/>
<feColorMatrix in="shadowBlurOuter1" result="shadowMatrixOuter1" values="0 0 0 0 0   0 0 0 0 0   0 0 0 0 0  0 0 0 0.2 0"/>
<feMerge>
<feMergeNode in="shadowMatrixOuter1"/>
<feMergeNode in="SourceGraphic"/>
</feMerge>
</filter>
<linearGradient id="folder-video-stack-512px-b" x1="206.46" x2="206.46" y2="184.19" gradientTransform="matrix(1.0753 0 0 .92998 34 90)" gradientUnits="userSpaceOnUse">
<stop stop-color="#FFF" stop-opacity=".1" offset="0"/>
<stop stop-opacity="0" offset="1"/>
</linearGradient>
<linearGradient id="folder-video-stack-512px-g" x1="180.03" x2="180.03" y2="349.97" gradientTransform="scale(1.2331 .81096)" gradientUnits="userSpaceOnUse">
<stop stop-color="#414141" offset="0"/>
<stop stop-color="#2B2B2B" offset="1"/>
</linearGradient>
<path id="folder-video-stack-512px-f" d="m0 0h444v236c0 30.928-25.072 56-56 56h-332c-30.928 0-56-25.072-56-56v-236z"/>
<filter id="folder-video-stack-512px-h" x="-.5%" y="-.7%" width="100.9%" height="101.4%">
<feOffset dy="4" in="SourceAlpha" result="shadowOffsetInner1"/>
<feComposite in="shadowOffsetInner1" in2="SourceAlpha" k2="-1" k3="1" operator="arithmetic" result="shadowInnerInner1"/>
<feColorMatrix in="shadowInnerInner1" values="0 0 0 0 1   0 0 0 0 1   0 0 0 0 1  0 0 0 0.1 0"/>
</filter>
<path id="folder-video-stack-512px-k" d="m8 192h24c4.4183 0 8 3.5817 8 8v24c0 4.4183-3.5817 8-8 8h-24c-4.4183 0-8-3.5817-8-8v-24c-5.4108e-16 -4.4183 3.5817-8 8-8zm0-64h24c4.4183 0 8 3.5817 8 8v24c0 4.4183-3.5817 8-8 8h-24c-4.4183 0-8-3.5817-8-8v-24c-5.4108e-16 -4.4183 3.5817-8 8-8zm0-64h24c4.4183 0 8 3.5817 8 8v24c0 4.4183-3.5817 8-8 8h-24c-4.4183 0-8-3.5817-8-8v-24c-5.4108e-16 -4.4183 3.5817-8 8-8zm0-64h24c4.4183-8.1162e-16 8 3.5817 8 8v24c0 4.4183-3.5817 8-8 8h-24c-4.4183 0-8-3.5817-8-8v-24c-5.4108e-16 -4.4183 3.5817-8 8-8z"/>
<filter id="folder-video-stack-512px-j" x="-5%" y="-.9%" width="110%" height="103.4%">
<feOffset dy="4" in="SourceAlpha" result="shadowOffsetOuter1"/>
<feColorMatrix in="shadowOffsetOuter1" values="0 0 0 0 1   0 0 0 0 1   0 0 0 0 1  0 0 0 0.05 0"/>
</filter>
<filter id="folder-video-stack-512px-l" x="-5%" y="-.9%" width="110%" height="103.4%">
<feOffset dy="4" in="SourceAlpha" result="shadowOffsetInner1"/>
<feComposite in="shadowOffsetInner1" in2="SourceAlpha" k2="-1" k3="1" operator="arithmetic" result="shadowInnerInner1"/>
<feColorMatrix in="shadowInnerInner1" values="0 0 0 0 0   0 0 0 0 0   0 0 0 0 0  0 0 0 0.2 0"/>
</filter>
<path id="folder-video-stack-512px-n" d="m352 192h24c4.4183 0 8 3.5817 8 8v24c0 4.4183-3.5817 8-8 8h-24c-4.4183 0-8-3.5817-8-8v-24c0-4.4183 3.5817-8 8-8zm0-64h24c4.4183 0 8 3.5817 8 8v24c0 4.4183-3.5817 8-8 8h-24c-4.4183 0-8-3.5817-8-8v-24c0-4.4183 3.5817-8 8-8zm0-64h24c4.4183 0 8 3.5817 8 8v24c0 4.4183-3.5817 8-8 8h-24c-4.4183 0-8-3.5817-8-8v-24c0-4.4183 3.5817-8 8-8zm0-64h24c4.4183-8.1162e-16 8 3.5817 8 8v24c0 4.4183-3.5817 8-8 8h-24c-4.4183 0-8-3.5817-8-8v-24c0-4.4183 3.5817-8 8-8z"/>
<filter id="folder-video-stack-512px-m" x="-5%" y="-.9%" width="110%" height="103.4%">
<feOffset dy="4" in="SourceAlpha" result="shadowOffsetOuter1"/>
<feColorMatrix in="shadowOffsetOuter1" values="0 0 0 0 1   0 0 0 0 1   0 0 0 0 1  0 0 0 0.05 0"/>
</filter>
<filter id="folder-video-stack-512px-o" x="-5%" y="-.9%" width="110%" height="103.4%">
<feOffset dy="4" in="SourceAlpha" result="shadowOffsetInner1"/>
<feComposite in="shadowOffsetInner1" in2="SourceAlpha" k2="-1" k3="1" operator="arithmetic" result="shadowInnerInner1"/>
<feColorMatrix in="shadowInnerInner1" values="0 0 0 0 0   0 0 0 0 0   0 0 0 0 0  0 0 0 0.2 0"/>
</filter>
<linearGradient id="folder-video-stack-512px-p" x1="35.805%" x2="50%" y2="100%">
<stop stop-color="#FFE00B" offset="0"/>
<stop stop-color="#D38700" offset="1"/>
</linearGradient>
<filter id="folder-video-stack-512px-q" x="-187.5%" y="-136.4%" width="475%" height="372.7%">
<feGaussianBlur in="SourceGraphic" stdDeviation="40"/>
</filter>
<filter id="filter992" x="-.042327" y="-.10301" width="1.0847" height="1.206" color-interpolation-filters="sRGB">
<feGaussianBlur stdDeviation="7.125"/>
</filter>
<linearGradient id="linearGradient966" x1="-260" x2="-260" y1="372" y2="437.97" gradientUnits="userSpaceOnUse">
<stop stop-color="#797979" offset="0"/>
<stop stop-color="#8f6823" offset="1"/>
</linearGradient>
<linearGradient id="linearGradient965" x1="162.91" x2="207.74" y1="-15.435" y2="300.33" gradientTransform="scale(.96275 1.0387)" gradientUnits="userSpaceOnUse" xlink:href="#folder-video-stack-512px-p"/>
<linearGradient id="linearGradient967" x1="223.84" x2="235.42" y1="78.627" y2="160.16" gradientTransform="scale(.8528 1.1726)" gradientUnits="userSpaceOnUse" xlink:href="#folder-video-stack-512px-p"/>
</defs>
<path d="m280.17 113.8c-5.7548-13.236-18.813-21.797-33.246-21.797h-156.92c-29.823 0-54 24.177-54 54v272c0 29.823 24.177 54 54 54h332c29.823 0 54-24.177 54-54v-226c0-29.823-24.177-54-54-54h-104.92c-16.025 0-30.524-9.5061-36.914-24.203z" fill="#262626" fill-rule="evenodd" filter="url(#folder-video-stack-512px-a)" stroke="url(#folder-video-stack-512px-b)" stroke-width="4"/>
<g transform="translate(532,-214)" fill-rule="evenodd">
<rect x="-478" y="368" width="404" height="166" rx="36" ry="36" fill-opacity=".2" filter="url(#filter992)" style="paint-order:stroke fill markers"/>
<rect x="-478" y="366" width="404" height="166" rx="36" ry="36" fill="url(#linearGradient966)" style="paint-order:stroke fill markers"/>
<path d="m-442 366c-19.944 0-36 16.056-36 36v4c0-19.944 16.056-36 36-36h332c19.944 0 36 16.056 36 36v-4c0-19.944-16.056-36-36-36z" opacity=".5" style="paint-order:stroke fill markers"/>
</g>
<g transform="translate(34,182)" fill="none" fill-rule="evenodd" filter="url(#folder-video-stack-512px-a)">
<mask id="folder-video-stack-512px-i" fill="#fff">
<use width="100%" height="100%" xlink:href="#folder-video-stack-512px-f"/>
</mask>
<use width="100%" height="100%" fill="url(#folder-video-stack-512px-g)" xlink:href="#folder-video-stack-512px-f"/>
<use width="100%" height="100%" fill="#000000" filter="url(#folder-video-stack-512px-h)" xlink:href="#folder-video-stack-512px-f"/>
<g mask="url(#folder-video-stack-512px-i)">
<g transform="translate(30)">
<g transform="translate(0,26)">
<use width="100%" height="100%" fill="#000000" filter="url(#folder-video-stack-512px-j)" xlink:href="#folder-video-stack-512px-k"/>
<use width="100%" height="100%" fill="#1b1b1b" xlink:href="#folder-video-stack-512px-k"/>
<use width="100%" height="100%" fill="#000000" filter="url(#folder-video-stack-512px-l)" xlink:href="#folder-video-stack-512px-k"/>
<use width="100%" height="100%" fill="#000000" filter="url(#folder-video-stack-512px-m)" xlink:href="#folder-video-stack-512px-n"/>
<use width="100%" height="100%" fill="#1b1b1b" xlink:href="#folder-video-stack-512px-n"/>
<use width="100%" height="100%" fill="#000000" filter="url(#folder-video-stack-512px-o)" xlink:href="#folder-video-stack-512px-n"/>
</g>
<rect x="72" width="240" height="40" rx="4" fill="#000" fill-opacity=".2"/>
<rect x="72" y="56" width="240" height="180" rx="4" fill="#000" fill-opacity=".2"/>
<rect x="72" y="252" width="240" height="40" rx="4" fill="#000" fill-opacity=".2"/>
<polygon points="168 104 232 148 168 192" fill="url(#linearGradient965)" filter="url(#folder-video-stack-512px-q)"/>
<polygon points="168 96 232 140 168 184" fill="url(#linearGradient967)" stroke="#ffd400" stroke-width="4"/>
</g>
</g>
</g>
</svg>
