<svg width="512" height="512" version="1.1" viewBox="0 0 512 512" xmlns="http://www.w3.org/2000/svg" xmlns:xlink="http://www.w3.org/1999/xlink">
<defs>
<filter id="folder-applications-stack-512px-a" x="-12.2%" y="-14.1%" width="124.3%" height="128.1%">
<feOffset dy="8" in="SourceAlpha" result="shadowOffsetOuter1"/>
<feGaussianBlur in="shadowOffsetOuter1" result="shadowBlurOuter1" stdDeviation="10"/>
<feComposite in="shadowBlurOuter1" in2="SourceAlpha" operator="out" result="shadowBlurOuter1"/>
<feColorMatrix in="shadowBlurOuter1" result="shadowMatrixOuter1" values="0 0 0 0 0   0 0 0 0 0   0 0 0 0 0  0 0 0 0.2 0"/>
<feMerge>
<feMergeNode in="shadowMatrixOuter1"/>
<feMergeNode in="SourceGraphic"/>
</feMerge>
</filter>
<radialGradient id="folder-applications-stack-512px-g" cx="180.03" cy="0" r="349.85" gradientTransform="scale(1.2331 .81096)" gradientUnits="userSpaceOnUse">
<stop stop-color="#7859FF" offset="0"/>
<stop stop-color="#5A2DFF" offset="1"/>
</radialGradient>
<path id="folder-applications-stack-512px-f" d="m0 0h444v236c0 30.928-25.072 56-56 56h-332c-30.928 0-56-25.072-56-56v-236z"/>
<linearGradient id="folder-applications-stack-512px-i" x1="66.942%" x2="46.177%" y1="57.383%" y2="40.193%">
<stop stop-color="#5700FC" offset="0"/>
<stop stop-color="#5867FF" stop-opacity="0" offset="1"/>
</linearGradient>
<linearGradient id="folder-applications-stack-512px-j" x1="128.54" x2="65.159" y1="161.76" y2="75.349" gradientTransform="scale(.87447 1.1435)" gradientUnits="userSpaceOnUse">
<stop stop-color="#D1C0FF" offset="0"/>
<stop stop-color="#8375FF" offset="1"/>
</linearGradient>
<linearGradient id="folder-applications-stack-512px-k" x1="60.702%" x2="44.657%" y1="25.945%" y2="86.932%">
<stop stop-color="#5C3FFF" offset="0"/>
<stop stop-color="#816AFF" stop-opacity=".054" offset="1"/>
</linearGradient>
<linearGradient id="folder-applications-stack-512px-l" x1="50%" x2="50%" y1="-22.147%" y2="100%">
<stop stop-color="#B6A2FF" offset="0"/>
<stop stop-color="#6249F0" offset="1"/>
</linearGradient>
<linearGradient id="folder-applications-stack-512px-m" x1="83.112" x2="83.112" y2="506.78" gradientTransform="scale(1.6128 .62006)" gradientUnits="userSpaceOnUse">
<stop stop-color="#FFF" stop-opacity=".8" offset="0"/>
<stop stop-color="#882AFF" stop-opacity=".117" offset="1"/>
</linearGradient>
<linearGradient id="folder-applications-stack-512px-n" x1="163.11" x2="163.11" y1="-20.209" y2="91.248" gradientTransform="scale(1.1406 .87673)" gradientUnits="userSpaceOnUse">
<stop stop-color="#CAA2FF" stop-opacity=".3" offset="0"/>
<stop stop-color="#6249F0" offset="1"/>
</linearGradient>
<linearGradient id="folder-applications-stack-512px-o" x1="83.112" x2="83.112" y1="5.2538e-9" y2="129.02" gradientTransform="scale(1.6128 .62006)" gradientUnits="userSpaceOnUse">
<stop stop-color="#FFF" stop-opacity=".1" offset="0"/>
<stop stop-color="#C6B9FF" offset="1"/>
</linearGradient>
<linearGradient id="folder-applications-stack-512px-p" x1="175.27" x2="247.47" y1="136.06" y2="118.12" gradientTransform="scale(.87447 1.1435)" gradientUnits="userSpaceOnUse">
<stop stop-color="#B9B7FF" offset="0"/>
<stop stop-color="#8174FF" offset="1"/>
</linearGradient>
<linearGradient id="folder-applications-stack-512px-q" x1="13.436%" x2="86.63%" y1="36.722%" y2="62.456%">
<stop stop-color="#330C95" stop-opacity="0" offset="0"/>
<stop stop-color="#7F00FF" stop-opacity=".5" offset="1"/>
</linearGradient>
<filter id="filter992" x="-.042327" y="-.10301" width="1.0847" height="1.206" color-interpolation-filters="sRGB">
<feGaussianBlur stdDeviation="7.125"/>
</filter>
<linearGradient id="linearGradient966" x1="-260" x2="-260" y1="372" y2="392" gradientUnits="userSpaceOnUse">
<stop stop-color="#fff" offset="0"/>
<stop stop-color="#cef5ff" offset="1"/>
</linearGradient>
<linearGradient id="linearGradient1058" x1="126.22" x2="87.065" y1="469.54" y2="437.13" gradientTransform="scale(1.6132 .6199)" gradientUnits="userSpaceOnUse" xlink:href="#folder-applications-stack-512px-i"/>
<linearGradient id="linearGradient1060" x1="185.73" x2="146.58" y1="469.54" y2="437.13" gradientTransform="scale(1.6132 .6199)" gradientUnits="userSpaceOnUse" xlink:href="#folder-applications-stack-512px-i"/>
<linearGradient id="linearGradient1062" x1="96.646" x2="79.329" y1="66.546" y2="132.37" gradientTransform="scale(.96362 1.0377)" gradientUnits="userSpaceOnUse" xlink:href="#folder-applications-stack-512px-k"/>
<linearGradient id="linearGradient1064" x1="55.111" x2="55.111" y1="25.184" y2="157.16" gradientTransform="scale(1.2278 .81444)" gradientUnits="userSpaceOnUse" xlink:href="#folder-applications-stack-512px-l"/>
<linearGradient id="linearGradient1066" x1="204.57" x2="187.25" y1="66.546" y2="132.37" gradientTransform="scale(.96362 1.0377)" gradientUnits="userSpaceOnUse" xlink:href="#folder-applications-stack-512px-k"/>
<linearGradient id="linearGradient1068" x1="163.16" x2="163.16" y1="25.184" y2="157.16" gradientTransform="scale(1.2278 .81444)" gradientUnits="userSpaceOnUse" xlink:href="#folder-applications-stack-512px-l"/>
<linearGradient id="linearGradient1070" x1="15.604" x2="94.689" y1="88.791" y2="116.6" gradientTransform="scale(1.2278 .81444)" gradientUnits="userSpaceOnUse" xlink:href="#folder-applications-stack-512px-q"/>
<linearGradient id="linearGradient1072" x1="123.65" x2="202.74" y1="88.791" y2="116.6" gradientTransform="scale(1.2278 .81444)" gradientUnits="userSpaceOnUse" xlink:href="#folder-applications-stack-512px-q"/>
</defs>
<path d="m282 113c6.0723 13.966 19.851 23 35.08 23h104.92c30.928 0 56 25.072 56 56v226c0 30.928-25.072 56-56 56h-332c-30.928 0-56-25.072-56-56v-272c0-30.928 25.072-56 56-56h156.92c15.229 0 29.008 9.0338 35.08 23z" fill="#4a00d5" fill-rule="evenodd" filter="url(#folder-applications-stack-512px-a)"/>
<g transform="translate(532,-212)" fill-rule="evenodd">
<rect x="-478" y="368" width="404" height="166" rx="36" ry="36" fill-opacity=".2" filter="url(#filter992)" style="paint-order:stroke fill markers"/>
<rect x="-478" y="366" width="404" height="166" rx="36" ry="36" fill="url(#linearGradient966)" style="paint-order:stroke fill markers"/>
<path d="m-442 366c-19.944 0-36 16.056-36 36v4c0-19.944 16.056-36 36-36h332c19.944 0 36 16.056 36 36v-4c0-19.944-16.056-36-36-36z" opacity=".5" style="paint-order:stroke fill markers"/>
</g>
<g transform="translate(34,182)" fill="none" fill-rule="evenodd" filter="url(#folder-applications-stack-512px-a)">
<mask id="folder-applications-stack-512px-h" fill="#fff">
<use width="100%" height="100%" xlink:href="#folder-applications-stack-512px-f"/>
</mask>
<use width="100%" height="100%" fill="url(#folder-applications-stack-512px-g)" xlink:href="#folder-applications-stack-512px-f"/>
<g mask="url(#folder-applications-stack-512px-h)">
<g transform="translate(20,-36)">
<polygon points="304.16 300.88 104.08 224 0 264 200.08 340.88" fill="url(#linearGradient1058)"/>
<polygon transform="matrix(-1 0 0 1 496.16 0)" points="400.16 300.88 200.08 224 96 264 296.08 340.88" fill="url(#linearGradient1060)"/>
<g transform="translate(66,104)">
<path d="m134 80v136l-104-40v-76.974l75.334 28.974z" fill="url(#folder-applications-stack-512px-j)"/>
<polygon points="110 152 30 121.24 30 40 134 80" fill="url(#linearGradient1062)" opacity=".5"/>
<polygon points="105.33 128 1.334 88 30 40 134 80" fill="url(#linearGradient1064)"/>
<polygon points="238.08 40 134.08 0 30 40 134 80" fill="url(#folder-applications-stack-512px-m)"/>
<polygon points="134.08 0 134 80 238.08 40" fill="url(#folder-applications-stack-512px-n)"/>
<path d="m32.787 40 101.21 38.928 101.29-38.929-101.21-38.928z" stroke="url(#folder-applications-stack-512px-o)" stroke-width="2"/>
<path d="m238 99.026v76.974l-104 40v-136l28.666 48z" fill="url(#folder-applications-stack-512px-p)"/>
<polygon transform="matrix(-1,0,0,1,372,0)" points="214 152 134 121.24 134 40 238 80" fill="url(#linearGradient1066)" opacity=".5"/>
<polygon transform="matrix(-1 0 0 1 400.67 0)" points="238 128 134 88 162.67 40 266.67 80" fill="url(#linearGradient1068)"/>
<path d="m30.854 42.471-26.585 44.515 100.21 38.543 26.585-44.515zm-0.8537-2.4712 104 40-28.666 48-104-40z" fill="url(#linearGradient1070)" fill-rule="nonzero"/>
<path transform="matrix(-1 0 0 1 400.67 0)" d="m263.73 81.014-100.21-38.543-26.585 44.515 100.21 38.543zm-101.06-41.014 104 40-28.666 48-104-40z" fill="url(#linearGradient1072)" fill-rule="nonzero"/>
</g>
<g transform="translate(16)">
<circle cx="232" cy="104" r="8" fill="#ffd506"/>
<circle cx="124" cy="92" r="4" fill="#ff00fe"/>
<circle cx="16" cy="80" r="8" fill="#4000e0"/>
<rect transform="rotate(23,170.49,50.49)" x="162.49" y="42.49" width="16" height="16" fill="#4000e0"/>
<rect transform="rotate(23 330.71 133.24)" x="326.71" y="129.24" width="8" height="8" fill="#eb5959"/>
<rect transform="rotate(45 197.66 149.66)" x="193.66" y="145.66" width="8" height="8" fill="#4000e0"/>
<rect transform="rotate(45 181.66 157.66)" x="177.66" y="153.66" width="8" height="8" fill="#ff00fe" opacity=".2"/>
<rect transform="rotate(45 165.66 165.66)" x="161.66" y="161.66" width="8" height="8" fill="#8a0991"/>
<rect transform="rotate(45 189.66 173.66)" x="185.66" y="169.66" width="8" height="8" fill="#ffd506"/>
<circle cx="196" cy="124" r="4" fill="#fff"/>
<circle cx="212" cy="156" r="4" fill="#6d39ff"/>
<circle cx="164" cy="156" r="4" fill="#fff"/>
<rect transform="rotate(45 197.66 85.657)" x="193.66" y="81.657" width="8" height="8" fill="#8a0991"/>
<rect transform="rotate(72 174.28 136.84)" x="166.28" y="132.84" width="16" height="8" fill="#fff" opacity=".6"/>
<rect transform="rotate(45 221.66 77.657)" x="217.66" y="73.657" width="8" height="8" fill="#6d39ff"/>
<rect transform="rotate(45,93.657,93.657)" x="89.657" y="89.657" width="8" height="8" fill="#4000e0"/>
<rect transform="rotate(45 149.66 101.66)" x="145.66" y="97.657" width="8" height="8" fill="#9757ff"/>
<rect transform="rotate(45,93.657,77.657)" x="89.657" y="73.657" width="8" height="8" fill="#ffd506"/>
<rect transform="rotate(45 269.66 104)" x="261.66" y="96" width="16" height="16" fill="#7dac00" opacity=".9"/>
<rect transform="rotate(45 261.66 85.657)" x="257.66" y="81.657" width="8" height="8" fill="#8a0991"/>
<rect transform="rotate(45 249.46 144.48)" x="245.46" y="136.48" width="8" height="16" fill="#00c894"/>
<rect transform="rotate(45 128 154.34)" x="124" y="150.34" width="8" height="8" fill="#6d39ff"/>
<rect transform="rotate(45 160 146.34)" x="156" y="142.34" width="8" height="8" fill="#ff00fe" opacity=".3"/>
<rect transform="rotate(76 232 154.34)" x="228" y="150.34" width="8" height="8" fill="#fff" opacity=".3"/>
<rect transform="rotate(45 219.31 139.31)" x="211.31" y="131.31" width="16" height="16" fill="#9757ff"/>
<rect transform="rotate(45,248.97,48.97)" x="236.97" y="36.971" width="24" height="24" fill="#00c894"/>
<rect transform="rotate(24 330.41 26.406)" x="310.41" y="6.406" width="40" height="40" fill="#396eff"/>
<rect transform="rotate(-51,43.42,33.755)" x="19.42" y="9.755" width="48" height="48" fill="#88a1ff"/>
<rect transform="rotate(45,16.97,112.97)" x="4.971" y="100.97" width="24" height="24" fill="#ff8100" fill-opacity=".8"/>
<rect transform="rotate(23 90.714 173.24)" x="86.714" y="169.24" width="8" height="8" fill="#7dac00" opacity=".5"/>
<rect transform="rotate(45 94.142 136.48)" x="86.142" y="132.48" width="16" height="8" fill="#ff00fe"/>
<polygon points="60.196 113.24 56.392 109.53 61.649 108.76 64 104 66.351 108.76 71.608 109.53 67.804 113.24 68.702 118.47 64 116 59.298 118.47" fill="#fe002e"/>
<polygon transform="rotate(-37 235.2 123.2)" points="231.4 124.44 227.6 120.73 232.85 119.97 235.2 115.2 237.56 119.97 242.81 120.73 239.01 124.44 239.91 129.68 235.2 127.2 230.5 129.68" fill="#fe002e"/>
<polygon transform="rotate(-37 147.2 43.204)" points="143.4 44.44 139.6 40.731 144.85 39.968 147.2 35.204 149.56 39.968 154.81 40.731 151.01 44.44 151.91 49.676 147.2 47.204 142.5 49.676" fill="#fe002e"/>
<polygon transform="rotate(-37 163.2 115.2)" points="159.4 116.44 155.6 112.73 160.85 111.97 163.2 107.2 165.56 111.97 170.81 112.73 167.01 116.44 167.91 121.68 163.2 119.2 158.5 121.68" fill="#fe9d0b"/>
<polygon transform="rotate(-37 224.8 27.99)" points="219.1 29.845 213.39 24.283 221.28 23.137 224.8 15.991 228.33 23.137 236.22 24.283 230.51 29.845 231.86 37.699 224.8 33.991 217.75 37.699" fill="#fe9d0b"/>
<polygon transform="rotate(-37 176.8 171.99)" points="174.9 172.61 173 170.76 175.63 170.37 176.8 167.99 177.98 170.37 180.61 170.76 178.71 172.61 179.16 175.23 176.8 173.99 174.45 175.23" fill="#fe9d0b"/>
<polygon transform="rotate(-13 204.8 164.8)" points="202.9 165.42 200.99 163.56 203.62 163.18 204.8 160.8 205.97 163.18 208.6 163.56 206.7 165.42 207.15 168.03 204.8 166.8 202.45 168.03" fill="#fe9d0b"/>
<polygon transform="rotate(45 310.14 86.142)" points="318.14 98.142 302.14 98.142 302.14 74.142 318.14 74.142" fill="#88a1ff" opacity=".8"/>
<polygon transform="rotate(-18,103.12,44.649)" points="115.12 56.649 91.121 56.649 91.121 32.649 115.12 32.649" fill="#00c894"/>
<polygon transform="rotate(7,130.08,114.08)" points="138.08 122.08 122.08 122.08 122.08 106.08 138.08 106.08" fill="#eb5959"/>
</g>
</g>
</g>
</g>
</svg>
