<svg width="24" height="24" version="1.1" viewBox="0 0 24 24" xmlns="http://www.w3.org/2000/svg">
<title>deepin-font-installer</title>
<defs>
<filter id="a" color-interpolation-filters="sRGB">
<feFlood flood-opacity=".196" result="flood"/>
<feComposite in="flood" in2="SourceGraphic" operator="in" result="composite1"/>
<feGaussianBlur in="composite1" result="blur" stdDeviation=".5"/>
<feOffset dx="0" dy=".5" result="offset"/>
<feComposite in="SourceGraphic" in2="offset" result="composite2"/>
</filter>
</defs>
<g fill-rule="evenodd">
<path d="m19 22h-14s-1 0-1-1v-18c0-1 1-1 1-1h10.005l4.995 5v14c0 1-1 1-1 1z" fill="#e5b400" filter="url(#a)"/>
<path d="m13.658 13h-3.638v-0.444c0.32-0.02 0.586-0.063 0.797-0.125 0.211-0.063 0.317-0.14 0.317-0.232a0.944 0.944 0 0 0-0.05-0.281l-0.726-1.989h-3.06c-0.114 0.292-0.207 0.546-0.28 0.763-0.071 0.217-0.136 0.417-0.193 0.6-0.053 0.18-0.09 0.326-0.11 0.438-0.021 0.113-0.032 0.205-0.032 0.276 0 0.166 0.13 0.296 0.388 0.387 0.259 0.092 0.55 0.146 0.874 0.163v0.444h-3.287v-0.444a2.55 2.55 0 0 0 0.4-0.072c0.16-0.04 0.291-0.093 0.394-0.16 0.164-0.112 0.291-0.23 0.382-0.353 0.09-0.123 0.178-0.293 0.264-0.51 0.44-1.113 0.924-2.364 1.453-3.752l1.416-3.709h0.493l2.911 7.655c0.062 0.163 0.132 0.294 0.21 0.394s0.186 0.198 0.326 0.294c0.094 0.059 0.217 0.108 0.37 0.147 0.151 0.04 0.278 0.062 0.381 0.066zm-3.469-3.76-1.336-3.418-1.311 3.418zm9.515 3.491c-0.195 0.07-0.366 0.128-0.513 0.172a1.753 1.753 0 0 1-0.5 0.066c-0.323 0-0.581-0.076-0.774-0.229-0.193-0.152-0.316-0.374-0.37-0.666h-0.037c-0.27 0.3-0.558 0.53-0.867 0.688-0.309 0.159-0.68 0.238-1.115 0.238-0.46 0-0.838-0.142-1.135-0.425-0.296-0.284-0.444-0.655-0.444-1.114 0-0.238 0.033-0.45 0.1-0.638 0.066-0.188 0.165-0.357 0.298-0.507 0.103-0.125 0.24-0.237 0.41-0.335s0.33-0.176 0.478-0.234c0.187-0.071 0.565-0.202 1.135-0.394s0.954-0.342 1.152-0.45v-0.62c0-0.054-0.01-0.159-0.034-0.313s-0.071-0.3-0.146-0.438a1.243 1.243 0 0 0-0.35-0.403c-0.152-0.115-0.367-0.172-0.644-0.172-0.19 0-0.368 0.032-0.531 0.097a0.963 0.963 0 0 0-0.345 0.203c0 0.083 0.02 0.206 0.059 0.37s0.059 0.312 0.059 0.45c0 0.145-0.066 0.279-0.196 0.4-0.13 0.12-0.312 0.181-0.544 0.181-0.207 0-0.36-0.074-0.457-0.222a0.885 0.885 0 0 1-0.146-0.497 0.89 0.89 0 0 1 0.202-0.55c0.135-0.176 0.31-0.332 0.525-0.47 0.187-0.117 0.413-0.216 0.678-0.297s0.524-0.122 0.777-0.122c0.348 0 0.651 0.024 0.91 0.072 0.26 0.048 0.494 0.151 0.706 0.31 0.21 0.154 0.371 0.363 0.481 0.628s0.165 0.606 0.165 1.023c0 0.597-6e-3 1.125-0.019 1.586-0.012 0.461-0.018 0.965-0.018 1.51 0 0.164 0.028 0.293 0.083 0.389a0.682 0.682 0 0 0 0.258 0.244 0.63 0.63 0 0 0 0.296 0.062c0.134 5e-3 0.272 7e-3 0.413 7e-3zm-2.17-3.28c-0.351 0.104-0.66 0.205-0.925 0.305s-0.512 0.224-0.74 0.373c-0.207 0.14-0.37 0.307-0.49 0.5s-0.18 0.422-0.18 0.687c0 0.344 0.09 0.596 0.27 0.758a0.99 0.99 0 0 0 0.686 0.242c0.294 0 0.553-0.071 0.777-0.214a2.26 2.26 0 0 0 0.566-0.507z" fill="#fff" filter="url(#a)"/>
<path d="m16 7s-1 0-1-1v-4l5 5z" fill="#ffe587" filter="url(#a)"/>
<rect x="3" y="9" width="18" height="13" rx=".5" fill="#d0dfed" filter="url(#a)"/>
<path d="m22.75 14h-21.5a0.5 0.5 0 0 1-0.462-0.692l2.212-5.308h18l2.211 5.308a0.5 0.5 0 0 1-0.461 0.692z" fill="#ccdcea" filter="url(#a)"/>
<path d="m22 13h-20l2-5h16z" fill="#fff" filter="url(#a)"/>
</g>
</svg>
