<svg width="24" height="24" version="1.1" viewBox="0 0 24 24" xmlns="http://www.w3.org/2000/svg" xmlns:xlink="http://www.w3.org/1999/xlink">
<defs>
<filter id="preference-system-a" x="-11.4%" y="-11.4%" width="122.7%" height="122.7%">
<feOffset in="SourceAlpha" result="shadowOffsetOuter1"/>
<feGaussianBlur in="shadowOffsetOuter1" result="shadowBlurOuter1" stdDeviation=".5"/>
<feComposite in="shadowBlurOuter1" in2="SourceAlpha" operator="out" result="shadowBlurOuter1"/>
<feColorMatrix in="shadowBlurOuter1" result="shadowMatrixOuter1" values="0 0 0 0 0   0 0 0 0 0   0 0 0 0 0  0 0 0 0.15 0"/>
<feMerge>
<feMergeNode in="shadowMatrixOuter1"/>
<feMergeNode in="SourceGraphic"/>
</feMerge>
</filter>
<linearGradient id="preference-system-b" x1="11.595" x2="10.548" y1="22.728" gradientTransform="translate(1,1)" gradientUnits="userSpaceOnUse">
<stop stop-color="#444" offset=".01926"/>
<stop stop-color="#808080" offset="1"/>
</linearGradient>
<circle id="preference-system-c" cx="11.262" cy="11.262" r="7.071"/>
<filter id="preference-system-d" x="-7.1%" y="-7.1%" width="114.1%" height="114.1%">
<feGaussianBlur in="SourceAlpha" result="shadowBlurInner1" stdDeviation=".5"/>
<feOffset dy="1" in="shadowBlurInner1" result="shadowOffsetInner1"/>
<feComposite in="shadowOffsetInner1" in2="SourceAlpha" k2="-1" k3="1" operator="arithmetic" result="shadowInnerInner1"/>
<feColorMatrix in="shadowInnerInner1" values="0 0 0 0 0   0 0 0 0 0   0 0 0 0 0  0 0 0 0.5 0"/>
</filter>
<path id="preference-system-f" d="m10.668 3.9809c0.36961 0.044133 0.72885 0.12203 1.0746 0.23051l-0.072205 0.81073c0.2784 0.10312 0.54521 0.23059 0.79792 0.37986l0.60377-0.58491c0.30989 0.19022 0.60108 0.40793 0.87018 0.64974l-0.44086 0.74505c0.21234 0.21666 0.40544 0.45265 0.57651 0.70514l0.86617-0.28595c0.19372 0.29432 0.36211 0.60679 0.50207 0.93431l-0.78026 0.52048c0.10337 0.29545 0.18039 0.6035 0.22821 0.92127l0.98087 0.13415c0.032336 0.25164 0.049008 0.50818 0.049008 0.76862 0 0.087107-0.0018651 0.17378-0.0055576 0.25998l-0.99406 0.13474c-0.034202 0.3332-0.10035 0.6568-0.19528 0.9676l0.871 0.58262c-0.10922 0.3172-0.24441 0.62232-0.40303 0.9128l-0.99408-0.32758c-0.17824 0.29071-0.38477 0.56179-0.61571 0.80929l0.54627 0.92404c-0.23291 0.22843-0.48446 0.43793-0.75215 0.626l-0.76456-0.74163c-0.28994 0.18523-0.6 0.34112-0.92611 0.46355l0.095964 1.0731c-0.30366 0.097902-0.61793 0.17215-0.94066 0.22057l-0.3729-1.0064c-0.1711 0.017921-0.34477 0.027106-0.52056 0.027106-0.17579 0-0.34945-0.0091848-0.52056-0.027106l-0.37391 1.0063c-0.32238-0.048423-0.63632-0.12262-0.93966-0.22042l0.095964-1.0731c-0.32611-0.12243-0.63617-0.27832-0.92611-0.46355l-0.76557 0.74092c-0.26731-0.18789-0.51852-0.39714-0.75114-0.62528l0.54627-0.92404c-0.23094-0.2475-0.43747-0.51858-0.61571-0.80929l-0.99408 0.32758c-0.15879-0.29079-0.2941-0.59624-0.40338-0.91381l0.87135-0.58162c-0.094935-0.3108-0.16108-0.63439-0.19528-0.9676l-0.99406-0.13474c-0.0036925-0.086198-0.0055576-0.17287-0.0055576-0.25998 0-0.26044 0.016672-0.51698 0.049008-0.76862l0.98087-0.13415c0.047824-0.31777 0.12485-0.62583 0.22821-0.92127l-0.78026-0.52048c0.13996-0.32752 0.30835-0.63999 0.50207-0.93431l0.86617 0.28595c0.17107-0.25249 0.36418-0.48849 0.57651-0.70514l-0.4404-0.74546c0.26905-0.24171 0.56017-0.45933 0.86998-0.64948l0.60352 0.58506c0.2527-0.14927 0.51952-0.27674 0.79792-0.37986l-0.072205-0.81073c0.3457-0.10848 0.70494-0.18638 1.0746-0.23051l0.27899 0.75357c0.14384-0.012595 0.28942-0.019023 0.43648-0.019023 0.14706 0 0.29265 0.0064286 0.43648 0.019023zm-0.71548 1.8089c-2.1986 0-3.981 1.7823-3.981 3.981 0 2.1986 1.7823 3.981 3.981 3.981 2.1986 0 3.981-1.7823 3.981-3.981 0-2.1986-1.7823-3.981-3.981-3.981z"/>
<filter id="preference-system-e" x="-16.7%" y="-8.5%" width="133.5%" height="133.8%">
<feOffset dy="1" in="SourceAlpha" result="shadowOffsetOuter1"/>
<feGaussianBlur in="shadowOffsetOuter1" result="shadowBlurOuter1" stdDeviation=".5"/>
<feColorMatrix in="shadowBlurOuter1" values="0 0 0 0 0   0 0 0 0 0   0 0 0 0 0  0 0 0 0.2 0"/>
</filter>
<radialGradient id="preference-system-g" cx="9.9497" cy="9.954" r="10.028" gradientTransform="matrix(1.0002 0 0 .99975 2.048 2.048)" gradientUnits="userSpaceOnUse">
<stop stop-color="#E2E5ED" offset="0"/>
<stop stop-color="#9DA3B5" offset=".48405"/>
<stop stop-color="#E7ECFF" offset="1"/>
</radialGradient>
</defs>
<circle cx="12" cy="12" r="11" fill="url(#preference-system-b)" fill-rule="evenodd" filter="url(#preference-system-a)"/>
<g fill="#000000" fill-rule="evenodd">
<use transform="translate(1,1)" width="100%" height="100%" fill-opacity=".5" filter="url(#preference-system-a)" xlink:href="#preference-system-c"/>
<use transform="translate(1,1)" width="100%" height="100%" filter="url(#preference-system-d)" xlink:href="#preference-system-c"/>
<use transform="translate(2.048,2.048)" width="100%" height="100%" filter="url(#preference-system-e)" xlink:href="#preference-system-f"/>
</g>
<use transform="translate(2.048,2.048)" width="100%" height="100%" fill="#585f6c" fill-rule="evenodd" filter="url(#preference-system-a)" xlink:href="#preference-system-f"/>
<path d="m13.877 2.0656 0.57877 0.1314c0.25949 0.05891 0.43358 0.30301 0.40476 0.56753l-0.13368 1.2272c-0.02407 0.22099 0.09397 0.43311 0.29445 0.52914l0.68559 0.32838c0.20186 0.096685 0.44284 0.054433 0.59977-0.10516l0.85225-0.86672c0.18778-0.19097 0.48936-0.20952 0.69914-0.043023l0.46738 0.37096c0.20754 0.16473 0.25938 0.4585 0.12076 0.68431l-0.63938 1.0416c-0.11636 0.18955-0.10032 0.43192 0.04 0.60449l0.51287 0.63074c0.13986 0.172 0.37284 0.23734 0.58174 0.16314l1.1441-0.40638c0.25002-0.088805 0.52695 0.023356 0.64471 0.26112l0.26412 0.53327c0.11837 0.23899 0.03827 0.52877-0.18604 0.67304l-1.0056 0.6468c-0.18843 0.12119-0.27892 0.3488-0.22514 0.56629l0.21171 0.85617c0.05243 0.21203 0.23092 0.36927 0.44787 0.39455l1.2292 0.14323c0.25499 0.02971 0.45087 0.23984 0.46263 0.49629l0.02288 0.49896c5.76e-4 0.01256 6.99e-4 0.02514 3.7e-4 0.03771l-0.0067 0.25709c-0.0041 0.15835-0.12408 0.28957-0.28142 0.3079l-1.3602 0.1585c-0.22576 0.02631-0.40879 0.1952-0.45312 0.41813l-0.18388 0.92472c-0.04197 0.21106 0.04941 0.42631 0.2304 0.54272l1.051 0.67598c0.21823 0.14036 0.30082 0.41934 0.19416 0.65587l-0.22807 0.50579c-0.11205 0.2485-0.39596 0.36952-0.65283 0.27828l-1.0993-0.39045c-0.21564-0.07659-0.45605-0.0043-0.59373 0.17846l-0.59101 0.78468c-0.12953 0.17197-0.14064 0.40569-0.02801 0.58917l0.66096 1.0767c0.13598 0.22152 0.08895 0.50926-0.1105 0.67595l-0.40254 0.33642c-0.20939 0.17501-0.51807 0.15993-0.70941-0.03466l-0.83159-0.84571c-0.15978-0.16249-0.40628-0.20304-0.60969-0.10028l-0.89422 0.45175c-0.1948 0.09841-0.30817 0.30729-0.28453 0.52426l0.13593 1.2479c0.02861 0.26269-0.14291 0.50556-0.40005 0.56644l-0.4902 0.11606c-0.26191 0.06201-0.52818-0.08456-0.6159-0.33901l-0.39195-1.1371c-0.07633-0.22143-0.29039-0.36528-0.52425-0.3523l-0.45224 0.0251c-0.01934 0.0011-0.03872 0.0011-0.05806 0l-0.45224-0.0251c-0.23386-0.01298-0.44792 0.13087-0.52425 0.3523l-0.39195 1.1371c-0.08771 0.25445-0.35399 0.40102-0.6159 0.33901l-0.49021-0.11606c-0.25713-0.06088-0.42866-0.30375-0.40005-0.56644l0.13593-1.2479c0.023633-0.21696-0.089735-0.42584-0.28453-0.52426l-0.89422-0.45175c-0.20341-0.10276-0.44991-0.062217-0.60969 0.10028l-0.83159 0.84571c-0.19134 0.19459-0.50002 0.20967-0.70941 0.034658l-0.40251-0.33642c-0.19944-0.16669-0.24648-0.45442-0.1105-0.67595l0.66096-1.0767c0.11263-0.18348 0.10152-0.4172-0.028007-0.58917l-0.59101-0.78468c-0.13768-0.18279-0.37808-0.25505-0.59373-0.17846l-1.0993 0.39045c-0.25687 0.09124-0.54078-0.02978-0.65283-0.27828l-0.22807-0.50579c-0.10666-0.23654-0.024074-0.51551 0.19416-0.65587l1.051-0.67598c0.18099-0.1164 0.27237-0.33166 0.2304-0.54272l-0.18388-0.92472c-0.044329-0.22292-0.22736-0.39182-0.45312-0.41813l-1.3602-0.1585c-0.15734-0.018335-0.27727-0.14955-0.28142-0.3079l-0.00673-0.25709 3.705e-4 -0.03771 0.022885-0.49896c0.011762-0.25644 0.20764-0.46658 0.46263-0.49629l1.2292-0.14323c0.21695-0.02528 0.39544-0.18252 0.44787-0.39455l0.2117-0.85618c0.053778-0.21749-0.036714-0.4451-0.22514-0.56629l-1.0056-0.6468c-0.22431-0.14427-0.30441-0.43404-0.18604-0.67304l0.26412-0.53327c0.11776-0.23776 0.39469-0.34992 0.64471-0.26112l1.1441 0.40638c0.2089 0.074198 0.44188 0.00886 0.58174-0.16314l0.51287-0.63074c0.14032-0.17257 0.15636-0.41494 0.039997-0.60449l-0.63938-1.0416c-0.13862-0.22582-0.086776-0.51958 0.12076-0.68431l0.46738-0.37096c0.20978-0.1665 0.51136-0.14794 0.69914 0.043023l0.85225 0.86672c0.15693 0.15959 0.39791 0.20184 0.59977 0.10516l0.68559-0.32838c0.20049-0.096028 0.31853-0.30814 0.29445-0.52914l-0.13367-1.2272c-0.028814-0.26452 0.14528-0.50862 0.40476-0.56753l0.57877-0.1314c0.26066-0.059177 0.52407 0.087403 0.61118 0.34011l0.39271 1.1392c0.07603 0.22044 0.28861 0.3641 0.52149 0.3524 0.14181-0.00712 0.25892-0.010686 0.35135-0.010686 0.09244 0 0.20957 0.00356 0.3514 0.010689 0.23289 0.011662 0.44547-0.132 0.52146-0.35246l0.39269-1.1392c0.08711-0.2527 0.35052-0.39928 0.61118-0.34011zm-3.3848 11.054c-1.0122-1.7532-2.9302-2.6575-4.8212-2.4623-0.091427 0.43315-0.13951 0.88228-0.13951 1.3426 0 3.0167 2.065 5.5512 4.8586 6.2667 0.95423-1.5127 1.0585-3.4906 0.10211-5.1471zm7.8378-2.463c-1.8913-0.19437-3.809 0.70987-4.8212 2.463-0.9564 1.6565-0.85212 3.6344 0.10205 5.1474 2.7936-0.71574 4.8587-3.2502 4.8587-6.267 0-0.38834-0.03422-0.76869-0.09981-1.1382zm-6.3295 0.34737c-0.54966 0-0.99524 0.44558-0.99524 0.99524s0.44558 0.99524 0.99524 0.99524 0.99524-0.44558 0.99524-0.99524-0.44558-0.99524-0.99524-0.99524zm-1.2e-5 -5.4731c-1.7964 0-3.4218 0.73222-4.5944 1.9149 0.75016 1.7977 2.5247 3.0613 4.5944 3.0613s3.8442-1.2635 4.594-3.0617c-1.1722-1.1823-2.7976-1.9145-4.594-1.9145z" fill="url(#preference-system-g)" fill-rule="evenodd" filter="url(#preference-system-a)"/>
</svg>
