<svg width="24" height="24" version="1.1" viewBox="0 0 24 24" xmlns="http://www.w3.org/2000/svg">
<defs>
<filter id="deepin-picker-a" x="-11.4%" y="-11.4%" width="122.7%" height="122.7%">
<feOffset in="SourceAlpha" result="shadowOffsetOuter1"/>
<feGaussianBlur in="shadowOffsetOuter1" result="shadowBlurOuter1" stdDeviation=".5"/>
<feComposite in="shadowBlurOuter1" in2="SourceAlpha" operator="out" result="shadowBlurOuter1"/>
<feColorMatrix in="shadowBlurOuter1" result="shadowMatrixOuter1" values="0 0 0 0 0   0 0 0 0 0   0 0 0 0 0  0 0 0 0.15 0"/>
<feMerge>
<feMergeNode in="shadowMatrixOuter1"/>
<feMergeNode in="SourceGraphic"/>
</feMerge>
</filter>
<linearGradient id="deepin-picker-b" x1="11" x2="11" y2="21.158" gradientTransform="translate(1,1)" gradientUnits="userSpaceOnUse">
<stop stop-color="#2E2E2E" offset="0"/>
<stop stop-color="#121212" offset="1"/>
</linearGradient>
<linearGradient id="deepin-picker-c" x1="5.1734" x2="2.657" y1="2.6421" y2="5.5522" gradientTransform="scale(1.0036 .99641)" gradientUnits="userSpaceOnUse">
<stop stop-color="#7366FF" offset="0"/>
<stop stop-color="#1696FF" offset="1"/>
</linearGradient>
<linearGradient id="deepin-picker-d" x1="9.69" x2="6.2732" y1="2.1437" y2="2.1437" gradientTransform="scale(1.0338 .96727)" gradientUnits="userSpaceOnUse">
<stop stop-color="#8D47FF" offset="0"/>
<stop stop-color="#6671FF" offset="1"/>
</linearGradient>
<linearGradient id="deepin-picker-e" x1=".93912" x2="2.1278" y1="10.282" y2="6.2745" gradientTransform="scale(.97245 1.0283)" gradientUnits="userSpaceOnUse">
<stop stop-color="#30CED6" offset="0"/>
<stop stop-color="#28BCE3" offset=".31564"/>
<stop stop-color="#1696FF" offset="1"/>
</linearGradient>
<linearGradient id="deepin-picker-f" x1="1.1796" x2=".61171" y1="15.483" y2="11.509" gradientTransform="scale(1.04 .96151)" gradientUnits="userSpaceOnUse">
<stop stop-color="#7EE22C" offset="0"/>
<stop stop-color="#30D6B2" offset="1"/>
</linearGradient>
<linearGradient id="deepin-picker-g" x1="5.7036" x2="2.9807" y1="18.05" y2="16.044" gradientTransform="scale(1.0418 .95991)" gradientUnits="userSpaceOnUse">
<stop stop-color="#C1EA55" offset="0"/>
<stop stop-color="#74E126" offset="1"/>
</linearGradient>
<linearGradient id="deepin-picker-h" x1="10.017" x2="6.7326" y1="18.026" y2="18.026" gradientTransform="scale(1.0001 .99989)" gradientUnits="userSpaceOnUse">
<stop stop-color="#FBEF4D" offset="0"/>
<stop stop-color="#B9EA56" offset="1"/>
</linearGradient>
<linearGradient id="deepin-picker-i" x1="14.624" x2="12.08" y1="15.852" y2="17.064" gradientTransform="scale(.93275 1.0721)" gradientUnits="userSpaceOnUse">
<stop stop-color="#FFD600" offset="0"/>
<stop stop-color="#FFED58" offset="1"/>
</linearGradient>
<linearGradient id="deepin-picker-j" x1="17.111" x2="14.832" y1="14.652" y2="17.399" gradientTransform="scale(1.0011 .9989)" gradientUnits="userSpaceOnUse">
<stop stop-color="#FFC134" offset="0"/>
<stop stop-color="#FBE04D" offset="1"/>
</linearGradient>
<linearGradient id="deepin-picker-k" x1="17.077" x2="17.975" y1="15.157" y2="12.151" gradientTransform="scale(1.0721 .93276)" gradientUnits="userSpaceOnUse">
<stop stop-color="#F5B543" offset="0"/>
<stop stop-color="#EF7640" offset="1"/>
</linearGradient>
<linearGradient id="deepin-picker-l" x1="17.99" x2="17.308" y1="10.518" y2="7.2304" gradientTransform="scale(1.0019 .99813)" gradientUnits="userSpaceOnUse">
<stop stop-color="#EF7640" offset="0"/>
<stop stop-color="#FB563F" offset="1"/>
</linearGradient>
<linearGradient id="deepin-picker-m" x1="18.074" x2="15.856" y1="6.1154" y2="3.1628" gradientTransform="scale(.95907 1.0427)" gradientUnits="userSpaceOnUse">
<stop stop-color="#FB563F" offset="0"/>
<stop stop-color="#DA377B" offset="1"/>
</linearGradient>
<linearGradient id="deepin-picker-n" x1="15.046" x2="11.454" y1="2.2158" y2="1.6836" gradientTransform="scale(.96035 1.0413)" gradientUnits="userSpaceOnUse">
<stop stop-color="#DA377B" offset="0"/>
<stop stop-color="#894CEC" offset="1"/>
</linearGradient>
</defs>
<circle cx="12" cy="12" r="11" fill="url(#deepin-picker-b)" fill-rule="evenodd" filter="url(#deepin-picker-a)"/>
<g transform="translate(2,2)" fill-rule="evenodd" filter="url(#deepin-picker-a)">
<path d="m4.6276 1.5642 1.8709 3.0777c-0.75367 0.49354-1.3969 1.1418-1.8845 1.8997l-3.1288-1.788c0.79358-1.2853 1.87-2.3774 3.1425-3.1894z" fill="url(#deepin-picker-c)"/>
<path d="m5.5855 1.0247c1.3314-0.6561 2.8299-1.0247 4.4145-1.0247h0.01786v3.6c-0.005953-1.52e-5 -0.011906-2.33e-5 -0.01786-2.33e-5 -0.92295 0-1.8003 0.19537-2.5929 0.54701z" fill="url(#deepin-picker-d)"/>
<path d="m0.99716 5.6417 3.1412 1.785c-0.34618 0.78744-0.53833 1.6579-0.53833 2.5732 0 6e-3 8.1e-6 0.01191 2.44e-5 0.01786h-3.6v-0.01786c0-1.5623 0.35828-3.041 0.99716-4.3583z" fill="url(#deepin-picker-e)"/>
<path d="m0.050111 11.018h3.6304c0.13667 0.85522 0.44277 1.6539 0.8828 2.3605l-3.1384 1.812c-0.74209-1.2395-1.2246-2.656-1.3748-4.1725z" fill="url(#deepin-picker-f)"/>
<path d="m1.9822 16.023 3.1784-1.835c0.51065 0.58952 1.1272 1.0848 1.8201 1.4562l-1.8183 3.1495c-1.2498-0.68478-2.3331-1.6329-3.1801-2.7706z" fill="url(#deepin-picker-g)"/>
<path d="m6.0652 19.23 1.837-3.1818c0.65719 0.22791 1.363 0.35172 2.0978 0.35172 6e-3 0 0.01191-8e-6 0.01786-2.4e-5v3.5994c-0.037441 4.11e-4 -0.074925 6.18e-4 -0.11245 6.18e-4 -1.3662 0-2.6626-0.27397-3.8402-0.76996z" fill="url(#deepin-picker-h)"/>
<path d="m11.018 19.939v-3.6195c0.67819-0.10838 1.3208-0.32331 1.9102-0.62708l1.7844 3.0906c-1.1233 0.60779-2.3728 1.0101-3.6946 1.1559z" fill="url(#deepin-picker-i)"/>
<path d="m15.568 18.264-1.7889-3.0985c0.53031-0.38857 0.99857-0.85683 1.3871-1.3871l3.1084 1.7947c-0.72239 1.0579-1.6431 1.9724-2.7066 2.691z" fill="url(#deepin-picker-j)"/>
<path d="m18.797 14.72-3.1041-1.7922c0.30377-0.58937 0.5187-1.232 0.62708-1.9102h3.6283c-0.13698 1.3281-0.53888 2.5794-1.1512 3.7024z" fill="url(#deepin-picker-k)"/>
<path d="m20 10.018h-3.6c1.6e-5 -0.00595 2.4e-5 -0.011903 2.4e-5 -0.017857 0-0.73476-0.12382-1.4406-0.35172-2.0978l3.1546-1.8213c0.51316 1.2035 0.79716 2.5281 0.79716 3.9191v0.01786z" fill="url(#deepin-picker-l)"/>
<path d="m18.764 5.1798-3.1193 1.8009c-0.37142-0.69288-0.86668-1.3094-1.4562-1.8201l1.8211-3.1543c1.1272 0.84876 2.0692 1.9304 2.7543 3.1735z" fill="url(#deepin-picker-m)"/>
<path d="m15.179 1.444-1.8009 3.1193c-0.70663-0.44003-1.5053-0.74613-2.3605-0.8828v-3.6293c1.512 0.15285 2.9246 0.64254 4.1614 1.3929z" fill="url(#deepin-picker-n)"/>
</g>
</svg>
