<svg width="24" height="24" enable-background="new" version="1.1" viewBox="0 0 24 24" xmlns="http://www.w3.org/2000/svg" xmlns:xlink="http://www.w3.org/1999/xlink">
<defs>
<path id="system-shutdown-b" d="m2 12c0-5.5138 4.4857-10 10-10 5.5138 0 10 4.4862 10 10s-4.4862 10-10 10c-5.5143 0-10-4.4862-10-10z"/>
<radialGradient id="radialGradient854" cx="12" cy="13.497" r="7.7102" gradientUnits="userSpaceOnUse">
<stop stop-color="#E3F5FF" offset="0"/>
<stop stop-color="#FFF" offset="1"/>
</radialGradient>
<filter id="filter1080" x="-.048" y="-.048" width="1.096" height="1.096" color-interpolation-filters="sRGB">
<feGaussianBlur stdDeviation="0.40000002"/>
</filter>
</defs>
<g fill-rule="evenodd">
<use transform="matrix(1.15,0,0,1.15,-1.8,-1.8)" width="100%" height="100%" fill="#cccccc" filter="url(#filter1080)" stroke-width=".86957" xlink:href="#system-shutdown-b"/>
<use transform="matrix(1.1,0,0,1.1,-1.2,-1.2)" width="100%" height="100%" fill="url(#radialGradient854)" stroke-width=".90909" xlink:href="#system-shutdown-b"/>
<path d="m12.715 6.1659c0.36961 0.04413 0.72885 0.12203 1.0746 0.23051l-0.07221 0.81073c0.2784 0.10312 0.54521 0.23059 0.79792 0.37986l0.60377-0.58491c0.30989 0.19022 0.60108 0.40793 0.87018 0.64974l-0.44086 0.74505c0.21234 0.21666 0.40544 0.45265 0.57651 0.70514l0.86617-0.28595c0.19372 0.29432 0.36211 0.60679 0.50207 0.93431l-0.78026 0.52048c0.10337 0.29545 0.18039 0.6035 0.22821 0.92127l0.98087 0.13415c0.03234 0.25164 0.04901 0.50818 0.04901 0.76862 0 0.08711-0.0019 0.17378-0.0056 0.25998l-0.99406 0.13474c-0.0342 0.3332-0.10035 0.6568-0.19528 0.9676l0.871 0.58262c-0.10922 0.3172-0.24441 0.62232-0.40303 0.9128l-0.99408-0.32758c-0.17824 0.29071-0.38477 0.56179-0.61571 0.80929l0.54627 0.92404c-0.23291 0.22843-0.48446 0.43793-0.75215 0.626l-0.76456-0.74163c-0.28994 0.18523-0.6 0.34112-0.92611 0.46355l0.09596 1.0731c-0.30366 0.0979-0.61793 0.17215-0.94066 0.22057l-0.3729-1.0064c-0.1711 0.01792-0.34477 0.02711-0.52056 0.02711s-0.34945-0.0092-0.52056-0.02711l-0.37391 1.0063c-0.32238-0.04842-0.63632-0.12262-0.93966-0.22042l0.09596-1.0731c-0.32611-0.12243-0.63617-0.27832-0.92611-0.46355l-0.76557 0.74092c-0.26731-0.18789-0.51852-0.39714-0.75114-0.62528l0.54627-0.92404c-0.23094-0.2475-0.43747-0.51858-0.61571-0.80929l-0.99408 0.32758c-0.15879-0.29079-0.2941-0.59624-0.40338-0.91381l0.87135-0.58162c-0.09493-0.3108-0.16108-0.63439-0.19528-0.9676l-0.99406-0.13474c-0.0037-0.0862-0.0056-0.17287-0.0056-0.25998 0-0.26044 0.01667-0.51698 0.04901-0.76862l0.98087-0.13415c0.04782-0.31777 0.12485-0.62583 0.22821-0.92127l-0.78026-0.52048c0.13996-0.32752 0.30835-0.63999 0.50207-0.93431l0.86617 0.28595c0.17107-0.25249 0.36418-0.48849 0.57651-0.70514l-0.4404-0.74546c0.26905-0.24171 0.56017-0.45933 0.86998-0.64948l0.60352 0.58506c0.2527-0.14927 0.51952-0.27674 0.79792-0.37986l-0.07215-0.81073c0.3457-0.10848 0.70494-0.18638 1.0746-0.23051l0.27899 0.75357c0.14384-0.0126 0.28942-0.01902 0.43648-0.01902s0.29265 0.0064 0.43648 0.01902zm-0.71548 1.8089c-2.1986 0-3.981 1.7823-3.981 3.981 0 2.1986 1.7823 3.981 3.981 3.981 2.1986 0 3.981-1.7823 3.981-3.981 0-2.1986-1.7823-3.981-3.981-3.981z" fill="#0086ff"/>
</g>
</svg>
