<svg width="512" height="512" version="1.1" viewBox="0 0 512 512" xmlns="http://www.w3.org/2000/svg">
<defs>
<filter id="folder-home-512px-a" x="-12.2%" y="-14.1%" width="124.3%" height="128.1%">
<feOffset dy="8" in="SourceAlpha" result="shadowOffsetOuter1"/>
<feGaussianBlur in="shadowOffsetOuter1" result="shadowBlurOuter1" stdDeviation="10"/>
<feComposite in="shadowBlurOuter1" in2="SourceAlpha" operator="out" result="shadowBlurOuter1"/>
<feColorMatrix in="shadowBlurOuter1" result="shadowMatrixOuter1" values="0 0 0 0 0   0 0 0 0 0   0 0 0 0 0  0 0 0 0.2 0"/>
<feMerge>
<feMergeNode in="shadowMatrixOuter1"/>
<feMergeNode in="SourceGraphic"/>
</feMerge>
</filter>
<linearGradient id="folder-home-512px-b" x1="206.46" x2="206.46" y1="-3.0562e-14" y2="156.77" gradientTransform="matrix(1.0753 0 0 .92998 34 90)" gradientUnits="userSpaceOnUse">
<stop stop-color="#ba5638" offset="0"/>
<stop stop-color="#870b3d" offset="1"/>
</linearGradient>
<radialGradient id="folder-home-512px-g" cx="180.03" cy="0" r="423.4" gradientTransform="matrix(1.2331 0 0 .81096 34 182)" gradientUnits="userSpaceOnUse">
<stop stop-color="#ff774d" offset="0"/>
<stop stop-color="#ba0e55" offset="1"/>
</radialGradient>
<filter id="filter992" x="-.042327" y="-.10301" width="1.0847" height="1.206" color-interpolation-filters="sRGB">
<feGaussianBlur stdDeviation="7.125"/>
</filter>
<linearGradient id="linearGradient966" x1="-260" x2="-260" y1="372" y2="392" gradientTransform="translate(532,-214)" gradientUnits="userSpaceOnUse">
<stop stop-color="#fff" offset="0"/>
<stop stop-color="#fff8a3" offset="1"/>
</linearGradient>
<filter id="filter935-3" x="-.119" y="-.089251" width="1.238" height="1.1785" color-interpolation-filters="sRGB">
<feGaussianBlur stdDeviation="6.3465879"/>
</filter>
<linearGradient id="linearGradient1016-6" x1="32" x2="32" y1="30" y2="51" gradientTransform="matrix(7.9998 0 0 7.9998 .007968 -8.1769)" gradientUnits="userSpaceOnUse">
<stop stop-color="#FFF" offset="0"/>
<stop stop-color="#fff" stop-opacity=".6" offset="1"/>
</linearGradient>
</defs>
<path d="m282 113c6.0723 13.966 19.851 23 35.08 23h104.92c30.928 0 56 25.072 56 56v226c0 30.928-25.072 56-56 56h-332c-30.928 0-56-25.072-56-56v-272c0-30.928 25.072-56 56-56h156.92c15.229 0 29.008 9.0338 35.08 23z" fill="url(#folder-home-512px-b)" fill-rule="evenodd" filter="url(#folder-home-512px-a)"/>
<rect x="54" y="154" width="404" height="166" rx="36" ry="36" fill-opacity=".2" fill-rule="evenodd" filter="url(#filter992)" style="paint-order:stroke fill markers"/>
<rect x="54" y="152" width="404" height="166" rx="36" ry="36" fill="url(#linearGradient966)" fill-rule="evenodd" style="paint-order:stroke fill markers"/>
<path d="m90 152c-19.944 0-36 16.056-36 36v4c0-19.944 16.056-36 36-36h332c19.944 0 36 16.056 36 36v-4c0-19.944-16.056-36-36-36z" fill-rule="evenodd" opacity=".5" style="paint-order:stroke fill markers"/>
<path d="m34 182h444v236c0 30.928-25.072 56-56 56h-332c-30.928 0-56-25.072-56-56z" fill="url(#folder-home-512px-g)" fill-rule="evenodd" filter="url(#folder-home-512px-a)"/>
<path d="m256 234.34c23.564 0 42.665 19.102 42.665 42.665v21.333c11.781 0 21.333 9.551 21.333 21.333v63.998c0 11.781-9.551 21.333-21.333 21.333h-85.334c-11.781 0-21.333-9.551-21.333-21.333v-63.998c0-11.781 9.551-21.333 21.333-21.333v-21.333c0-23.564 19.102-42.665 42.665-42.665zm0 21.333c-11.781 0-21.333 9.551-21.333 21.333v21.333h42.665v-21.333c0-11.781-9.551-21.333-21.333-21.333z" fill-opacity=".50196" fill-rule="evenodd" filter="url(#filter935-3)"/>
<path d="m256 234.34c23.564 0 42.665 19.102 42.665 42.665v21.333c11.781 0 21.333 9.551 21.333 21.333v63.998c0 11.781-9.551 21.333-21.333 21.333h-85.334c-11.781 0-21.333-9.551-21.333-21.333v-63.998c0-11.781 9.551-21.333 21.333-21.333v-21.333c0-23.564 19.102-42.665 42.665-42.665zm0 21.333c-11.781 0-21.333 9.551-21.333 21.333v21.333h42.665v-21.333c0-11.781-9.551-21.333-21.333-21.333z" fill="url(#linearGradient1016-6)" fill-rule="evenodd"/>
</svg>
