<svg width="512" height="512" version="1.1" viewBox="0 0 512 512" xmlns="http://www.w3.org/2000/svg" xmlns:xlink="http://www.w3.org/1999/xlink">
<defs>
<filter id="folder-videos-512px-a" x="-12.2%" y="-14.1%" width="124.3%" height="128.1%">
<feOffset dy="8" in="SourceAlpha" result="shadowOffsetOuter1"/>
<feGaussianBlur in="shadowOffsetOuter1" result="shadowBlurOuter1" stdDeviation="10"/>
<feComposite in="shadowBlurOuter1" in2="SourceAlpha" operator="out" result="shadowBlurOuter1"/>
<feColorMatrix in="shadowBlurOuter1" result="shadowMatrixOuter1" values="0 0 0 0 0   0 0 0 0 0   0 0 0 0 0  0 0 0 0.2 0"/>
<feMerge>
<feMergeNode in="shadowMatrixOuter1"/>
<feMergeNode in="SourceGraphic"/>
</feMerge>
</filter>
<linearGradient id="folder-videos-512px-b" x1="206.46" x2="206.46" y1="-3.0562e-14" y2="156.77" gradientTransform="matrix(1.0753 0 0 .92998 34 90)" gradientUnits="userSpaceOnUse">
<stop stop-color="#ba5638" offset="0"/>
<stop stop-color="#870b3d" offset="1"/>
</linearGradient>
<radialGradient id="folder-videos-512px-g" cx="180.03" cy="0" r="423.4" gradientTransform="matrix(1.2331 0 0 .81096 34 182)" gradientUnits="userSpaceOnUse">
<stop stop-color="#ff774d" offset="0"/>
<stop stop-color="#ba0e55" offset="1"/>
</radialGradient>
<linearGradient id="folder-videos-512px-j" x1="86" x2="86" y2="172" gradientUnits="userSpaceOnUse">
<stop stop-color="#FFF" offset="0"/>
<stop stop-color="#FFF" stop-opacity=".6" offset="1"/>
</linearGradient>
<circle id="folder-videos-512px-i" cx="86" cy="86" r="86"/>
<filter id="folder-videos-512px-h" x="-15.1%" y="-12.8%" width="130.2%" height="130.2%">
<feOffset dy="4" in="SourceAlpha" result="shadowOffsetOuter1"/>
<feGaussianBlur in="shadowOffsetOuter1" result="shadowBlurOuter1" stdDeviation="8"/>
<feColorMatrix in="shadowBlurOuter1" values="0 0 0 0 0   0 0 0 0 0.42905776   0 0 0 0 0.968670281  0 0 0 0.5 0"/>
</filter>
<filter id="filter992" x="-.042327" y="-.10301" width="1.0847" height="1.206" color-interpolation-filters="sRGB">
<feGaussianBlur stdDeviation="7.125"/>
</filter>
<linearGradient id="linearGradient966" x1="-260" x2="-260" y1="372" y2="392" gradientTransform="translate(532,-214)" gradientUnits="userSpaceOnUse">
<stop stop-color="#fff" offset="0"/>
<stop stop-color="#fff8a3" offset="1"/>
</linearGradient>
</defs>
<path d="m282 113c6.0723 13.966 19.851 23 35.08 23h104.92c30.928 0 56 25.072 56 56v226c0 30.928-25.072 56-56 56h-332c-30.928 0-56-25.072-56-56v-272c0-30.928 25.072-56 56-56h156.92c15.229 0 29.008 9.0338 35.08 23z" fill="url(#folder-videos-512px-b)" fill-rule="evenodd" filter="url(#folder-videos-512px-a)"/>
<rect x="54" y="154" width="404" height="166" rx="36" ry="36" fill-opacity=".2" fill-rule="evenodd" filter="url(#filter992)" style="paint-order:stroke fill markers"/>
<rect x="54" y="152" width="404" height="166" rx="36" ry="36" fill="url(#linearGradient966)" fill-rule="evenodd" style="paint-order:stroke fill markers"/>
<path d="m90 152c-19.944 0-36 16.056-36 36v4c0-19.944 16.056-36 36-36h332c19.944 0 36 16.056 36 36v-4c0-19.944-16.056-36-36-36z" fill-rule="evenodd" opacity=".5" style="paint-order:stroke fill markers"/>
<path d="m34 182h444v236c0 30.928-25.072 56-56 56h-332c-30.928 0-56-25.072-56-56z" fill="url(#folder-videos-512px-g)" fill-rule="evenodd" filter="url(#folder-videos-512px-a)"/>
<use transform="translate(170,230)" width="100%" height="100%" fill="#000000" fill-rule="evenodd" filter="url(#folder-videos-512px-h)" xlink:href="#folder-videos-512px-i"/>
<use transform="translate(170,230)" width="100%" height="100%" fill="url(#folder-videos-512px-j)" fill-rule="evenodd" xlink:href="#folder-videos-512px-i"/>
<path d="m239.16 354.22c-7.2707 4.1756-13.165 0.75266-13.165-7.6635v-61.124c0-8.4081 5.9271-11.82 13.165-7.6635l53.395 30.665c7.2707 4.1756 7.2377 10.965 0 15.121z" fill="#ff006b" fill-rule="evenodd"/>
<path d="m274 297.78v36.439l-24 13.783v-64.006zm24 18.217v2e-5 -1e-5zm-72 30.564v-61.124z" fill="#ffb600" fill-rule="evenodd"/>
<path d="m250 283.99v64.006l-10.835 6.2227c-7.2707 4.1756-13.165 0.75266-13.165-7.6635v-61.124c0-8.4081 5.9271-11.82 13.165-7.6635z" fill="#1473ff" fill-rule="evenodd"/>
</svg>
