<svg width="512" height="512" version="1.1" viewBox="0 0 512 512" xmlns="http://www.w3.org/2000/svg" xmlns:xlink="http://www.w3.org/1999/xlink">
<defs>
<linearGradient id="folder-documents-512px-j" x1="89.095" x2="89.095" y1="-1.615e-15" y2="178.19" gradientTransform="scale(.90914 1.0999)" gradientUnits="userSpaceOnUse">
<stop stop-color="#FFF" offset="0"/>
<stop stop-color="#FFF" stop-opacity=".6" offset="1"/>
</linearGradient>
<path id="folder-documents-512px-i" d="m16 0 130-1.7764e-15c8.8366-1.6232e-15 16 7.1634 16 16v164c0 8.8366-7.1634 16-16 16h-130c-8.8366 0-16-7.1634-16-16v-164c-1.0822e-15 -8.8366 7.1634-16 16-16zm80 26v6h54v-6h-54zm0 14v6h54v-6h-54zm0 14v6h54v-6h-54zm0 14v6h54v-6h-54zm-82 14v6h136v-6h-136zm0 14v6h136v-6h-136zm0 14v6h136v-6h-136zm0 14v6h136v-6h-136zm0 14v6h74v-6h-74zm0 30v6h136v-6h-136z"/>
<filter id="folder-documents-512px-h" x="-16%" y="-11.2%" width="132.1%" height="126.5%">
<feOffset dy="4" in="SourceAlpha" result="shadowOffsetOuter1"/>
<feGaussianBlur in="shadowOffsetOuter1" result="shadowBlurOuter1" stdDeviation="8"/>
<feColorMatrix in="shadowBlurOuter1" values="0 0 0 0 0   0 0 0 0 0.42905776   0 0 0 0 0.968670281  0 0 0 0.5 0"/>
</filter>
<radialGradient id="folder-documents-512px-k" cx="58.929" cy="75.094" r="59.599" gradientTransform="scale(1.2416 .80539)" gradientUnits="userSpaceOnUse">
<stop stop-color="#FA9361" offset="0"/>
<stop stop-color="#5F1CF7" offset="1"/>
</radialGradient>
<linearGradient id="folder-documents-512px-l" x1="26.563" x2="26.563" y1="77.383" y2="102" gradientTransform="scale(1.4263 .70111)" gradientUnits="userSpaceOnUse">
<stop stop-color="#0E3BAC" offset="0"/>
<stop stop-color="#1A0570" offset="1"/>
</linearGradient>
<filter id="folder-documents-512px-m" x="-80%" y="-5.4%" width="260%" height="110.8%">
<feGaussianBlur in="SourceGraphic" stdDeviation="4"/>
</filter>
<linearGradient id="folder-documents-512px-n" x1="22.716" x2="22.716" y1="7.1317" y2="52.563" gradientTransform="scale(.26414 3.7859)" gradientUnits="userSpaceOnUse">
<stop stop-color="#242424" offset="0"/>
<stop offset="1"/>
</linearGradient>
<linearGradient id="folder-documents-512px-o" x1="3.2202" x2="10.954" y1="224.63" y2="224.63" gradientTransform="scale(1.0954 .91287)" gradientUnits="userSpaceOnUse">
<stop stop-color="#F6F6F6" offset="0"/>
<stop stop-color="#939393" offset="1"/>
</linearGradient>
<linearGradient id="folder-documents-512px-p" x1="3.5768" x2="10.954" y1="231.95" y2="233.14" gradientTransform="scale(1.0954 .91287)" gradientUnits="userSpaceOnUse">
<stop stop-color="#FCAFD2" offset="0"/>
<stop stop-color="#FF4B8D" offset="1"/>
</linearGradient>
<path id="folder-documents-512px-q" d="m0 209h12v6c0 2.2091-1.7909 4-4 4h-4c-2.2091 0-4-1.7909-4-4v-6z"/>
<filter id="folder-documents-512px-r" x="-33.3%" y="-40%" width="166.7%" height="180%">
<feGaussianBlur in="SourceAlpha" result="shadowBlurInner1" stdDeviation="3"/>
<feOffset dx="-2" dy="-2" in="shadowBlurInner1" result="shadowOffsetInner1"/>
<feComposite in="shadowOffsetInner1" in2="SourceAlpha" k2="-1" k3="1" operator="arithmetic" result="shadowInnerInner1"/>
<feColorMatrix in="shadowInnerInner1" values="0 0 0 0 0.376992985   0 0 0 0 0   0 0 0 0 0  0 0 0 0.5 0"/>
</filter>
<linearGradient id="folder-documents-512px-s" x1="13.152" x2="13.108" y1="16.007" y2="19.871" gradientTransform="scale(.1525 6.5574)" gradientUnits="userSpaceOnUse">
<stop stop-color="#463417" offset="0"/>
<stop stop-color="#281212" offset="1"/>
</linearGradient>
<linearGradient id="folder-documents-512px-t" x1="65.574" x2="65.574" y1="4.1175" y2="30.347" gradientTransform="scale(.1525 6.5574)" gradientUnits="userSpaceOnUse">
<stop stop-color="#080808" offset="0"/>
<stop stop-color="#481D1D" offset="1"/>
</linearGradient>
<linearGradient id="folder-documents-512px-u" x1="7.5389" x2="9.8377" y1="3.2256" y2="3.2256" gradientTransform="scale(.6742 1.4832)" gradientUnits="userSpaceOnUse">
<stop stop-color="#6A6A6A" offset="0"/>
<stop stop-color="#0A0A0A" offset="1"/>
</linearGradient>
<linearGradient id="linearGradient884" x1="206.46" x2="206.46" y1="-3.0562e-14" y2="156.77" gradientTransform="matrix(1.0753 0 0 .92998 34 90)" gradientUnits="userSpaceOnUse">
<stop stop-color="#9c3" offset="0"/>
<stop stop-color="#28851e" offset="1"/>
</linearGradient>
<filter id="folder-512px-a" x="-.122" y="-.141" width="1.243" height="1.281">
<feOffset dy="8" in="SourceAlpha" result="shadowOffsetOuter1"/>
<feGaussianBlur in="shadowOffsetOuter1" result="shadowBlurOuter1" stdDeviation="10"/>
<feComposite in="shadowBlurOuter1" in2="SourceAlpha" operator="out" result="shadowBlurOuter1"/>
<feColorMatrix in="shadowBlurOuter1" result="shadowMatrixOuter1" values="0 0 0 0 0   0 0 0 0 0   0 0 0 0 0  0 0 0 0.2 0"/>
<feMerge>
<feMergeNode in="shadowMatrixOuter1"/>
<feMergeNode in="SourceGraphic"/>
</feMerge>
</filter>
<filter id="filter992" x="-.042327" y="-.10301" width="1.0847" height="1.206" color-interpolation-filters="sRGB">
<feGaussianBlur stdDeviation="7.125"/>
</filter>
<linearGradient id="linearGradient966" x1="-260" x2="-260" y1="372" y2="392" gradientUnits="userSpaceOnUse">
<stop stop-color="#fff" offset="0"/>
<stop stop-color="#cef5ff" offset="1"/>
</linearGradient>
<radialGradient id="radialGradient888" cx="180.03" cy="0" r="423.4" gradientTransform="matrix(1.2331 0 0 .81096 34 182)" gradientUnits="userSpaceOnUse">
<stop stop-color="#ccff42" offset="0"/>
<stop stop-color="#50a100" offset="1"/>
</radialGradient>
</defs>
<g fill-rule="evenodd">
<path d="m282 113c6.0723 13.966 19.851 23 35.08 23h104.92c30.928 0 56 25.072 56 56v226c0 30.928-25.072 56-56 56h-332c-30.928 0-56-25.072-56-56v-272c0-30.928 25.072-56 56-56h156.92c15.229 0 29.008 9.0338 35.08 23z" fill="url(#linearGradient884)" filter="url(#folder-512px-a)"/>
<g transform="translate(532,-212)">
<rect x="-478" y="368" width="404" height="166" rx="36" ry="36" fill-opacity=".2" filter="url(#filter992)" style="paint-order:stroke fill markers"/>
<rect x="-478" y="366" width="404" height="166" rx="36" ry="36" fill="url(#linearGradient966)" style="paint-order:stroke fill markers"/>
<path d="m-442 366c-19.944 0-36 16.056-36 36v4c0-19.944 16.056-36 36-36h332c19.944 0 36 16.056 36 36v-4c0-19.944-16.056-36-36-36z" opacity=".5" style="paint-order:stroke fill markers"/>
</g>
<path d="m34 182h444v236c0 30.928-25.072 56-56 56h-332c-30.928 0-56-25.072-56-56z" fill="url(#radialGradient888)" filter="url(#folder-512px-a)"/>
</g>
<g transform="translate(156,215)" fill="none" fill-rule="evenodd">
<g transform="translate(0,15)">
<use width="100%" height="100%" fill="#000000" filter="url(#folder-documents-512px-h)" xlink:href="#folder-documents-512px-i"/>
<use width="100%" height="100%" fill="url(#folder-documents-512px-j)" xlink:href="#folder-documents-512px-i"/>
<polygon points="88 74 14 74 14 26 88 26" fill="url(#folder-documents-512px-k)"/>
<path d="m70.548 63.568c2.8861 0 5.2258-2.3717 5.2258-5.2973 0-2.9256-2.3397-5.2973-5.2258-5.2973s-5.2258 2.3717-5.2258 5.2973c0 2.9256 2.3397 5.2973 5.2258 5.2973z" fill="#ff5151"/>
<path d="m15.677 71.514h44.419l-10.643-13.956c-0.66981-0.87831-1.9248-1.0473-2.8031-0.37752-0.0258 0.01968-0.05113 0.03998-0.07594 0.0609l-5.796 4.8839c-0.84468 0.71175-2.1064 0.60399-2.8182-0.24068-0.08595-0.102-0.16148-0.21235-0.22547-0.32939l-5.9229-10.834c-0.52983-0.9692-1.745-1.3254-2.7142-0.79554-0.30885 0.16884-0.56767 0.41619-0.75031 0.71708z" fill="url(#folder-documents-512px-l)"/>
</g>
<g transform="translate(184)">
<polygon points="20 28.225 20 223.96 5 223.96 5 28.225 12.5 1" fill="#00267b" fill-opacity=".3" filter="url(#folder-documents-512px-m)"/>
<polygon points="12 199 0 199 0 27 12 27" fill="url(#folder-documents-512px-n)"/>
<rect y="199" width="12" height="10" fill="url(#folder-documents-512px-o)"/>
<use width="100%" height="100%" fill="url(#folder-documents-512px-p)" xlink:href="#folder-documents-512px-q"/>
<use width="100%" height="100%" fill="#000000" filter="url(#folder-documents-512px-r)" xlink:href="#folder-documents-512px-q"/>
<polygon points="4 199 0 199 0 27 4 27" fill="url(#folder-documents-512px-s)"/>
<polygon points="12 199 8 199 8 27 12 27" fill="url(#folder-documents-512px-t)"/>
<polygon points="0 27 6 0.6 12 27" fill="#ffdcac"/>
<polygon points="4 27 6 0.6 8 27" fill="#d8915b"/>
<polygon points="7.875 27 6 0.6 12 27" fill="#965600"/>
<polygon points="6 0.6 7.2 5.88 4.8 5.88" fill="url(#folder-documents-512px-u)"/>
</g>
</g>
</svg>
