<svg width="512" height="512" version="1.1" viewBox="0 0 512 512" xmlns="http://www.w3.org/2000/svg" xmlns:xlink="http://www.w3.org/1999/xlink">
<defs>
<linearGradient id="network-server-512px-j" x1="91.668" x2="91.668" y1="8.6381" y2="176" gradientUnits="userSpaceOnUse">
<stop stop-color="#FFF" offset="0"/>
<stop stop-color="#FFF" stop-opacity=".6" offset="1"/>
</linearGradient>
<path id="network-server-512px-i" d="m17.664 59.16c-3.6511 8.8935-5.6644 18.632-5.6644 28.84 0 8.968 1.5538 17.573 4.4067 25.562 2.9629-9.2057 7.1461-18.706 12.771-28.134-1.2019-2.1025-1.8889-4.5366-1.8889-7.1302 0-1.8848 0.36282-3.6854 1.0224-5.3357-3.9787-4.5091-7.5219-9.1405-10.647-13.803zm5.3931-10.655c3.4197 5.6643 7.5137 11.35 12.312 16.855 1.9071-0.93323 4.0504-1.4572 6.3154-1.4572 1.0103 0 1.9965 0.10426 2.9483 0.30259 7.9207-9.0068 17.071-17.091 27.518-24.118-0.093938-0.66394-0.14253-1.3424-0.14253-2.0321 0-1.7594 0.31615-3.4455 0.89471-5.0043-6.4715-5.0221-13.083-9.2377-19.591-12.688-12.492 6.4199-22.974 16.199-30.254 28.143zm42.541-33.149c4.7769 2.9068 9.5558 6.1929 14.259 9.8751 1.9642-1.0054 4.1894-1.5727 6.5462-1.5727 3.5464 0 6.7946 1.2845 9.3045 3.4134 7.2605-3.2524 14.991-6.1016 23.206-8.5194-9.4449-4.2114-19.907-6.5524-30.915-6.5524-7.7968 0-15.32 1.1744-22.401 3.356zm65.89 10.311c-11.168 2.6873-21.432 6.1499-30.836 10.321 0.097163 0.67493 0.14745 1.3649 0.14745 2.0666 0 2.0417-0.42572 3.9845-1.1932 5.7445 2.3544 2.6507 4.6531 5.4261 6.8835 8.3289 10.576 13.764 18.604 29.222 23.64 46.426 5.1135 0.68464 9.3801 4.0571 11.33 8.6481 6.6219-0.47773 13.461-1.373 20.521-2.7055 0.077075-0.014546 0.15406-0.027229 0.23092-0.03808 1.1704-5.2998 1.7874-10.807 1.7874-16.459 0-25.797-12.857-48.594-32.511-62.333zm27.313 90.011c-5.815 0.94782-11.495 1.6099-17.04 1.9961-1.1632 3.247-3.4605 5.9558-6.4137 7.648 0.71955 6.9082 1.0121 14.052 0.85618 21.435 9.9696-8.1888 17.819-18.865 22.598-31.079zm-33.391 38.49c0.60774-9.5273 0.44844-18.627-0.42918-27.312-2.1543-0.49324-4.1248-1.4703-5.791-2.8105-0.30915 0.19123-0.62055 0.38471-0.93412 0.58044-9.3522 5.8375-18.704 12.447-27.41 19.678-7.079 5.8795-13.399 11.903-18.791 18.021 5.1415 1.0979 10.475 1.6757 15.944 1.6757 13.6 0 26.366-3.5733 37.411-9.8321zm-64.345 4.9201c6.4317-7.8469 14.222-15.472 23.091-22.839 8.5425-7.0951 17.638-13.588 26.766-19.379-20.516-2.6491-38.826-9.5707-54.992-20.09-2.7447-1.7859-5.3809-3.6407-7.9106-5.5541-1.9122 0.93954-4.0628 1.4673-6.336 1.4673-1.5147 0-2.9751-0.23433-4.3467-0.6687-7.0632 12.224-11.546 24.535-13.989 35.945 8.7453 14.114 21.984 25.153 37.717 31.118zm114.93-71.088c0 48.597-39.403 88-88 88-48.597 0-88-39.403-88-88 0-48.597 39.403-88 88-88 48.597 0 88 39.403 88 88zm-60.888 18.83c1.0723-2.3371 2.7522-4.3383 4.8371-5.8009-4.6806-15.788-12.072-29.944-21.776-42.573-1.93-2.5118-3.9162-4.9219-5.9485-7.232-1.7801 0.78852-3.7495 1.2266-5.8206 1.2266-3.5357 0-6.7749-1.2767-9.2817-3.394-8.954 6.1398-16.85 13.116-23.755 20.832 1.7069 2.3663 2.7128 5.2712 2.7128 8.4096 0 1.8569-0.35214 3.632-0.99325 5.2622 2.027 1.5019 4.1261 2.9626 6.2984 4.3761 15.657 10.188 33.508 16.734 53.727 18.894z"/>
<filter id="network-server-512px-h" x="-14.8%" y="-12.5%" width="129.5%" height="129.5%">
<feOffset dy="4" in="SourceAlpha" result="shadowOffsetOuter1"/>
<feGaussianBlur in="shadowOffsetOuter1" result="shadowBlurOuter1" stdDeviation="8"/>
<feColorMatrix in="shadowBlurOuter1" values="0 0 0 0 0   0 0 0 0 0.42745098   0 0 0 0 0.968627451  0 0 0 0.5 0"/>
</filter>
<linearGradient id="linearGradient884" x1="206.46" x2="206.46" y1="-3.0562e-14" y2="156.77" gradientTransform="matrix(1.0753 0 0 .92998 34 90)" gradientUnits="userSpaceOnUse">
<stop stop-color="#9c3" offset="0"/>
<stop stop-color="#28851e" offset="1"/>
</linearGradient>
<filter id="folder-512px-a" x="-.122" y="-.141" width="1.243" height="1.281">
<feOffset dy="8" in="SourceAlpha" result="shadowOffsetOuter1"/>
<feGaussianBlur in="shadowOffsetOuter1" result="shadowBlurOuter1" stdDeviation="10"/>
<feComposite in="shadowBlurOuter1" in2="SourceAlpha" operator="out" result="shadowBlurOuter1"/>
<feColorMatrix in="shadowBlurOuter1" result="shadowMatrixOuter1" values="0 0 0 0 0   0 0 0 0 0   0 0 0 0 0  0 0 0 0.2 0"/>
<feMerge>
<feMergeNode in="shadowMatrixOuter1"/>
<feMergeNode in="SourceGraphic"/>
</feMerge>
</filter>
<filter id="filter992" x="-.042327" y="-.10301" width="1.0847" height="1.206" color-interpolation-filters="sRGB">
<feGaussianBlur stdDeviation="7.125"/>
</filter>
<linearGradient id="linearGradient966" x1="-260" x2="-260" y1="372" y2="392" gradientUnits="userSpaceOnUse">
<stop stop-color="#fff" offset="0"/>
<stop stop-color="#cef5ff" offset="1"/>
</linearGradient>
<radialGradient id="radialGradient888" cx="180.03" cy="0" r="423.4" gradientTransform="matrix(1.2331 0 0 .81096 34 182)" gradientUnits="userSpaceOnUse">
<stop stop-color="#ccff42" offset="0"/>
<stop stop-color="#50a100" offset="1"/>
</radialGradient>
</defs>
<g fill-rule="evenodd">
<path d="m282 113c6.0723 13.966 19.851 23 35.08 23h104.92c30.928 0 56 25.072 56 56v226c0 30.928-25.072 56-56 56h-332c-30.928 0-56-25.072-56-56v-272c0-30.928 25.072-56 56-56h156.92c15.229 0 29.008 9.0338 35.08 23z" fill="url(#linearGradient884)" filter="url(#folder-512px-a)"/>
<g transform="translate(532,-212)">
<rect x="-478" y="368" width="404" height="166" rx="36" ry="36" fill-opacity=".2" filter="url(#filter992)" style="paint-order:stroke fill markers"/>
<rect x="-478" y="366" width="404" height="166" rx="36" ry="36" fill="url(#linearGradient966)" style="paint-order:stroke fill markers"/>
<path d="m-442 366c-19.944 0-36 16.056-36 36v4c0-19.944 16.056-36 36-36h332c19.944 0 36 16.056 36 36v-4c0-19.944-16.056-36-36-36z" opacity=".5" style="paint-order:stroke fill markers"/>
</g>
<path d="m34 182h444v236c0 30.928-25.072 56-56 56h-332c-30.928 0-56-25.072-56-56z" fill="url(#radialGradient888)" filter="url(#folder-512px-a)"/>
</g>
<g transform="translate(168,236)" fill-rule="evenodd">
<use width="100%" height="100%" fill="#000000" filter="url(#network-server-512px-h)" xlink:href="#network-server-512px-i"/>
<use width="100%" height="100%" fill="url(#network-server-512px-j)" xlink:href="#network-server-512px-i"/>
</g>
</svg>
