<svg width="512" height="512" version="1.1" viewBox="0 0 512 512" xmlns="http://www.w3.org/2000/svg" xmlns:xlink="http://www.w3.org/1999/xlink">
<defs>
<filter id="network-workgroup-512px-a" x="-12.2%" y="-14.1%" width="124.3%" height="128.1%">
<feOffset dy="8" in="SourceAlpha" result="shadowOffsetOuter1"/>
<feGaussianBlur in="shadowOffsetOuter1" result="shadowBlurOuter1" stdDeviation="10"/>
<feComposite in="shadowBlurOuter1" in2="SourceAlpha" operator="out" result="shadowBlurOuter1"/>
<feColorMatrix in="shadowBlurOuter1" result="shadowMatrixOuter1" values="0 0 0 0 0   0 0 0 0 0   0 0 0 0 0  0 0 0 0.2 0"/>
<feMerge>
<feMergeNode in="shadowMatrixOuter1"/>
<feMergeNode in="SourceGraphic"/>
</feMerge>
</filter>
<linearGradient id="network-workgroup-512px-b" x1="206.46" x2="206.46" y1="-3.0562e-14" y2="156.77" gradientTransform="matrix(1.0753 0 0 .92998 34 90)" gradientUnits="userSpaceOnUse">
<stop stop-color="#ba5638" offset="0"/>
<stop stop-color="#870b3d" offset="1"/>
</linearGradient>
<radialGradient id="network-workgroup-512px-g" cx="180.03" cy="0" r="423.4" gradientTransform="matrix(1.2331 0 0 .81096 34 182)" gradientUnits="userSpaceOnUse">
<stop stop-color="#ff774d" offset="0"/>
<stop stop-color="#ba0e55" offset="1"/>
</radialGradient>
<linearGradient id="network-workgroup-512px-j" x1="244.16" x2="244.16" y1="254.1" y2="426.88" gradientTransform="scale(1.0567 .94634)" gradientUnits="userSpaceOnUse">
<stop stop-color="#FFF" offset="0"/>
<stop stop-color="#FFF" stop-opacity=".6" offset="1"/>
</linearGradient>
<path id="network-workgroup-512px-i" d="m232.05 355.09c-7.7418-0.6596-15.127-1.6673-22.027-2.9924-5.8283 20.108-5.6547 35.278 0.96456 39.039 6.6511 3.7783 20.041-3.5704 34.776-18.458-4.6368-5.3294-9.2379-11.223-13.714-17.588zm15.599 0.83861c2.1133 2.7262 4.2345 5.3265 6.3488 7.7911 2.1143-2.4645 4.2356-5.0649 6.3488-7.7911-2.0989 0.049309-4.2159 0.074225-6.3488 0.074225s-4.2499-0.024916-6.3488-0.074225zm-49.406-69.323c-7.06-25.13-5.5719-45.132 6.8179-52.17 12.272-6.9712 30.466 1.6541 48.937 20.058 18.472-18.404 36.666-27.03 48.937-20.058 12.39 7.0384 13.878 27.04 6.8179 52.17 24.342 6.5623 40.245 17.624 40.245 31.397s-15.903 24.835-40.245 31.397c7.06 25.13 5.5719 45.132-6.8179 52.17-12.272 6.9712-30.466-1.6541-48.937-20.058-18.472 18.404-36.666 27.03-48.937 20.058-12.39-7.0384-13.878-27.04-6.8179-52.17-24.342-6.5623-40.245-17.624-40.245-31.397s15.903-24.835 40.245-31.397zm11.781-2.6978c6.8999-1.3251 14.285-2.3328 22.027-2.9924 4.4757-6.3653 9.0769-12.259 13.714-17.588-14.735-14.887-28.125-22.236-34.776-18.458-6.6193 3.7603-6.7928 18.93-0.96456 39.039zm87.949 68.189c-6.8999 1.3251-14.285 2.3328-22.027 2.9924-4.4757 6.3653-9.0769 12.259-13.714 17.588 14.735 14.887 28.125 22.236 34.776 18.458 6.6193-3.7603 6.7928-18.93 0.96456-39.039zm-37.626-72.021c-2.1133-2.7262-4.2345-5.3265-6.3488-7.7911-2.1143 2.4645-4.2356 5.0649-6.3488 7.7911 2.0989-0.049309 4.2159-0.074225 6.3488-0.074225s4.2499 0.024916 6.3488 0.074225zm15.599 0.83861c7.7418 0.6596 15.127 1.6673 22.027 2.9924 5.8283-20.108 5.6547-35.278-0.96456-39.039-6.6511-3.7783-20.041 3.5704-34.776 18.458 4.6368 5.3294 9.2379 11.223 13.714 17.588zm-52.464 61.151c-1.001-1.6256-1.9918-3.2737-2.9714-4.9431-1.0726-1.8279-2.1159-3.6546-3.1293-5.4779-1.2855 3.0263-2.4659 6.0009-3.5401 8.9083 3.1177 0.57209 6.3368 1.0775 9.6408 1.5128zm15.221 1.4642c4.9921 0.31173 10.106 0.47242 15.295 0.47242s10.303-0.16069 15.295-0.47242c2.6746-3.9791 5.2998-8.1465 7.8427-12.48 2.568-4.3765 4.9444-8.739 7.1263-13.047-2.1819-4.3083-4.5582-8.6707-7.1263-13.047-2.543-4.3338-5.1681-8.5012-7.8427-12.48-4.9921-0.31173-10.106-0.47242-15.295-0.47242s-10.303 0.16069-15.295 0.47242c-2.6746 3.9791-5.2998 8.1465-7.8427 12.48-2.568 4.3765-4.9444 8.739-7.1263 13.047 2.1819 4.3083 4.5582 8.6707 7.1263 13.047 2.543 4.3338 5.1681 8.5012 7.8427 12.48zm51.912-39.17c1.2855-3.0263 2.4659-6.0009 3.5401-8.9083-3.1177-0.57209-6.3368-1.0775-9.6408-1.5128 1.001 1.6256 1.9918 3.2737 2.9714 4.9431 1.0726 1.8279 2.1159 3.6546 3.1293 5.4779zm-88.677-6.2688c-3.3762 0.89165-6.5752 1.8726-9.5688 2.937-14.618 5.1974-22.37 11.715-22.37 16.974s7.7527 11.777 22.37 16.974c2.9936 1.0644 6.1927 2.0453 9.5688 2.937 2.3207-6.4399 5.1265-13.114 8.3833-19.911-3.2569-6.7966-6.0626-13.471-8.3833-19.911zm11.904-2.6395c1.0742 2.9074 2.2545 5.882 3.5401 8.9083 1.0135-1.8234 2.0568-3.65 3.1293-5.4779 0.9796-1.6695 1.9705-3.3176 2.9714-4.9431-3.3041 0.43531-6.5232 0.9407-9.6408 1.5128zm92.218 42.462c3.3762-0.89165 6.5752-1.8726 9.5688-2.937 14.618-5.1974 22.37-11.715 22.37-16.974s-7.7527-11.777-22.37-16.974c-2.9936-1.0644-6.1927-2.0453-9.5688-2.937-2.3207 6.4399-5.1265 13.114-8.3833 19.911 3.2569 6.7966 6.0626 13.471 8.3833 19.911zm-11.904 2.6395c-1.0742-2.9074-2.2545-5.882-3.5401-8.9083-1.0135 1.8234-2.0568 3.65-3.1293 5.4779-0.9796 1.6695-1.9705 3.3176-2.9714 4.9431 3.3041-0.43531 6.5232-0.9407 9.6408-1.5128z"/>
<filter id="network-workgroup-512px-h" x="-13.5%" y="-12.8%" width="127.1%" height="130.2%">
<feOffset dy="4" in="SourceAlpha" result="shadowOffsetOuter1"/>
<feGaussianBlur in="shadowOffsetOuter1" result="shadowBlurOuter1" stdDeviation="8"/>
<feColorMatrix in="shadowBlurOuter1" values="0 0 0 0 0   0 0 0 0 0.42745098   0 0 0 0 0.968627451  0 0 0 0.5 0"/>
</filter>
<filter id="filter992" x="-.042327" y="-.10301" width="1.0847" height="1.206" color-interpolation-filters="sRGB">
<feGaussianBlur stdDeviation="7.125"/>
</filter>
<linearGradient id="linearGradient966" x1="-260" x2="-260" y1="372" y2="392" gradientTransform="translate(532,-214)" gradientUnits="userSpaceOnUse">
<stop stop-color="#fff" offset="0"/>
<stop stop-color="#fff8a3" offset="1"/>
</linearGradient>
</defs>
<path d="m282 113c6.0723 13.966 19.851 23 35.08 23h104.92c30.928 0 56 25.072 56 56v226c0 30.928-25.072 56-56 56h-332c-30.928 0-56-25.072-56-56v-272c0-30.928 25.072-56 56-56h156.92c15.229 0 29.008 9.0338 35.08 23z" fill="url(#network-workgroup-512px-b)" fill-rule="evenodd" filter="url(#network-workgroup-512px-a)"/>
<rect x="54" y="154" width="404" height="166" rx="36" ry="36" fill-opacity=".2" fill-rule="evenodd" filter="url(#filter992)" style="paint-order:stroke fill markers"/>
<rect x="54" y="152" width="404" height="166" rx="36" ry="36" fill="url(#linearGradient966)" fill-rule="evenodd" style="paint-order:stroke fill markers"/>
<path d="m90 152c-19.944 0-36 16.056-36 36v4c0-19.944 16.056-36 36-36h332c19.944 0 36 16.056 36 36v-4c0-19.944-16.056-36-36-36z" fill-rule="evenodd" opacity=".5" style="paint-order:stroke fill markers"/>
<path d="m34 182h444v236c0 30.928-25.072 56-56 56h-332c-30.928 0-56-25.072-56-56z" fill="url(#network-workgroup-512px-g)" fill-rule="evenodd" filter="url(#network-workgroup-512px-a)"/>
<path d="m232.05 359.09c-7.7418-0.6596-15.127-1.6673-22.027-2.9924-5.8283 20.108-5.6547 35.278 0.96455 39.039 6.6511 3.7783 20.041-3.5704 34.776-18.458-4.6368-5.3294-9.2379-11.223-13.714-17.588zm15.599 0.8386c2.1133 2.7262 4.2345 5.3265 6.3488 7.7911 2.1143-2.4645 4.2356-5.0649 6.3488-7.7911-2.0989 0.04931-4.2159 0.07423-6.3488 0.07423s-4.2499-0.0249-6.3488-0.0742zm-49.406-69.323c-7.06-25.13-5.5719-45.132 6.8179-52.17 12.272-6.9712 30.466 1.6541 48.937 20.058 18.472-18.404 36.666-27.03 48.937-20.058 12.39 7.0384 13.878 27.04 6.8179 52.17 24.342 6.5623 40.245 17.624 40.245 31.397s-15.903 24.835-40.245 31.397c7.06 25.13 5.5719 45.132-6.8179 52.17-12.272 6.9712-30.466-1.6541-48.937-20.058-18.472 18.404-36.666 27.03-48.937 20.058-12.39-7.0384-13.878-27.04-6.8179-52.17-24.342-6.5623-40.245-17.624-40.245-31.397s15.903-24.835 40.245-31.397zm11.781-2.6978c6.8999-1.3251 14.285-2.3328 22.027-2.9924 4.4757-6.3653 9.0769-12.259 13.714-17.588-14.735-14.887-28.125-22.236-34.776-18.458-6.6192 3.7603-6.7928 18.93-0.96455 39.039zm87.949 68.189c-6.8999 1.3251-14.285 2.3328-22.027 2.9924-4.4757 6.3653-9.0769 12.259-13.714 17.588 14.735 14.887 28.125 22.236 34.776 18.458 6.6192-3.7603 6.7928-18.93 0.96455-39.039zm-37.626-72.021c-2.1133-2.7262-4.2345-5.3265-6.3488-7.7911-2.1143 2.4645-4.2356 5.0649-6.3488 7.7911 2.0989-0.04931 4.2159-0.07423 6.3488-0.07423s4.2499 0.0249 6.3488 0.0742zm15.599 0.8386c7.7418 0.6596 15.127 1.6673 22.027 2.9924 5.8283-20.108 5.6547-35.278-0.96455-39.039-6.6511-3.7783-20.041 3.5704-34.776 18.458 4.6368 5.3294 9.2379 11.223 13.714 17.588zm-52.464 61.151c-1.001-1.6256-1.9918-3.2737-2.9714-4.9432-1.0726-1.8279-2.1159-3.6546-3.1293-5.4779-1.2856 3.0263-2.4659 6.001-3.5401 8.9083 3.1177 0.57209 6.3368 1.0775 9.6408 1.5128zm15.221 1.4642c4.9921 0.31173 10.106 0.47242 15.295 0.47242s10.303-0.16069 15.295-0.47242c2.6746-3.9791 5.2998-8.1465 7.8427-12.48 2.568-4.3765 4.9444-8.739 7.1263-13.047-2.1819-4.3083-4.5582-8.6708-7.1263-13.047-2.543-4.3338-5.1681-8.5012-7.8427-12.48-4.9921-0.31173-10.106-0.47242-15.295-0.47242s-10.303 0.16069-15.295 0.47242c-2.6746 3.9791-5.2998 8.1465-7.8427 12.48-2.568 4.3765-4.9444 8.739-7.1263 13.047 2.1819 4.3083 4.5582 8.6707 7.1263 13.047 2.543 4.3338 5.1681 8.5012 7.8427 12.48zm51.912-39.17c1.2856-3.0263 2.4659-6.001 3.5401-8.9083-3.1177-0.57209-6.3368-1.0775-9.6408-1.5128 1.001 1.6256 1.9918 3.2737 2.9714 4.9432 1.0726 1.8279 2.1159 3.6546 3.1293 5.4779zm-88.677-6.2688c-3.3762 0.89165-6.5752 1.8726-9.5688 2.937-14.618 5.1974-22.37 11.715-22.37 16.974s7.7527 11.777 22.37 16.974c2.9936 1.0644 6.1926 2.0453 9.5688 2.937 2.3207-6.4399 5.1265-13.114 8.3833-19.911-3.2569-6.7966-6.0626-13.471-8.3833-19.911zm11.904-2.6395c1.0742 2.9074 2.2545 5.882 3.5401 8.9083 1.0135-1.8234 2.0568-3.65 3.1293-5.4779 0.9796-1.6695 1.9705-3.3176 2.9714-4.9432-3.3041 0.43531-6.5232 0.9407-9.6408 1.5128zm92.218 42.462c3.3762-0.89165 6.5752-1.8726 9.5688-2.937 14.618-5.1974 22.37-11.715 22.37-16.974s-7.7527-11.777-22.37-16.974c-2.9936-1.0644-6.1927-2.0453-9.5688-2.937-2.3207 6.4399-5.1265 13.114-8.3833 19.911 3.2569 6.7966 6.0626 13.471 8.3833 19.911zm-11.904 2.6395c-1.0742-2.9074-2.2545-5.882-3.5401-8.9083-1.0135 1.8234-2.0568 3.65-3.1293 5.4779-0.9796 1.6695-1.9705 3.3176-2.9714 4.9432 3.3041-0.43531 6.5232-0.9407 9.6408-1.5128z" fill="none" fill-opacity=".5" fill-rule="evenodd"/>
<use width="100%" height="100%" fill="none" fill-rule="evenodd" filter="url(#network-workgroup-512px-h)" xlink:href="#network-workgroup-512px-i"/>
<use width="100%" height="100%" fill="url(#network-workgroup-512px-j)" fill-rule="evenodd" xlink:href="#network-workgroup-512px-i"/>
</svg>
