<svg width="512" height="512" version="1.1" viewBox="0 0 512 512" xmlns="http://www.w3.org/2000/svg" xmlns:xlink="http://www.w3.org/1999/xlink">
<defs>
<filter id="folder-bookmark-512px-a" x="-12.2%" y="-14.1%" width="124.3%" height="128.1%">
<feOffset dy="8" in="SourceAlpha" result="shadowOffsetOuter1"/>
<feGaussianBlur in="shadowOffsetOuter1" result="shadowBlurOuter1" stdDeviation="10"/>
<feComposite in="shadowBlurOuter1" in2="SourceAlpha" operator="out" result="shadowBlurOuter1"/>
<feColorMatrix in="shadowBlurOuter1" result="shadowMatrixOuter1" values="0 0 0 0 0   0 0 0 0 0   0 0 0 0 0  0 0 0 0.2 0"/>
<feMerge>
<feMergeNode in="shadowMatrixOuter1"/>
<feMergeNode in="SourceGraphic"/>
</feMerge>
</filter>
<linearGradient id="folder-bookmark-512px-b" x1="206.46" x2="206.46" y1="-3.0562e-14" y2="156.77" gradientTransform="matrix(1.0753 0 0 .92998 34 90)" gradientUnits="userSpaceOnUse">
<stop stop-color="#00B8FF" offset="0"/>
<stop stop-color="#2E5DFF" offset="1"/>
</linearGradient>
<radialGradient id="folder-bookmark-512px-g" cx="180.03" cy="0" r="423.4" gradientTransform="matrix(1.2331 0 0 .81096 34 182)" gradientUnits="userSpaceOnUse">
<stop stop-color="#48D5FF" offset="0"/>
<stop stop-color="#0083F6" offset="1"/>
</radialGradient>
<linearGradient id="folder-bookmark-512px-j" x1="72.17" x2="72.17" y1="30.357" y2="162.12" gradientTransform="scale(.69282 1.4434)" gradientUnits="userSpaceOnUse">
<stop stop-color="#FFF" offset="0"/>
<stop stop-color="#FFF" stop-opacity=".6" offset="1"/>
</linearGradient>
<path id="folder-bookmark-512px-i" d="m0 34h96v200l-28.245-24.714c-11.311-9.8969-28.199-9.8969-39.51 0l-28.245 24.714v-200z"/>
<filter id="folder-bookmark-512px-h" x="-27.1%" y="-11%" width="154.2%" height="126%">
<feOffset dy="4" in="SourceAlpha" result="shadowOffsetOuter1"/>
<feGaussianBlur in="shadowOffsetOuter1" result="shadowBlurOuter1" stdDeviation="8"/>
<feColorMatrix in="shadowBlurOuter1" values="0 0 0 0 0   0 0 0 0 0.42745098   0 0 0 0 0.968627451  0 0 0 0.5 0"/>
</filter>
<filter id="filter992" x="-.042327" y="-.10301" width="1.0847" height="1.206" color-interpolation-filters="sRGB">
<feGaussianBlur stdDeviation="7.125"/>
</filter>
<linearGradient id="linearGradient966" x1="-260" x2="-260" y1="372" y2="392" gradientUnits="userSpaceOnUse">
<stop stop-color="#fff" offset="0"/>
<stop stop-color="#cef5ff" offset="1"/>
</linearGradient>
</defs>
<path d="m282 113c6.0723 13.966 19.851 23 35.08 23h104.92c30.928 0 56 25.072 56 56v226c0 30.928-25.072 56-56 56h-332c-30.928 0-56-25.072-56-56v-272c0-30.928 25.072-56 56-56h156.92c15.229 0 29.008 9.0338 35.08 23z" fill="url(#folder-bookmark-512px-b)" fill-rule="evenodd" filter="url(#folder-bookmark-512px-a)"/>
<g transform="translate(532,-212)" fill-rule="evenodd">
<rect x="-478" y="368" width="404" height="166" rx="36" ry="36" fill-opacity=".2" filter="url(#filter992)" style="paint-order:stroke fill markers"/>
<rect x="-478" y="366" width="404" height="166" rx="36" ry="36" fill="url(#linearGradient966)" style="paint-order:stroke fill markers"/>
<path d="m-442 366c-19.944 0-36 16.056-36 36v4c0-19.944 16.056-36 36-36h332c19.944 0 36 16.056 36 36v-4c0-19.944-16.056-36-36-36z" opacity=".5" style="paint-order:stroke fill markers"/>
</g>
<path d="m34 182h444v236c0 30.928-25.072 56-56 56h-332c-30.928 0-56-25.072-56-56z" fill="url(#folder-bookmark-512px-g)" fill-rule="evenodd" filter="url(#folder-bookmark-512px-a)"/>
<polygon transform="translate(116,148)" points="0 238 0 38 96 38 96 238 48 196" fill="#32a2fb" fill-opacity=".5" fill-rule="evenodd"/>
<use transform="translate(116,148)" width="100%" height="100%" fill="#000000" fill-rule="evenodd" filter="url(#folder-bookmark-512px-h)" xlink:href="#folder-bookmark-512px-i"/>
<use transform="translate(116,148)" width="100%" height="100%" fill="url(#folder-bookmark-512px-j)" fill-rule="evenodd" xlink:href="#folder-bookmark-512px-i"/>
<rect x="116" y="148" width="96" height="4" fill="#32a2fb" fill-opacity=".5" fill-rule="evenodd"/>
</svg>
