<svg width="128" height="128" version="1.1" viewBox="0 0 128 128" xmlns="http://www.w3.org/2000/svg">
 <defs>
  <filter id="application-x-cd-image-a" x="-.137" y="-.091" width="1.274" height="1.221">
   <feOffset dy="2" in="SourceAlpha" result="shadowOffsetOuter1"/>
   <feGaussianBlur in="shadowOffsetOuter1" result="shadowBlurOuter1" stdDeviation="3.5"/>
   <feColorMatrix in="shadowBlurOuter1" values="0 0 0 0 0.505882353   0 0 0 0 0.741176471   0 0 0 0 0  0 0 0 0.5 0"/>
  </filter>
  <linearGradient id="application-x-cd-image-c" x1="46.733" x2="46.733" y2="93.467" gradientTransform="scale(.89872 1.1127)" gradientUnits="userSpaceOnUse">
   <stop stop-color="#B7EE43" offset="0"/>
   <stop stop-color="#6AD500" offset="1"/>
  </linearGradient>
  <filter id="application-x-cd-image-d" x="-.212" y="-.135" width="1.423" height="1.423">
   <feOffset dy="2" in="SourceAlpha" result="shadowOffsetOuter1"/>
   <feGaussianBlur in="shadowOffsetOuter1" result="shadowBlurOuter1" stdDeviation="1.5"/>
   <feComposite in="shadowBlurOuter1" in2="SourceAlpha" operator="out" result="shadowBlurOuter1"/>
   <feColorMatrix in="shadowBlurOuter1" values="0 0 0 0 0   0 0 0 0 0   0 0 0 0 0  0 0 0 0.05 0"/>
  </filter>
  <linearGradient id="application-x-cd-image-f" x1="71" x2="60.727" y1="13" y2="23.71" gradientUnits="userSpaceOnUse">
   <stop stop-color="#FFF" stop-opacity=".1" offset="0"/>
   <stop stop-color="#FFF" stop-opacity=".3" offset="1"/>
  </linearGradient>
 </defs>
 <g transform="translate(22,14)" fill-rule="evenodd">
  <path d="m58 0 26 26v69c0 4.9706-4.0294 9-9 9h-66c-4.9706 0-9-4.0294-9-9v-86c0-4.9706 4.0294-9 9-9z" filter="url(#application-x-cd-image-a)"/>
  <path d="m58 0 26 26v69c0 4.9706-4.0294 9-9 9h-66c-4.9706 0-9-4.0294-9-9v-86c0-4.9706 4.0294-9 9-9z" fill="url(#application-x-cd-image-c)"/>
  <path d="m58 0 26 26h-17c-4.9706 0-9-4.0294-9-9z" filter="url(#application-x-cd-image-d)"/>
  <path d="m58 0 26 26h-17c-4.9706 0-9-4.0294-9-9z" fill="url(#application-x-cd-image-f)"/>
 </g>
 <path d="m61.636 45.251-11.309 1.175 0.75587 11.332zm4.7278 0 10.553 12.507 0.75587-11.332zm8.9817 13.746-11.346-13.447-11.35 13.452zm-11.46-15.991c0.0066-7.56e-4 0.01328-0.0014 0.01992-0.0021l0.0943-0.0098 0.0943 0.0098c0.0066 6.24e-4 0.01329 0.0013 0.01992 0.0021l15.516 1.6121 13.155 15.653-28.786 37.018-28.786-37.018 13.155-15.653zm-15.479 4.6767-9.5158 11.323 10.271-0.0024zm31.187 0-0.75459 11.313 10.26-0.0024zm-13.205 43.277 23.302-29.966-11.146 0.0026zm-4.7772 0-12.154-29.957-11.139 0.0026zm-9.9956-29.957 12.384 30.525 12.387-30.53z" fill="#fff" fill-rule="evenodd"/>
</svg>
