<svg width="128" height="128" version="1.1" viewBox="0 0 128 128" xmlns="http://www.w3.org/2000/svg" xmlns:xlink="http://www.w3.org/1999/xlink">
 <defs>
  <linearGradient id="application-vnd.oasis.opendocument.chart-c" x1="46.733" x2="46.733" y2="92.88" gradientTransform="scale(.89872 1.1127)" gradientUnits="userSpaceOnUse">
   <stop stop-color="#FFBC2A" offset="0"/>
   <stop stop-color="#E77B00" offset="1"/>
  </linearGradient>
  <path id="application-vnd.oasis.opendocument.chart-b" d="m58 0 26 26v69c0 4.9706-4.0294 9-9 9h-66c-4.9706 0-9-4.0294-9-9v-86c-6.0872e-16 -4.9706 4.0294-9 9-9h49z"/>
  <filter id="application-vnd.oasis.opendocument.chart-a" x="-13.7%" y="-9.1%" width="127.4%" height="122.1%">
   <feOffset dy="2" in="SourceAlpha" result="shadowOffsetOuter1"/>
   <feGaussianBlur in="shadowOffsetOuter1" result="shadowBlurOuter1" stdDeviation="3.5"/>
   <feColorMatrix in="shadowBlurOuter1" values="0 0 0 0 0.874509804   0 0 0 0 0.498039216   0 0 0 0 0.0588235294  0 0 0 0.5 0"/>
  </filter>
  <linearGradient id="application-vnd.oasis.opendocument.chart-f" x1="71" x2="60.727" y1="13" y2="23.71" gradientUnits="userSpaceOnUse">
   <stop stop-color="#FFF" stop-opacity=".1" offset="0"/>
   <stop stop-color="#FFF" stop-opacity=".3" offset="1"/>
  </linearGradient>
  <path id="application-vnd.oasis.opendocument.chart-e" d="m58 0 26 26h-17c-4.9706 0-9-4.0294-9-9v-17z"/>
  <filter id="application-vnd.oasis.opendocument.chart-d" x="-21.2%" y="-13.5%" width="142.3%" height="142.3%">
   <feOffset dy="2" in="SourceAlpha" result="shadowOffsetOuter1"/>
   <feGaussianBlur in="shadowOffsetOuter1" result="shadowBlurOuter1" stdDeviation="1.5"/>
   <feComposite in="shadowBlurOuter1" in2="SourceAlpha" operator="out" result="shadowBlurOuter1"/>
   <feColorMatrix in="shadowBlurOuter1" values="0 0 0 0 0   0 0 0 0 0   0 0 0 0 0  0 0 0 0.05 0"/>
  </filter>
 </defs>
 <g transform="translate(22,14)" fill-rule="evenodd">
  <use width="100%" height="100%" fill="#000000" filter="url(#application-vnd.oasis.opendocument.chart-a)" xlink:href="#application-vnd.oasis.opendocument.chart-b"/>
  <use width="100%" height="100%" fill="url(#application-vnd.oasis.opendocument.chart-c)" xlink:href="#application-vnd.oasis.opendocument.chart-b"/>
  <use width="100%" height="100%" fill="#000000" filter="url(#application-vnd.oasis.opendocument.chart-d)" xlink:href="#application-vnd.oasis.opendocument.chart-e"/>
  <use width="100%" height="100%" fill="url(#application-vnd.oasis.opendocument.chart-f)" xlink:href="#application-vnd.oasis.opendocument.chart-e"/>
 </g>
 <g transform="matrix(2,0,0,2,1,4)" fill="#fff">
  <circle cx="24" cy="32" r="2"/>
  <circle cx="29" cy="32" r="2"/>
  <circle cx="34" cy="32" r="2"/>
  <circle cx="39" cy="32" r="2"/>
  <circle cx="24" cy="37" r="2"/>
  <circle cx="29" cy="37" r="2"/>
  <circle cx="34" cy="37" r="2"/>
  <circle cx="39" cy="37" r="2"/>
  <circle cx="44" cy="37" r="2"/>
  <circle cx="19" cy="37" r="2"/>
  <circle cx="19" cy="42" r="2"/>
  <circle cx="24" cy="42" r="2"/>
  <circle cx="44" cy="42" r="2"/>
  <circle cx="39" cy="42" r="2"/>
 </g>
</svg>
