<svg width="128" height="128" version="1.1" viewBox="0 0 128 128" xmlns="http://www.w3.org/2000/svg">
 <defs>
  <filter id="image-gif-a" x="-.137" y="-.091" width="1.274" height="1.221">
   <feOffset dy="2" in="SourceAlpha" result="shadowOffsetOuter1"/>
   <feGaussianBlur in="shadowOffsetOuter1" result="shadowBlurOuter1" stdDeviation="3.5"/>
   <feColorMatrix in="shadowBlurOuter1" values="0 0 0 0 0.262745098   0 0 0 0 0.71372549   0 0 0 0 0.607843137  0 0 0 0.5 0"/>
  </filter>
  <linearGradient id="image-gif-c" x1="46.733" x2="46.733" y2="93.467" gradientTransform="scale(.89872 1.1127)" gradientUnits="userSpaceOnUse">
   <stop stop-color="#28DCB1" offset="0"/>
   <stop stop-color="#00AF9D" offset="1"/>
  </linearGradient>
  <filter id="image-gif-d" x="-.212" y="-.135" width="1.423" height="1.423">
   <feOffset dy="2" in="SourceAlpha" result="shadowOffsetOuter1"/>
   <feGaussianBlur in="shadowOffsetOuter1" result="shadowBlurOuter1" stdDeviation="1.5"/>
   <feComposite in="shadowBlurOuter1" in2="SourceAlpha" operator="out" result="shadowBlurOuter1"/>
   <feColorMatrix in="shadowBlurOuter1" values="0 0 0 0 0   0 0 0 0 0   0 0 0 0 0  0 0 0 0.05 0"/>
  </filter>
  <linearGradient id="image-gif-f" x1="71" x2="60.727" y1="13" y2="23.71" gradientUnits="userSpaceOnUse">
   <stop stop-color="#FFF" stop-opacity=".1" offset="0"/>
   <stop stop-color="#FFF" stop-opacity=".3" offset="1"/>
  </linearGradient>
 </defs>
 <g transform="translate(22,14)" fill-rule="evenodd">
  <path d="m58 0 26 26v69c0 4.9706-4.0294 9-9 9h-66c-4.9706 0-9-4.0294-9-9v-86c0-4.9706 4.0294-9 9-9z" filter="url(#image-gif-a)"/>
  <path d="m58 0 26 26v69c0 4.9706-4.0294 9-9 9h-66c-4.9706 0-9-4.0294-9-9v-86c0-4.9706 4.0294-9 9-9z" fill="url(#image-gif-c)"/>
  <path d="m58 0 26 26h-17c-4.9706 0-9-4.0294-9-9z" filter="url(#image-gif-d)"/>
  <path d="m58 0 26 26h-17c-4.9706 0-9-4.0294-9-9z" fill="url(#image-gif-f)"/>
 </g>
 <path d="m76.1 88h-26.6s1.3945-1.6214 2.6052-3.3737c3.4678-5.0192 4.7617-10.359 4.222-15.844-0.42518-4.3215-1.9567-8.5066-4.2406-12.433-0.94808-1.63-1.9636-3.1052-2.9804-4.4014 0 0.052369 31.894 0.052369 31.894 0.052369 0.55228 0 1-0.44772 1-1s-0.44772-1-1-1h-34c-0.8786 0-1.3301 1.0518-0.725 1.6887 0.05628 0.05924 0.17032 0.18435 0.33384 0.37206 0.2776 0.31865 0.58828 0.69347 0.92378 1.1212 0.96238 1.2269 1.926 2.6267 2.8252 4.1726 2.1499 3.6964 3.5849 7.6176 3.979 11.624 0.49436 5.0246-0.68482 9.8909-3.8771 14.511-0.7364 1.0658-1.5781 2.1148-2.5284 3.1457-0.1458-0.3718-0.50782-0.63507-0.93132-0.63507h-6c-0.55228 0-1 0.44772-1 1v6c0 0.55228 0.44772 1 1 1h6c0.55228 0 1-0.44772 1-1v-3h28.1c0.46327 2.2822 2.481 4 4.9 4 2.7614 0 5-2.2386 5-5s-2.2386-5-5-5c-2.419 0-4.4367 1.7178-4.9 4zm4.9 4c-1.6569 0-3-1.3431-3-3s1.3431-3 3-3 3 1.3431 3 3-1.3431 3-3 3zm-35 0h-4v-4h4z" fill="#fff" fill-rule="evenodd"/>
</svg>
