<svg width="128" height="128" version="1.1" viewBox="0 0 128 128" xmlns="http://www.w3.org/2000/svg" xmlns:xlink="http://www.w3.org/1999/xlink">
 <defs>
  <linearGradient id="rpm-c" x1="46.733" x2="46.733" y2="91.305" gradientTransform="scale(.89872 1.1127)" gradientUnits="userSpaceOnUse">
   <stop stop-color="#666E7B" offset="0"/>
   <stop stop-color="#475055" offset="1"/>
  </linearGradient>
  <path id="rpm-b" d="m58 0 26 26v69c0 4.9706-4.0294 9-9 9h-66c-4.9706 0-9-4.0294-9-9v-86c-6.0872e-16 -4.9706 4.0294-9 9-9h49z"/>
  <filter id="rpm-a" x="-13.7%" y="-9.1%" width="127.4%" height="122.1%">
   <feOffset dy="2" in="SourceAlpha" result="shadowOffsetOuter1"/>
   <feGaussianBlur in="shadowOffsetOuter1" result="shadowBlurOuter1" stdDeviation="3.5"/>
   <feColorMatrix in="shadowBlurOuter1" values="0 0 0 0 0.361595344   0 0 0 0 0.418797512   0 0 0 0 0.450973732  0 0 0 0.5 0"/>
  </filter>
  <linearGradient id="rpm-f" x1="71" x2="60.727" y1="13" y2="23.71" gradientUnits="userSpaceOnUse">
   <stop stop-color="#FFF" stop-opacity=".1" offset="0"/>
   <stop stop-color="#FFF" stop-opacity=".3" offset="1"/>
  </linearGradient>
  <path id="rpm-e" d="m58 0 26 26h-17c-4.9706 0-9-4.0294-9-9v-17z"/>
  <filter id="rpm-d" x="-21.2%" y="-13.5%" width="142.3%" height="142.3%">
   <feOffset dy="2" in="SourceAlpha" result="shadowOffsetOuter1"/>
   <feGaussianBlur in="shadowOffsetOuter1" result="shadowBlurOuter1" stdDeviation="1.5"/>
   <feComposite in="shadowBlurOuter1" in2="SourceAlpha" operator="out" result="shadowBlurOuter1"/>
   <feColorMatrix in="shadowBlurOuter1" values="0 0 0 0 0   0 0 0 0 0   0 0 0 0 0  0 0 0 0.05 0"/>
  </filter>
 </defs>
 <g transform="translate(22,14)" fill-rule="evenodd">
  <use width="100%" height="100%" fill="#000000" filter="url(#rpm-a)" xlink:href="#rpm-b"/>
  <use width="100%" height="100%" fill="url(#rpm-c)" xlink:href="#rpm-b"/>
  <use width="100%" height="100%" fill="#000000" filter="url(#rpm-d)" xlink:href="#rpm-e"/>
  <use width="100%" height="100%" fill="url(#rpm-f)" xlink:href="#rpm-e"/>
 </g>
 <path d="m52.124 50.209a2.5661 2.5698 0 0 0-0.24246 0.0041 2.5661 2.5698 0 0 0-0.67885 0.14143s-1.606 0.53082-3.4671 1.5113c-1.8609 0.98048-4.1215 2.3538-5.5763 4.7115-1.6195 2.6242-1.0047 5.4319-0.50107 7.1119 0.50366 1.68 0.7804 2.4148 0.31518 3.5397-0.22719 0.5493-1.6207 1.7496-3.1437 2.4972-1.5242 0.74777-2.9054 1.1395-2.9054 1.1395a2.5661 2.5698 0 0 0-1.8345 3.1599 2.5661 2.5698 0 0 0 1.8345 3.0831s1.3823 0.3919 2.9054 1.1395c1.5231 0.7476 2.9168 1.952 3.1437 2.5013 0.4652 1.1248 0.18846 1.8596-0.31518 3.5397-0.50366 1.68-1.1184 4.4875 0.50107 7.1119 1.4551 2.3577 3.7156 3.7311 5.5763 4.7115 1.8609 0.98048 3.4671 1.5113 3.4671 1.5113a2.5661 2.5698 0 1 0 1.6163-4.8733s-1.2212-0.41345-2.6912-1.188c-1.4701-0.77456-3.0446-1.9682-3.6003-2.869-0.62878-1.0189-0.42314-1.3701 0.04444-2.9296 0.46755-1.5596 1.3127-4.1507 0.14143-6.9826-1.0374-2.5079-3.1083-3.8354-4.9621-4.7924 1.8538-0.95727 3.9247-2.2845 4.9621-4.7924 1.1713-2.8319 0.32614-5.423-0.14143-6.9826-0.46755-1.5596-0.6732-1.9108-0.04444-2.9296 0.55588-0.90074 2.1304-2.0985 3.6003-2.8731 1.4701-0.77456 2.6912-1.184 2.6912-1.184a2.5661 2.5698 0 0 0-0.69102-5.0171h-0.0041zm23.741 0a2.5661 2.5698 0 0 0-0.68291 5.0188s1.2211 0.4094 2.6912 1.184c1.47 0.7746 3.0446 1.9723 3.6003 2.8731 0.62876 1.0188 0.42311 1.37-0.0444 2.9296-0.46758 1.5595-1.3128 4.1507-0.14143 6.9826 1.0374 2.5079 3.1083 3.8351 4.9621 4.7924-1.8539 0.95718-3.9247 2.2845-4.9621 4.7924-1.1713 2.8319-0.32613 5.423 0.14143 6.9826 0.46757 1.5596 0.67322 1.9108 0.0444 2.9296-0.55577 0.90076-2.1304 2.0944-3.6003 2.869-1.47 0.77456-2.6912 1.188-2.6912 1.188a2.5661 2.5698 0 1 0 1.6163 4.8733s1.6061-0.5308 3.4671-1.5113c1.8608-0.98059 4.1213-2.3538 5.5763-4.7115 1.6195-2.6244 1.0047-5.4319 0.50108-7.1119-0.50366-1.6802-0.7804-2.415-0.31518-3.5397 0.22708-0.5493 1.6206-1.7537 3.1437-2.5013 1.5231-0.74762 2.9054-1.1395 2.9054-1.1395a2.5661 2.5698 0 0 0 1.8346-3.0831 2.5661 2.5698 0 0 0-1.8346-3.1599s-1.3812-0.39175-2.9054-1.1395c-1.5231-0.74762-2.9166-1.948-3.1437-2.4972-0.4652-1.1249-0.18848-1.8597 0.31518-3.5397 0.50365-1.68 1.1184-4.4877-0.50108-7.1119-1.4549-2.3577-3.7154-3.7311-5.5763-4.7115-1.861-0.98046-3.471-1.5113-3.471-1.5113a2.5661 2.5698 0 0 0-0.67654-0.14069 2.5661 2.5698 0 0 0-0.2462-0.0041 2.5661 2.5698 0 0 0-0.0081 0zm-11.865 10.345a5.1723 5.1723 0 0 0-5.1723 5.1723 5.1723 5.1723 0 0 0 5.1723 5.1723 5.1723 5.1723 0 0 0 5.1723-5.1723 5.1723 5.1723 0 0 0-5.1723-5.1723zm0 15.517c-2.8568 0-5.1723 2.3157-5.1723 5.1723s2.3157 5.1723 5.1723 5.1723c1.8283 0 2.5861 5.1723 2.5861 5.1723s2.5861-9.3163 2.5861-10.345c0-2.8568-2.3157-5.1723-5.1723-5.1723z" fill="#fff" fill-rule="evenodd" stroke-width="2.0689"/>
</svg>
