<svg width="128" height="128" version="1.1" viewBox="0 0 128 128" xmlns="http://www.w3.org/2000/svg">
 <defs>
  <filter id="x-media-podcast-a" x="-.137" y="-.091" width="1.274" height="1.221">
   <feOffset dy="2" in="SourceAlpha" result="shadowOffsetOuter1"/>
   <feGaussianBlur in="shadowOffsetOuter1" result="shadowBlurOuter1" stdDeviation="3.5"/>
   <feColorMatrix in="shadowBlurOuter1" values="0 0 0 0 0.241013895   0 0 0 0 0   0 0 0 0 0.621603261  0 0 0 0.5 0"/>
  </filter>
  <linearGradient id="x-media-podcast-c" x1="46.733" x2="46.733" y2="93.467" gradientTransform="scale(.89872 1.1127)" gradientUnits="userSpaceOnUse">
   <stop stop-color="#5C42B1" offset="0"/>
   <stop stop-color="#3E1888" offset=".99345"/>
  </linearGradient>
  <filter id="x-media-podcast-d" x="-.212" y="-.135" width="1.423" height="1.423">
   <feOffset dy="2" in="SourceAlpha" result="shadowOffsetOuter1"/>
   <feGaussianBlur in="shadowOffsetOuter1" result="shadowBlurOuter1" stdDeviation="1.5"/>
   <feComposite in="shadowBlurOuter1" in2="SourceAlpha" operator="out" result="shadowBlurOuter1"/>
   <feColorMatrix in="shadowBlurOuter1" values="0 0 0 0 0   0 0 0 0 0   0 0 0 0 0  0 0 0 0.05 0"/>
  </filter>
  <linearGradient id="x-media-podcast-f" x1="71" x2="60.727" y1="13" y2="23.71" gradientUnits="userSpaceOnUse">
   <stop stop-color="#FFF" stop-opacity=".1" offset="0"/>
   <stop stop-color="#FFF" stop-opacity=".3" offset="1"/>
  </linearGradient>
 </defs>
 <g transform="translate(22,14)" fill-rule="evenodd">
  <path d="m58 0 26 26v69c0 4.9706-4.0294 9-9 9h-66c-4.9706 0-9-4.0294-9-9v-86c0-4.9706 4.0294-9 9-9z" filter="url(#x-media-podcast-a)"/>
  <path d="m58 0 26 26v69c0 4.9706-4.0294 9-9 9h-66c-4.9706 0-9-4.0294-9-9v-86c0-4.9706 4.0294-9 9-9z" fill="url(#x-media-podcast-c)"/>
  <path d="m58 0 26 26h-17c-4.9706 0-9-4.0294-9-9z" filter="url(#x-media-podcast-d)"/>
  <path d="m58 0 26 26h-17c-4.9706 0-9-4.0294-9-9z" fill="url(#x-media-podcast-f)"/>
 </g>
 <polygon points="46 76 84 76 84 48 46 48 46 46 44 46 44 94 46 94" fill="#fff" fill-rule="evenodd"/>
</svg>
