<svg width="128" height="128" version="1.1" viewBox="0 0 128 128" xmlns="http://www.w3.org/2000/svg">
 <defs>
  <filter id="application-x-7zip-a" x="-.137" y="-.091" width="1.274" height="1.221">
   <feOffset dy="2" in="SourceAlpha" result="shadowOffsetOuter1"/>
   <feGaussianBlur in="shadowOffsetOuter1" result="shadowBlurOuter1" stdDeviation="3.5"/>
   <feColorMatrix in="shadowBlurOuter1" values="0 0 0 0 0.241013895   0 0 0 0 0   0 0 0 0 0.621603261  0 0 0 0.5 0"/>
  </filter>
  <linearGradient id="application-x-7zip-c" x1="46.733" x2="46.733" y2="93.467" gradientTransform="matrix(.89872 0 0 1.1127 22 14)" gradientUnits="userSpaceOnUse">
   <stop stop-color="#5C42B1" offset="0"/>
   <stop stop-color="#3E1888" offset=".99345"/>
  </linearGradient>
  <filter id="application-x-7zip-d" x="-.212" y="-.135" width="1.423" height="1.423">
   <feOffset dy="2" in="SourceAlpha" result="shadowOffsetOuter1"/>
   <feGaussianBlur in="shadowOffsetOuter1" result="shadowBlurOuter1" stdDeviation="1.5"/>
   <feComposite in="shadowBlurOuter1" in2="SourceAlpha" operator="out" result="shadowBlurOuter1"/>
   <feColorMatrix in="shadowBlurOuter1" values="0 0 0 0 0   0 0 0 0 0   0 0 0 0 0  0 0 0 0.05 0"/>
  </filter>
  <linearGradient id="application-x-7zip-f" x1="71" x2="60.727" y1="13" y2="23.71" gradientTransform="translate(22,14)" gradientUnits="userSpaceOnUse">
   <stop stop-color="#FFF" stop-opacity=".1" offset="0"/>
   <stop stop-color="#FFF" stop-opacity=".3" offset="1"/>
  </linearGradient>
 </defs>
 <g fill-rule="evenodd">
  <path d="m80 14 26 26v69c0 4.9706-4.0294 9-9 9h-66c-4.9706 0-9-4.0294-9-9v-86c0-4.9706 4.0294-9 9-9z" filter="url(#application-x-7zip-a)"/>
  <path d="m80 14 26 26v69c0 4.9706-4.0294 9-9 9h-66c-4.9706 0-9-4.0294-9-9v-86c0-4.9706 4.0294-9 9-9z" fill="url(#application-x-7zip-c)"/>
  <path d="m80 14 26 26h-17c-4.9706 0-9-4.0294-9-9z" filter="url(#application-x-7zip-d)"/>
  <path d="m80 14 26 26h-17c-4.9706 0-9-4.0294-9-9z" fill="url(#application-x-7zip-f)"/>
 </g>
 <path d="m76.481 44 1.935 12.469h-1.935c-0.81091-2.0179-1.9627-3.8971-3.4554-5.6374-1.4928-1.7587-2.4577-2.5726-3.6924-2.8318-0.5529-0.11104-17.333 0-17.333 0l16.105 20.66v0.7498l-17.105 20.59h21c2.6667 0 4.3734-0.25946 5-1 0.66341-0.77757 1.066-1.9095 1.5821-2.8722 0.51598-0.9627 0.93984-1.8513 1.2716-2.6659l1.8521 0.58318-3.1237 11.955h-34.582v-1.1246l19.24-23.299-19.24-24.91v-2.6667z" fill="#fff" fill-rule="evenodd"/>
</svg>
