<svg width="128" height="128" version="1.1" viewBox="0 0 128 128" xmlns="http://www.w3.org/2000/svg" xmlns:xlink="http://www.w3.org/1999/xlink">
 <defs>
  <linearGradient id="application-x-7zip-c" x1="46.733" x2="46.733" y2="93.467" gradientTransform="scale(.89872 1.1127)" gradientUnits="userSpaceOnUse">
   <stop stop-color="#5C42B1" offset="0"/>
   <stop stop-color="#3E1888" offset=".99345"/>
  </linearGradient>
  <path id="application-x-7zip-b" d="m58 0 26 26v69c0 4.9706-4.0294 9-9 9h-66c-4.9706 0-9-4.0294-9-9v-86c-6.0872e-16 -4.9706 4.0294-9 9-9h49z"/>
  <filter id="application-x-7zip-a" x="-13.7%" y="-9.1%" width="127.4%" height="122.1%">
   <feOffset dy="2" in="SourceAlpha" result="shadowOffsetOuter1"/>
   <feGaussianBlur in="shadowOffsetOuter1" result="shadowBlurOuter1" stdDeviation="3.5"/>
   <feColorMatrix in="shadowBlurOuter1" values="0 0 0 0 0.241013895   0 0 0 0 0   0 0 0 0 0.621603261  0 0 0 0.5 0"/>
  </filter>
  <linearGradient id="application-x-7zip-f" x1="71" x2="60.727" y1="13" y2="23.71" gradientUnits="userSpaceOnUse">
   <stop stop-color="#FFF" stop-opacity=".1" offset="0"/>
   <stop stop-color="#FFF" stop-opacity=".3" offset="1"/>
  </linearGradient>
  <path id="application-x-7zip-e" d="m58 0 26 26h-17c-4.9706 0-9-4.0294-9-9v-17z"/>
  <filter id="application-x-7zip-d" x="-21.2%" y="-13.5%" width="142.3%" height="142.3%">
   <feOffset dy="2" in="SourceAlpha" result="shadowOffsetOuter1"/>
   <feGaussianBlur in="shadowOffsetOuter1" result="shadowBlurOuter1" stdDeviation="1.5"/>
   <feComposite in="shadowBlurOuter1" in2="SourceAlpha" operator="out" result="shadowBlurOuter1"/>
   <feColorMatrix in="shadowBlurOuter1" values="0 0 0 0 0   0 0 0 0 0   0 0 0 0 0  0 0 0 0.05 0"/>
  </filter>
 </defs>
 <use transform="translate(22,14)" width="100%" height="100%" fill="#000000" fill-rule="evenodd" filter="url(#application-x-7zip-a)" xlink:href="#application-x-7zip-b"/>
 <use transform="translate(22,14)" width="100%" height="100%" fill="url(#application-x-7zip-c)" fill-rule="evenodd" xlink:href="#application-x-7zip-b"/>
 <use transform="translate(22,14)" width="100%" height="100%" fill="#000000" fill-rule="evenodd" filter="url(#application-x-7zip-d)" xlink:href="#application-x-7zip-e"/>
 <use transform="translate(22,14)" width="100%" height="100%" fill="url(#application-x-7zip-f)" fill-rule="evenodd" xlink:href="#application-x-7zip-e"/>
 <path d="m55.001 106-0.0016-50.376c-3.502 1.3116-4.8582 2.5778-6.8192 5.3764-1.9542 2.7892-2.2134 7.8424-2.2134 11.997 0 0.9472 0.04886 1.7248 0.14664 2.3328 0.12086 0.5828 0.2422 1.0564 0.36414 1.4208 0.12194 0.34024 0.23178 0.6075 0.32952 0.80178 0.12086 0.19428 0.18124 0.3644 0.18124 0.51038-1.2885 0-2.431-0.12128-3.4274-0.36384-0.99738-0.2678-1.8366-0.68104-2.5178-1.2397-0.6569-0.55756-1.1677-1.2984-1.5324-2.2226-0.34054-0.92196-0.5108-2.0634-0.5108-3.4244 0-1.6518 0.46316-4.6344 1.0562-6.2816 2.5664-7.1278 11.295-11.718 18.052-13.737 2.085-0.6232 4.2194-0.7672 6.3108-0.7672 0.78704-0.09884 2.521 0.14056 2.5812 0.14488v45.916l16.785-45.7h5.2152l-20.752 55.614h-13.249z" fill="#fff" stroke-width="2"/>
</svg>
