<svg width="16" height="16" version="1.1" viewBox="0 0 16 16" xmlns="http://www.w3.org/2000/svg" xmlns:xlink="http://www.w3.org/1999/xlink">
 <defs>
  <linearGradient id="text-css-c" x1="8.641" x2="8.641" y1=".92582" y2="13.887" gradientTransform="scale(.92582 1.0801)" gradientUnits="userSpaceOnUse">
   <stop stop-color="#FC7440" offset="0"/>
   <stop stop-color="#F04E11" offset="1"/>
  </linearGradient>
  <path id="text-css-b" d="m4.0085 15c-1.1093 0-2.0085-0.89706-2.0085-2.0059v-9.9883c0-1.1078 0.90195-2.0059 2.0085-2.0059h7.9829c1.1093 0 2.0085 0.89706 2.0085 2.0059v9.9883c0 1.1078-0.90195 2.0059-2.0085 2.0059h-7.9829z"/>
  <filter id="text-css-a" x="-16.7%" y="-7.1%" width="133.3%" height="128.6%">
   <feOffset dy="1" in="SourceAlpha" result="shadowOffsetOuter1"/>
   <feGaussianBlur in="shadowOffsetOuter1" result="shadowBlurOuter1" stdDeviation=".5"/>
   <feColorMatrix in="shadowBlurOuter1" values="0 0 0 0 0.941176471   0 0 0 0 0.309803922   0 0 0 0 0.0705882353  0 0 0 0.5 0"/>
  </filter>
 </defs>
 <use width="100%" height="100%" fill="#000000" fill-rule="evenodd" filter="url(#text-css-a)" xlink:href="#text-css-b"/>
 <use width="100%" height="100%" fill="url(#text-css-c)" fill-rule="evenodd" xlink:href="#text-css-b"/>
 <path d="m5 10h-1v1h4v-1h-1v-1c1 0 1 2 2 2h2c1 0 1-2 1-2h-1s0 1-1 1c-0.5 0-1-1-1-1h0.5c0.831 0 1.5-0.7 1.5-1.5s-0.669-1.5-1.5-1.5h-5.5v1h1m2 0h1.5c0.277 0 0.5 0.2 0.5 0.5s-0.223 0.5-0.5 0.5h-1.5z" fill="#fff"/>
</svg>
